<?xml version="1.0" encoding="UTF-8"?><svg id="Layer_1" xmlns="http://www.w3.org/2000/svg" viewBox="0 0 32 32"><defs><style>.cls-1{fill:#2272b9;}.cls-2{fill:#fff;}</style></defs><rect class="cls-1" width="32" height="32"/><path class="cls-2" d="M29.45,4.32l-6.41,8.7s0,0,0,0l-1.07,1.45-.24.33h0s-6.76,9.21-6.76,9.21l-8.37-6.5s0,.08,0,.12c0,2.47.71,5.15,2.63,7.05,1.28,1.26,3.44,2.14,6.08,2.14s4.92-.97,6.17-2.25c.62-.64,1.14-1.38,1.54-2.23.79-1.71,1-3.14,1-4.72,0-1.12-.15-2.19-.45-3.19l5.88-10.12Z"/><path class="cls-2" d="M27.45,5.95l-6.05,4.65c-1.39-1.34-3.5-2.15-6.08-2.15-2.99,0-5.41,1.11-6.72,2.89-.45.6-.82,1.25-1.12,1.93l7.44,5.38,12.53-12.7Z"/></svg>