<?xml version="1.0" standalone="no"?>
<!DOCTYPE svg PUBLIC "-//W3C//DTD SVG 1.1//EN" "http://www.w3.org/Graphics/SVG/1.1/DTD/svg11.dtd" >
<svg xmlns="http://www.w3.org/2000/svg" xmlns:xlink="http://www.w3.org/1999/xlink" version="1.1">
<metadata>
Created by FontForge 20170910 at Thu Jul  9 17:30:59 2015
 By Jimmy Wärting
Copyright (c) 2015 by Jonathan Hill. All rights reserved.
</metadata>
<defs>
<font id="Halcom-MediumItalic" horiz-adv-x="615" >
  <font-face 
    font-family="Halcom-MediumItalic"
    font-weight="400"
    font-style="italic"
    font-stretch="normal"
    units-per-em="1000"
    panose-1="0 0 6 0 0 0 0 0 0 0"
    ascent="768"
    descent="-232"
    x-height="500"
    cap-height="700"
    bbox="-58.998 -283.999 1379.46 1153"
    underline-thickness="50"
    underline-position="-50"
    unicode-range="U+0020-FB02"
  />
<missing-glyph horiz-adv-x="500" 
d="M0 0v700h500v-700h-500zM250 395l170 255h-340zM280 350l170 -255v510zM80 50h340l-170 255zM50 605v-510l170 255z" />
    <glyph glyph-name="fi" unicode="fi" horiz-adv-x="668" 
d="M673 500l-70.001 -499.999h-112l58 414h-247l-58 -414h-112l58 414h-98l10 68l95 18h5l5 33c8.66699 62.667 29.834 109.5 63.501 140.5s74.167 46.5 121.5 46.5c51.333 0 102.666 -15.667 153.999 -47l-32 -70c-35.333 15.333 -69.666 22.666 -102.999 21.999
c-24.667 0 -45.167 -8.33301 -61.5 -25s-26.5 -39.667 -30.5 -69l-5 -31h296h63z" />
    <glyph glyph-name="fl" unicode="fl" horiz-adv-x="799" 
d="M414 624c-17.333 0 -32.665 -3.99805 -45.998 -11.998s-24.333 -19.333 -33 -34s-14.334 -32.334 -17.001 -53.001l-4 -25h142l-12 -89h-142l-58 -411h-112l57 411h-97l9 71l96 18h5l3 25c9.33301 65.333 31.666 114.166 66.999 146.499s78 48.5 128 48.5
c48.667 0 97.667 -14 147 -42l-33 -75c-34.667 14 -68 21 -100 21zM732.001 87.002l24.0039 -82c-30.667 -12.667 -61.334 -19 -92.001 -19c-44.667 0 -79.834 13.5 -105.501 40.5s-34.834 66.833 -27.501 119.5l78 554h113l-78 -552c-6 -44.667 12 -66.667 54 -66
c9.33301 0 20.666 1.66699 33.999 5z" />
    <glyph glyph-name=".notdef" horiz-adv-x="500" 
d="M0 0v700h500v-700h-500zM250 395l170 255h-340zM280 350l170 -255v510zM80 50h340l-170 255zM50 605v-510l170 255z" />
    <glyph glyph-name="space" unicode=" " horiz-adv-x="245" 
 />
    <glyph glyph-name="exclam" unicode="!" horiz-adv-x="266" 
d="M209 196h-98l56 504h128zM146 135c13.333 0 25.333 -3.5 36 -10.5s18.5 -16.333 23.5 -28s6.5 -24.5 4.5 -38.5c-2 -17.333 -10.167 -32 -24.5 -44s-30.166 -18 -47.499 -18c-20.667 0 -37.334 7.5 -50.001 22.5s-17.667 32.833 -15 53.5c2.66699 18 11 33 25 45
s30 18 48 18z" />
    <glyph glyph-name="quotedbl" unicode="&#x22;" horiz-adv-x="415" 
d="M221 482h-89l21 268h122zM418 482h-89l22 268h121z" />
    <glyph glyph-name="numbersign" unicode="#" horiz-adv-x="680" 
d="M580 410l-40 -129h114l-31 -98h-114l-58 -183h-111l58 183h-125l-57 -183h-111l58 183h-110l31 98h110l41 129h-110l31 98h110l61 192h110l-60 -192h124l61 192h110l-60 -192h114l-31 -98h-115zM470 410h-125l-40 -129h124z" />
    <glyph glyph-name="dollar" unicode="$" horiz-adv-x="628" 
d="M398 406c2 -0.666992 4.33496 -1.33398 7.00195 -2.00098c20.667 -5.33301 36.334 -9.5 47.001 -12.5s25.5 -8 44.5 -15s33.667 -13.667 44 -20s22.166 -15 35.499 -26s23 -22.667 29 -35s10.667 -27.166 14 -44.499s3.66602 -36.333 0.999023 -57
c-4.66699 -31.333 -15 -59.666 -31 -84.999s-35.667 -46.166 -59 -62.499s-48.5 -29.333 -75.5 -39s-55.167 -16.167 -84.5 -19.5l-14 -105h-106l15 108c-43.333 7.33301 -83.166 21.333 -119.499 42s-64.5 45.667 -84.5 75l76 74c12.667 -18.667 30 -34.834 52 -48.501
s45.167 -23.667 69.5 -30s48.5 -9.16602 72.5 -8.49902c43.333 -0.666992 80.333 8.66602 111 27.999s48.334 45.666 53.001 78.999c1.33301 11.333 0.5 21.333 -2.5 30s-6.83301 15.667 -11.5 21s-13 10.666 -25 15.999s-22.5 9.5 -31.5 12.5s-23.5 7.5 -43.5 13.5
c-3.33301 0.666992 -5.83301 1.33398 -7.5 2.00098s-4 1.33398 -7 2.00098s-5.83301 1.33398 -8.5 2.00098c-45.333 13.333 -81.833 25.666 -109.5 36.999s-51.334 25 -71.001 41s-32.667 34.5 -39 55.5s-7.5 46.167 -3.5 75.5c4.66699 31.333 14.167 59.333 28.5 84
s32.166 44.834 53.499 60.501s44.333 28.167 69 37.5s51.334 15.666 80.001 18.999l15 106h106l-15 -106c79.333 -10 143.666 -39.667 192.999 -89l-75 -78c-44.667 40 -103.667 60 -177 60c-92 0 -143 -34 -153 -102c-2.66699 -22.667 4.16602 -39.834 20.499 -51.501
s55.5 -26.5 117.5 -44.5z" />
    <glyph glyph-name="percent" unicode="%" horiz-adv-x="956" 
d="M323 716c38.667 0 71.8311 -9.33301 99.498 -28s47.167 -43.5 58.5 -74.5s14.333 -65.167 9 -102.5c-7.33301 -54 -30.666 -99.333 -69.999 -136s-86.333 -55 -141 -55c-57.333 0 -101.666 19.833 -132.999 59.5s-43 88.167 -35 145.5c8 54.667 31.667 100.167 71 136.5
s86.333 54.5 141 54.5zM325.997 -14h-118l512 728h117zM320.997 628c-27.333 0 -51.5 -10.833 -72.5 -32.5s-33.833 -49.834 -38.5 -84.501c-4.66699 -31.333 -0.333984 -56.333 12.999 -75s32.333 -28 57 -28c27.333 0 51.666 10.833 72.999 32.5s34.333 49.834 39 84.501
c4.66699 31.333 0.333984 56.333 -12.999 75s-32.666 28 -57.999 28zM775.997 381c58 0 102.499 -19.6699 133.499 -59.0029s42.167 -87.666 33.5 -144.999c-7.33301 -54.667 -30.666 -100.167 -69.999 -136.5s-86.333 -54.5 -141 -54.5c-58 0 -102.5 19.833 -133.5 59.5
s-42.5 87.834 -34.5 144.501c8 54.667 31.667 100.334 71 137.001s86.333 54.667 141 54zM773.996 293.997c-27.333 0 -51.502 -10.832 -72.502 -32.499s-33.833 -49.834 -38.5 -84.501c-2.66699 -20.667 -1.5 -39 3.5 -55s13.167 -28 24.5 -36s25.333 -12 42 -12
c28 0 52.5 10.667 73.5 32s33.833 49.333 38.5 84c4.66699 32 0.333984 57.333 -12.999 76s-32.666 28 -57.999 28z" />
    <glyph glyph-name="ampersand" unicode="&#x26;" horiz-adv-x="735" 
d="M680 20l-1.99707 -20h-141l-24 31c-52 -30 -113 -45 -183 -45c-80 0 -142.833 20 -188.5 60s-63.834 94.333 -54.501 163c12 80.667 58.333 138.667 139 174l8 3l-14 19c-24.667 31.333 -33.334 72 -26.001 122c8 56 32.833 101.167 74.5 135.5s92.167 51.5 151.5 51.5
c62 0 109.333 -18.167 142 -54.5s45 -82.833 37 -139.5c-2.66699 -18.667 -7.83398 -35.667 -15.501 -51s-16.167 -28.166 -25.5 -38.499s-22.5 -20.833 -39.5 -31.5s-32.667 -19.334 -47 -26.001s-33.833 -15 -58.5 -25l100 -122l17 94h117l-16 -119
c-4.66699 -30.667 -14.667 -58.667 -30 -84zM311.003 515c-3.33301 -22 0.331055 -40.002 10.998 -54.002l23 -28l26 11c42.667 17.333 71.334 31.5 86.001 42.5s23.334 25.833 26.001 44.5c4 22.667 0.5 40.834 -10.5 54.501s-30.167 20.834 -57.5 21.501
c-29.333 -0.666992 -53 -8.66699 -71 -24s-29 -38 -33 -68zM333 92.998c43.333 0 80.3311 8.66797 110.998 26.001l-142 181l-34 -17c-34 -16.667 -54 -45 -60 -85c-3.33301 -22.667 -0.666016 -41.834 8.00098 -57.501s22.834 -27.5 42.501 -35.5s44.5 -12 74.5 -12z" />
    <glyph glyph-name="quotesingle" unicode="'" horiz-adv-x="217" 
d="M221 482h-89l21 268h122z" />
    <glyph glyph-name="parenleft" unicode="(" horiz-adv-x="392" 
d="M403 782l41.001 -65.999c-58 -56 -106.333 -123.167 -145 -201.5s-64.334 -162.833 -77.001 -253.5c-12 -88.667 -10 -171.667 6 -249s45.333 -143.333 88 -198l-49 -56c-62.667 52.667 -107.667 124.5 -135 215.5s-33.333 191.5 -18 301.5
c15.333 107.333 48.333 205.666 99 294.999s114 160 190 212z" />
    <glyph glyph-name="parenright" unicode=")" horiz-adv-x="392" 
d="M153 721l49.999 55.999c62 -52 106.333 -123.5 133 -214.5s32.334 -191.5 17.001 -301.5c-14.667 -107.333 -47.667 -205.666 -99 -294.999s-115.333 -160 -192 -212l-40 65c58 55.333 106.5 122.333 145.5 201s64.833 163.667 77.5 255c12.667 88 11 170.667 -5 248
s-45 143.333 -87 198z" />
    <glyph glyph-name="asterisk" unicode="*" horiz-adv-x="446" 
d="M349 584l131 49l18 -99l-134 -34l71 -103l-91 -62l-56 113l-88 -113l-78 62l99 103l-124 34l45 99l119 -49l11 134h105z" />
    <glyph glyph-name="plus" unicode="+" horiz-adv-x="552" 
d="M548 243h-189l-27 -190h-97l26 190h-189l14 97h189l27 189h97l-27 -189h190z" />
    <glyph glyph-name="comma" unicode="," horiz-adv-x="246" 
d="M138 135c19.333 0 35.168 -7 47.501 -21s18.5 -32.333 18.5 -55c1.33301 -32.667 -11.334 -68.834 -38.001 -108.501s-58.667 -72.167 -96 -97.5l-48 35c40.667 32 71 69.667 91 113c-15.333 1.33301 -27.833 8.83301 -37.5 22.5s-13.167 29.834 -10.5 48.501
c2.66699 18 11 33 25 45s30 18 48 18z" />
    <glyph glyph-name="hyphen" unicode="-" horiz-adv-x="422" 
d="M411 245h-331l13 92h331z" />
    <glyph glyph-name="period" unicode="." horiz-adv-x="223" 
d="M125 135c20.667 0 37.333 -7.5 50 -22.5s17.334 -33.167 14.001 -54.5c-2.66699 -17.333 -11 -32 -25 -44s-29.667 -18 -47 -18c-20.667 0 -37.334 7.5 -50.001 22.5s-17.667 32.833 -15 53.5c2.66699 18 11 33 25 45s30 18 48 18z" />
    <glyph glyph-name="slash" unicode="/" horiz-adv-x="516" 
d="M134 -14h-121l457 728h122z" />
    <glyph glyph-name="zero" unicode="0" horiz-adv-x="743" 
d="M463 694c62 0 114.667 -16.335 158 -49.002s73.833 -76.334 91.5 -131.001s21.834 -115 12.501 -181c-8.66699 -64 -28.834 -122.167 -60.501 -174.5s-72.834 -94.166 -123.501 -125.499s-106 -47 -166 -47c-61.333 0 -113.666 16.333 -156.999 49
s-74 76.334 -92 131.001s-22.333 115 -13 181c14 98.667 53.5 181.334 118.5 248.001s142.167 99.667 231.5 99zM458 582.998c-35.333 0 -68.5 -10.1689 -99.5 -30.502s-57.167 -49.666 -78.5 -87.999s-35.333 -82.166 -42 -131.499c-10 -70.667 -1.66699 -127.667 25 -171
s65.667 -65 117 -65c54 0 101.667 23.167 143 69.5s67.333 106.5 78 180.5c10 70 1.83301 126.833 -24.5 170.5s-65.833 65.5 -118.5 65.5z" />
    <glyph glyph-name="one" unicode="1" horiz-adv-x="509" 
d="M345 102h138l-14 -102h-415l14 102h155l62 438l-131 -60l-37 92l240 108h69z" />
    <glyph glyph-name="two" unicode="2" horiz-adv-x="607" 
d="M354 240c-56 -24 -96.333 -45.5029 -121 -64.5029s-40 -43.5 -46 -73.5h371l-14 -102h-497l8 59l7 52c2.66699 16.667 6.5 32.167 11.5 46.5s11.667 27.5 20 39.5s16.5 23 24.5 33s18.667 19.833 32 29.5s25 18 35 25s23.167 14.667 39.5 23s29.833 15 40.5 20
s25.334 11.833 44.001 20.5c31.333 13.333 55 23.833 71 31.5s31.833 15.834 47.5 24.501s26.834 16.834 33.501 24.501s12.167 16.334 16.5 26.001s7.5 21.167 9.5 34.5c5.33301 36 -2 60.667 -22 74s-55.333 20 -106 20c-58.667 0 -115.334 -8 -170.001 -24l-37 97
c64.667 25.333 137 38 217 38c30 0 57.5 -2 82.5 -6s48.5 -11.167 70.5 -21.5s40.333 -23.5 55 -39.5s25.167 -36.5 31.5 -61.5s7.16602 -53.5 2.49902 -85.5c-2.66699 -18 -7 -35 -13 -51s-12.5 -29.833 -19.5 -41.5s-17 -23.5 -30 -35.5s-24.333 -21.667 -34 -29
s-24.167 -16.166 -43.5 -26.499s-34.833 -18.333 -46.5 -24s-29.5 -13.834 -53.5 -24.501c-7.33301 -4 -13 -6.66699 -17 -8z" />
    <glyph glyph-name="three" unicode="3" horiz-adv-x="628" 
d="M605 495c-8.66699 -60.667 -43.667 -105.667 -105 -135c33.333 -16.667 58.166 -39.5 74.499 -68.5s21.833 -62.167 16.5 -99.5c-8.66699 -62.667 -41.334 -112.667 -98.001 -150s-126 -56 -208 -56c-87.333 0 -165 15 -233 45l56 95c53.333 -19.333 115 -29 185 -29
c48.667 0 88.667 10.333 120 31s49.333 47.334 54 80.001c2.66699 19.333 -0.833008 36.166 -10.5 50.499s-25.167 25.5 -46.5 33.5s-47.666 12 -78.999 12h-97l12 83l3 24h87c40.667 0 73.834 8.5 99.501 25.5s40.5 39.167 44.5 66.5c2 12 1 22.833 -3 32.5
s-10.667 18 -20 25s-21.5 12.5 -36.5 16.5s-32.5 6 -52.5 6c-58 0 -113.333 -8.66699 -166 -26l-38 100c62.667 24.667 132.667 37 210 37c76.667 0 136.5 -18.333 179.5 -55s60.167 -84.667 51.5 -144z" />
    <glyph glyph-name="four" unicode="4" horiz-adv-x="643" 
d="M544 258h92l-14 -101h-93l-22 -157h-121l22 157h-358l10 77l426 446h117zM222 258h200l37 255z" />
    <glyph glyph-name="five" unicode="5" horiz-adv-x="632" 
d="M598 578l-305 -0.000976562l-26 -163c30 7.33301 65.667 11 107 11c77.333 0 137.333 -19.833 180 -59.5s59 -91.5 49 -155.5c-9.33301 -68 -42.5 -122.5 -99.5 -163.5s-126.833 -61.5 -209.5 -61.5c-86.667 0 -164 16.333 -232 49l56 94c52.667 -21.333 113 -32 181 -32
c50 0 91.167 11.333 123.5 34s50.833 52.334 55.5 89.001c4.66699 33.333 -2.83301 59.833 -22.5 79.5s-49.5 29.167 -89.5 28.5c-55.333 0 -110 -11 -164 -33l-60 66l43 319h427z" />
    <glyph glyph-name="six" unicode="6" horiz-adv-x="659" 
d="M466 694c66 0 124.328 -17.001 174.995 -51.001l-47 -81c-37.333 19.333 -80.333 29 -129 29c-34.667 0 -67.5 -9 -98.5 -27s-57.5 -43.167 -79.5 -75.5s-38 -69.166 -48 -110.499c54 31.333 115 47 183 47c70 0 125.167 -19.333 165.5 -58s55.833 -91.334 46.5 -158.001
c-9.33301 -67.333 -41.166 -121.333 -95.499 -162s-118.166 -61 -191.499 -61c-39.333 0 -74.166 6.16699 -104.499 18.5s-54.666 29.333 -72.999 51s-33.166 47.167 -44.499 76.5s-17.5 60.833 -18.5 94.5s0.5 68.834 4.5 105.501c15.333 108.667 55.333 196.167 120 262.5
s143 99.5 235 99.5zM413.995 325.999c-66 0 -127.666 -16 -184.999 -48c-10.667 -127.333 30.333 -191 123 -191c42 0 78.167 12.333 108.5 37s48.166 58 53.499 100c10 68 -23.333 102 -100 102z" />
    <glyph glyph-name="seven" unicode="7" horiz-adv-x="535" 
d="M596 600l-398 -600h-141l397 578h-349l14 102h488z" />
    <glyph glyph-name="eight" unicode="8" horiz-adv-x="692" 
d="M669 495c-8.66699 -63.333 -44.334 -108.666 -107.001 -135.999c74 -32 105 -87.667 93 -167c-9.33301 -62.667 -42 -112.667 -98 -150s-124.667 -56 -206 -56c-85.333 0 -152 20.167 -200 60.5s-67.333 93.166 -58 158.499c10.667 77.333 57.334 130.333 140.001 159
c-56 30 -79 78.333 -69 145c8 55.333 37.167 100 87.5 134s112.5 51 186.5 51c76.667 0 136.5 -18.333 179.5 -55s60.167 -84.667 51.5 -144zM288 490c-2 -15.333 0.667969 -28.832 8.00098 -40.499s19.666 -20.834 36.999 -27.501s39 -10 65 -10c42 0 76 8.5 102 25.5
s40.667 39.167 44 66.5c3.33301 24.667 -4.5 44.167 -23.5 58.5s-47.833 21.5 -86.5 21.5c-42 0 -76 -8.83301 -102 -26.5s-40.667 -40.167 -44 -67.5zM531.001 211.001c2.66699 20 -0.833984 37.334 -10.501 52.001s-25.167 26.167 -46.5 34.5s-47.333 12.5 -78 12.5
c-50 0 -91 -10.667 -123 -32s-50 -48.333 -54 -81c-4.66699 -30.667 5 -55 29 -73s59.333 -27 106 -27c50 0 90.833 10.667 122.5 32s49.834 48.666 54.501 81.999z" />
    <glyph glyph-name="nine" unicode="9" horiz-adv-x="659" 
d="M408 694c39.333 0 74.1689 -6.16797 104.502 -18.501s54.666 -29.333 72.999 -51s33.166 -47.167 44.499 -76.5s17.5 -61 18.5 -95s-0.5 -69 -4.5 -105c-15.333 -108.667 -55.333 -196.167 -120 -262.5s-143 -99.5 -235 -99.5c-66 0 -124.333 17 -175 51l47 81
c37.333 -19.333 80 -29 128 -29c54 0 101.667 19.833 143 59.5s69.333 90.834 84 153.501c-54 -31.333 -115 -47 -183 -47c-70.667 0 -126 19.5 -166 58.5s-55.333 91.5 -46 157.5c9.33301 66.667 41 120.5 95 161.5s118 61.5 192 61.5zM403.003 592.999
c-42.667 0 -78.832 -12.167 -108.499 -36.5s-47.5 -57.833 -53.5 -100.5c-10 -68 23.333 -102 100 -102c66 0 127.333 16 184 48c11.333 127.333 -29.334 191 -122.001 191z" />
    <glyph glyph-name="colon" unicode=":" horiz-adv-x="222" 
d="M176 504c20.667 0 37.335 -7.50098 50.002 -22.501s17.667 -32.833 15 -53.5c-2.66699 -17.333 -11 -32.166 -25 -44.499s-30 -18.5 -48 -18.5c-20.667 0 -37.334 7.5 -50.001 22.5s-17.334 33.167 -14.001 54.5c2.66699 17.333 11 32 25 44s29.667 18 47 18z
M124.001 134.999c20.667 0 37.335 -7.5 50.002 -22.5s17.667 -33.167 15 -54.5c-2.66699 -17.333 -11 -32 -25 -44s-30 -18 -48 -18c-20.667 0 -37.334 7.5 -50.001 22.5s-17.334 32.833 -14.001 53.5c2.66699 18 11 33 25 45s29.667 18 47 18z" />
    <glyph glyph-name="semicolon" unicode=";" horiz-adv-x="239" 
d="M186 504c20.667 0 37.332 -7.33398 49.999 -22.001s17.334 -32.667 14.001 -54c-2 -17.333 -10.167 -32.166 -24.5 -44.499s-30.166 -18.5 -47.499 -18.5c-20.667 0 -37.334 7.66699 -50.001 23s-17.667 33.333 -15 54c2.66699 18 11 32.833 25 44.5s30 17.5 48 17.5z
M133.998 134.999c20 0 36.166 -7 48.499 -21s18.5 -32.333 18.5 -55c0.666992 -32.667 -12.166 -68.834 -38.499 -108.501s-58.5 -72.167 -96.5 -97.5l-47 35c40 32 70 69.667 90 113c-14.667 1.33301 -27 8.83301 -37 22.5s-13.667 29.834 -11 48.501
c2.66699 18 11 33 25 45s30 18 48 18z" />
    <glyph glyph-name="less" unicode="&#x3c;" horiz-adv-x="537" 
d="M568 428l-353 -138l313 -138l-17 -126l-441 203l17 122l498 203z" />
    <glyph glyph-name="equal" unicode="=" horiz-adv-x="552" 
d="M560 330h-476l14 97h476zM535 153h-476l14 97h476z" />
    <glyph glyph-name="greater" unicode="&#x3e;" horiz-adv-x="537" 
d="M549 351l-17 -122l-498 -203l17 126l353 138l-313 138l16 126z" />
    <glyph glyph-name="question" unicode="?" horiz-adv-x="564" 
d="M360 714c34 0 64.6689 -3.49805 92.002 -10.498s51.833 -18.167 73.5 -33.5s37.334 -37.333 47.001 -66s11.5 -63 5.5 -103c-2.66699 -18.667 -6.5 -35.334 -11.5 -50.001s-12.167 -28.167 -21.5 -40.5s-18.833 -23.166 -28.5 -32.499s-22.5 -18.666 -38.5 -27.999
s-30.833 -17.5 -44.5 -24.5s-31.5 -15.5 -53.5 -25.5c-14.667 -6 -26.334 -11.333 -35.001 -16s-16 -10.667 -22 -18s-9.66699 -16 -11 -26l-7 -44h-101l7 66c2 23.333 7.5 42.666 16.5 57.999s20.833 28.166 35.5 38.499s36 21.833 64 34.5
c48.667 21.333 81.5 39.166 98.5 53.499s27.5 36.5 31.5 66.5c5.33301 38 -0.333984 64 -17.001 78s-46 21 -88 21c-58 0 -115.333 -9.33301 -172 -28l-43 87c67.333 28.667 141.666 43 222.999 43zM241.002 135.002c20.667 0 37.333 -7.49902 50 -22.499
s17.334 -32.833 14.001 -53.5c-2 -18 -10 -33 -24 -45s-30 -18 -48 -18c-20.667 0 -37.334 7.5 -50.001 22.5s-17.667 32.833 -15 53.5c2.66699 17.333 11 32.166 25 44.499s30 18.5 48 18.5z" />
    <glyph glyph-name="at" unicode="@" horiz-adv-x="1045" 
d="M617 714c45.333 0 88.168 -5.66602 128.501 -16.999s75.666 -27.333 105.999 -48s57.5 -45.334 81.5 -74.001s42.5 -60.334 55.5 -95.001s22 -72 27 -112s3.83301 -81.667 -3.5 -125c-4.66699 -29.333 -12.667 -57.166 -24 -83.499s-25.333 -49.833 -42 -70.5
s-36.334 -38 -59.001 -52s-47 -23.667 -73 -29c-66.667 -12.667 -136.334 2.66602 -209.001 45.999h-3l7 32c-38.667 -29.333 -79.334 -44 -122.001 -44c-54.667 0 -96.334 21 -125.001 63s-39 93.333 -31 154c8 57.333 31 105.666 69 144.999s82.667 59 134 59
c44 0 83 -16.333 117 -49l8 46h105l-50 -352c28.667 -10.667 55 -12.667 79 -6c30 6 54.833 22.667 74.5 50s32.5 62.333 38.5 105c10.667 67.333 5.66699 128.333 -15 183s-55 97.667 -103 129s-105.667 47 -173 47c-105.333 0 -195.666 -35.167 -270.999 -105.5
s-120.666 -159.5 -135.999 -267.5c-9.33301 -68 -3.83301 -129.167 16.5 -183.5s54.5 -97.166 102.5 -128.499s105.667 -47 173 -47c46 0 91 7.66699 135 23l30 -94c-52 -18 -107.667 -27 -167 -27c-68 0 -129.167 12.333 -183.5 37s-98.333 58.167 -132 100.5
s-57.667 92.333 -72 150s-16.833 118.834 -7.5 183.501c8.66699 63.333 27.834 123 57.501 179s66.667 104.5 111 145.5s96.333 73.333 156 97s122.834 35.5 189.501 35.5zM498.002 128.001c39.333 0 79.3311 17.668 119.998 53.001l25 148c-28 32 -61 48 -99 48
c-18 0 -34.5 -5.5 -49.5 -16.5s-27.5 -26.333 -37.5 -46s-16.667 -42.834 -20 -69.501c-5.33301 -36 -2.66602 -64.5 8.00098 -85.5s28.334 -31.5 53.001 -31.5z" />
    <glyph glyph-name="A" unicode="A" horiz-adv-x="738" 
d="M709 0h-129l-34 150h-311l-76 -150h-132l371 700h136zM286 251h238l-73 324z" />
    <glyph glyph-name="B" unicode="B" horiz-adv-x="690" 
d="M573 374c35.333 -13.333 61.998 -35.332 79.998 -65.999s24 -66.667 18 -108c-8 -60 -35.167 -108.333 -81.5 -145s-100.166 -55 -161.499 -55h-214h-122l99 700h299c56.667 0 101.834 -17.833 135.501 -53.5s46.5 -81.834 38.5 -138.501
c-8.66699 -59.333 -39 -104 -91 -134zM298.998 600.001l-27 -187.002h162c26 0 49 8.66699 69 26s32 41.333 36 72c2.66699 18.667 1.16699 34.834 -4.5 48.501s-14.5 23.834 -26.5 30.501s-26.667 10 -44 10h-165zM546.998 211.999c5.33301 32 -0.333008 57.167 -17 75.5
s-40 27.5 -70 27.5h-201l-31 -215h198c30 0 56.5 10 79.5 30s36.833 47.333 41.5 82z" />
    <glyph glyph-name="C" unicode="C" horiz-adv-x="762" 
d="M518 714c22.667 0 45.5049 -2.16602 68.5049 -6.49902s45.667 -10.833 68 -19.5s44.166 -19.334 65.499 -32.001s41.666 -27 60.999 -43l-41 -85c-68.667 50 -143 75 -223 75c-68 0 -127 -23.833 -177 -71.5s-80.333 -110.5 -91 -188.5
c-10.667 -73.333 1.33301 -132.666 36 -177.999s84.667 -68 150 -68c80.667 0 164.667 26.333 252 79l24 -92c-45.333 -32 -93 -56.333 -143 -73s-97 -25 -141 -25c-69.333 0 -128.833 16.667 -178.5 50s-85.167 78.166 -106.5 134.499s-27 118.5 -17 186.5
c9.33301 66 31.666 126.167 66.999 180.5s81.666 97.5 138.999 129.5s119.666 47.667 186.999 47z" />
    <glyph glyph-name="D" unicode="D" horiz-adv-x="772" 
d="M223 700l225 -0.000976562c103.333 0 182.5 -33.667 237.5 -101s75.167 -152.666 60.5 -255.999c-14 -100 -57 -182.167 -129 -246.5s-159.333 -96.5 -262 -96.5h-263l99 700h32zM622 356.999c7.33301 48.667 4.66699 91.168 -8 127.501s-34.5 64.333 -65.5 84
s-69.167 29.5 -114.5 29.5h-136l-69 -496h129c69.333 0 128 23.167 176 69.5s77.333 108.166 88 185.499z" />
    <glyph glyph-name="E" unicode="E" horiz-adv-x="628" 
d="M298 598l-25 -181h317l-14 -101h-317l-30 -214h366l-15 -102h-488l99 700h478l-15 -102h-356z" />
    <glyph glyph-name="F" unicode="F" horiz-adv-x="599" 
d="M298 598l-28 -201h298l-14 -101h-298l-42 -296h-122l99 700h459l-15 -102h-337z" />
    <glyph glyph-name="G" unicode="G" horiz-adv-x="820" 
d="M786 379l-6.99902 -47.998l-47 -331h-92l-2 57c-72.667 -47.333 -146 -71 -220 -71c-66.667 0 -124.334 16.667 -173.001 50s-83.334 78.166 -104.001 134.499s-26.334 118.166 -17.001 185.499c10 66.667 32.833 127.167 68.5 181.5s82 97.5 139 129.5
s119.5 47.667 187.5 47c100 0 190.667 -35 272 -105l-40 -84c-71.333 52 -149 78 -233 78c-45.333 0 -87.166 -10.833 -125.499 -32.5s-70.166 -52.334 -95.499 -92.001s-41.333 -85.167 -48 -136.5c-10.667 -73.333 1 -132.5 35 -177.5s83 -67.5 147 -67.5
c63.333 0.666992 131.333 19.334 204 56.001l18 125h-133l14 101h252z" />
    <glyph glyph-name="H" unicode="H" horiz-adv-x="794" 
d="M800 700l-98 -700h-122l44 315h-365l-45 -315h-122l99 700h122l-40 -284h365l40 284h122z" />
    <glyph glyph-name="I" unicode="I" horiz-adv-x="307" 
d="M214 0h-122l99 700h122z" />
    <glyph glyph-name="J" unicode="J" horiz-adv-x="472" 
d="M478 700l-63.998 -460c-10.667 -72.667 -41.834 -133.167 -93.501 -181.5s-113.834 -72.5 -186.501 -72.5c-36 0 -70.333 6.66699 -103 20l40 90c18 -4.66699 38 -7 60 -7c27.333 0 52.5 6.66699 75.5 20s42 32 57 56s24.5 51.333 28.5 82l64 453h122z" />
    <glyph glyph-name="K" unicode="K" horiz-adv-x="721" 
d="M459 422l233 -422h-147l-175 342l-123 -110l-33 -232h-122l99 700h122l-45 -317l336 317h163z" />
    <glyph glyph-name="L" unicode="L" horiz-adv-x="563" 
d="M550 102l-15 -102h-443l99 700h122l-84 -598h321z" />
    <glyph glyph-name="M" unicode="M" horiz-adv-x="900" 
d="M906 700l-98 -700h-121l67 476l-219 -265h-113l-148 269l-66 -480h-121l99 700h107l1 -4l198 -374l304 378h1h109z" />
    <glyph glyph-name="N" unicode="N" horiz-adv-x="771" 
d="M782 700l-98 -700h-107l-2 3l-299 491l-68 -494h-121l99 700h107l1 -3l299 -493l69 496h120z" />
    <glyph glyph-name="O" unicode="O" horiz-adv-x="851" 
d="M520 714c70 0 129.999 -16.668 179.999 -50.001s85.667 -78 107 -134s27 -118.333 17 -187c-6.66699 -49.333 -21.334 -95.666 -44.001 -138.999s-51 -81.166 -85 -113.499s-74 -57.833 -120 -76.5s-94.667 -28 -146 -28c-69.333 0 -129.166 16.667 -179.499 50
s-86.166 78.166 -107.499 134.499s-27 118.5 -17 186.5c9.33301 66 31.833 126.167 67.5 180.5s82.167 97.333 139.5 129s120 47.5 188 47.5zM514.999 602.999c-67.333 0 -125.831 -24.332 -175.498 -72.999s-79.834 -111 -90.501 -187c-10 -72 2 -131 36 -177
s83.333 -69 148 -69c68.667 0 127.667 24.5 177 73.5s79.333 111.167 90 186.5c5.33301 35.333 4.83301 68.166 -1.5 98.499s-17.5 56.333 -33.5 78s-36.833 38.667 -62.5 51s-54.834 18.5 -87.501 18.5z" />
    <glyph glyph-name="P" unicode="P" horiz-adv-x="687" 
d="M313 700l208 -0.000976562c58 0 104.167 -21.667 138.5 -65s46.5 -98.666 36.5 -165.999c-9.33301 -66.667 -36.5 -120.5 -81.5 -161.5s-96.167 -61.5 -153.5 -61.5h-212l-35 -246h-122l99 700h122zM575 477.999c6 38 1.83203 67.5 -12.501 88.5
s-34.166 31.5 -59.499 31.5h-205l-35 -250h201c25.333 0 48.833 11.5 70.5 34.5s35.167 54.833 40.5 95.5z" />
    <glyph glyph-name="Q" unicode="Q" horiz-adv-x="851" 
d="M520 714c70 0 129.998 -16.666 179.998 -49.999s85.667 -78 107 -134s27 -118.333 17 -187c-8.66699 -62 -29.5 -119.167 -62.5 -171.5s-74.833 -94.5 -125.5 -126.5l65 -133l-121 -25l-49 112c-32.667 -8.66699 -66.667 -13 -102 -13
c-69.333 0 -129.166 16.667 -179.499 50s-86.166 78.166 -107.499 134.499s-27 118.5 -17 186.5c9.33301 66 31.833 126.167 67.5 180.5s82.167 97.5 139.5 129.5s120 47.667 188 47zM699.998 357.001c10.667 72 -0.999023 131 -34.999 177s-84 69 -150 69
c-67.333 0 -125.833 -24.333 -175.5 -73s-79.834 -111 -90.501 -187c-10 -72 2 -131 36 -177s83.333 -69 148 -69c18 0 35.667 2 53 6l-61 138l104 22l56 -114c30.667 23.333 56 53 76 89s33 75.667 39 119z" />
    <glyph glyph-name="R" unicode="R" horiz-adv-x="684" 
d="M689 482c-7.33301 -48 -25.5 -89.5 -54.5 -124.5s-64.5 -59.5 -106.5 -73.5l127 -284h-139l-106 272h-157l-39 -272h-122l99 700h63h258c57.333 0 103.5 -20.333 138.5 -61s47.833 -93 38.5 -157zM568 491c4.66699 33.333 0.168945 59.5 -13.498 78.5
s-33.167 28.5 -58.5 28.5h-198l-31 -224h194c25.333 0 48.166 10.5 68.499 31.5s33.166 49.5 38.499 85.5z" />
    <glyph glyph-name="S" unicode="S" horiz-adv-x="639" 
d="M419 714c51.333 0 98 -8.32812 140 -24.9951s77.333 -39 106 -67l-75 -78c-44.667 40 -103.667 60 -177 60c-92 0 -143 -34 -153 -102c-3.33301 -22.667 3.33398 -39.834 20.001 -51.501s56 -26.5 118 -44.5c2 -0.666992 4.33301 -1.33398 7 -2.00098
c20.667 -5.33301 36.334 -9.5 47.001 -12.5s25.5 -8 44.5 -15s33.667 -13.667 44 -20s22.166 -15 35.499 -26s23 -22.667 29 -35s10.667 -27.166 14 -44.499s3.66602 -36.333 0.999023 -57c-4.66699 -35.333 -16.834 -66.833 -36.501 -94.5s-43.667 -49.5 -72 -65.5
s-58.166 -28 -89.499 -36s-63 -12 -95 -12c-54.667 0 -106.5 11.167 -155.5 33.5s-85.833 51.833 -110.5 88.5l76 74c18.667 -28 46.167 -49.667 82.5 -65s73.5 -22.666 111.5 -21.999c43.333 -0.666992 80.333 8.66602 111 27.999s48.334 45.666 53.001 78.999
c1.33301 11.333 0.5 21.166 -2.5 29.499s-6.83301 15.333 -11.5 21s-13 11.167 -25 16.5s-22.5 9.5 -31.5 12.5s-23.5 7.5 -43.5 13.5c-3.33301 0.666992 -5.83301 1.33398 -7.5 2.00098s-4 1.33398 -7 2.00098s-5.83301 1.33398 -8.5 2.00098
c-45.333 13.333 -81.833 25.666 -109.5 36.999s-51.334 25 -71.001 41s-32.667 34.5 -39 55.5s-7.5 46.167 -3.5 75.5c4.66699 29.333 13.5 55.666 26.5 78.999s28.5 42.666 46.5 57.999s38.833 28.166 62.5 38.499s47.667 17.666 72 21.999s49.833 6.5 76.5 6.5z" />
    <glyph glyph-name="T" unicode="T" 
d="M671 598h-218l-84 -598h-123l84 598h-218l14 102h559z" />
    <glyph glyph-name="U" unicode="U" horiz-adv-x="766" 
d="M777 700l-64.998 -460.001c-10.667 -74 -46.167 -134.833 -106.5 -182.5s-132.5 -71.5 -216.5 -71.5c-86 0 -153.833 24.833 -203.5 74.5s-69.167 111.834 -58.5 186.501l64 453h122l-65 -460c-4 -30 -0.833008 -56.167 9.5 -78.5s27.166 -39.5 50.499 -51.5
s51.333 -18 84 -18c53.333 0 98.166 14.333 134.499 43s57.833 66 64.5 112l64 453h122z" />
    <glyph glyph-name="V" unicode="V" horiz-adv-x="703" 
d="M423 0h-141l-155 700h130l113 -560l272 560h133z" />
    <glyph glyph-name="W" unicode="W" horiz-adv-x="1029" 
d="M820 0h-152l-75 551l-231 -551h-152l-83 700h130l53 -544l223 544h158l69 -544l207 544h133z" />
    <glyph glyph-name="X" unicode="X" horiz-adv-x="721" 
d="M490 353l202 -353h-144l-153 268l-222 -268h-146l305 361l-193 339h145l142 -253l208 253h147z" />
    <glyph glyph-name="Y" unicode="Y" horiz-adv-x="709" 
d="M447 245l-34 -245h-122l35 250l-199 450h139l140 -329l232 329h143z" />
    <glyph glyph-name="Z" unicode="Z" horiz-adv-x="627" 
d="M658 619l-440 -517h377l-15 -102h-533l11 81l439 517h-342l15 102h499z" />
    <glyph glyph-name="bracketleft" unicode="[" horiz-adv-x="360" 
d="M292 702l-114 -816h138l-12 -86h-243l5 38l127 900l7 50h243l-12 -86h-139z" />
    <glyph glyph-name="backslash" unicode="\" horiz-adv-x="516" 
d="M497 -14h-117l-253 728h117z" />
    <glyph glyph-name="bracketright" unicode="]" horiz-adv-x="360" 
d="M374 738l-126 -900l-5 -38h-243l12 86h138l115 816h-139l13 86h243z" />
    <glyph glyph-name="asciicircum" unicode="^" horiz-adv-x="466" 
d="M377 401l-57 214l-117 -214h-110l181 313h116l93 -313h-106z" />
    <glyph glyph-name="underscore" unicode="_" horiz-adv-x="601" 
d="M532 -173h-511l12 86h511z" />
    <glyph glyph-name="grave" unicode="`" horiz-adv-x="326" 
d="M368 564h-112l-115 173h123z" />
    <glyph glyph-name="a" unicode="a" 
d="M616 500l-70 -500h-113l8 53c-53.333 -44.667 -110 -67 -170 -67c-64 0 -113.167 26 -147.5 78s-46.166 116.333 -35.499 193c10 72.667 38.167 133.667 84.5 183s100.166 74 161.499 74c63.333 0 117 -25.333 161 -76l8 62h113zM292 86
c16 0 33.3311 2.83203 51.998 8.49902s37.667 14 57 25s37.333 23.833 54 38.5l27 193c-18 20.667 -39 36.334 -63 47.001s-47.333 16 -70 16c-38 0 -70.167 -15.5 -96.5 -46.5s-43.166 -72.5 -50.499 -124.5c-7.33301 -48.667 -3.16602 -87 12.501 -115s41.5 -42 77.5 -42z
" />
    <glyph glyph-name="b" unicode="b" horiz-adv-x="624" 
d="M418 514c64.667 0 114.166 -26 148.499 -78s46.5 -116.333 36.5 -193c-10.667 -72.667 -39.167 -133.667 -85.5 -183s-100.166 -74 -161.499 -74c-63.333 0 -117 25.667 -161 77l-9 -63h-113l99 700h112l-36 -255c54 46 110.667 69 170 69zM488.999 257
c6.66699 47.333 2.16602 85.332 -13.501 113.999s-41.5 43 -77.5 43c-24.667 0 -51.834 -6.5 -81.501 -19.5s-57.167 -31.167 -82.5 -54.5l-27 -189c18.667 -22 40.167 -38.333 64.5 -49s47.5 -16 69.5 -16c38.667 0 71.334 15.833 98.001 47.5
s43.334 72.834 50.001 123.501z" />
    <glyph glyph-name="c" unicode="c" horiz-adv-x="556" 
d="M376 514c68.667 0 130.331 -23 184.998 -69l-34 -72c-47.333 28 -96.666 42 -147.999 42c-46.667 0 -85.667 -15.667 -117 -47s-50.333 -73 -57 -125c-6.66699 -48 0.5 -86.333 21.5 -115s53.833 -43 98.5 -43c50 0 104.333 15 163 45l22 -79
c-62.667 -43.333 -128.667 -65 -198 -65c-76 0 -134.333 26.167 -175 78.5s-55.667 116.5 -45 192.5c10.667 74 42.334 135.333 95.001 184s115.667 73 189 73z" />
    <glyph glyph-name="d" unicode="d" horiz-adv-x="624" 
d="M649 700l-98.002 -699.998h-113l8 55c-54 -46 -111 -69 -171 -69c-64 0 -113.167 26 -147.5 78s-46.166 116.333 -35.499 193c10 73.333 38.333 134.666 85 183.999s101.667 73.666 165 72.999c28.667 0 56.834 -6.66699 84.501 -20s52.167 -32.333 73.5 -57l37 263h112z
M295.998 86.002c16.667 0 34.333 2.83398 53 8.50098s37.667 14.167 57 25.5s37.666 24.666 54.999 39.999l26 189c-18 21.333 -39.167 37.5 -63.5 48.5s-48.166 16.5 -71.499 16.5c-25.333 0 -48.333 -7.16699 -69 -21.5s-37.667 -34.333 -51 -60s-22.333 -55.5 -27 -89.5
c-6.66699 -48 -2.16699 -86.167 13.5 -114.5s41.5 -42.5 77.5 -42.5z" />
    <glyph glyph-name="e" unicode="e" horiz-adv-x="586" 
d="M375 514c50.667 0 92.3311 -11.668 124.998 -35.001s55.167 -55 67.5 -95s14.5 -86.333 6.5 -139c-0.666992 -7.33301 -2 -15 -4 -23h-366v-8c0 -40 10.5 -71.667 31.5 -95s50.167 -35 87.5 -35c50 0 105 14.667 165 44l16 -74
c-65.333 -45.333 -132.666 -68 -201.999 -68c-73.333 0 -129.5 25.333 -168.5 76s-53.167 113.334 -42.5 188.001c10.667 75.333 42.334 138.333 95.001 189s115.667 75.667 189 75zM363.997 415.999c-34 0 -63.832 -10.332 -89.499 -30.999s-44.5 -48.334 -56.5 -83.001
h250c-0.666992 76 -35.334 114 -104.001 114z" />
    <glyph glyph-name="f" unicode="f" horiz-adv-x="436" 
d="M414 624c-17.333 0 -32.665 -3.99805 -45.998 -11.998s-24.333 -19.333 -33 -34s-14.334 -32.334 -17.001 -53.001l-4 -25h142l-12 -89h-142l-58 -411h-112l57 411h-97l9 71l96 18h5l3 25c9.33301 65.333 31.666 114.166 66.999 146.499s78 48.5 128 48.5
c48.667 0 97.667 -14 147 -42l-33 -75c-34.667 14 -68 21 -100 21z" />
    <glyph glyph-name="g" unicode="g" horiz-adv-x="620" 
d="M621 500l-68 -483.999c-10.667 -76.667 -38.834 -133.834 -84.501 -171.501s-100.834 -56.5 -165.501 -56.5c-83.333 -0.666992 -157.333 27 -222 83l15 85c30.667 -24 63.667 -42.167 99 -54.5s68.333 -18.5 99 -18.5c42 0 75.5 12 100.5 36s40.5 58.667 46.5 104l7 48
c-53.333 -44 -109.666 -66.333 -168.999 -67c-64.667 0.666992 -114.5 26 -149.5 76s-47.167 112 -36.5 186c10 70.667 38 129.667 84 177s100 71 162 71c62.667 0 116.334 -25 161.001 -75l8 61h113zM462 171.001l25.999 181c-18 19.333 -39.167 34.5 -63.5 45.5
s-47.833 16.5 -70.5 16.5c-39.333 0 -72 -14.833 -98 -44.5s-42.667 -69.167 -50 -118.5c-6.66699 -47.333 -2 -84.333 14 -111s42 -40 78 -40c25.333 0 52.833 6.33301 82.5 19s56.834 30 81.501 52z" />
    <glyph glyph-name="h" unicode="h" horiz-adv-x="601" 
d="M431 514c50 0 89.502 -16.5 118.502 -49.5s39.167 -80.167 30.5 -141.5l-45 -323h-112l45 322c4 31.333 -0.833008 54.5 -14.5 69.5s-33.834 22.5 -60.501 22.5c-50.667 0 -103.334 -21.333 -158.001 -64l-49 -350h-113l99 700h112l-36 -257c58 47.333 119 71 183 71z
" />
    <glyph glyph-name="i" unicode="i" horiz-adv-x="255" 
d="M223 704c20 0 36.166 -7.16699 48.499 -21.5s17.166 -31.166 14.499 -50.499c-2.66699 -16.667 -10.667 -30.834 -24 -42.501s-28.666 -17.5 -45.999 -17.5c-20 0 -36.167 7.16699 -48.5 21.5s-16.833 31.5 -13.5 51.5c2 16.667 9.83301 30.667 23.5 42
s28.834 17 45.501 17zM185.999 0h-112l70 500h112z" />
    <glyph glyph-name="j" unicode="j" horiz-adv-x="271" 
d="M234 704c20 0 36 -7.16699 48 -21.5s16.667 -31.166 14 -50.499c-2 -16.667 -9.83301 -30.834 -23.5 -42.501s-28.834 -17.5 -45.501 -17.5c-20 0 -36.167 7.16699 -48.5 21.5s-17.166 31.5 -14.499 51.5c2 16.667 9.83301 30.667 23.5 42s29.167 17 46.5 17zM267 500
l-78.999 -558c-7.33301 -54 -25.333 -93.833 -54 -119.5s-63.667 -38.5 -105 -38.5c-27.333 0 -56.666 5 -87.999 15l14 85c14 -2.66699 28.333 -4 43 -4c21.333 0 39.166 6.66699 53.499 20s23.166 32 26.499 56l76 544h113z" />
    <glyph glyph-name="k" unicode="k" horiz-adv-x="587" 
d="M395 313l174 -313h-131l-125 244l-104 -87l-22 -157h-113l99 700h112l-57 -408l237 208h153z" />
    <glyph glyph-name="l" unicode="l" horiz-adv-x="363" 
d="M285 700l-76.9971 -552c-6.66699 -44.667 11.333 -66.667 54 -66c9.33301 0 20.333 1.66699 33 5l25 -82c-10.667 -4 -21.334 -7.5 -32.001 -10.5s-21 -5.16699 -31 -6.5s-19.667 -2 -29 -2c-44.667 0 -79.834 13.5 -105.501 40.5s-34.834 66.833 -27.501 119.5l78 554
h112z" />
    <glyph glyph-name="m" unicode="m" horiz-adv-x="916" 
d="M752 514c50 0 88.8311 -16.332 116.498 -48.999s37.167 -80 28.5 -142l-45 -323h-113l45 322c4.66699 31.333 0.5 54.5 -12.5 69.5s-32.5 22.5 -58.5 22.5c-46 0 -95.333 -18.333 -148 -55c0 -12 -1 -24 -3 -36l-45 -323h-113l45 322
c4.66699 31.333 0.666992 54.5 -12 69.5s-31.667 22.5 -57 22.5c-47.333 0 -97 -20.667 -149 -62l-49 -352h-112l70 500h112l-8 -56c56 46.667 114.333 70 175 70c30.667 0 57.834 -6.83301 81.501 -20.5s40.834 -33.834 51.501 -60.501c31.333 26 64.5 46 99.5 60
s68.5 21 100.5 21z" />
    <glyph glyph-name="n" unicode="n" horiz-adv-x="596" 
d="M427 514c50 0 89.5 -16.667 118.5 -50s39.167 -80.333 30.5 -141l-45 -323h-112l45 322c4.66699 31.333 0.166992 54.5 -13.5 69.5s-33.167 22.5 -58.5 22.5c-24 0 -50.333 -5.66699 -79 -17s-56 -27 -82 -47l-49 -350h-112l70 500h112l-8 -57c58 47.333 119 71 183 71z
" />
    <glyph glyph-name="o" unicode="o" horiz-adv-x="625" 
d="M379 514c77.333 0 136.831 -26.165 178.498 -78.498s57.167 -116.5 46.5 -192.5c-10.667 -72.667 -42.5 -133.667 -95.5 -183s-117.167 -74 -192.5 -74c-77.333 0 -136.666 26.167 -177.999 78.5s-56.666 116.5 -45.999 192.5c10 73.333 41.667 134.666 95 183.999
s117.333 73.666 192 72.999zM375.998 413.002c-44.667 0 -82.668 -15.667 -114.001 -47s-50.333 -72.333 -57 -123c-6.66699 -46.667 0.333008 -84.334 21 -113.001s51.667 -43 93 -43c44.667 0 82.5 15.667 113.5 47s50.167 72.333 57.5 123
c6.66699 46.667 -0.166016 84.334 -20.499 113.001s-51.5 43 -93.5 43z" />
    <glyph glyph-name="p" unicode="p" horiz-adv-x="611" 
d="M407 514c64.667 0 114.168 -26.001 148.501 -78.001s46.5 -116.333 36.5 -193c-8 -52 -24.5 -97.667 -49.5 -137s-55 -69.166 -90 -89.499s-71.833 -30.5 -110.5 -30.5c-61.333 0 -114.333 24.333 -159 73l-36 -259h-113l99 700h112l-7 -55
c53.333 46 109.666 69 168.999 69zM479.001 256.999c6.66699 47.333 2.00293 85.333 -13.9971 114s-42 43 -78 43c-24.667 0 -51.834 -6.5 -81.501 -19.5s-57.167 -31.167 -82.5 -54.5l-26 -185c20 -23.333 41.667 -41 65 -53s45.666 -18 66.999 -18
c37.333 0.666992 69.666 16 96.999 46s45 72.333 53 127z" />
    <glyph glyph-name="q" unicode="q" horiz-adv-x="611" 
d="M606 500l-99 -700h-112l35 250c-53.333 -42.667 -109 -64 -167 -64c-62.667 0 -112.167 24.833 -148.5 74.5s-48.833 115.167 -37.5 196.5c10 72.667 38.167 133.667 84.5 183s100.5 74 162.5 74c62.667 0 116 -25.667 160 -77l9 63h113zM281 84
c50 -0.666992 105 26.001 165 80.001l26 185c-18.667 22 -40 38.333 -64 49s-47.333 16 -70 16c-26 0 -49.333 -7.33301 -70 -22s-37.667 -34.834 -51 -60.501s-22.333 -55.167 -27 -88.5c-7.33301 -51.333 -2.5 -90.5 14.5 -117.5s42.5 -40.833 76.5 -41.5z" />
    <glyph glyph-name="r" unicode="r" horiz-adv-x="408" 
d="M443 515c4 0 9.66699 -0.333008 17 -1l-29 -108h-13c-63.333 0 -126.333 -24.333 -189 -73l-47 -333h-113l71 500h112l-9 -64c21.333 17.333 43.833 32 67.5 44s46.667 20.833 69 26.5s43.5 8.5 63.5 8.5z" />
    <glyph glyph-name="s" unicode="s" horiz-adv-x="493" 
d="M313 514c24 0 47.3311 -2.33105 69.998 -6.99805s44.5 -12.167 65.5 -22.5s38.5 -23.166 52.5 -38.499l-54 -69c-12.667 15.333 -30.834 26.833 -54.501 34.5s-49.167 11.5 -76.5 11.5c-20 0 -37.5 -2.33301 -52.5 -7s-27 -11.667 -36 -21s-14.5 -20.833 -16.5 -34.5
s2.83301 -24.334 14.5 -32.001s36.834 -16.834 75.501 -27.501c16.667 -4.66699 29 -8 37 -10s20 -5.83301 36 -11.5s28 -10.834 36 -15.501s17.667 -11.334 29 -20.001s19.5 -17.834 24.5 -27.501s8.83301 -21.334 11.5 -35.001s3 -28.5 1 -44.5
c-3.33301 -21.333 -10.333 -40.666 -21 -57.999s-23.667 -31.666 -39 -42.999s-32.833 -20.833 -52.5 -28.5s-39.334 -13.167 -59.001 -16.5s-39.834 -5 -60.501 -5c-42.667 0 -82 7.33301 -118 22s-62.667 34.667 -80 60l54 68c12 -19.333 31 -34.166 57 -44.499
s54.333 -15.5 85 -15.5c32.667 0 60.5 6.33301 83.5 19s36.167 30 39.5 52c2 4 2.16699 7.83301 0.5 11.5s-2.5 6.66699 -2.5 9s-1.66699 4.83301 -5 7.5s-5.66602 4.83398 -6.99902 6.50098s-4.5 3.5 -9.5 5.5s-8.83301 3.66699 -11.5 5s-7 2.83301 -13 4.5
s-10.833 3.16699 -14.5 4.5s-9 2.83301 -16 4.5s-13.167 3.5 -18.5 5.5c-26.667 6.66699 -49 13.167 -67 19.5s-34.5 13.833 -49.5 22.5s-26.333 18.167 -34 28.5s-13.167 22.333 -16.5 36s-3.66602 29.5 -0.999023 47.5c3.33301 22 9.83301 41.5 19.5 58.5
s21.334 31.167 35.001 42.5s29.334 20.666 47.001 27.999s35.667 12.5 54 15.5s37.5 4.5 57.5 4.5z" />
    <glyph glyph-name="t" unicode="t" horiz-adv-x="456" 
d="M298 411l-38.001 -266c-2 -16 -0.666992 -28.833 4 -38.5s11.167 -16.167 19.5 -19.5s18.833 -5 31.5 -5c22 0 47.333 5 76 15l20 -78c-40.667 -22 -83 -33 -127 -33c-45.333 0 -81.166 13.167 -107.499 39.5s-35.833 65.833 -28.5 118.5l37 267h-97l10 71l95 18h5
l19 139h113l-20 -139h142l-13 -89h-141z" />
    <glyph glyph-name="u" unicode="u" horiz-adv-x="587" 
d="M592 500l-70 -500h-112l8 57c-57.333 -47.333 -117 -71 -179 -71c-51.333 0 -91.333 16.333 -120 49s-38.667 80 -30 142l46 323h112l-45 -322c-8.66699 -61.333 13.333 -92 66 -92c54 0 108.333 21.333 163 64l49 350h112z" />
    <glyph glyph-name="v" unicode="v" horiz-adv-x="555" 
d="M609 500l-270 -500h-121l-129 500h117l88 -379l194 379h121z" />
    <glyph glyph-name="w" unicode="w" horiz-adv-x="836" 
d="M647 0h-121l-54 370l-160 -370h-121l-102 500h118l62 -367l156 367h126l51 -367l167 367h121z" />
    <glyph glyph-name="x" unicode="x" horiz-adv-x="560" 
d="M378 256l154 -256h-124l-109 183l-157 -183h-127l228 260l-143 240h123l99 -166l143 166h127z" />
    <glyph glyph-name="y" unicode="y" horiz-adv-x="571" 
d="M624 500l-390 -700h-105l110 204l-150 496h120l101 -363l194 363h120z" />
    <glyph glyph-name="z" unicode="z" horiz-adv-x="490" 
d="M501 431l-314 -343h274l-13 -88h-415l9 69l314 343h-250l12 88h392z" />
    <glyph glyph-name="braceleft" unicode="{" horiz-adv-x="399" 
d="M391 794c26 0 55 -5.33203 87 -15.999l-13 -79c-14.667 3.33301 -29 4.66602 -43 3.99902c-22 0 -40.333 -6.66699 -55 -20s-23.667 -31.666 -27 -54.999l-31 -225c-7.33301 -54 -28.666 -92.333 -63.999 -115c28.667 -22.667 39 -61.334 31 -116.001l-31 -223
c-6.66699 -46 10 -69.333 50 -70c14 0 30.333 2 49 6l2 -82c-30 -9.33301 -58.667 -14 -86 -14c-42 0 -74.333 13.5 -97 40.5s-30.334 66.5 -23.001 118.5l33 235c6 42.667 -10 64 -48 64h-25l13 88h19c19.333 0 35.5 6.33301 48.5 19s21.167 30 24.5 52l33 236
c7.33301 52 24.833 90.333 52.5 115s61.167 37 100.5 37z" />
    <glyph glyph-name="bar" unicode="|" horiz-adv-x="297" 
d="M175 -214h-113l136 964h112z" />
    <glyph glyph-name="braceright" unicode="}" horiz-adv-x="399" 
d="M219 794c42.667 0 75.334 -13.332 98.001 -39.999s30.334 -66.334 23.001 -119.001l-33 -236c-6 -42.667 10 -64 48 -64h25l-12 -88h-19c-10 0 -19.167 -1.66699 -27.5 -5s-15.666 -8 -21.999 -14s-11.5 -13.5 -15.5 -22.5s-6.66699 -18.833 -8 -29.5l-33 -235
c-7.33301 -52 -24.833 -90.333 -52.5 -115s-60.834 -37 -99.501 -37c-27.333 0 -56.666 5.33301 -87.999 16l13 79c13.333 -3.33301 27.666 -4.66602 42.999 -3.99902c21.333 0 39.333 6.66699 54 20s23.667 31.666 27 54.999l32 224c7.33301 54 28.666 92.667 63.999 116
c-28.667 22.667 -39.334 61 -32.001 115l32 224c6 46 -11 69 -51 69c-12 0.666992 -28.333 -1 -49 -5l-1 82c29.333 9.33301 57.333 14 84 14z" />
    <glyph glyph-name="asciitilde" unicode="~" horiz-adv-x="575" 
d="M242 354c36.667 0 74.665 -17.6641 113.998 -52.9971c28 -19.333 49 -29 63 -29c28.667 0 63 24.667 103 74l58 -50c-16.667 -20.667 -30 -36.334 -40 -47.001s-22.833 -22.834 -38.5 -36.501s-31.167 -23.5 -46.5 -29.5s-31.333 -9 -48 -9c-36.667 0 -74.667 18 -114 54
c-1.33301 0.666992 -3.66602 2.16699 -6.99902 4.5s-6 4.16602 -8 5.49902s-4.83301 3 -8.5 5s-7 3.66699 -10 5s-6.33301 2.66602 -10 3.99902s-7.16699 2.33301 -10.5 3s-6.66602 1 -9.99902 1c-28 0 -62 -24.667 -102 -74l-58 51c14 16.667 24 28.334 30 35.001
s15.833 16.834 29.5 30.501s25.5 23.667 35.5 30s22 12.166 36 17.499s28 8 42 8z" />
    <glyph glyph-name="exclamdown" unicode="&#xa1;" horiz-adv-x="266" 
d="M200 518c20.667 0 37.335 -7.50098 50.002 -22.501s17.667 -32.833 15 -53.5c-2.66699 -17.333 -11 -32.166 -25 -44.499s-30 -18.5 -48 -18.5c-20.667 0 -37.334 7.5 -50.001 22.5s-17.334 32.833 -14.001 53.5c2 18 10 33 24 45s30 18 48 18zM170.001 -186.001h-127
l86 504h98z" />
    <glyph glyph-name="cent" unicode="&#xa2;" horiz-adv-x="556" 
d="M378 413c-45.333 0 -83.8291 -15.5039 -115.496 -46.5039s-50.834 -72.167 -57.501 -123.5c-6.66699 -47.333 0.5 -85.166 21.5 -113.499s52.5 -42.5 94.5 -42.5c57.333 0 119.666 18 186.999 54l2 -90c-48.667 -33.333 -100.667 -54 -156 -62l-14 -98h-102l15 102
c-58 13.333 -101.667 44.333 -131 93s-39.333 105.667 -30 171c9.33301 64.667 35.166 120.334 77.499 167.001s94.166 75.334 155.499 86.001l14 99h102l-14 -100c50 -9.33301 94.333 -30.666 133 -63.999l-17 -82c-53.333 33.333 -108.333 50 -165 50z" />
    <glyph glyph-name="sterling" unicode="&#xa3;" horiz-adv-x="637" 
d="M482 603c-50 0 -88.334 -8.16992 -115.001 -24.5029s-42.667 -45.166 -48 -86.499c-3.33301 -24 -2.66602 -61 2.00098 -111h198l-14 -98h-177c0 -65.333 -22.333 -125.666 -67 -180.999h341l-15 -102h-508l8 58l1 1h-2c44.667 40 75.5 77.5 92.5 112.5
s25.833 72.167 26.5 111.5h-91l14 98h70c-6 54.667 -7 98.334 -3 131.001c19.333 134.667 114 202 284 202c72 0 135.333 -15 190 -45l-46 -97c-37.333 20.667 -84.333 31 -141 31z" />
    <glyph glyph-name="currency" unicode="&#xa4;" horiz-adv-x="600" 
 />
    <glyph glyph-name="yen" unicode="&#xa5;" horiz-adv-x="728" 
d="M588 422h76l-13 -94h-135l-57 -76l-1 -6h181l-13 -94h-182l-22 -152h-122l22 152h-177l13 94h178l2 13l-33 69h-136l13 94h78l-133 278h139l147 -331l244 331h142z" />
    <glyph glyph-name="brokenbar" unicode="&#xa6;" horiz-adv-x="297" 
d="M251 327h-113l60 423h112zM175 -214h-113l60 422h112z" />
    <glyph glyph-name="section" unicode="&#xa7;" horiz-adv-x="591" 
d="M387 452c3.33301 -0.666992 8.00195 -1.99609 14.002 -3.99609c15.333 -4 27.333 -7.16699 36 -9.5s20.667 -6.33301 36 -12s27.5 -11.334 36.5 -17.001s19.167 -13 30.5 -22s19.666 -18.667 24.999 -29s9.33301 -22.833 12 -37.5s3 -30.667 1 -48
c-8 -54.667 -38 -98 -90 -130c44 -30 62 -72.333 54 -127c-5.33301 -38.667 -22.333 -71.834 -51 -99.501s-61 -47.167 -97 -58.5s-73.333 -17 -112 -17c-50.667 0 -98 10 -142 30s-76.333 47.333 -97 82l87 56c13.333 -22 34.666 -39.333 63.999 -52s61.666 -19 96.999 -19
c38 0 70.333 7.66699 97 23s41.667 35.666 45 60.999c3.33301 20 -2.16699 34.5 -16.5 43.5s-40.166 18.833 -77.499 29.5l-6 1.5c-1.33301 0.333008 -3.16602 0.833008 -5.49902 1.5l-7 2c-2.33301 0.666992 -4.5 1.33398 -6.5 2.00098
c-75.333 20.667 -127.333 43.167 -156 67.5s-39.334 61.166 -32.001 110.499c8 59.333 36.667 103.666 86 132.999c-21.333 14 -36 30.833 -44 50.5s-10 44.167 -6 73.5c4 31.333 13.833 58.833 29.5 82.5s35.167 42.167 58.5 55.5s48.333 23.166 75 29.499s55 9.5 85 9.5
c42.667 0 82.667 -6.66699 120 -20s67 -33 89 -59l-80 -66c-28 32 -73.333 48 -136 48c-79.333 0 -123.333 -28.667 -132 -86c-2 -12.667 -0.833008 -22.667 3.5 -30s14.833 -14.666 31.5 -21.999s43.667 -16.333 81 -27zM235.002 274.004c-2 -12.667 -1 -22.501 3 -29.501
s13.833 -14.167 29.5 -21.5s41.167 -16 76.5 -26c34 2 62.5 10.5 85.5 25.5s36.167 34.167 39.5 57.5c2.66699 20 -3 34.333 -17 43s-39.667 18.334 -77 29.001c-10 3.33301 -17.667 5.66602 -23 6.99902c-70 -3.33301 -109 -31.666 -117 -84.999z" />
    <glyph glyph-name="dieresis" unicode="&#xa8;" horiz-adv-x="409" 
d="M190 704c12 0 22.832 -3.16699 32.499 -9.5s16.667 -14.833 21 -25.5s5.83301 -22.334 4.5 -35.001c-2 -15.333 -9.33301 -28.333 -22 -39s-27 -16 -43 -16c-18.667 0 -33.667 6.83301 -45 20.5s-15.666 29.834 -12.999 48.501c2 15.333 9.33301 28.5 22 39.5
s27 16.5 43 16.5zM405.999 704c12 0 22.833 -3.16699 32.5 -9.5s16.834 -14.833 21.501 -25.5s6 -22.334 4 -35.001c-2 -15.333 -9.16699 -28.333 -21.5 -39s-26.5 -16 -42.5 -16c-18.667 0 -33.834 6.83301 -45.501 20.5s-16.167 29.834 -13.5 48.501
c2.66699 15.333 10.167 28.5 22.5 39.5s26.5 16.5 42.5 16.5z" />
    <glyph glyph-name="copyright" unicode="&#xa9;" horiz-adv-x="861" 
d="M527 714c65.333 0 123.333 -16.502 174 -49.502s88.167 -77.667 112.5 -134s31.833 -117.833 22.5 -184.5c-9.33301 -65.333 -33.666 -125.666 -72.999 -180.999s-88.333 -99 -147 -131s-120 -48 -184 -48c-65.333 0 -123.333 16.5 -174 49.5
s-88.167 77.833 -112.5 134.5s-31.833 118.334 -22.5 185.001c9.33301 64.667 33.666 124.667 72.999 180s88.333 99 147 131s120 48 184 48zM523 635.998c-76 0 -144.833 -28 -206.5 -84s-98.167 -124.667 -109.5 -206c-11.333 -79.333 5.5 -146.166 50.5 -200.499
s104.5 -81.5 178.5 -81.5c75.333 0 144 28.167 206 84.5s98.667 125.166 110 206.499c11.333 78.667 -5.5 145.167 -50.5 199.5s-104.5 81.5 -178.5 81.5zM500 539.998c25.333 0 50.6699 -4.99902 76.0029 -14.999s47.666 -24 66.999 -42l-28 -59
c-36 29.333 -74.667 44 -116 44c-30.667 0.666992 -57.5 -10.333 -80.5 -33s-37.167 -52.334 -42.5 -89.001c-4.66699 -34.667 0.666016 -62.5 15.999 -83.5s37.666 -31.5 66.999 -31.5c42 0 86.333 16 133 48l16 -65c-23.333 -17.333 -48.833 -30.666 -76.5 -39.999
s-53.5 -14 -77.5 -14c-55.333 0 -98 19 -128 57s-41.333 83.667 -34 137c7.33301 52 30.5 96.167 69.5 132.5s85.167 54.166 138.5 53.499z" />
    <glyph glyph-name="ordfeminine" unicode="&#xaa;" horiz-adv-x="498" 
d="M543 768l-54.999 -388h-96l5 34c-39.333 -30 -79.333 -45 -120 -45c-52.667 0 -92.834 20.5 -120.501 61.5s-37.5 91.167 -29.5 150.5c8 56 30.333 103 67 141s79.667 57 129 57c44.667 0 84 -17.667 118 -53l6 42h96zM287.001 449c41.333 0 82.333 18.667 123 56l21 148
c-28 30.667 -60.667 46 -98 46c-27.333 0 -51 -12 -71 -36s-32.667 -56 -38 -96c-5.33301 -36 -2.5 -64.667 8.5 -86s29.167 -32 54.5 -32z" />
    <glyph glyph-name="guillemotleft" unicode="&#xab;" horiz-adv-x="655" 
d="M412 462l-225 -177l175 -178l-70 -67l-225 214l7 62l283 213zM692 462l-225 -177l176 -178l-70 -67l-226 214l7 62l283 213z" />
    <glyph glyph-name="logicalnot" unicode="&#xac;" horiz-adv-x="600" 
 />
    <glyph glyph-name="registered" unicode="&#xae;" horiz-adv-x="861" 
d="M527 714c65.333 0 123.333 -16.502 174 -49.502s88.167 -77.667 112.5 -134s31.833 -117.833 22.5 -184.5c-9.33301 -65.333 -33.666 -125.666 -72.999 -180.999s-88.333 -99 -147 -131s-120 -48 -184 -48c-65.333 0 -123.333 16.5 -174 49.5
s-88.167 77.833 -112.5 134.5s-31.833 118.334 -22.5 185.001c9.33301 64.667 33.666 124.667 72.999 180s88.333 99 147 131s120 48 184 48zM523 635.998c-76 0 -144.833 -28 -206.5 -84s-98.167 -124.667 -109.5 -206c-11.333 -79.333 5.5 -146.166 50.5 -200.499
s104.5 -81.5 178.5 -81.5c75.333 0 144 28.167 206 84.5s98.667 125.166 110 206.499c11.333 78.667 -5.5 145.167 -50.5 199.5s-104.5 81.5 -178.5 81.5zM362 530.998l169 -0.000976562c30.667 0 55.667 -11.167 75 -33.5s26.333 -50.5 21 -84.5
c-3.33301 -22.667 -11.833 -42.667 -25.5 -60s-30.5 -30.666 -50.5 -39.999l63 -145h-88l-53 136h-64l-20 -136h-78zM431 466.997l-13.001 -99h87c6 0 12.167 2 18.5 6s12 10.167 17 18.5s8.16699 18.166 9.5 29.499c2 14.667 0.333008 25.834 -5 33.501
s-12.666 11.5 -21.999 11.5h-92z" />
    <glyph glyph-name="macron" unicode="&#xaf;" horiz-adv-x="411" 
d="M455 587h-335l14 95h335z" />
    <glyph glyph-name="degree" unicode="&#xb0;" horiz-adv-x="415" 
d="M320 841c52 0 91.999 -16.334 119.999 -49.001s38.333 -73 31 -121c-6 -44 -26.167 -81.167 -60.5 -111.5s-76.166 -45.5 -125.499 -45.5c-34 0 -63.5 7.83301 -88.5 23.5s-42.833 36.334 -53.5 62.001s-13.667 54.167 -9 85.5c6.66699 44.667 27.167 82 61.5 112
s75.833 44.667 124.5 44zM319.999 767.999c-24.667 0 -46.666 -8.83301 -65.999 -26.5s-31 -41.167 -35 -70.5c-3.33301 -25.333 1.16699 -45.5 13.5 -60.5s29.5 -22.5 51.5 -22.5c25.333 0 47.666 8.83301 66.999 26.5s31 41.167 35 70.5
c3.33301 26 -1.16699 46.333 -13.5 61s-29.833 22 -52.5 22z" />
    <glyph glyph-name="plusminus" unicode="&#xb1;" horiz-adv-x="519" 
d="M554 404l-14 -97h-189l-22 -156h-97l22 156h-190l14 97h190l21 156h98l-22 -156h189zM35 94h476l-14 -97h-476z" />
    <glyph glyph-name="twosuperior" unicode="&#xb2;" horiz-adv-x="407" 
d="M269 425c-36 -13.333 -60.8311 -24.833 -74.498 -34.5s-21.5 -22.167 -23.5 -37.5v-1h244l-9 -70h-333l7 50l5 37c2 14 6.16699 26.667 12.5 38s13 20.666 20 27.999s17.667 15.166 32 23.499s26.333 14.666 36 18.999s24.5 10.5 44.5 18.5c4.66699 2 8 3.33301 10 4
c48.667 18.667 80.667 33 96 43s24 23.667 26 41c2.66699 18.667 -3.33301 32 -18 40s-37.667 12 -69 12c-40 -0.666992 -78 -6 -114 -16l-27 65c43.333 16 93.333 24 150 24c25.333 0 48.166 -2.16699 68.499 -6.5s38.5 -11.333 54.5 -21s27.5 -23.167 34.5 -40.5
s8.83301 -38.333 5.5 -63c-1.33301 -9.33301 -3.5 -18.166 -6.5 -26.499s-6 -15.666 -9 -21.999s-7.5 -12.833 -13.5 -19.5s-11 -12.167 -15 -16.5s-10.333 -9.16602 -19 -14.499l-19.5 -12c-4.33301 -2.66699 -11.833 -6.5 -22.5 -11.5s-18.334 -8.5 -23.001 -10.5
s-13.167 -5.5 -25.5 -10.5s-20.5 -8.16699 -24.5 -9.5z" />
    <glyph glyph-name="threesuperior" unicode="&#xb3;" horiz-adv-x="419" 
d="M439 586c-5.33301 -39.333 -31 -67.3311 -77 -83.998c24.667 -9.33301 43.167 -23.333 55.5 -42s16.833 -40.334 13.5 -65.001c-2.66699 -18 -9.5 -34.667 -20.5 -50s-25.167 -28.333 -42.5 -39s-37.5 -18.834 -60.5 -24.501s-47.833 -8.5 -74.5 -8.5
c-58 0 -110.333 9.33301 -157 28l38 65c33.333 -14 74.333 -21 123 -21c30 0 54.833 6 74.5 18s31.167 28 34.5 48c2 15.333 -3.5 27.833 -16.5 37.5s-32.833 14.5 -59.5 14.5h-77l7 53l3 19h63c23.333 0 43 4.83301 59 14.5s25 22.5 27 38.5
c2 15.333 -3.66699 27.333 -17 36s-32 13 -56 13c-38 0 -73.667 -6.33301 -107 -19l-27 69c40 14.667 85.667 22 137 22c52 0 92.5 -11.5 121.5 -34.5s40.833 -52.5 35.5 -88.5z" />
    <glyph glyph-name="acute" unicode="&#xb4;" horiz-adv-x="329" 
d="M232 564h-116l152 173h128z" />
    <glyph glyph-name="paragraph" unicode="&#xb6;" horiz-adv-x="703" 
d="M713 604h-61l-115 -818h-105l115 818h-71l-115 -818h-105l75 532h-54c-48 0 -86.667 18.5 -116 55.5s-40 84.5 -32 142.5c5.33301 36 17.5 68.167 36.5 96.5s42.5 50 70.5 65s57.667 22.5 89 22.5h401z" />
    <glyph glyph-name="periodcentered" unicode="&#xb7;" horiz-adv-x="223" 
d="M158 371c20.667 0 37.333 -7.49902 50 -22.499s17.334 -33.167 14.001 -54.5c-1.33301 -11.333 -5.5 -21.833 -12.5 -31.5s-15.833 -17.167 -26.5 -22.5s-21.667 -8 -33 -8c-20.667 0 -37.334 7.5 -50.001 22.5s-17.667 32.833 -15 53.5
c2.66699 17.333 11 32.166 25 44.499s30 18.5 48 18.5z" />
    <glyph glyph-name="cedilla" unicode="&#xb8;" horiz-adv-x="340" 
d="M220 16l-28.001 -59.0029c3.33301 0 5.33301 -0.666992 6 -2c30.667 -3.33301 54 -14 70 -32s22 -40.667 18 -68c-1.33301 -11.333 -4.66602 -22.166 -9.99902 -32.499s-12.333 -19.666 -21 -27.999s-18.667 -15.666 -30 -21.999s-24.166 -11.333 -38.499 -15
s-29.833 -5.5 -46.5 -5.5c-22.667 -0.666992 -47 1.83301 -73 7.5s-47 13.167 -63 22.5l33 58c28 -11.333 59 -17 93 -17c36 0 56 13.333 60 40c1.33301 10 -0.333984 17.667 -5.00098 23s-13 8 -25 8c-18 0 -36.333 -3.66699 -55 -11l-15 40l56 93h74z" />
    <glyph glyph-name="onesuperior" unicode="&#xb9;" horiz-adv-x="339" 
d="M272 352h85l-10 -70h-267l10 70h96l36 252l-83 -35l-23 64l156 67h49z" />
    <glyph glyph-name="ordmasculine" unicode="&#xba;" horiz-adv-x="496" 
d="M352 780c61.333 0 108.499 -20.667 141.499 -62s45.167 -91.333 36.5 -150c-8 -56 -32.667 -103 -74 -141s-91.333 -57 -150 -57c-61.333 0 -108.5 20.5 -141.5 61.5s-45.5 91.167 -37.5 150.5c8 56 32.833 103 74.5 141s91.834 57 150.501 57zM351.999 699
c-34 0 -62.665 -12.165 -85.998 -36.498s-37.333 -55.833 -42 -94.5c-3.33301 -23.333 -2.33301 -43.833 3 -61.5s14.666 -31.334 27.999 -41.001s30.333 -14.5 51 -14.5c33.333 0 61.666 12 84.999 36s37.666 55.667 42.999 95
c4.66699 35.333 -0.166016 63.666 -14.499 84.999s-36.833 32 -67.5 32z" />
    <glyph glyph-name="guillemotright" unicode="&#xbb;" horiz-adv-x="655" 
d="M388 316l-7 -62l-283 -214l-55 67l225 178l-175 177l70 67zM669 316l-7 -62l-284 -214l-55 67l225 178l-175 177l70 67z" />
    <glyph glyph-name="onequarter" unicode="&#xbc;" horiz-adv-x="948" 
d="M847 714l-547 -728h-104l547 728h104zM272 352h85l-10 -70h-267l10 70h96l36 252l-83 -35l-23 64l156 67h49zM878 162h60l-9 -70h-61l-13 -92h-85l13 92h-231l6 54l256 272h99zM666 162h126l25 168z" />
    <glyph glyph-name="onehalf" unicode="&#xbd;" horiz-adv-x="982" 
d="M847 714l-547 -728h-104l547 728h104zM347 282h-267l10 70h96l36 252l-83 -35l-23 64l156 67h49l-49 -348h85zM804 143c-36.667 -14 -61.502 -25.5029 -74.502 -34.5029s-20.833 -21.5 -23.5 -37.5v-1h245l-10 -70h-333l7 51l5 36c2 10.667 4.83301 20.334 8.5 29.001
s7.5 16.167 11.5 22.5s10.5 13 19.5 20s16.167 12.333 21.5 16s15 8.83398 29 15.501s24 11.167 30 13.5s17.667 7.16602 35 14.499c17.333 6.66699 30.5 11.834 39.5 15.501s18.833 8 29.5 13s18.5 9.16699 23.5 12.5s10 7.33301 15 12s8.5 9.5 10.5 14.5
s3.33301 10.5 4 16.5c2.66699 19.333 -3.5 32.833 -18.5 40.5s-37.833 11.5 -68.5 11.5c-40 0 -78 -5 -114 -15l-27 64c44 16 93.667 24 149 24c26 0 49.167 -2.16699 69.5 -6.5s38.5 -11.333 54.5 -21s27.5 -23.167 34.5 -40.5s8.83301 -38 5.5 -62
c-1.33301 -12 -4.16602 -23.167 -8.49902 -33.5s-8.66602 -19.166 -12.999 -26.499s-11 -14.833 -20 -22.5s-16.333 -13.667 -22 -18s-14.667 -9.5 -27 -15.5s-21.333 -10.333 -27 -13s-16 -7 -31 -13s-24.833 -10 -29.5 -12z" />
    <glyph glyph-name="threequarters" unicode="&#xbe;" horiz-adv-x="977" 
d="M877 714l-547 -728h-104l547 728h104zM431 395c-5.33301 -36.667 -26.168 -66.165 -62.501 -88.498s-81.5 -33.5 -135.5 -33.5c-58 0 -110.333 9.33301 -157 28l38 65c33.333 -14 74.333 -21 123 -21c30 0 54.833 6 74.5 18s31.167 28 34.5 48
c2 15.333 -3.5 27.833 -16.5 37.5s-32.833 14.5 -59.5 14.5h-77l7 53l3 19h63c15.333 0 29.333 2.16699 42 6.5s22.834 10.5 30.501 18.5s12.167 17.333 13.5 28c2 15.333 -3.66699 27.333 -17 36s-32 13 -56 13c-38 0 -73.667 -6.33301 -107 -19l-27 69
c40 14.667 85.667 22 137 22c34.667 0 64.5 -5.33301 89.5 -16s43.5 -25.334 55.5 -44.001s16 -39.667 12 -63c-5.33301 -39.333 -31 -67.333 -77 -84c24.667 -9.33301 43.167 -23.333 55.5 -42s16.833 -40.334 13.5 -65.001zM967.998 162.002l-10 -70h-61l-13 -92h-85
l13 92h-231l7 54l256 272h99l-36 -256h61zM846.998 330.002l-152 -168h127z" />
    <glyph glyph-name="questiondown" unicode="&#xbf;" horiz-adv-x="564" 
d="M404 518c20.667 0 37.333 -7.5 50 -22.5s17.334 -32.833 14.001 -53.5c-2.66699 -18 -11 -33 -25 -45s-29.667 -18 -47 -18c-20.667 0 -37.334 7.5 -50.001 22.5s-17.667 32.833 -15 53.5c2.66699 18 11 33 25 45s30 18 48 18zM432.999 318l-7.00098 -66
c-2.66699 -32.667 -12.334 -58 -29.001 -76s-45.667 -36.333 -87 -55c-48.667 -21.333 -81.5 -39.166 -98.5 -53.499s-27.5 -36.5 -31.5 -66.5c-5.33301 -38.667 0.333984 -64.834 17.001 -78.501s45.334 -20.5 86.001 -20.5c58.667 0 116.334 9.33301 173.001 28l43 -87
c-66.667 -28.667 -141 -43 -223 -43c-34 0 -64.5 3.5 -91.5 10.5s-51.333 18.167 -73 33.5s-37.334 37.333 -47.001 66s-11.5 63 -5.5 103c2.66699 22 8 41.833 16 59.5s16.833 32.667 26.5 45s23.5 24.5 41.5 36.5s34.667 22 50 30s36.333 18 63 30
c22.667 8.66699 39.167 17.167 49.5 25.5s16.833 19.833 19.5 34.5l7 44h101z" />
    <glyph glyph-name="Agrave" unicode="&#xc0;" horiz-adv-x="738" 
d="M531 764h-111l-116 173h124zM709 0h-129l-34 150h-311l-76 -150h-132l371 700h136zM286 251h238l-73 324z" />
    <glyph glyph-name="Aacute" unicode="&#xc1;" horiz-adv-x="738" 
d="M530 764h-116l152 173h128zM709 0h-129l-34 150h-311l-76 -150h-132l371 700h136zM286 251h238l-73 324z" />
    <glyph glyph-name="Acircumflex" unicode="&#xc2;" horiz-adv-x="738" 
d="M394 764h-124l171 173h116l124 -173h-120l-69 108zM709 0h-129l-34 150h-311l-76 -150h-132l371 700h136zM524 251l-73 324l-165 -324h238z" />
    <glyph glyph-name="Atilde" unicode="&#xc3;" horiz-adv-x="738" 
d="M430 927c27.333 0 57.334 -14.3301 90.001 -42.9971c18.667 -15.333 33 -23 43 -23c19.333 0 44.666 20.333 75.999 61l53 -46c-15.333 -19.333 -27 -33.333 -35 -42s-18.5 -19 -31.5 -31s-25.667 -20.333 -38 -25s-25.833 -7.33398 -40.5 -8.00098
c-13.333 0 -26.166 2.5 -38.499 7.5s-21.333 9.66699 -27 14s-13.834 11.166 -24.501 20.499c-19.333 15.333 -34.333 23 -45 23c-18 0 -43 -20.333 -75 -61l-53 47c12 14.667 19.833 24.167 23.5 28.5s11.667 13 24 26s22.5 22.167 30.5 27.5s18.333 10.666 31 15.999
s25 8 37 8zM709.001 0.00292969h-129l-34 150h-311l-76 -150h-132l371 700h136zM286.001 251.003h238l-73 324z" />
    <glyph glyph-name="Adieresis" unicode="&#xc4;" horiz-adv-x="738" 
d="M382 904c18.667 0 33.667 -6.83398 45 -20.501s15.666 -30.167 12.999 -49.5c-1.33301 -10 -5.16602 -19.167 -11.499 -27.5s-14.166 -15 -23.499 -20s-19 -7.5 -29 -7.5c-18.667 0 -33.834 6.83301 -45.501 20.5s-16.167 29.834 -13.5 48.501
c2.66699 15.333 10.167 28.5 22.5 39.5s26.5 16.5 42.5 16.5zM598 903.999c18.667 0 33.832 -6.83398 45.499 -20.501s16.167 -30.167 13.5 -49.5c-2.66699 -15.333 -10.167 -28.333 -22.5 -39s-26.5 -16 -42.5 -16c-18.667 0 -33.667 6.83301 -45 20.5
s-15.666 29.834 -12.999 48.501c2 15.333 9.33301 28.5 22 39.5s26.667 16.5 42 16.5zM708.998 -0.00195312h-129l-34 150h-311l-76 -150h-132l371 700h136zM285.998 250.998h238l-73 324z" />
    <glyph glyph-name="Aring" unicode="&#xc5;" horiz-adv-x="738" 
d="M503 997c40.667 0 72.166 -13.167 94.499 -39.5s30.833 -58.5 25.5 -96.5c-3.33301 -22 -11.333 -42.167 -24 -60.5s-29.5 -33 -50.5 -44s-44.167 -16.5 -69.5 -16.5c-40.667 0 -72.167 13 -94.5 39s-30.833 58 -25.5 96c4.66699 34.667 20.334 63.667 47.001 87
s59 35 97 35zM504.999 929c-11.333 0 -21.9961 -2.66895 -31.9961 -8.00195s-18.5 -13.333 -25.5 -24s-11.167 -22.667 -12.5 -36c-2.66699 -16.667 0 -29.667 8 -39s19.333 -14 34 -14c17.333 0 32.666 6.16699 45.999 18.5s21.333 28.5 24 48.5
c1.33301 8.66699 1.16602 16.334 -0.500977 23.001s-4.33398 12.334 -8.00098 17.001s-8.33398 8.16699 -14.001 10.5s-12.167 3.5 -19.5 3.5zM709.003 -0.00195312h-129l-34 150h-311l-76 -150h-132l371 700h136zM286.003 250.998h238l-73 324z" />
    <glyph glyph-name="AE" unicode="&#xc6;" horiz-adv-x="1001" 
d="M671 598l-25 -181h317l-14 -101h-317l-30 -214h366l-15 -102h-488l21 150h-228l-99 -150h-132l471 700h544l-14 -102h-357zM501 251l48 344l-225 -344h177z" />
    <glyph glyph-name="Ccedilla" unicode="&#xc7;" horiz-adv-x="762" 
d="M517 603c-68 0 -126.999 -23.835 -176.999 -71.502s-80.333 -110.5 -91 -188.5c-10.667 -73.333 1.33301 -132.666 36 -177.999s84.667 -68 150 -68c80.667 0 164.667 26.333 252 79l24 -92c-45.333 -32 -93 -56.333 -143 -73s-97 -25 -141 -25h-7l-13 -29
c2.66699 0 4.33398 -0.666992 5.00098 -2c30.667 -3.33301 54 -14 70 -32s22 -40.667 18 -68c-2.66699 -19.333 -10.167 -36.666 -22.5 -51.999s-29.166 -27.5 -50.499 -36.5s-45.333 -13.833 -72 -14.5c-23.333 -0.666992 -48 1.83301 -74 7.5s-47 13.167 -63 22.5l33 58
c28 -11.333 59 -17 93 -17c36 0 56 13.333 60 40c1.33301 10 -0.333984 17.667 -5.00098 23s-13 8 -25 8c-18 0 -36.333 -3.66699 -55 -11l-15 40l43 71c-80 18 -140.167 60.5 -180.5 127.5s-54.166 145.5 -41.499 235.5c9.33301 66 31.666 126.167 66.999 180.5
s81.666 97.5 138.999 129.5s119.666 47.667 186.999 47c46 0 91.833 -8.66699 137.5 -26s87.5 -42.333 125.5 -75l-41 -85c-68.667 50 -143 75 -223 75z" />
    <glyph glyph-name="Egrave" unicode="&#xc8;" horiz-adv-x="628" 
d="M387 764l-116 173h124l103 -173h-111zM298 598l-25 -181h317l-14 -101h-317l-30 -214h366l-15 -102h-488l99 700h478l-15 -102h-356z" />
    <glyph glyph-name="Eacute" unicode="&#xc9;" horiz-adv-x="628" 
d="M497 764h-116l152 173h128zM298 598l-25 -181h317l-14 -101h-317l-30 -214h366l-15 -102h-488l99 700h478l-15 -102h-356z" />
    <glyph glyph-name="Ecircumflex" unicode="&#xca;" horiz-adv-x="628" 
d="M361 764h-124l172 173h116l123 -173h-120l-68 108zM298 598l-25 -181h317l-14 -101h-317l-30 -214h366l-15 -102h-488l99 700h478l-15 -102h-356z" />
    <glyph glyph-name="Edieresis" unicode="&#xcb;" horiz-adv-x="628" 
d="M343 779c-18.667 0 -33.667 6.83203 -45 20.499s-15.666 29.834 -12.999 48.501c2 15.333 9.16699 28.5 21.5 39.5s26.5 16.5 42.5 16.5c18.667 0 33.667 -6.83301 45 -20.5s15.666 -30.167 12.999 -49.5c-2 -15.333 -9.16699 -28.333 -21.5 -39s-26.5 -16 -42.5 -16z
M559 778.999c-18.667 0 -33.6689 6.83203 -45.002 20.499s-15.666 29.834 -12.999 48.501c2 15.333 9.33301 28.5 22 39.5s27 16.5 43 16.5c18.667 0 33.667 -6.83301 45 -20.5s15.666 -30.167 12.999 -49.5c-1.33301 -10 -5.16602 -19.167 -11.499 -27.5
s-14.166 -15 -23.499 -20s-19.333 -7.5 -30 -7.5zM297.998 597.998l-25 -181h317l-14 -101h-317l-30 -214h366l-15 -102h-488l99 700h478l-15 -102h-356z" />
    <glyph glyph-name="Igrave" unicode="&#xcc;" horiz-adv-x="307" 
d="M316 764h-112l-115 173h123zM214 0h-122l99 700h122z" />
    <glyph glyph-name="Iacute" unicode="&#xcd;" horiz-adv-x="307" 
d="M314 764h-116l152 173h128zM214 0h-122l99 700h122z" />
    <glyph glyph-name="Icircumflex" unicode="&#xce;" horiz-adv-x="307" 
d="M465 764h-119l-69 108l-99 -108h-124l172 173h116zM191 700h122l-99 -700h-122z" />
    <glyph glyph-name="Idieresis" unicode="&#xcf;" horiz-adv-x="307" 
d="M166 904c18.667 0 33.832 -6.83398 45.499 -20.501s16.167 -30.167 13.5 -49.5c-2.66699 -15.333 -10.167 -28.333 -22.5 -39s-26.5 -16 -42.5 -16c-18.667 0 -33.667 6.83301 -45 20.5s-15.666 29.834 -12.999 48.501c2 15.333 9.33301 28.5 22 39.5
s26.667 16.5 42 16.5zM382.998 903.999c18.667 0 33.6689 -6.83398 45.002 -20.501s15.666 -30.167 12.999 -49.5c-2 -15.333 -9.33301 -28.333 -22 -39s-26.667 -16 -42 -16c-18.667 0 -33.834 6.83301 -45.501 20.5s-16.167 29.834 -13.5 48.501
c2.66699 15.333 10.167 28.5 22.5 39.5s26.5 16.5 42.5 16.5zM214 -0.00195312h-122l99 700h122z" />
    <glyph glyph-name="Eth" unicode="&#xd0;" horiz-adv-x="772" 
d="M213 700l235 -0.000976562c103.333 0 182.5 -33.667 237.5 -101s75.167 -152.666 60.5 -255.999c-14 -100 -57 -182.167 -129 -246.5s-159.333 -96.5 -262 -96.5h-263l43 304h-92l13 92h92l43 304h22zM622 356.999c10.667 74 -0.832031 132.668 -34.499 176.001
s-84.834 65 -153.501 65h-136l-28 -202h163l-13 -92h-163l-28 -202h129c69.333 0 128 23.167 176 69.5s77.333 108.166 88 185.499z" />
    <glyph glyph-name="Ntilde" unicode="&#xd1;" horiz-adv-x="771" 
d="M428 835c-18 0 -42.666 -20.3301 -73.999 -60.9971l-53 47c12 14.667 19.833 24.167 23.5 28.5s11.5 13 23.5 26s22.167 22.167 30.5 27.5s18.833 10.666 31.5 15.999s25 8 37 8c26.667 0 56.667 -14.333 90 -43c18.667 -15.333 33 -23 43 -23c18.667 0 44 20.333 76 61
l52 -46c-15.333 -19.333 -26.833 -33.333 -34.5 -42s-18 -19 -31 -31s-25.833 -20.333 -38.5 -25s-26.334 -7.33398 -41.001 -8.00098c-12.667 0 -25.167 2.5 -37.5 7.5s-21.333 9.66699 -27 14s-14.167 11.166 -25.5 20.499c-18.667 15.333 -33.667 23 -45 23z
M782.001 700.003l-98 -700h-107l-2 3l-299 491l-68 -494h-121l99 700h107l1 -3l299 -493l69 496h120z" />
    <glyph glyph-name="Ograve" unicode="&#xd2;" horiz-adv-x="851" 
d="M588 764h-112l-116 173h124zM520 714c70 0 129.999 -16.668 179.999 -50.001s85.667 -78 107 -134s27 -118.333 17 -187c-6.66699 -49.333 -21.334 -95.666 -44.001 -138.999s-51 -81.166 -85 -113.499s-74 -57.833 -120 -76.5s-94.667 -28 -146 -28
c-69.333 0 -129.166 16.667 -179.499 50s-86.166 78.166 -107.499 134.499s-27 118.5 -17 186.5c9.33301 66 31.833 126.167 67.5 180.5s82.167 97.333 139.5 129s120 47.5 188 47.5zM514.999 602.999c-44.667 0 -85.999 -11.167 -123.999 -33.5
s-69.5 -53.166 -94.5 -92.499s-40.833 -84 -47.5 -134c-10 -72 2 -131 36 -177s83.333 -69 148 -69c68.667 0 127.667 24.5 177 73.5s79.333 111.167 90 186.5c6.66699 47.333 3.66699 89.666 -9 126.999s-34.334 66.5 -65.001 87.5s-67.667 31.5 -111 31.5z" />
    <glyph glyph-name="Oacute" unicode="&#xd3;" horiz-adv-x="851" 
d="M586 764h-116l152 173h128zM520 714c70 0 129.999 -16.668 179.999 -50.001s85.667 -78 107 -134s27 -118.333 17 -187c-6.66699 -49.333 -21.334 -95.666 -44.001 -138.999s-51 -81.166 -85 -113.499s-74 -57.833 -120 -76.5s-94.667 -28 -146 -28
c-69.333 0 -129.166 16.667 -179.499 50s-86.166 78.166 -107.499 134.499s-27 118.5 -17 186.5c9.33301 66 31.833 126.167 67.5 180.5s82.167 97.333 139.5 129s120 47.5 188 47.5zM514.999 602.999c-67.333 0 -125.831 -24.332 -175.498 -72.999
s-79.834 -111 -90.501 -187c-10 -72 2 -131 36 -177s83.333 -69 148 -69c68.667 0 127.667 24.5 177 73.5s79.333 111.167 90 186.5c6.66699 47.333 3.66699 89.666 -9 126.999s-34.334 66.5 -65.001 87.5s-67.667 31.5 -111 31.5z" />
    <glyph glyph-name="Ocircumflex" unicode="&#xd4;" horiz-adv-x="851" 
d="M450 764h-124l172 173h116l123 -173h-120l-68 108zM520 714c70 0 129.999 -16.666 179.999 -49.999s85.667 -78 107 -134s27 -118.333 17 -187c-8.66699 -66 -30.834 -126 -66.501 -180s-82.334 -97 -140.001 -129s-120.5 -48 -188.5 -48
c-69.333 0 -129.166 16.667 -179.499 50s-86.166 78.166 -107.499 134.499s-27 118.5 -17 186.5c6.66699 49.333 21.334 95.833 44.001 139.5s51 81.5 85 113.5s74 57.333 120 76s94.667 28 146 28zM699.999 357.001c10.667 72 -0.999023 131 -34.999 177s-84 69 -150 69
c-67.333 0 -125.833 -24.333 -175.5 -73s-79.834 -111 -90.501 -187c-10 -72 2 -131 36 -177s83.333 -69 148 -69c68.667 0 127.667 24.5 177 73.5s79.333 111.167 90 186.5z" />
    <glyph glyph-name="Otilde" unicode="&#xd5;" horiz-adv-x="851" 
d="M487 927c26.667 0 56.3311 -14.3301 88.998 -42.9971c18.667 -15.333 33.334 -23 44.001 -23c18.667 0 44 20.333 76 61l52 -46c-15.333 -19.333 -27 -33.333 -35 -42s-18.5 -19 -31.5 -31s-25.667 -20.333 -38 -25s-25.833 -7.33398 -40.5 -8.00098
c-13.333 0 -26.166 2.5 -38.499 7.5s-21.333 9.66699 -27 14s-13.834 11.166 -24.501 20.499c-19.333 15.333 -34.333 23 -45 23c-18 0 -43 -20.333 -75 -61l-52 47c11.333 14.667 18.833 24.167 22.5 28.5s11.667 13 24 26s22.5 22.167 30.5 27.5s18.333 10.666 31 15.999
s25.334 8 38.001 8zM519.997 714.003c70 0 129.999 -16.666 179.999 -49.999s85.667 -78 107 -134s27 -118.333 17 -187c-8.66699 -66 -30.834 -126 -66.501 -180s-82.334 -97 -140.001 -129s-120.5 -48 -188.5 -48c-69.333 0 -129.166 16.667 -179.499 50
s-86.166 78.166 -107.499 134.499s-27 118.5 -17 186.5c6.66699 49.333 21.334 95.833 44.001 139.5s51 81.5 85 113.5s74 57.333 120 76s94.667 28 146 28zM514.996 603.004c-67.333 0 -125.831 -24.332 -175.498 -72.999s-79.834 -111 -90.501 -187
c-10 -72 2 -131 36 -177s83.333 -69 148 -69c68.667 0 127.667 24.5 177 73.5s79.333 111.167 90 186.5c6.66699 47.333 3.66699 89.666 -9 126.999s-34.334 66.5 -65.001 87.5s-67.667 31.5 -111 31.5z" />
    <glyph glyph-name="Odieresis" unicode="&#xd6;" horiz-adv-x="851" 
d="M438 904c18.667 0 33.667 -6.83398 45 -20.501s15.666 -30.167 12.999 -49.5c-2 -15.333 -9.16699 -28.333 -21.5 -39s-26.5 -16 -42.5 -16c-18.667 0 -33.667 6.83301 -45 20.5s-15.666 29.834 -12.999 48.501c2 15.333 9.16699 28.5 21.5 39.5s26.5 16.5 42.5 16.5z
M655 903.999c18.667 0 33.667 -6.83398 45 -20.501s15.666 -30.167 12.999 -49.5c-2 -15.333 -9.33301 -28.333 -22 -39s-27 -16 -43 -16c-18.667 0 -33.667 6.83301 -45 20.5s-15.666 29.834 -12.999 48.501c2 15.333 9.33301 28.5 22 39.5s27 16.5 43 16.5zM520 713.998
c70 0 129.999 -16.666 179.999 -49.999s85.667 -78 107 -134s27 -118.333 17 -187c-8.66699 -66 -30.834 -126 -66.501 -180s-82.334 -97 -140.001 -129s-120.5 -48 -188.5 -48c-69.333 0 -129.166 16.667 -179.499 50s-86.166 78.166 -107.499 134.499s-27 118.5 -17 186.5
c6.66699 49.333 21.334 95.833 44.001 139.5s51 81.5 85 113.5s74 57.333 120 76s94.667 28 146 28zM514.999 602.999c-67.333 0 -125.832 -24.333 -175.499 -73s-79.834 -111 -90.501 -187c-10 -72 2 -131 36 -177s83.333 -69 148 -69c68.667 0 127.667 24.5 177 73.5
s79.333 111.167 90 186.5c10.667 72 -1 131 -35 177s-84 69 -150 69z" />
    <glyph glyph-name="multiply" unicode="&#xd7;" horiz-adv-x="507" 
d="M530 438l-167 -147l126 -147l-76 -68l-126 147l-168 -147l-61 68l168 147l-127 147l77 69l126 -147l167 147z" />
    <glyph glyph-name="Oslash" unicode="&#xd8;" horiz-adv-x="851" 
d="M778 750l-61.999 -99.001c43.333 -33.333 74.5 -77 93.5 -131s23.833 -113 14.5 -177c-6.66699 -49.333 -21.334 -95.666 -44.001 -138.999s-51 -81.166 -85 -113.499s-74 -57.833 -120 -76.5s-94.667 -28 -146 -28c-42.667 0 -82 6.66699 -118 20l-35 -56h-105l61 98
c-42.667 33.333 -73.5 77.166 -92.5 131.499s-23.833 113.5 -14.5 177.5c9.33301 66 31.833 126.167 67.5 180.5s82.167 97.333 139.5 129s120 47.5 188 47.5c42.667 0 82 -6.66699 118 -20l36 56h104zM249.001 342.999c-11.333 -81.333 4.66797 -145.333 48.001 -192
l279 444c-18.667 5.33301 -39 8 -61 8c-67.333 0 -125.833 -24.333 -175.5 -73s-79.834 -111 -90.501 -187zM700.002 356.999c12 82 -4 146 -48 192l-279 -444c18.667 -5.33301 38.667 -8 60 -8c68.667 0 127.667 24.5 177 73.5s79.333 111.167 90 186.5z" />
    <glyph glyph-name="Ugrave" unicode="&#xd9;" horiz-adv-x="766" 
d="M546 764h-112l-115 173h123zM777 700l-64.998 -460.001c-10.667 -74 -46.167 -134.833 -106.5 -182.5s-132.5 -71.5 -216.5 -71.5c-86 0 -153.833 24.833 -203.5 74.5s-69.167 111.834 -58.5 186.501l64 453h122l-65 -460c-6.66699 -45.333 3.16602 -81.333 29.499 -108
s64.5 -40 114.5 -40c53.333 0 98.166 14.333 134.499 43s57.833 66 64.5 112l64 453h122z" />
    <glyph glyph-name="Uacute" unicode="&#xda;" horiz-adv-x="766" 
d="M544 764h-116l152 173h128zM777 700l-64.999 -460.001c-10.667 -74 -46.167 -134.833 -106.5 -182.5s-132.5 -71.5 -216.5 -71.5c-86 0 -153.833 24.833 -203.5 74.5s-69.167 111.834 -58.5 186.501l64 453h122l-65 -460c-6.66699 -45.333 3.16602 -81.333 29.499 -108
s64.5 -40 114.5 -40c35.333 0 67.333 6.5 96 19.5s52 31.333 70 55s29 50.5 33 80.5l64 453h122z" />
    <glyph glyph-name="Ucircumflex" unicode="&#xdb;" horiz-adv-x="766" 
d="M408 764h-124l172 173h116l123 -173h-119l-69 108zM777 700l-64.998 -460.001c-10.667 -74 -46.167 -134.833 -106.5 -182.5s-132.5 -71.5 -216.5 -71.5c-86 0 -153.833 24.833 -203.5 74.5s-69.167 111.834 -58.5 186.501l64 453h122l-65 -460
c-6.66699 -45.333 3.16602 -81.333 29.499 -108s64.5 -40 114.5 -40c53.333 0 98.166 14.333 134.499 43s57.833 66 64.5 112l64 453h122z" />
    <glyph glyph-name="Udieresis" unicode="&#xdc;" horiz-adv-x="766" 
d="M396 904c18.667 0 33.832 -6.83398 45.499 -20.501s16.167 -30.167 13.5 -49.5c-2.66699 -15.333 -10.167 -28.333 -22.5 -39s-26.5 -16 -42.5 -16c-18.667 0 -33.667 6.83301 -45 20.5s-15.666 29.834 -12.999 48.501c2 15.333 9.33301 28.5 22 39.5
s26.667 16.5 42 16.5zM612.998 903.999c18.667 0 33.667 -6.83398 45 -20.501s15.666 -30.167 12.999 -49.5c-1.33301 -10 -5.16602 -19.167 -11.499 -27.5s-14.166 -15 -23.499 -20s-19 -7.5 -29 -7.5c-18.667 0 -33.834 6.83301 -45.501 20.5s-16.167 29.834 -13.5 48.501
c2.66699 15.333 10.167 28.5 22.5 39.5s26.5 16.5 42.5 16.5zM776.998 699.998l-64.998 -460.001c-10.667 -74 -46.167 -134.833 -106.5 -182.5s-132.5 -71.5 -216.5 -71.5c-86 0 -153.833 24.833 -203.5 74.5s-69.167 111.834 -58.5 186.501l64 453h122l-65 -460
c-6.66699 -45.333 3.16602 -81.333 29.499 -108s64.5 -40 114.5 -40c53.333 0 98.166 14.333 134.499 43s57.833 66 64.5 112l64 453h122z" />
    <glyph glyph-name="Yacute" unicode="&#xdd;" horiz-adv-x="709" 
d="M516 764h-115l152 173h128zM447 245l-34 -245h-122l35 250l-199 450h139l140 -329l232 329h143z" />
    <glyph glyph-name="Thorn" unicode="&#xde;" horiz-adv-x="687" 
d="M297 587l207 0.000976562c58 0 104.333 -21.833 139 -65.5s47 -99.834 37 -168.501c-9.33301 -65.333 -36.333 -118.333 -81 -159s-95.667 -61 -153 -61h-213l-19 -133h-122l99 700h122zM560 367.001c5.33301 37.333 1 66.333 -13 87s-33.667 31 -59 31h-205l-36 -251
h200c25.333 0 49 12 71 36s36 56.333 42 97z" />
    <glyph glyph-name="germandbls" unicode="&#xdf;" horiz-adv-x="726" 
d="M436 750c70.667 0 125.995 -16.1611 165.995 -48.4941s59 -75.833 57 -130.5c-0.666992 -16.667 -3.83398 -31.334 -9.50098 -44.001s-12.167 -23.334 -19.5 -32.001s-18.5 -16.834 -33.5 -24.501s-29.167 -14 -42.5 -19s-31.666 -11.167 -54.999 -18.5
c-12 -4.66699 -21 -8.33398 -27 -11.001s-13.167 -6.83398 -21.5 -12.501s-14.666 -12.334 -18.999 -20.001s-6.5 -16.834 -6.5 -27.501c-1.33301 -14 3.83398 -24.833 15.501 -32.5s37.834 -16.834 78.501 -27.501c66 -17.333 111 -38.666 135 -63.999
c26 -26.667 35.667 -60.667 29 -102c-4.66699 -26.667 -15 -50.167 -31 -70.5s-35.5 -36 -58.5 -47s-46.333 -19.167 -70 -24.5s-47.834 -8 -72.501 -8c-44.667 0 -85.667 8.5 -123 25.5s-63 40.833 -77 71.5l81 52c4.66699 -9.33301 12.667 -18 24 -26
s25.5 -14.167 42.5 -18.5s35.5 -6.5 55.5 -6.5c32.667 0 60 6 82 18s34 27.667 36 47c2.66699 15.333 -2.33301 26.666 -15 33.999s-37 16 -73 26c-2.66699 0.666992 -4.66699 1.33398 -6 2.00098c-20 5.33301 -35.667 9.83301 -47 13.5s-24.666 8.66699 -39.999 15
s-27.166 13 -35.499 20s-16.5 15.5 -24.5 25.5s-13.333 21.5 -16 34.5s-3.33398 27.833 -2.00098 44.5c0.666992 10 2.33398 19.5 5.00098 28.5s5.66699 17.167 9 24.5s7.5 14.333 12.5 21s9.66699 12.334 14 17.001s9.83301 9.5 16.5 14.5s12 8.83301 16 11.5
s9.5 5.66699 16.5 9s12 5.5 15 6.5s7.33301 2.66699 13 5s8.83398 3.83301 9.50098 4.5c30.667 10 52.834 17.833 66.501 23.5s23.667 12 30 19s9.5 15.833 9.5 26.5c0 22.667 -9 40.834 -27 54.501s-46.667 20.5 -86 20.5c-44 0 -79 -8.83301 -105 -26.5
s-41.333 -41.834 -46 -72.501l-77 -551h-113l77 548c9.33301 64 38.166 113.667 86.499 149s108.5 53 180.5 53z" />
    <glyph glyph-name="agrave" unicode="&#xe0;" 
d="M341 564l-115 173h123l104 -173h-112zM616 500l-70 -500h-113l8 53c-53.333 -44.667 -110 -67 -170 -67c-64 0 -113.167 26 -147.5 78s-46.166 116.333 -35.499 193c10 72.667 38.167 133.667 84.5 183s100.166 74 161.499 74c63.333 0 117 -25.333 161 -76l8 62h113z
M292 86c24.667 0 51.8301 6.33203 81.4971 18.999s56.834 30.334 81.501 53.001l27 193c-12 14 -25.833 25.833 -41.5 35.5s-31.167 16.667 -46.5 21s-30.333 6.5 -45 6.5c-38 0 -70.167 -15.5 -96.5 -46.5s-43.166 -72.5 -50.499 -124.5
c-7.33301 -48.667 -3.16602 -87 12.501 -115s41.5 -42 77.5 -42z" />
    <glyph glyph-name="aacute" unicode="&#xe1;" 
d="M451 564h-116l152 173h128zM616 500l-70 -500h-113l8 53c-53.333 -44.667 -110 -67 -170 -67c-64 0 -113.167 26 -147.5 78s-46.166 116.333 -35.499 193c10 72.667 38.167 133.667 84.5 183s100.166 74 161.499 74c63.333 0 117 -25.333 161 -76l8 62h113zM292 86
c16 0 33.3311 2.83203 51.998 8.49902s37.667 14 57 25s37.333 23.833 54 38.5l27 193c-18 20.667 -39 36.334 -63 47.001s-47.333 16 -70 16c-38 0 -70.167 -15.5 -96.5 -46.5s-43.166 -72.5 -50.499 -124.5c-7.33301 -48.667 -3.16602 -87 12.501 -115s41.5 -42 77.5 -42z
" />
    <glyph glyph-name="acircumflex" unicode="&#xe2;" 
d="M315 564h-124l172 173h116l123 -173h-119l-69 108zM616 500l-70 -500h-113l8 53c-53.333 -44.667 -110 -67 -170 -67c-64 0 -113.167 26 -147.5 78s-46.166 116.333 -35.499 193c10 72.667 38.167 133.667 84.5 183s100.166 74 161.499 74c63.333 0 117 -25.333 161 -76
l8 62h113zM292 86c24.667 0 51.8301 6.33105 81.4971 18.998s56.834 30.334 81.501 53.001l27 193c-18 20.667 -39 36.334 -63 47.001s-47.333 16 -70 16c-38 0 -70.167 -15.5 -96.5 -46.5s-43.166 -72.5 -50.499 -124.5c-7.33301 -48.667 -3.16602 -87 12.501 -115
s41.5 -42 77.5 -42z" />
    <glyph glyph-name="atilde" unicode="&#xe3;" 
d="M333 635c-18 0 -43 -20.3311 -75 -60.998l-52 47c0.666992 1.33301 2 3.33301 4 6c12 14.667 21.667 26.167 29 34.5s17.5 18.333 30.5 30s26.333 20.5 40 26.5s27.834 9 42.501 9c26.667 0 56.667 -14.333 90 -43c18.667 -15.333 33 -23 43 -23
c18.667 0 44 20.333 76 61l52 -46c-15.333 -19.333 -26.833 -33.333 -34.5 -42s-18 -19 -31 -31s-25.833 -20.333 -38.5 -25s-26.334 -7.33398 -41.001 -8.00098c-12.667 0 -25.167 2.5 -37.5 7.5s-21.5 9.66699 -27.5 14s-14.333 11.166 -25 20.499
c-18.667 15.333 -33.667 23 -45 23zM616 500.002l-70 -500h-113l8 53c-53.333 -44.667 -110 -67 -170 -67c-64 0 -113.167 26 -147.5 78s-46.166 116.333 -35.499 193c10 72.667 38.167 133.667 84.5 183s100.166 74 161.499 74c63.333 0 117 -25.333 161 -76l8 62h113z
M292 86.002c16 0 33.3311 2.83203 51.998 8.49902s37.667 14 57 25s37.333 23.833 54 38.5l27 193c-18 20.667 -39 36.334 -63 47.001s-47.333 16 -70 16c-38 0 -70.167 -15.5 -96.5 -46.5s-43.166 -72.5 -50.499 -124.5c-7.33301 -48.667 -3.16602 -87 12.501 -115
s41.5 -42 77.5 -42z" />
    <glyph glyph-name="adieresis" unicode="&#xe4;" 
d="M297 579c-18.667 0 -33.6689 6.83301 -45.002 20.5s-15.666 29.834 -12.999 48.501c2 15.333 9.33301 28.5 22 39.5s26.667 16.5 42 16.5c12.667 0 23.667 -3.16699 33 -9.5s16.333 -14.833 21 -25.5s6.33398 -22.334 5.00098 -35.001
c-2.66699 -15.333 -10.167 -28.333 -22.5 -39s-26.5 -16 -42.5 -16zM513.998 579c-18.667 0 -33.834 6.83301 -45.501 20.5s-16.167 29.834 -13.5 48.501c2.66699 15.333 10.167 28.5 22.5 39.5s26.5 16.5 42.5 16.5c12 0 22.833 -3.16699 32.5 -9.5
s16.834 -14.833 21.501 -25.5s6 -22.334 4 -35.001c-2 -15.333 -9.33301 -28.333 -22 -39s-26.667 -16 -42 -16zM615.998 500l-70 -500h-113l8 53c-53.333 -44.667 -110 -67 -170 -67c-64 0 -113.167 26 -147.5 78s-46.166 116.333 -35.499 193
c10 72.667 38.167 133.667 84.5 183s100.166 74 161.499 74c63.333 0 117 -25.333 161 -76l8 62h113zM291.998 86c24.667 0 51.8301 6.33203 81.4971 18.999s56.834 30.334 81.501 53.001l27 193c-12 14 -25.833 25.833 -41.5 35.5s-31.167 16.667 -46.5 21
s-30.333 6.5 -45 6.5c-38 0 -70.167 -15.5 -96.5 -46.5s-43.166 -72.5 -50.499 -124.5c-7.33301 -48.667 -3.16602 -87 12.501 -115s41.5 -42 77.5 -42z" />
    <glyph glyph-name="aring" unicode="&#xe5;" 
d="M400 540c-26.667 0 -49.8311 5.99902 -69.498 17.999s-33.834 28.333 -42.501 49s-11.334 43.334 -8.00098 68.001c4.66699 34.667 20.5 63.667 47.5 87s59.5 35 97.5 35c40.667 0 72.167 -13.167 94.5 -39.5s30.833 -58.5 25.5 -96.5
c-5.33301 -34 -21.333 -62.667 -48 -86s-59 -35 -97 -35zM356.003 660.999c-2 -16.667 0.832031 -29.666 8.49902 -38.999s18.834 -14 33.501 -14c12 0 23 2.83301 33 8.5s18.333 13.5 25 23.5s11 21.667 13 35c1.33301 11.333 0.333008 21.166 -3 29.499
s-8.33301 14.5 -15 18.5s-15 6 -25 6c-10.667 0 -21 -2.66699 -31 -8s-18.5 -13.333 -25.5 -24s-11.5 -22.667 -13.5 -36zM616.002 500l-70 -500h-113l8 53c-53.333 -44.667 -110 -67 -170 -67c-64 0 -113.167 26 -147.5 78s-46.166 116.333 -35.499 193
c10 72.667 38.167 133.667 84.5 183s100.166 74 161.499 74c63.333 0 117 -25.333 161 -76l8 62h113zM292.002 86c24.667 0 51.832 6.33203 81.499 18.999s56.834 30.334 81.501 53.001l27 193c-18 20.667 -39 36.334 -63 47.001s-47.333 16 -70 16
c-38 0 -70.167 -15.5 -96.5 -46.5s-43.166 -72.5 -50.499 -124.5c-4.66699 -32 -4.33398 -59.833 0.999023 -83.5s15.5 -41.834 30.5 -54.501s34.5 -19 58.5 -19z" />
    <glyph glyph-name="ae" unicode="&#xe6;" horiz-adv-x="936" 
d="M344 514c32.667 0 65.333 -6.99609 98 -20.9961s62 -34.333 88 -61c54 55.333 119 82.666 195 81.999c76 0 131.167 -25 165.5 -75s45.5 -114.667 33.5 -194c-1.33301 -7.33301 -2.66602 -15 -3.99902 -23h-366v-15c1.33301 -24.667 6.66602 -46.334 15.999 -65.001
s22.833 -33 40.5 -43s38.5 -15 62.5 -15c50 0 104.667 14.333 164 43l17 -73c-64.667 -45.333 -132 -68 -202 -68c-76 0 -133.667 27.333 -173 82c-68.667 -54.667 -138.334 -82 -209.001 -82c-65.333 0 -114.833 25.167 -148.5 75.5s-45.167 113.166 -34.5 188.499
s39.834 138.166 87.501 188.499s104.167 75.5 169.5 75.5zM713.999 416.004c-34 0 -63.832 -10.332 -89.499 -30.999s-44.5 -48.334 -56.5 -83.001h250c-0.666992 76 -35.334 114 -104.001 114zM345 414.005c-24.667 0 -46.832 -6.50098 -66.499 -19.501
s-36.167 -32 -49.5 -57s-22.333 -54.167 -27 -87.5c-6.66699 -50.667 -1.66699 -90.667 15 -120s43.667 -44 81 -44c21.333 0 45.333 4.83301 72 14.5s52 23.834 76 42.501c-8.66699 33.333 -10.334 69 -5.00098 107c5.33301 38.667 17 74.667 35 108
c-18.667 17.333 -39.667 31 -63 41s-46 15 -68 15z" />
    <glyph glyph-name="ccedilla" unicode="&#xe7;" horiz-adv-x="556" 
d="M379 415c-46.667 0 -85.6709 -15.665 -117.004 -46.998s-50.333 -73 -57 -125c-6.66699 -48 0.5 -86.333 21.5 -115s53.833 -43 98.5 -43c50 0 104.333 15 163 45l22 -79c-61.333 -42.667 -126.333 -64.334 -195 -65.001l-14 -29c3.33301 0 5.33301 -0.666992 6 -2
c30.667 -3.33301 54 -14 70 -32s22 -40.667 18 -68c-2 -14 -6.83301 -27.333 -14.5 -40s-17.667 -23.5 -30 -32.5s-27.166 -16.333 -44.499 -22s-36 -8.5 -56 -8.5c-23.333 -0.666992 -48 1.83301 -74 7.5s-47 13.167 -63 22.5l33 58c28 -11.333 59 -17 93 -17
c36 0 56 13.333 60 40c1.33301 10 -0.333984 17.667 -5.00098 23s-13 8 -25 8c-18 0 -36.333 -3.66699 -55 -11l-15 40l44 72c-55.333 15.333 -96.666 47.166 -123.999 95.499s-36.333 103.833 -27 166.5c10.667 74 42.334 135.333 95.001 184s115.667 73 189 73
c68.667 0 130.334 -23 185.001 -69l-34 -72c-47.333 28 -96.666 42 -147.999 42z" />
    <glyph glyph-name="egrave" unicode="&#xe8;" horiz-adv-x="586" 
d="M436 564h-111l-116 173h124zM375 514c75.333 0 130.165 -24.834 164.498 -74.501s45.833 -114.5 34.5 -194.5c-0.666992 -7.33301 -2 -15 -4 -23h-366v-8c0 -40 10.5 -71.667 31.5 -95s50.167 -35 87.5 -35c50 0 105 14.667 165 44l16 -74
c-65.333 -45.333 -132.666 -68 -201.999 -68c-73.333 0 -129.5 25.333 -168.5 76s-53.167 113.334 -42.5 188.001c10.667 75.333 42.334 138.333 95.001 189s115.667 75.667 189 75zM363.999 415.999c-34 0 -63.832 -10.332 -89.499 -30.999s-44.5 -48.334 -56.5 -83.001
h250c-0.666992 76 -35.334 114 -104.001 114z" />
    <glyph glyph-name="eacute" unicode="&#xe9;" horiz-adv-x="586" 
d="M435 564h-116l152 173h128zM375 514c50.667 0 92.3311 -11.668 124.998 -35.001s55.167 -55 67.5 -95s14.5 -86.333 6.5 -139c-0.666992 -7.33301 -2 -15 -4 -23h-366v-8c0 -40 10.5 -71.667 31.5 -95s50.167 -35 87.5 -35c50 0 105 14.667 165 44l16 -74
c-65.333 -45.333 -132.666 -68 -201.999 -68c-73.333 0 -129.5 25.333 -168.5 76s-53.167 113.334 -42.5 188.001c10.667 75.333 42.334 138.333 95.001 189s115.667 75.667 189 75zM363.997 415.999c-34 0 -63.832 -10.332 -89.499 -30.999s-44.5 -48.334 -56.5 -83.001
h250c-0.666992 76 -35.334 114 -104.001 114z" />
    <glyph glyph-name="ecircumflex" unicode="&#xea;" horiz-adv-x="586" 
d="M299 564h-124l172 173h116l123 -173h-120l-68 108zM375 514c50.667 0 92.3311 -11.668 124.998 -35.001s55.167 -55 67.5 -95s14.5 -86.333 6.5 -139c-0.666992 -7.33301 -2 -15 -4 -23h-366v-8c0 -40 10.5 -71.667 31.5 -95s50.167 -35 87.5 -35c50 0 105 14.667 165 44
l16 -74c-65.333 -45.333 -132.666 -68 -201.999 -68c-73.333 0 -129.5 25.333 -168.5 76s-53.167 113.334 -42.5 188.001c10.667 75.333 42.334 138.333 95.001 189s115.667 75.667 189 75zM217.997 301.999l250.001 0.000976562c-0.666992 76 -35.334 114 -104.001 114
c-34 0 -63.833 -10.333 -89.5 -31s-44.5 -48.334 -56.5 -83.001z" />
    <glyph glyph-name="edieresis" unicode="&#xeb;" horiz-adv-x="586" 
d="M287 704c12 0 22.833 -3.16504 32.5 -9.49805s16.834 -14.833 21.501 -25.5s6 -22.334 4 -35.001c-1.33301 -10 -5 -19.167 -11 -27.5s-13.833 -15 -23.5 -20s-19.5 -7.5 -29.5 -7.5c-12 0 -22.833 3.16699 -32.5 9.5s-16.834 14.666 -21.501 24.999s-6 21.833 -4 34.5
c2 15.333 9.16699 28.5 21.5 39.5s26.5 16.5 42.5 16.5zM504 704.002c12 0 22.834 -3.16504 32.501 -9.49805s16.667 -14.833 21 -25.5s5.83301 -22.334 4.5 -35.001c-2 -15.333 -9.33301 -28.333 -22 -39s-27 -16 -43 -16c-12 0 -22.833 3.16699 -32.5 9.5
s-16.834 14.666 -21.501 24.999s-6 21.833 -4 34.5c2 15.333 9.33301 28.5 22 39.5s27 16.5 43 16.5zM375.001 514.004c75.333 0 130.165 -24.834 164.498 -74.501s45.833 -114.5 34.5 -194.5c-0.666992 -7.33301 -2 -15 -4 -23h-366v-8c0 -40 10.5 -71.667 31.5 -95
s50.167 -35 87.5 -35c50 0 105 14.667 165 44l16 -74c-65.333 -45.333 -132.666 -68 -201.999 -68c-73.333 0 -129.5 25.333 -168.5 76s-53.167 113.334 -42.5 188.001c10.667 75.333 42.334 138.333 95.001 189s115.667 75.667 189 75zM364 416.003
c-34 0 -63.832 -10.332 -89.499 -30.999s-44.5 -48.334 -56.5 -83.001h250c-0.666992 76 -35.334 114 -104.001 114z" />
    <glyph glyph-name="igrave" unicode="&#xec;" horiz-adv-x="255" 
d="M263 564h-112l-115 173h123zM186 0h-112l70 500h112z" />
    <glyph glyph-name="iacute" unicode="&#xed;" horiz-adv-x="255" 
d="M261 564h-116l153 173h127zM186 0h-112l70 500h112z" />
    <glyph glyph-name="icircumflex" unicode="&#xee;" horiz-adv-x="255" 
d="M412 564h-119l-69 108l-99 -108h-124l172 173h116zM144 500h112l-70 -500h-112z" />
    <glyph glyph-name="idieresis" unicode="&#xef;" horiz-adv-x="255" 
d="M113 704c18.667 0 33.832 -6.83398 45.499 -20.501s16.167 -30.167 13.5 -49.5c-2.66699 -15.333 -10.167 -28.333 -22.5 -39s-26.5 -16 -42.5 -16c-18.667 0 -33.667 6.83301 -45 20.5s-15.666 29.834 -12.999 48.501c2 15.333 9.33301 28.5 22 39.5
s26.667 16.5 42 16.5zM329.998 703.999c12 0 22.833 -3.16699 32.5 -9.5s16.834 -14.833 21.501 -25.5s6 -22.334 4 -35.001c-2 -15.333 -9.33301 -28.333 -22 -39s-26.667 -16 -42 -16c-18.667 0 -33.834 6.83301 -45.501 20.5s-16.167 29.834 -13.5 48.501
c2.66699 15.333 10.167 28.5 22.5 39.5s26.5 16.5 42.5 16.5zM185.998 -0.000976562h-112l70 500h112z" />
    <glyph glyph-name="eth" unicode="&#xf0;" horiz-adv-x="651" 
d="M659 652l-79.998 -41.001c54.667 -77.333 72.334 -178 53.001 -302c-6.66699 -45.333 -17.834 -86.833 -33.501 -124.5s-35.834 -71.667 -60.501 -102s-55.334 -54 -92.001 -71s-77.667 -25.5 -123 -25.5c-78.667 0 -140 24.333 -184 73s-60.667 112.334 -50 191.001
c10 68.667 39 123.667 87 165s109.333 62 184 62c64 0 118 -21.333 162 -64c-1.33301 62 -15.666 111 -42.999 147l-126 -63l-34 74l84 43c-21.333 7.33301 -45 11 -71 11c-46.667 0 -93.667 -9 -141 -27l-34 90c55.333 26.667 114.666 40 177.999 40
c72 0 133.333 -18.333 184 -55l106 54zM514.002 308.999l3.00098 11c-44 38 -96 57 -156 57c-44.667 0 -80.334 -12.167 -107.001 -36.5s-43 -58.833 -49 -103.5c-4.66699 -31.333 -2.66699 -58.333 6 -81s22.667 -39.667 42 -51s43 -17 71 -17
c100.667 0 164 73.667 190 221z" />
    <glyph glyph-name="ntilde" unicode="&#xf1;" horiz-adv-x="596" 
d="M324 635c-18 0 -43.0029 -20.3311 -75.0029 -60.998l-52 47c0.666992 1.33301 2 3.33301 4 6c12 14.667 21.667 26.167 29 34.5s17.5 18.333 30.5 30s26.333 20.5 40 26.5s27.834 9 42.501 9c26.667 0 56.334 -14.333 89.001 -43c18.667 -15.333 33.334 -23 44.001 -23
c18.667 0 44 20.333 76 61l52 -46c-15.333 -19.333 -27 -33.333 -35 -42s-18.5 -19 -31.5 -31s-25.667 -20.333 -38 -25s-25.833 -7.33398 -40.5 -8.00098c-13.333 0 -26.166 2.5 -38.499 7.5s-21.333 9.66699 -27 14s-13.834 11.166 -24.501 20.499
c-19.333 15.333 -34.333 23 -45 23zM426.997 514.002c50 0 89.5 -16.667 118.5 -50s39.167 -80.333 30.5 -141l-45 -323h-112l45 322c4.66699 31.333 0.166992 54.5 -13.5 69.5s-33.167 22.5 -58.5 22.5c-24 0 -50.333 -5.66699 -79 -17s-56 -27 -82 -47l-49 -350h-113
l71 500h112l-8 -57c58 47.333 119 71 183 71z" />
    <glyph glyph-name="ograve" unicode="&#xf2;" horiz-adv-x="625" 
d="M447 564h-112l-115 173h123zM379 514c77.333 0 136.831 -26.165 178.498 -78.498s57.167 -116.5 46.5 -192.5c-10.667 -72.667 -42.5 -133.667 -95.5 -183s-117.167 -74 -192.5 -74c-77.333 0 -136.666 26.167 -177.999 78.5s-56.666 116.5 -45.999 192.5
c10 73.333 41.667 134.666 95 183.999s117.333 73.666 192 72.999zM375.998 413.002c-44.667 0 -82.668 -15.667 -114.001 -47s-50.333 -72.333 -57 -123c-6.66699 -46.667 0.333008 -84.334 21 -113.001s51.667 -43 93 -43c44.667 0 82.5 15.667 113.5 47
s50.167 72.333 57.5 123c6.66699 46.667 -0.166016 84.334 -20.499 113.001s-51.5 43 -93.5 43z" />
    <glyph glyph-name="oacute" unicode="&#xf3;" horiz-adv-x="625" 
d="M445 564h-116l153 173h128zM379 514c77.333 0 136.831 -26.165 178.498 -78.498s57.167 -116.5 46.5 -192.5c-10.667 -72.667 -42.5 -133.667 -95.5 -183s-117.167 -74 -192.5 -74c-77.333 0 -136.666 26.167 -177.999 78.5s-56.666 116.5 -45.999 192.5
c10 73.333 41.667 134.666 95 183.999s117.333 73.666 192 72.999zM375.998 413.002c-44.667 0 -82.667 -15.667 -114 -47s-50.333 -72.333 -57 -123c-4 -30.667 -2.16699 -57.834 5.5 -81.501s20.834 -42 39.501 -55s41.667 -19.5 69 -19.5c44.667 0 82.5 15.667 113.5 47
s50.167 72.333 57.5 123c4.66699 30.667 3.16699 57.834 -4.5 81.501s-20.834 42 -39.501 55s-42 19.5 -70 19.5z" />
    <glyph glyph-name="ocircumflex" unicode="&#xf4;" horiz-adv-x="625" 
d="M309 564h-124l172 173h116l123 -173h-119l-69 108zM379 514c77.333 0 136.831 -26.165 178.498 -78.498s57.167 -116.5 46.5 -192.5c-10.667 -72.667 -42.5 -133.667 -95.5 -183s-117.167 -74 -192.5 -74c-77.333 0 -136.666 26.167 -177.999 78.5
s-56.666 116.5 -45.999 192.5c10 73.333 41.667 134.666 95 183.999s117.333 73.666 192 72.999zM489.998 257.002c6.66699 46.667 -0.166992 84.334 -20.5 113.001s-51.5 43 -93.5 43c-44.667 0 -82.667 -15.667 -114 -47s-50.333 -72.333 -57 -123
c-6.66699 -46.667 0.333008 -84.334 21 -113.001s51.667 -43 93 -43c44.667 0 82.5 15.667 113.5 47s50.167 72.333 57.5 123z" />
    <glyph glyph-name="otilde" unicode="&#xf5;" horiz-adv-x="625" 
d="M346 727c26.667 0 56.6699 -14.3301 90.0029 -42.9971c18.667 -15.333 33 -23 43 -23c18.667 0 44 20.333 76 61l52 -46c-15.333 -19.333 -26.833 -33.333 -34.5 -42s-18 -19 -31 -31s-25.833 -20.333 -38.5 -25s-26.334 -7.33398 -41.001 -8.00098
c-12.667 0 -25.167 2.5 -37.5 7.5s-21.5 9.66699 -27.5 14s-14.333 11.166 -25 20.499c-18.667 15.333 -33.667 23 -45 23c-18 0 -43 -20.333 -75 -61l-52 47c11.333 14.667 18.833 24.167 22.5 28.5s11.667 13 24 26s22.666 22.167 30.999 27.5
s18.666 10.666 30.999 15.999s24.833 8 37.5 8zM379.003 514.003c77.333 0 136.831 -26.165 178.498 -78.498s57.167 -116.5 46.5 -192.5c-10.667 -72.667 -42.5 -133.667 -95.5 -183s-117.167 -74 -192.5 -74c-77.333 0 -136.666 26.167 -177.999 78.5
s-56.666 116.5 -45.999 192.5c10 73.333 41.667 134.666 95 183.999s117.333 73.666 192 72.999zM376.001 413.005c-44.667 0 -82.668 -15.667 -114.001 -47s-50.333 -72.333 -57 -123c-6.66699 -46.667 0.333008 -84.334 21 -113.001s51.667 -43 93 -43
c44.667 0 82.5 15.667 113.5 47s50.167 72.333 57.5 123c6.66699 46.667 -0.166016 84.334 -20.499 113.001s-51.5 43 -93.5 43z" />
    <glyph glyph-name="odieresis" unicode="&#xf6;" horiz-adv-x="625" 
d="M298 704c12 0 22.832 -3.16699 32.499 -9.5s16.667 -14.833 21 -25.5s5.83301 -22.334 4.5 -35.001c-2 -15.333 -9.33301 -28.333 -22 -39s-27 -16 -43 -16c-18.667 0 -33.667 6.83301 -45 20.5s-15.666 29.834 -12.999 48.501c2 15.333 9.33301 28.5 22 39.5
s27 16.5 43 16.5zM513.999 704c12 0 22.833 -3.16699 32.5 -9.5s16.834 -14.833 21.501 -25.5s6 -22.334 4 -35.001c-2 -15.333 -9.16699 -28.333 -21.5 -39s-26.5 -16 -42.5 -16c-18.667 0 -33.834 6.83301 -45.501 20.5s-16.167 29.834 -13.5 48.501
c2.66699 15.333 10.167 28.5 22.5 39.5s26.5 16.5 42.5 16.5zM378.999 514c77.333 0 136.831 -26.165 178.498 -78.498s57.167 -116.5 46.5 -192.5c-10.667 -72.667 -42.5 -133.667 -95.5 -183s-117.167 -74 -192.5 -74c-77.333 0 -136.666 26.167 -177.999 78.5
s-56.666 116.5 -45.999 192.5c10 73.333 41.667 134.666 95 183.999s117.333 73.666 192 72.999zM375.997 413.002c-44.667 0 -82.668 -15.667 -114.001 -47s-50.333 -72.333 -57 -123c-6.66699 -46.667 0.333008 -84.334 21 -113.001s51.667 -43 93 -43
c44.667 0 82.5 15.667 113.5 47s50.167 72.333 57.5 123c6.66699 46.667 -0.166016 84.334 -20.499 113.001s-51.5 43 -93.5 43z" />
    <glyph glyph-name="divide" unicode="&#xf7;" horiz-adv-x="588" 
d="M361 516c20 0 36.165 -7.33105 48.498 -21.998s16.833 -32.334 13.5 -53.001c-2 -16.667 -9.83301 -30.834 -23.5 -42.501s-29.167 -17.5 -46.5 -17.5c-20 0 -36.167 7.16699 -48.5 21.5s-17.166 31.833 -14.499 52.5c2.66699 16.667 10.834 31 24.501 43
s29.167 18 46.5 18zM592.998 307.002l-14 -99h-512l14 99h512zM306.998 134.002c20 0 36.1689 -7.33105 48.502 -21.998s17.166 -32.334 14.499 -53.001c-2.66699 -16.667 -10.834 -30.834 -24.501 -42.501s-29.167 -17.5 -46.5 -17.5c-20 0 -36.167 7.16699 -48.5 21.5
s-16.833 31.5 -13.5 51.5c2 17.333 9.83301 32 23.5 44s29.167 18 46.5 18z" />
    <glyph glyph-name="oslash" unicode="&#xf8;" horiz-adv-x="625" 
d="M589 550l-57.001 -89.998c28.667 -24.667 49.334 -56 62.001 -94s16 -79 10 -123c-10.667 -72.667 -42.5 -133.667 -95.5 -183s-117.167 -74 -192.5 -74c-26.667 0 -52 3.66699 -76 11l-29 -47h-105l56 89c-28 24.667 -48.333 56 -61 94s-15.667 79.333 -9 124
c10 73.333 41.667 134.666 95 183.999s117.333 73.666 192 72.999c26.667 0 52 -3.66699 76 -11l29 47h105zM204.999 243.002c-6 -44 0 -80 18 -108l174 277c-6.66699 0.666992 -13.667 1 -21 1c-44.667 0 -82.667 -15.667 -114 -47s-50.333 -72.333 -57 -123z
M489.999 257.002c6 44.667 0.333008 81 -17 109l-175 -278c6.66699 -0.666992 13.667 -1 21 -1c44.667 0 82.5 15.667 113.5 47s50.167 72.333 57.5 123z" />
    <glyph glyph-name="ugrave" unicode="&#xf9;" horiz-adv-x="587" 
d="M317 564l-116 173h123l104 -173h-111zM592 500l-70 -500h-112l8 57c-57.333 -47.333 -117 -71 -179 -71c-51.333 0 -91.333 16.333 -120 49s-38.667 80 -30 142l46 323h112l-45 -322c-8.66699 -61.333 13.333 -92 66 -92c54 0 108.333 21.333 163 64l49 350h112z" />
    <glyph glyph-name="uacute" unicode="&#xfa;" horiz-adv-x="587" 
d="M427 564h-116l152 173h128zM592 500l-70 -500h-112l8 57c-57.333 -47.333 -117 -71 -179 -71c-51.333 0 -91.333 16.333 -120 49s-38.667 80 -30 142l46 323h112l-45 -322c-8.66699 -61.333 13.333 -92 66 -92c54 0 108.333 21.333 163 64l49 350h112z" />
    <glyph glyph-name="ucircumflex" unicode="&#xfb;" horiz-adv-x="587" 
d="M290 564h-123l171 173h116l123 -173h-119l-69 108zM592 500l-70 -500h-112l8 57c-57.333 -47.333 -117 -71 -179 -71c-51.333 0 -91.333 16.333 -120 49s-38.667 80 -30 142l46 323h112l-45 -322c-8.66699 -61.333 13.333 -92 66 -92c54 0 108.333 21.333 163 64l49 350
h112z" />
    <glyph glyph-name="udieresis" unicode="&#xfc;" horiz-adv-x="587" 
d="M273 579c-18.667 0 -33.834 6.83301 -45.501 20.5s-16.167 29.834 -13.5 48.501c2 15.333 9.33301 28.5 22 39.5s27 16.5 43 16.5c12 0 22.833 -3.16699 32.5 -9.5s16.834 -14.833 21.501 -25.5s6 -22.334 4 -35.001c-2 -15.333 -9.33301 -28.333 -22 -39
s-26.667 -16 -42 -16zM489 579c-18.667 0 -33.6689 6.83301 -45.002 20.5s-15.666 29.834 -12.999 48.501c2 15.333 9.16699 28.5 21.5 39.5s26.5 16.5 42.5 16.5c12.667 0 23.667 -3.16699 33 -9.5s16.333 -14.833 21 -25.5s6.33398 -22.334 5.00098 -35.001
c-2.66699 -15.333 -10.167 -28.333 -22.5 -39s-26.5 -16 -42.5 -16zM591.998 500l-70 -500h-112l8 57c-57.333 -47.333 -117 -71 -179 -71c-51.333 0 -91.333 16.333 -120 49s-38.667 80 -30 142l46 323h112l-45 -322c-8.66699 -61.333 13.333 -92 66 -92
c54 0 108.333 21.333 163 64l49 350h112z" />
    <glyph glyph-name="yacute" unicode="&#xfd;" horiz-adv-x="571" 
d="M418 564h-116l153 173h127zM624 500l-390 -700h-105l110 204l-150 496h120l101 -363l194 363h120z" />
    <glyph glyph-name="thorn" unicode="&#xfe;" horiz-adv-x="611" 
d="M403 514c66.667 0.666992 117.503 -25.002 152.503 -77.002s47.167 -116.667 36.5 -194c-10.667 -73.333 -39.334 -134.666 -86.001 -183.999s-101.667 -73.666 -165 -72.999c-28.667 0 -56.834 6.66699 -84.501 20s-51.834 32.333 -72.501 57l-37 -263h-113l127 900h112
l-35 -255c53.333 46 108.333 69 165 69zM478.003 256.998c7.33301 46.667 2.99902 84.498 -13.001 113.498s-41.333 43.5 -76 43.5c-26.667 0 -54.667 -6.5 -84 -19.5s-56.666 -31.167 -81.999 -54.5l-27 -189c9.33301 -11.333 19.666 -21.166 30.999 -29.499
s22.833 -15 34.5 -20s23.5 -8.83301 35.5 -11.5s23.667 -4 35 -4c37.333 0 69.333 15.833 96 47.5s43.334 72.834 50.001 123.501z" />
    <glyph glyph-name="ydieresis" unicode="&#xff;" horiz-adv-x="571" 
d="M264 579c-18.667 0 -33.6689 6.83301 -45.002 20.5s-15.666 29.834 -12.999 48.501c2 15.333 9.33301 28.5 22 39.5s26.667 16.5 42 16.5c12.667 0 23.834 -3.16699 33.501 -9.5s16.667 -14.833 21 -25.5s5.83301 -22.334 4.5 -35.001
c-2 -15.333 -9.33301 -28.333 -22 -39s-27 -16 -43 -16zM480.998 579c-18.667 0 -33.834 6.83301 -45.501 20.5s-16.167 29.834 -13.5 48.501c2.66699 15.333 10.167 28.5 22.5 39.5s26.5 16.5 42.5 16.5c12 0 22.833 -3.16699 32.5 -9.5s16.834 -14.833 21.501 -25.5
s6 -22.334 4 -35.001c-2 -15.333 -9.33301 -28.333 -22 -39s-26.667 -16 -42 -16zM623.998 500l-390 -700h-105l110 204l-150 496h120l101 -363l194 363h120z" />
    <glyph glyph-name="Amacron" unicode="&#x100;" horiz-adv-x="738" 
d="M647 787h-335l13 95h335zM709 0h-129l-34 150h-311l-76 -150h-132l371 700h136zM286 251h238l-73 324z" />
    <glyph glyph-name="amacron" unicode="&#x101;" 
d="M568 587h-335l14 95h335zM616 500l-70 -500h-113l8 53c-53.333 -44.667 -110 -67 -170 -67c-64 0 -113.167 26 -147.5 78s-46.166 116.333 -35.499 193c10 72.667 38.167 133.667 84.5 183s100.166 74 161.499 74c63.333 0 117 -25.333 161 -76l8 62h113zM292 86
c16 0 33.3311 2.83203 51.998 8.49902s37.667 14 57 25s37.333 23.833 54 38.5l27 193c-18 20.667 -39 36.334 -63 47.001s-47.333 16 -70 16c-38 0 -70.167 -15.5 -96.5 -46.5s-43.166 -72.5 -50.499 -124.5c-7.33301 -48.667 -3.16602 -87 12.501 -115s41.5 -42 77.5 -42z
" />
    <glyph glyph-name="Abreve" unicode="&#x102;" horiz-adv-x="738" 
d="M593 933h93.999c-6.66699 -46.667 -29.5 -85.834 -68.5 -117.501s-86.167 -47.5 -141.5 -47.5s-98.166 15.833 -128.499 47.5s-42.166 70.834 -35.499 117.501h93c-3.33301 -24 2.83398 -43.333 18.501 -58s37.167 -22 64.5 -22s50.666 7.33301 69.999 22
s30.666 34 33.999 58zM708.999 0h-129l-34 150h-311l-76 -150h-132l371 700h136zM285.999 251h238l-73 324z" />
    <glyph glyph-name="abreve" unicode="&#x103;" 
d="M398 568c-55.333 0 -98.1699 15.833 -128.503 47.5s-42.166 70.834 -35.499 117.501h94c-3.33301 -24 2.83398 -43.333 18.501 -58s36.834 -22 63.501 -22c27.333 0 50.833 7.33301 70.5 22s31.167 34 34.5 58h94c-6.66699 -46.667 -29.5 -85.834 -68.5 -117.501
s-86.5 -47.5 -142.5 -47.5zM615.996 500l-70 -500h-113l8 53c-53.333 -44.667 -110 -67 -170 -67c-64 0 -113.167 26 -147.5 78s-46.166 116.333 -35.499 193c10 72.667 38.167 133.667 84.5 183s100.166 74 161.499 74c63.333 0 117 -25.333 161 -76l8 62h113zM291.996 86
c24.667 0 51.832 6.33203 81.499 18.999s56.834 30.334 81.501 53.001l27 193c-8.66699 10 -18.834 19.167 -30.501 27.5s-23.167 15 -34.5 20s-22.833 8.83301 -34.5 11.5s-22.834 4 -33.501 4c-38 0 -70.167 -15.5 -96.5 -46.5s-43.166 -72.5 -50.499 -124.5
c-7.33301 -48.667 -3.16602 -87 12.501 -115s41.5 -42 77.5 -42z" />
    <glyph glyph-name="Aogonek" unicode="&#x104;" horiz-adv-x="738" 
d="M692 -120l20.001 -68.002c-28.667 -17.333 -63.667 -26 -105 -26c-36 0 -65.5 9.33301 -88.5 28s-32.5 44 -28.5 76c6 40.667 35.667 78.334 89 113.001l-33 147h-311l-76 -150h-132l371 700h136l175 -700h-52c-41.333 -28.667 -64.333 -59 -69 -91
c-2 -15.333 1.16699 -26.166 9.5 -32.499s21.166 -9.5 38.499 -9.5c19.333 0 38 4.33301 56 13zM286.001 250.998h238l-73 324z" />
    <glyph glyph-name="aogonek" unicode="&#x105;" 
d="M481 -138c19.333 -0.666992 38.334 3.33496 57.001 12.002l19 -67c-28.667 -17.333 -63.334 -26.333 -104.001 -27c-36 0 -65.667 9.66699 -89 29s-32.666 44.666 -27.999 75.999c6 43.333 38.667 82.666 98 117.999l7 50c-53.333 -44.667 -110 -67 -170 -67
c-64 0 -113.167 26.167 -147.5 78.5s-46.166 116.5 -35.499 192.5c10 72.667 38.167 133.667 84.5 183s100.166 74 161.499 74c63.333 0 117 -25.333 161 -76l8 62h113l-70 -500h-35c-47.333 -30 -73.333 -62.333 -78 -97c-2 -14.667 1.16699 -25.167 9.5 -31.5
s21.166 -9.5 38.499 -9.5zM292.001 86.002c12 0 24.998 1.66602 38.998 4.99902s28 8 42 14s28.167 13.5 42.5 22.5s27.5 19.167 39.5 30.5l27 193c-18 20.667 -39 36.334 -63 47.001s-47.333 16 -70 16c-38 0 -70.167 -15.5 -96.5 -46.5s-43.166 -72.5 -50.499 -124.5
c-7.33301 -48.667 -3.16602 -87 12.501 -115s41.5 -42 77.5 -42z" />
    <glyph glyph-name="Cacute" unicode="&#x106;" horiz-adv-x="762" 
d="M566 764h-116l152 173h128zM518 714c22.667 0 45.5049 -2.16602 68.5049 -6.49902s45.667 -10.833 68 -19.5s44.166 -19.334 65.499 -32.001s41.666 -27 60.999 -43l-41 -85c-68.667 50 -143 75 -223 75c-68 0 -127 -23.833 -177 -71.5s-80.333 -110.5 -91 -188.5
c-10.667 -73.333 1.33301 -132.666 36 -177.999s84.667 -68 150 -68c80.667 0 164.667 26.333 252 79l24 -92c-45.333 -32 -93 -56.333 -143 -73s-97 -25 -141 -25c-69.333 0 -128.833 16.667 -178.5 50s-85.167 78.166 -106.5 134.499s-27 118.5 -17 186.5
c9.33301 66 31.666 126.167 66.999 180.5s81.666 97.5 138.999 129.5s119.666 47.667 186.999 47z" />
    <glyph glyph-name="cacute" unicode="&#x107;" horiz-adv-x="556" 
d="M431 564h-116l152 173h128zM376 514c68.667 0 130.331 -23 184.998 -69l-34 -72c-47.333 28 -96.666 42 -147.999 42c-46.667 0 -85.667 -15.667 -117 -47s-50.333 -73 -57 -125c-4 -31.333 -2.33301 -58.833 5 -82.5s20.833 -42.167 40.5 -55.5s44.5 -20 74.5 -20
c50 0 104.333 15 163 45l22 -79c-62.667 -43.333 -128.667 -65 -198 -65c-76 0 -134.333 26.167 -175 78.5s-55.667 116.5 -45 192.5c10.667 74 42.334 135.333 95.001 184s115.667 73 189 73z" />
    <glyph glyph-name="Cdotaccent" unicode="&#x10a;" horiz-adv-x="762" 
d="M526 904c18.667 0 33.667 -6.83398 45 -20.501s15.666 -30.167 12.999 -49.5c-1.33301 -10 -5.16602 -19.167 -11.499 -27.5s-14.166 -15 -23.499 -20s-19 -7.5 -29 -7.5c-18.667 0 -33.834 6.83301 -45.501 20.5s-16.167 29.834 -13.5 48.501
c2.66699 15.333 10.167 28.5 22.5 39.5s26.5 16.5 42.5 16.5zM518 713.999c46 0 91.833 -8.66504 137.5 -25.998s87.5 -42.333 125.5 -75l-41 -85c-68.667 50 -143 75 -223 75c-68 0 -127 -23.833 -177 -71.5s-80.333 -110.5 -91 -188.5
c-10.667 -73.333 1.33301 -132.666 36 -177.999s84.667 -68 150 -68c80.667 0 164.667 26.333 252 79l24 -92c-15.333 -10.667 -31.166 -20.667 -47.499 -30s-32.666 -17.5 -48.999 -24.5s-32.666 -13.333 -48.999 -19s-32.333 -10.334 -48 -14.001
s-31.167 -6.33398 -46.5 -8.00098s-30 -2.5 -44 -2.5c-69.333 0 -128.833 16.667 -178.5 50s-85.167 78.166 -106.5 134.499s-27 118.5 -17 186.5c9.33301 66 31.666 126.167 66.999 180.5s81.666 97.5 138.999 129.5s119.666 47.667 186.999 47z" />
    <glyph glyph-name="cdotaccent" unicode="&#x10b;" horiz-adv-x="556" 
d="M391 704c12 0 22.8311 -3.16699 32.498 -9.5s16.834 -14.833 21.501 -25.5s6 -22.334 4 -35.001c-2 -15.333 -9.16699 -28.333 -21.5 -39s-26.5 -16 -42.5 -16c-18.667 0 -33.667 6.83301 -45 20.5s-15.666 29.834 -12.999 48.501c2 15.333 9.16699 28.5 21.5 39.5
s26.5 16.5 42.5 16.5zM375.998 514c68.667 0 130.331 -23 184.998 -69l-34 -72c-47.333 28 -96.666 42 -147.999 42c-46.667 0 -85.667 -15.667 -117 -47s-50.333 -73 -57 -125c-4 -31.333 -2.33301 -58.833 5 -82.5s20.833 -42.167 40.5 -55.5s44.5 -20 74.5 -20
c50 0 104.333 15 163 45l22 -79c-62.667 -43.333 -128.667 -65 -198 -65c-76 0 -134.333 26.167 -175 78.5s-55.667 116.5 -45 192.5c10.667 74 42.334 135.333 95.001 184s115.667 73 189 73z" />
    <glyph glyph-name="Ccaron" unicode="&#x10c;" horiz-adv-x="762" 
d="M455 764l-123 173h120l68 -108l99 108h124l-172 -173h-116zM517 603c-68 0 -126.997 -23.833 -176.997 -71.5s-80.333 -110.5 -91 -188.5c-6.66699 -48.667 -3.5 -91.667 9.5 -129s34.833 -66.166 65.5 -86.499s67.667 -30.5 111 -30.5c80.667 0 164.667 26.333 252 79
l24 -92c-45.333 -32 -93 -56.333 -143 -73s-97 -25 -141 -25c-69.333 0 -128.833 16.667 -178.5 50s-85.167 78.166 -106.5 134.499s-27 118.5 -17 186.5c9.33301 66 31.666 126.167 66.999 180.5s81.666 97.5 138.999 129.5s119.666 47.667 186.999 47
c46 0 91.833 -8.66699 137.5 -26s87.5 -42.333 125.5 -75l-41 -85c-68.667 50 -143 75 -223 75z" />
    <glyph glyph-name="ccaron" unicode="&#x10d;" horiz-adv-x="556" 
d="M320 564l-123 173h120l68 -108l99 108h124l-172 -173h-116zM376 514c68.667 0 130.331 -23 184.998 -69l-34 -72c-47.333 28 -96.666 42 -147.999 42c-46.667 0 -85.667 -15.667 -117 -47s-50.333 -73 -57 -125c-4 -31.333 -2.33301 -58.833 5 -82.5
s20.833 -42.167 40.5 -55.5s44.5 -20 74.5 -20c50 0 104.333 15 163 45l22 -79c-62.667 -43.333 -128.667 -65 -198 -65c-76 0 -134.333 26.167 -175 78.5s-55.667 116.5 -45 192.5c10.667 74 42.334 135.333 95.001 184s115.667 73 189 73z" />
    <glyph glyph-name="Dcaron" unicode="&#x10e;" horiz-adv-x="772" 
d="M426 764l-123 173h120l68 -108l99 108h124l-172 -173h-116zM223 700l225 -0.000976562c103.333 0 182.5 -33.667 237.5 -101s75.167 -152.666 60.5 -255.999c-14 -100 -57 -182.167 -129 -246.5s-159.333 -96.5 -262 -96.5h-263l99 700h32zM622 356.999
c10.667 74 -0.832031 132.668 -34.499 176.001s-84.834 65 -153.501 65h-136l-69 -496h129c69.333 0 128 23.167 176 69.5s77.333 108.166 88 185.499z" />
    <glyph glyph-name="dcaron" unicode="&#x10f;" horiz-adv-x="624" 
d="M844 659c1.33301 -26 -8.66602 -55.002 -29.999 -87.002s-47 -58 -77 -78l-40 29c32.667 25.333 57.334 56 74.001 92c-12 0.666992 -22 6.5 -30 17.5s-11 24.5 -9 40.5c1.33301 8.66699 4.83301 16.834 10.5 24.501s12.667 13.667 21 18s17.166 6.5 26.499 6.5
c16 0 29.167 -5.66699 39.5 -17s15.166 -26.666 14.499 -45.999zM537.001 699.998l111.998 0.00195312l-98 -700h-113l8 55c-54 -46 -111 -69 -171 -69c-64 0 -113.167 26.167 -147.5 78.5s-46.166 116.5 -35.499 192.5c10 73.333 38.333 134.666 85 183.999
s101.667 73.666 165 72.999c28.667 0 56.834 -6.66699 84.501 -20s52.167 -32.333 73.5 -57zM296.999 86c24.667 0 51.834 6.49902 81.501 19.499s57.167 31.167 82.5 54.5l26 189c-12 14.667 -25.833 26.834 -41.5 36.501s-31.334 16.834 -47.001 21.501s-31.167 7 -46.5 7
c-38 0 -70.333 -15.833 -97 -47.5s-43.334 -72.834 -50.001 -123.501c-6.66699 -47.333 -2.16699 -85.333 13.5 -114s41.834 -43 78.501 -43z" />
    <glyph glyph-name="Dcroat" unicode="&#x110;" horiz-adv-x="772" 
d="M213 700l235 -0.000976562c103.333 0 182.5 -33.667 237.5 -101s75.167 -152.666 60.5 -255.999c-14 -100 -57 -182.167 -129 -246.5s-159.333 -96.5 -262 -96.5h-263l43 304h-92l13 92h92l43 304h22zM622 356.999c10.667 74 -0.832031 132.668 -34.499 176.001
s-84.834 65 -153.501 65h-136l-28 -202h163l-13 -92h-163l-28 -202h129c69.333 0 128 23.167 176 69.5s77.333 108.166 88 185.499z" />
    <glyph glyph-name="dcroat" unicode="&#x111;" horiz-adv-x="624" 
d="M723 547l-96.002 0.00195312l-76 -547h-113l8 55c-54 -46 -111 -69 -171 -69c-64 0 -113.167 26.167 -147.5 78.5s-46.166 116.5 -35.499 192.5c10 73.333 38.333 134.666 85 183.999s101.667 73.666 165 72.999c28.667 0 56.834 -6.66699 84.501 -20
s52.167 -32.333 73.5 -57l15 110h-127l12 86h127l10 67h112l-9 -67h95zM296.998 86.002c24.667 0 51.832 6.50098 81.499 19.501s57.167 31.167 82.5 54.5l26 189c-18 21.333 -39.167 37.5 -63.5 48.5s-48.166 16.5 -71.499 16.5c-38 0 -70.333 -15.833 -97 -47.5
s-43.334 -72.834 -50.001 -123.501c-6.66699 -47.333 -2.16699 -85.333 13.5 -114s41.834 -43 78.501 -43z" />
    <glyph glyph-name="Emacron" unicode="&#x112;" horiz-adv-x="628" 
d="M614 787h-335l14 95h334zM298 598l-25 -181h317l-14 -101h-317l-30 -214h366l-15 -102h-488l99 700h478l-15 -102h-356z" />
    <glyph glyph-name="emacron" unicode="&#x113;" horiz-adv-x="586" 
d="M552 587h-335l13 95h335zM375 514c50.667 0 92.3311 -11.668 124.998 -35.001s55.167 -55 67.5 -95s14.5 -86.333 6.5 -139c-0.666992 -7.33301 -2 -15 -4 -23h-366v-8c0 -40 10.5 -71.667 31.5 -95s50.167 -35 87.5 -35c50 0 105 14.667 165 44l16 -74
c-65.333 -45.333 -132.666 -68 -201.999 -68c-73.333 0 -129.5 25.333 -168.5 76s-53.167 113.334 -42.5 188.001c10.667 75.333 42.334 138.333 95.001 189s115.667 75.667 189 75zM363.997 415.999c-34 0 -63.832 -10.332 -89.499 -30.999s-44.5 -48.334 -56.5 -83.001
h250c-0.666992 76 -35.334 114 -104.001 114z" />
    <glyph glyph-name="Edotaccent" unicode="&#x116;" horiz-adv-x="628" 
d="M451 779c-18.667 0 -33.6689 6.83203 -45.002 20.499s-15.666 29.834 -12.999 48.501c2 15.333 9.33301 28.5 22 39.5s26.667 16.5 42 16.5c18.667 0 33.834 -6.83301 45.501 -20.5s16.167 -30.167 13.5 -49.5c-2.66699 -15.333 -10.167 -28.333 -22.5 -39
s-26.5 -16 -42.5 -16zM297.998 597.999l-25 -181h317l-14 -101h-317l-30 -214h366l-15 -102h-488l99 700h478l-15 -102h-356z" />
    <glyph glyph-name="edotaccent" unicode="&#x117;" horiz-adv-x="586" 
d="M395 704c12.667 0 23.667 -3.16504 33 -9.49805s16.333 -14.833 21 -25.5s6.33398 -22.334 5.00098 -35.001c-2.66699 -15.333 -10.167 -28.333 -22.5 -39s-26.5 -16 -42.5 -16c-12 0 -22.833 3.16699 -32.5 9.5s-16.834 14.666 -21.501 24.999s-6 21.833 -4 34.5
c2 15.333 9.33301 28.5 22 39.5s26.667 16.5 42 16.5zM375 514.002c50.667 0 92.3311 -11.668 124.998 -35.001s55.167 -55 67.5 -95s14.5 -86.333 6.5 -139c-0.666992 -7.33301 -2 -15 -4 -23h-366v-8c0 -40 10.5 -71.667 31.5 -95s50.167 -35 87.5 -35
c50 0 105 14.667 165 44l16 -74c-65.333 -45.333 -132.666 -68 -201.999 -68c-73.333 0 -129.5 25.333 -168.5 76s-53.167 113.334 -42.5 188.001c10.667 75.333 42.334 138.333 95.001 189s115.667 75.667 189 75zM363.997 416.001c-34 0 -63.832 -10.332 -89.499 -30.999
s-44.5 -48.334 -56.5 -83.001h250c-0.666992 76 -35.334 114 -104.001 114z" />
    <glyph glyph-name="Eogonek" unicode="&#x118;" horiz-adv-x="628" 
d="M298 598l-25 -180.999h317l-14 -101h-317l-30 -214h366l-15 -102h-40c-40.667 -28 -63 -57.667 -67 -89c-4 -29.333 12.333 -44 49 -44c19.333 0 38 4 56 12l17 -66c-29.333 -18 -64.333 -27 -105 -27c-36 0 -65.333 9.16699 -88 27.5s-32 43.166 -28 74.499
c6 40 35 77.333 87 112h-369l99 700h478l-15 -102h-356z" />
    <glyph glyph-name="eogonek" unicode="&#x119;" horiz-adv-x="586" 
d="M375 514c75.333 0 130.167 -24.833 164.5 -74.5s45.833 -114.5 34.5 -194.5c-0.666992 -7.33301 -2 -15 -4 -23h-366v-8c0 -40 10.5 -71.667 31.5 -95s50.167 -35 87.5 -35c50 0 105 14.667 165 44l16 -74c-24 -16.667 -49.333 -30.667 -76 -42
c-44.667 -28.667 -69.334 -59 -74.001 -91c-2 -16.667 1.83301 -28.834 11.5 -36.501s23.5 -11.5 41.5 -11.5c18.667 -0.666992 36.667 3 54 11l14 -64c-30.667 -18.667 -66.667 -28.334 -108 -29.001c-34.667 0.666992 -63 9.66699 -85 27s-31 41 -27 71
c4.66699 34.667 26 67.334 64 98.001c-6 -0.666992 -11.667 -1 -17 -1c-73.333 0 -129.5 25.333 -168.5 76s-53.167 113.334 -42.5 188.001c10.667 75.333 42.334 138.333 95.001 189s115.667 75.667 189 75zM218.001 301h250.001
c-0.666992 76.667 -35.334 115 -104.001 115c-34 0 -63.833 -10.333 -89.5 -31s-44.5 -48.667 -56.5 -84z" />
    <glyph glyph-name="Ecaron" unicode="&#x11a;" horiz-adv-x="628" 
d="M387 764l-124 173h120l68 -108l99 108h124l-172 -173h-115zM669 700l-15 -102h-356l-25 -181h317l-14 -101h-317l-30 -214h366l-15 -102h-488l99 700h478z" />
    <glyph glyph-name="ecaron" unicode="&#x11b;" horiz-adv-x="586" 
d="M324 564l-123 173h120l68 -108l99 108h124l-172 -173h-116zM375 514c50.667 0 92.3311 -11.668 124.998 -35.001s55.167 -55 67.5 -95s14.5 -86.333 6.5 -139c-0.666992 -7.33301 -2 -15 -4 -23h-366v-8c0 -40 10.5 -71.667 31.5 -95s50.167 -35 87.5 -35
c50 0 105 14.667 165 44l16 -74c-65.333 -45.333 -132.666 -68 -201.999 -68c-73.333 0 -129.5 25.333 -168.5 76s-53.167 113.334 -42.5 188.001c10.667 75.333 42.334 138.333 95.001 189s115.667 75.667 189 75zM217.997 301.999l250.001 0.000976562
c-0.666992 76 -35.334 114 -104.001 114c-34 0 -63.833 -10.333 -89.5 -31s-44.5 -48.334 -56.5 -83.001z" />
    <glyph glyph-name="Gbreve" unicode="&#x11e;" horiz-adv-x="820" 
d="M523 768c-55.333 0 -98.168 15.833 -128.501 47.5s-42.166 70.834 -35.499 117.501h94c-3.33301 -24 2.66699 -43.333 18 -58s36.666 -22 63.999 -22c13.333 0 26 1.83301 38 5.5s22.667 9 32 16s17 15.5 23 25.5s10 21 12 33h93
c-6 -46.667 -28.667 -85.834 -68 -117.501s-86.666 -47.5 -141.999 -47.5zM785.998 379l-6.99707 -47.999l-47 -331h-92l-2 57c-72.667 -47.333 -146 -71 -220 -71c-66.667 0 -124.334 16.667 -173.001 50s-83.334 78.166 -104.001 134.499s-26.334 118.166 -17.001 185.499
c10 66.667 32.833 127.167 68.5 181.5s82 97.5 139 129.5s119.5 47.667 187.5 47c100 0 190.667 -35 272 -105l-40 -84c-71.333 52 -149 78 -233 78c-68.667 0 -128 -24 -178 -72s-80.333 -111 -91 -189c-10.667 -73.333 1 -132.5 35 -177.5s83 -67.5 147 -67.5
c63.333 0.666992 131.333 19.334 204 56.001l18 125h-133l14 101h252z" />
    <glyph glyph-name="gbreve" unicode="&#x11f;" horiz-adv-x="620" 
d="M395 568c-55.333 0 -98.1699 15.833 -128.503 47.5s-42.166 70.834 -35.499 117.501h94c-3.33301 -24 2.83398 -43.333 18.501 -58s36.834 -22 63.501 -22c27.333 0 50.833 7.33301 70.5 22s31.167 34 34.5 58h94c-6.66699 -46.667 -29.5 -85.834 -68.5 -117.501
s-86.5 -47.5 -142.5 -47.5zM620.996 500l-68.002 -484c-7.33301 -52 -23.5 -95.5 -48.5 -130.5s-54.5 -60 -88.5 -75s-71.667 -22.5 -113 -22.5c-83.333 -0.666992 -157.333 27 -222 83l15 85c30.667 -24 63.667 -42.167 99 -54.5s68.333 -18.5 99 -18.5
c42 0 75.5 12 100.5 36s40.5 58.667 46.5 104l7 48c-53.333 -44 -109.666 -66.333 -168.999 -67c-64.667 0.666992 -114.5 26 -149.5 76s-47.167 112 -36.5 186c10 70.667 38 129.667 84 177s100 71 162 71c62.667 0 116.334 -25 161.001 -75l8 61h113zM461.994 171
l25.998 180.998c-18 19.333 -39.167 34.5 -63.5 45.5s-47.833 16.5 -70.5 16.5c-39.333 0 -72 -14.833 -98 -44.5s-42.667 -69.167 -50 -118.5c-3.33301 -24 -3.66602 -45.167 -0.999023 -63.5s7.83398 -34 15.501 -47s18 -23 31 -30s28.5 -10.5 46.5 -10.5
c16.667 0 34.5 2.83301 53.5 8.5s38.167 13.834 57.5 24.501s37 23.334 53 38.001z" />
    <glyph glyph-name="Gdotaccent" unicode="&#x120;" horiz-adv-x="820" 
d="M530 779c-18.667 0 -33.6689 6.83203 -45.002 20.499s-15.666 29.834 -12.999 48.501c2 15.333 9.33301 28.5 22 39.5s26.667 16.5 42 16.5c18.667 0 33.834 -6.83301 45.501 -20.5s16.167 -30.167 13.5 -49.5c-2.66699 -15.333 -10.167 -28.333 -22.5 -39
s-26.5 -16 -42.5 -16zM785.998 378.999l-6.99902 -47.998l-47 -331h-92l-2 57c-72.667 -47.333 -146 -71 -220 -71c-66.667 0 -124.334 16.667 -173.001 50s-83.334 78.166 -104.001 134.499s-26.334 118.166 -17.001 185.499c10 66.667 32.833 127.167 68.5 181.5
s82 97.5 139 129.5s119.5 47.667 187.5 47c100 0 190.667 -35 272 -105l-40 -84c-71.333 52 -149 78 -233 78c-45.333 0 -87.166 -10.833 -125.499 -32.5s-70.166 -52.334 -95.499 -92.001s-41.333 -85.167 -48 -136.5c-10.667 -73.333 1 -132.5 35 -177.5
s83 -67.5 147 -67.5c63.333 0.666992 131.333 19.334 204 56.001l18 125h-133l14 101h252z" />
    <glyph glyph-name="gdotaccent" unicode="&#x121;" horiz-adv-x="620" 
d="M403 579c-18.667 0 -33.834 6.83301 -45.501 20.5s-16.167 29.834 -13.5 48.501c2.66699 15.333 10.167 28.5 22.5 39.5s26.5 16.5 42.5 16.5c12 0 22.833 -3.16699 32.5 -9.5s16.834 -14.833 21.501 -25.5s6 -22.334 4 -35.001c-2 -15.333 -9.33301 -28.333 -22 -39
s-26.667 -16 -42 -16zM621 500l-68 -483.999c-10.667 -76.667 -38.834 -133.834 -84.501 -171.501s-100.834 -56.5 -165.501 -56.5c-83.333 -0.666992 -157.333 27 -222 83l15 85c30.667 -24 63.667 -42.167 99 -54.5s68.333 -18.5 99 -18.5c42 0 75.5 12 100.5 36
s40.5 58.667 46.5 104l7 48c-53.333 -44 -109.666 -66.333 -168.999 -67c-64.667 0.666992 -114.5 26 -149.5 76s-47.167 112 -36.5 186c10 70.667 38 129.667 84 177s100 71 162 71c62.667 0 116.334 -25 161.001 -75l8 61h113zM462 171.001l25.999 181
c-18 19.333 -39.167 34.5 -63.5 45.5s-47.833 16.5 -70.5 16.5c-39.333 0 -72 -14.833 -98 -44.5s-42.667 -69.167 -50 -118.5c-6.66699 -47.333 -2 -84.333 14 -111s42 -40 78 -40c25.333 0 52.833 6.33301 82.5 19s56.834 30 81.501 52z" />
    <glyph glyph-name="Gcommaaccent" unicode="&#x122;" horiz-adv-x="820" 
d="M786 379l-6.99902 -47.998l-47 -331h-92l-2 57c-72.667 -47.333 -146 -71 -220 -71c-66.667 0 -124.334 16.667 -173.001 50s-83.334 78.166 -104.001 134.499s-26.334 118.166 -17.001 185.499c10 66.667 32.833 127.167 68.5 181.5s82 97.5 139 129.5
s119.5 47.667 187.5 47c100 0 190.667 -35 272 -105l-40 -84c-71.333 52 -149 78 -233 78c-45.333 0 -87.166 -10.833 -125.499 -32.5s-70.166 -52.334 -95.499 -92.001s-41.333 -85.167 -48 -136.5c-10.667 -73.333 1 -132.5 35 -177.5s83 -67.5 147 -67.5
c63.333 0.666992 131.333 19.334 204 56.001l18 125h-133l14 101h252zM406.001 -55.998c16 0.666992 29.167 -4.83105 39.5 -16.498s15.166 -26.834 14.499 -45.501c1.33301 -26 -8.66699 -55 -30 -87s-47 -58.333 -77 -79l-40 29c32.667 26 57.334 56.667 74.001 92
c-12 0.666992 -22 6.66699 -30 18s-11 24.666 -9 39.999c2 14 8.66699 25.833 20 35.5s24 14.167 38 13.5z" />
    <glyph glyph-name="gcommaaccent" unicode="&#x123;" horiz-adv-x="620" 
d="M394 550c-16.667 0 -29.998 5.66602 -39.998 16.999s-15 26.333 -15 45c-0.666992 26.667 9.66602 56 30.999 88s47 58 77 78l40 -29c-32.667 -26 -57.334 -56.667 -74.001 -92c12 -0.666992 22 -6.66699 30 -18s11 -24.666 9 -39.999c-2 -14 -8.5 -25.667 -19.5 -35
s-23.833 -14 -38.5 -14zM621.002 499.999l-68 -483.999c-10.667 -76.667 -38.834 -133.834 -84.501 -171.501s-100.834 -56.5 -165.501 -56.5c-83.333 -0.666992 -157.333 27 -222 83l15 85c30.667 -24 63.667 -42.167 99 -54.5s68.333 -18.5 99 -18.5
c42 0 75.5 12 100.5 36s40.5 58.667 46.5 104l7 48c-53.333 -44 -109.666 -66.333 -168.999 -67c-64.667 0.666992 -114.5 26 -149.5 76s-47.167 112 -36.5 186c10 70.667 38 129.667 84 177s100 71 162 71c62.667 0 116.334 -25 161.001 -75l8 61h113zM462.002 171
l25.999 181c-18 19.333 -39.167 34.5 -63.5 45.5s-47.833 16.5 -70.5 16.5c-39.333 0 -72 -14.833 -98 -44.5s-42.667 -69.167 -50 -118.5c-6.66699 -47.333 -2 -84.333 14 -111s42 -40 78 -40c25.333 0 52.833 6.33301 82.5 19s56.834 30 81.501 52z" />
    <glyph glyph-name="Hbar" unicode="&#x126;" horiz-adv-x="793" 
d="M866 514h-92l-72 -514h-122l44 315h-365l-44 -315h-122l72 514h-93l13 93h93l13 93h122l-13 -93h365l13 93h122l-13 -93h92zM652 514h-365l-14 -98h365z" />
    <glyph glyph-name="hbar" unicode="&#x127;" horiz-adv-x="601" 
d="M431 514c50 0 89.502 -16.5 118.502 -49.5s39.167 -80.167 30.5 -141.5l-45 -323h-112l45 322c4 31.333 -0.833008 54.5 -14.5 69.5s-33.834 22.5 -60.501 22.5c-50.667 0 -103.334 -21.333 -158.001 -64l-49 -350h-113l77 547h-96l13 86h95l10 67h112l-9 -67h127
l-13 -86h-126l-15 -104c58 47.333 119 71 183 71z" />
    <glyph glyph-name="Itilde" unicode="&#x128;" horiz-adv-x="307" 
d="M215 927c26.667 0 56.667 -14.3301 90 -42.9971c18.667 -15.333 33 -23 43 -23c18.667 0 44 20.333 76 61l52 -46c-15.333 -19.333 -26.833 -33.333 -34.5 -42s-18 -19 -31 -31s-25.833 -20.333 -38.5 -25s-26.334 -7.33398 -41.001 -8.00098
c-12.667 0 -25.167 2.5 -37.5 7.5s-21.5 9.66699 -27.5 14s-14.333 11.166 -25 20.499c-18.667 15.333 -33.667 23 -45 23c-18 0 -43 -20.333 -75 -61l-52 47c11.333 14.667 18.833 24.167 22.5 28.5s11.667 13 24 26s22.5 22.167 30.5 27.5s18.333 10.666 31 15.999
s25.334 8 38.001 8zM214 0.00292969h-122l99 700h122z" />
    <glyph glyph-name="itilde" unicode="&#x129;" horiz-adv-x="255" 
d="M162 727c26.667 0 56.667 -14.3301 90 -42.9971c18.667 -15.333 33 -23 43 -23c18.667 0 44 20.333 76 61l52 -46c-15.333 -19.333 -26.833 -33.333 -34.5 -42s-18 -19 -31 -31s-25.833 -20.333 -38.5 -25s-26.334 -7.33398 -41.001 -8.00098
c-12.667 0 -25.167 2.5 -37.5 7.5s-21.5 9.66699 -27.5 14s-14.333 11.166 -25 20.499c-18.667 15.333 -33.667 23 -45 23c-18 0 -43 -20.333 -75 -61l-52 47c11.333 14.667 18.833 24.167 22.5 28.5s11.667 13 24 26s22.5 22.167 30.5 27.5s18.333 10.666 31 15.999
s25.334 8 38.001 8zM186 0.00292969h-112l70 500h112z" />
    <glyph glyph-name="Imacron" unicode="&#x12a;" horiz-adv-x="307" 
d="M431 787h-335l14 95h335zM214 0h-122l99 700h122z" />
    <glyph glyph-name="imacron" unicode="&#x12b;" horiz-adv-x="255" 
d="M378 587h-335l14 95h335zM186 0h-112l70 500h112z" />
    <glyph glyph-name="Iogonek" unicode="&#x12e;" horiz-adv-x="307" 
d="M171 -147c18.667 0 37.3301 4.33203 55.9971 12.999l20 -68c-28.667 -17.333 -63.667 -26 -105 -26c-23.333 0 -44.166 4 -62.499 12s-32.666 20 -42.999 36s-14.166 34.667 -11.499 56c6.66699 46 41.667 87.333 105 124h-38l99 700h122l-99 -700
c-55.333 -33.333 -85.666 -68.333 -90.999 -105c-2 -15.333 1.16699 -26.166 9.5 -32.499s21.166 -9.5 38.499 -9.5z" />
    <glyph glyph-name="iogonek" unicode="&#x12f;" horiz-adv-x="255" 
d="M222 704c12 0 22.832 -3.16699 32.499 -9.5s16.834 -14.833 21.501 -25.5s6 -22.334 4 -35.001c-2 -15.333 -9.33301 -28.333 -22 -39s-27 -16 -43 -16c-18 0 -32.833 6.83301 -44.5 20.5s-16.167 29.834 -13.5 48.501c2 15.333 9.33301 28.5 22 39.5s27 16.5 43 16.5z
M255.999 500l-70.0039 -500.001c-55.333 -33.333 -85.666 -68.333 -90.999 -105c-2 -15.333 1.16699 -26.166 9.5 -32.499s21.166 -9.5 38.499 -9.5c18.667 0 37.334 4.33301 56.001 13l20 -68c-29.333 -17.333 -64.333 -26 -105 -26c-23.333 0 -44.166 4 -62.499 12
s-32.666 20 -42.999 36s-14.166 34.667 -11.499 56c6.66699 46 41.667 87.333 105 124h-28l70 500h112z" />
    <glyph glyph-name="Idotaccent" unicode="&#x130;" horiz-adv-x="307" 
d="M275 904c18.667 0 33.667 -6.83398 45 -20.501s15.666 -30.167 12.999 -49.5c-2 -15.333 -9.33301 -28.333 -22 -39s-27 -16 -43 -16c-18.667 0 -33.667 6.83301 -45 20.5s-15.666 29.834 -12.999 48.501c2 15.333 9.33301 28.5 22 39.5s27 16.5 43 16.5z
M214 -0.000976562h-122l99 700h122z" />
    <glyph glyph-name="dotlessi" unicode="&#x131;" horiz-adv-x="255" 
d="M186 0h-112l70 500h112z" />
    <glyph glyph-name="IJ" unicode="&#x132;" horiz-adv-x="779" 
d="M214 0h-122l99 700h122zM785 700l-65 -460c-10 -72.667 -40.833 -133.167 -92.5 -181.5s-114.167 -72.5 -187.5 -72.5c-36 0 -70.333 6.66699 -103 20l41 90c17.333 -4.66699 37.333 -7 60 -7c40.667 0 76 14.667 106 44s48.333 67.333 55 114l64 453h122z" />
    <glyph glyph-name="ij" unicode="&#x133;" horiz-adv-x="526" 
d="M223 704c20 0 36.166 -7.16699 48.499 -21.5s17.166 -31.166 14.499 -50.499c-2.66699 -16.667 -10.667 -30.834 -24 -42.501s-28.666 -17.5 -45.999 -17.5c-20 0 -36.167 7.16699 -48.5 21.5s-16.833 31.5 -13.5 51.5c2 16.667 9.83301 30.667 23.5 42
s28.834 17 45.501 17zM488.999 704c20 0 36 -7.16699 48 -21.5s16.667 -31.166 14 -50.499c-2 -16.667 -9.83301 -30.834 -23.5 -42.501s-28.834 -17.5 -45.501 -17.5c-20 0 -36.167 7.16699 -48.5 21.5s-17.166 31.5 -14.499 51.5c2 16.667 9.83301 30.667 23.5 42
s29.167 17 46.5 17zM185.999 0h-112l70 500h112zM521.999 500l-78.999 -558c-7.33301 -54 -25.333 -93.833 -54 -119.5s-63.667 -38.5 -105 -38.5c-27.333 0 -56.666 5 -87.999 15l14 85c14 -2.66699 28.333 -4 43 -4c21.333 0 39.166 6.66699 53.499 20
s23.166 32 26.499 56l76 544h113z" />
    <glyph glyph-name="Kcommaaccent" unicode="&#x136;" horiz-adv-x="721" 
d="M459 422l233 -422h-147l-175 342l-123 -110l-33 -232h-122l99 700h122l-45 -317l336 317h163zM351 -56c16.667 0.666992 30 -4.83105 40 -16.498s14.667 -26.834 14 -45.501c1.33301 -26 -8.66699 -55 -30 -87s-47 -58.333 -77 -79l-40 29
c32.667 26 57.334 56.667 74.001 92c-12 0.666992 -22 6.66699 -30 18s-10.667 24.666 -8 39.999c1.33301 14 7.66602 25.833 18.999 35.5s24 14.167 38 13.5z" />
    <glyph glyph-name="kcommaaccent" unicode="&#x137;" horiz-adv-x="587" 
d="M395 313l174 -313h-131l-125 244l-104 -87l-22 -157h-113l99 700h112l-57 -408l237 208h153zM294 -56c16 0.666992 29.001 -4.83008 39.001 -16.4971s15 -26.834 15 -45.501c0.666992 -17.333 -3.83301 -36.5 -13.5 -57.5s-22.834 -41 -39.501 -60
s-34.667 -35.167 -54 -48.5l-40 29c32.667 26 57.334 56.667 74.001 92c-12 0.666992 -22 6.66699 -30 18s-11 24.666 -9 39.999c1.33301 9.33301 4.83301 17.833 10.5 25.5s12.667 13.667 21 18s17.166 6.16602 26.499 5.49902z" />
    <glyph glyph-name="Lacute" unicode="&#x139;" horiz-adv-x="563" 
d="M453 764h-116l152 173h128zM229 102h321l-15 -102h-443l99 700h122z" />
    <glyph glyph-name="lacute" unicode="&#x13a;" horiz-adv-x="363" 
d="M315 764h-115l152 173h128zM285 700l-76.998 -552c-6.66699 -44.667 11.333 -66.667 54 -66c9.33301 0 20.333 1.66699 33 5l25 -82c-31.333 -12.667 -62 -19 -92 -19c-44.667 0 -79.834 13.5 -105.501 40.5s-34.834 66.833 -27.501 119.5l78 554h112z" />
    <glyph glyph-name="Lcommaaccent" unicode="&#x13b;" horiz-adv-x="563" 
d="M550 102l-15 -102h-443l99 700h122l-84 -598h321zM283 -56c16 0.666992 29 -4.83105 39 -16.498s15 -26.834 15 -45.501c0.666992 -17.333 -3.83301 -36.5 -13.5 -57.5s-22.834 -41 -39.501 -60s-35 -35.167 -55 -48.5l-39 29c32.667 26 57.334 56.667 74.001 92
c-12 0.666992 -22 6.66699 -30 18s-11 24.666 -9 39.999c2 14 8.5 25.833 19.5 35.5s23.833 14.167 38.5 13.5z" />
    <glyph glyph-name="lcommaaccent" unicode="&#x13c;" horiz-adv-x="363" 
d="M285 700l-76.9971 -552c-6.66699 -44.667 11.333 -66.667 54 -66c9.33301 0 20.333 1.66699 33 5l25 -82c-10.667 -4 -21.334 -7.5 -32.001 -10.5s-21 -5.16699 -31 -6.5s-19.667 -2 -29 -2c-44.667 0 -79.834 13.5 -105.501 40.5s-34.834 66.833 -27.501 119.5l78 554
h112zM168.003 -56c16 0.666992 28.999 -4.83105 38.999 -16.498s15 -26.834 15 -45.501c1.33301 -26 -8.66699 -55 -30 -87s-47.333 -58.333 -78 -79l-39 29c32.667 26 57.334 56.667 74.001 92c-12 0.666992 -22 6.66699 -30 18s-11 24.666 -9 39.999
c2 14 8.5 25.833 19.5 35.5s23.833 14.167 38.5 13.5z" />
    <glyph glyph-name="Lcaron" unicode="&#x13d;" horiz-adv-x="563" 
d="M570 659c1.33301 -26 -8.66699 -55.001 -30 -87.001s-47 -58 -77 -78l-40 29c32.667 25.333 57.334 56 74.001 92c-12 0.666992 -22 6.5 -30 17.5s-11 24.5 -9 40.5c2 14 8.66699 25.667 20 35s24 14 38 14c16 0 29.167 -5.66699 39.5 -17s15.166 -26.666 14.499 -45.999
zM229 101.999h321l-15 -102h-443l99 700h122z" />
    <glyph glyph-name="lcaron" unicode="&#x13e;" horiz-adv-x="363" 
d="M426 722c10.667 0 20.167 -2.49902 28.5 -7.49902s14.833 -12.333 19.5 -22s7 -20.834 7 -33.501c0.666992 -17.333 -4 -36.333 -14 -57s-23.167 -40.5 -39.5 -59.5s-34.5 -35.167 -54.5 -48.5l-40 29c32.667 25.333 57.667 56 75 92c-12.667 0.666992 -23 6.5 -31 17.5
s-10.667 24.5 -8 40.5c2 14 8.5 25.667 19.5 35s23.5 14 37.5 14zM285 700.001l-76.998 -552c-6.66699 -44.667 11.333 -66.667 54 -66c9.33301 0 20.333 1.66699 33 5l25 -82c-31.333 -12.667 -62 -19 -92 -19c-44.667 0 -79.834 13.5 -105.501 40.5
s-34.834 66.833 -27.501 119.5l78 554h112z" />
    <glyph glyph-name="Ldot" unicode="&#x13f;" horiz-adv-x="563" 
d="M550 102l-15 -102h-443l99 700h122l-84 -598h321zM414 271c-20.667 0 -37.1689 7.33301 -49.502 22s-17.166 32.667 -14.499 54c1.33301 11.333 5.5 21.833 12.5 31.5s15.833 17.167 26.5 22.5s21.667 8 33 8c20.667 0 37.334 -7.5 50.001 -22.5s17.667 -32.833 15 -53.5
c-2.66699 -17.333 -11 -32 -25 -44s-30 -18 -48 -18z" />
    <glyph glyph-name="ldot" unicode="&#x140;" horiz-adv-x="363" 
d="M285 700l-76.9971 -552c-6.66699 -44.667 11.333 -66.667 54 -66c9.33301 0 20.333 1.66699 33 5l25 -82c-10.667 -4 -21.334 -7.5 -32.001 -10.5s-21 -5.16699 -31 -6.5s-19.667 -2 -29 -2c-44.667 0 -79.834 13.5 -105.501 40.5s-34.834 66.833 -27.501 119.5l78 554
h112zM353.003 409c20.667 0 37.1699 -7.5 49.5029 -22.5s17.166 -32.833 14.499 -53.5c-2.66699 -17.333 -11 -32 -25 -44s-30 -18 -48 -18c-20 0 -36.333 7.33301 -49 22s-17.667 32.667 -15 54c1.33301 11.333 5.66602 21.833 12.999 31.5s16.166 17.167 26.499 22.5
s21.5 8 33.5 8z" />
    <glyph glyph-name="Lslash" unicode="&#x141;" horiz-adv-x="557" 
d="M550 102l-15 -102h-443l38 268l-84 -42l-35 83l134 69l46 322h122l-36 -255l122 63l35 -84l-173 -88l-32 -234h321z" />
    <glyph glyph-name="lslash" unicode="&#x142;" horiz-adv-x="343" 
d="M255 80c11.333 0 25.333 2 42 6l-3 -85c-25.333 -10 -50 -15 -74 -15c-42.667 0 -76 14.167 -100 42.5s-32 69.5 -24 123.5l19 139l-80 -41l-32 76l126 64l44 310h112l-34 -248l110 57l32 -75l-156 -80l-29 -201c-6.66699 -48.667 9 -73 47 -73z" />
    <glyph glyph-name="Nacute" unicode="&#x143;" horiz-adv-x="771" 
d="M547 764h-116l152 173h128zM782 700l-98 -700h-107l-2 3l-299 491l-68 -494h-121l99 700h107l1 -3l299 -493l69 496h120z" />
    <glyph glyph-name="nacute" unicode="&#x144;" horiz-adv-x="596" 
d="M442 564h-116l152 173h128zM427 514c50 0 89.5 -16.667 118.5 -50s39.167 -80.333 30.5 -141l-45 -323h-112l45 322c2 16 1.83301 30 -0.5 42s-7 21.5 -14 28.5s-15.333 12.333 -25 16s-20.5 5.5 -32.5 5.5c-24 0 -50.333 -5.66699 -79 -17s-56 -27 -82 -47l-49 -350
h-113l71 500h112l-8 -57c58 47.333 119 71 183 71z" />
    <glyph glyph-name="Ncommaaccent" unicode="&#x145;" horiz-adv-x="771" 
d="M782 700l-98 -700h-107l-2 3l-299 491l-68 -494h-121l99 700h107l1 -3l299 -493l69 496h120zM377 -56c16 0.666992 28.999 -4.83105 38.999 -16.498s15 -26.834 15 -45.501c0.666992 -26 -9.5 -55 -30.5 -87s-46.833 -58.333 -77.5 -79l-39 29
c32.667 26 57.334 56.667 74.001 92c-12 0.666992 -22 6.66699 -30 18s-11 24.666 -9 39.999c2 14 8.5 25.833 19.5 35.5s23.833 14.167 38.5 13.5z" />
    <glyph glyph-name="ncommaaccent" unicode="&#x146;" horiz-adv-x="596" 
d="M427 514c50 0 89.5 -16.667 118.5 -50s39.167 -80.333 30.5 -141l-45 -323h-112l45 322c4.66699 31.333 0.166992 54.5 -13.5 69.5s-33.167 22.5 -58.5 22.5c-24 0 -50.333 -5.66699 -79 -17s-56 -27 -82 -47l-49 -350h-112l70 500h112l-8 -57c58 47.333 119 71 183 71z
M300 -56c16.667 0.666992 29.999 -4.83105 39.999 -16.498s14.667 -26.834 14 -45.501c1.33301 -26 -8.66699 -55 -30 -87s-47 -58.333 -77 -79l-40 29c32.667 26 57.334 56.667 74.001 92c-12 0.666992 -22 6.66699 -30 18s-11 24.666 -9 39.999
c2 14 8.66699 25.833 20 35.5s24 14.167 38 13.5z" />
    <glyph glyph-name="Ncaron" unicode="&#x147;" horiz-adv-x="771" 
d="M436 764l-123 173h119l69 -108l99 108h124l-172 -173h-116zM782 700l-98 -700h-107l-2 3l-299 491l-68 -494h-121l99 700h107l1 -3l299 -493l69 496h120z" />
    <glyph glyph-name="ncaron" unicode="&#x148;" horiz-adv-x="596" 
d="M332 564l-124 173h120l69 -108l98 108h124l-171 -173h-116zM427 514c50 0 89.5 -16.667 118.5 -50s39.167 -80.333 30.5 -141l-45 -323h-112l45 322c4.66699 31.333 0.166992 54.5 -13.5 69.5s-33.167 22.5 -58.5 22.5c-24 0 -50.333 -5.66699 -79 -17s-56 -27 -82 -47
l-49 -350h-113l71 500h112l-8 -57c58 47.333 119 71 183 71z" />
    <glyph glyph-name="Eng" unicode="&#x14a;" horiz-adv-x="771" 
d="M782 700l-91.9971 -660c-10.667 -72.667 -41.834 -133.167 -93.501 -181.5s-113.834 -72.5 -186.501 -72.5c-35.333 0 -69 6.33301 -101 19l40 88c17.333 -4.66699 37.333 -7 60 -7c37.333 0 70.166 12.167 98.499 36.5s47.5 56.833 57.5 97.5l-289 474l-68 -494h-121
l99 700h107l1 -3l299 -492l69 495h120z" />
    <glyph glyph-name="eng" unicode="&#x14b;" horiz-adv-x="596" 
d="M427 514c50 0 89.5 -16.667 118.5 -50s39.167 -80.333 30.5 -141l-53 -381c-5.33301 -36.667 -16 -67.167 -32 -91.5s-34.667 -41.5 -56 -51.5s-45 -15 -71 -15c-27.333 0 -56.666 5 -87.999 15l14 85c14 -2.66699 28 -4 42 -4c22 0 40.167 6.66699 54.5 20
s23.166 32 26.499 56l51 366c4.66699 31.333 0.166992 54.5 -13.5 69.5s-33.167 22.5 -58.5 22.5c-24 0 -50.333 -5.66699 -79 -17s-56 -27 -82 -47l-49 -350h-112l70 500h112l-8 -57c58 47.333 119 71 183 71z" />
    <glyph glyph-name="Omacron" unicode="&#x14c;" horiz-adv-x="851" 
d="M703 787h-335l14 95h335zM520 714c70 0 129.999 -16.668 179.999 -50.001s85.667 -78 107 -134s27 -118.333 17 -187c-6.66699 -49.333 -21.334 -95.666 -44.001 -138.999s-51 -81.166 -85 -113.499s-74 -57.833 -120 -76.5s-94.667 -28 -146 -28
c-69.333 0 -129.166 16.667 -179.499 50s-86.166 78.166 -107.499 134.499s-27 118.5 -17 186.5c9.33301 66 31.833 126.167 67.5 180.5s82.167 97.333 139.5 129s120 47.5 188 47.5zM514.999 602.999c-44.667 0 -85.999 -11.167 -123.999 -33.5
s-69.5 -53.166 -94.5 -92.499s-40.833 -84 -47.5 -134c-10 -72 2 -131 36 -177s83.333 -69 148 -69c68.667 0 127.667 24.5 177 73.5s79.333 111.167 90 186.5c6.66699 47.333 3.66699 89.666 -9 126.999s-34.334 66.5 -65.001 87.5s-67.667 31.5 -111 31.5z" />
    <glyph glyph-name="omacron" unicode="&#x14d;" horiz-adv-x="625" 
d="M562 587h-335l14 95h335zM379 514c77.333 0 136.831 -26.165 178.498 -78.498s57.167 -116.5 46.5 -192.5c-10.667 -72.667 -42.5 -133.667 -95.5 -183s-117.167 -74 -192.5 -74c-77.333 0 -136.666 26.167 -177.999 78.5s-56.666 116.5 -45.999 192.5
c10 73.333 41.667 134.666 95 183.999s117.333 73.666 192 72.999zM375.998 413.002c-44.667 0 -82.668 -15.667 -114.001 -47s-50.333 -72.333 -57 -123c-6.66699 -46.667 0.333008 -84.334 21 -113.001s51.667 -43 93 -43c44.667 0 82.5 15.667 113.5 47
s50.167 72.333 57.5 123c6.66699 46.667 -0.166016 84.334 -20.499 113.001s-51.5 43 -93.5 43z" />
    <glyph glyph-name="Ohungarumlaut" unicode="&#x150;" horiz-adv-x="851" 
d="M486 764h-113l154 173h125zM692 764h-113l153 173h125zM520 714c70 0 130 -16.666 180 -49.999s85.667 -78 107 -134s27 -118.333 17 -187c-8.66699 -66 -30.834 -126 -66.501 -180s-82.334 -97 -140.001 -129s-120.5 -48 -188.5 -48
c-69.333 0 -129.166 16.667 -179.499 50s-86.166 78.166 -107.499 134.499s-27 118.5 -17 186.5c9.33301 66 31.833 126.167 67.5 180.5s82.167 97.333 139.5 129s120 47.5 188 47.5zM515 603.001c-67.333 0 -125.831 -24.332 -175.498 -72.999s-79.834 -111 -90.501 -187
c-10 -72 2 -131 36 -177s83.333 -69 148 -69c68.667 0 127.667 24.5 177 73.5s79.333 111.167 90 186.5c5.33301 35.333 4.83301 68.166 -1.5 98.499s-17.5 56.333 -33.5 78s-36.833 38.667 -62.5 51s-54.834 18.5 -87.501 18.5z" />
    <glyph glyph-name="ohungarumlaut" unicode="&#x151;" horiz-adv-x="625" 
d="M346 564h-113l153 173h125zM551 564h-113l154 173h125zM379 514c77.333 0 136.831 -26.165 178.498 -78.498s57.167 -116.5 46.5 -192.5c-10.667 -72.667 -42.5 -133.667 -95.5 -183s-117.167 -74 -192.5 -74c-77.333 0 -136.666 26.167 -177.999 78.5
s-56.666 116.5 -45.999 192.5c10 73.333 41.667 134.666 95 183.999s117.333 73.666 192 72.999zM375.998 413.002c-44.667 0 -82.668 -15.667 -114.001 -47s-50.333 -72.333 -57 -123c-6.66699 -46.667 0.333008 -84.334 21 -113.001s51.667 -43 93 -43
c44.667 0 82.5 15.667 113.5 47s50.167 72.333 57.5 123c6.66699 46.667 -0.166016 84.334 -20.499 113.001s-51.5 43 -93.5 43z" />
    <glyph glyph-name="OE" unicode="&#x152;" horiz-adv-x="1191" 
d="M861 598l-26.002 -180.999h318l-15 -101h-317l-30 -214h366l-14 -102h-488l9 64c-68.667 -52 -147 -78 -235 -78c-69.333 0 -129.166 16.667 -179.499 50s-86.166 78.166 -107.499 134.499s-27 118.5 -17 186.5c9.33301 66 31.833 126.167 67.5 180.5
s82.167 97.333 139.5 129s120 47.5 188 47.5c92.667 0 167 -28.333 223 -85l10 71h478l-14 -102h-356zM432.998 97.001c68.667 0 127.668 24.5 177.001 73.5s79.333 111.167 90 186.5c10.667 72 -1 131 -35 177s-84 69 -150 69c-67.333 0 -125.833 -24.333 -175.5 -73
s-79.834 -111 -90.501 -187c-10 -72 2 -131 36 -177s83.333 -69 148 -69z" />
    <glyph glyph-name="oe" unicode="&#x153;" horiz-adv-x="986" 
d="M381 514c28.667 0 55.168 -3.99902 79.501 -11.999s45.333 -18.833 63 -32.5s32.5 -29.834 44.5 -48.501c54.667 62.667 122 93.667 202 93c76 0 131.5 -24.833 166.5 -74.5s47.167 -114.167 36.5 -193.5c-0.666992 -8.66699 -2 -17.334 -4 -26.001h-366v-6
c0 -4 -0.333008 -7.33301 -1 -10c1.33301 -37.333 12.166 -66.666 32.499 -87.999s48.166 -32 83.499 -32c50.667 0 106 14.667 166 44l21 -75c-64 -44.667 -130.667 -67 -200 -67c-40.667 0 -76.5 8.5 -107.5 25.5s-55.5 39.833 -73.5 68.5c-56 -62.667 -126 -94 -210 -94
c-76.667 0 -135.667 25.833 -177 77.5s-56.666 115.167 -45.999 190.5c10.667 74 43 136 97 186s118.333 74.667 193 74zM767.001 416.001c-23.333 0 -44.999 -5.00098 -64.999 -15.001s-37.167 -23.667 -51.5 -41s-25.5 -37.666 -33.5 -60.999l251 5
c-0.666992 74.667 -34.334 112 -101.001 112zM374.002 413c-44.667 0 -82.3311 -15.5029 -112.998 -46.5029s-49 -71.167 -55 -120.5c-6.66699 -47.333 0.333008 -85.666 21 -114.999s52 -44 94 -44c22 0 42.667 4 62 12s36.166 19.333 50.499 34s26.5 32.334 36.5 53.001
s16.667 43.334 20 68.001c6.66699 48 -0.333008 86.5 -21 115.5s-52.334 43.5 -95.001 43.5z" />
    <glyph glyph-name="Racute" unicode="&#x154;" horiz-adv-x="684" 
d="M503 764h-116l152 173h128zM689 482c-4 -24.667 -10.667 -47.667 -20 -69s-21.166 -40.333 -35.499 -57s-30.333 -31.167 -48 -43.5s-36.834 -21.833 -57.501 -28.5l127 -284h-139l-106 272h-157l-39 -272h-122l99 700h63h258c57.333 0 103.5 -20.333 138.5 -61
s47.833 -93 38.5 -157zM568 491c4.66699 33.333 0.168945 59.5 -13.498 78.5s-33.167 28.5 -58.5 28.5h-198l-31 -224h194c25.333 0 48.166 10.5 68.499 31.5s33.166 49.5 38.499 85.5z" />
    <glyph glyph-name="racute" unicode="&#x155;" horiz-adv-x="408" 
d="M347 564h-116l152 173h128zM252 500l-8.99805 -64c31.333 25.333 64.666 44.833 99.999 58.5s68.666 20.5 99.999 20.5c4 0 9.66699 -0.333008 17 -1l-29 -108h-13c-63.333 0 -126.333 -24.333 -189 -73l-47 -333h-112l70 500h112z" />
    <glyph glyph-name="Rcommaaccent" unicode="&#x156;" horiz-adv-x="684" 
d="M689 482c-7.33301 -48 -25.5 -89.5 -54.5 -124.5s-64.5 -59.5 -106.5 -73.5l127 -284h-139l-106 272h-157l-39 -272h-122l99 700h63h258c57.333 0 103.5 -20.333 138.5 -61s47.833 -93 38.5 -157zM568 491c4.66699 33.333 0.168945 59.5 -13.498 78.5
s-33.167 28.5 -58.5 28.5h-198l-31 -224h194c25.333 0 48.166 10.5 68.499 31.5s33.166 49.5 38.499 85.5zM333.002 -56c16 0.666992 28.999 -4.83105 38.999 -16.498s15 -26.834 15 -45.501c0.666992 -26 -9.5 -55 -30.5 -87s-46.833 -58.333 -77.5 -79l-39 29
c32.667 26 57.334 56.667 74.001 92c-12 0.666992 -22 6.66699 -30 18s-11 24.666 -9 39.999c2 14 8.5 25.833 19.5 35.5s23.833 14.167 38.5 13.5z" />
    <glyph glyph-name="rcommaaccent" unicode="&#x157;" horiz-adv-x="408" 
d="M443 515c4 0 9.66699 -0.333008 17 -1l-29 -108h-13c-63.333 0 -126.333 -24.333 -189 -73l-47 -333h-113l71 500h112l-9 -64c21.333 17.333 43.833 32 67.5 44s46.667 20.833 69 26.5s43.5 8.5 63.5 8.5zM205 -56c16 0.666992 28.999 -4.83105 38.999 -16.498
s15 -26.834 15 -45.501c1.33301 -26 -8.66699 -55 -30 -87s-47 -58.333 -77 -79l-40 29c32.667 26 57.334 56.667 74.001 92c-12 0.666992 -22 6.66699 -30 18s-11 24.666 -9 39.999c2 14 8.5 25.833 19.5 35.5s23.833 14.167 38.5 13.5z" />
    <glyph glyph-name="Rcaron" unicode="&#x158;" horiz-adv-x="684" 
d="M392 764l-123 173h119l69 -108l99 108h124l-172 -173h-116zM689 482c-7.33301 -48 -25.5 -89.5 -54.5 -124.5s-64.5 -59.5 -106.5 -73.5l127 -284h-139l-106 272h-157l-39 -272h-122l99 700h63h258c57.333 0 103.5 -20.333 138.5 -61s47.833 -93 38.5 -157zM568 491
c4.66699 33.333 0.168945 59.5 -13.498 78.5s-33.167 28.5 -58.5 28.5h-198l-31 -224h194c25.333 0 48.166 10.5 68.499 31.5s33.166 49.5 38.499 85.5z" />
    <glyph glyph-name="rcaron" unicode="&#x159;" horiz-adv-x="408" 
d="M236 564l-123 173h120l68 -108l99 108h124l-172 -173h-116zM252 500l-8.99805 -64c31.333 25.333 64.666 44.833 99.999 58.5s68.666 20.5 99.999 20.5c4 0 9.66699 -0.333008 17 -1l-29 -108h-13c-63.333 0 -126.333 -24.333 -189 -73l-47 -333h-112l70 500h112z" />
    <glyph glyph-name="Sacute" unicode="&#x15a;" horiz-adv-x="639" 
d="M481 764h-116l152 173h128zM419 714c51.333 0 98.0039 -8.32715 140.004 -24.9941s77.333 -39 106 -67l-75 -78c-44.667 40 -103.667 60 -177 60c-92 0 -143 -34 -153 -102c-2.66699 -22.667 4.16602 -39.834 20.499 -51.501s55.5 -26.5 117.5 -44.5
c2 -0.666992 4.33301 -1.33398 7 -2.00098c20.667 -5.33301 36.334 -9.5 47.001 -12.5s25.5 -8 44.5 -15s33.667 -13.667 44 -20s22.166 -15 35.499 -26s23 -22.667 29 -35s10.667 -27.166 14 -44.499s3.66602 -36.333 0.999023 -57
c-4.66699 -35.333 -16.834 -66.833 -36.501 -94.5s-43.667 -49.5 -72 -65.5s-58.166 -28 -89.499 -36s-63 -12 -95 -12c-54.667 0 -106.5 11.167 -155.5 33.5s-85.833 51.833 -110.5 88.5l76 74c18.667 -28 46.167 -49.667 82.5 -65s73.5 -22.666 111.5 -21.999
c43.333 -0.666992 80.333 8.66602 111 27.999s48.334 45.666 53.001 78.999c1.33301 11.333 0.5 21.333 -2.5 30s-6.83301 15.667 -11.5 21s-13 10.666 -25 15.999s-22.5 9.5 -31.5 12.5s-23.5 7.5 -43.5 13.5c-2 0.666992 -3.83301 1.16699 -5.5 1.5
s-3.5 0.833008 -5.5 1.5l-6 2c-2 0.666992 -4 1 -6 1c-45.333 13.333 -81.833 25.666 -109.5 36.999s-51.334 25 -71.001 41s-32.667 34.5 -39 55.5s-7.5 46.167 -3.5 75.5c5.33301 36 17.166 67.667 35.499 95s40.833 48.666 67.5 63.999s55.167 26.666 85.5 33.999
s62.166 11 95.499 11z" />
    <glyph glyph-name="sacute" unicode="&#x15b;" horiz-adv-x="493" 
d="M379 564h-116l152 173h128zM313 514c37.333 0 72.8311 -5.66406 106.498 -16.9971s60.834 -28.333 81.501 -51l-54 -69c-12.667 15.333 -30.834 26.833 -54.501 34.5s-49.167 11.5 -76.5 11.5c-30.667 0 -55.167 -5.33301 -73.5 -16s-28.833 -26.334 -31.5 -47.001
c-2 -13.333 2.83301 -23.833 14.5 -31.5s36.834 -16.834 75.501 -27.501c16.667 -4.66699 29 -8 37 -10s20 -5.83301 36 -11.5s28 -10.834 36 -15.501s17.667 -11.334 29 -20.001s19.5 -17.834 24.5 -27.501s8.83301 -21.334 11.5 -35.001s3 -28.5 1 -44.5
c-4 -26.667 -13.667 -50.167 -29 -70.5s-34.166 -36.166 -56.499 -47.499s-45.833 -19.666 -70.5 -24.999s-50 -8 -76 -8c-42.667 0 -82 7.33301 -118 22s-62.667 34.667 -80 60l54 68c12 -19.333 31 -34.166 57 -44.499s54.333 -15.5 85 -15.5
c32.667 0 60.5 6.33301 83.5 19s36.167 30 39.5 52c2 4 2.16699 7.83301 0.5 11.5s-2.5 6.66699 -2.5 9s-1.66699 4.83301 -5 7.5s-5.66602 4.83398 -6.99902 6.50098s-4.5 3.5 -9.5 5.5s-8.83301 3.66699 -11.5 5s-7 2.83301 -13 4.5s-10.833 3.16699 -14.5 4.5
s-9 2.83301 -16 4.5s-13.167 3.5 -18.5 5.5c-66.667 17.333 -112.834 36.666 -138.501 57.999s-35.5 53.333 -29.5 96c4 26.667 12.833 50 26.5 70s30.5 35.5 50.5 46.5s41.333 19.167 64 24.5s46.667 8 72 8z" />
    <glyph glyph-name="Scedilla" unicode="&#x15e;" horiz-adv-x="639" 
d="M398 406c2 -0.666992 4.34082 -1.33691 7.00781 -2.00391c20.667 -5.33301 36.334 -9.5 47.001 -12.5s25.5 -8 44.5 -15s33.667 -13.667 44 -20s22.166 -15 35.499 -26s23 -22.667 29 -35s10.667 -27.166 14 -44.499s3.66602 -36.333 0.999023 -57
c-4.66699 -32.667 -15.667 -62.167 -33 -88.5s-38.833 -47.666 -64.5 -63.999s-52.834 -29 -81.501 -38s-58.334 -14.5 -89.001 -16.5l-14 -30c3.33301 0 5.33301 -0.666992 6 -2c30.667 -3.33301 54 -14 70 -32s22 -40.667 18 -68c-4 -29.333 -19.333 -53.666 -46 -72.999
s-60 -29.333 -100 -30c-22.667 -0.666992 -47 1.83301 -73 7.5s-47.333 13.167 -64 22.5l34 58c28 -11.333 59 -17 93 -17c36 0 56 13.333 60 40c1.33301 10 -0.333984 17.667 -5.00098 23s-13 8 -25 8c-18 0 -36.333 -3.66699 -55 -11l-16 40l41 67
c-45.333 6 -87.333 19.5 -126 40.5s-68.334 46.833 -89.001 77.5l76 74c12.667 -18.667 30 -34.834 52 -48.501s45.167 -23.667 69.5 -30s48.5 -9.16602 72.5 -8.49902c28 -0.666992 53.833 3.16602 77.5 11.499s43.167 20.833 58.5 37.5s24.666 36 27.999 58
c1.33301 11.333 0.5 21.333 -2.5 30s-6.83301 15.667 -11.5 21s-13 10.666 -25 15.999s-22.5 9.5 -31.5 12.5s-23.5 7.5 -43.5 13.5c-3.33301 0.666992 -5.83301 1.33398 -7.5 2.00098s-4 1.33398 -7 2.00098s-5.83301 1.33398 -8.5 2.00098
c-36 10.667 -66.167 20.5 -90.5 29.5s-46.333 19.333 -66 31s-34.5 24.334 -44.5 38.001s-16.833 29.5 -20.5 47.5s-4.16699 39 -1.5 63c4 24.667 10.667 47.167 20 67.5s21.166 37.833 35.499 52.5s30 27.5 47 38.5s35.667 19.833 56 26.5s40.833 11.5 61.5 14.5
s42 4.5 64 4.5c51.333 0 98 -8.33301 140 -25s77.333 -39 106 -67l-75 -78c-44.667 40 -103.667 60 -177 60c-92 0 -143 -34 -153 -102c-2.66699 -22.667 4.16602 -39.834 20.499 -51.501s55.5 -26.5 117.5 -44.5z" />
    <glyph glyph-name="scedilla" unicode="&#x15f;" horiz-adv-x="493" 
d="M301 301c16.667 -4.66699 29.002 -7.99902 37.002 -9.99902s20 -5.83301 36 -11.5s28 -10.834 36 -15.501s17.667 -11.334 29 -20.001s19.5 -17.834 24.5 -27.501s8.83301 -21.334 11.5 -35.001s3 -28.5 1 -44.5c-4.66699 -31.333 -17.334 -58.166 -38.001 -80.499
s-44.334 -38.666 -71.001 -48.999s-56 -16.833 -88 -19.5l-15 -31c3.33301 0 5.33301 -0.666992 6 -2c30.667 -3.33301 54 -14 70 -32s22 -40.667 18 -68c-4 -29.333 -19.167 -53.666 -45.5 -72.999s-59.5 -29.333 -99.5 -30c-23.333 -0.666992 -48 1.83301 -74 7.5
s-47 13.167 -63 22.5l33 58c28 -11.333 59 -17 93 -17c36 0 56 13.333 60 40c1.33301 10 -0.333984 17.667 -5.00098 23s-13 8 -25 8c-18 0 -36.333 -3.66699 -55 -11l-15 40l40 66c-34.667 4 -65.667 12.833 -93 26.5s-48.333 31.167 -63 52.5l54 68
c12 -19.333 31 -34.166 57 -44.499s54.333 -15.5 85 -15.5c32.667 0 60.5 6.33301 83.5 19s36.167 30 39.5 52c1.33301 8.66699 0.666016 15.834 -2.00098 21.501s-8 10.834 -16 15.501s-15.5 8.16699 -22.5 10.5s-18.167 5.5 -33.5 9.5l-6 1.5
c-1.33301 0.333008 -3 0.833008 -5 1.5l-6 2l-6 2c-66.667 17.333 -112.834 36.666 -138.501 57.999s-35.5 53.333 -29.5 96c4 26.667 12.833 50 26.5 70s30.5 35.5 50.5 46.5s41.333 19.167 64 24.5s46.667 8 72 8c18 0 35.667 -1.33301 53 -4s34.333 -6.66699 51 -12
s32.167 -12.333 46.5 -21s26.833 -19 37.5 -31l-54 -69c-8.66699 10.667 -20.167 19.5 -34.5 26.5s-29.666 12 -45.999 15s-33.166 4.5 -50.499 4.5c-30.667 0 -55.167 -5.33301 -73.5 -16s-28.833 -26.334 -31.5 -47.001c-2 -13.333 2.83301 -23.833 14.5 -31.5
s36.834 -16.834 75.501 -27.501z" />
    <glyph glyph-name="Scaron" unicode="&#x160;" horiz-adv-x="639" 
d="M371 764l-124 173h120l69 -108l98 108h124l-171 -173h-116zM398 406c2 -0.666992 4.33496 -1.33008 7.00195 -1.99707c20.667 -5.33301 36.334 -9.5 47.001 -12.5s25.5 -8 44.5 -15s33.667 -13.667 44 -20s22.166 -15 35.499 -26s23 -22.667 29 -35
s10.667 -27.166 14 -44.499s3.66602 -36.333 0.999023 -57c-4.66699 -35.333 -16.834 -66.833 -36.501 -94.5s-43.667 -49.5 -72 -65.5s-58.166 -28 -89.499 -36s-63 -12 -95 -12c-54.667 0 -106.5 11.167 -155.5 33.5s-85.833 51.833 -110.5 88.5l76 74
c12.667 -18.667 30 -34.834 52 -48.501s45.167 -23.667 69.5 -30s48.5 -9.16602 72.5 -8.49902c43.333 -0.666992 80.333 8.66602 111 27.999s48.334 45.666 53.001 78.999c1.33301 11.333 0.5 21.333 -2.5 30s-6.83301 15.667 -11.5 21s-13 10.666 -25 15.999
s-22.5 9.5 -31.5 12.5s-23.5 7.5 -43.5 13.5c-3.33301 0.666992 -5.83301 1.33398 -7.5 2.00098s-4 1.33398 -7 2.00098s-5.83301 1.33398 -8.5 2.00098c-45.333 13.333 -81.833 25.666 -109.5 36.999s-51.334 25 -71.001 41s-32.667 34.5 -39 55.5s-7.5 46.167 -3.5 75.5
c5.33301 36 17.166 67.667 35.499 95s40.833 48.666 67.5 63.999s55.167 26.666 85.5 33.999s62.166 11 95.499 11c51.333 0 98 -8.33301 140 -25s77.333 -39 106 -67l-75 -78c-44.667 40 -103.667 60 -177 60c-92 0 -143 -34 -153 -102
c-3.33301 -22.667 3.33398 -39.834 20.001 -51.501s56 -26.5 118 -44.5z" />
    <glyph glyph-name="scaron" unicode="&#x161;" horiz-adv-x="493" 
d="M268 564l-123 173h120l68 -108l99 108h124l-172 -173h-116zM316 423c-30.667 0 -55.1631 -5.33105 -73.4961 -15.998s-28.833 -26.334 -31.5 -47.001c-2 -13.333 2.83301 -23.833 14.5 -31.5s36.834 -16.834 75.501 -27.501c16.667 -4.66699 29 -8 37 -10
s20 -5.83301 36 -11.5s28 -10.834 36 -15.501s17.667 -11.334 29 -20.001s19.5 -17.834 24.5 -27.501s8.83301 -21.334 11.5 -35.001s3 -28.5 1 -44.5c-3.33301 -21.333 -10.333 -40.666 -21 -57.999s-23.667 -31.666 -39 -42.999s-32.833 -20.833 -52.5 -28.5
s-39.334 -13.167 -59.001 -16.5s-39.834 -5 -60.501 -5c-42.667 0 -82 7.33301 -118 22s-62.667 34.667 -80 60l54 68c12 -19.333 31 -34.166 57 -44.499s54.333 -15.5 85 -15.5c32.667 0 60.5 6.33301 83.5 19s36.167 30 39.5 52
c1.33301 8.66699 0.666016 15.834 -2.00098 21.501s-8 10.834 -16 15.501s-15.5 8.16699 -22.5 10.5s-18.167 5.5 -33.5 9.5l-6 1.5c-1.33301 0.333008 -3 0.833008 -5 1.5l-6 2l-6 2c-66.667 17.333 -112.834 36.666 -138.501 57.999s-35.5 53.333 -29.5 96
c4 26.667 12.833 50 26.5 70s30.5 35.5 50.5 46.5s41.333 19.167 64 24.5s46.667 8 72 8c18 0 35.667 -1.33301 53 -4s34.333 -6.66699 51 -12s32.167 -12.333 46.5 -21s26.833 -19 37.5 -31l-54 -69c-12.667 15.333 -30.834 26.833 -54.501 34.5s-49.167 11.5 -76.5 11.5z
" />
    <glyph glyph-name="Tcedilla" unicode="&#x162;" 
d="M350 0l-21.001 -42.999l7 -3c30 -3.33301 53.167 -14 69.5 -32s22.5 -41 18.5 -69c-4 -29.333 -19 -53.333 -45 -72s-59 -28.334 -99 -29.001c-23.333 -0.666992 -48 2 -74 8s-47.333 13.333 -64 22l32 58c26.667 -11.333 57.334 -17 92.001 -17
c37.333 0 58 14.333 62 43c1.33301 9.33301 -0.166992 16.333 -4.5 21s-12.166 7 -23.499 7c-18.667 0 -37.334 -4 -56.001 -12l-17 41l47 77h-28l84 598h-218l14 102h559l-14 -102h-218l-84 -598h-19z" />
    <glyph glyph-name="tcedilla" unicode="&#x163;" horiz-adv-x="456" 
d="M298 411l-37.998 -266.003c-2.66699 -23.333 1 -39.666 11 -48.999s24.667 -14 44 -14c22 0 47.333 5 76 15l20 -78c-40.667 -22 -83 -33 -127 -33c-7.33301 0 -14 0.333008 -20 1l-14 -30c2.66699 0 4.66699 -0.666992 6 -2c30 -3.33301 53 -14 69 -32
s22.333 -40.667 19 -68c-4.66699 -29.333 -20.167 -53.666 -46.5 -72.999s-59.5 -29.333 -99.5 -30c-23.333 -0.666992 -48 1.83301 -74 7.5s-47 13.167 -63 22.5l33 58c28 -11.333 59 -17 93 -17c36 0 56 13.333 60 40c1.33301 10 -0.333984 17.667 -5.00098 23
s-13 8 -25 8c-18 0 -36.333 -3.66699 -55 -11l-15 40l51 84c-42.667 26.667 -59.334 72.334 -50.001 137.001l37 267h-97l10 71l95 18h5l19 139h113l-20 -139h142l-13 -89h-141z" />
    <glyph glyph-name="Tcaron" unicode="&#x164;" 
d="M358 764l-123 173h120l68 -108l99 108h124l-172 -173h-116zM671 598h-218l-84 -598h-123l84 598h-218l14 102h559z" />
    <glyph glyph-name="tcaron" unicode="&#x165;" horiz-adv-x="456" 
d="M595 659c1.33301 -26 -8.66699 -55.001 -30 -87.001s-47 -58 -77 -78l-40 29c32.667 25.333 57.334 56 74.001 92c-12 0.666992 -22 6.5 -30 17.5s-11 24.5 -9 40.5c2 14 8.66699 25.667 20 35s24 14 38 14c16 0 29.167 -5.66699 39.5 -17s15.166 -26.666 14.499 -45.999
zM310 499.999h141.999l-13 -89h-141l-38 -266c-2 -16 -0.666992 -28.833 4 -38.5s11.167 -16.167 19.5 -19.5s18.833 -5 31.5 -5c22 0 47.333 5 76 15l20 -78c-40.667 -22 -83 -33 -127 -33c-45.333 0 -81.166 13.167 -107.499 39.5s-35.833 65.833 -28.5 118.5l37 267h-97
l10 71l95 18h5l19 139h113z" />
    <glyph glyph-name="Tbar" unicode="&#x166;" 
d="M453 598l-28 -200h106l-13 -96h-106l-43 -302h-123l43 302h-106l13 96h106l28 200h-218l14 102h559l-14 -102h-218z" />
    <glyph glyph-name="tbar" unicode="&#x167;" horiz-adv-x="456" 
d="M298 411l-9.00098 -63h129l-12 -87h-129l-17 -116c-2 -16 -0.666992 -28.833 4 -38.5s11.167 -16.167 19.5 -19.5s18.833 -5 31.5 -5c22 0 47.333 5 76 15l20 -78c-40.667 -22 -83 -33 -127 -33c-45.333 0 -81.166 13.167 -107.499 39.5s-35.833 65.833 -28.5 118.5
l16 117h-93l12 87h94l8 63h-97l10 71l95 18h5l19 139h113l-20 -139h142l-13 -89h-141z" />
    <glyph glyph-name="Utilde" unicode="&#x168;" horiz-adv-x="766" 
d="M445 927c26.667 0 56.666 -14.332 89.999 -42.999c18.667 -15.333 33 -23 43 -23c18.667 0 44 20.333 76 61l52 -46c-12 -15.333 -21 -26.666 -27 -33.999s-14.5 -16.5 -25.5 -27.5s-20.667 -19 -29 -24s-18 -9.5 -29 -13.5s-22.5 -6.33301 -34.5 -7
c-13.333 0 -26 2.5 -38 7.5s-21 9.66699 -27 14s-14.333 11.166 -25 20.499c-18.667 15.333 -33.667 23 -45 23c-18 0 -43 -20.333 -75 -61l-52 47c11.333 14.667 18.833 24.167 22.5 28.5s11.667 13 24 26s22.5 22.167 30.5 27.5s18.333 10.666 31 15.999
s25.334 8 38.001 8zM776.999 700.001l-64.998 -459c-10.667 -74.667 -46.167 -135.834 -106.5 -183.501s-132.5 -71.5 -216.5 -71.5c-86 0 -153.833 24.833 -203.5 74.5s-69.167 111.834 -58.5 186.501l64 453h122l-65 -459c-6.66699 -46 3.16602 -82.333 29.499 -109
s64.5 -40 114.5 -40c53.333 0 98.166 14.333 134.499 43s57.833 66 64.5 112l64 453h122z" />
    <glyph glyph-name="utilde" unicode="&#x169;" horiz-adv-x="587" 
d="M308 635c-17.333 0 -42.001 -20.3281 -74.001 -60.9951l-53 47c1.33301 1.33301 3 3.33301 5 6c7.33301 9.33301 13.333 16.666 18 21.999s11.167 12.666 19.5 21.999s16 16.666 23 21.999s15 10.833 24 16.5s18.167 10 27.5 13s19 4.5 29 4.5
c26.667 0 56.667 -14.333 90 -43c18.667 -15.333 33 -23 43 -23c18.667 0 44 20.333 76 61l53 -46c-15.333 -19.333 -27 -33.333 -35 -42s-18.5 -19 -31.5 -31s-25.833 -20.333 -38.5 -25s-26 -7.33398 -40 -8.00098c-13.333 0 -26.166 2.5 -38.499 7.5
s-21.333 9.66699 -27 14s-14.167 11.166 -25.5 20.499c-18.667 15.333 -33.667 23 -45 23zM591.999 500.005l-70 -500h-112l8 57c-57.333 -47.333 -117 -71 -179 -71c-51.333 0 -91.333 16.333 -120 49s-38.667 80 -30 142l46 323h112l-45 -322
c-8.66699 -61.333 13.333 -92 66 -92c54 0 108.333 21.333 163 64l49 350h112z" />
    <glyph glyph-name="Umacron" unicode="&#x16a;" horiz-adv-x="766" 
d="M661 787h-335l14 95h335zM777 700l-64.998 -460.001c-10.667 -74 -46.167 -134.833 -106.5 -182.5s-132.5 -71.5 -216.5 -71.5c-86 0 -153.833 24.833 -203.5 74.5s-69.167 111.834 -58.5 186.501l64 453h122l-65 -460c-4 -30 -0.833008 -56.167 9.5 -78.5
s27.166 -39.5 50.499 -51.5s51.333 -18 84 -18c53.333 0 98.166 14.333 134.499 43s57.833 66 64.5 112l64 453h122z" />
    <glyph glyph-name="umacron" unicode="&#x16b;" horiz-adv-x="587" 
d="M544 587h-335l13 95h335zM592 500l-70 -500h-112l8 57c-57.333 -47.333 -117 -71 -179 -71c-51.333 0 -91.333 16.333 -120 49s-38.667 80 -30 142l46 323h112l-45 -322c-8.66699 -61.333 13.333 -92 66 -92c54 0 108.333 21.333 163 64l49 350h112z" />
    <glyph glyph-name="Uring" unicode="&#x16e;" horiz-adv-x="766" 
d="M518 997c40.667 0 72.167 -13.167 94.5 -39.5s30.833 -58.5 25.5 -96.5c-5.33301 -34 -21.333 -62.667 -48 -86s-59 -35 -97 -35c-40.667 0 -72.167 13 -94.5 39s-30.833 58 -25.5 96c4.66699 34.667 20.5 63.667 47.5 87s59.5 35 97.5 35zM519 929
c-16.667 0 -31.833 -6.16602 -45.5 -18.499s-21.834 -28.833 -24.501 -49.5c-2 -16.667 0.833008 -29.667 8.5 -39s18.834 -14 33.501 -14c18 0 33.667 6.16699 47 18.5s21.333 28.5 24 48.5c1.33301 11.333 0.333008 21.166 -3 29.499s-8.33301 14.5 -15 18.5s-15 6 -25 6z
M777.001 700.001l-64.999 -459c-10.667 -74.667 -46.167 -135.834 -106.5 -183.501s-132.5 -71.5 -216.5 -71.5c-86 0 -153.833 24.833 -203.5 74.5s-69.167 111.834 -58.5 186.501l64 453h122l-65 -459c-6.66699 -46 3.16602 -82.333 29.499 -109s64.5 -40 114.5 -40
c35.333 0 67.333 6.5 96 19.5s52 31.333 70 55s29 50.5 33 80.5l64 453h122z" />
    <glyph glyph-name="uring" unicode="&#x16f;" horiz-adv-x="587" 
d="M375 540c-26.667 0 -49.8291 5.99902 -69.4961 17.999s-33.834 28.333 -42.501 49s-11.334 43.334 -8.00098 68.001c5.33301 34.667 21.333 63.667 48 87s59 35 97 35c40.667 0 72.167 -13.167 94.5 -39.5s30.833 -58.5 25.5 -96.5
c-4.66699 -34 -20.334 -62.667 -47.001 -86s-59.334 -35 -98.001 -35zM331.005 660.999c-2 -16.667 1 -29.666 9 -38.999s19 -14 33 -14c12 0 23 2.83301 33 8.5s18.333 13.5 25 23.5s11 21.667 13 35c1.33301 11.333 0.5 21.166 -2.5 29.499s-8 14.5 -15 18.5
s-15.167 6 -24.5 6c-11.333 0 -22 -2.66699 -32 -8s-18.5 -13.333 -25.5 -24s-11.5 -22.667 -13.5 -36zM592.005 500l-70 -500h-112l8 57c-57.333 -47.333 -117 -71 -179 -71c-51.333 0 -91.333 16.333 -120 49s-38.667 80 -30 142l46 323h112l-45 -322
c-8.66699 -61.333 13.333 -92 66 -92c54 0 108.333 21.333 163 64l49 350h112z" />
    <glyph glyph-name="Uhungarumlaut" unicode="&#x170;" horiz-adv-x="766" 
d="M445 764h-113l153 173h125zM650 764h-113l154 173h125zM777 700l-64.998 -460.001c-10.667 -74 -46.167 -134.833 -106.5 -182.5s-132.5 -71.5 -216.5 -71.5c-86 0 -153.833 24.833 -203.5 74.5s-69.167 111.834 -58.5 186.501l64 453h122l-65 -460
c-6.66699 -45.333 3.16602 -81.333 29.499 -108s64.5 -40 114.5 -40c53.333 0 98.166 14.333 134.499 43s57.833 66 64.5 112l64 453h122z" />
    <glyph glyph-name="uhungarumlaut" unicode="&#x171;" horiz-adv-x="587" 
d="M327 564h-113l154 173h124zM420 564l153 173h125l-166 -173h-112zM480 500h112l-70 -500h-112l8 57c-57.333 -47.333 -117 -71 -179 -71c-51.333 0 -91.333 16.333 -120 49s-38.667 80 -30 142l46 323h112l-45 -322c-8.66699 -61.333 13.333 -92 66 -92
c54 0 108.333 21.333 163 64z" />
    <glyph glyph-name="Uogonek" unicode="&#x172;" horiz-adv-x="766" 
d="M655 700l122.004 -0.00292969l-65 -460c-6.66699 -46.667 -23.834 -88.667 -51.501 -126s-62.834 -67 -105.501 -89c-52.667 -32 -81.667 -66 -87 -102c-2 -15.333 1.33301 -26.166 10 -32.499s21.334 -9.5 38.001 -9.5c19.333 -0.666992 38.333 3.66602 57 12.999
l19 -68c-28.667 -17.333 -63.334 -26.333 -104.001 -27c-36 0.666992 -65.667 10.334 -89 29.001s-32.666 44 -27.999 76c4 28.667 20.667 56.334 50 83.001c-10.667 -0.666992 -21.334 -1 -32.001 -1c-86 0 -153.833 24.833 -203.5 74.5s-69.167 111.834 -58.5 186.501
l64 453h122l-65 -460c-6.66699 -45.333 3.16602 -81.333 29.499 -108s64.5 -40 114.5 -40c53.333 0 98.166 14.333 134.499 43s57.833 66 64.5 112z" />
    <glyph glyph-name="uogonek" unicode="&#x173;" horiz-adv-x="587" 
d="M463 -134c19.333 -0.666992 38.332 3.33398 56.999 12.001l19 -67c-28.667 -17.333 -63.334 -26.333 -104.001 -27c-36 0 -65.667 9.5 -89 28.5s-32.666 44.5 -27.999 76.5c6 41.333 36.667 79.666 92 114.999l8 53c-57.333 -47.333 -117 -71 -179 -71
c-51.333 0 -91.333 16.333 -120 49s-38.667 80 -30 142l46 323h112l-45 -322c-8.66699 -61.333 13.333 -92 66 -92c54 0 108.333 21.333 163 64l49 350h112l-70 -500h-35c-42.667 -28.667 -66.667 -59.667 -72 -93c-2 -14.667 1.33301 -25.167 10 -31.5
s21.334 -9.5 38.001 -9.5z" />
    <glyph glyph-name="Wcircumflex" unicode="&#x174;" horiz-adv-x="1029" 
d="M539 764h-124l172 173h116l123 -173h-119l-69 108zM1100 700l-280 -700h-152l-75 551l-231 -551h-152l-83 700h130l53 -544l223 544h158l69 -544l207 544h133z" />
    <glyph glyph-name="wcircumflex" unicode="&#x175;" horiz-adv-x="836" 
d="M415 564h-124l172 173h116l123 -173h-119l-69 108zM890 500l-243 -500h-121l-54 370l-160 -370h-121l-102 500h118l62 -367l156 367h126l51 -367l167 367h121z" />
    <glyph glyph-name="Ycircumflex" unicode="&#x176;" horiz-adv-x="709" 
d="M380 764h-124l172 173h116l123 -173h-119l-69 108zM447 245l-34 -245h-122l35 250l-199 450h139l140 -329l232 329h143z" />
    <glyph glyph-name="ycircumflex" unicode="&#x177;" horiz-adv-x="571" 
d="M282 564h-124l172 173h116l123 -173h-119l-69 108zM624 500l-390 -700h-105l110 204l-150 496h120l101 -363l194 363h120z" />
    <glyph glyph-name="Ydieresis" unicode="&#x178;" horiz-adv-x="709" 
d="M362 779c-18.667 0 -33.667 6.83203 -45 20.499s-15.666 29.834 -12.999 48.501c2 15.333 9.33301 28.5 22 39.5s27 16.5 43 16.5c18.667 0 33.667 -6.83301 45 -20.5s15.666 -30.167 12.999 -49.5c-2 -15.333 -9.33301 -28.333 -22 -39s-27 -16 -43 -16zM579 778.999
c-18.667 0 -33.667 6.83203 -45 20.499s-15.666 29.834 -12.999 48.501c2 15.333 9.16699 28.5 21.5 39.5s26.5 16.5 42.5 16.5c18.667 0 33.667 -6.83301 45 -20.5s15.666 -30.167 12.999 -49.5c-2 -15.333 -9.16699 -28.333 -21.5 -39s-26.5 -16 -42.5 -16zM447 244.998
l-34 -245h-122l35 250l-199 450h139l140 -329l232 329h143z" />
    <glyph glyph-name="Zacute" unicode="&#x179;" horiz-adv-x="627" 
d="M475 764h-116l152 173h128zM658 619l-440 -517h377l-15 -102h-533l11 81l439 517h-342l15 102h499z" />
    <glyph glyph-name="zacute" unicode="&#x17a;" horiz-adv-x="490" 
d="M379 564h-116l152 173h128zM510 500l-9 -69l-314 -343h274l-13 -88h-415l9 69l314 343h-250l12 88h392z" />
    <glyph glyph-name="Zdotaccent" unicode="&#x17b;" horiz-adv-x="627" 
d="M429 779c-18.667 0 -33.832 6.83203 -45.499 20.499s-16.167 29.834 -13.5 48.501c2.66699 15.333 10.167 28.5 22.5 39.5s26.5 16.5 42.5 16.5c18.667 0 33.667 -6.83301 45 -20.5s15.666 -30.167 12.999 -49.5c-2 -15.333 -9.33301 -28.333 -22 -39
s-26.667 -16 -42 -16zM658.002 618.999l-440 -517h377l-15 -102h-533l11 81l439 517h-342l15 102h499z" />
    <glyph glyph-name="zdotaccent" unicode="&#x17c;" horiz-adv-x="490" 
d="M333 579c-18.667 0 -33.668 6.83301 -45.001 20.5s-15.666 29.834 -12.999 48.501c2 15.333 9.33301 28.5 22 39.5s27 16.5 43 16.5c12 0 22.833 -3.16699 32.5 -9.5s16.667 -14.833 21 -25.5s5.83301 -22.334 4.5 -35.001c-2 -15.333 -9.33301 -28.333 -22 -39
s-27 -16 -43 -16zM500.999 431l-314 -343h274l-13 -88h-415l9 69l314 343h-250l12 88h392z" />
    <glyph glyph-name="Zcaron" unicode="&#x17d;" horiz-adv-x="627" 
d="M364 764l-123 173h119l69 -108l99 108h124l-172 -173h-116zM658 619l-440 -517h377l-15 -102h-533l11 81l439 517h-342l15 102h499z" />
    <glyph glyph-name="zcaron" unicode="&#x17e;" horiz-adv-x="490" 
d="M269 564l-124 173h120l69 -108l99 108h123l-171 -173h-116zM510 500l-9 -69l-314 -343h274l-13 -88h-415l9 69l314 343h-250l12 88h392z" />
    <glyph glyph-name="florin" unicode="&#x192;" horiz-adv-x="438" 
d="M411 625c-24.667 0 -45.1689 -8.33203 -61.502 -24.999s-26.5 -39.667 -30.5 -69l-15 -106h142l-12 -86h-142l-56 -397c-7.33301 -54 -25.5 -93.833 -54.5 -119.5s-63.833 -38.5 -104.5 -38.5c-21.333 0 -44.666 3 -69.999 9l15 88
c6.66699 -0.666992 14.334 -1 23.001 -1c22 0 40 6.66699 54 20s22.667 32 26 56l54 383h-97l9 68l96 18h4l16 108c2.66699 18.667 6.5 36 11.5 52s10.833 30.333 17.5 43s14.5 24 23.5 34s18.5 18.667 28.5 26s20.667 13.333 32 18s23 8.16699 35 10.5s24.333 3.5 37 3.5
c51.333 0 102.666 -15.667 153.999 -47l-32 -70c-35.333 15.333 -69.666 22.666 -102.999 21.999z" />
    <glyph glyph-name="Ohorn" unicode="&#x1a0;" horiz-adv-x="851" 
d="M808 767l93.9971 20.999c8 -45.333 7.16699 -84 -2.5 -116s-27.167 -55.333 -52.5 -70c-19.333 -11.333 -42.333 -16.666 -69 -15.999c44 -68 59.333 -149 46 -243c-9.33301 -66 -31.666 -126 -66.999 -180s-81.833 -97 -139.5 -129s-120.5 -48 -188.5 -48
c-69.333 0 -129.166 16.667 -179.499 50s-86.166 78.166 -107.499 134.499s-27 118.5 -17 186.5c9.33301 66 31.833 126 67.5 180s82.167 97 139.5 129s120 48 188 48c72.667 0 134.667 -18 186 -54c34.667 -11.333 62 -7.33301 82 12c21.333 20.667 28 52.334 20 95.001z
M699.997 356.999c10.667 72 -0.999023 131.001 -34.999 177.001s-84 69 -150 69c-67.333 0 -125.833 -24.333 -175.5 -73s-79.834 -111 -90.501 -187c-10 -72 2 -131 36 -177s83.333 -69 148 -69c45.333 0 87.166 11.167 125.499 33.5s69.833 53.166 94.5 92.499
s40.334 84 47.001 134z" />
    <glyph glyph-name="ohorn" unicode="&#x1a1;" horiz-adv-x="625" 
d="M596 567l77.999 17.002c11.333 -70 0 -119.333 -34 -148c-18 -14.667 -40.333 -22 -67 -22c29.333 -48.667 39.666 -105.667 30.999 -171c-10.667 -72.667 -42.5 -133.667 -95.5 -183s-117.167 -74 -192.5 -74c-77.333 0 -136.666 26 -177.999 78
s-56.666 116.333 -45.999 193c10 73.333 41.667 134.666 95 183.999s117.333 73.666 192 72.999c55.333 0 102 -14 140 -42c21.333 -2.66699 39.333 2 54 14c22 18 29.667 45 23 81zM489.999 257.002c6.66699 47.333 -0.166992 85.168 -20.5 113.501s-51.5 42.5 -93.5 42.5
c-44.667 0 -82.667 -15.667 -114 -47s-50.333 -72.333 -57 -123c-4 -30.667 -2.33301 -57.834 5 -81.501s20.5 -42 39.5 -55s42.167 -19.5 69.5 -19.5c44.667 0 82.5 15.667 113.5 47s50.167 72.333 57.5 123z" />
    <glyph glyph-name="Uhorn" unicode="&#x1af;" horiz-adv-x="766" 
d="M827 794l94.0029 20.998c9.33301 -78 -7.33398 -131.667 -50.001 -161c-27.333 -19.333 -62 -25.666 -104 -18.999l-55 -395c-10.667 -74 -46.167 -134.833 -106.5 -182.5s-132.5 -71.5 -216.5 -71.5c-86 0 -153.833 24.833 -203.5 74.5s-69.167 111.834 -58.5 186.501
l64 453h122l-65 -459c-6.66699 -46 3.16602 -82.333 29.499 -109s64.5 -40 114.5 -40c53.333 0 98.166 14.333 134.499 43s57.833 66 64.5 112l64 453h108c17.333 0 32 7.33301 44 22c16 18.667 22.667 42.667 20 72z" />
    <glyph glyph-name="uhorn" unicode="&#x1b0;" horiz-adv-x="587" 
d="M636 597l82.001 18.001c11.333 -66.667 2.33301 -115.334 -27 -146.001c-24.667 -26.667 -60.334 -35.667 -107.001 -27l-62 -442h-112l8 57c-57.333 -47.333 -117 -71 -179 -71c-51.333 0 -91.333 16.333 -120 49s-38.667 80 -30 142l46 323h112l-45 -322
c-8.66699 -61.333 13.333 -92 66 -92c54 0 108.333 21.333 163 64l49 350h96c16.667 0 31 7.33301 43 22c16 20 21.667 45 17 75z" />
    <glyph glyph-name="Acaron" unicode="&#x1cd;" horiz-adv-x="738" 
d="M419 764l-123 173h120l68 -108l99 108h124l-172 -173h-116zM709 0h-129l-34 150h-311l-76 -150h-132l371 700h136zM524 251l-73 324l-165 -324h238z" />
    <glyph glyph-name="acaron" unicode="&#x1ce;" 
d="M341 564l-123 173h119l69 -108l99 108h123l-171 -173h-116zM503 500h113l-70 -500h-113l8 53c-53.333 -44.667 -110 -67 -170 -67c-64 0 -113.167 26 -147.5 78s-46.166 116.333 -35.499 193c10 72.667 38.167 133.667 84.5 183s100.166 74 161.499 74
c63.333 0 117 -25.333 161 -76zM292 86c24.667 0 51.8301 6.33105 81.4971 18.998s56.834 30.334 81.501 53.001l27 193c-18 20.667 -39 36.334 -63 47.001s-47.333 16 -70 16c-38 0 -70.167 -15.5 -96.5 -46.5s-43.166 -72.5 -50.499 -124.5
c-7.33301 -48.667 -3.16602 -87 12.501 -115s41.5 -42 77.5 -42z" />
    <glyph glyph-name="Icaron" unicode="&#x1cf;" horiz-adv-x="307" 
d="M492 937l-172 -173h-116l-123 173h119l69 -108l99 108h124zM191 700h122l-99 -700h-122z" />
    <glyph glyph-name="icaron" unicode="&#x1d0;" horiz-adv-x="255" 
d="M439 737l-172 -173h-116l-123 173h119l69 -108l99 108h124zM144 500h112l-70 -500h-112z" />
    <glyph glyph-name="Ocaron" unicode="&#x1d1;" horiz-adv-x="851" 
d="M476 764l-124 173h120l69 -108l98 108h124l-171 -173h-116zM520 714c70 0 129.999 -16.668 179.999 -50.001s85.667 -78 107 -134s27 -118.333 17 -187c-6.66699 -49.333 -21.334 -95.666 -44.001 -138.999s-51 -81.166 -85 -113.499s-74 -57.833 -120 -76.5
s-94.667 -28 -146 -28c-69.333 0 -129.166 16.667 -179.499 50s-86.166 78.166 -107.499 134.499s-27 118.5 -17 186.5c9.33301 66 31.833 126.167 67.5 180.5s82.167 97.333 139.5 129s120 47.5 188 47.5zM699.999 356.999c10.667 72 -1 130.999 -35 176.999
s-84 69 -150 69c-44.667 0 -86 -11.167 -124 -33.5s-69.5 -53.166 -94.5 -92.499s-40.833 -84 -47.5 -134c-10 -72 2 -131 36 -177s83.333 -69 148 -69c68.667 0 127.667 24.5 177 73.5s79.333 111.167 90 186.5z" />
    <glyph glyph-name="ocaron" unicode="&#x1d2;" horiz-adv-x="625" 
d="M335 564l-123 173h119l69 -108l99 108h124l-172 -173h-116zM379 514c77.333 0 136.831 -26.165 178.498 -78.498s57.167 -116.5 46.5 -192.5c-10.667 -72.667 -42.5 -133.667 -95.5 -183s-117.167 -74 -192.5 -74c-77.333 0 -136.666 26.167 -177.999 78.5
s-56.666 116.5 -45.999 192.5c10 73.333 41.667 134.666 95 183.999s117.333 73.666 192 72.999zM489.998 257.002c6.66699 46.667 -0.166992 84.334 -20.5 113.001s-51.5 43 -93.5 43c-44.667 0 -82.667 -15.667 -114 -47s-50.333 -72.333 -57 -123
c-6.66699 -46.667 0.333008 -84.334 21 -113.001s51.667 -43 93 -43c44.667 0 82.5 15.667 113.5 47s50.167 72.333 57.5 123z" />
    <glyph glyph-name="Ucaron" unicode="&#x1d3;" horiz-adv-x="766" 
d="M434 764l-123 173h119l69 -108l99 108h123l-171 -173h-116zM777 700l-64.998 -460.001c-10.667 -74 -46.167 -134.833 -106.5 -182.5s-132.5 -71.5 -216.5 -71.5c-86 0 -153.833 24.833 -203.5 74.5s-69.167 111.834 -58.5 186.501l64 453h122l-65 -460
c-4 -30 -0.833008 -56.167 9.5 -78.5s27.166 -39.5 50.499 -51.5s51.333 -18 84 -18c53.333 0 98.166 14.333 134.499 43s57.833 66 64.5 112l64 453h122z" />
    <glyph glyph-name="ucaron" unicode="&#x1d4;" horiz-adv-x="587" 
d="M316 564l-123 173h119l69 -108l99 108h124l-172 -173h-116zM480 500h112l-70 -500h-112l8 57c-57.333 -47.333 -117 -71 -179 -71c-51.333 0 -91.333 16.333 -120 49s-38.667 80 -30 142l46 323h112l-45 -322c-8.66699 -61.333 13.333 -92 66 -92
c54 0 108.333 21.333 163 64z" />
    <glyph glyph-name="Udieresismacron" unicode="&#x1d5;" horiz-adv-x="766" 
d="M687 967h-335l13 95h335zM396 904c18.667 0 33.832 -6.83398 45.499 -20.501s16.167 -30.167 13.5 -49.5c-2.66699 -15.333 -10.167 -28.333 -22.5 -39s-26.5 -16 -42.5 -16c-18.667 0 -33.667 6.83301 -45 20.5s-15.666 29.834 -12.999 48.501
c2 15.333 9.33301 28.5 22 39.5s26.667 16.5 42 16.5zM612.998 903.999c18.667 0 33.6689 -6.83398 45.002 -20.501s15.666 -30.167 12.999 -49.5c-2 -15.333 -9.33301 -28.333 -22 -39s-26.667 -16 -42 -16c-18.667 0 -33.834 6.83301 -45.501 20.5
s-16.167 29.834 -13.5 48.501c2.66699 15.333 10.167 28.5 22.5 39.5s26.5 16.5 42.5 16.5zM777 699.998l-64.998 -460.001c-10.667 -74 -46.167 -134.833 -106.5 -182.5s-132.5 -71.5 -216.5 -71.5c-86 0 -153.833 24.833 -203.5 74.5s-69.167 111.834 -58.5 186.501
l64 453h122l-65 -460c-6.66699 -45.333 3.16602 -81.333 29.499 -108s64.5 -40 114.5 -40c53.333 0 98.166 14.333 134.499 43s57.833 66 64.5 112l64 453h122z" />
    <glyph glyph-name="udieresismacron" unicode="&#x1d6;" horiz-adv-x="587" 
d="M568 757h-335l13 96h335zM273 579c-18.667 0 -33.834 6.83301 -45.501 20.5s-16.167 29.834 -13.5 48.501c2 15.333 9.33301 28.5 22 39.5s27 16.5 43 16.5c12 0 22.833 -3.16699 32.5 -9.5s16.834 -14.833 21.501 -25.5s6 -22.334 4 -35.001
c-2 -15.333 -9.33301 -28.333 -22 -39s-26.667 -16 -42 -16zM431 648c2 15.333 9.16504 28.5 21.498 39.5s26.5 16.5 42.5 16.5c12.667 0 23.667 -3.16699 33 -9.5s16.333 -14.833 21 -25.5s6.33398 -22.334 5.00098 -35.001c-2.66699 -15.333 -10.167 -28.333 -22.5 -39
s-26.5 -16 -42.5 -16c-18.667 0 -33.667 6.83301 -45 20.5s-15.666 29.834 -12.999 48.501zM591.998 500l-70 -500h-112l8 57c-57.333 -47.333 -117 -71 -179 -71c-51.333 0 -91.333 16.333 -120 49s-38.667 80 -30 142l46 323h112l-45 -322
c-8.66699 -61.333 13.333 -92 66 -92c54 0 108.333 21.333 163 64l49 350h112z" />
    <glyph glyph-name="Udieresisacute" unicode="&#x1d7;" horiz-adv-x="766" 
d="M569 944h-115l152 173h128zM396 904c18.667 0 33.832 -6.83398 45.499 -20.501s16.167 -30.167 13.5 -49.5c-2.66699 -15.333 -10.167 -28.333 -22.5 -39s-26.5 -16 -42.5 -16c-18.667 0 -33.667 6.83301 -45 20.5s-15.666 29.834 -12.999 48.501
c2 15.333 9.33301 28.5 22 39.5s26.667 16.5 42 16.5zM612.998 903.999c18.667 0 33.6689 -6.83398 45.002 -20.501s15.666 -30.167 12.999 -49.5c-2 -15.333 -9.33301 -28.333 -22 -39s-26.667 -16 -42 -16c-18.667 0 -33.834 6.83301 -45.501 20.5
s-16.167 29.834 -13.5 48.501c2.66699 15.333 10.167 28.5 22.5 39.5s26.5 16.5 42.5 16.5zM777 699.998l-64.998 -460.001c-10.667 -74 -46.167 -134.833 -106.5 -182.5s-132.5 -71.5 -216.5 -71.5c-86 0 -153.833 24.833 -203.5 74.5s-69.167 111.834 -58.5 186.501
l64 453h122l-65 -460c-6.66699 -45.333 3.16602 -81.333 29.499 -108s64.5 -40 114.5 -40c53.333 0 98.166 14.333 134.499 43s57.833 66 64.5 112l64 453h122z" />
    <glyph glyph-name="udieresisacute" unicode="&#x1d8;" horiz-adv-x="587" 
d="M452 745h-116l152 173h128zM273 579c-18.667 0 -33.834 6.83301 -45.501 20.5s-16.167 29.834 -13.5 48.501c2 15.333 9.33301 28.5 22 39.5s27 16.5 43 16.5c12 0 22.833 -3.16699 32.5 -9.5s16.834 -14.833 21.501 -25.5s6 -22.334 4 -35.001
c-2 -15.333 -9.33301 -28.333 -22 -39s-26.667 -16 -42 -16zM431 648c2 15.333 9.16504 28.5 21.498 39.5s26.5 16.5 42.5 16.5c12.667 0 23.667 -3.16699 33 -9.5s16.333 -14.833 21 -25.5s6.33398 -22.334 5.00098 -35.001c-2.66699 -15.333 -10.167 -28.333 -22.5 -39
s-26.5 -16 -42.5 -16c-18.667 0 -33.667 6.83301 -45 20.5s-15.666 29.834 -12.999 48.501zM479.998 500h112l-70 -500h-112l8 57c-57.333 -47.333 -117 -71 -179 -71c-51.333 0 -91.333 16.333 -120 49s-38.667 80 -30 142l46 323h112l-45 -322
c-8.66699 -61.333 13.333 -92 66 -92c54 0 108.333 21.333 163 64z" />
    <glyph glyph-name="Udieresiscaron" unicode="&#x1d9;" horiz-adv-x="766" 
d="M459 944l-123 172h119l69 -107l99 107h124l-172 -172h-116zM390 779c-18.667 0 -33.6689 6.83301 -45.002 20.5s-15.666 29.834 -12.999 48.501c2 15.333 9.33301 28.5 22 39.5s26.667 16.5 42 16.5c12.667 0 23.667 -3.16699 33 -9.5s16.333 -14.833 21 -25.5
s6.33398 -22.334 5.00098 -35.001c-2.66699 -15.333 -10.167 -28.333 -22.5 -39s-26.5 -16 -42.5 -16zM547.998 848c1.33301 8 4 15.335 8 22.002s8.83301 12.5 14.5 17.5s12.167 9 19.5 12s15 4.5 23 4.5c12 0 22.833 -3.16699 32.5 -9.5s16.834 -14.833 21.501 -25.5
s6 -22.334 4 -35.001c-2 -15.333 -9.33301 -28.333 -22 -39s-26.667 -16 -42 -16c-12.667 0 -23.667 3.16699 -33 9.5s-16.333 14.666 -21 24.999s-6.33398 21.833 -5.00098 34.5zM776.998 700.002l-64.998 -460.001c-10.667 -74 -46.167 -134.833 -106.5 -182.5
s-132.5 -71.5 -216.5 -71.5c-86 0 -153.833 24.833 -203.5 74.5s-69.167 111.834 -58.5 186.501l64 453h122l-65 -459c-6.66699 -46 3.16602 -82.333 29.499 -109s64.5 -40 114.5 -40c53.333 0 98.166 14.333 134.499 43s57.833 66 64.5 112l64 453h122z" />
    <glyph glyph-name="udieresiscaron" unicode="&#x1da;" horiz-adv-x="587" 
d="M342 745l-124 173h120l69 -108l98 108h124l-171 -173h-116zM273 579c-18.667 0 -33.834 6.83301 -45.501 20.5s-16.167 29.834 -13.5 48.501c2 15.333 9.33301 28.5 22 39.5s27 16.5 43 16.5c12 0 22.833 -3.16699 32.5 -9.5s16.834 -14.833 21.501 -25.5
s6 -22.334 4 -35.001c-2 -15.333 -9.33301 -28.333 -22 -39s-26.667 -16 -42 -16zM431 648c2 15.333 9.16504 28.5 21.498 39.5s26.5 16.5 42.5 16.5c12.667 0 23.667 -3.16699 33 -9.5s16.333 -14.833 21 -25.5s6.33398 -22.334 5.00098 -35.001
c-2.66699 -15.333 -10.167 -28.333 -22.5 -39s-26.5 -16 -42.5 -16c-18.667 0 -33.667 6.83301 -45 20.5s-15.666 29.834 -12.999 48.501zM479.998 500h112l-70 -500h-112l8 57c-57.333 -47.333 -117 -71 -179 -71c-51.333 0 -91.333 16.333 -120 49s-38.667 80 -30 142
l46 323h112l-45 -322c-8.66699 -61.333 13.333 -92 66 -92c54 0 108.333 21.333 163 64z" />
    <glyph glyph-name="Udieresisgrave" unicode="&#x1db;" horiz-adv-x="766" 
d="M571 944h-112l-115 173h123zM396 904c18.667 0 33.832 -6.83398 45.499 -20.501s16.167 -30.167 13.5 -49.5c-2.66699 -15.333 -10.167 -28.333 -22.5 -39s-26.5 -16 -42.5 -16c-18.667 0 -33.667 6.83301 -45 20.5s-15.666 29.834 -12.999 48.501
c2 15.333 9.33301 28.5 22 39.5s26.667 16.5 42 16.5zM612.998 903.999c18.667 0 33.6689 -6.83398 45.002 -20.501s15.666 -30.167 12.999 -49.5c-2 -15.333 -9.33301 -28.333 -22 -39s-26.667 -16 -42 -16c-18.667 0 -33.834 6.83301 -45.501 20.5
s-16.167 29.834 -13.5 48.501c2.66699 15.333 10.167 28.5 22.5 39.5s26.5 16.5 42.5 16.5zM777 699.998l-64.999 -460.002c-10.667 -74 -46.167 -134.833 -106.5 -182.5s-132.5 -71.5 -216.5 -71.5c-86 0 -153.833 24.833 -203.5 74.5s-69.167 111.834 -58.5 186.501
l64 453h122l-65 -460c-2.66699 -18 -2.5 -34.833 0.5 -50.5s8.33301 -29.5 16 -41.5s17.667 -22.167 30 -30.5s26.833 -14.666 43.5 -18.999s34.667 -6.5 54 -6.5c53.333 0 98.166 14.333 134.499 43s57.833 66 64.5 112l64 453h122z" />
    <glyph glyph-name="udieresisgrave" unicode="&#x1dc;" horiz-adv-x="587" 
d="M342 745l-116 173h124l104 -173h-112zM273 579c-18.667 0 -33.834 6.83301 -45.501 20.5s-16.167 29.834 -13.5 48.501c2 15.333 9.33301 28.5 22 39.5s27 16.5 43 16.5c12 0 22.833 -3.16699 32.5 -9.5s16.834 -14.833 21.501 -25.5s6 -22.334 4 -35.001
c-2 -15.333 -9.33301 -28.333 -22 -39s-26.667 -16 -42 -16zM431 648c2 15.333 9.16504 28.5 21.498 39.5s26.5 16.5 42.5 16.5c12.667 0 23.667 -3.16699 33 -9.5s16.333 -14.833 21 -25.5s6.33398 -22.334 5.00098 -35.001c-2.66699 -15.333 -10.167 -28.333 -22.5 -39
s-26.5 -16 -42.5 -16c-18.667 0 -33.667 6.83301 -45 20.5s-15.666 29.834 -12.999 48.501zM591.998 500l-70 -500h-112l8 57c-57.333 -47.333 -117 -71 -179 -71c-51.333 0 -91.333 16.333 -120 49s-38.667 80 -30 142l46 323h112l-45 -322
c-8.66699 -61.333 13.333 -92 66 -92c54 0 108.333 21.333 163 64l49 350h112z" />
    <glyph glyph-name="Scommaaccent" unicode="&#x218;" horiz-adv-x="639" 
d="M419 714c51.333 0 98 -8.32812 140 -24.9951s77.333 -39 106 -67l-75 -78c-44.667 40 -103.667 60 -177 60c-92 0 -143 -34 -153 -102c-3.33301 -22.667 3.33398 -39.834 20.001 -51.501s56 -26.5 118 -44.5c2 -0.666992 4.33301 -1.33398 7 -2.00098
c20.667 -5.33301 36.334 -9.5 47.001 -12.5s25.5 -8 44.5 -15s33.667 -13.667 44 -20s22.166 -15 35.499 -26s23 -22.667 29 -35s10.667 -27.166 14 -44.499s3.66602 -36.333 0.999023 -57c-4.66699 -35.333 -16.834 -66.833 -36.501 -94.5s-43.667 -49.5 -72 -65.5
s-58.166 -28 -89.499 -36s-63 -12 -95 -12c-54.667 0 -106.5 11.167 -155.5 33.5s-85.833 51.833 -110.5 88.5l76 74c18.667 -28 46.167 -49.667 82.5 -65s73.5 -22.666 111.5 -21.999c43.333 -0.666992 80.333 8.66602 111 27.999s48.334 45.666 53.001 78.999
c1.33301 11.333 0.5 21.166 -2.5 29.499s-6.83301 15.333 -11.5 21s-13 11.167 -25 16.5s-22.5 9.5 -31.5 12.5s-23.5 7.5 -43.5 13.5c-3.33301 0.666992 -5.83301 1.33398 -7.5 2.00098s-4 1.33398 -7 2.00098s-5.83301 1.33398 -8.5 2.00098
c-45.333 13.333 -81.833 25.666 -109.5 36.999s-51.334 25 -71.001 41s-32.667 34.5 -39 55.5s-7.5 46.167 -3.5 75.5c4.66699 29.333 13.5 55.666 26.5 78.999s28.5 42.666 46.5 57.999s38.833 28.166 62.5 38.499s47.667 17.666 72 21.999s49.833 6.5 76.5 6.5z
M307 -55.9951c16 0.666992 28.999 -4.83105 38.999 -16.498s15 -26.834 15 -45.501c0.666992 -26 -9.5 -55 -30.5 -87s-46.833 -58.333 -77.5 -79l-39 29c32.667 26 57.334 56.667 74.001 92c-12 0.666992 -22 6.66699 -30 18s-11 24.666 -9 39.999
c2 14 8.5 25.833 19.5 35.5s23.833 14.167 38.5 13.5z" />
    <glyph glyph-name="scommaaccent" unicode="&#x219;" horiz-adv-x="493" 
d="M313 514c24 0 47.3311 -2.33105 69.998 -6.99805s44.5 -12.167 65.5 -22.5s38.5 -23.166 52.5 -38.499l-54 -69c-12.667 15.333 -30.834 26.833 -54.501 34.5s-49.167 11.5 -76.5 11.5c-20 0 -37.5 -2.33301 -52.5 -7s-27 -11.667 -36 -21s-14.5 -20.833 -16.5 -34.5
s2.83301 -24.334 14.5 -32.001s36.834 -16.834 75.501 -27.501c16.667 -4.66699 29 -8 37 -10s20 -5.83301 36 -11.5s28 -10.834 36 -15.501s17.667 -11.334 29 -20.001s19.5 -17.834 24.5 -27.501s8.83301 -21.334 11.5 -35.001s3 -28.5 1 -44.5
c-3.33301 -21.333 -10.333 -40.666 -21 -57.999s-23.667 -31.666 -39 -42.999s-32.833 -20.833 -52.5 -28.5s-39.334 -13.167 -59.001 -16.5s-39.834 -5 -60.501 -5c-42.667 0 -82 7.33301 -118 22s-62.667 34.667 -80 60l54 68c12 -19.333 31 -34.166 57 -44.499
s54.333 -15.5 85 -15.5c32.667 0 60.5 6.33301 83.5 19s36.167 30 39.5 52c2 4 2.16699 7.83301 0.5 11.5s-2.5 6.66699 -2.5 9s-1.66699 4.83301 -5 7.5s-5.66602 4.83398 -6.99902 6.50098s-4.5 3.5 -9.5 5.5s-8.83301 3.66699 -11.5 5s-7 2.83301 -13 4.5
s-10.833 3.16699 -14.5 4.5s-9 2.83301 -16 4.5s-13.167 3.5 -18.5 5.5c-26.667 6.66699 -49 13.167 -67 19.5s-34.5 13.833 -49.5 22.5s-26.333 18.167 -34 28.5s-13.167 22.333 -16.5 36s-3.66602 29.5 -0.999023 47.5c3.33301 22 9.83301 41.5 19.5 58.5
s21.334 31.167 35.001 42.5s29.334 20.666 47.001 27.999s35.667 12.5 54 15.5s37.5 4.5 57.5 4.5zM232.998 -55.998c16 0.666992 28.999 -4.83105 38.999 -16.498s15 -26.834 15 -45.501c1.33301 -26 -8.66699 -55 -30 -87s-47 -58.333 -77 -79l-40 29
c32.667 26 57.334 56.667 74.001 92c-12 0.666992 -22 6.66699 -30 18s-11 24.666 -9 39.999c2 14 8.66699 25.833 20 35.5s24 14.167 38 13.5z" />
    <glyph glyph-name="uni021A" unicode="&#x21a;" 
d="M671 598h-218l-84 -598h-123l84 598h-218l14 102h559zM299 -56c16 0.666992 28.999 -4.83105 38.999 -16.498s15 -26.834 15 -45.501c0.666992 -26 -9.5 -55 -30.5 -87s-46.833 -58.333 -77.5 -79l-39 29c32.667 26 57.334 56.667 74.001 92
c-12 0.666992 -22 6.66699 -30 18s-11 24.666 -9 39.999c2 14 8.5 25.833 19.5 35.5s23.833 14.167 38.5 13.5z" />
    <glyph glyph-name="uni021B" unicode="&#x21b;" horiz-adv-x="456" 
d="M298 411l-38.001 -266c-2 -16 -0.666992 -28.833 4 -38.5s11.167 -16.167 19.5 -19.5s18.833 -5 31.5 -5c22 0 47.333 5 76 15l20 -78c-40.667 -22 -83 -33 -127 -33c-45.333 0 -81.166 13.167 -107.499 39.5s-35.833 65.833 -28.5 118.5l37 267h-97l10 71l95 18h5
l19 139h113l-20 -139h142l-13 -89h-141zM217.999 -56c16 0.666992 29.167 -4.83105 39.5 -16.498s15.166 -26.834 14.499 -45.501c1.33301 -26 -8.66699 -55 -30 -87s-47 -58.333 -77 -79l-40 29c32.667 26 57.334 56.667 74.001 92c-12 0.666992 -22 6.66699 -30 18
s-11 24.666 -9 39.999c2 14 8.66699 25.833 20 35.5s24 14.167 38 13.5z" />
    <glyph glyph-name="circumflex" unicode="&#x2c6;" horiz-adv-x="487" 
d="M407 564l-68 108l-99 -108h-124l172 173h116l123 -173h-120z" />
    <glyph glyph-name="caron" unicode="&#x2c7;" horiz-adv-x="487" 
d="M553 737l-171 -173h-116l-124 173h120l69 -108l99 108h123z" />
    <glyph glyph-name="breve" unicode="&#x2d8;" horiz-adv-x="450" 
d="M422 733h92.998c-6 -46.667 -28.667 -85.834 -68 -117.501s-86.666 -47.5 -141.999 -47.5s-98.166 15.833 -128.499 47.5s-42.166 70.834 -35.499 117.501h94c-3.33301 -24 2.66699 -43.333 18 -58s36.666 -22 63.999 -22s50.833 7.33301 70.5 22s31.167 34 34.5 58z" />
    <glyph glyph-name="dotaccent" unicode="&#x2d9;" horiz-adv-x="193" 
d="M190 704c12 0 22.832 -3.16699 32.499 -9.5s16.667 -14.833 21 -25.5s5.83301 -22.334 4.5 -35.001c-2 -15.333 -9.33301 -28.333 -22 -39s-27 -16 -43 -16c-18.667 0 -33.667 6.83301 -45 20.5s-15.666 29.834 -12.999 48.501c2 15.333 9.33301 28.5 22 39.5
s27 16.5 43 16.5z" />
    <glyph glyph-name="ring" unicode="&#x2da;" horiz-adv-x="348" 
d="M280 797c41.333 0 73.001 -13.167 95.001 -39.5s30.333 -58.5 25 -96.5c-4.66699 -34 -20.334 -62.667 -47.001 -86s-59 -35 -97 -35c-40.667 0 -72.167 13 -94.5 39s-30.833 58 -25.5 96c4.66699 34.667 20.5 63.667 47.5 87s59.167 35 96.5 35zM282.001 729
c-17.333 0 -32.666 -6.16797 -45.999 -18.501s-21.333 -28.833 -24 -49.5c-2.66699 -16.667 0 -29.667 8 -39s19.333 -14 34 -14c17.333 0 32.666 6.16699 45.999 18.5s21.333 28.5 24 48.5c2.66699 16.667 0 29.834 -8 39.501s-19.333 14.5 -34 14.5z" />
    <glyph glyph-name="ogonek" unicode="&#x2db;" horiz-adv-x="306" 
d="M135 7l73.999 -1.99805c-54.667 -32.667 -84.667 -67.334 -90 -104.001c-4 -29.333 12.667 -44 50 -44c18.667 0 37 4 55 12l18 -66c-29.333 -18 -64.666 -27 -105.999 -27c-35.333 0 -64.5 9.16699 -87.5 27.5s-32.167 43.166 -27.5 74.499
c6.66699 48 44.667 91 114 129z" />
    <glyph glyph-name="tilde" unicode="&#x2dc;" horiz-adv-x="475" 
d="M271 727c26.667 0 56.668 -14.3301 90.001 -42.9971c18.667 -15.333 33 -23 43 -23c18.667 0 44 20.333 76 61l52 -46c-15.333 -19.333 -26.833 -33.333 -34.5 -42s-18 -19 -31 -31s-25.833 -20.333 -38.5 -25s-26.334 -7.33398 -41.001 -8.00098
c-12.667 0 -25.167 2.5 -37.5 7.5s-21.333 9.66699 -27 14s-14.167 11.166 -25.5 20.499c-18.667 15.333 -33.667 23 -45 23c-18 0 -42.667 -20.333 -74 -61l-53 47c12 14.667 19.833 24.167 23.5 28.5s11.5 13 23.5 26s22.167 22.167 30.5 27.5s18.833 10.666 31.5 15.999
s25 8 37 8z" />
    <glyph glyph-name="hungarumlaut" unicode="&#x2dd;" horiz-adv-x="533" 
d="M229 564h-113l153 173h125zM434 564h-113l154 173h125z" />
    <glyph glyph-name="dotbelowcomb" unicode="&#x323;" horiz-adv-x="0" 
d="M82 -63c18.667 0 33.6689 -6.83301 45.002 -20.5s15.666 -29.834 12.999 -48.501c-2 -16 -9.33301 -29.333 -22 -40s-26.667 -16 -42 -16c-18.667 0 -33.834 6.83301 -45.501 20.5s-16.167 29.834 -13.5 48.501c2 16 9.33301 29.333 22 40s27 16 43 16z" />
    <glyph glyph-name="uni0326" unicode="&#x326;" horiz-adv-x="0" 
d="M81 -56c16 0.666992 28.999 -4.83105 38.999 -16.498s15 -26.834 15 -45.501c1.33301 -26 -8.66699 -55 -30 -87s-47.333 -58.333 -78 -79l-39 29c32.667 26 57.334 56.667 74.001 92c-12 0.666992 -22 6.66699 -30 18s-11 24.666 -9 39.999c2 14 8.5 25.833 19.5 35.5
s23.833 14.167 38.5 13.5z" />
    <glyph glyph-name="uni032D" unicode="&#x32d;" horiz-adv-x="0" 
d="M296 -226l-68 107l-99 -107h-124l172 172h116l123 -172h-120z" />
    <glyph glyph-name="uni0331" unicode="&#x331;" horiz-adv-x="0" 
d="M348 -173h-334l13 96h335z" />
    <glyph glyph-name="Delta" unicode="&#x394;" horiz-adv-x="600" 
 />
    <glyph glyph-name="Omega" unicode="&#x3a9;" horiz-adv-x="600" 
 />
    <glyph glyph-name="mu" unicode="&#x3bc;" horiz-adv-x="600" 
 />
    <glyph glyph-name="pi" unicode="&#x3c0;" horiz-adv-x="600" 
 />
    <glyph glyph-name="Wgrave" unicode="&#x1e80;" horiz-adv-x="1029" 
d="M677 764h-112l-115 173h123zM820 0h-152l-75 551l-231 -551h-152l-83 700h130l53 -544l223 544h158l69 -544l207 544h133z" />
    <glyph glyph-name="wgrave" unicode="&#x1e81;" horiz-adv-x="836" 
d="M553 564h-112l-115 173h123zM647 0h-121l-54 370l-160 -370h-121l-102 500h118l62 -367l156 367h126l51 -367l167 367h121z" />
    <glyph glyph-name="Wacute" unicode="&#x1e82;" horiz-adv-x="1029" 
d="M676 764h-116l152 173h128zM820 0h-152l-75 551l-231 -551h-152l-83 700h130l53 -544l223 544h158l69 -544l207 544h133z" />
    <glyph glyph-name="wacute" unicode="&#x1e83;" horiz-adv-x="836" 
d="M551 564h-116l152 173h128zM647 0h-121l-54 370l-160 -370h-121l-102 500h118l62 -367l156 367h126l51 -367l167 367h121z" />
    <glyph glyph-name="Wdieresis" unicode="&#x1e84;" horiz-adv-x="1029" 
d="M528 904c18.667 0 33.6689 -6.83398 45.002 -20.501s15.666 -30.167 12.999 -49.5c-2 -15.333 -9.33301 -28.333 -22 -39s-26.667 -16 -42 -16c-18.667 0 -33.834 6.83301 -45.501 20.5s-16.167 29.834 -13.5 48.501c2 15.333 9.33301 28.5 22 39.5s27 16.5 43 16.5z
M744.002 903.999c18.667 0 33.667 -6.83398 45 -20.501s15.666 -30.167 12.999 -49.5c-2 -15.333 -9.16699 -28.333 -21.5 -39s-26.5 -16 -42.5 -16c-18.667 0 -33.667 6.83301 -45 20.5s-15.666 29.834 -12.999 48.501c2 15.333 9.16699 28.5 21.5 39.5
s26.5 16.5 42.5 16.5zM820.002 -0.00195312h-152l-75 551l-231 -551h-152l-83 700h130l53 -544l223 544h158l69 -544l207 544h133z" />
    <glyph glyph-name="wdieresis" unicode="&#x1e85;" horiz-adv-x="836" 
d="M403 704c12.667 0 23.665 -3.16699 32.998 -9.5s16.333 -14.833 21 -25.5s6.33398 -22.334 5.00098 -35.001c-2.66699 -15.333 -10.167 -28.333 -22.5 -39s-26.5 -16 -42.5 -16c-18.667 0 -33.667 6.83301 -45 20.5s-15.666 29.834 -12.999 48.501
c2 15.333 9.33301 28.5 22 39.5s26.667 16.5 42 16.5zM619.998 704c18.667 0 33.667 -6.83398 45 -20.501s15.666 -30.167 12.999 -49.5c-1.33301 -10 -5.16602 -19.167 -11.499 -27.5s-14.166 -15 -23.499 -20s-19 -7.5 -29 -7.5c-18.667 0 -33.834 6.83301 -45.501 20.5
s-16.167 29.834 -13.5 48.501c2.66699 15.333 10.167 28.5 22.5 39.5s26.5 16.5 42.5 16.5zM646.998 -0.000976562h-121l-54 370l-160 -370h-121l-102 500h118l62 -367l156 367h126l51 -367l167 367h121z" />
    <glyph glyph-name="Adotbelow" unicode="&#x1ea0;" horiz-adv-x="738" 
d="M709 0h-129l-34 150h-311l-76 -150h-132l371 700h136zM286 251h238l-73 324zM354 -63c18.667 0 33.832 -6.83301 45.499 -20.5s16.167 -29.834 13.5 -48.501c-2.66699 -16 -10.167 -29.333 -22.5 -40s-26.5 -16 -42.5 -16c-18.667 0 -33.667 6.83301 -45 20.5
s-15.666 29.834 -12.999 48.501c2 16 9.33301 29.333 22 40s26.667 16 42 16z" />
    <glyph glyph-name="adotbelow" unicode="&#x1ea1;" 
d="M616 500l-70 -500h-113l8 53c-53.333 -44.667 -110 -67 -170 -67c-64 0 -113.167 26 -147.5 78s-46.166 116.333 -35.499 193c10 72.667 38.167 133.667 84.5 183s100.166 74 161.499 74c63.333 0 117 -25.333 161 -76l8 62h113zM292 86
c16 0 33.3311 2.83203 51.998 8.49902s37.667 14 57 25s37.333 23.833 54 38.5l27 193c-18 20.667 -39 36.334 -63 47.001s-47.333 16 -70 16c-38 0 -70.167 -15.5 -96.5 -46.5s-43.166 -72.5 -50.499 -124.5c-7.33301 -48.667 -3.16602 -87 12.501 -115s41.5 -42 77.5 -42z
M303.998 -63.001c18.667 0 33.667 -6.83301 45 -20.5s15.666 -29.834 12.999 -48.501c-2 -16 -9.33301 -29.333 -22 -40s-27 -16 -43 -16c-18.667 0 -33.667 6.83301 -45 20.5s-15.666 29.834 -12.999 48.501c2 16 9.33301 29.333 22 40s27 16 43 16z" />
    <glyph glyph-name="Ahookabove" unicode="&#x1ea2;" horiz-adv-x="738" 
d="M543 995c38 0 66.999 -7.66992 86.999 -23.0029s27.333 -42.333 22 -81c-4 -27.333 -13.167 -47.5 -27.5 -60.5s-39.833 -27.833 -76.5 -44.5c-8 -3.33301 -13.833 -6.16602 -17.5 -8.49902s-7.16699 -5.16602 -10.5 -8.49902s-5.33301 -7.33301 -6 -12h-83
c2 14.667 5.66699 27.5 11 38.5s12.5 20.333 21.5 28s17.333 13.5 25 17.5s17.834 9 30.501 15c18 7.33301 30.167 13.833 36.5 19.5s9.83301 11.834 10.5 18.501c1.33301 8 -1.33398 13.833 -8.00098 17.5s-16.667 5.5 -30 5.5c-19.333 0 -42.666 -3.66699 -69.999 -11
l-26 68c34 14 71 21 111 21zM709.999 -0.00292969h-131l-34 150h-311l-76 -150h-130l371 700h136zM284.999 250.997h238l-73 324z" />
    <glyph glyph-name="ahookabove" unicode="&#x1ea3;" 
d="M430 677c18 8 30.167 14.834 36.5 20.501s9.83301 11.834 10.5 18.501c1.33301 8 -1.33398 13.833 -8.00098 17.5s-16.667 5.5 -30 5.5c-19.333 0 -42.666 -3.66699 -69.999 -11l-27 67c34.667 14 72 21 112 21c38 0 67 -7.5 87 -22.5s27.333 -41.833 22 -80.5
c-4 -27.333 -13.167 -47.5 -27.5 -60.5s-39.833 -27.833 -76.5 -44.5c-12 -5.33301 -20.333 -9.83301 -25 -13.5s-8 -9.16699 -10 -16.5h-83c2.66699 15.333 6.66699 28.5 12 39.5s12.333 20.167 21 27.5s17 13.166 25 17.499s18.333 9.16602 31 14.499zM616 500.001
l-70.002 -500.002h-113l8 58c-55.333 -48 -113.666 -72 -174.999 -72c-62.667 0 -110.834 25.333 -144.501 76s-45.167 113.334 -34.5 188.001s39.834 137.334 87.501 188.001s102.834 76 165.501 76c61.333 0 113 -24 155 -72l8 58h113zM297.998 85.999
c23.333 0 49.167 5.83301 77.5 17.5s54.833 28.5 79.5 50.5l27 192c-18.667 22 -40.5 38.833 -65.5 50.5s-49.167 17.5 -72.5 17.5c-37.333 0 -68.5 -14.833 -93.5 -44.5s-41 -69.5 -48 -119.5s-2.16699 -89.833 14.5 -119.5s43.667 -44.5 81 -44.5z" />
    <glyph glyph-name="Acircumflexacute" unicode="&#x1ea4;" horiz-adv-x="738" 
d="M954 998l-164 -173h-116l152 173h128zM394 764h-124l171 173h116l124 -173h-120l-69 108zM534 700l175 -700h-129l-34 150h-311l-76 -150h-132l371 700h136zM524 251l-73 324l-165 -324h238z" />
    <glyph glyph-name="acircumflexacute" unicode="&#x1ea5;" 
d="M875 798l-164 -173h-116l152 173h128zM315 564h-124l172 173h116l123 -173h-119l-69 108zM503 500h113l-70 -500h-113l8 53c-53.333 -44.667 -110 -67 -170 -67c-64 0 -113.167 26.167 -147.5 78.5s-46.166 116.5 -35.499 192.5c10 72.667 38.167 133.667 84.5 183
s100.166 74 161.499 74c63.333 0 117 -25.333 161 -76zM292 86c24.667 0 51.834 6.33203 81.501 18.999s56.834 30.334 81.501 53.001l27 193c-8.66699 10 -18.667 19.167 -30 27.5s-22.833 15 -34.5 20s-23.334 8.83301 -35.001 11.5s-22.834 4 -33.501 4
c-38 0 -70.333 -15.5 -97 -46.5s-43.667 -72.5 -51 -124.5c-6.66699 -48.667 -2.16699 -87 13.5 -115s41.5 -42 77.5 -42z" />
    <glyph glyph-name="Acircumflexgrave" unicode="&#x1ea6;" horiz-adv-x="738" 
d="M826 825h-112l-115 173h123zM394 764h-124l171 173h116l124 -173h-120l-69 108zM534 700l175 -700h-129l-34 150h-311l-76 -150h-132l371 700h136zM524 251l-73 324l-165 -324h238z" />
    <glyph glyph-name="acircumflexgrave" unicode="&#x1ea7;" 
d="M747 625h-111l-116 173h124zM315 564h-124l172 173h116l123 -173h-119l-69 108zM503 500h113l-70 -500h-113l8 53c-53.333 -44.667 -110 -67 -170 -67c-64 0 -113.167 26.167 -147.5 78.5s-46.166 116.5 -35.499 192.5c10 72.667 38.167 133.667 84.5 183
s100.166 74 161.499 74c63.333 0 117 -25.333 161 -76zM292 86c24.667 0 51.8311 6.33105 81.498 18.998s56.834 30.334 81.501 53.001l27 193c-18 20.667 -39 36.334 -63 47.001s-47.333 16 -70 16c-25.333 0 -48.333 -7.16699 -69 -21.5s-37.667 -34.333 -51 -60
s-22.666 -55.5 -27.999 -89.5c-6.66699 -48.667 -2.16699 -87 13.5 -115s41.5 -42 77.5 -42z" />
    <glyph glyph-name="Acircumflexhookabove" unicode="&#x1ea8;" horiz-adv-x="738" 
d="M793 1036c38.667 0 67.9961 -7.66699 87.9961 -23s27.333 -42.333 22 -81c-4 -27.333 -13.167 -47.5 -27.5 -60.5s-39.833 -27.5 -76.5 -43.5c-12 -5.33301 -20.333 -10 -25 -14s-8 -9.33301 -10 -16h-83c2 12 5.16699 22.833 9.5 32.5s8.83301 17.667 13.5 24
s11 12.333 19 18s15.167 10 21.5 13s14.833 6.83301 25.5 11.5c17.333 8 29.333 14.667 36 20s10.334 11.333 11.001 18c0.666992 8 -2.16602 13.833 -8.49902 17.5s-16.166 5.5 -29.499 5.5c-19.333 0 -42.666 -3.66699 -69.999 -11l-27 68c34.667 14 71.667 21 111 21z
M392.996 764h-122l172 173h115l124 -173h-122l-69 108zM534.996 700l175 -700h-131l-34 150h-311l-76 -150h-130l371 700h136zM522.996 251l-73 324l-165 -324h238z" />
    <glyph glyph-name="acircumflexhookabove" unicode="&#x1ea9;" 
d="M715 836c38 0 66.999 -7.66602 86.999 -22.999s27.333 -42.333 22 -81c-4 -27.333 -13.167 -47.5 -27.5 -60.5s-39.5 -27.5 -75.5 -43.5c-12 -5.33301 -20.5 -10 -25.5 -14s-8.16699 -9.33301 -9.5 -16h-83c2 14.667 5.66699 27.5 11 38.5s12.5 20.333 21.5 28
s17.333 13.667 25 18s17.834 9.16602 30.501 14.499c18 8 30.167 14.667 36.5 20s9.83301 11.333 10.5 18c1.33301 8 -1.33398 13.833 -8.00098 17.5s-16.667 5.5 -30 5.5c-19.333 0 -42.666 -3.66699 -69.999 -11l-26 68c34 14 71 21 111 21zM313.999 564.001h-122l172 173
h116l123 -173h-122l-68 108zM502.999 500.001l112.998 -0.00195312l-70 -500h-113l8 58c-55.333 -48 -113.666 -72 -174.999 -72c-62.667 0 -110.834 25.333 -144.501 76s-45.167 113.334 -34.5 188.001s39.834 137.334 87.501 188.001s102.834 76 165.501 76
c61.333 0 113 -24 155 -72zM297.997 85.999c15.333 0 31.667 2.5 49 7.5s35.5 12.667 54.5 23s36.833 22.833 53.5 37.5l27 192c-18.667 22 -40.5 38.833 -65.5 50.5s-49.167 17.5 -72.5 17.5c-37.333 0 -68.5 -14.833 -93.5 -44.5s-41 -69.5 -48 -119.5
s-2.16699 -89.833 14.5 -119.5s43.667 -44.5 81 -44.5z" />
    <glyph glyph-name="Acircumflextilde" unicode="&#x1eaa;" horiz-adv-x="738" 
d="M438 1020c-18 0 -42.999 -20.332 -74.999 -60.999l-53 47c1.33301 1.33301 3 3.33301 5 6c12 14.667 21.667 26.167 29 34.5s17.5 18.333 30.5 30s26.333 20.5 40 26.5s27.5 9 41.5 9c26.667 0 56.667 -14 90 -42c18.667 -16 33 -24 43 -24
c19.333 0 44.666 20.333 75.999 61l53 -46c-15.333 -19.333 -27 -33.333 -35 -42s-18.5 -19 -31.5 -31s-25.667 -20.333 -38 -25s-25.833 -7.33398 -40.5 -8.00098c-13.333 0 -26.166 2.66699 -38.499 8s-21.333 10 -27 14s-13.834 10.667 -24.501 20
c-19.333 15.333 -34.333 23 -45 23zM392.001 764.001h-121l172 173h115l124 -173h-122l-69 108zM535.001 700.001l175 -700h-131l-34 150h-311l-76 -150h-130l371 700h136zM523.001 251.001l-73 324l-165 -324h238z" />
    <glyph glyph-name="acircumflextilde" unicode="&#x1eab;" 
d="M359 820c-18 0 -43 -20.3311 -75 -60.998l-52 47c11.333 14.667 19 24.167 23 28.5l24 26c12 13 22.167 22.167 30.5 27.5s18.666 10.666 30.999 15.999s24.833 8 37.5 8c26.667 0 56.667 -14 90 -42c18.667 -16 33 -24 43 -24c18.667 0 44 20.333 76 61l52 -46
c-15.333 -19.333 -27 -33.333 -35 -42s-18.333 -19 -31 -31s-25.334 -20.333 -38.001 -25s-26.334 -7.33398 -41.001 -8.00098c-13.333 0 -26.166 2.66699 -38.499 8s-21.166 10 -26.499 14s-13.666 10.667 -24.999 20c-18.667 15.333 -33.667 23 -45 23zM314 564.002h-122
l172 173h116l123 -173h-122l-68 108zM503 500.002l112.998 -0.00195312l-70 -500h-113l8 58c-55.333 -48 -113.666 -72 -174.999 -72c-62.667 0 -110.834 25.333 -144.501 76s-45.167 113.334 -34.5 188.001s39.834 137.334 87.501 188.001s102.834 76 165.501 76
c61.333 0 113 -24 155 -72zM297.998 86c23.333 0 49.168 5.83105 77.501 17.498s54.833 28.5 79.5 50.5l27 192c-9.33301 11.333 -19.833 21.333 -31.5 30s-23.5 15.667 -35.5 21s-24 9.5 -36 12.5s-23.667 4.5 -35 4.5c-24.667 0 -46.834 -6.83301 -66.501 -20.5
s-36 -32.667 -49 -57s-21.833 -53.166 -26.5 -86.499s-4 -62.166 2 -86.499s16.833 -43.333 32.5 -57s36.167 -20.5 61.5 -20.5z" />
    <glyph glyph-name="Acircumflexdotbelow" unicode="&#x1eac;" horiz-adv-x="738" 
d="M394 764h-124l171 173h116l124 -173h-120l-69 108zM709 0h-129l-34 150h-311l-76 -150h-132l371 700h136zM524 251l-73 324l-165 -324h238zM354 -63c18.667 0 33.832 -6.83301 45.499 -20.5s16.167 -29.834 13.5 -48.501c-2.66699 -16 -10.167 -29.333 -22.5 -40
s-26.5 -16 -42.5 -16c-18.667 0 -33.667 6.83301 -45 20.5s-15.666 29.834 -12.999 48.501c2 16 9.33301 29.333 22 40s26.667 16 42 16z" />
    <glyph glyph-name="acircumflexdotbelow" unicode="&#x1ead;" 
d="M315 564h-124l172 173h116l123 -173h-119l-69 108zM616 500l-70 -500h-113l8 53c-53.333 -44.667 -110 -67 -170 -67c-64 0 -113.167 26 -147.5 78s-46.166 116.333 -35.499 193c10 72.667 38.167 133.667 84.5 183s100.166 74 161.499 74c63.333 0 117 -25.333 161 -76
l8 62h113zM292 86c16 0 33.3311 2.83203 51.998 8.49902s37.667 14 57 25s37.333 23.833 54 38.5l27 193c-18 20.667 -39 36.334 -63 47.001s-47.333 16 -70 16c-38 0 -70.167 -15.5 -96.5 -46.5s-43.166 -72.5 -50.499 -124.5c-7.33301 -48.667 -3.16602 -87 12.501 -115
s41.5 -42 77.5 -42zM303.998 -63.001c18.667 0 33.667 -6.83301 45 -20.5s15.666 -29.834 12.999 -48.501c-2 -16 -9.33301 -29.333 -22 -40s-27 -16 -43 -16c-18.667 0 -33.667 6.83301 -45 20.5s-15.666 29.834 -12.999 48.501c2 16 9.33301 29.333 22 40s27 16 43 16z
" />
    <glyph glyph-name="Abreveacute" unicode="&#x1eae;" horiz-adv-x="738" 
d="M553 938h-114l153 173h125zM593 933l93.9971 0.000976562c-6.66699 -46.667 -29.5 -85.834 -68.5 -117.501s-86.167 -47.5 -141.5 -47.5s-98.166 15.833 -128.499 47.5s-42.166 70.834 -35.499 117.501h93c-3.33301 -24 2.83398 -43.333 18.501 -58s37.167 -22 64.5 -22
c18 0 34.333 3.16699 49 9.5s27 15.666 37 27.999s16 26.5 18 42.5zM708.997 0.000976562h-130l-33 150h-311l-76 -150h-132l372 700h136zM284.997 251.001h238l-73 324z" />
    <glyph glyph-name="abreveacute" unicode="&#x1eaf;" 
d="M475 738h-114l152 173h126zM398 568c-55.333 0 -98.166 15.832 -128.499 47.499s-42.166 70.834 -35.499 117.501h94c-2 -16 0.166992 -30.167 6.5 -42.5s16.166 -21.666 29.499 -27.999s28.666 -9.5 45.999 -9.5c27.333 0 50.833 7.33301 70.5 22s31.167 34 34.5 58h94
c-6.66699 -46.667 -29.5 -85.834 -68.5 -117.501s-86.5 -47.5 -142.5 -47.5zM503 499.999l112.998 -0.00195312l-70 -500h-113l8 58c-55.333 -48 -113.666 -72 -174.999 -72c-62.667 0 -110.834 25.333 -144.501 76s-45.167 113.334 -34.5 188.001
s39.834 137.334 87.501 188.001s102.834 76 165.501 76c61.333 0 113 -24 155 -72zM297.998 85.9971c23.333 0 49.168 5.83203 77.501 17.499s54.833 28.5 79.5 50.5l27 192c-18.667 22 -40.5 38.833 -65.5 50.5s-49.167 17.5 -72.5 17.5
c-24.667 0 -46.834 -6.83301 -66.501 -20.5s-36 -32.667 -49 -57s-21.833 -53.166 -26.5 -86.499c-6.66699 -50 -1.66699 -89.833 15 -119.5s43.667 -44.5 81 -44.5z" />
    <glyph glyph-name="Abrevegrave" unicode="&#x1eb0;" horiz-adv-x="738" 
d="M557 938h-114l-116 173h126zM593 933l93.9971 0.000976562c-6.66699 -46.667 -29.5 -85.834 -68.5 -117.501s-86.167 -47.5 -141.5 -47.5s-98.166 15.833 -128.499 47.5s-42.166 70.834 -35.499 117.501h93c-3.33301 -24 2.83398 -43.333 18.501 -58s37.167 -22 64.5 -22
c18 0 34.333 3.16699 49 9.5s27 15.666 37 27.999s16 26.5 18 42.5zM709.997 0.000976562h-131l-34 150h-311l-76 -150h-130l371 700h136zM284.997 251.001h238l-73 324z" />
    <glyph glyph-name="abrevegrave" unicode="&#x1eb1;" 
d="M364 738l-115 173h126l103 -173h-114zM398 568c-55.333 0 -98.166 15.832 -128.499 47.499s-42.166 70.834 -35.499 117.501h94c-2 -16 0.166992 -30.167 6.5 -42.5s16.166 -21.666 29.499 -27.999s28.666 -9.5 45.999 -9.5c27.333 0 50.833 7.33301 70.5 22
s31.167 34 34.5 58h94c-6.66699 -46.667 -29.5 -85.834 -68.5 -117.501s-86.5 -47.5 -142.5 -47.5zM616 499.999l-70.002 -500.002h-113l8 58c-55.333 -48 -113.666 -72 -174.999 -72c-62.667 0 -110.834 25.333 -144.501 76s-45.167 113.334 -34.5 188.001
s39.834 137.334 87.501 188.001s102.834 76 165.501 76c61.333 0 113 -24 155 -72l8 58h113zM297.998 85.9971c15.333 0 31.667 2.5 49 7.5s35.5 12.667 54.5 23s36.833 22.833 53.5 37.5l27 192c-12.667 14.667 -27 27.167 -43 37.5s-32 18 -48 23s-31.667 7.5 -47 7.5
c-37.333 0 -68.5 -14.833 -93.5 -44.5s-41 -69.5 -48 -119.5s-2.16699 -89.833 14.5 -119.5s43.667 -44.5 81 -44.5z" />
    <glyph glyph-name="Abrevehookabove" unicode="&#x1eb2;" horiz-adv-x="738" 
d="M551 1153c38 0 67.168 -7.66797 87.501 -23.001s27.833 -42.333 22.5 -81c-4 -26.667 -13.333 -46.667 -28 -60s-40 -28 -76 -44c-12 -5.33301 -20.333 -10 -25 -14s-8 -9.33301 -10 -16h-83c2 12 5.16699 22.833 9.5 32.5s8.83301 17.667 13.5 24s11 12.333 19 18
s15.167 10 21.5 13s14.833 6.83301 25.5 11.5c17.333 8 29.166 14.667 35.499 20s10.166 11.333 11.499 18c0.666992 8.66699 -2.16602 14.834 -8.49902 18.501s-16.5 5.5 -30.5 5.5c-18.667 0 -42 -4 -70 -12l-26 68c34.667 14 71.667 21 111 21zM593.001 932.999
l94.002 0.000976562c-6.66699 -46.667 -29.5 -85.834 -68.5 -117.501s-86.167 -47.5 -141.5 -47.5c-36.667 0 -68.334 7.33301 -95.001 22s-46 34.5 -58 59.5s-15.667 52.833 -11 83.5h93c-3.33301 -24 2.83398 -43.333 18.501 -58s37.167 -22 64.5 -22
s50.666 7.33301 69.999 22s30.666 34 33.999 58zM710.003 0h-131l-34 150h-311l-76 -150h-130l371 700h136zM285.003 251h238l-73 324z" />
    <glyph glyph-name="abrevehookabove" unicode="&#x1eb3;" 
d="M449 814c18 8 30.168 14.667 36.501 20s9.83301 11.333 10.5 18c0.666992 6 -0.333008 10.667 -3 14s-7 5.83301 -13 7.5s-13.333 2.5 -22 2.5c-19.333 0 -42.666 -4 -69.999 -12l-26 68c34 14 71 21 111 21c38 0 67 -7.66699 87 -23s27.333 -42.333 22 -81
c-2 -14 -5.33301 -26 -10 -36s-11.834 -19 -21.501 -27s-19.334 -14.667 -29.001 -20s-24.167 -12.333 -43.5 -21c-11.333 -5.33301 -19.5 -10 -24.5 -14s-8.16699 -9.33301 -9.5 -16h-83c2 12 5 22.833 9 32.5s8.5 17.667 13.5 24s11.5 12.333 19.5 18s15.167 10 21.5 13
s14.5 6.83301 24.5 11.5zM398.001 568c-55.333 0 -98.166 15.832 -128.499 47.499s-42.166 70.834 -35.499 117.501h94c-2 -16 0.166992 -30.167 6.5 -42.5s16.166 -21.666 29.499 -27.999s28.666 -9.5 45.999 -9.5c27.333 0 50.833 7.33301 70.5 22s31.167 34 34.5 58h94
c-6.66699 -46.667 -29.5 -85.834 -68.5 -117.501s-86.5 -47.5 -142.5 -47.5zM616.001 499.999l-70.002 -500.002h-113l8 58c-55.333 -48 -113.666 -72 -174.999 -72c-62.667 0 -110.834 25.333 -144.501 76s-45.167 113.334 -34.5 188.001s39.834 137.334 87.501 188.001
s102.834 76 165.501 76c61.333 0 113 -24 155 -72l8 58h113zM297.999 85.9971c23.333 0 49.168 5.83203 77.501 17.499s54.833 28.5 79.5 50.5l27 192c-18.667 22 -40.5 38.833 -65.5 50.5s-49.167 17.5 -72.5 17.5c-24.667 0 -46.834 -6.83301 -66.501 -20.5
s-36 -32.667 -49 -57s-21.833 -53.166 -26.5 -86.499c-6.66699 -50 -1.66699 -89.833 15 -119.5s43.667 -44.5 81 -44.5z" />
    <glyph glyph-name="Abrevetilde" unicode="&#x1eb4;" horiz-adv-x="738" 
d="M456 1112c26.667 0 56.667 -14 90 -42c18.667 -16 33 -24 43 -24c19.333 0 44.666 20.667 75.999 62l53 -47c-12.667 -15.333 -22 -26.666 -28 -33.999s-14.5 -16.5 -25.5 -27.5s-20.5 -19 -28.5 -24s-17.667 -9.5 -29 -13.5s-22.666 -6.33301 -33.999 -7
c-10 0 -19.333 1.16699 -28 3.5s-17.167 6.16602 -25.5 11.499s-14.5 9.33301 -18.5 12s-10 7.66699 -18 15c-19.333 15.333 -34.333 23 -45 23c-18 0 -43 -20.333 -75 -61l-53 47c1.33301 1.33301 3 3.33301 5 6c12 14.667 21.667 26.167 29 34.5s17.5 18.5 30.5 30.5
s26.333 20.833 40 26.5s27.5 8.5 41.5 8.5zM593 933l94 -0.000976562c-6.66699 -46.667 -29.5 -85.834 -68.5 -117.501s-86.167 -47.5 -141.5 -47.5s-98.166 15.833 -128.499 47.5s-42.166 70.834 -35.499 117.501h93c-2 -16 0.333008 -30.167 7 -42.5
s16.5 -21.666 29.5 -27.999s28.5 -9.5 46.5 -9.5c27.333 0 50.666 7.33301 69.999 22s30.666 34 33.999 58zM710 -0.000976562h-131l-34 150h-311l-76 -150h-130l371 700h136zM285 250.999h238l-73 324z" />
    <glyph glyph-name="abrevetilde" unicode="&#x1eb5;" 
d="M358 813c-18 0.666992 -43.001 -19.667 -75.001 -61l-52 47c11.333 14.667 19 24.334 23 29.001s12 13.334 24 26.001s22.167 21.667 30.5 27s18.666 10.666 30.999 15.999s24.833 8 37.5 8c26.667 0 56.667 -14 90 -42c18.667 -16 33 -23.667 43 -23
c18.667 -0.666992 44 19.666 76 60.999l52 -47c-15.333 -19.333 -26.833 -33.333 -34.5 -42s-18 -19 -31 -31s-25.833 -20.333 -38.5 -25s-26.334 -7 -41.001 -7c-13.333 0 -26.166 2.5 -38.499 7.5s-21.166 9.5 -26.499 13.5s-13.666 10.667 -24.999 20
c-18.667 16 -33.667 23.667 -45 23zM233.999 732.999l94 -0.000976562c-2 -16 0.166992 -30.167 6.5 -42.5s16.166 -21.666 29.499 -27.999s28.666 -9.5 45.999 -9.5c27.333 0 50.833 7.33301 70.5 22s31.167 34 34.5 58h94c-6.66699 -46.667 -29.5 -85.834 -68.5 -117.501
s-86.5 -47.5 -142.5 -47.5c-55.333 0 -98.166 15.833 -128.499 47.5s-42.166 70.834 -35.499 117.501zM502.999 499.998l112.998 -0.00195312l-70 -500h-113l8 58c-55.333 -48 -113.666 -72 -174.999 -72c-62.667 0 -110.834 25.333 -144.501 76
s-45.167 113.334 -34.5 188.001s39.834 137.334 87.501 188.001s102.834 76 165.501 76c61.333 0 113 -24 155 -72zM297.997 85.9961c23.333 0 49.167 5.83203 77.5 17.499s54.833 28.5 79.5 50.5l27 192c-18.667 22 -40.5 38.833 -65.5 50.5s-49.167 17.5 -72.5 17.5
c-37.333 0 -68.5 -14.833 -93.5 -44.5s-41.167 -69.5 -48.5 -119.5c-4.66699 -33.333 -4 -62.166 2 -86.499s16.833 -43.333 32.5 -57s36.167 -20.5 61.5 -20.5z" />
    <glyph glyph-name="Abrevedotbelow" unicode="&#x1eb6;" horiz-adv-x="738" 
d="M593 933l94.002 0.000976562c-6.66699 -46.667 -29.5 -85.834 -68.5 -117.501s-86.167 -47.5 -141.5 -47.5c-36.667 0 -68.334 7.33301 -95.001 22s-46 34.5 -58 59.5s-15.667 52.833 -11 83.5h93c-3.33301 -24 2.83398 -43.333 18.501 -58s37.167 -22 64.5 -22
s50.666 7.33301 69.999 22s30.666 34 33.999 58zM709.002 0.000976562h-129l-34 150h-311l-76 -150h-132l371 700h136zM286.002 251.001h238l-73 324zM354.002 -62.999c18.667 0 33.832 -6.83301 45.499 -20.5s16.167 -29.834 13.5 -48.501
c-2.66699 -16 -10.167 -29.333 -22.5 -40s-26.5 -16 -42.5 -16c-18.667 0 -33.667 6.83301 -45 20.5s-15.666 29.834 -12.999 48.501c2 16 9.33301 29.333 22 40s26.667 16 42 16z" />
    <glyph glyph-name="abrevedotbelow" unicode="&#x1eb7;" 
d="M398 568c-55.333 0 -98.1699 15.833 -128.503 47.5s-42.166 70.834 -35.499 117.501h94c-3.33301 -24 2.83398 -43.333 18.501 -58s36.834 -22 63.501 -22c27.333 0 50.833 7.33301 70.5 22s31.167 34 34.5 58h94c-6.66699 -46.667 -29.5 -85.834 -68.5 -117.501
s-86.5 -47.5 -142.5 -47.5zM615.996 500l-70 -500h-113l8 53c-53.333 -44.667 -110 -67 -170 -67c-64 0 -113.167 26 -147.5 78s-46.166 116.333 -35.499 193c10 72.667 38.167 133.667 84.5 183s100.166 74 161.499 74c63.333 0 117 -25.333 161 -76l8 62h113zM291.996 86
c24.667 0 51.8311 6.33203 81.498 18.999s56.834 30.334 81.501 53.001l27 193c-18 20.667 -39 36.334 -63 47.001s-47.333 16 -70 16c-25.333 0 -48.333 -7 -69 -21s-37.667 -33.833 -51 -59.5s-22.333 -55.834 -27 -90.501c-7.33301 -48.667 -3.16602 -87 12.501 -115
s41.5 -42 77.5 -42zM303.993 -63.001c18.667 0 33.667 -6.83203 45 -20.499s15.666 -29.834 12.999 -48.501c-1.33301 -10.667 -5.16602 -20.167 -11.499 -28.5s-14.166 -15 -23.499 -20s-19.333 -7.5 -30 -7.5c-12 0 -22.833 3.16699 -32.5 9.5
s-16.834 14.833 -21.501 25.5s-6 22 -4 34c2 16 9.33301 29.333 22 40s27 16 43 16z" />
    <glyph glyph-name="Edotbelow" unicode="&#x1eb8;" horiz-adv-x="628" 
d="M298 598l-25 -181h317l-14 -101h-317l-30 -214h366l-15 -102h-488l99 700h478l-15 -102h-356zM322 -63c18.667 0 33.6689 -6.83301 45.002 -20.5s15.666 -29.834 12.999 -48.501c-2 -16 -9.33301 -29.333 -22 -40s-26.667 -16 -42 -16
c-18.667 0 -33.834 6.83301 -45.501 20.5s-16.167 29.834 -13.5 48.501c2.66699 16 10.167 29.333 22.5 40s26.5 16 42.5 16z" />
    <glyph glyph-name="edotbelow" unicode="&#x1eb9;" horiz-adv-x="586" 
d="M375 514c50.667 0 92.3311 -11.668 124.998 -35.001s55.167 -55 67.5 -95s14.5 -86.333 6.5 -139c-0.666992 -7.33301 -2 -15 -4 -23h-366v-8c0 -40 10.5 -71.667 31.5 -95s50.167 -35 87.5 -35c50 0 105 14.667 165 44l16 -74
c-65.333 -45.333 -132.666 -68 -201.999 -68c-73.333 0 -129.5 25.333 -168.5 76s-53.167 113.334 -42.5 188.001c10.667 75.333 42.334 138.333 95.001 189s115.667 75.667 189 75zM363.997 415.999c-34 0 -63.832 -10.332 -89.499 -30.999s-44.5 -48.334 -56.5 -83.001
h250c-0.666992 76 -35.334 114 -104.001 114zM288.998 -63c18.667 0 33.832 -6.83301 45.499 -20.5s16.167 -29.834 13.5 -48.501c-2.66699 -16 -10.167 -29.333 -22.5 -40s-26.5 -16 -42.5 -16c-18.667 0 -33.667 6.83301 -45 20.5s-15.666 29.834 -12.999 48.501
c2 16 9.33301 29.333 22 40s26.667 16 42 16z" />
    <glyph glyph-name="Ehookabove" unicode="&#x1eba;" horiz-adv-x="628" 
d="M488 856c17.333 7.33301 29.3281 13.833 35.9951 19.5s10.334 11.834 11.001 18.501c0.666992 8 -2.16602 13.833 -8.49902 17.5s-16.166 5.5 -29.499 5.5c-19.333 0 -42.666 -3.66699 -69.999 -11l-27 68c34.667 14 71.667 21 111 21c38.667 0 68 -7.66699 88 -23
s27.333 -42.333 22 -81c-4 -27.333 -13.167 -47.5 -27.5 -60.5s-39.833 -27.833 -76.5 -44.5c-12 -5.33301 -20.333 -9.83301 -25 -13.5s-8 -8.83398 -10 -15.501h-83c2.66699 14.667 6.66699 27.5 12 38.5s12.333 20.333 21 28s16.834 13.5 24.501 17.5s18.167 9 31.5 15z
M297.995 598l-25 -181h317l-14 -101h-317l-30 -214h366l-15 -102h-488l99 700h478l-15 -102h-356z" />
    </font>
</defs>
</svg>
