<?xml version="1.0" standalone="no"?>
<!DOCTYPE svg PUBLIC "-//W3C//DTD SVG 1.1//EN" "http://www.w3.org/Graphics/SVG/1.1/DTD/svg11.dtd" >
<svg xmlns="http://www.w3.org/2000/svg" xmlns:xlink="http://www.w3.org/1999/xlink" version="1.1">
<metadata>
Created by FontForge 20170910 at Thu Jul  9 17:31:36 2015
 By Jimmy Wärting
Copyright (c) 2015 by Jonathan Hill. All rights reserved.
</metadata>
<defs>
<font id="Halcom-Bold" horiz-adv-x="856" >
  <font-face 
    font-family="Halcom-Bold"
    font-weight="400"
    font-stretch="normal"
    units-per-em="1000"
    panose-1="0 0 8 0 0 0 0 0 0 0"
    ascent="768"
    descent="-232"
    x-height="500"
    cap-height="700"
    bbox="-81 -308.002 1368 1155"
    underline-thickness="50"
    underline-position="-50"
    unicode-range="U+0020-FB02"
  />
<missing-glyph horiz-adv-x="500" 
d="M0 0v700h500v-700h-500zM250 395l170 255h-340zM280 350l170 -255v510zM80 50h340l-170 255zM50 605v-510l170 255z" />
    <glyph glyph-name="fi" unicode="fi" horiz-adv-x="683" 
d="M630 500l0.00195312 -500.001h-140v399h-221v-399h-140v399h-96v81l93 20h3v32c0 64.667 15.667 113.334 47 146.001s72.666 49 123.999 49c55.333 0 112.666 -16 171.999 -48l-32 -88c-39.333 16 -74 24 -104 24c-20.667 0 -37 -6.66699 -49 -20s-18 -33.333 -18 -60
v-35h272h89z" />
    <glyph glyph-name="fl" unicode="fl" horiz-adv-x="836" 
d="M129 500v14c0 70.667 17 124 51 160s79.333 53.667 136 53c50 0 102.333 -13 157 -39l-33 -96c-36.667 13.333 -69 20 -97 20c-24 0 -42.333 -7.66699 -55 -23s-19 -38 -19 -68v-21h135v-108h-135v-392h-140v392h-96v88l93 20h3zM760 106l33.999 -91.001
c-40.667 -19.333 -80 -29 -118 -29c-45.333 0 -82.666 13.833 -111.999 41.5s-44 69.834 -44 126.501v546h140v-529c0 -48 21 -71.667 63 -71c10.667 0 23 2 37 6z" />
    <glyph glyph-name=".notdef" horiz-adv-x="500" 
d="M0 0v700h500v-700h-500zM250 395l170 255h-340zM280 350l170 -255v510zM80 50h340l-170 255zM50 605v-510l170 255z" />
    <glyph glyph-name="space" unicode=" " horiz-adv-x="245" 
 />
    <glyph glyph-name="exclam" unicode="!" horiz-adv-x="271" 
d="M198 218h-125l-17 482h159zM135.5 162c23 0 42.667 -8.16699 59 -24.5s24.5 -36 24.5 -59s-8.16699 -42.667 -24.5 -59s-36 -24.5 -59 -24.5s-42.667 8.16699 -59 24.5s-24.5 36 -24.5 59s8.16699 42.667 24.5 59s36 24.5 59 24.5z" />
    <glyph glyph-name="quotedbl" unicode="&#x22;" horiz-adv-x="434" 
d="M167 475h-105l-17 275h139zM372 475h-105l-17 275h139z" />
    <glyph glyph-name="numbersign" unicode="#" horiz-adv-x="675" 
d="M525 402l-19 -109h109l-21 -117h-109l-31 -176h-126l31 176h-104l-31 -176h-126l31 176h-104l21 117h104l19 109h-104l21 117h104l32 181h125l-31 -181h104l32 181h125l-31 -181h109l-21 -117h-109zM399 402h-104l-19 -109h104z" />
    <glyph glyph-name="dollar" unicode="$" horiz-adv-x="632" 
d="M597 205c0 -32 -5.99805 -61.002 -17.998 -87.002s-28.5 -47.5 -49.5 -64.5s-43.833 -30.667 -68.5 -41s-51.334 -17.5 -80.001 -21.5v-108h-125v108c-44 7.33301 -85.333 21 -124 41s-69.334 44.667 -92.001 74l84 94c21.333 -26 50.333 -46.667 87 -62
s73.667 -23 111 -23c25.333 0 47.166 3.66699 65.499 11s32.333 17.333 42 30s14.5 27.334 14.5 44.001c0.666992 26 -12.666 45.333 -39.999 58c-15.333 7.33301 -48.666 18 -99.999 32c-30.667 8.66699 -56.167 16.334 -76.5 23.001s-40.666 14.5 -60.999 23.5
s-36.5 18.167 -48.5 27.5s-22.833 20.5 -32.5 33.5s-16.667 27.5 -21 43.5s-6.5 34.333 -6.5 55c0 62 18.167 110.5 54.5 145.5s84.166 57.167 143.499 66.5v109h125v-106c81.333 -9.33301 148.666 -38 201.999 -86l-81 -99c-48.667 38.667 -107 58 -175 58
c-74.667 0 -113.334 -27 -116.001 -81c-0.666992 -19.333 7.5 -34.333 24.5 -45s55.833 -24 116.5 -40l9 -3c20 -5.33301 35.333 -9.5 46 -12.5s25.667 -8 45 -15s34.5 -13.833 45.5 -20.5s23.667 -15.5 38 -26.5s25.333 -22.5 33 -34.5s14.334 -26.833 20.001 -44.5
s8.5 -36.5 8.5 -56.5z" />
    <glyph glyph-name="percent" unicode="%" horiz-adv-x="966" 
d="M230 718c38.667 0 72.833 -8.83301 102.5 -26.5s52.5 -41.5 68.5 -71.5s24 -63 24 -99c0 -56 -18 -102.833 -54 -140.5s-83 -56.5 -141 -56.5c-57.333 0 -104.166 18.833 -140.499 56.5s-54.5 84.5 -54.5 140.5s18.167 102.833 54.5 140.5s83.166 56.5 140.499 56.5z
M333.999 -14h-131l419 728h131zM228.999 615c-14.667 0.666992 -28 -2.83105 -40 -10.498s-21.333 -18.834 -28 -33.501s-10 -31.334 -10 -50.001c0 -28.667 7.5 -51.667 22.5 -69s33.833 -26 56.5 -26c23.333 0 42.333 8.66699 57 26s22 40.333 22 69
c0 18.667 -3.33301 35.167 -10 49.5s-16 25.333 -28 33s-26 11.5 -42 11.5zM735.999 380.002c58 0 105 -18.833 141 -56.5s54 -84.5 54 -140.5s-18 -102.833 -54 -140.5s-83 -56.5 -141 -56.5s-105 19 -141 57s-54 84.667 -54 140c0 56 18 103 54 141s83 56.667 141 56z
M734.999 278.002c-22.667 0 -41.5 -8.66699 -56.5 -26s-22.5 -40.333 -22.5 -69s7.5 -51.667 22.5 -69s34.167 -26 57.5 -26c22.667 0 41.5 8.66699 56.5 26s22.5 40.333 22.5 69s-7.5 51.667 -22.5 69s-34.167 26 -57.5 26z" />
    <glyph glyph-name="ampersand" unicode="&#x26;" horiz-adv-x="758" 
d="M703 22l-0.000976562 -22.002h-167l-27 29c-50.667 -28.667 -110 -43 -178 -43c-51.333 0 -97.666 8.33301 -138.999 25s-74.5 41.667 -99.5 75s-37.5 72.666 -37.5 117.999c0 83.333 40 143 120 179l-13 14c-28.667 30 -43 70 -43 120c0 58.667 19.5 106.167 58.5 142.5
s89.833 54.5 152.5 54.5c62 0 111.667 -17.667 149 -53s56 -81 56 -137c0 -23.333 -3.33301 -43.666 -10 -60.999s-17.167 -32.666 -31.5 -45.999s-29.5 -24.666 -45.5 -33.999s-36.667 -19.666 -62 -30.999l88 -91l6 69h134v-126c0 -26.667 -4.66699 -51.334 -14 -74.001z
M328.999 590.998c-24 0 -42.333 -6.33301 -55 -19s-19 -31 -19 -55c0 -18.667 5.33301 -33.667 16 -45l28 -29l20 8c34 14.667 56.333 26.5 67 35.5s16 20.167 16 33.5c0.666992 21.333 -5 38.5 -17 51.5s-30.667 19.5 -56 19.5zM329.999 109.998
c33.333 0 61.667 6.33301 85 19l-150 158l-23 -10c-28.667 -14 -43 -37 -43 -69c0 -30.667 11.833 -54.667 35.5 -72s55.5 -26 95.5 -26z" />
    <glyph glyph-name="quotesingle" unicode="'" horiz-adv-x="229" 
d="M167 475h-105l-17 275h139z" />
    <glyph glyph-name="parenleft" unicode="(" horiz-adv-x="394" 
d="M291 779l54.001 -72.999c-46 -55.333 -81.667 -120.666 -107 -195.999s-38 -156 -38 -242c0 -86.667 12.667 -167.834 38 -243.501s61.666 -140.834 108.999 -195.501l-54 -73c-70 52 -124.667 123.167 -164 213.5s-59 189.833 -59 298.5s19.5 208 58.5 298
s93.167 161 162.5 213z" />
    <glyph glyph-name="parenright" unicode=")" horiz-adv-x="394" 
d="M49 706l54.001 72.999c46 -34 85.667 -77.167 119 -129.5s58.666 -111 75.999 -176s26 -133.5 26 -205.5c0 -108.667 -19.667 -208.167 -59 -298.5s-94 -161.5 -164 -213.5l-53 73c46.667 54.667 82.667 119.834 108 195.501s38 156.834 38 243.501
c0 86 -12.5 166.667 -37.5 242s-60.833 140.666 -107.5 195.999z" />
    <glyph glyph-name="asterisk" unicode="*" horiz-adv-x="469" 
d="M283 586l126 50l35 -107l-132 -34l87 -105l-91 -66l-73 114l-74 -114l-91 66l87 105l-132 34l35 107l127 -50l-9 136h113z" />
    <glyph glyph-name="plus" unicode="+" horiz-adv-x="559" 
d="M524 235h-188v-188h-113v188h-188v113h188v188h113v-188h188v-113z" />
    <glyph glyph-name="comma" unicode="," horiz-adv-x="270" 
d="M136 162c22.667 0 41.835 -7.49805 57.502 -22.498s25.5 -35.167 29.5 -60.5c6 -39.333 -3.33301 -81.333 -28 -126s-57 -81.334 -97 -110.001l-58 36c41.333 34.667 69.666 73.667 84.999 117c-20.667 2.66699 -38 11.667 -52 27s-21 33.666 -21 54.999
c0 24 8.16699 44 24.5 60s36.166 24 59.499 24z" />
    <glyph glyph-name="hyphen" unicode="-" horiz-adv-x="420" 
d="M380 234h-340v114h340v-114z" />
    <glyph glyph-name="period" unicode="." horiz-adv-x="244" 
d="M122 162c23.333 0 43 -8.16699 59 -24.5s24 -36.166 24 -59.499c0 -14.667 -3.66699 -28.5 -11 -41.5s-17.333 -23.167 -30 -30.5s-26.667 -11 -42 -11c-23.333 0 -43.166 8.16699 -59.499 24.5s-24.5 35.833 -24.5 58.5c0 23.333 8.16699 43.166 24.5 59.499
s36.166 24.5 59.499 24.5z" />
    <glyph glyph-name="slash" unicode="/" horiz-adv-x="517" 
d="M155 -14h-138l342 728h137z" />
    <glyph glyph-name="zero" unicode="0" horiz-adv-x="737" 
d="M369 694c61.333 0 115.833 -15.832 163.5 -47.499s84.167 -74.334 109.5 -128.001s38 -113.167 38 -178.5s-12.667 -124.833 -38 -178.5s-61.833 -96.334 -109.5 -128.001s-102.167 -47.5 -163.5 -47.5s-115.833 15.833 -163.5 47.5s-84.167 74.334 -109.5 128.001
s-38 113.167 -38 178.5s12.667 125 38 179s61.833 96.833 109.5 128.5s102.167 47.167 163.5 46.5zM368 563.001c-30 0 -56.833 -8.83301 -80.5 -26.5s-42.334 -43.5 -56.001 -77.5s-20.5 -73.667 -20.5 -119c0 -67.333 14.667 -121.333 44 -162s67.333 -61 114 -61
s84.5 20.167 113.5 60.5s43.5 94.5 43.5 162.5c0 34 -3.83301 64.833 -11.5 92.5s-18.5 51 -32.5 70s-30.667 33.833 -50 44.5s-40.666 16 -63.999 16z" />
    <glyph glyph-name="one" unicode="1" horiz-adv-x="513" 
d="M345 123h128v-123h-421v123h144v388l-109 -52l-57 111l231 110h84v-557z" />
    <glyph glyph-name="two" unicode="2" horiz-adv-x="611" 
d="M556 123l-0.00292969 -122.998h-513v128c0 18.667 2.33301 36 7 52s10.334 30.167 17.001 42.5s16.167 24.333 28.5 36s23.666 21.5 33.999 29.5s24.166 16.5 41.499 25.5s32 16.333 44 22s28 12.834 48 21.501c62 27.333 101.167 47.5 117.5 60.5s24.5 32.167 24.5 57.5
c0 32.667 -10.833 55.5 -32.5 68.5s-56.5 19.5 -104.5 19.5c-57.333 0 -111 -7.33301 -161 -22l-52 112c66.667 27.333 142.667 41 228 41c182 0 273 -69.333 273 -208c0 -16 -1.33301 -31 -4 -45s-6 -26.667 -10 -38s-9.83301 -22.333 -17.5 -33
s-14.5 -19.834 -20.5 -27.501s-14.667 -15.834 -26 -24.501s-20.666 -15.5 -27.999 -20.5s-18.166 -11 -32.499 -18s-25.166 -12.167 -32.499 -15.5s-18.666 -8.5 -33.999 -15.5s-26.333 -12.167 -33 -15.5c-44 -19.333 -74.833 -36.333 -92.5 -51
s-27.5 -34.334 -29.5 -59.001h360z" />
    <glyph glyph-name="three" unicode="3" horiz-adv-x="630" 
d="M454 362c37.333 -16 66.334 -38.167 87.001 -66.5s31 -60.833 31 -97.5c0 -63.333 -26.833 -114.5 -80.5 -153.5s-123.167 -58.5 -208.5 -58.5c-90 0 -171 14.667 -243 44l59 118c57.333 -20.667 120.666 -31 189.999 -31c40 0 71.5 8 94.5 24s34.5 37 34.5 63
s-11.5 47 -34.5 63s-54.5 24 -94.5 24h-100v40v87h91c34.667 0 61.667 6.66699 81 20s29 30.833 29 52.5s-9.66699 39.167 -29 52.5s-46.333 20 -81 20c-56.667 0 -108.334 -8.33301 -155.001 -25l-55 118c62.667 25.333 133.667 38 213 38
c50.667 0 95.834 -7.83301 135.501 -23.5s70.5 -38.167 92.5 -67.5s32.667 -63 32 -101c0 -62 -29.667 -108.667 -89 -140z" />
    <glyph glyph-name="four" unicode="4" horiz-adv-x="653" 
d="M525 269h88v-124h-88v-145h-148v145h-352v95l341 440h159v-411zM209 269h168v234z" />
    <glyph glyph-name="five" unicode="5" horiz-adv-x="632" 
d="M527 557l-294.997 0.000976562v-135c25.333 6 55.333 9 90 9c77.333 0 140.166 -19.333 188.499 -58s72.166 -89.334 71.499 -152.001c0 -71.333 -26.833 -128.333 -80.5 -171s-124.5 -64 -212.5 -64s-167.667 15.667 -239 47l58 117c56.667 -22 119 -33 187 -33
c41.333 0 74 9 98 27s36 42 36 72c0 30.667 -10.833 54.667 -32.5 72s-50.834 26 -87.501 26c-50 0 -99.667 -10.333 -149 -31l-77 72v325h444v-123z" />
    <glyph glyph-name="six" unicode="6" horiz-adv-x="660" 
d="M375 694c68 0 129.002 -16.332 183.002 -48.999l-51 -109c-41.333 21.333 -84.666 32 -129.999 32c-46.667 0 -85.334 -16.167 -116.001 -48.5s-48 -76.166 -52 -131.499c48 26.667 102.333 40 163 40c44 0 84 -7.83301 120 -23.5s65 -39.834 87 -72.501
s33 -70.667 33 -114c0 -69.333 -25.333 -125.333 -76 -168s-114.667 -64 -192 -64c-49.333 0 -92.833 9.16699 -130.5 27.5s-67.5 43.666 -89.5 75.999s-38.5 68.333 -49.5 108s-16.5 82.5 -16.5 128.5c-0.666992 109.333 28.166 198 86.499 266s135.166 102 230.499 102z
M360.002 312.001c-56 0 -106.333 -12.334 -151 -37.001c8 -110.667 53.333 -166 136 -166c35.333 0 63.833 9.66699 85.5 29s32.5 46.333 32.5 81c0 30.667 -8.83301 53.834 -26.5 69.501s-43.167 23.5 -76.5 23.5z" />
    <glyph glyph-name="seven" unicode="7" horiz-adv-x="545" 
d="M523 680v-97l-287 -583h-167l291 557h-337v123h500z" />
    <glyph glyph-name="eight" unicode="8" horiz-adv-x="694" 
d="M517 362c80 -30 119.669 -84.666 119.002 -163.999c0 -63.333 -26.833 -114.5 -80.5 -153.5s-123.167 -58.5 -208.5 -58.5s-154.833 19.5 -208.5 58.5s-80.5 90.167 -80.5 153.5c0 79.333 39.667 133.666 119 162.999c-60 28.667 -90 75.667 -90 141
c0 57.333 24.167 103.666 72.5 138.999s110.833 53 187.5 53c77.333 0 140.166 -17.667 188.499 -53s72.166 -81.666 71.499 -138.999c0 -65.333 -30 -112 -90 -140zM347.002 565.001c-33.333 0 -59.501 -6.83398 -78.501 -20.501s-28.5 -31.167 -28.5 -52.5
c0 -10.667 2.33301 -20.5 7 -29.5s11.5 -16.667 20.5 -23s20.333 -11.166 34 -14.499s28.834 -5 45.501 -5c34 0 60.333 6.5 79 19.5s28 30.5 28 52.5s-9.33301 39.667 -28 53s-45 20 -79 20zM347.001 117c42 0 75.167 8.5 99.5 25.5s36.5 39.5 36.5 67.5
s-12.167 50.5 -36.5 67.5s-57.5 25.5 -99.5 25.5s-75.167 -8.5 -99.5 -25.5s-36.5 -39.5 -36.5 -67.5s12.167 -50.5 36.5 -67.5s57.5 -25.5 99.5 -25.5z" />
    <glyph glyph-name="nine" unicode="9" horiz-adv-x="660" 
d="M316 694c49.333 0 92.833 -9.16797 130.5 -27.501s67.667 -43.666 90 -75.999s39 -68.333 50 -108s16.167 -82.5 15.5 -128.5c0.666992 -109.333 -28.166 -198 -86.499 -266s-135.166 -102 -230.499 -102c-68 0 -129 16.333 -183 49l51 109
c41.333 -21.333 84.666 -32 129.999 -32c46.667 0 85.5 16.167 116.5 48.5s48.5 76.166 52.5 131.499c-48.667 -26.667 -103.334 -40 -164.001 -40c-44 0 -84 7.83301 -120 23.5s-65 39.834 -87 72.501s-33 70.667 -33 114c0 69.333 25.5 125.333 76.5 168
s114.833 64 191.5 64zM315 570.999c-35.333 0 -63.8311 -9.66602 -85.498 -28.999s-32.5 -46.333 -32.5 -81c0 -20.667 4 -37.834 12 -51.501s19.667 -24 35 -31s34.333 -10.5 57 -10.5c55.333 0 105.666 12.333 150.999 37c-8.66699 110.667 -54.334 166 -137.001 166z" />
    <glyph glyph-name="colon" unicode=":" horiz-adv-x="242" 
d="M121.5 505c23 0 42.667 -8.16602 59 -24.499s24.5 -36 24.5 -59s-8.16699 -42.667 -24.5 -59s-36 -24.5 -59 -24.5s-42.667 8.16699 -59 24.5s-24.5 36.166 -24.5 59.499s8.16699 43 24.5 59s36 24 59 24zM121.5 162.001c23 0 42.667 -8.16602 59 -24.499
s24.5 -36 24.5 -59s-8.16699 -42.667 -24.5 -59s-36 -24.5 -59 -24.5s-42.667 8.16699 -59 24.5s-24.5 35.833 -24.5 58.5c0 23.333 8.16699 43.166 24.5 59.499s36 24.5 59 24.5z" />
    <glyph glyph-name="semicolon" unicode=";" horiz-adv-x="254" 
d="M128 505c22.667 0 42.334 -8 59.001 -24s25 -35.667 25 -59s-8.33301 -43.166 -25 -59.499s-36.334 -24.5 -59.001 -24.5c-23.333 0 -43 8.16699 -59 24.5s-24 36.166 -24 59.499s8 43 24 59s35.667 24 59 24zM129 162c22 0 41.001 -7.49805 57.001 -22.498
s26 -35.167 30 -60.5c6 -39.333 -3.5 -81.333 -28.5 -126s-57.5 -81.334 -97.5 -110.001l-58 36c41.333 34.667 69.666 73.667 84.999 117c-20 2.66699 -37 11.667 -51 27s-21 33.666 -21 54.999c0 24 8 44 24 60s36 24 60 24z" />
    <glyph glyph-name="less" unicode="&#x3c;" horiz-adv-x="549" 
d="M519 419l-323 -125l323 -126v-151l-484 203v147l484 203v-151z" />
    <glyph glyph-name="equal" unicode="=" horiz-adv-x="559" 
d="M524 325h-489v113h489v-113zM524 141h-489v113h489v-113z" />
    <glyph glyph-name="greater" unicode="&#x3e;" horiz-adv-x="549" 
d="M514 367v-147l-484 -203v151l323 126l-323 125v151z" />
    <glyph glyph-name="question" unicode="?" horiz-adv-x="567" 
d="M266 714c34 0 64.9971 -3.3291 92.9971 -9.99609s54.167 -17.334 78.5 -32.001s43.333 -36 57 -64s20.5 -61.667 20.5 -101c0 -22.667 -3 -43.334 -9 -62.001s-13.333 -34.334 -22 -47.001s-21.167 -24.834 -37.5 -36.501s-32.166 -21.334 -47.499 -29.001
s-35.333 -16.834 -60 -27.501c-16.667 -7.33301 -28.5 -14.166 -35.5 -20.499s-10.5 -15.5 -10.5 -27.5l-1 -38h-126l-3 64c-0.666992 30.667 6.33301 54.834 21 72.501s42.334 35.167 83.001 52.5c17.333 8 29.5 13.667 36.5 17s15.5 8.16602 25.5 14.499
s16.833 12 20.5 17s7 11.5 10 19.5s4.5 17.333 4.5 28c0 22 -4.83301 39.333 -14.5 52s-22.167 21.334 -37.5 26.001s-35 7 -59 7c-49.333 0 -99.666 -7.66699 -150.999 -23l-62 103c66.667 30 142 45 226 45zM229.997 162.004c15.333 0 29.333 -3.83203 42 -11.499
s22.667 -17.834 30 -30.501s11 -26.667 11 -42c0 -22.667 -8 -42.167 -24 -58.5s-35.667 -24.5 -59 -24.5s-43.166 8.16699 -59.499 24.5s-24.5 36 -24.5 59s8.16699 42.667 24.5 59s36.166 24.5 59.499 24.5z" />
    <glyph glyph-name="at" unicode="@" horiz-adv-x="1048" 
d="M524 714c68.667 0 131.996 -12.166 189.996 -36.499s106.667 -57.333 146 -99s70 -90.834 92 -147.501s33 -117 33 -181c0 -63.333 -16.833 -117.833 -50.5 -163.5s-78.5 -72.167 -134.5 -79.5c-65.333 -9.33301 -135.666 6 -210.999 46v36
c-36.667 -31.333 -77 -47 -121 -47c-52.667 0 -95.667 20.333 -129 61s-50 90.834 -50 150.501s16.667 109.834 50 150.501s76.333 61 129 61c44 0 84.333 -15.667 121 -47v41h122v-337c24.667 -8.66699 46.667 -11 66 -7c26.667 4 47.334 18 62.001 42s22 55 22 93
c0 101.333 -31 185.166 -93 251.499s-143.333 99.5 -244 99.5c-100 0 -181.167 -33 -243.5 -99s-93.5 -150 -93.5 -252c0 -101.333 31.167 -185.166 93.5 -251.499s143.5 -99.5 243.5 -99.5c44 0 86 7 126 21l43 -106c-52.667 -18.667 -109 -28 -169 -28
c-54.667 0 -106.167 7.83301 -154.5 23.5s-91 37.667 -128 66s-69 61.666 -96 99.999s-47.5 81 -61.5 128s-21 95.833 -21 146.5c0 86 18.833 164.167 56.5 234.5s91.834 126.166 162.501 167.499s151.334 62 242.001 62zM489.996 141.001c35.333 0 68.333 15 99 45v135
c-30.667 30 -63.667 45 -99 45c-23.333 0 -42 -10.167 -56 -30.5s-20.667 -47.833 -20 -82.5c-0.666992 -34 5.83301 -61.167 19.5 -81.5s32.5 -30.5 56.5 -30.5z" />
    <glyph glyph-name="A" unicode="A" horiz-adv-x="754" 
d="M729 0h-161l-49 138h-284l-49 -138h-161l273 700h158zM278 261h198l-99 276z" />
    <glyph glyph-name="B" unicode="B" horiz-adv-x="696" 
d="M530 375c37.333 -12.667 67.332 -33.999 89.999 -63.999s33.667 -65.667 33 -107c0 -60.667 -20.667 -109.834 -62 -147.501s-92.666 -56.5 -153.999 -56.5h-205h-149v700h321c56.667 0 104 -17.333 142 -52s57 -80 57 -136c0 -60 -24.333 -105.667 -73 -137z
M231.999 581.001l-0.00195312 -164h141c22.667 0 41.334 7.33301 56.001 22s22 34.667 22 60s-7.16699 45.333 -21.5 60s-33.166 22 -56.499 22h-141zM501.997 211.001c0 28 -8.33301 50.333 -25 67s-38 25 -64 25h-181v-184h181c26 0 47.333 8.16699 64 24.5
s25 38.833 25 67.5z" />
    <glyph glyph-name="C" unicode="C" horiz-adv-x="759" 
d="M422 714c30 0 60.6689 -3.66602 92.002 -10.999s62.833 -18.5 94.5 -33.5s61.5 -33.167 89.5 -54.5l-38 -105c-76 48.667 -152.333 73 -229 73c-62 0 -112.5 -20.833 -151.5 -62.5s-58.5 -98.5 -58.5 -170.5s19.5 -128.833 58.5 -170.5s89.833 -62.5 152.5 -62.5
c76.667 0 153.667 25 231 75l38 -105c-28 -21.333 -58 -39.666 -90 -54.999s-63.833 -26.833 -95.5 -34.5s-62.834 -11.5 -93.501 -11.5c-52 0 -100.333 9.5 -145 28.5s-82.167 45 -112.5 78s-54 71.667 -71 116s-25.5 91.5 -25.5 141.5c0 67.333 14.5 128.666 43.5 183.999
s70.667 99.166 125 131.499s116.166 48.5 185.499 48.5z" />
    <glyph glyph-name="D" unicode="D" horiz-adv-x="776" 
d="M83 700h280c103.333 0 186.666 -32.833 249.999 -98.5s95 -149.5 95 -251.5s-31.667 -185.833 -95 -251.5s-146.666 -98.5 -249.999 -98.5h-280v700zM232 123h119c62.667 0 112.667 20.5 150 61.5s56 96.167 56 165.5s-18.667 124.5 -56 165.5s-87.333 61.5 -150 61.5
h-119v-454z" />
    <glyph glyph-name="E" unicode="E" horiz-adv-x="635" 
d="M590 123v-123h-507v700h497v-123h-348v-149h309v-123h-309v-182h358z" />
    <glyph glyph-name="F" unicode="F" horiz-adv-x="607" 
d="M232 577v-169h291v-123h-291v-285h-149v700h479v-123h-330z" />
    <glyph glyph-name="G" unicode="G" horiz-adv-x="812" 
d="M735 391l-0.000976562 -391.002h-114l-10 58c-65.333 -48 -134.666 -72 -207.999 -72c-24 0 -47.5 2.5 -70.5 7.5s-44.667 12 -65 21s-39.5 20.167 -57.5 33.5s-34.333 28.166 -49 44.499s-27.834 34.166 -39.501 53.499s-21.334 39.833 -29.001 61.5
s-13.667 44.334 -18 68.001s-6.5 47.834 -6.5 72.501c0 68 14.667 129.833 44 185.5s71.5 99.667 126.5 132s117.167 48.5 186.5 48.5c100.667 0 195.667 -34 285 -102l-39 -105c-78.667 50.667 -158 76 -238 76c-62.667 0 -113.667 -20.833 -153 -62.5
s-59 -99.167 -59 -172.5c0 -71.333 18.833 -127.666 56.5 -168.999s85.834 -62 144.501 -62c54.667 0.666992 111.334 16.334 170.001 47.001v107h-121v120h264z" />
    <glyph glyph-name="H" unicode="H" horiz-adv-x="791" 
d="M708 700v-700h-149v303h-327v-303h-149v700h149v-274h327v274h149z" />
    <glyph glyph-name="I" unicode="I" horiz-adv-x="315" 
d="M232 0h-149v700h149v-700z" />
    <glyph glyph-name="J" unicode="J" horiz-adv-x="474" 
d="M392 700v-449.999c0 -74.667 -23.833 -137.334 -71.5 -188.001s-109.5 -76 -185.5 -76c-39.333 0 -76 7 -110 21l40 112c18.667 -4.66699 37.667 -7 57 -7c36 0 65 12.667 87 38s33 59 33 101v449h150z" />
    <glyph glyph-name="K" unicode="K" horiz-adv-x="726" 
d="M321 313l-89 -96v-217h-149v700h149v-299l255 299h189l-262 -285l287 -415h-181z" />
    <glyph glyph-name="L" unicode="L" horiz-adv-x="571" 
d="M546 123v-123h-463v700h149v-577h314z" />
    <glyph glyph-name="M" unicode="M" horiz-adv-x="906" 
d="M824 700v-700h-145v439l-165 -248h-127l-164 248v-439h-145v700h133l240 -372l240 372h133z" />
    <glyph glyph-name="N" unicode="N" horiz-adv-x="770" 
d="M692 700v-700h-133l-336 458v-458h-145v700h133l336 -462v462h145z" />
    <glyph glyph-name="O" unicode="O" 
d="M428 714c53.333 0 102.666 -9.49805 147.999 -28.498s83.333 -45 114 -78s54.667 -71.667 72 -116s26 -91.5 26 -141.5c0 -67.333 -14.667 -128.5 -44 -183.5s-71.666 -98.833 -126.999 -131.5s-118.333 -49 -189 -49s-133.667 16.333 -189 49
s-97.666 76.5 -126.999 131.5s-44 116.167 -44 183.5s14.667 128.666 44 183.999s71.666 99.166 126.999 131.499s118.333 48.5 189 48.5zM428 583.002c-61.333 0 -111.166 -21.833 -149.499 -65.5s-57.5 -99.5 -57.5 -167.5s19.167 -123.833 57.5 -167.5
s88.166 -65.5 149.499 -65.5s111.166 21.833 149.499 65.5s57.5 99.5 57.5 167.5s-19.167 123.833 -57.5 167.5s-88.166 65.5 -149.499 65.5z" />
    <glyph glyph-name="P" unicode="P" horiz-adv-x="696" 
d="M192 700h243.999c22.667 0 44.334 -3.5 65.001 -10.5s39.667 -17.167 57 -30.5s32.5 -29.333 45.5 -48s23 -40 30 -64s10.5 -49.667 10.5 -77c0 -68 -20.167 -123.333 -60.5 -166s-89.5 -64 -147.5 -64h-204v-240h-149v700h109zM499.999 470c0 33.333 -8 59.5 -24 78.5
s-35.333 28.5 -58 28.5h-186v-214h186c22.667 0 42 9.5 58 28.5s24 45.167 24 78.5z" />
    <glyph glyph-name="Q" unicode="Q" 
d="M788 350c0 -60 -11.999 -115.498 -35.999 -166.498s-58 -93.167 -102 -126.5l86 -127l-138 -34l-63 104c-34 -9.33301 -69.667 -14 -107 -14c-70.667 0 -133.667 16.333 -189 49s-97.666 76.5 -126.999 131.5s-44 116.167 -44 183.5s14.667 128.666 44 183.999
s71.666 99.166 126.999 131.499s118.333 48.5 189 48.5s133.667 -16.333 189 -49s97.666 -76.5 126.999 -131.5s44 -116.167 44 -183.5zM428.001 117.002c11.333 0 22.666 1 33.999 3l-77 125l118 28l67 -98c43.333 44 65 102.333 65 175c0 68 -19.167 123.833 -57.5 167.5
s-88.166 65.5 -149.499 65.5s-111.166 -21.833 -149.499 -65.5s-57.5 -99.5 -57.5 -167.5s19.167 -123.833 57.5 -167.5s88.166 -65.5 149.499 -65.5z" />
    <glyph glyph-name="R" unicode="R" horiz-adv-x="695" 
d="M366 267h-134v-267h-149v700h90h255c58 0 107.167 -20.167 147.5 -60.5s60.5 -92.5 60.5 -156.5c0 -48 -12 -89.833 -36 -125.5s-55.667 -61.167 -95 -76.5l165 -281h-168zM232 390l184 -0.000976562c20.667 0 38.5 8.33301 53.5 25s22.5 39.667 22.5 69
c0 28.667 -7.33301 51.334 -22 68.001s-32.667 25 -54 25h-184v-187z" />
    <glyph glyph-name="S" unicode="S" horiz-adv-x="639" 
d="M328 714c104 0 188.997 -29.6709 254.997 -89.0039l-81 -99c-48.667 38.667 -107 58 -175 58c-74.667 0 -113.334 -27 -116.001 -81c-0.666992 -19.333 7.5 -34.333 24.5 -45s55.833 -24 116.5 -40l9 -3c20 -5.33301 35.333 -9.5 46 -12.5s25.667 -8 45 -15
s34.5 -13.833 45.5 -20.5s23.667 -15.5 38 -26.5s25.333 -22.5 33 -34.5s14.334 -26.833 20.001 -44.5s8.5 -36.5 8.5 -56.5c0 -30.667 -5.5 -58.5 -16.5 -83.5s-25.667 -45.667 -44 -62s-39.666 -30.166 -63.999 -41.499s-49 -19.5 -74 -24.5s-50.5 -7.5 -76.5 -7.5
c-54.667 0 -108.167 10.833 -160.5 32.5s-92.833 50.834 -121.5 87.501l84 94c21.333 -26 50.333 -46.667 87 -62s73.667 -23 111 -23c25.333 0 47.166 3.66699 65.499 11s32.333 17.333 42 30s14.5 27.334 14.5 44.001c0.666992 26 -12.666 45.333 -39.999 58
c-15.333 7.33301 -48.666 18 -99.999 32c-36.667 10 -66.667 19 -90 27s-46 17.833 -68 29.5s-38.667 24 -50 37s-20.5 28.833 -27.5 47.5s-10.5 40.334 -10.5 65.001c0 38 7.33301 71.5 22 100.5s34.834 51.833 60.501 68.5s54.167 29 85.5 37s65.333 12 102 12z" />
    <glyph glyph-name="T" unicode="T" horiz-adv-x="617" 
d="M591 577h-208v-577h-149v577h-209v123h566v-123z" />
    <glyph glyph-name="U" unicode="U" horiz-adv-x="762" 
d="M684 700l0.000976562 -448c0 -80 -28.833 -144.333 -86.5 -193s-128.834 -73 -213.501 -73c-85.333 0 -156.833 24.5 -214.5 73.5s-86.5 113.167 -86.5 192.5v448h149v-448c0 -42.667 14.167 -76.334 42.5 -101.001s64.833 -37 109.5 -37c44 0 80.167 12.333 108.5 37
s42.5 58.334 42.5 101.001v448h149z" />
    <glyph glyph-name="V" unicode="V" horiz-adv-x="717" 
d="M444 0h-171l-248 700h161l173 -529l172 529h161z" />
    <glyph glyph-name="W" unicode="W" horiz-adv-x="1038" 
d="M830 0h-178l-133 494l-132 -494h-178l-184 700h161l117 -506l131 506h170l131 -506l117 506h161z" />
    <glyph glyph-name="X" unicode="X" horiz-adv-x="739" 
d="M467 354l247 -354h-178l-170 249l-165 -249h-176l247 359l-235 341h178l158 -234l153 234h176z" />
    <glyph glyph-name="Y" unicode="Y" horiz-adv-x="721" 
d="M433 253v-253h-149v252l-259 448h167l168 -302l169 302h167z" />
    <glyph glyph-name="Z" unicode="Z" horiz-adv-x="626" 
d="M583 0h-540v99l342 478h-318v123h506v-99l-342 -478h352v-123z" />
    <glyph glyph-name="bracketleft" unicode="[" horiz-adv-x="344" 
d="M198 687v-786h120v-101h-242v988h242v-101h-120z" />
    <glyph glyph-name="backslash" unicode="\" horiz-adv-x="517" 
d="M499 -14h-137l-342 728h138z" />
    <glyph glyph-name="bracketright" unicode="]" horiz-adv-x="344" 
d="M268 788v-988h-243v101h120v786h-120v101h243z" />
    <glyph glyph-name="asciicircum" unicode="^" horiz-adv-x="492" 
d="M329 393l-83 210l-82 -209h-129l140 320h142l140 -321h-128z" />
    <glyph glyph-name="underscore" unicode="_" horiz-adv-x="618" 
d="M578 -173h-538v101h538v-101z" />
    <glyph glyph-name="grave" unicode="`" horiz-adv-x="335" 
d="M304 565h-133l-140 173h145z" />
    <glyph glyph-name="a" unicode="a" horiz-adv-x="627" 
d="M565 500l-0.000976562 -500.001h-140v54c-48 -45.333 -101.667 -68 -161 -68c-42 0 -79.5 11.833 -112.5 35.5s-58.5 55.5 -76.5 95.5s-27 84.333 -27 133c0 74.667 20.333 137.334 61 188.001s92.334 76 155.001 76c59.333 0 113 -22.667 161 -68v54h140z
M294.999 103.999c13.333 0 27.3301 2.16699 41.9971 6.5s29.834 11 45.501 20s29.834 19.833 42.501 32.5v174c-19.333 18.667 -40.666 33.167 -63.999 43.5s-45.333 15.5 -66 15.5c-22 0 -40.833 -6 -56.5 -18s-27.667 -29 -36 -51s-12.5 -47.667 -12.5 -77s4 -55 12 -77
s20 -39 36 -51s35 -18 57 -18z" />
    <glyph glyph-name="b" unicode="b" horiz-adv-x="633" 
d="M365 514c64 0 116.334 -25.3311 157.001 -75.998s61 -113.334 61 -188.001s-20.333 -137.334 -61 -188.001s-92.667 -76 -156 -76c-58.667 0 -112.334 22.667 -161.001 68v-54h-140v700h140v-254c48.667 45.333 102 68 160 68zM337.001 104.002
c32.667 0 58.334 13.498 77.001 40.498s27.667 62.167 27 105.5c0.666992 43.333 -8.33301 78.5 -27 105.5s-44.334 40.5 -77.001 40.5c-21.333 0 -43.666 -5.16699 -66.999 -15.5s-45 -25.166 -65 -44.499v-172c20 -19.333 41.667 -34.166 65 -44.499
s45.666 -15.5 66.999 -15.5z" />
    <glyph glyph-name="c" unicode="c" horiz-adv-x="553" 
d="M310 514c71.333 0 135.666 -21.333 192.999 -64l-34 -93c-50.667 27.333 -100.334 41 -149.001 41c-39.333 0 -70.666 -13.5 -93.999 -40.5s-34.666 -62.833 -33.999 -107.5c0 -44 11.667 -79.667 35 -107s55 -41 95 -41c48.667 0 98.667 13.667 150 41l34 -91
c-58 -44 -123.333 -66 -196 -66c-76.667 0 -139.167 25.333 -187.5 76s-72.5 113.334 -72.5 188.001c0.666992 76 25.167 139.167 73.5 189.5s110.5 75.166 186.5 74.499z" />
    <glyph glyph-name="d" unicode="d" horiz-adv-x="633" 
d="M568 700v-700.001h-140v54c-48 -45.333 -102 -68 -162 -68c-41.333 0 -78.5 11.833 -111.5 35.5s-58.667 55.5 -77 95.5s-27.5 84.333 -27.5 133c0 74.667 20.5 137.334 61.5 188.001s93.5 76 157.5 76c58 0 111 -22.667 159 -68v254h140zM298 103.999
c20.667 0 42.667 5.33301 66 16s44.666 25.334 63.999 44.001v172c-19.333 19.333 -40.666 34.166 -63.999 44.499s-46 15.5 -68 15.5c-32.667 0 -58.167 -13.333 -76.5 -40s-27.5 -62 -27.5 -106c0 -29.333 4 -54.833 12 -76.5s20 -38.667 36 -51s35.333 -18.5 58 -18.5z
" />
    <glyph glyph-name="e" unicode="e" horiz-adv-x="589" 
d="M304 514c76 0 135.5 -24.834 178.5 -74.501s64.5 -116.167 64.5 -199.5c0 -8 -0.333008 -16 -1 -24h-351c0.666992 -2.66699 1 -5.33398 1 -8.00098c6 -34 20 -60.5 42 -79.5s49 -28.5 81 -28.5c46.667 0 97.667 14 153 42l33 -88c-58.667 -45.333 -125 -68 -199 -68
c-75.333 0 -136.833 25.333 -184.5 76s-71.5 113.334 -71.5 188.001s23.5 137.334 70.5 188.001s108.167 76 183.5 76zM307 399.999c-29.333 0 -53.5 -8.83301 -72.5 -26.5s-31.5 -41.5 -37.5 -71.5h211c-9.33301 65.333 -43 98 -101 98z" />
    <glyph glyph-name="f" unicode="f" horiz-adv-x="452" 
d="M343 612c-24 0 -42.333 -7.66699 -55 -23s-19 -38 -19 -68v-21h135v-108h-135v-392h-140v392h-96v88l93 20h3v14c0 70.667 17 124 51 160s79.333 53.667 136 53c50 0 102.333 -13 157 -39l-33 -96c-36.667 13.333 -69 20 -97 20z" />
    <glyph glyph-name="g" unicode="g" horiz-adv-x="631" 
d="M568 500v-474.999c0 -78 -22.167 -136.667 -66.5 -176s-101.5 -59 -171.5 -59c-86.667 -0.666992 -167.667 25.333 -243 78l9 106c36 -21.333 73.5 -38.333 112.5 -51s73.833 -19 104.5 -19c37.333 0 65.833 10.167 85.5 30.5s29.5 50.5 29.5 90.5v49
c-48.667 -44 -102.334 -66 -161.001 -66c-63.333 0 -115.333 24.333 -156 73s-61 108.667 -61 180s20.333 131.166 61 179.499s92.667 72.5 156 72.5c58.667 0.666992 112.334 -21 161.001 -65v52h140zM297 122.001c21.333 0 43.832 5 67.499 15s44.834 24 63.501 42v160
c-18.667 17.333 -39.834 31 -63.501 41s-46.167 15 -67.5 15c-22 0 -40.833 -5.5 -56.5 -16.5s-27.667 -26.667 -36 -47s-12.5 -44.5 -12.5 -72.5c0 -42 9.33301 -75.333 28 -100s44.334 -37 77.001 -37z" />
    <glyph glyph-name="h" unicode="h" horiz-adv-x="615" 
d="M384 514c49.333 0 90.168 -16.001 122.501 -48.001s48.5 -78.667 48.5 -140v-326h-140v308c0 28.667 -7.83301 50.334 -23.5 65.001s-35.834 22 -60.501 22c-42.667 -0.666992 -84.667 -18 -126 -52v-343h-140v700h140v-261c53.333 50 113 75 179 75z" />
    <glyph glyph-name="i" unicode="i" horiz-adv-x="255" 
d="M130 719c14.667 0 28.333 -3.5 41 -10.5s22.667 -16.5 30 -28.5s11 -25.333 11 -40c0 -22 -8 -40.833 -24 -56.5s-35.333 -23.5 -58 -23.5s-42 7.83301 -58 23.5s-24 34.5 -24 56.5s8 40.667 24 56s35.333 23 58 23zM199.999 0h-140v500h140v-500z" />
    <glyph glyph-name="j" unicode="j" horiz-adv-x="287" 
d="M150 719c14.667 0 28.333 -3.5 41 -10.5s22.667 -16.5 30 -28.5s11 -25.333 11 -40c0 -22 -8 -40.833 -24 -56.5s-35.333 -23.5 -58 -23.5s-42 7.83301 -58 23.5s-24 34.5 -24 56.5s8 40.667 24 56s35.333 23 58 23zM219.999 500v-549
c0 -58.667 -14.167 -101.667 -42.5 -129s-65.5 -41 -111.5 -41c-31.333 0 -65.666 5.66699 -102.999 17l9 103c17.333 -3.33301 32.666 -5 45.999 -5c41.333 0 62 23.333 62 70v534h140z" />
    <glyph glyph-name="k" unicode="k" horiz-adv-x="607" 
d="M285 228l-77 -73v-155h-140v700h140v-390l184 190h178l-197 -188l219 -312h-162z" />
    <glyph glyph-name="l" unicode="l" horiz-adv-x="384" 
d="M208 700l0.000976562 -528.001c0 -48.667 21 -72.667 63 -72c10.667 0 23 2 37 6l34 -91c-40.667 -19.333 -80 -29 -118 -29c-29.333 0 -55.333 5.5 -78 16.5s-41.334 29.333 -56.001 55s-22 57.834 -22 96.501v546h140z" />
    <glyph glyph-name="m" unicode="m" horiz-adv-x="930" 
d="M707 514c48 0 87.498 -15.833 118.498 -47.5s46.5 -78.5 46.5 -140.5v-326h-140v308c0.666992 29.333 -6.33301 51.166 -21 65.499s-34 21.5 -58 21.5c-38.667 -0.666992 -77.334 -16 -116.001 -46c0.666992 -7.33301 1 -15 1 -23v-326h-140v308
c0 28.667 -7.16699 50.334 -21.5 65.001s-33.166 22 -56.499 22c-40 -0.666992 -79 -17.667 -117 -51v-344h-140v500h140v-61c50.667 50 107.667 75 171 75c30.667 0 58.334 -6.83301 83.001 -20.5s44 -34.167 58 -61.5c28 26 58.833 46.167 92.5 60.5
s66.834 21.5 99.501 21.5z" />
    <glyph glyph-name="n" unicode="n" horiz-adv-x="610" 
d="M381 514c32 0 60.502 -6.50195 85.502 -19.502s45.5 -34 61.5 -63s24 -64.167 24 -105.5v-326h-140v308c0 28.667 -7.33301 50.334 -22 65.001s-34.334 22 -59.001 22c-42.667 -0.666992 -85.334 -18 -128.001 -52v-343h-140v500h140v-61
c26 24.667 54.667 43.334 86 56.001s62 19 92 19z" />
    <glyph glyph-name="o" unicode="o" horiz-adv-x="634" 
d="M317 514c52.667 0 99.499 -11.833 140.499 -35.5s72.333 -55.5 94 -95.5s32.5 -84.333 32.5 -133c0 -74.667 -24.667 -137.334 -74 -188.001s-113.666 -76 -192.999 -76c-78.667 0 -142.834 25.333 -192.501 76s-74.5 113.334 -74.5 188.001
c0 75.333 24.833 138.333 74.5 189s113.834 75.667 192.501 75zM316.999 394c-38.667 0 -69.333 -13.332 -92 -39.999s-33.667 -61.334 -33 -104.001c0 -28 5 -52.833 15 -74.5s24.5 -38.667 43.5 -51s41.167 -18.5 66.5 -18.5c38 0 68.333 13.167 91 39.5
s34 61.166 34 104.499c0 28.667 -5 53.834 -15 75.501s-24.5 38.5 -43.5 50.5s-41.167 18 -66.5 18z" />
    <glyph glyph-name="p" unicode="p" horiz-adv-x="625" 
d="M357 514c64.667 0 117.333 -25.332 158 -75.999s61 -113.334 61 -188.001c0 -78 -21 -141.5 -63 -190.5s-94.333 -73.5 -157 -73.5c-57.333 0 -110 22 -158 66v-252h-140v700h140v-54c48.667 45.333 101.667 68 159 68zM328.999 103.001
c32 0 57.6689 12.998 77.002 38.998s28.666 62 27.999 108c0.666992 43.333 -8.5 78.5 -27.5 105.5s-44.833 40.5 -77.5 40.5c-20.667 0 -42.834 -5.16699 -66.501 -15.5s-45.167 -25.166 -64.5 -44.499v-169c43.333 -43.333 87 -64.666 131 -63.999z" />
    <glyph glyph-name="q" unicode="q" horiz-adv-x="625" 
d="M558 500v-700h-140v252c-48 -44 -101.333 -66 -160 -66c-61.333 0 -113 24.667 -155 74s-63 112.666 -63 189.999c0 74.667 20.333 137.334 61 188.001s92.667 76 156 76c59.333 0 113 -22.667 161 -68v54h140zM288 103c44 -0.666992 87.334 20.6689 130.001 64.002v169
c-19.333 19.333 -40.833 34.166 -64.5 44.499s-45.834 15.5 -66.501 15.5c-22 0 -41 -6.16699 -57 -18.5s-28 -29.333 -36 -51s-12 -47.167 -12 -76.5c0 -46.667 9.66699 -82.834 29 -108.501s45 -38.5 77 -38.5z" />
    <glyph glyph-name="r" unicode="r" horiz-adv-x="426" 
d="M398 515c4.66699 0 9.00098 -0.333008 13.001 -1l-23 -130h-16c-60 0 -116.333 -21.667 -169 -65v-319h-140v500h140v-69c18.667 18 39.167 33.333 61.5 46s44.666 22.167 66.999 28.5s44.5 9.5 66.5 9.5z" />
    <glyph glyph-name="s" unicode="s" horiz-adv-x="503" 
d="M253 514c37.333 0 73.832 -5.16895 109.499 -15.502s65.5 -26.5 89.5 -48.5l-53 -86c-16.667 14.667 -37.667 25.834 -63 33.501s-51 11.5 -77 11.5c-22.667 0 -40.834 -3.83301 -54.501 -11.5s-21.167 -19.5 -22.5 -35.5c-1.33301 -12 4 -21.333 16 -28
s37 -14.667 75 -24c15.333 -3.33301 25.5 -5.66602 30.5 -6.99902s14.667 -4 29 -8s24.5 -7.33301 30.5 -10s15.167 -6.83398 27.5 -12.501s21.333 -11 27 -16s12.5 -11.333 20.5 -19s13.833 -15.667 17.5 -24s7 -18 10 -29s4.5 -22.833 4.5 -35.5
c0 -29.333 -6.83301 -54.833 -20.5 -76.5s-31.667 -38.667 -54 -51s-46.166 -21.333 -71.499 -27s-51.666 -8.5 -78.999 -8.5c-43.333 0 -84.5 6.83301 -123.5 20.5s-69.5 33.167 -91.5 58.5l54 86c15.333 -19.333 37.166 -34.166 65.499 -44.499s57.833 -15.5 88.5 -15.5
c29.333 0 52.166 4.83301 68.499 14.5s24.833 22.834 25.5 39.501c0 14 -5.83301 24 -17.5 30s-33.5 13 -65.5 21c-6 2 -10.667 3.33301 -14 4c-28 7.33301 -50.833 13.833 -68.5 19.5s-35.167 12.667 -52.5 21s-30.666 17.333 -39.999 27s-16.666 21.667 -21.999 36
s-8 30.833 -8 49.5c0 28.667 5.83301 53.667 17.5 75s27.667 38.166 48 50.499s42.5 21.333 66.5 27s49.667 8.5 77 8.5z" />
    <glyph glyph-name="t" unicode="t" horiz-adv-x="472" 
d="M398 114l29 -94c-45.333 -22.667 -91.333 -34 -138 -34c-47.333 0 -86.333 13.167 -117 39.5s-46 66.833 -46 121.5v245h-96v88l93 20h3v135h140v-135h135v-108h-135v-226c0 -43.333 21.333 -65 64 -65c19.333 0 42 4.33301 68 13z" />
    <glyph glyph-name="u" unicode="u" horiz-adv-x="596" 
d="M538 500l-0.00195312 -500h-140v60c-24.667 -24 -52.167 -42.333 -82.5 -55s-60.166 -19 -89.499 -19c-49.333 0 -89.666 15.833 -120.999 47.5s-47 78.5 -47 140.5v326h140v-308c0 -28.667 6.5 -50.167 19.5 -64.5s31.5 -21.833 55.5 -22.5c43.333 0 85 17.333 125 52
v343h140z" />
    <glyph glyph-name="v" unicode="v" horiz-adv-x="581" 
d="M565 500l-199 -500h-151l-200 500h147l128 -360l129 360h146z" />
    <glyph glyph-name="w" unicode="w" horiz-adv-x="857" 
d="M670 0h-144l-97 336l-98 -336h-144l-172 500h147l101 -341l92 341h147l92 -341l101 341h147z" />
    <glyph glyph-name="x" unicode="x" horiz-adv-x="577" 
d="M370 257l186 -257h-153l-120 169l-117 -169h-152l186 260l-174 240h152l109 -151l105 151h152z" />
    <glyph glyph-name="y" unicode="y" horiz-adv-x="594" 
d="M579 500l-292 -700h-124l77 201l-225 499h151l139 -333l128 333h146z" />
    <glyph glyph-name="z" unicode="z" horiz-adv-x="494" 
d="M457 104v-104h-427v83l246 313h-230v104h402v-83l-246 -313h255z" />
    <glyph glyph-name="braceleft" unicode="{" horiz-adv-x="407" 
d="M280 792c30.667 0 64.667 -5.99902 102 -17.999l-8 -89c-17.333 3.33301 -33 5 -47 5c-42.667 0 -64 -23.333 -64 -70v-208c0 -58.667 -18 -98.667 -54 -120c36 -21.333 54 -61 54 -119v-208c0 -46.667 21.333 -70 64 -70c14 -0.666992 29.667 0.666016 47 3.99902l8 -88
c-37.333 -12 -71.333 -18 -102 -18c-42 0 -75.833 12.5 -101.5 37.5s-38.5 64.167 -38.5 117.5v234c0 18.667 -4.66699 33.334 -14 44.001s-22.333 16 -39 16h-27v101h27c16.667 0 29.667 5.16699 39 15.5s14 25.166 14 44.499v234c0 52.667 12.833 91.667 38.5 117
s59.5 38 101.5 38z" />
    <glyph glyph-name="bar" unicode="|" horiz-adv-x="306" 
d="M223 -214h-140v964h140v-964z" />
    <glyph glyph-name="braceright" unicode="}" horiz-adv-x="407" 
d="M127 792c42 0 75.832 -12.667 101.499 -38s38.5 -64.333 38.5 -117v-234c0 -12.667 2.16699 -23.5 6.5 -32.5s10.5 -15.833 18.5 -20.5s17.667 -7 29 -7h26v-101h-26c-17.333 0 -30.666 -5.33301 -39.999 -16s-14 -25.334 -14 -44.001v-234
c0 -53.333 -12.833 -92.5 -38.5 -117.5s-59.5 -37.5 -101.5 -37.5c-30.667 0 -64.667 6 -102 18l8 88c17.333 -3.33301 33 -4.66602 47 -3.99902c43.333 0 65 23.333 65 70v208c0 58 17.667 97.667 53 119c-35.333 21.333 -53 61.333 -53 120v208
c0 46.667 -21.667 70 -65 70c-14 0 -29.667 -1.66699 -47 -5l-8 89c37.333 12 71.333 18 102 18z" />
    <glyph glyph-name="asciitilde" unicode="~" horiz-adv-x="576" 
d="M200 359c33.333 0 73.666 -17 120.999 -51c26.667 -20 48 -30 64 -30c26 0 55 23.333 87 70l69 -52c-14 -20 -25.167 -35.5 -33.5 -46.5s-19.833 -23.667 -34.5 -38s-29.834 -24.833 -45.501 -31.5s-32.5 -10 -50.5 -10c-15.333 0 -31.166 2.83301 -47.499 8.5
s-29.166 11.5 -38.499 17.5s-21 14.333 -35 25c-27.333 20 -49.333 29.667 -66 29c-25.333 0.666992 -54 -22.333 -86 -69l-69 52c11.333 16.667 20 29 26 37s15 18.667 27 32s22.833 23.5 32.5 30.5s21.667 13.167 36 18.5s28.833 8 43.5 8z" />
    <glyph glyph-name="exclamdown" unicode="&#xa1;" horiz-adv-x="271" 
d="M135.5 519c23 0 42.667 -8.16602 59 -24.499s24.5 -36 24.5 -59s-8.16699 -42.667 -24.5 -59s-36 -24.5 -59 -24.5s-42.667 8.16699 -59 24.5s-24.5 36.166 -24.5 59.499c0 22.667 8.16699 42.167 24.5 58.5s36 24.5 59 24.5zM215 -185.999h-159l17 481h125z" />
    <glyph glyph-name="cent" unicode="&#xa2;" horiz-adv-x="553" 
d="M483 151l23.001 -99.002c-42.667 -32 -90.334 -52.667 -143.001 -62v-99h-117v102c-39.333 8.66699 -73.833 25.5 -103.5 50.5s-52.5 55.333 -68.5 91s-24 74.167 -24 115.5c0.666992 64 18.667 119.667 54 167s82.666 77.333 141.999 90v102h117v-99
c51.333 -9.33301 98 -29.333 140 -60l-23 -100c-56 29.333 -108.667 44 -158 44c-40.667 0 -72.667 -12.667 -96 -38s-34.666 -60.666 -33.999 -105.999c0 -45.333 11.667 -80.666 35 -105.999s55 -38 95 -38c50 0 103.667 15 161 45z" />
    <glyph glyph-name="sterling" unicode="&#xa3;" horiz-adv-x="640" 
d="M591 123l-0.00195312 -123h-513v78v1c34.667 34.667 57.334 67.667 68.001 99s14 64 10 98h-88v114h63c-12 46.667 -18 85.334 -18 116.001c-0.666992 38.667 6.33301 72 21 100s35 49.5 61 64.5s54.5 26 85.5 33s65.167 10.5 102.5 10.5
c76.667 0 143.667 -15.667 201 -47l-43 -118c-40.667 22.667 -89.667 34 -147 34c-44.667 0 -77 -6.83301 -97 -20.5s-30 -37.834 -30 -72.501c0 -22 5.66699 -55.333 17 -100h189v-114h-167c4.66699 -54.667 -8.66602 -105.667 -39.999 -153h325z" />
    <glyph glyph-name="currency" unicode="&#xa4;" horiz-adv-x="600" 
 />
    <glyph glyph-name="yen" unicode="&#xa5;" horiz-adv-x="734" 
d="M542 427h75v-107h-141l-37 -61v-13h178v-106h-178v-140h-149v140h-173v106h173v18l-34 56h-139v107h74l-166 273h167l175 -304l174 304h168z" />
    <glyph glyph-name="brokenbar" unicode="&#xa6;" horiz-adv-x="306" 
d="M223 325h-140v425h140v-425zM223 -214h-140v425h140v-425z" />
    <glyph glyph-name="section" unicode="&#xa7;" horiz-adv-x="590" 
d="M478 151c41.333 -30 62.001 -70.999 62.001 -122.999c0 -32 -7.5 -60.333 -22.5 -85s-34.833 -44 -59.5 -58s-50.834 -24.5 -78.501 -31.5s-55.834 -10.5 -84.501 -10.5c-49.333 0 -96.5 9.5 -141.5 28.5s-80.167 45.5 -105.5 79.5l86 74
c16 -21.333 39.333 -38.166 70 -50.499s63 -18.5 97 -18.5c22 0 41.333 2.83301 58 8.5s29.334 13.667 38.001 24s13 22.166 13 35.499c0 8.66699 -1.66699 16 -5 22s-7.16602 11.167 -11.499 15.5s-12.166 8.66602 -23.499 12.999s-21.333 7.83301 -30 10.5
s-22.334 6.33398 -41.001 11.001c-1.33301 0.666992 -2.5 1.16699 -3.5 1.5s-2.16699 0.666016 -3.5 0.999023s-2.66602 0.833008 -3.99902 1.5c-39.333 10 -70.333 19.333 -93 28s-43.834 19.834 -63.501 33.501s-33.5 29.834 -41.5 48.501s-12 41.334 -12 68.001
c0 56 20 98.667 60 128c-40.667 26.667 -60.667 66.667 -60 120c0 26.667 4 50.667 12 72s19.167 39.166 33.5 53.499s31.5 26.166 51.5 35.499s41.167 16.166 63.5 20.499s46.166 6.5 71.499 6.5c93.333 0 166 -25.333 218 -76l-78 -83c-34 30.667 -80.667 46 -140 46
c-66.667 0 -101 -22.667 -103 -68c-0.666992 -11.333 1.66602 -20.5 6.99902 -27.5s16.5 -14 33.5 -21s43.833 -15.5 80.5 -25.5c2.66699 -0.666992 7 -1.66699 13 -3c16 -4.66699 28.333 -8.16699 37 -10.5s21 -6.5 37 -12.5s28.833 -11.667 38.5 -17
s20.5 -12.666 32.5 -21.999s21.333 -19.333 28 -30s12.334 -23.334 17.001 -38.001s7 -30.667 7 -48c0 -52 -20 -94.333 -60 -127zM208.001 284.001c-0.666992 -7.33301 -0.166992 -13.334 1.5 -18.001s4.5 -9.33398 8.5 -14.001s10.833 -9.16699 20.5 -13.5
s21.5 -8.66602 35.5 -12.999s32.333 -9.83301 55 -16.5h2c24.667 3.33301 43.834 11 57.501 23s20.5 26.333 20.5 43c0 18.667 -7.66699 32.334 -23 41.001s-45 19 -89 31c-4 1.33301 -7.33301 2.33301 -10 3l-2 1c-50.667 -6 -76.334 -28.333 -77.001 -67z" />
    <glyph glyph-name="dieresis" unicode="&#xa8;" horiz-adv-x="429" 
d="M104 718c20 0 36.833 -7 50.5 -21s20.5 -30.833 20.5 -50.5s-6.83301 -36.5 -20.5 -50.5s-30.5 -21 -50.5 -21c-12.667 0 -24.5 3.16699 -35.5 9.5s-19.667 15 -26 26s-9.5 23.167 -9.5 36.5c0 19.333 6.83301 36 20.5 50s30.5 21 50.5 21zM324.5 718
c19.667 0 36.501 -7 50.501 -21s21 -30.833 21 -50.5s-7 -36.5 -21 -50.5s-30.667 -21 -50 -21c-13.333 0 -25.333 3.16699 -36 9.5s-19.334 15 -26.001 26s-10 23.167 -10 36.5c0 19.333 7 36 21 50s30.833 21 50.5 21z" />
    <glyph glyph-name="copyright" unicode="&#xa9;" horiz-adv-x="853" 
d="M427 714c65.333 0 125.669 -16.1689 181.002 -48.502s99.166 -76.5 131.499 -132.5s48.5 -117 48.5 -183c0 -49.333 -9.5 -96.5 -28.5 -141.5s-44.667 -83.667 -77 -116s-70.833 -58.166 -115.5 -77.499s-91.334 -29 -140.001 -29c-65.333 0 -125.833 16.333 -181.5 49
s-99.667 76.834 -132 132.501s-48.5 116.5 -48.5 182.5s16.167 127 48.5 183s76.333 100.167 132 132.5s116.167 48.5 181.5 48.5zM426.503 622.998c-73 0 -135.5 -26.333 -187.5 -79s-78 -117.167 -78 -193.5s26 -141 78 -194s114.5 -79.5 187.5 -79.5
s135.5 26.5 187.5 79.5s78 117.667 78 194s-26 140.833 -78 193.5s-114.5 79 -187.5 79zM424.003 538.998c54 0 103.667 -18.335 149 -55.002l-24 -67c-40.667 28.667 -80.667 42.667 -120 42c-14 0.666992 -26.833 -1.5 -38.5 -6.5s-21.667 -12.167 -30 -21.5
s-15 -20.833 -20 -34.5s-7.5 -29.167 -7.5 -46.5s2.5 -32.833 7.5 -46.5s11.667 -25.167 20 -34.5s18.333 -16.333 30 -21s24.5 -7 38.5 -7c40 0 80.333 14.333 121 43l25 -67c-22 -17.333 -46.333 -31 -73 -41s-52.667 -15 -78 -15c-54.667 0 -99.5 18.333 -134.5 55
s-52.5 81.334 -52.5 134.001s17.5 97.334 52.5 134.001s79.833 55 134.5 55z" />
    <glyph glyph-name="ordfeminine" unicode="&#xaa;" horiz-adv-x="499" 
d="M444 767v-387h-114v37c-36 -32 -75.667 -48 -119 -48c-50 0 -91 19.667 -123 59s-48 87.833 -48 145.5s16 106.167 48 145.5s73 59 123 59c43.333 0 83 -16 119 -48v37h114zM232 462c35.333 0 68 14.999 98 44.999v133c-30 30 -62.667 45 -98 45
c-23.333 0 -42 -10.167 -56 -30.5s-20.667 -47.5 -20 -81.5c-0.666992 -33.333 6 -60.166 20 -80.499s32.667 -30.5 56 -30.5z" />
    <glyph glyph-name="guillemotleft" unicode="&#xab;" horiz-adv-x="668" 
d="M357 454l-189 -169l189 -169l-72 -78l-255 213v67l255 214zM643 454l-190 -169l190 -169l-73 -78l-254 213v67l254 214z" />
    <glyph glyph-name="logicalnot" unicode="&#xac;" horiz-adv-x="600" 
 />
    <glyph glyph-name="registered" unicode="&#xae;" horiz-adv-x="853" 
d="M427 714c65.333 0 125.669 -16.1689 181.002 -48.502s99.166 -76.5 131.499 -132.5s48.5 -117 48.5 -183c0 -49.333 -9.5 -96.5 -28.5 -141.5s-44.667 -83.667 -77 -116s-70.833 -58.166 -115.5 -77.499s-91.334 -29 -140.001 -29c-65.333 0 -125.833 16.333 -181.5 49
s-99.667 76.834 -132 132.501s-48.5 116.5 -48.5 182.5s16.167 127 48.5 183s76.333 100.167 132 132.5s116.167 48.5 181.5 48.5zM426.503 622.998c-73 0 -135.5 -26.333 -187.5 -79s-78 -117.167 -78 -193.5s26 -141 78 -194s114.5 -79.5 187.5 -79.5
s135.5 26.5 187.5 79.5s78 117.667 78 194s-26 140.833 -78 193.5s-114.5 79 -187.5 79zM281.003 528.998h178c30 0 55.833 -10.5 77.5 -31.5s32.5 -47.833 32.5 -80.5c0 -24 -5.83301 -45 -17.5 -63s-27.167 -31.333 -46.5 -40l84 -143h-97l-68 133h-57v-133h-86v358z
M367.003 458.998l0.000976562 -85.001h86c8.66699 0 16.167 3.83301 22.5 11.5s9.5 18.167 9.5 31.5c0.666992 12.667 -2.33301 22.834 -9 30.501s-14.334 11.5 -23.001 11.5h-86z" />
    <glyph glyph-name="macron" unicode="&#xaf;" horiz-adv-x="414" 
d="M379 586h-344v108h344v-108z" />
    <glyph glyph-name="degree" unicode="&#xb0;" horiz-adv-x="418" 
d="M209 846c52 0 94 -16.168 126 -48.501s48 -72.166 48 -119.499s-16 -87.166 -48 -119.499s-74 -48.5 -126 -48.5c-51.333 0 -93.166 16.167 -125.499 48.5s-48.5 72.166 -48.5 119.499c0 48 16.167 88 48.5 120s74.166 48 125.499 48zM209 761.999
c-22 0 -40.167 -7.66504 -54.5 -22.998s-21.5 -35.666 -21.5 -60.999c0 -12.667 1.83301 -24.334 5.5 -35.001s9 -19.5 16 -26.5s15.167 -12.5 24.5 -16.5s19.333 -6 30 -6c22.667 0 41.167 7.66699 55.5 23s21.5 35.666 21.5 60.999s-7.16699 45.666 -21.5 60.999
s-32.833 23 -55.5 23z" />
    <glyph glyph-name="plusminus" unicode="&#xb1;" horiz-adv-x="537" 
d="M513 428v-113h-188v-151h-113v151h-188v113h188v151h113v-151h188zM24 107h489v-114h-489v114z" />
    <glyph glyph-name="twosuperior" unicode="&#xb2;" horiz-adv-x="398" 
d="M364 368v-85.9971h-338v87c0 15.333 3 29.666 9 42.999s12.5 24 19.5 32s18.333 16.5 34 25.5s28.167 15.5 37.5 19.5s24 10 44 18c38 15.333 62.333 26.666 73 33.999s16 17.333 16 30c0 17.333 -6.66699 29.5 -20 36.5s-35.333 10.5 -66 10.5
c-37.333 0 -71.666 -4.33301 -102.999 -13l-37 78c44 17.333 95 26 153 26c118.667 0 178 -43.333 178 -130c0 -10 -1 -19.667 -3 -29s-4 -17.666 -6 -24.999s-6 -14.5 -12 -21.5s-10.5 -12.833 -13.5 -17.5s-9 -9.83398 -18 -15.501s-15.167 -9.66699 -18.5 -12
s-10.5 -6 -21.5 -11s-17.833 -8.16699 -20.5 -9.5s-10.334 -4.33301 -23.001 -9s-19.667 -7.33398 -21 -8.00098c-26 -10 -44 -18.667 -54 -26s-16.333 -16.333 -19 -27h230z" />
    <glyph glyph-name="threesuperior" unicode="&#xb3;" horiz-adv-x="410" 
d="M298 504c24 -9.33301 42.666 -22.667 55.999 -40s20 -37.333 20 -60c0 -26 -8.16699 -49 -24.5 -69s-38.833 -35.333 -67.5 -46s-61.334 -16 -98.001 -16c-59.333 0 -112.333 9 -159 27l40 82c36.667 -13.333 77 -20 121 -20c24 0 43.333 4.16699 58 12.5
s22.334 19.833 23.001 34.5c0 14 -6.16699 25 -18.5 33s-30.166 12 -53.499 12h-73v89h63c20.667 0 36.334 3.33301 47.001 10s16 15.667 16 27c0 12.667 -6.16699 22.667 -18.5 30s-28.833 11 -49.5 11c-34.667 0 -67.334 -5.66699 -98.001 -17l-38 81
c41.333 16 88 24 140 24c33.333 0 63 -5 89 -15s46.167 -24 60.5 -42s21.5 -38.667 21.5 -62c0 -38 -19 -66.667 -57 -86z" />
    <glyph glyph-name="acute" unicode="&#xb4;" horiz-adv-x="343" 
d="M168 565h-133l128 173h145z" />
    <glyph glyph-name="paragraph" unicode="&#xb6;" horiz-adv-x="726" 
d="M656 585h-57.999v-799h-123v799h-65v-799h-123v522h-57c-32 0 -61.5 7.83301 -88.5 23.5s-48.5 38.667 -64.5 69s-24 64.833 -24 103.5c-0.666992 57.333 16.166 104.333 50.499 141s76.5 55 126.5 55h426v-115z" />
    <glyph glyph-name="periodcentered" unicode="&#xb7;" horiz-adv-x="244" 
d="M122 385c23.333 0 43.167 -8.16699 59.5 -24.5s24.5 -36 24.5 -59s-8.16699 -42.667 -24.5 -59s-36 -24.5 -59 -24.5s-42.667 8.16699 -59 24.5s-24.5 36 -24.5 59s8 42.667 24 59s35.667 24.5 59 24.5z" />
    <glyph glyph-name="cedilla" unicode="&#xb8;" horiz-adv-x="341" 
d="M220 16l-17.002 -59.001c2.66699 0 5.66699 -0.333008 9 -1c30 -4.66699 53.667 -15.5 71 -32.5s26 -38.167 26 -63.5c0 -30.667 -12.333 -56.167 -37 -76.5s-58 -30.833 -100 -31.5c-23.333 -0.666992 -48.166 1.83301 -74.499 7.5s-48.166 12.834 -65.499 21.501l30 64
c30 -12 60.667 -18 92 -18c32 0 48 10.667 48 32c0 20.667 -11.333 31 -34 31c-16 0 -32 -3.33301 -48 -10l-20 43l44 93h76z" />
    <glyph glyph-name="onesuperior" unicode="&#xb9;" horiz-adv-x="334" 
d="M228 368h80v-86h-275v86h91v214l-67 -29l-39 78l151 69h59v-332z" />
    <glyph glyph-name="ordmasculine" unicode="&#xba;" horiz-adv-x="497" 
d="M248 780c62 0 112.333 -19.665 151 -58.998s58 -88 58 -146c0 -37.333 -8.5 -71.333 -25.5 -102s-41.5 -55.334 -73.5 -74.001s-68.667 -28 -110 -28c-61.333 0 -111.333 19.667 -150 59s-58 87.666 -58 144.999c0 58 19.333 106.667 58 146s88.667 59 150 59z
M248 685.002c-28.667 0 -51.334 -10 -68.001 -30s-25 -46.667 -25 -80c0 -21.333 3.83301 -40.333 11.5 -57s18.5 -29.5 32.5 -38.5s30.333 -13.5 49 -13.5c28.667 0 51.334 10 68.001 30s25 46.333 25 79c0 22 -3.66699 41.333 -11 58s-18 29.5 -32 38.5
s-30.667 13.5 -50 13.5z" />
    <glyph glyph-name="guillemotright" unicode="&#xbb;" horiz-adv-x="668" 
d="M352 318v-67l-254 -213l-73 78l190 169l-190 169l73 78zM638 318v-67l-254 -213l-73 78l190 169l-190 169l73 78z" />
    <glyph glyph-name="onequarter" unicode="&#xbc;" horiz-adv-x="941" 
d="M755 714l-440 -728h-126l440 728h126zM228 368h80v-86h-275v86h91v214l-67 -29l-39 78l151 69h59v-332zM861 170h55v-86h-55v-84h-104v84h-227v66l216 268h115v-248zM657 170h100v132z" />
    <glyph glyph-name="onehalf" unicode="&#xbd;" horiz-adv-x="980" 
d="M755 714l-440 -728h-126l440 728h126zM124 368v214l-67 -29l-39 78l151 69h59v-332h80v-86h-275v86h91zM946 86l0.000976562 -86.002h-338v87c0 16 3 30.5 9 43.5s12.5 23.5 19.5 31.5s18.167 16.5 33.5 25.5s27.833 15.5 37.5 19.5s24.5 10 44.5 18
c38 15.333 62.333 26.666 73 33.999s16 17.333 16 30c0 17.333 -6.83301 29.5 -20.5 36.5s-35.5 10.5 -65.5 10.5c-37.333 0 -71.666 -4 -102.999 -12l-37 77c44.667 17.333 95.667 26 153 26c118.667 0 178 -43 178 -129c0 -11.333 -0.833008 -22.166 -2.5 -32.499
s-4.83398 -19.666 -9.50098 -27.999s-9 -15.666 -13 -21.999s-10.167 -12.666 -18.5 -18.999s-14.833 -11.333 -19.5 -15s-12.5 -8 -23.5 -13s-18.5 -8.5 -22.5 -10.5s-12.333 -5.33301 -25 -10s-20.334 -7.66699 -23.001 -9c-26.667 -10.667 -45 -19.334 -55 -26.001
s-16 -15.667 -18 -27h230z" />
    <glyph glyph-name="threequarters" unicode="&#xbe;" horiz-adv-x="968" 
d="M781 714l-439 -728h-127l440 728h126zM374 404c0 -39.333 -17.6709 -71 -53.0039 -95s-81 -36 -137 -36c-59.333 0 -112.333 9 -159 27l40 82c36.667 -13.333 77 -20 121 -20c24 0 43.333 4.16699 58 12.5s22.334 19.833 23.001 34.5c0 14 -6.16699 25 -18.5 33
s-30.166 12 -53.499 12h-73v89h63c20.667 0 36.334 3.33301 47.001 10s16 15.667 16 27c0 8.66699 -2.83301 16.167 -8.5 22.5s-13.667 11 -24 14s-22.166 4.5 -35.499 4.5c-34.667 0 -67.334 -5.66699 -98.001 -17l-38 81c41.333 16 88 24 140 24
c50.667 0 91.834 -11 123.501 -33s47.5 -50.667 47.5 -86c0 -38 -19 -66.667 -57 -86c15.333 -6 28.833 -14 40.5 -24s20.5 -21.333 26.5 -34s9 -26.667 9 -42zM942.996 170v-86h-55v-84h-104v84h-227v66l216 268h115v-248h55zM783.996 302l-100 -132h100v132z" />
    <glyph glyph-name="questiondown" unicode="&#xbf;" horiz-adv-x="567" 
d="M337 519c15.333 0 29.5 -3.66797 42.5 -11.001s23.167 -17.5 30.5 -30.5s11 -26.833 11 -41.5c0 -23.333 -8.16699 -43.166 -24.5 -59.499s-36 -24.5 -59 -24.5s-42.667 8.16699 -59 24.5s-24.5 36 -24.5 59s8.16699 42.667 24.5 59s35.833 24.5 58.5 24.5zM402 294.999
l2 -64.001c1.33301 -30.667 -5.5 -54.834 -20.5 -72.501s-42.833 -35.167 -83.5 -52.5c-14.667 -6.66699 -24.834 -11.334 -30.501 -14.001s-13.334 -6.66699 -23.001 -12s-16.334 -9.83301 -20.001 -13.5s-7.66699 -8.5 -12 -14.5s-7.16602 -12.333 -8.49902 -19
s-2 -14.334 -2 -23.001c0 -32 9.33301 -54.167 28 -66.5s46.334 -18.5 83.001 -18.5c48.667 0 98.667 7.66699 150 23l62 -103c-66.667 -30 -141.667 -45 -225 -45c-34.667 0 -66 3.33301 -94 10s-54.167 17.334 -78.5 32.001s-43.166 36 -56.499 64s-20 61.333 -20 100
c0 23.333 2.83301 44.333 8.5 63s12.834 34.334 21.501 47.001s21.167 24.834 37.5 36.501s32.166 21.334 47.499 29.001s35.333 16.834 60 27.501c16.667 7.33301 28.5 14.166 35.5 20.499s10.5 15.5 10.5 27.5l1 38h127z" />
    <glyph glyph-name="Agrave" unicode="&#xc0;" horiz-adv-x="754" 
d="M442 765h-133l-140 173h145zM729 0h-161l-49 138h-284l-49 -138h-161l273 700h158zM278 261h198l-99 276z" />
    <glyph glyph-name="Aacute" unicode="&#xc1;" horiz-adv-x="754" 
d="M438 765h-133l128 173h145zM729 0h-161l-49 138h-284l-49 -138h-161l273 700h158zM278 261h198l-99 276z" />
    <glyph glyph-name="Acircumflex" unicode="&#xc2;" horiz-adv-x="754" 
d="M303 764h-136l141 173h138l141 -173h-136l-74 101zM729 0h-161l-49 138h-284l-49 -138h-161l273 700h158zM476 261l-99 276l-99 -276h198z" />
    <glyph glyph-name="Atilde" unicode="&#xc3;" horiz-adv-x="754" 
d="M311 932c16.667 0 31.9961 -3.66699 45.9961 -11s30 -18 48 -32c20.667 -16 36 -24 46 -24c18.667 0 40.334 20 65.001 60l60 -50c-11.333 -18.667 -20.5 -32.667 -27.5 -42s-16.167 -20.166 -27.5 -32.499s-23.333 -21.333 -36 -27s-26 -8.5 -40 -8.5
c-13.333 0 -26.333 2.5 -39 7.5s-22.167 9.83301 -28.5 14.5s-15.5 11.667 -27.5 21c-20.667 16 -36.667 24 -48 24c-17.333 0 -38.666 -20 -63.999 -60l-60 50c10.667 17.333 19.334 30.666 26.001 39.999s15.834 20.333 27.501 33s24 22 37 28s27.167 9 42.5 9zM728.996 0
h-161l-49 138h-284l-49 -138h-161l273 700h158zM277.996 261h198l-99 276z" />
    <glyph glyph-name="Adieresis" unicode="&#xc4;" horiz-adv-x="754" 
d="M266.5 918c19.667 0 36.5 -7.00195 50.5 -21.002s21 -30.833 21 -50.5s-7 -36.5 -21 -50.5s-30.667 -21 -50 -21c-10 0 -19.333 1.83301 -28 5.5s-16.167 8.83398 -22.5 15.501s-11.5 14.334 -15.5 23.001s-6 18 -6 28c0 19.333 7 36 21 50s30.833 21 50.5 21z
M487.5 917.998c19.667 0 36.5 -7 50.5 -21s21 -30.833 21 -50.5s-7 -36.5 -21 -50.5s-30.667 -21 -50 -21c-13.333 0 -25.5 3.16699 -36.5 9.5s-19.667 15 -26 26s-9.5 23.167 -9.5 36.5c0 19.333 7 36 21 50s30.833 21 50.5 21zM729 -0.00195312h-161l-49 138h-284
l-49 -138h-161l273 700h158zM278 260.998h198l-99 276z" />
    <glyph glyph-name="Aring" unicode="&#xc5;" horiz-adv-x="754" 
d="M377 997c26.667 0 50.168 -5.83496 70.501 -17.502s35.833 -27.167 46.5 -46.5s16 -41 16 -65c0 -36 -12.167 -66.333 -36.5 -91s-56.5 -37 -96.5 -37c-19.333 0 -37.333 3.33301 -54 10s-30.834 15.834 -42.501 27.501s-20.667 25.334 -27 41.001s-9.5 32.167 -9.5 49.5
c0 24 5.5 45.833 16.5 65.5s26.667 35.167 47 46.5s43.5 17 69.5 17zM377.001 922.998c-14.667 0 -26.667 -4.99805 -36 -14.998s-14 -23.333 -14 -40s4.66699 -30 14 -40s21.333 -15 36 -15s26.667 5 36 15s14 23.333 14 40c0 11.333 -2.16699 21.166 -6.5 29.499
s-10.333 14.666 -18 18.999s-16.167 6.5 -25.5 6.5zM729.001 0h-161l-49 138h-284l-49 -138h-161l273 700h158zM278.001 261h198l-99 276z" />
    <glyph glyph-name="AE" unicode="&#xc6;" horiz-adv-x="1014" 
d="M969 123v-123h-507v138h-209l-67 -138h-161l360 700h138h436v-123h-348v-149h309v-123h-309v-182h358zM462 261v312l-150 -312h150z" />
    <glyph glyph-name="Ccedilla" unicode="&#xc7;" horiz-adv-x="759" 
d="M428 -44c30 -4.66699 53.6689 -15.5 71.002 -32.5s26 -38.167 26 -63.5c0 -30.667 -12.333 -56.167 -37 -76.5s-58 -30.833 -100 -31.5c-9.33301 0 -19.166 0.333008 -29.499 1s-20.5 1.83398 -30.5 3.50098s-19.833 3.83398 -29.5 6.50098s-18.834 5.5 -27.501 8.5
s-16.334 6.16699 -23.001 9.5l30 64c30 -12 60.667 -18 92 -18c32 0 48 10.667 48 32c0 20.667 -11.333 31 -34 31c-16 0 -32 -3.33301 -48 -10l-20 43l33 70c-84.667 16 -152.667 57.167 -204 123.5s-77 144.166 -77 233.499c0 67.333 14.5 128.666 43.5 183.999
s70.667 99.166 125 131.499s116.166 48.5 185.499 48.5c22.667 0 45.834 -2.16699 69.501 -6.5s47.167 -10.5 70.5 -18.5s46.666 -18.333 69.999 -31s45.333 -27 66 -43l-38 -105c-76 48.667 -152.333 73 -229 73c-62 0 -112.5 -20.833 -151.5 -62.5
s-58.5 -98.5 -58.5 -170.5c0 -48 9 -89.667 27 -125s42.833 -62.166 74.5 -80.499s68.167 -27.5 109.5 -27.5c76.667 0 153.667 25 231 75l38 -105c-41.333 -32 -86 -56.667 -134 -74s-94.333 -26.333 -139 -27l-9 -29c3.33301 -0.666992 6.33301 -1 9 -1z" />
    <glyph glyph-name="Egrave" unicode="&#xc8;" horiz-adv-x="635" 
d="M267 765l-140 173h145l129 -173h-134zM590 123v-123h-507v700h497v-123h-348v-149h309v-123h-309v-182h358z" />
    <glyph glyph-name="Eacute" unicode="&#xc9;" horiz-adv-x="635" 
d="M397 765h-133l128 173h145zM590 123v-123h-507v700h497v-123h-348v-149h309v-123h-309v-182h358z" />
    <glyph glyph-name="Ecircumflex" unicode="&#xca;" horiz-adv-x="635" 
d="M262 764h-136l141 173h138l141 -173h-136l-74 101zM590 123v-123h-507v700h497v-123h-348v-149h309v-123h-309v-182h358z" />
    <glyph glyph-name="Edieresis" unicode="&#xcb;" horiz-adv-x="635" 
d="M226 775c-10 0 -19.3311 1.83105 -27.998 5.49805s-16.334 8.83398 -23.001 15.501s-11.834 14.334 -15.501 23.001s-5.5 18 -5.5 28c0 19.333 7 36 21 50s30.833 21 50.5 21s36.5 -7 50.5 -21s21 -30.833 21 -50.5s-7 -36.5 -21 -50.5s-30.667 -21 -50 -21z
M446.002 774.998c-12.667 0 -24.5 3.16699 -35.5 9.5s-19.667 15 -26 26s-9.5 23.167 -9.5 36.5c0 19.333 7 36 21 50s30.833 21 50.5 21s36.5 -7 50.5 -21s21 -30.833 21 -50.5s-7 -36.5 -21 -50.5s-31 -21 -51 -21zM590.002 122.998v-123h-507v700h497v-123h-348v-149h309
v-123h-309v-182h358z" />
    <glyph glyph-name="Igrave" unicode="&#xcc;" horiz-adv-x="315" 
d="M222 765h-133l-140 173h145zM232 0h-149v700h149v-700z" />
    <glyph glyph-name="Iacute" unicode="&#xcd;" horiz-adv-x="315" 
d="M218 765h-133l128 173h145zM232 0h-149v700h149v-700z" />
    <glyph glyph-name="Icircumflex" unicode="&#xce;" horiz-adv-x="315" 
d="M83 764h-136l141 173h138l141 -173h-136l-74 101zM83 700h149v-700h-149v700z" />
    <glyph glyph-name="Idieresis" unicode="&#xcf;" horiz-adv-x="315" 
d="M46.5 918c19.667 0 36.501 -7 50.501 -21s21 -30.833 21 -50.5s-7 -36.5 -21 -50.5s-30.667 -21 -50 -21c-13.333 0 -25.333 3.16699 -36 9.5s-19.334 15 -26.001 26s-10 23.167 -10 36.5c0 19.333 7 36 21 50s30.833 21 50.5 21zM267.501 918
c19.667 0 36.5 -7.00195 50.5 -21.002s21 -30.833 21 -50.5s-7 -36.5 -21 -50.5s-30.667 -21 -50 -21c-10 0 -19.333 1.83301 -28 5.5s-16.167 8.83398 -22.5 15.501s-11.5 14.334 -15.5 23.001s-6 18 -6 28c0 19.333 7 36 21 50s30.833 21 50.5 21zM232.001 -0.00195312
h-149v700h149v-700z" />
    <glyph glyph-name="Eth" unicode="&#xd0;" horiz-adv-x="776" 
d="M83 700h280c103.333 0 186.666 -32.833 249.999 -98.5s95 -149.5 95 -251.5s-31.667 -185.833 -95 -251.5s-146.666 -98.5 -249.999 -98.5h-280v293h-85v114h85v293zM232 123l119 0.00195312c41.333 0 77.666 9.33301 108.999 28s55.333 45.167 72 79.5
s25 74.166 25 119.499s-8.33301 85.166 -25 119.499s-40.667 60.833 -72 79.5s-67.666 28 -108.999 28h-119v-170h149v-114h-149v-170z" />
    <glyph glyph-name="Ntilde" unicode="&#xd1;" horiz-adv-x="770" 
d="M310 832c-18 0 -39.334 -20 -64.001 -60l-60 50c10.667 17.333 19.334 30.666 26.001 39.999s15.834 20.333 27.501 33s24 22 37 28s27.167 9 42.5 9c16.667 0 32 -3.66699 46 -11s30 -18 48 -32c20 -16 35.333 -24 46 -24c18.667 0 40.334 20 65.001 60l60 -50
c-11.333 -18.667 -20.5 -32.667 -27.5 -42s-16.167 -20.166 -27.5 -32.499s-23.333 -21.333 -36 -27s-26.334 -8.5 -41.001 -8.5c-12.667 0 -25.334 2.5 -38.001 7.5s-22.167 9.83301 -28.5 14.5s-15.5 11.667 -27.5 21c-20.667 16 -36.667 24 -48 24zM691.999 700v-700
h-133l-336 458v-458h-145v700h133l336 -462v462h145z" />
    <glyph glyph-name="Ograve" unicode="&#xd2;" 
d="M492 765h-133l-140 173h145zM428 714c53.333 0 102.666 -9.49805 147.999 -28.498s83.333 -45 114 -78s54.667 -71.667 72 -116s26 -91.5 26 -141.5c0 -67.333 -14.667 -128.5 -44 -183.5s-71.666 -98.833 -126.999 -131.5s-118.333 -49 -189 -49
s-133.667 16.333 -189 49s-97.666 76.5 -126.999 131.5s-44 116.167 -44 183.5s14.667 128.666 44 183.999s71.666 99.166 126.999 131.499s118.333 48.5 189 48.5zM428 583.002c-61.333 0 -111.166 -21.833 -149.499 -65.5s-57.5 -99.5 -57.5 -167.5
s19.167 -123.833 57.5 -167.5s88.166 -65.5 149.499 -65.5s111.166 21.833 149.499 65.5s57.5 99.5 57.5 167.5s-19.167 123.833 -57.5 167.5s-88.166 65.5 -149.499 65.5z" />
    <glyph glyph-name="Oacute" unicode="&#xd3;" 
d="M488 765h-133l128 173h145zM428 714c53.333 0 102.666 -9.49805 147.999 -28.498s83.333 -45 114 -78s54.667 -71.667 72 -116s26 -91.5 26 -141.5c0 -67.333 -14.667 -128.5 -44 -183.5s-71.666 -98.833 -126.999 -131.5s-118.333 -49 -189 -49s-133.667 16.333 -189 49
s-97.666 76.5 -126.999 131.5s-44 116.167 -44 183.5s14.667 128.666 44 183.999s71.666 99.166 126.999 131.499s118.333 48.5 189 48.5zM428 583.002c-61.333 0 -111.166 -21.833 -149.499 -65.5s-57.5 -99.5 -57.5 -167.5s19.167 -123.833 57.5 -167.5
s88.166 -65.5 149.499 -65.5s111.166 21.833 149.499 65.5s57.5 99.5 57.5 167.5s-19.167 123.833 -57.5 167.5s-88.166 65.5 -149.499 65.5z" />
    <glyph glyph-name="Ocircumflex" unicode="&#xd4;" 
d="M354 764h-136l141 173h137l142 -173h-137l-73 101zM428 714c53.333 0 102.666 -9.49805 147.999 -28.498s83.333 -45 114 -78s54.667 -71.667 72 -116s26 -91.5 26 -141.5c0 -67.333 -14.667 -128.5 -44 -183.5s-71.666 -98.833 -126.999 -131.5s-118.333 -49 -189 -49
s-133.667 16.333 -189 49s-97.666 76.5 -126.999 131.5s-44 116.167 -44 183.5s14.667 128.666 44 183.999s71.666 99.166 126.999 131.499s118.333 48.5 189 48.5zM428 117.002c61.333 0 111.166 21.833 149.499 65.5s57.5 99.5 57.5 167.5s-19.167 123.833 -57.5 167.5
s-88.166 65.5 -149.499 65.5s-111.166 -21.833 -149.499 -65.5s-57.5 -99.5 -57.5 -167.5s19.167 -123.833 57.5 -167.5s88.166 -65.5 149.499 -65.5z" />
    <glyph glyph-name="Otilde" unicode="&#xd5;" 
d="M361 932c12 0 23.834 -2.33105 35.501 -6.99805s21.5 -9.5 29.5 -14.5s17.667 -12.167 29 -21.5c20.667 -16 36 -24 46 -24c18.667 0 40.667 20 66 60l60 -50c-9.33301 -14.667 -16.666 -25.834 -21.999 -33.501s-12.666 -17.167 -21.999 -28.5s-17.833 -20 -25.5 -26
s-17 -11.167 -28 -15.5s-22.5 -6.5 -34.5 -6.5c-12.667 0 -25.334 2.5 -38.001 7.5s-22.334 9.83301 -29.001 14.5s-16 11.667 -28 21c-20 16 -35.667 24 -47 24c-18 0 -39.667 -20 -65 -60l-60 50c11.333 17.333 20.333 30.666 27 39.999s15.667 20.333 27 33
s23.666 22 36.999 28s27.333 9 42 9zM428.001 714.002c70.667 0 133.667 -16.3311 189 -48.998s97.666 -76.5 126.999 -131.5s44 -116.167 44 -183.5s-14.667 -128.5 -44 -183.5s-71.666 -98.833 -126.999 -131.5s-118.333 -49 -189 -49s-133.667 16.333 -189 49
s-97.666 76.5 -126.999 131.5s-44 116.167 -44 183.5s14.667 128.666 44 183.999s71.666 99.166 126.999 131.499s118.333 48.5 189 48.5zM428.001 583.004c-61.333 0 -111.166 -21.833 -149.499 -65.5s-57.5 -99.5 -57.5 -167.5s19.167 -123.833 57.5 -167.5
s88.166 -65.5 149.499 -65.5s111.166 21.833 149.499 65.5s57.5 99.5 57.5 167.5s-19.167 123.833 -57.5 167.5s-88.166 65.5 -149.499 65.5z" />
    <glyph glyph-name="Odieresis" unicode="&#xd6;" 
d="M317.5 918c19.667 0 36.501 -7 50.501 -21s21 -30.667 21 -50c0 -13.333 -3.33301 -25.5 -10 -36.5s-15.334 -19.667 -26.001 -26s-22.667 -9.5 -36 -9.5c-19.333 0 -36 7 -50 21s-21 30.833 -21 50.5s7 36.5 21 50.5s30.833 21 50.5 21zM538.001 918
c20 0 36.833 -7 50.5 -21s20.5 -30.833 20.5 -50.5s-6.83301 -36.5 -20.5 -50.5s-30.5 -21 -50.5 -21s-36.833 7 -50.5 21s-20.5 31 -20.5 51c0 9.33301 1.83301 18.5 5.5 27.5s8.66699 16.667 15 23s13.833 11.333 22.5 15s18 5.5 28 5.5zM428.001 714
c70.667 0 133.667 -16.3311 189 -48.998s97.666 -76.5 126.999 -131.5s44 -116.167 44 -183.5s-14.667 -128.5 -44 -183.5s-71.666 -98.833 -126.999 -131.5s-118.333 -49 -189 -49s-133.667 16.333 -189 49s-97.666 76.5 -126.999 131.5s-44 116.167 -44 183.5
s14.667 128.666 44 183.999s71.666 99.166 126.999 131.499s118.333 48.5 189 48.5zM428.001 583.002c-61.333 0 -111.166 -21.833 -149.499 -65.5s-57.5 -99.5 -57.5 -167.5s19.167 -123.833 57.5 -167.5s88.166 -65.5 149.499 -65.5s111.166 21.833 149.499 65.5
s57.5 99.5 57.5 167.5s-19.167 123.833 -57.5 167.5s-88.166 65.5 -149.499 65.5z" />
    <glyph glyph-name="multiply" unicode="&#xd7;" horiz-adv-x="513" 
d="M478 432l-141 -141l141 -141l-81 -80l-141 141l-141 -141l-80 80l141 141l-141 141l80 81l141 -142l141 142z" />
    <glyph glyph-name="Oslash" unicode="&#xd8;" 
d="M673 750l-44 -94.999c49.333 -32.667 88.166 -75.834 116.499 -129.501s42.5 -112.167 42.5 -175.5c0 -67.333 -14.667 -128.5 -44 -183.5s-71.666 -98.833 -126.999 -131.5s-118.333 -49 -189 -49c-37.333 0 -72.666 4.66699 -105.999 14l-24 -50h-116l44 93
c-50 32.667 -88.833 75.834 -116.5 129.501s-41.5 112.834 -41.5 177.501c0 67.333 14.667 128.666 44 183.999s71.666 99.166 126.999 131.499s118.333 48.5 189 48.5c36.667 0 72 -5 106 -15l24 51h115zM221 350.001c0 -74 21.999 -133 65.999 -177l190 404
c-16 4 -32.333 6 -49 6c-61.333 0 -111.166 -21.833 -149.499 -65.5s-57.5 -99.5 -57.5 -167.5zM427.999 117.001c61.333 0 111.167 21.833 149.5 65.5s57.5 99.5 57.5 167.5c0 74 -22 133 -66 177l-190 -404c16 -4 32.333 -6 49 -6z" />
    <glyph glyph-name="Ugrave" unicode="&#xd9;" horiz-adv-x="762" 
d="M447 765h-133l-140 173h145zM684 700l0.000976562 -448c0 -80 -28.833 -144.333 -86.5 -193s-128.834 -73 -213.501 -73c-85.333 0 -156.833 24.5 -214.5 73.5s-86.5 113.167 -86.5 192.5v448h149v-448c0 -42.667 14.167 -76.334 42.5 -101.001s64.833 -37 109.5 -37
c44 0 80.167 12.333 108.5 37s42.5 58.334 42.5 101.001v448h149z" />
    <glyph glyph-name="Uacute" unicode="&#xda;" horiz-adv-x="762" 
d="M443 765h-133l128 173h145zM684 700l0.000976562 -448c0 -80 -28.833 -144.333 -86.5 -193s-128.834 -73 -213.501 -73c-85.333 0 -156.833 24.5 -214.5 73.5s-86.5 113.167 -86.5 192.5v448h149v-448c0 -42.667 14.167 -76.334 42.5 -101.001s64.833 -37 109.5 -37
c44 0 80.167 12.333 108.5 37s42.5 58.334 42.5 101.001v448h149z" />
    <glyph glyph-name="Ucircumflex" unicode="&#xdb;" horiz-adv-x="762" 
d="M308 764h-136l141 173h138l141 -173h-136l-74 101zM684 700l0.000976562 -448c0 -80 -28.833 -144.333 -86.5 -193s-128.834 -73 -213.501 -73c-85.333 0 -156.833 24.5 -214.5 73.5s-86.5 113.167 -86.5 192.5v448h149v-448c0 -42.667 14.167 -76.334 42.5 -101.001
s64.833 -37 109.5 -37c44 0 80.167 12.333 108.5 37s42.5 58.334 42.5 101.001v448h149z" />
    <glyph glyph-name="Udieresis" unicode="&#xdc;" horiz-adv-x="762" 
d="M272 918c20 0 36.833 -7.00195 50.5 -21.002s20.5 -30.833 20.5 -50.5s-6.83301 -36.5 -20.5 -50.5s-30.5 -21 -50.5 -21c-10 0 -19.333 1.83301 -28 5.5s-16.167 8.83398 -22.5 15.501s-11.5 14.334 -15.5 23.001s-6 18 -6 28c0 19.333 7 36 21 50s31 21 51 21z
M492.5 917.998c19.667 0 36.5 -7 50.5 -21s21 -30.833 21 -50.5s-7 -36.5 -21 -50.5s-30.667 -21 -50 -21c-13.333 0 -25.5 3.16699 -36.5 9.5s-19.667 15 -26 26s-9.5 23.167 -9.5 36.5c0 19.333 7 36 21 50s30.833 21 50.5 21zM684 699.998l0.000976562 -448
c0 -80 -28.833 -144.333 -86.5 -193s-128.834 -73 -213.501 -73c-85.333 0 -156.833 24.5 -214.5 73.5s-86.5 113.167 -86.5 192.5v448h149v-448c0 -42.667 14.167 -76.334 42.5 -101.001s64.833 -37 109.5 -37c44 0 80.167 12.333 108.5 37s42.5 58.334 42.5 101.001v448
h149z" />
    <glyph glyph-name="Yacute" unicode="&#xdd;" horiz-adv-x="721" 
d="M423 765h-133l128 173h145zM433 253v-253h-149v252l-259 448h167l168 -302l169 302h167z" />
    <glyph glyph-name="Thorn" unicode="&#xde;" horiz-adv-x="696" 
d="M232 590h204c58 0 107.167 -21.333 147.5 -64s60.5 -98 60.5 -166s-20.167 -123.333 -60.5 -166s-89.5 -64 -147.5 -64h-204v-130h-149v700h149v-110zM500 361c0 33.333 -8 59.333 -24 78s-35.333 28 -58 28h-186v-214h186c22.667 0 42 9.5 58 28.5s24 45.5 24 79.5z" />
    <glyph glyph-name="germandbls" unicode="&#xdf;" horiz-adv-x="738" 
d="M334 750c75.333 0 134.997 -15.6738 178.997 -47.0068s68.333 -73.666 73 -126.999c4 -36.667 -3.5 -64.834 -22.5 -84.501s-50.167 -38.5 -93.5 -56.5c-10 -5.33301 -17.833 -9.66602 -23.5 -12.999s-11.667 -7.66602 -18 -12.999s-10.666 -11.333 -12.999 -18
s-3.5 -14.334 -3.5 -23.001c0.666992 -14 6.83398 -24.333 18.501 -31s37.167 -15 76.5 -25c12.667 -3.33301 22.834 -6.16602 30.501 -8.49902s18.667 -6.16602 33 -11.499s26 -10.666 35 -15.999s19.167 -12.5 30.5 -21.5s20.166 -18.5 26.499 -28.5
s11.833 -22.167 16.5 -36.5s6.66699 -29.833 6 -46.5c-0.666992 -28 -7.83398 -52.667 -21.501 -74s-31.334 -37.833 -53.001 -49.5s-44.5 -20.167 -68.5 -25.5s-49.333 -8 -76 -8c-43.333 0 -84.666 7.66699 -123.999 23s-68.666 37 -87.999 65l69 77
c12 -15.333 30.5 -27.833 55.5 -37.5s51.5 -14.5 79.5 -14.5c27.333 0 49 4.66699 65 14s24 21.666 24 36.999c0 14 -6.33301 24.167 -19 30.5s-36.667 14.5 -72 24.5c-21.333 5.33301 -38.166 10 -50.499 14s-26.333 9.16699 -42 15.5s-28 13 -37 20
s-17.833 15.5 -26.5 25.5s-15 21.5 -19 34.5s-6.33301 27.833 -7 44.5c-0.666992 14 0 26.833 2 38.5s6 22.167 12 31.5s11.167 17 15.5 23s11.166 12.333 20.499 19s15.333 10.834 18 12.501s8.66699 5.16699 18 10.5c2.66699 0.666992 6.33398 2.33398 11.001 5.00098
c30.667 14.667 50.667 25.834 60 33.501s13.333 18.5 12 32.5c-2 20 -12 36 -30 48s-44 18 -78 18c-36 0 -63.667 -7.16699 -83 -21.5s-29 -35.166 -29 -62.499v-547h-140v532c0 72 22.333 126.333 67 163s106 55 184 55z" />
    <glyph glyph-name="agrave" unicode="&#xe0;" horiz-adv-x="627" 
d="M258 565l-140 173h145l128 -173h-133zM565 500l-0.000976562 -500.001h-140v54c-48 -45.333 -101.667 -68 -161 -68c-42 0 -79.5 11.833 -112.5 35.5s-58.5 55.5 -76.5 95.5s-27 84.333 -27 133c0 74.667 20.333 137.334 61 188.001s92.334 76 155.001 76
c59.333 0 113 -22.667 161 -68v54h140zM294.999 103.999c13.333 0 27.3301 2.16699 41.9971 6.5s29.834 11 45.501 20s29.834 19.833 42.501 32.5v174c-19.333 18.667 -40.666 33.167 -63.999 43.5s-45.333 15.5 -66 15.5c-22 0 -40.833 -6 -56.5 -18s-27.667 -29 -36 -51
s-12.5 -47.667 -12.5 -77s4 -55 12 -77s20 -39 36 -51s35 -18 57 -18z" />
    <glyph glyph-name="aacute" unicode="&#xe1;" horiz-adv-x="627" 
d="M387 565h-133l128 173h145zM565 500l-0.000976562 -500.001h-140v54c-48 -45.333 -101.667 -68 -161 -68c-42 0 -79.5 11.833 -112.5 35.5s-58.5 55.5 -76.5 95.5s-27 84.333 -27 133c0 74.667 20.333 137.334 61 188.001s92.334 76 155.001 76
c59.333 0 113 -22.667 161 -68v54h140zM294.999 103.999c20.667 0 42.667 5.16699 66 15.5s44.666 24.833 63.999 43.5v174c-19.333 18.667 -40.666 33.167 -63.999 43.5s-45.333 15.5 -66 15.5c-16.667 0 -31.5 -3.5 -44.5 -10.5s-24 -16.833 -33 -29.5
s-15.833 -28 -20.5 -46s-7 -38 -7 -60c0 -29.333 4 -55 12 -77s20 -39 36 -51s35 -18 57 -18z" />
    <glyph glyph-name="acircumflex" unicode="&#xe2;" horiz-adv-x="627" 
d="M252 564h-136l141 173h138l141 -173h-136l-74 101zM565 500l-0.000976562 -500.001h-140v54c-48 -45.333 -101.667 -68 -161 -68c-42 0 -79.5 11.833 -112.5 35.5s-58.5 55.5 -76.5 95.5s-27 84.333 -27 133c0 74.667 20.333 137.334 61 188.001s92.334 76 155.001 76
c59.333 0 113 -22.667 161 -68v54h140zM294.999 103.999c13.333 0 27.3311 2.16699 41.998 6.5s29.834 11 45.501 20s29.834 19.833 42.501 32.5v174c-19.333 18.667 -40.666 33.167 -63.999 43.5s-45.333 15.5 -66 15.5c-32.667 0 -58.334 -13.167 -77.001 -39.5
s-28 -61.833 -28 -106.5c0 -29.333 4 -55 12 -77s20 -39 36 -51s35 -18 57 -18z" />
    <glyph glyph-name="atilde" unicode="&#xe3;" horiz-adv-x="627" 
d="M251 632c-17.333 0 -38.6709 -20 -64.0039 -60l-60 50c10.667 17.333 19.334 30.666 26.001 39.999s15.834 20.333 27.501 33s24 22 37 28s27.167 9 42.5 9c16.667 0 32 -3.66699 46 -11s30 -18 48 -32c20.667 -16 36 -24 46 -24c18.667 0 40.334 20 65.001 60l60 -50
c-11.333 -18.667 -20.5 -32.667 -27.5 -42s-16.167 -20.166 -27.5 -32.499s-23.166 -21.333 -35.499 -27s-25.833 -8.5 -40.5 -8.5c-13.333 0 -26.333 2.5 -39 7.5s-22.167 9.83301 -28.5 14.5s-15.5 11.667 -27.5 21c-20.667 16 -36.667 24 -48 24zM564.995 500
l-0.000976562 -500.001h-140v54c-48 -45.333 -101.667 -68 -161 -68c-42 0 -79.5 11.833 -112.5 35.5s-58.5 55.5 -76.5 95.5s-27 84.333 -27 133c0 74.667 20.333 137.334 61 188.001s92.334 76 155.001 76c59.333 0 113 -22.667 161 -68v54h140zM294.994 103.999
c20.667 0 42.668 5.16699 66.001 15.5s44.666 24.833 63.999 43.5v174c-19.333 18.667 -40.666 33.167 -63.999 43.5s-45.333 15.5 -66 15.5c-32.667 0 -58.334 -13.167 -77.001 -39.5s-28 -61.833 -28 -106.5c0 -29.333 4 -55 12 -77s20 -39 36 -51s35 -18 57 -18z" />
    <glyph glyph-name="adieresis" unicode="&#xe4;" horiz-adv-x="627" 
d="M216 575c-10 0 -19.333 1.83105 -28 5.49805s-16.167 8.83398 -22.5 15.501s-11.5 14.334 -15.5 23.001s-6 18 -6 28c0 19.333 7 36 21 50s30.833 21 50.5 21s36.5 -7 50.5 -21s21 -30.833 21 -50.5s-7 -36.5 -21 -50.5s-30.667 -21 -50 -21zM437 574.998
c-13.333 0 -25.5 3.16699 -36.5 9.5s-19.667 15 -26 26s-9.5 23.167 -9.5 36.5c0 19.333 7 36 21 50s30.833 21 50.5 21s36.5 -7 50.5 -21s21 -30.833 21 -50.5s-7 -36.5 -21 -50.5s-30.667 -21 -50 -21zM565 499.998l-0.000976562 -500.001h-140v54
c-48 -45.333 -101.667 -68 -161 -68c-42 0 -79.5 11.833 -112.5 35.5s-58.5 55.5 -76.5 95.5s-27 84.333 -27 133c0 74.667 20.333 137.334 61 188.001s92.334 76 155.001 76c59.333 0 113 -22.667 161 -68v54h140zM294.999 103.997c13.333 0 27.3301 2.16699 41.9971 6.5
s29.834 11 45.501 20s29.834 19.833 42.501 32.5v174c-19.333 18.667 -40.666 33.167 -63.999 43.5s-45.333 15.5 -66 15.5c-22 0 -40.833 -6 -56.5 -18s-27.667 -29 -36 -51s-12.5 -47.667 -12.5 -77s4 -55 12 -77s20 -39 36 -51s35 -18 57 -18z" />
    <glyph glyph-name="aring" unicode="&#xe5;" horiz-adv-x="627" 
d="M326 540c-39.333 0 -71.333 12.332 -96 36.999s-37 55 -37 91c0 36.667 12.333 67.334 37 92.001s56.667 37 96 37c40 0 72.167 -12.333 96.5 -37s36.5 -55.167 36.5 -91.5s-12.167 -66.833 -36.5 -91.5s-56.5 -37 -96.5 -37zM326 722.999
c-14.667 0 -26.667 -4.99805 -36 -14.998s-14 -23.333 -14 -40s4.66699 -30 14 -40s21.333 -15 36 -15s26.667 5 36 15s14 23.333 14 40c0 11.333 -2.16699 21.166 -6.5 29.499s-10.333 14.666 -18 18.999s-16.167 6.5 -25.5 6.5zM565 500.001l-0.000976562 -500.001h-140
v54c-48 -45.333 -101.667 -68 -161 -68c-42 0 -79.5 11.833 -112.5 35.5s-58.5 55.5 -76.5 95.5s-27 84.333 -27 133c0 74.667 20.333 137.334 61 188.001s92.334 76 155.001 76c59.333 0 113 -22.667 161 -68v54h140zM294.999 104c10 0 20.499 1.33105 31.499 3.99805
s22 6.33398 33 11.001s22.167 10.834 33.5 18.501s22 16.167 32 25.5v174c-19.333 18.667 -40.666 33.167 -63.999 43.5s-45.333 15.5 -66 15.5c-22 0 -40.833 -6 -56.5 -18s-27.667 -29 -36 -51s-12.5 -47.667 -12.5 -77s4 -55 12 -77s20 -39 36 -51s35 -18 57 -18z" />
    <glyph glyph-name="ae" unicode="&#xe6;" horiz-adv-x="940" 
d="M268 514c32.667 0 66.334 -6.99609 101.001 -20.9961s67 -34.333 97 -61c48.667 55.333 111.667 82.666 189 81.999c78 0 138.333 -25.5 181 -76.5s63 -117.167 61 -198.5c0 -7.33301 -0.333008 -15 -1 -23h-350c0.666992 -4.66699 1.66699 -9 3 -13
c6.66699 -32.667 20.667 -58 42 -76s48 -27 80 -27c45.333 0 96.333 13.667 153 41l32 -87c-58.667 -45.333 -124.667 -68 -198 -68c-78.667 0 -142.334 27.667 -191.001 83c-16 -14 -32.5 -26.333 -49.5 -37s-34 -19.334 -51 -26.001s-33.833 -11.667 -50.5 -15
s-32.667 -5 -48 -5c-65.333 0 -118.333 25.167 -159 75.5s-61 113.166 -61 188.499s20.333 138.166 61 188.499s93.667 75.5 159 75.5zM658 400.004c-28.667 0 -52.5 -8.83301 -71.5 -26.5s-31.833 -41.5 -38.5 -71.5h212c-9.33301 65.333 -43.333 98 -102 98zM296 396.004
c-32.667 0 -58.499 -13 -77.499 -39s-28.5 -61.667 -28.5 -107s9.16699 -81 27.5 -107s44.166 -39 77.499 -39c42.667 0 83.667 16.667 123 50c-10.667 30 -16 62 -16 96s5.33301 66 16 96c-39.333 33.333 -80 50 -122 50z" />
    <glyph glyph-name="ccedilla" unicode="&#xe7;" horiz-adv-x="553" 
d="M320 -44c30.667 -4.66699 54.668 -15.5 72.001 -32.5s25.666 -38.167 24.999 -63.5c0.666992 -30.667 -11.333 -56.167 -36 -76.5s-58 -30.833 -100 -31.5c-23.333 -0.666992 -48.333 1.83301 -75 7.5s-48.667 12.834 -66 21.501l30 64c30.667 -12 61.667 -18 93 -18
s47.333 10.667 48 32c-0.666992 20.667 -12 31 -34 31c-16.667 0 -33 -3.33301 -49 -10l-20 43l34 71c-58.667 14 -105.334 44.5 -140.001 91.5s-52 101.833 -52 164.5c0.666992 76 25.167 139.167 73.5 189.5s110.5 75.166 186.5 74.499
c71.333 0 135.666 -21.333 192.999 -64l-34 -93c-50.667 27.333 -100.334 41 -149.001 41c-39.333 0 -70.666 -13.5 -93.999 -40.5s-34.666 -62.833 -33.999 -107.5c0 -44 11.667 -79.667 35 -107s55 -41 95 -41c48.667 0 98.667 13.667 150 41l34 -91
c-55.333 -42 -117.333 -64 -186 -66l-8 -29c2.66699 -0.666992 5.33398 -1 8.00098 -1z" />
    <glyph glyph-name="egrave" unicode="&#xe8;" horiz-adv-x="589" 
d="M368 565h-133l-140 173h145zM304 514c76 0 135.5 -24.834 178.5 -74.501s64.5 -116.167 64.5 -199.5c0 -8 -0.333008 -16 -1 -24h-351c0.666992 -2.66699 1 -5.33398 1 -8.00098c6 -34 20 -60.5 42 -79.5s49.333 -28.5 82 -28.5c46 0 96.667 14 152 42l33 -88
c-58.667 -45.333 -125 -68 -199 -68c-75.333 0 -136.833 25.333 -184.5 76s-71.5 113.334 -71.5 188.001s23.5 137.334 70.5 188.001s108.167 76 183.5 76zM307 399.999c-29.333 0 -53.5 -8.83301 -72.5 -26.5s-31.5 -41.5 -37.5 -71.5h211c-9.33301 65.333 -43 98 -101 98z
" />
    <glyph glyph-name="eacute" unicode="&#xe9;" horiz-adv-x="589" 
d="M364 565h-133l128 173h145zM304 514c50.667 0 94.3311 -11.5 130.998 -34.5s64.5 -55 83.5 -96s28.5 -88.833 28.5 -143.5c0 -8 -0.333008 -16 -1 -24h-351c0 -2.66699 0.333008 -5.33398 1 -8.00098c3.33301 -16.667 8.5 -31.834 15.5 -45.501s15.833 -25 26.5 -34
s22.834 -16 36.501 -21s28.834 -7.5 45.501 -7.5c46 0 96.667 14 152 42l33 -88c-58.667 -45.333 -125 -68 -199 -68c-75.333 0 -136.833 25.333 -184.5 76s-71.5 113.334 -71.5 188.001s23.5 137.334 70.5 188.001s108.167 76 183.5 76zM306.997 400
c-29.333 0 -53.5 -8.83301 -72.5 -26.5s-31.5 -41.5 -37.5 -71.5h211c-9.33301 65.333 -43 98 -101 98z" />
    <glyph glyph-name="ecircumflex" unicode="&#xea;" horiz-adv-x="589" 
d="M229 564h-136l141 173h138l141 -173h-136l-74 101zM304 514c50.667 0 94.333 -11.501 131 -34.501s64.5 -55 83.5 -96s28.5 -88.833 28.5 -143.5c0 -8 -0.333008 -16 -1 -24h-351c0 -2.66699 0.333008 -5.33398 1 -8.00098c6 -34 20 -60.5 42 -79.5
s49.333 -28.5 82 -28.5c46 0 96.667 14 152 42l33 -88c-58.667 -45.333 -125 -68 -199 -68c-75.333 0 -136.833 25.333 -184.5 76s-71.5 113.334 -71.5 188.001s23.5 137.334 70.5 188.001s108.167 76 183.5 76zM196.999 301.999h211c-9.33301 65.333 -43 98 -101 98
c-29.333 0 -53.5 -8.83301 -72.5 -26.5s-31.5 -41.5 -37.5 -71.5z" />
    <glyph glyph-name="edieresis" unicode="&#xeb;" horiz-adv-x="589" 
d="M193 718c20 0 36.833 -7 50.5 -21s20.5 -30.833 20.5 -50.5s-6.83301 -36.5 -20.5 -50.5s-30.5 -21 -50.5 -21s-37 7 -51 21s-21 30.833 -21 50.5s7 36.5 21 50.5s31 21 51 21zM413.5 718c19.667 0 36.5 -7 50.5 -21s21 -30.667 21 -50
c0 -13.333 -3.16699 -25.5 -9.5 -36.5s-15 -19.667 -26 -26s-22.833 -9.5 -35.5 -9.5c-20 0 -37 7 -51 21s-21 30.833 -21 50.5s7 36.5 21 50.5s30.833 21 50.5 21zM304 514c76 0 135.5 -24.834 178.5 -74.501s64.5 -116.167 64.5 -199.5c0 -8 -0.333008 -16 -1 -24h-351
c0.666992 -2.66699 1 -5.33398 1 -8.00098c6 -34 20 -60.5 42 -79.5s49.333 -28.5 82 -28.5c46 0 96.667 14 152 42l33 -88c-58.667 -45.333 -125 -68 -199 -68c-75.333 0 -136.833 25.333 -184.5 76s-71.5 113.334 -71.5 188.001s23.5 137.334 70.5 188.001
s108.167 76 183.5 76zM307 399.999c-29.333 0 -53.5 -8.83301 -72.5 -26.5s-31.5 -41.5 -37.5 -71.5h211c-9.33301 65.333 -43 98 -101 98z" />
    <glyph glyph-name="igrave" unicode="&#xec;" horiz-adv-x="255" 
d="M193 565h-133l-140 173h145zM200 0h-140v500h140v-500z" />
    <glyph glyph-name="iacute" unicode="&#xed;" horiz-adv-x="255" 
d="M190 565h-133l128 173h145zM200 0h-140v500h140v-500z" />
    <glyph glyph-name="icircumflex" unicode="&#xee;" horiz-adv-x="255" 
d="M339 564h-136l-74 101l-74 -101h-136l141 173h138zM60 500h140v-500h-140v500z" />
    <glyph glyph-name="idieresis" unicode="&#xef;" horiz-adv-x="255" 
d="M18.5 718c19.667 0 36.5 -7 50.5 -21s21 -30.833 21 -50.5s-7 -36.5 -21 -50.5s-30.667 -21 -50 -21c-13.333 0 -25.5 3.16699 -36.5 9.5s-19.667 15 -26 26s-9.5 23.167 -9.5 36.5c0 19.333 7 36 21 50s30.833 21 50.5 21zM239.5 718
c19.667 0 36.5 -7.00195 50.5 -21.002s21 -30.833 21 -50.5s-7 -36.5 -21 -50.5s-31 -21 -51 -21c-9.33301 0 -18.5 1.83301 -27.5 5.5s-16.667 8.83398 -23 15.501s-11.333 14.334 -15 23.001s-5.5 18 -5.5 28c0 19.333 7 36 21 50s30.833 21 50.5 21zM200 -0.00195312
h-140v500h140v-500z" />
    <glyph glyph-name="eth" unicode="&#xf0;" horiz-adv-x="651" 
d="M570 645l-64.0029 -36.001c62.667 -74.667 93.334 -171.334 92.001 -290.001c0 -36 -3.33301 -70.167 -10 -102.5s-17.334 -62.666 -32.001 -90.999s-32.667 -52.833 -54 -73.5s-47.666 -36.834 -78.999 -48.501s-66.333 -17.5 -105 -17.5
c-51.333 0 -97.5 10.333 -138.5 31s-73.333 50.334 -97 89.001s-35.5 83 -35.5 133c0 70.667 22.833 126.834 68.5 168.501s104.834 62.5 177.501 62.5c59.333 0 111 -17.667 155 -53c-9.33301 54 -28.666 96.667 -57.999 128l-104 -59l-44 75l63 35
c-19.333 5.33301 -40 8 -62 8c-44 0 -87.667 -8.33301 -131 -25l-49 107c54.667 28 114.667 42 180 42c74 0 139.333 -19 196 -57l87 49zM450.997 292.999v9c-44.667 33.333 -93.667 50.333 -147 51c-36.667 -0.666992 -64.334 -10.5 -83.001 -29.5s-28 -46.5 -28 -82.5
c0 -28 5.33301 -52 16 -72s25.334 -35 44.001 -45s40 -15 64 -15c84 0 128.667 61.333 134 184z" />
    <glyph glyph-name="ntilde" unicode="&#xf1;" horiz-adv-x="610" 
d="M239 632c-17.333 0 -38.6709 -20 -64.0039 -60l-60 50c10.667 17.333 19.334 30.666 26.001 39.999s15.834 20.333 27.501 33s24 22 37 28s27.167 9 42.5 9c11.333 0 23 -2.33301 35 -7s21.833 -9.5 29.5 -14.5s17.5 -12.167 29.5 -21.5c20.667 -16 36 -24 46 -24
c18.667 0 40.334 20 65.001 60l60 -50c-11.333 -18.667 -20.5 -32.667 -27.5 -42s-16.167 -20.166 -27.5 -32.499s-23.166 -21.333 -35.499 -27s-25.833 -8.5 -40.5 -8.5c-12.667 0 -25.5 2.5 -38.5 7.5s-22.667 9.83301 -29 14.5s-15.5 11.667 -27.5 21
c-20.667 16 -36.667 24 -48 24zM380.995 514c49.333 0 90.1689 -16.002 122.502 -48.002s48.5 -78.667 48.5 -140v-326h-140v308c0 28.667 -7.33301 50.334 -22 65.001s-34.334 22 -59.001 22c-42.667 -0.666992 -85.334 -18 -128.001 -52v-343h-140v500h140v-61
c26 24.667 54.667 43.334 86 56.001s62 19 92 19z" />
    <glyph glyph-name="ograve" unicode="&#xf2;" horiz-adv-x="634" 
d="M381 565h-133l-140 173h145zM317 514c79.333 0 143.666 -25.332 192.999 -75.999s74 -113.334 74 -188.001s-24.667 -137.334 -74 -188.001s-113.666 -76 -192.999 -76c-78.667 0 -142.834 25.333 -192.501 76s-74.5 113.334 -74.5 188.001
c0 75.333 24.833 138.333 74.5 189s113.834 75.667 192.501 75zM317 394.001c-38.667 0 -69.333 -13.332 -92 -39.999s-33.667 -61.334 -33 -104.001c0 -28 5 -52.833 15 -74.5s24.5 -38.667 43.5 -51s41.167 -18.5 66.5 -18.5c38 0 68.333 13.167 91 39.5
s34 61.166 34 104.499c0 28.667 -5 53.834 -15 75.501s-24.5 38.5 -43.5 50.5s-41.167 18 -66.5 18z" />
    <glyph glyph-name="oacute" unicode="&#xf3;" horiz-adv-x="634" 
d="M377 565h-133l128 173h145zM317 514c79.333 0 143.5 -25.332 192.5 -75.999s73.5 -113.334 73.5 -188.001s-24.5 -137.334 -73.5 -188.001s-113.167 -76 -192.5 -76c-78.667 0 -142.834 25.333 -192.501 76s-74.5 113.334 -74.5 188.001
c0 75.333 24.833 138.333 74.5 189s113.834 75.667 192.501 75zM317 394.001c-38.667 0 -69.335 -13.332 -92.002 -39.999s-33.667 -61.334 -33 -104.001c0 -28 5 -52.833 15 -74.5s24.5 -38.667 43.5 -51s41.167 -18.5 66.5 -18.5c18.667 0 35.834 3.5 51.501 10.5
s28.834 16.833 39.501 29.5s19 27.834 25 45.501s9 37.167 9 58.5c0 43.333 -11.333 78.166 -34 104.499s-53 39.5 -91 39.5z" />
    <glyph glyph-name="ocircumflex" unicode="&#xf4;" horiz-adv-x="634" 
d="M243 564h-136l141 173h138l141 -173h-136l-74 101zM317 514c52.667 0 99.499 -11.833 140.499 -35.5s72.333 -55.5 94 -95.5s32.5 -84.333 32.5 -133c0 -74.667 -24.667 -137.334 -74 -188.001s-113.666 -76 -192.999 -76c-78.667 0 -142.834 25.333 -192.501 76
s-74.5 113.334 -74.5 188.001c0 75.333 24.833 138.333 74.5 189s113.834 75.667 192.501 75zM316.999 106c38 0 68.334 13.1699 91.001 39.5029s34 61.166 34 104.499s-11.333 78.166 -34 104.499s-53 39.5 -91 39.5c-38.667 0 -69.334 -13.333 -92.001 -40
s-33.667 -61.334 -33 -104.001c0 -28 5 -52.833 15 -74.5s24.5 -38.667 43.5 -51s41.167 -18.5 66.5 -18.5z" />
    <glyph glyph-name="otilde" unicode="&#xf5;" horiz-adv-x="634" 
d="M250 732c16.667 0 32.167 -3.66699 46.5 -11s30.5 -18 48.5 -32c20 -16 35.333 -24 46 -24c18.667 0 40.334 20 65.001 60l60 -50c-12 -18.667 -21.333 -32.667 -28 -42s-15.834 -20.166 -27.501 -32.499s-23.667 -21.333 -36 -27s-25.833 -8.5 -40.5 -8.5
c-12.667 0 -25.334 2.5 -38.001 7.5s-22.334 9.83301 -29.001 14.5s-15.667 11.667 -27 21c-20.667 16 -36.667 24 -48 24c-18 0 -39.333 -20 -64 -60l-60 50c10.667 17.333 19.334 30.666 26.001 39.999s15.834 20.333 27.501 33s24 22 37 28s26.833 9 41.5 9zM317 514
c79.333 0 143.5 -25.332 192.5 -75.999s73.5 -113.334 73.5 -188.001s-24.5 -137.334 -73.5 -188.001s-113.167 -76 -192.5 -76c-78.667 0 -142.834 25.333 -192.501 76s-74.5 113.334 -74.5 188.001c0 75.333 24.833 138.333 74.5 189s113.834 75.667 192.501 75z
M317 394.001c-26 0 -48.5 -6.16504 -67.5 -18.498s-33.333 -29.333 -43 -51s-14.5 -46.5 -14.5 -74.5s5 -52.833 15 -74.5s24.5 -38.667 43.5 -51s41.167 -18.5 66.5 -18.5c38 0 68.333 13.167 91 39.5s34 61.166 34 104.499s-11.333 78.166 -34 104.499s-53 39.5 -91 39.5z
" />
    <glyph glyph-name="odieresis" unicode="&#xf6;" horiz-adv-x="634" 
d="M206.5 718c19.667 0 36.5 -7.00195 50.5 -21.002s21 -30.833 21 -50.5s-7 -36.5 -21 -50.5s-31 -21 -51 -21c-9.33301 0 -18.5 1.83301 -27.5 5.5s-16.667 8.83398 -23 15.501s-11.333 14.334 -15 23.001s-5.5 18 -5.5 28c0 19.333 7 36 21 50s30.833 21 50.5 21z
M427.5 717.998c19.667 0 36.5 -7 50.5 -21s21 -30.833 21 -50.5s-7 -36.5 -21 -50.5s-31 -21 -51 -21c-12.667 0 -24.5 3.16699 -35.5 9.5s-19.667 15 -26 26s-9.5 23.167 -9.5 36.5c0 19.333 7 36 21 50s30.833 21 50.5 21zM317 513.998
c79.333 0 143.666 -25.332 192.999 -75.999s74 -113.334 74 -188.001s-24.667 -137.334 -74 -188.001s-113.666 -76 -192.999 -76c-78.667 0 -142.834 25.333 -192.501 76s-74.5 113.334 -74.5 188.001c0 75.333 24.833 138.333 74.5 189s113.834 75.667 192.501 75z
M317 393.999c-38.667 0 -69.333 -13.332 -92 -39.999s-33.667 -61.334 -33 -104.001c0 -28 5 -52.833 15 -74.5s24.5 -38.667 43.5 -51s41.167 -18.5 66.5 -18.5c38 0 68.333 13.167 91 39.5s34 61.166 34 104.499c0 28.667 -5 53.834 -15 75.501s-24.5 38.5 -43.5 50.5
s-41.167 18 -66.5 18z" />
    <glyph glyph-name="divide" unicode="&#xf7;" horiz-adv-x="582" 
d="M291 521c13.333 0 25.833 -3.33496 37.5 -10.002s20.834 -15.667 27.501 -27s10 -24 10 -38c0 -13.333 -3.33301 -25.666 -10 -36.999s-15.834 -20.333 -27.501 -27s-24.167 -10 -37.5 -10c-20 0 -37.333 7.33301 -52 22s-22 32 -22 52
c0 20.667 7.33301 38.334 22 53.001s32 22 52 22zM547 315.998v-114h-512v114h512zM291 145.998c20.667 0 38.167 -7.33301 52.5 -22s21.5 -32.334 21.5 -53.001c0 -20 -7.16699 -37.167 -21.5 -51.5s-31.833 -21.5 -52.5 -21.5s-38.167 7.16699 -52.5 21.5
s-21.5 31.5 -21.5 51.5c0 20.667 7.16699 38.334 21.5 53.001s31.833 22 52.5 22z" />
    <glyph glyph-name="oslash" unicode="&#xf8;" horiz-adv-x="634" 
d="M516 550l-40.002 -84.999c34 -24 60.5 -54.833 79.5 -92.5s28.5 -78.5 28.5 -122.5c0 -74.667 -24.667 -137.334 -74 -188.001s-113.666 -76 -192.999 -76c-22 0 -43 2.33301 -63 7l-20 -43h-116l39 84c-22 16 -41 35.167 -57 57.5s-28.333 47 -37 74
s-13 55.167 -13 84.5c0 75.333 24.833 138.333 74.5 189s113.834 75.667 192.501 75c22 0 43 -2.33301 63 -7l20 43h116zM191.998 250.001c0 -35.333 8.00098 -65.666 24.001 -90.999l111 235h-10c-38.667 0 -69.334 -13.333 -92.001 -40s-33.667 -61.334 -33 -104.001z
M316.999 106.001c25.333 0 47.5 5.99902 66.5 17.999s33.5 28.833 43.5 50.5s15 46.834 15 75.501c0 36 -8 66.333 -24 91l-111 -235h10z" />
    <glyph glyph-name="ugrave" unicode="&#xf9;" horiz-adv-x="596" 
d="M230 565l-140 173h145l128 -173h-133zM538 500l-0.00195312 -500h-140v60c-24.667 -24 -52.167 -42.333 -82.5 -55s-60.166 -19 -89.499 -19c-49.333 0 -89.666 15.833 -120.999 47.5s-47 78.5 -47 140.5v326h140v-308c0 -28.667 6.5 -50.167 19.5 -64.5
s31.5 -21.833 55.5 -22.5c43.333 0 85 17.333 125 52v343h140z" />
    <glyph glyph-name="uacute" unicode="&#xfa;" horiz-adv-x="596" 
d="M359 565h-133l128 173h145zM538 500l-0.00195312 -500h-140v60c-24.667 -24 -52.167 -42.333 -82.5 -55s-60.166 -19 -89.499 -19c-49.333 0 -89.666 15.833 -120.999 47.5s-47 78.5 -47 140.5v326h140v-308c0 -28.667 6.5 -50.167 19.5 -64.5s31.5 -21.833 55.5 -22.5
c43.333 0 85 17.333 125 52v343h140z" />
    <glyph glyph-name="ucircumflex" unicode="&#xfb;" horiz-adv-x="596" 
d="M224 564h-136l141 173h138l141 -173h-136l-74 101zM538 500l0.000976562 -500h-140v60c-16.667 -16 -34.834 -29.5 -54.501 -40.5s-39.334 -19.333 -59.001 -25s-39.167 -8.5 -58.5 -8.5c-49.333 0 -89.666 15.833 -120.999 47.5s-47 78.5 -47 140.5v326h140v-308
c0 -28.667 6.5 -50.167 19.5 -64.5s31.5 -21.833 55.5 -22.5c43.333 0 85 17.333 125 52v343h140z" />
    <glyph glyph-name="udieresis" unicode="&#xfc;" horiz-adv-x="596" 
d="M188 575c-13.333 0 -25.332 3.16699 -35.999 9.5s-19.334 15 -26.001 26s-10 23.167 -10 36.5c0 19.333 7 36 21 50s30.833 21 50.5 21s36.5 -7 50.5 -21s21 -30.833 21 -50.5s-7 -36.5 -21 -50.5s-30.667 -21 -50 -21zM409.001 575c-13.333 0 -25.5 3.16699 -36.5 9.5
s-19.667 15 -26 26s-9.5 23.167 -9.5 36.5c0 19.333 7 36 21 50s30.833 21 50.5 21s36.5 -7 50.5 -21s21 -30.833 21 -50.5s-7 -36.5 -21 -50.5s-30.667 -21 -50 -21zM538.001 500l-0.00195312 -500h-140v60c-24.667 -24 -52.167 -42.333 -82.5 -55s-60.166 -19 -89.499 -19
c-49.333 0 -89.666 15.833 -120.999 47.5s-47 78.5 -47 140.5v326h140v-308c0 -28.667 6.5 -50.167 19.5 -64.5s31.5 -21.833 55.5 -22.5c43.333 0 85 17.333 125 52v343h140z" />
    <glyph glyph-name="yacute" unicode="&#xfd;" horiz-adv-x="594" 
d="M358 565h-133l128 173h145zM579 500l-292 -700h-124l77 201l-225 499h151l139 -333l128 333h146z" />
    <glyph glyph-name="thorn" unicode="&#xfe;" horiz-adv-x="625" 
d="M355 514c43.333 0 82 -11.668 116 -35.001s60 -55.166 78 -95.499s27 -84.833 27 -133.5c0 -75.333 -20.5 -138.333 -61.5 -189s-94.167 -75.667 -159.5 -75c-56.667 0 -109 22.667 -157 68v-254h-140v900h140v-254c48 45.333 100.333 68 157 68zM331 103.999
c32 0 57.333 13.5 76 40.5s27.667 62.167 27 105.5c0.666992 43.333 -8.33301 78.5 -27 105.5s-44 40.5 -76 40.5c-48.667 0 -93 -20 -133 -60v-172c40 -40 84.333 -60 133 -60z" />
    <glyph glyph-name="ydieresis" unicode="&#xff;" horiz-adv-x="594" 
d="M187 575c-13.333 0 -25.5 3.16699 -36.5 9.5s-19.667 15 -26 26s-9.5 23.167 -9.5 36.5c0 19.333 7 36 21 50s30.833 21 50.5 21s36.5 -7 50.5 -21s21 -30.833 21 -50.5s-7 -36.5 -21 -50.5s-30.667 -21 -50 -21zM408 575c-13.333 0 -25.5 3.16699 -36.5 9.5
s-19.667 15 -26 26s-9.5 23.167 -9.5 36.5c0 19.333 7 36 21 50s30.833 21 50.5 21s36.5 -7 50.5 -21s21 -30.833 21 -50.5s-7 -36.5 -21 -50.5s-30.667 -21 -50 -21zM579 500l-292 -700h-124l77 201l-225 499h151l139 -333l128 333h146z" />
    <glyph glyph-name="Amacron" unicode="&#x100;" horiz-adv-x="754" 
d="M549 786h-344v108h344v-108zM729 0h-161l-49 138h-284l-49 -138h-161l273 700h158zM278 261h198l-99 276z" />
    <glyph glyph-name="amacron" unicode="&#x101;" horiz-adv-x="627" 
d="M498 586h-344v108h344v-108zM565 500l-0.000976562 -500.001h-140v54c-48 -45.333 -101.667 -68 -161 -68c-42 0 -79.5 11.833 -112.5 35.5s-58.5 55.5 -76.5 95.5s-27 84.333 -27 133c0 74.667 20.333 137.334 61 188.001s92.334 76 155.001 76
c59.333 0 113 -22.667 161 -68v54h140zM294.999 103.999c13.333 0 27.3301 2.16699 41.9971 6.5s29.834 11 45.501 20s29.834 19.833 42.501 32.5v174c-19.333 18.667 -40.666 33.167 -63.999 43.5s-45.333 15.5 -66 15.5c-22 0 -40.833 -6 -56.5 -18s-27.667 -29 -36 -51
s-12.5 -47.667 -12.5 -77s4 -55 12 -77s20 -39 36 -51s35 -18 57 -18z" />
    <glyph glyph-name="Abreve" unicode="&#x102;" horiz-adv-x="754" 
d="M466 931h101c0 -47.333 -17.5 -87 -52.5 -119s-80.833 -48 -137.5 -48c-56 0 -101.667 16 -137 48s-53 71.667 -53 119h101c0 -22.667 8.5 -40.834 25.5 -54.501s38.167 -20.5 63.5 -20.5c26 0 47.333 6.83301 64 20.5s25 31.834 25 54.501zM729 0h-161l-49 138h-284
l-49 -138h-161l273 700h158zM278 261h198l-99 276z" />
    <glyph glyph-name="abreve" unicode="&#x103;" horiz-adv-x="627" 
d="M326 564c-37.333 0 -70.5 7.5 -99.5 22.5s-51.333 35.167 -67 60.5s-23.5 53.333 -23.5 84h101c0 -22.667 8.5 -40.834 25.5 -54.501s38.167 -20.5 63.5 -20.5c26 0 47.333 6.83301 64 20.5s25 31.834 25 54.501h101c0 -47.333 -17.5 -87 -52.5 -119
s-80.833 -48 -137.5 -48zM565 500l-0.000976562 -500.001h-140v54c-48 -45.333 -101.667 -68 -161 -68c-42 0 -79.5 11.833 -112.5 35.5s-58.5 55.5 -76.5 95.5s-27 84.333 -27 133c0 74.667 20.333 137.334 61 188.001s92.334 76 155.001 76c59.333 0 113 -22.667 161 -68
v54h140zM294.999 103.999c20.667 0 42.668 5.16699 66.001 15.5s44.666 24.833 63.999 43.5v174c-19.333 18.667 -40.666 33.167 -63.999 43.5s-45.333 15.5 -66 15.5c-32.667 0 -58.334 -13.167 -77.001 -39.5s-28 -61.833 -28 -106.5c0 -29.333 4 -55 12 -77
s20 -39 36 -51s35 -18 57 -18z" />
    <glyph glyph-name="Aogonek" unicode="&#x104;" horiz-adv-x="754" 
d="M705 -115l24.999 -70.001c-29.333 -19.333 -65.666 -29 -108.999 -29c-34.667 0 -64.5 8.66699 -89.5 26s-37.5 41.333 -37.5 72c0 42 24.667 80.667 74 116l-49 138h-284l-49 -138h-161l273 700h158l273 -700h-83c-32.667 -25.333 -49 -51.666 -49 -78.999
c0.666992 -31.333 19.667 -46.666 57 -45.999c18.667 -0.666992 35.667 2.66602 51 9.99902zM277.999 260.999h198l-99 276z" />
    <glyph glyph-name="aogonek" unicode="&#x105;" horiz-adv-x="627" 
d="M553 -120l25.999 -71.002c-29.333 -18.667 -65.666 -28.334 -108.999 -29.001c-35.333 0 -65.333 8.83301 -90 26.5s-37.334 41.5 -38.001 71.5c0.666992 44.667 28.334 85.334 83.001 122.001v54c-48 -45.333 -101.667 -68 -161 -68
c-62.667 0 -114.334 25.333 -155.001 76s-61 113.334 -61 188.001s20.333 137.334 61 188.001s92.334 76 155.001 76c59.333 0 113 -22.667 161 -68v54h140v-500h-63c-37.333 -26.667 -56 -55 -56 -85c0 -30.667 19 -46 57 -46c18 0 34.667 3.66699 50 11zM294.999 103.998
c13.333 0 27.3311 2.16797 41.998 6.50098s29.834 11 45.501 20s29.834 19.833 42.501 32.5v173c-19.333 19.333 -40.666 34.166 -63.999 44.499s-45.333 15.5 -66 15.5c-32.667 0 -58.334 -13.167 -77.001 -39.5s-28 -61.833 -28 -106.5c0 -29.333 4 -55 12 -77
s20 -39 36 -51s35 -18 57 -18z" />
    <glyph glyph-name="Cacute" unicode="&#x106;" horiz-adv-x="759" 
d="M465 765h-133l128 173h145zM422 714c30 0 60.667 -3.66504 92 -10.998s62.833 -18.5 94.5 -33.5s61.5 -33.167 89.5 -54.5l-38 -105c-76 48.667 -152.333 73 -229 73c-62 0 -112.5 -20.833 -151.5 -62.5s-58.5 -98.5 -58.5 -170.5s19.5 -128.833 58.5 -170.5
s89.833 -62.5 152.5 -62.5c76.667 0 153.667 25 231 75l38 -105c-42 -32.667 -87.5 -57.667 -136.5 -75s-96.5 -26 -142.5 -26c-69.333 0 -131.166 16.333 -185.499 49s-96 76.5 -125 131.5s-43.5 116.167 -43.5 183.5s14.5 128.666 43.5 183.999s70.667 99.166 125 131.499
s116.166 48.5 185.499 48.5z" />
    <glyph glyph-name="cacute" unicode="&#x107;" horiz-adv-x="553" 
d="M360 565h-134l129 173h145zM310 514c71.333 0 135.666 -21.332 192.999 -63.999l-34 -93c-50.667 27.333 -100.334 41 -149.001 41c-39.333 0 -70.666 -13.5 -93.999 -40.5s-34.666 -62.833 -33.999 -107.5c0 -44 11.667 -79.667 35 -107s55 -41 95 -41
c48.667 0 98.667 13.667 150 41l34 -91c-58 -44 -123.333 -66 -196 -66c-50.667 0 -96 11.833 -136 35.5s-70.667 55.5 -92 95.5s-32 84.333 -32 133c0.666992 76 25.167 139.167 73.5 189.5s110.5 75.166 186.5 74.499z" />
    <glyph glyph-name="Cdotaccent" unicode="&#x10a;" horiz-adv-x="759" 
d="M404.5 918c19.667 0 36.5 -7 50.5 -21s21 -30.833 21 -50.5s-7 -36.5 -21 -50.5s-30.833 -21 -50.5 -21s-36.5 7 -50.5 21s-21 30.833 -21 50.5s7 36.5 21 50.5s30.833 21 50.5 21zM422 714c30 0 60.6689 -3.66602 92.002 -10.999s62.833 -18.5 94.5 -33.5
s61.5 -33.167 89.5 -54.5l-38 -105c-76 48.667 -152.333 73 -229 73c-62 0 -112.5 -20.833 -151.5 -62.5s-58.5 -98.5 -58.5 -170.5s19.5 -128.833 58.5 -170.5s89.833 -62.5 152.5 -62.5c76.667 0 153.667 25 231 75l38 -105c-28 -21.333 -58 -39.666 -90 -54.999
s-63.833 -26.833 -95.5 -34.5s-62.834 -11.5 -93.501 -11.5c-52 0 -100.333 9.5 -145 28.5s-82.167 45 -112.5 78s-54 71.667 -71 116s-25.5 91.5 -25.5 141.5c0 67.333 14.5 128.666 43.5 183.999s70.667 99.166 125 131.499s116.166 48.5 185.499 48.5z" />
    <glyph glyph-name="cdotaccent" unicode="&#x10b;" horiz-adv-x="553" 
d="M299 718c20 0 36.833 -7 50.5 -21s20.5 -30.667 20.5 -50c0 -13.333 -3.16699 -25.5 -9.5 -36.5s-15 -19.667 -26 -26s-22.833 -9.5 -35.5 -9.5c-20 0 -36.833 7 -50.5 21s-20.5 30.833 -20.5 50.5s6.83301 36.5 20.5 50.5s30.5 21 50.5 21zM310 514
c71.333 0 135.666 -21.333 192.999 -64l-34 -93c-50.667 27.333 -100.334 41 -149.001 41c-39.333 0 -70.666 -13.5 -93.999 -40.5s-34.666 -62.833 -33.999 -107.5c0 -44 11.667 -79.667 35 -107s55 -41 95 -41c48.667 0 98.667 13.667 150 41l34 -91
c-58 -44 -123.333 -66 -196 -66c-76.667 0 -139.167 25.333 -187.5 76s-72.5 113.334 -72.5 188.001c0.666992 76 25.167 139.167 73.5 189.5s110.5 75.166 186.5 74.499z" />
    <glyph glyph-name="Ccaron" unicode="&#x10c;" horiz-adv-x="759" 
d="M335 764l-141 173h136l74 -101l74 101h136l-141 -173h-138zM663 192l38.001 -104.998c-16.667 -12.667 -34.334 -24.5 -53.001 -35.5s-37.5 -20.5 -56.5 -28.5s-38 -14.833 -57 -20.5s-38 -9.83398 -57 -12.501s-37.5 -4 -55.5 -4c-69.333 0 -131.166 16.333 -185.499 49
s-96 76.5 -125 131.5s-43.5 116.167 -43.5 183.5s14.5 128.666 43.5 183.999s70.667 99.166 125 131.499s116.166 48.5 185.499 48.5c46 0 93 -8.5 141 -25.5s93 -41.5 135 -73.5l-38 -105c-76 48.667 -152.333 73 -229 73c-62 0 -112.5 -20.833 -151.5 -62.5
s-58.5 -98.5 -58.5 -170.5c0 -48 9 -89.667 27 -125s42.833 -62.166 74.5 -80.499s68.167 -27.5 109.5 -27.5c76.667 0 153.667 25 231 75z" />
    <glyph glyph-name="ccaron" unicode="&#x10d;" horiz-adv-x="553" 
d="M230 564l-141 173h136l74 -101l74 101h136l-141 -173h-138zM322 102c48.667 0 98.667 13.667 150 41l34 -91c-58 -44 -123.333 -66 -196 -66c-76.667 0 -139.167 25.333 -187.5 76s-72.5 113.334 -72.5 188.001c0.666992 76 25.167 139.167 73.5 189.5
s110.5 75.166 186.5 74.499c71.333 0 135.666 -21.333 192.999 -64l-34 -93c-50.667 27.333 -100.334 41 -149.001 41c-39.333 0 -70.666 -13.5 -93.999 -40.5s-34.666 -62.833 -33.999 -107.5c0 -44 11.667 -79.667 35 -107s55 -41 95 -41z" />
    <glyph glyph-name="Dcaron" unicode="&#x10e;" horiz-adv-x="776" 
d="M309 764l-141 173h136l74 -101l74 101h136l-141 -173h-138zM83 700h280c103.333 0 186.666 -32.833 249.999 -98.5s95 -149.5 95 -251.5s-31.667 -185.833 -95 -251.5s-146.666 -98.5 -249.999 -98.5h-280v700zM232 123h119c62.667 0 112.667 20.5 150 61.5
s56 96.167 56 165.5s-18.667 124.5 -56 165.5s-87.333 61.5 -150 61.5h-119v-454z" />
    <glyph glyph-name="dcaron" unicode="&#x10f;" horiz-adv-x="633" 
d="M780 664c4.66699 -31.333 -3 -64.998 -23 -100.998s-46 -65.667 -78 -89l-47 30c33.333 27.333 56.333 58.666 69 93.999c-16.667 2 -30.667 9.16699 -42 21.5s-17 27.166 -17 44.499c0 12.667 3 24.167 9 34.5s14.167 18.5 24.5 24.5s21.833 9 34.5 9
c18 0 33.333 -6.16699 46 -18.5s20.667 -28.833 24 -49.5zM428 700.002l140 -0.000976562v-700h-140v54c-48 -45.333 -102 -68 -162 -68c-41.333 0 -78.5 11.833 -111.5 35.5s-58.667 55.5 -77 95.5s-27.5 84.333 -27.5 133c0 74.667 20.5 137.334 61.5 188.001
s93.5 76 157.5 76c58 0 111 -22.667 159 -68v254zM298 104.001c20.667 0 42.8311 5.33301 66.498 16s44.834 25.334 63.501 44.001v172c-19.333 19.333 -40.666 34.166 -63.999 44.499s-46 15.5 -68 15.5c-32.667 0 -58.167 -13.333 -76.5 -40s-27.5 -62 -27.5 -106
c0 -29.333 4 -54.833 12 -76.5s20 -38.667 36 -51s35.333 -18.5 58 -18.5z" />
    <glyph glyph-name="Dcroat" unicode="&#x110;" horiz-adv-x="776" 
d="M83 700h280c103.333 0 186.666 -32.833 249.999 -98.5s95 -149.5 95 -251.5s-31.667 -185.833 -95 -251.5s-146.666 -98.5 -249.999 -98.5h-280v293h-85v114h85v293zM232 123l119 0.00195312c41.333 0 77.666 9.33301 108.999 28s55.333 45.167 72 79.5
s25 74.166 25 119.499s-8.33301 85.166 -25 119.499s-40.667 60.833 -72 79.5s-67.666 28 -108.999 28h-119v-170h149v-114h-149v-170z" />
    <glyph glyph-name="dcroat" unicode="&#x111;" horiz-adv-x="633" 
d="M654 539l-86 -0.000976562v-539h-140v54c-48 -45.333 -102 -68 -162 -68c-41.333 0 -78.5 11.833 -111.5 35.5s-58.667 55.5 -77 95.5s-27.5 84.333 -27.5 133c0 74.667 20.5 137.334 61.5 188.001s93.5 76 157.5 76c58 0 111 -22.667 159 -68v93h-118v102h118v59h140
v-59h86v-102zM298 103.999c20.667 0 42.667 5.33301 66 16s44.666 25.334 63.999 44.001v172c-19.333 19.333 -40.666 34.166 -63.999 44.499s-46 15.5 -68 15.5c-32.667 0 -58.167 -13.333 -76.5 -40s-27.5 -62 -27.5 -106c0 -29.333 4 -54.833 12 -76.5s20 -38.667 36 -51
s35.333 -18.5 58 -18.5z" />
    <glyph glyph-name="Emacron" unicode="&#x112;" horiz-adv-x="635" 
d="M508 786h-344v108h344v-108zM590 123v-123h-507v700h497v-123h-348v-149h309v-123h-309v-182h358z" />
    <glyph glyph-name="emacron" unicode="&#x113;" horiz-adv-x="589" 
d="M475 586h-344v108h344v-108zM304 514c76 0 135.5 -24.834 178.5 -74.501s64.5 -116.167 64.5 -199.5c0 -8 -0.333008 -16 -1 -24h-351c0.666992 -2.66699 1 -5.33398 1 -8.00098c6 -34 20 -60.5 42 -79.5s49 -28.5 81 -28.5c46.667 0 97.667 14 153 42l33 -88
c-58.667 -45.333 -125 -68 -199 -68c-75.333 0 -136.833 25.333 -184.5 76s-71.5 113.334 -71.5 188.001s23.5 137.334 70.5 188.001s108.167 76 183.5 76zM307 399.999c-29.333 0 -53.5 -8.83301 -72.5 -26.5s-31.5 -41.5 -37.5 -71.5h211c-9.33301 65.333 -43 98 -101 98z
" />
    <glyph glyph-name="Edotaccent" unicode="&#x116;" horiz-adv-x="635" 
d="M336 775c-12.667 0 -24.5 3.16699 -35.5 9.5s-19.667 15 -26 26s-9.5 23.167 -9.5 36.5c0 19.333 6.83301 36 20.5 50s30.5 21 50.5 21s36.833 -7 50.5 -21s20.5 -30.833 20.5 -50.5s-6.83301 -36.5 -20.5 -50.5s-30.5 -21 -50.5 -21zM590 123v-123h-507v700h497v-123
h-348v-149h309v-123h-309v-182h358z" />
    <glyph glyph-name="edotaccent" unicode="&#x117;" horiz-adv-x="589" 
d="M303.5 718c19.667 0 36.5 -7 50.5 -21s21 -30.667 21 -50c0 -13.333 -3.16699 -25.5 -9.5 -36.5s-15 -19.667 -26 -26s-23.167 -9.5 -36.5 -9.5c-19.333 0 -36 7 -50 21s-21 30.833 -21 50.5s7 36.5 21 50.5s30.833 21 50.5 21zM304 514
c76 0 135.5 -24.834 178.5 -74.501s64.5 -116.167 64.5 -199.5c0 -8 -0.333008 -16 -1 -24h-351c0.666992 -2.66699 1 -5.33398 1 -8.00098c6 -34 20 -60.5 42 -79.5s49 -28.5 81 -28.5c46.667 0 97.667 14 153 42l33 -88c-58.667 -45.333 -125 -68 -199 -68
c-75.333 0 -136.833 25.333 -184.5 76s-71.5 113.334 -71.5 188.001s23.5 137.334 70.5 188.001s108.167 76 183.5 76zM307 399.999c-29.333 0 -53.5 -8.83301 -72.5 -26.5s-31.5 -41.5 -37.5 -71.5h211c-9.33301 65.333 -43 98 -101 98z" />
    <glyph glyph-name="Eogonek" unicode="&#x118;" horiz-adv-x="635" 
d="M607 -115l25.999 -70.001c-29.333 -19.333 -65.666 -29 -108.999 -29c-34.667 0 -64.5 8.66699 -89.5 26s-37.833 41.333 -38.5 72c0.666992 42 25.667 80.667 75 116h-388v700h497v-123h-348v-149h309v-123h-309v-182h358v-123h-41
c-32.667 -25.333 -49 -51.666 -49 -78.999c0 -31.333 19 -46.666 57 -45.999c18 -0.666992 34.667 2.66602 50 9.99902z" />
    <glyph glyph-name="eogonek" unicode="&#x119;" horiz-adv-x="589" 
d="M304 514c76 0 135.5 -24.833 178.5 -74.5s64.5 -116.167 64.5 -199.5c0 -8 -0.333008 -16 -1 -24h-351c0.666992 -2.66699 1 -5.33398 1 -8.00098c6 -34 20 -60.5 42 -79.5s49.333 -28.5 82 -28.5c46 0 96.667 14 152 42l33 -88
c-21.333 -16.667 -44.333 -30.334 -69 -41.001c-39.333 -27.333 -59.333 -56.333 -60 -87c0.666992 -31.333 20 -46.666 58 -45.999c18 -0.666992 34.667 2.66602 50 9.99902l25 -70c-29.333 -19.333 -65.333 -29 -108 -29c-35.333 0 -65.5 8.66699 -90.5 26
s-37.5 41.333 -37.5 72c0 34 17.333 66.667 52 98c-6 -0.666992 -12.333 -1 -19 -1c-75.333 0 -136.833 25.333 -184.5 76s-71.5 113.334 -71.5 188.001s23.5 137.334 70.5 188.001s108.167 76 183.5 76zM197 302h211c-9.33301 65.333 -43 98 -101 98
c-29.333 0 -53.5 -8.83301 -72.5 -26.5s-31.5 -41.5 -37.5 -71.5z" />
    <glyph glyph-name="Ecaron" unicode="&#x11a;" horiz-adv-x="635" 
d="M267 764l-141 173h136l74 -101l74 101h136l-141 -173h-138zM590 123v-123h-507v700h497v-123h-348v-149h309v-123h-309v-182h358z" />
    <glyph glyph-name="ecaron" unicode="&#x11b;" horiz-adv-x="589" 
d="M234 564l-141 173h136l74 -101l74 101h136l-141 -173h-138zM304 514c76 0 135.5 -24.833 178.5 -74.5s64.5 -116.167 64.5 -199.5c0 -8 -0.333008 -16 -1 -24h-351c0 -2.66699 0.333008 -5.33398 1 -8.00098c6 -34 20 -60.5 42 -79.5s49 -28.5 81 -28.5
c46.667 0 97.667 14 153 42l33 -88c-58.667 -45.333 -125 -68 -199 -68c-50 0 -94.667 11.833 -134 35.5s-69.5 55.5 -90.5 95.5s-31.5 84.333 -31.5 133c0 74.667 23.5 137.334 70.5 188.001s108.167 76 183.5 76zM197 302h211c-9.33301 65.333 -43 98 -101 98
c-29.333 0 -53.5 -8.83301 -72.5 -26.5s-31.5 -41.5 -37.5 -71.5z" />
    <glyph glyph-name="Gbreve" unicode="&#x11e;" horiz-adv-x="812" 
d="M418 764c-56.667 0 -102.5 16 -137.5 48s-52.5 71.667 -52.5 119h101c0 -22.667 8.33301 -40.834 25 -54.501s38 -20.5 64 -20.5c25.333 0 46.333 6.83301 63 20.5s25 31.834 25 54.501h101c0 -47.333 -17.5 -87 -52.5 -119s-80.5 -48 -136.5 -48zM735 391
l-0.00292969 -391.001h-114l-10 58c-65.333 -48 -134.666 -72 -207.999 -72c-48 0 -93 9.5 -135 28.5s-77.5 44.833 -106.5 77.5s-51.833 71.167 -68.5 115.5s-25 91.166 -25 140.499c0 68 14.667 129.833 44 185.5s71.5 99.667 126.5 132s117.167 48.5 186.5 48.5
c100.667 0 195.667 -34 285 -102l-39 -105c-78.667 50.667 -158 76 -238 76c-62.667 0 -113.667 -20.833 -153 -62.5s-59 -99.167 -59 -172.5c0 -71.333 18.833 -127.666 56.5 -168.999s85.834 -62 144.501 -62c54.667 0.666992 111.334 16.334 170.001 47.001v107h-121v120
h264z" />
    <glyph glyph-name="gbreve" unicode="&#x11f;" horiz-adv-x="631" 
d="M320 564c-56 0 -101.667 16 -137 48s-53 71.667 -53 119h101c0 -22.667 8.33301 -40.834 25 -54.501s38 -20.5 64 -20.5s47.333 6.83301 64 20.5s25 31.834 25 54.501h101c0 -47.333 -17.5 -87 -52.5 -119s-80.833 -48 -137.5 -48zM568 500v-474.999
c0 -78 -22.167 -136.667 -66.5 -176s-101.5 -59 -171.5 -59c-86.667 -0.666992 -167.667 25.333 -243 78l9 106c36 -21.333 73.5 -38.333 112.5 -51s73.833 -19 104.5 -19c37.333 0 65.833 10.167 85.5 30.5s29.5 50.5 29.5 90.5v49c-48.667 -44 -102.334 -66 -161.001 -66
c-63.333 0 -115.333 24.333 -156 73s-61 108.667 -61 180s20.333 131.166 61 179.499s92.667 72.5 156 72.5c58.667 0.666992 112.334 -21 161.001 -65v52h140zM297 122.001c21.333 0 43.833 4.99902 67.5 14.999s44.834 24 63.501 42v160
c-18.667 17.333 -39.834 31 -63.501 41s-46.167 15 -67.5 15c-22 0 -40.833 -5.5 -56.5 -16.5s-27.667 -26.667 -36 -47s-12.5 -44.5 -12.5 -72.5s4.16699 -52.167 12.5 -72.5s20.333 -36.166 36 -47.499s34.5 -17 56.5 -17z" />
    <glyph glyph-name="Gdotaccent" unicode="&#x120;" horiz-adv-x="812" 
d="M418 775c-13.333 0 -25.5 3.16699 -36.5 9.5s-19.667 15 -26 26s-9.5 23.167 -9.5 36.5c0 19.333 7 36 21 50s30.833 21 50.5 21s36.5 -7 50.5 -21s21 -30.833 21 -50.5s-7 -36.5 -21 -50.5s-30.667 -21 -50 -21zM735 391l-0.00292969 -391.001h-114l-10 58
c-65.333 -48 -134.666 -72 -207.999 -72c-48 0 -93 9.5 -135 28.5s-77.5 44.833 -106.5 77.5s-51.833 71.167 -68.5 115.5s-25 91.166 -25 140.499c0 68 14.667 129.833 44 185.5s71.5 99.667 126.5 132s117.167 48.5 186.5 48.5c100.667 0 195.667 -34 285 -102l-39 -105
c-78.667 50.667 -158 76 -238 76c-62.667 0 -113.667 -20.833 -153 -62.5s-59 -99.167 -59 -172.5c0 -71.333 18.833 -127.666 56.5 -168.999s85.834 -62 144.501 -62c54.667 0.666992 111.334 16.334 170.001 47.001v107h-121v120h264z" />
    <glyph glyph-name="gdotaccent" unicode="&#x121;" horiz-adv-x="631" 
d="M320 575c-20 0 -36.833 7 -50.5 21s-20.5 30.833 -20.5 50.5s6.83301 36.5 20.5 50.5s30.5 21 50.5 21s36.833 -7 50.5 -21s20.5 -30.667 20.5 -50c0 -13.333 -3.16699 -25.5 -9.5 -36.5s-15 -19.667 -26 -26s-22.833 -9.5 -35.5 -9.5zM568 500v-474.999
c0 -78 -22.167 -136.667 -66.5 -176s-101.5 -59 -171.5 -59c-86.667 -0.666992 -167.667 25.333 -243 78l9 106c36 -21.333 73.5 -38.333 112.5 -51s73.833 -19 104.5 -19c37.333 0 65.833 10.167 85.5 30.5s29.5 50.5 29.5 90.5v49c-48.667 -44 -102.334 -66 -161.001 -66
c-63.333 0 -115.333 24.333 -156 73s-61 108.667 -61 180s20.333 131.166 61 179.499s92.667 72.5 156 72.5c58.667 0.666992 112.334 -21 161.001 -65v52h140zM297 122.001c14 0 28.668 2.33301 44.001 7s30.666 11.167 45.999 19.5s29 18.5 41 30.5v160
c-18.667 17.333 -39.834 31 -63.501 41s-46.167 15 -67.5 15c-22 0 -40.833 -5.5 -56.5 -16.5s-27.667 -26.667 -36 -47s-12.5 -44.5 -12.5 -72.5c0 -42 9.33301 -75.333 28 -100s44.334 -37 77.001 -37z" />
    <glyph glyph-name="Gcommaaccent" unicode="&#x122;" horiz-adv-x="812" 
d="M735 391l-0.000976562 -391.002h-114l-10 58c-65.333 -48 -134.666 -72 -207.999 -72c-24 0 -47.5 2.5 -70.5 7.5s-44.667 12 -65 21s-39.5 20.167 -57.5 33.5s-34.333 28.166 -49 44.499s-27.834 34.166 -39.501 53.499s-21.334 39.833 -29.001 61.5
s-13.667 44.334 -18 68.001s-6.5 47.834 -6.5 72.501c0 68 14.667 129.833 44 185.5s71.5 99.667 126.5 132s117.167 48.5 186.5 48.5c100.667 0 195.667 -34 285 -102l-39 -105c-78.667 50.667 -158 76 -238 76c-62.667 0 -113.667 -20.833 -153 -62.5
s-59 -99.167 -59 -172.5c0 -71.333 18.833 -127.666 56.5 -168.999s85.834 -62 144.501 -62c54.667 0.666992 111.334 16.334 170.001 47.001v107h-121v120h264zM420.999 -51.002c18 0.666992 33.335 -5.16406 46.002 -17.4971s20.667 -28.833 24 -49.5
s0.666016 -43.167 -8.00098 -67.5s-21.167 -47 -37.5 -68s-34.833 -39.167 -55.5 -54.5l-47 30c33.333 27.333 56.333 58.666 69 93.999c-16.667 2 -30.667 9.16699 -42 21.5s-17 27.166 -17 44.499c0 9.33301 1.83301 18.166 5.5 26.499s8.5 15.5 14.5 21.5
s13.167 10.667 21.5 14s17.166 5 26.499 5z" />
    <glyph glyph-name="gcommaaccent" unicode="&#x123;" horiz-adv-x="631" 
d="M322 549c-18 0 -33.5 6 -46.5 18s-20.833 28.333 -23.5 49c-3.33301 21.333 -0.833008 44 7.5 68s20.833 46.5 37.5 67.5s35.334 39.167 56.001 54.5l46 -29c-32.667 -28 -55.334 -59.667 -68.001 -95c16 -1.33301 29.667 -8.33301 41 -21s17 -27.667 17 -45
c0 -18.667 -6.5 -34.5 -19.5 -47.5s-28.833 -19.5 -47.5 -19.5zM568 500v-474.999c0 -78 -22.167 -136.667 -66.5 -176s-101.5 -59 -171.5 -59c-86.667 -0.666992 -167.667 25.333 -243 78l9 106c36 -21.333 73.5 -38.333 112.5 -51s73.833 -19 104.5 -19
c37.333 0 65.833 10.167 85.5 30.5s29.5 50.5 29.5 90.5v49c-48.667 -44 -102.334 -66 -161.001 -66c-63.333 0 -115.333 24.333 -156 73s-61 108.667 -61 180s20.333 131.166 61 179.499s92.667 72.5 156 72.5c58.667 0.666992 112.334 -21 161.001 -65v52h140z
M297 122.001c21.333 0 43.833 5 67.5 15s44.834 24 63.501 42v160c-18.667 17.333 -39.834 31 -63.501 41s-46.167 15 -67.5 15c-32.667 0 -58.334 -12.167 -77.001 -36.5s-28 -57.5 -28 -99.5s9.33301 -75.333 28 -100s44.334 -37 77.001 -37z" />
    <glyph glyph-name="Hbar" unicode="&#x126;" horiz-adv-x="790" 
d="M790 514h-82v-514h-149v303h-327v-303h-149v514h-83v103h83v83h149v-83h327v83h149v-83h82v-103zM559 514h-327v-88h327v88z" />
    <glyph glyph-name="hbar" unicode="&#x127;" horiz-adv-x="615" 
d="M384 514c49.333 0 90.168 -16.001 122.501 -48.001s48.5 -78.667 48.5 -140v-326h-140v308c0 28.667 -7.83301 50.334 -23.5 65.001s-35.834 22 -60.501 22c-42.667 -0.666992 -84.667 -18 -126 -52v-343h-140v539h-86v102h86v59h140v-59h118v-102h-118v-100
c53.333 50 113 75 179 75z" />
    <glyph glyph-name="Itilde" unicode="&#x128;" horiz-adv-x="315" 
d="M91 932c16.667 0 31.9951 -3.66699 45.9951 -11s30 -18 48 -32c20.667 -16 36 -24 46 -24c18.667 0 40.334 20 65.001 60l61 -50c-12 -18.667 -21.5 -32.667 -28.5 -42s-16.167 -20.166 -27.5 -32.499s-23.166 -21.333 -35.499 -27s-25.833 -8.5 -40.5 -8.5
c-12.667 0 -25.5 2.5 -38.5 7.5s-22.667 9.83301 -29 14.5s-15.5 11.667 -27.5 21c-20.667 16 -36.667 24 -48 24c-17.333 0 -38.666 -20 -63.999 -60l-60 50c10.667 17.333 19.334 30.666 26.001 39.999s15.834 20.333 27.501 33s24 22 37 28s27.167 9 42.5 9zM231.995 0
h-149v700h149v-700z" />
    <glyph glyph-name="itilde" unicode="&#x129;" horiz-adv-x="255" 
d="M63 732c6.66699 0 13.665 -0.835938 20.998 -2.50293s13.833 -3.66699 19.5 -6s11.834 -5.66602 18.501 -9.99902s12.334 -8.16602 17.001 -11.499s10.667 -7.66602 18 -12.999c20 -16 35.333 -24 46 -24c18.667 0 40.334 20 65.001 60l60 -50
c-11.333 -18.667 -20.5 -32.667 -27.5 -42s-16.167 -20.166 -27.5 -32.499s-23.333 -21.333 -36 -27s-26.334 -8.5 -41.001 -8.5c-12.667 0 -25.334 2.5 -38.001 7.5s-22.334 9.83301 -29.001 14.5s-15.667 11.667 -27 21c-20.667 16 -36.667 24 -48 24
c-18 0 -39.333 -20 -64 -60l-60 50c10.667 17.333 19.334 30.666 26.001 39.999s15.834 20.333 27.501 33s24 22 37 28s27.167 9 42.5 9zM199.998 -0.00292969h-140v500h140v-500z" />
    <glyph glyph-name="Imacron" unicode="&#x12a;" horiz-adv-x="315" 
d="M329 786h-344v108h344v-108zM232 0h-149v700h149v-700z" />
    <glyph glyph-name="imacron" unicode="&#x12b;" horiz-adv-x="255" 
d="M301 586h-344v108h344v-108zM200 0h-140v500h140v-500z" />
    <glyph glyph-name="Iogonek" unicode="&#x12e;" horiz-adv-x="315" 
d="M268 -131l24.999 -69.999c-29.333 -19.333 -65.666 -29 -108.999 -29c-34.667 0 -64.5 8.66699 -89.5 26s-37.5 41.333 -37.5 72c0 25.333 9.16699 49.5 27.5 72.5s41.5 42.833 69.5 59.5h-71v700h149v-700c-47.333 -30.667 -71.333 -62.334 -72 -95.001
c0.666992 -31.333 19.667 -46.666 57 -45.999c18.667 -0.666992 35.667 2.66602 51 9.99902z" />
    <glyph glyph-name="iogonek" unicode="&#x12f;" horiz-adv-x="255" 
d="M129 575c-12.667 0 -24.5 3.16699 -35.5 9.5s-19.667 15 -26 26s-9.5 23.167 -9.5 36.5c0 19.333 6.83301 36 20.5 50s30.5 21 50.5 21s36.833 -7 50.5 -21s20.5 -30.833 20.5 -50.5s-6.83301 -36.5 -20.5 -50.5s-30.5 -21 -50.5 -21zM236 -131l25 -69.999
c-29.333 -19.333 -65.333 -29 -108 -29c-22.667 0 -43.5 3.66699 -62.5 11s-34.667 18.5 -47 33.5s-18.5 32.833 -18.5 53.5c0 25.333 9.16699 49.5 27.5 72.5s41.5 42.833 69.5 59.5h-62v500h140v-500c-47.333 -30.667 -71.333 -62.334 -72 -95.001
c0.666992 -31.333 20 -46.666 58 -45.999c18 -0.666992 34.667 2.66602 50 9.99902z" />
    <glyph glyph-name="Idotaccent" unicode="&#x130;" horiz-adv-x="315" 
d="M157.5 918c19.667 0 36.5 -7 50.5 -21s21 -30.833 21 -50.5s-7 -36.5 -21 -50.5s-31 -21 -51 -21c-12.667 0 -24.5 3.16699 -35.5 9.5s-19.667 15 -26 26s-9.5 23.167 -9.5 36.5c0 19.333 7 36 21 50s30.833 21 50.5 21zM232 0h-149v700h149v-700z" />
    <glyph glyph-name="dotlessi" unicode="&#x131;" horiz-adv-x="255" 
d="M200 0h-140v500h140v-500z" />
    <glyph glyph-name="IJ" unicode="&#x132;" horiz-adv-x="789" 
d="M232 0h-149v700h149v-700zM706 700v-449.999c0 -74.667 -23.667 -137.334 -71 -188.001s-109 -76 -185 -76c-39.333 0 -76 7 -110 21l40 112c18 -4.66699 37 -7 57 -7c36 0 65 12.667 87 38s33 59 33 101v449h149z" />
    <glyph glyph-name="ij" unicode="&#x133;" horiz-adv-x="542" 
d="M130 719c14.667 0 28.333 -3.5 41 -10.5s22.667 -16.5 30 -28.5s11 -25.333 11 -40c0 -22 -8 -40.833 -24 -56.5s-35.333 -23.5 -58 -23.5s-42 7.83301 -58 23.5s-24 34.5 -24 56.5s8 40.667 24 56s35.333 23 58 23zM404.999 719c14.667 0 28.333 -3.5 41 -10.5
s22.667 -16.5 30 -28.5s11 -25.333 11 -40c0 -22 -8 -40.833 -24 -56.5s-35.333 -23.5 -58 -23.5s-42 7.83301 -58 23.5s-24 34.5 -24 56.5s8 40.667 24 56s35.333 23 58 23zM199.998 0h-140v500h140v-500zM474.998 500v-549c0 -58.667 -14.167 -101.667 -42.5 -129
s-65.5 -41 -111.5 -41c-31.333 0 -65.666 5.66699 -102.999 17l9 103c17.333 -3.33301 32.666 -5 45.999 -5c41.333 0 62 23.333 62 70v534h140z" />
    <glyph glyph-name="Kcommaaccent" unicode="&#x136;" horiz-adv-x="726" 
d="M701 0h-181l-199 313l-89 -96v-217h-149v700h149v-299l255 299h189l-262 -285zM366 -51c12 0.666992 22.832 -1.83105 32.499 -7.49805s17.834 -13.5 24.501 -23.5s11 -22 13 -36c4.66699 -31.333 -3 -65 -23 -101s-46 -65.667 -78 -89l-47 30
c33.333 27.333 56.333 58.666 69 93.999c-16.667 2 -30.667 9.16699 -42 21.5s-17 27.166 -17 44.499c0 19.333 6.66699 35.5 20 48.5s29.333 19.167 48 18.5z" />
    <glyph glyph-name="kcommaaccent" unicode="&#x137;" horiz-adv-x="607" 
d="M592 0h-162l-145 228l-77 -73v-155h-140v700h140v-390l184 190h178l-197 -188zM327 -51c18 0.666992 33.332 -5.16406 45.999 -17.4971s20.667 -28.833 24 -49.5c2 -12.667 1.83301 -26.167 -0.5 -40.5s-6.66602 -28.333 -12.999 -42s-13.833 -27 -22.5 -40
s-18.667 -25.333 -30 -37s-23 -21.834 -35 -30.501l-47 30c33.333 27.333 56.333 58.666 69 93.999c-16.667 2 -30.667 9.16699 -42 21.5s-17 27.166 -17 44.499c0 19.333 6.5 35.5 19.5 48.5s29.167 19.167 48.5 18.5z" />
    <glyph glyph-name="Lacute" unicode="&#x139;" horiz-adv-x="571" 
d="M369 765h-133l128 173h145zM546 123v-123h-463v700h149v-577h314z" />
    <glyph glyph-name="lacute" unicode="&#x13a;" horiz-adv-x="384" 
d="M208 765h-133l128 173h145zM208 700l-0.000976562 -528.001c0 -48.667 21 -72.667 63 -72c10.667 0 23 2 37 6l34 -91c-40.667 -19.333 -80 -29 -118 -29c-45.333 0 -82.666 13.833 -111.999 41.5s-44 69.834 -44 126.501v546h140z" />
    <glyph glyph-name="Lcommaaccent" unicode="&#x13b;" horiz-adv-x="571" 
d="M546 123v-123h-463v700h149v-577h314zM312 -51c18 0.666992 33.333 -5.16504 46 -17.498s20.667 -28.833 24 -49.5c4.66699 -31.333 -3 -65 -23 -101s-46 -65.667 -78 -89l-47 30c33.333 27.333 56.333 58.666 69 93.999c-16.667 2 -30.667 9.16699 -42 21.5
s-17 27.166 -17 44.499c0 19.333 6.5 35.5 19.5 48.5s29.167 19.167 48.5 18.5z" />
    <glyph glyph-name="lcommaaccent" unicode="&#x13c;" horiz-adv-x="384" 
d="M208 700l0.000976562 -528.001c0 -48.667 21 -72.667 63 -72c10.667 0 23 2 37 6l34 -91c-40.667 -19.333 -80 -29 -118 -29c-29.333 0 -55.333 5.5 -78 16.5s-41.334 29.333 -56.001 55s-22 57.834 -22 96.501v546h140zM186.001 -51.001
c12 0.666992 22.832 -1.83203 32.499 -7.49902s17.834 -13.5 24.501 -23.5s11 -22 13 -36c4.66699 -31.333 -3 -65 -23 -101s-46 -65.667 -78 -89l-47 30c33.333 27.333 56.333 58.666 69 93.999c-10.667 1.33301 -20.5 5 -29.5 11s-16.167 13.833 -21.5 23.5
s-8 20.167 -8 31.5c0 19.333 6.5 35.5 19.5 48.5s29.167 19.167 48.5 18.5z" />
    <glyph glyph-name="Lcaron" unicode="&#x13d;" horiz-adv-x="571" 
d="M402 474l-46.002 30.001c33.333 27.333 56 58.666 68 93.999c-16 2 -29.667 9.16699 -41 21.5s-17 27.166 -17 44.499c0 19.333 6.5 35.5 19.5 48.5s29.167 19.5 48.5 19.5c11.333 0 22 -2.66699 32 -8s18.167 -13.166 24.5 -23.499s10.5 -22.5 12.5 -36.5
c3.33301 -20.667 0.833008 -43.167 -7.5 -67.5s-20.666 -47 -36.999 -68s-35.166 -39.167 -56.499 -54.5zM545.998 123.001v-123h-463v700h149v-577h314z" />
    <glyph glyph-name="lcaron" unicode="&#x13e;" horiz-adv-x="384" 
d="M350 732c18 0 33.335 -6.16406 46.002 -18.4971s20.667 -28.833 24 -49.5s0.666016 -43.167 -8.00098 -67.5s-21.167 -47 -37.5 -68s-34.833 -39.167 -55.5 -54.5l-47 30c33.333 27.333 56.333 58.666 69 93.999c-16.667 2 -30.667 9.16699 -42 21.5
s-17 27.166 -17 44.499c0 9.33301 1.83301 18.166 5.5 26.499s8.5 15.5 14.5 21.5s13.167 10.833 21.5 14.5s17.166 5.5 26.499 5.5zM208.002 700.003l0.000976562 -528.001c0 -48.667 21 -72.667 63 -72c10.667 0 23 2 37 6l34 -91c-40.667 -19.333 -80 -29 -118 -29
c-29.333 0 -55.333 5.5 -78 16.5s-41.334 29.333 -56.001 55s-22 57.834 -22 96.501v546h140z" />
    <glyph glyph-name="Ldot" unicode="&#x13f;" horiz-adv-x="571" 
d="M546 123v-123h-463v700h149v-577h314zM382 256c-22.667 0 -42.166 8.16895 -58.499 24.502s-24.5 36.166 -24.5 59.499s8.16699 43 24.5 59s36 24 59 24s42.667 -8 59 -24s24.5 -35.667 24.5 -59c0 -15.333 -3.83301 -29.333 -11.5 -42s-17.834 -22.834 -30.501 -30.501
s-26.667 -11.5 -42 -11.5z" />
    <glyph glyph-name="ldot" unicode="&#x140;" horiz-adv-x="384" 
d="M208 700l0.000976562 -528.001c0 -48.667 21 -72.667 63 -72c10.667 0 23 2 37 6l34 -91c-40.667 -19.333 -80 -29 -118 -29c-29.333 0 -55.333 5.5 -78 16.5s-41.334 29.333 -56.001 55s-22 57.834 -22 96.501v546h140zM328.001 422.999
c15.333 0 29.3281 -3.66602 41.9951 -10.999s22.834 -17.333 30.501 -30s11.5 -26.667 11.5 -42c0 -23.333 -8.16699 -43.166 -24.5 -59.499s-36.166 -24.5 -59.499 -24.5c-11.333 0 -22.166 2.33301 -32.499 7s-19.166 10.667 -26.499 18s-13.166 16.166 -17.499 26.499
s-6.5 21.166 -6.5 32.499c0 23.333 8.16699 43 24.5 59s35.833 24 58.5 24z" />
    <glyph glyph-name="Lslash" unicode="&#x141;" horiz-adv-x="557" 
d="M546 123v-123h-463v256l-75 -41l-52 96l127 69v320h149v-238l108 60l53 -96l-161 -88v-215h314z" />
    <glyph glyph-name="lslash" unicode="&#x142;" horiz-adv-x="371" 
d="M267 99c12 0 25.667 2.33301 41 7l17 -94c-36.667 -17.333 -72 -26 -106 -26c-44.667 0 -81 14.167 -109 42.5s-42 71.166 -42 128.499v123l-70 -39l-49 89l119 65v305h140v-229l91 51l49 -89l-140 -77v-181c0 -51.333 19.667 -76.666 59 -75.999z" />
    <glyph glyph-name="Nacute" unicode="&#x143;" horiz-adv-x="770" 
d="M446 765h-133l128 173h145zM692 700v-700h-133l-336 458v-458h-145v700h133l336 -462v462h145z" />
    <glyph glyph-name="nacute" unicode="&#x144;" horiz-adv-x="610" 
d="M375 565h-133l128 173h145zM381 514c49.333 0 90.1689 -16.002 122.502 -48.002s48.5 -78.667 48.5 -140v-326h-140v308c0 28.667 -7.33301 50.334 -22 65.001s-34.334 22 -59.001 22c-42.667 -0.666992 -85.334 -18 -128.001 -52v-343h-140v500h140v-61
c26 24.667 54.667 43.334 86 56.001s62 19 92 19z" />
    <glyph glyph-name="Ncommaaccent" unicode="&#x145;" horiz-adv-x="770" 
d="M692 700v-700h-133l-336 458v-458h-145v700h133l336 -462v462h145zM388 -51c18 0.666992 33.333 -5.16504 46 -17.498s20.667 -28.833 24 -49.5c4.66699 -31.333 -2.83301 -65 -22.5 -101s-45.834 -65.667 -78.501 -89l-46 30c32.667 27.333 55.334 58.666 68.001 93.999
c-16.667 2 -30.667 9.16699 -42 21.5s-17 27.166 -17 44.499c0 19.333 6.66699 35.5 20 48.5s29.333 19.167 48 18.5z" />
    <glyph glyph-name="ncommaaccent" unicode="&#x146;" horiz-adv-x="610" 
d="M381 514c32 0 60.502 -6.50195 85.502 -19.502s45.5 -34 61.5 -63s24 -64.167 24 -105.5v-326h-140v308c0 28.667 -7.33301 50.334 -22 65.001s-34.334 22 -59.001 22c-42.667 -0.666992 -85.334 -18 -128.001 -52v-343h-140v500h140v-61
c26 24.667 54.667 43.334 86 56.001s62 19 92 19zM318.002 -51.002c17.333 0.666992 32.501 -5.16602 45.501 -17.499s21.167 -28.833 24.5 -49.5c4.66699 -31.333 -3 -65 -23 -101s-46.333 -65.667 -79 -89l-46 30c33.333 27.333 56 58.666 68 93.999
c-10.667 1.33301 -20.334 5 -29.001 11s-15.667 13.833 -21 23.5s-8 20.167 -8 31.5c0 19.333 6.5 35.5 19.5 48.5s29.167 19.167 48.5 18.5z" />
    <glyph glyph-name="Ncaron" unicode="&#x147;" horiz-adv-x="770" 
d="M316 764l-141 173h136l74 -101l74 101h136l-141 -173h-138zM692 700v-700h-133l-336 458v-458h-145v700h133l336 -462v462h145z" />
    <glyph glyph-name="ncaron" unicode="&#x148;" horiz-adv-x="610" 
d="M245 564l-141 173h136l74 -101l74 101h136l-141 -173h-138zM381 514c31.333 0 59.6689 -6.50195 85.002 -19.502s46 -34 62 -63s24 -64.167 24 -105.5v-326h-140v308c0 28.667 -7.33301 50.334 -22 65.001s-34.334 22 -59.001 22
c-42.667 -0.666992 -85.334 -18 -128.001 -52v-343h-140v500h140v-61c26 24.667 54.667 43.334 86 56.001s62 19 92 19z" />
    <glyph glyph-name="Eng" unicode="&#x14a;" horiz-adv-x="770" 
d="M692 700l0.000976562 -649.999c0 -74.667 -23.667 -137.334 -71 -188.001s-109 -76 -185 -76c-37.333 0 -72 6 -104 18l38 108c18.667 -4.66699 38 -7 58 -7c20.667 0 39.5 4.66699 56.5 14s30.667 22.5 41 39.5s17.166 36.833 20.499 59.5l-323 440v-458h-145v700h133
l336 -462v462h145z" />
    <glyph glyph-name="eng" unicode="&#x14b;" horiz-adv-x="610" 
d="M381 514c32 0 60.502 -6.50195 85.502 -19.502s45.5 -34 61.5 -63s24 -64.167 24 -105.5v-375c0 -58.667 -14 -101.667 -42 -129s-65 -41 -111 -41c-31.333 0 -66 5.66699 -104 17l9 103c18 -3.33301 33.333 -5 46 -5c41.333 0 62 23.333 62 70v342
c0 28.667 -7.33301 50.334 -22 65.001s-34.334 22 -59.001 22c-42.667 -0.666992 -85.334 -18 -128.001 -52v-343h-140v500h140v-61c26 24.667 54.667 43.334 86 56.001s62 19 92 19z" />
    <glyph glyph-name="Omacron" unicode="&#x14c;" 
d="M599 786h-343v108h343v-108zM428 714c70.667 0 133.667 -16.3311 189 -48.998s97.666 -76.5 126.999 -131.5s44 -116.167 44 -183.5s-14.667 -128.5 -44 -183.5s-71.666 -98.833 -126.999 -131.5s-118.333 -49 -189 -49c-53.333 0 -102.666 9.5 -147.999 28.5
s-83.333 45 -114 78s-54.667 71.667 -72 116s-26 91.5 -26 141.5c0 67.333 14.667 128.666 44 183.999s71.666 99.166 126.999 131.499s118.333 48.5 189 48.5zM428 583.002c-61.333 0 -111.166 -21.833 -149.499 -65.5s-57.5 -99.5 -57.5 -167.5
s19.167 -123.833 57.5 -167.5s88.166 -65.5 149.499 -65.5s111.166 21.833 149.499 65.5s57.5 99.5 57.5 167.5s-19.167 123.833 -57.5 167.5s-88.166 65.5 -149.499 65.5z" />
    <glyph glyph-name="omacron" unicode="&#x14d;" horiz-adv-x="634" 
d="M489 586h-344v108h344v-108zM317 514c79.333 0 143.666 -25.332 192.999 -75.999s74 -113.334 74 -188.001s-24.667 -137.334 -74 -188.001s-113.666 -76 -192.999 -76c-78.667 0 -142.834 25.333 -192.501 76s-74.5 113.334 -74.5 188.001
c0 75.333 24.833 138.333 74.5 189s113.834 75.667 192.501 75zM317 394.001c-38.667 0 -69.333 -13.332 -92 -39.999s-33.667 -61.334 -33 -104.001c0 -28 5 -52.833 15 -74.5s24.5 -38.667 43.5 -51s41.167 -18.5 66.5 -18.5c38 0 68.333 13.167 91 39.5
s34 61.166 34 104.499c0 28.667 -5 53.834 -15 75.501s-24.5 38.5 -43.5 50.5s-41.167 18 -66.5 18z" />
    <glyph glyph-name="Ohungarumlaut" unicode="&#x150;" 
d="M383 764h-126l131 173h138zM597 764h-127l131 173h139zM428 714c70.667 0 133.667 -16.3311 189 -48.998s97.666 -76.5 126.999 -131.5s44 -116.167 44 -183.5s-14.667 -128.5 -44 -183.5s-71.666 -98.833 -126.999 -131.5s-118.333 -49 -189 -49
s-133.667 16.333 -189 49s-97.666 76.5 -126.999 131.5s-44 116.167 -44 183.5s14.667 128.666 44 183.999s71.666 99.166 126.999 131.499s118.333 48.5 189 48.5zM428 583.002c-61.333 0 -111.166 -21.833 -149.499 -65.5s-57.5 -99.5 -57.5 -167.5
s19.167 -123.833 57.5 -167.5s88.166 -65.5 149.499 -65.5s111.166 21.833 149.499 65.5s57.5 99.5 57.5 167.5s-19.167 123.833 -57.5 167.5s-88.166 65.5 -149.499 65.5z" />
    <glyph glyph-name="ohungarumlaut" unicode="&#x151;" horiz-adv-x="634" 
d="M272 564h-126l131 173h138zM486 564h-126l131 173h138zM317 514c52.667 0 99.499 -11.833 140.499 -35.5s72.333 -55.5 94 -95.5s32.5 -84.333 32.5 -133c0 -74.667 -24.667 -137.334 -74 -188.001s-113.666 -76 -192.999 -76c-78.667 0 -142.834 25.333 -192.501 76
s-74.5 113.334 -74.5 188.001c0 75.333 24.833 138.333 74.5 189s113.834 75.667 192.501 75zM316.999 394c-38.667 0 -69.333 -13.3301 -92 -39.9971s-33.667 -61.334 -33 -104.001c0 -28 5 -52.833 15 -74.5s24.5 -38.667 43.5 -51s41.167 -18.5 66.5 -18.5
c38 0 68.333 13.167 91 39.5s34 61.166 34 104.499s-11.333 78.166 -34 104.499s-53 39.5 -91 39.5z" />
    <glyph glyph-name="OE" unicode="&#x152;" horiz-adv-x="1191" 
d="M1146 123v-122.998h-507v49c-60.667 -42 -131 -63 -211 -63c-70.667 0 -133.667 16.333 -189 49s-97.666 76.5 -126.999 131.5s-44 116.167 -44 183.5s14.667 128.666 44 183.999s71.666 99.166 126.999 131.499s118.333 48.5 189 48.5c80.667 0 151 -21 211 -63v49h497
v-123h-348v-149h309v-123h-309v-182h358zM428 117.002c61.333 0 111.166 21.833 149.499 65.5s57.5 99.5 57.5 167.5s-19.167 123.833 -57.5 167.5s-88.166 65.5 -149.499 65.5s-111.166 -21.833 -149.499 -65.5s-57.5 -99.5 -57.5 -167.5s19.167 -123.833 57.5 -167.5
s88.166 -65.5 149.499 -65.5z" />
    <glyph glyph-name="oe" unicode="&#x153;" horiz-adv-x="981" 
d="M317 514c80 0 144.667 -27.002 194 -81.002c46.667 54 108.334 81 185.001 81c74 0 132.5 -24 175.5 -72s65.5 -112 67.5 -192c0 -11.333 -0.333008 -22.666 -1 -33.999h-351c0.666992 -4.66699 1.33398 -9 2.00098 -13c7.33301 -32.667 21.666 -58 42.999 -76
s47.666 -27 78.999 -27c46 0 97 13.667 153 41l33 -87c-58.667 -45.333 -125 -68 -199 -68c-76.667 0 -139 27.333 -187 82c-49.333 -54.667 -114 -82 -194 -82c-78.667 0 -142.834 25.333 -192.501 76s-74.5 113.334 -74.5 188.001c0 75.333 24.833 138.333 74.5 189
s113.834 75.667 192.501 75zM699 399.998c-29.333 0 -53.5 -8.83203 -72.5 -26.499s-31.5 -41.834 -37.5 -72.501h211c-9.33301 66 -43 99 -101 99zM317 393.999c-38.667 0 -69.333 -13.332 -92 -39.999s-33.667 -61.334 -33 -104.001c0 -28 5 -52.833 15 -74.5
s24.5 -38.667 43.5 -51s41.167 -18.5 66.5 -18.5c38 0 68.333 13.167 91 39.5s34 61.166 34 104.499c0 28.667 -5 53.834 -15 75.501s-24.5 38.5 -43.5 50.5s-41.167 18 -66.5 18z" />
    <glyph glyph-name="Racute" unicode="&#x154;" horiz-adv-x="695" 
d="M408 765h-133l128 173h145zM366 267h-134v-267h-149v700h90h255c38 0 72.667 -8.83301 104 -26.5s56.5 -43.167 75.5 -76.5s28.5 -71.333 28.5 -114c0 -48 -12 -89.833 -36 -125.5s-55.667 -61.167 -95 -76.5l165 -281h-168zM232 390l184 -0.000976562
c20.667 0 38.5 8.33301 53.5 25s22.5 39.667 22.5 69c0 28.667 -7.33301 51.334 -22 68.001s-32.667 25 -54 25h-184v-187z" />
    <glyph glyph-name="racute" unicode="&#x155;" horiz-adv-x="426" 
d="M295 565h-133l128 173h145zM203 500l-0.000976562 -68.999c28 27.333 59.333 48.166 94 62.499s68.334 21.5 101.001 21.5c4 0 8.33301 -0.333008 13 -1l-23 -130h-16c-60 0 -116.333 -21.667 -169 -65v-319h-140v500h140z" />
    <glyph glyph-name="Rcommaaccent" unicode="&#x156;" horiz-adv-x="695" 
d="M670 0h-168l-136 267h-134v-267h-149v700h90h255c58 0 107.167 -20.167 147.5 -60.5s60.5 -92.5 60.5 -156.5c0 -48 -12 -89.833 -36 -125.5s-55.667 -61.167 -95 -76.5zM232 390l184 -0.000976562c20.667 0 38.5 8.33301 53.5 25s22.5 39.667 22.5 69
c0 28.667 -7.33301 51.334 -22 68.001s-32.667 25 -54 25h-184v-187zM350 -51.001c18 0.666992 33.5 -5.16504 46.5 -17.498s20.833 -28.833 23.5 -49.5c5.33301 -31.333 -2 -65 -22 -101s-46.333 -65.667 -79 -89l-46 30c33.333 27.333 56 58.666 68 93.999
c-16 2 -29.667 9.16699 -41 21.5s-17 27.166 -17 44.499c0 12.667 3 24.167 9 34.5s14.167 18.5 24.5 24.5s21.5 8.66699 33.5 8z" />
    <glyph glyph-name="rcommaaccent" unicode="&#x157;" horiz-adv-x="426" 
d="M398 515c4.66699 0 9.00098 -0.333008 13.001 -1l-23 -130h-16c-60 0 -116.333 -21.667 -169 -65v-319h-140v500h140v-69c18.667 18 39.167 33.333 61.5 46s44.666 22.167 66.999 28.5s44.5 9.5 66.5 9.5zM238.001 -51c12 0.666992 22.832 -1.83105 32.499 -7.49805
s17.834 -13.5 24.501 -23.5s11 -22 13 -36c4.66699 -31.333 -3 -65 -23 -101s-46 -65.667 -78 -89l-47 30c33.333 27.333 56.333 58.666 69 93.999c-16.667 2 -30.667 9.16699 -42 21.5s-17 27.166 -17 44.499c0 19.333 6.5 35.5 19.5 48.5s29.167 19.167 48.5 18.5z" />
    <glyph glyph-name="Rcaron" unicode="&#x158;" horiz-adv-x="695" 
d="M278 764l-141 173h136l74 -101l74 101h136l-141 -173h-138zM366 267h-134v-267h-149v700h90h255c58 0 107.167 -20.167 147.5 -60.5s60.5 -92.5 60.5 -156.5c0 -48 -12 -89.833 -36 -125.5s-55.667 -61.167 -95 -76.5l165 -281h-168zM232 390l184 -0.000976562
c20.667 0 38.5 8.33301 53.5 25s22.5 39.667 22.5 69c0 28.667 -7.33301 51.334 -22 68.001s-32.667 25 -54 25h-184v-187z" />
    <glyph glyph-name="rcaron" unicode="&#x159;" horiz-adv-x="426" 
d="M166 564l-141 173h136l74 -101l74 101h136l-141 -173h-138zM203 500l-0.000976562 -68.999c28 27.333 59.333 48.166 94 62.499s68.334 21.5 101.001 21.5c4 0 8.33301 -0.333008 13 -1l-23 -130h-16c-60 0 -116.333 -21.667 -169 -65v-319h-140v500h140z" />
    <glyph glyph-name="Sacute" unicode="&#x15a;" horiz-adv-x="639" 
d="M381 765h-133l128 173h145zM328 714c104 0 188.997 -29.6709 254.997 -89.0039l-81 -99c-48.667 38.667 -107 58 -175 58c-74.667 0 -113.334 -27 -116.001 -81c-0.666992 -19.333 7.5 -34.333 24.5 -45s55.833 -24 116.5 -40l9 -3c20 -5.33301 35.333 -9.5 46 -12.5
s25.667 -8 45 -15s34.5 -13.833 45.5 -20.5s23.667 -15.5 38 -26.5s25.333 -22.5 33 -34.5s14.334 -26.833 20.001 -44.5s8.5 -36.5 8.5 -56.5c0 -30.667 -5.5 -58.5 -16.5 -83.5s-25.667 -45.667 -44 -62s-39.666 -30.166 -63.999 -41.499s-49 -19.5 -74 -24.5
s-50.5 -7.5 -76.5 -7.5c-54.667 0 -108.167 10.833 -160.5 32.5s-92.833 50.834 -121.5 87.501l84 94c21.333 -26 50.333 -46.667 87 -62s73.667 -23 111 -23c25.333 0 47.166 3.66699 65.499 11s32.333 17.333 42 30s14.5 27.334 14.5 44.001
c0.666992 26 -12.666 45.333 -39.999 58c-15.333 7.33301 -48.666 18 -99.999 32c-36.667 10 -66.667 19 -90 27s-46 17.833 -68 29.5s-38.667 24 -50 37s-20.5 28.833 -27.5 47.5s-10.5 40.334 -10.5 65.001c0 38 7.33301 71.5 22 100.5s34.834 51.833 60.501 68.5
s54.167 29 85.5 37s65.333 12 102 12z" />
    <glyph glyph-name="sacute" unicode="&#x15b;" horiz-adv-x="503" 
d="M312 565h-133l128 173h145zM253 514c37.333 0 73.834 -5.16797 109.501 -15.501s65.5 -26.5 89.5 -48.5l-53 -86c-11.333 10 -24.833 18.333 -40.5 25s-31.834 11.667 -48.501 15s-33.667 5 -51 5c-14.667 0 -27.5 -1.66699 -38.5 -5s-20 -8.5 -27 -15.5
s-10.833 -15.833 -11.5 -26.5c-1.33301 -12 4 -21.333 16 -28s37 -14.667 75 -24c15.333 -3.33301 25.5 -5.66602 30.5 -6.99902s14.667 -4 29 -8s24.5 -7.33301 30.5 -10s15.167 -6.83398 27.5 -12.501s21.333 -11 27 -16s12.5 -11.333 20.5 -19s13.833 -15.667 17.5 -24
s7 -18 10 -29s4.5 -22.833 4.5 -35.5c0 -29.333 -6.83301 -54.833 -20.5 -76.5s-31.667 -38.667 -54 -51s-46.166 -21.333 -71.499 -27s-51.666 -8.5 -78.999 -8.5c-43.333 0 -84.5 6.83301 -123.5 20.5s-69.5 33.167 -91.5 58.5l54 86
c15.333 -19.333 37.166 -34.166 65.499 -44.499s57.833 -15.5 88.5 -15.5c29.333 0 52.166 4.83301 68.499 14.5s24.833 22.834 25.5 39.501c0 14 -5.83301 24 -17.5 30s-33.5 13 -65.5 21c-6 2 -10.667 3.33301 -14 4c-35.333 8.66699 -63.333 16.667 -84 24
s-40 16.833 -58 28.5s-30.667 25.5 -38 41.5s-11 35.667 -11 59c0 28.667 5.83301 53.667 17.5 75s27.667 38.166 48 50.499s42.5 21.333 66.5 27s49.667 8.5 77 8.5z" />
    <glyph glyph-name="Scedilla" unicode="&#x15e;" horiz-adv-x="639" 
d="M597 205c0 -34 -6.83594 -64.6689 -20.5029 -92.002s-32.167 -49.5 -55.5 -66.5s-48.666 -30.333 -75.999 -40s-56 -15.834 -86 -18.501l-9 -31c2.66699 -0.666992 5.66699 -1 9 -1c30 -4.66699 53.667 -15.5 71 -32.5s26 -38.167 26 -63.5
c0 -30.667 -12.333 -56.167 -37 -76.5s-58 -30.833 -100 -31.5c-23.333 -0.666992 -48.333 1.83301 -75 7.5s-48.334 12.834 -65.001 21.501l29 64c30.667 -12 61.667 -18 93 -18c32 0 48 10.667 48 32c-0.666992 20.667 -12 31 -34 31c-16.667 0 -33 -3.33301 -49 -10
l-19 43l31 65c-48 5.33301 -93.5 18.5 -136.5 39.5s-76.833 47.167 -101.5 78.5l84 94c21.333 -26 50.333 -46.667 87 -62s73.667 -23 111 -23c25.333 0 47.166 3.66699 65.499 11s32.333 17.333 42 30s14.5 27.334 14.5 44.001c0.666992 26 -12.666 45.333 -39.999 58
c-15.333 7.33301 -48.666 18 -99.999 32c-30.667 8.66699 -56.167 16.334 -76.5 23.001s-40.666 14.5 -60.999 23.5s-36.5 18.167 -48.5 27.5s-22.833 20.5 -32.5 33.5s-16.667 27.5 -21 43.5s-6.5 34.333 -6.5 55c0 38 7.33301 71.5 22 100.5s34.834 51.833 60.501 68.5
s54.167 29 85.5 37s65.333 12 102 12c104 0 189 -29.667 255 -89l-81 -99c-48.667 38.667 -107 58 -175 58c-74.667 0 -113.334 -27 -116.001 -81c-0.666992 -19.333 7.5 -34.333 24.5 -45s55.833 -24 116.5 -40l9 -3c20 -5.33301 35.333 -9.5 46 -12.5s25.667 -8 45 -15
s34.5 -13.833 45.5 -20.5s23.667 -15.5 38 -26.5s25.333 -22.5 33 -34.5s14.334 -26.833 20.001 -44.5s8.5 -36.5 8.5 -56.5z" />
    <glyph glyph-name="scedilla" unicode="&#x15f;" horiz-adv-x="503" 
d="M273 310c15.333 -3.33301 25.5039 -5.66309 30.5039 -6.99609s14.667 -4 29 -8s24.5 -7.33301 30.5 -10s15.167 -6.83398 27.5 -12.501s21.333 -11 27 -16s12.5 -11.333 20.5 -19s13.833 -15.667 17.5 -24s7 -18 10 -29s4.5 -22.833 4.5 -35.5
c0 -24.667 -5 -46.834 -15 -66.501s-23.667 -35.834 -41 -48.501s-36.333 -22.667 -57 -30s-42.667 -12.333 -66 -15l-9 -32c2.66699 0 5.33398 -0.333008 8.00098 -1c30.667 -4.66699 54.667 -15.5 72 -32.5s25.666 -38.167 24.999 -63.5
c0.666992 -30.667 -11.333 -56.167 -36 -76.5s-58 -30.833 -100 -31.5c-23.333 -0.666992 -48.333 1.83301 -75 7.5s-48.667 12.834 -66 21.501l30 64c30.667 -12 61.667 -18 93 -18s47.333 10.667 48 32c-0.666992 20.667 -12 31 -34 31c-16.667 0 -33 -3.33301 -49 -10
l-20 43l31 65c-36.667 3.33301 -71 11.666 -103 24.999s-57.333 30.666 -76 51.999l54 86c15.333 -19.333 37.166 -34.166 65.499 -44.499s57.833 -15.5 88.5 -15.5c29.333 0 52.166 4.83301 68.499 14.5s24.833 22.834 25.5 39.501c0 14 -5.83301 24 -17.5 30
s-33.5 13 -65.5 21c-6 2 -10.667 3.33301 -14 4c-35.333 8.66699 -63.333 16.667 -84 24s-40 16.833 -58 28.5s-30.667 25.5 -38 41.5s-11 35.667 -11 59c0 28.667 5.83301 53.667 17.5 75s27.667 38.166 48 50.499s42.5 21.333 66.5 27s49.667 8.5 77 8.5
c37.333 0 73.833 -5.16699 109.5 -15.5s65.5 -26.5 89.5 -48.5l-53 -86c-11.333 10 -24.833 18.333 -40.5 25s-31.834 11.667 -48.501 15s-33.667 5 -51 5c-22.667 0 -40.834 -3.83301 -54.501 -11.5s-21.167 -19.5 -22.5 -35.5c-0.666992 -8 1.5 -14.667 6.5 -20
s13.833 -10.333 26.5 -15s32 -10.334 58 -17.001z" />
    <glyph glyph-name="Scaron" unicode="&#x160;" horiz-adv-x="639" 
d="M251 764l-141 173h136l74 -101l74 101h136l-141 -173h-138zM597 205c0 -30.667 -5.50488 -58.5029 -16.5049 -83.5029s-25.667 -45.667 -44 -62s-39.666 -30.166 -63.999 -41.499s-49 -19.5 -74 -24.5s-50.5 -7.5 -76.5 -7.5c-54.667 0 -108.167 10.833 -160.5 32.5
s-92.833 50.834 -121.5 87.501l84 94c21.333 -26 50.333 -46.667 87 -62s73.667 -23 111 -23c38 0 67.667 7.83301 89 23.5s32.333 36.167 33 61.5c0.666992 26 -12.666 45.333 -39.999 58c-15.333 7.33301 -48.666 18 -99.999 32
c-30.667 8.66699 -56.167 16.334 -76.5 23.001s-40.666 14.5 -60.999 23.5s-36.5 18.167 -48.5 27.5s-22.833 20.5 -32.5 33.5s-16.667 27.5 -21 43.5s-6.5 34.333 -6.5 55c0 38 7.33301 71.5 22 100.5s34.834 51.833 60.501 68.5s54.167 29 85.5 37s65.333 12 102 12
c104 0 189 -29.667 255 -89l-81 -99c-48.667 38.667 -107 58 -175 58c-74.667 0 -113.334 -27 -116.001 -81c-0.666992 -19.333 7.5 -34.333 24.5 -45s55.833 -24 116.5 -40l9 -3c20 -5.33301 35.333 -9.5 46 -12.5s25.667 -8 45 -15s34.5 -13.833 45.5 -20.5
s23.667 -15.5 38 -26.5s25.333 -22.5 33 -34.5s14.334 -26.833 20.001 -44.5s8.5 -36.5 8.5 -56.5z" />
    <glyph glyph-name="scaron" unicode="&#x161;" horiz-adv-x="503" 
d="M183 564l-141 173h136l74 -101l73 101h137l-142 -173h-137zM273 310c15.333 -3.33301 25.5049 -5.66602 30.5049 -6.99902s14.667 -4 29 -8s24.5 -7.33301 30.5 -10s15.167 -6.83398 27.5 -12.501s21.333 -11 27 -16s12.5 -11.333 20.5 -19s13.833 -15.667 17.5 -24
s7 -18 10 -29s4.5 -22.833 4.5 -35.5c0 -29.333 -6.83301 -54.833 -20.5 -76.5s-31.834 -38.667 -54.501 -51s-46.5 -21.333 -71.5 -27s-51.167 -8.5 -78.5 -8.5c-43.333 0 -84.5 6.83301 -123.5 20.5s-69.5 33.167 -91.5 58.5l54 86
c15.333 -19.333 37.166 -34.166 65.499 -44.499s57.833 -15.5 88.5 -15.5c29.333 0 52.166 4.83301 68.499 14.5s24.833 22.834 25.5 39.501c0 14 -5.83301 24 -17.5 30s-33.5 13 -65.5 21c-6 2 -10.667 3.33301 -14 4c-35.333 8.66699 -63.333 16.667 -84 24
s-40 16.833 -58 28.5s-30.667 25.5 -38 41.5s-11 35.667 -11 59c0 28.667 5.83301 53.667 17.5 75s27.667 38.166 48 50.499s42.5 21.333 66.5 27s49.667 8.5 77 8.5c37.333 0 73.833 -5.16699 109.5 -15.5s65.5 -26.5 89.5 -48.5l-53 -86
c-11.333 10 -24.833 18.333 -40.5 25s-31.834 11.667 -48.501 15s-33.667 5 -51 5c-22.667 0 -40.834 -3.83301 -54.501 -11.5s-21.167 -19.5 -22.5 -35.5c-0.666992 -8 1.5 -14.667 6.5 -20s13.833 -10.333 26.5 -15s32 -10.334 58 -17.001z" />
    <glyph glyph-name="Tcedilla" unicode="&#x162;" horiz-adv-x="617" 
d="M354 0l-13.002 -43.001c2.66699 0 5.66699 -0.333008 9 -1c30 -4.66699 53.667 -15.5 71 -32.5s26 -38.167 26 -63.5c0 -30.667 -12.333 -56.167 -37 -76.5s-58 -30.833 -100 -31.5c-23.333 -0.666992 -48.166 1.83301 -74.499 7.5s-48.166 12.834 -65.499 21.501l30 64
c30 -12 60.667 -18 92 -18c32 0 48 10.667 48 32c0 20.667 -11.333 31 -34 31c-16 0 -32 -3.33301 -48 -10l-20 43l37 77h-41v577h-209v123h566v-123h-208v-577h-29z" />
    <glyph glyph-name="tcedilla" unicode="&#x163;" horiz-adv-x="472" 
d="M279 -44c30 -4.66699 53.668 -15.501 71.001 -32.501s26 -38.167 26 -63.5c0 -30.667 -12.333 -56.167 -37 -76.5s-58 -30.833 -100 -31.5c-23.333 -0.666992 -48.333 1.83301 -75 7.5s-48.334 12.834 -65.001 21.501l29 64c30.667 -12 61.667 -18 93 -18
s47.333 10.667 48 32c-0.666992 20.667 -12 31 -34 31c-16.667 0 -33 -3.33301 -49 -10l-19 43l38 80c-52.667 25.333 -79 73.333 -79 144v245h-96v88l93 20h3v135h140v-135h135v-108h-135v-226c0 -43.333 21.333 -65 64 -65c19.333 0 42 4.33301 68 13l29 -94
c-21.333 -10.667 -44 -19 -68 -25s-47.333 -9 -70 -9h-11l-8 -29c2.66699 -0.666992 5.66699 -1 9 -1z" />
    <glyph glyph-name="Tcaron" unicode="&#x164;" horiz-adv-x="617" 
d="M240 764l-141 173h136l74 -101l73 101h137l-142 -173h-137zM591 577h-208v-577h-150v577h-208v123h566v-123z" />
    <glyph glyph-name="tcaron" unicode="&#x165;" horiz-adv-x="472" 
d="M555 664c5.33301 -31.333 -2 -64.998 -22 -100.998s-46.333 -65.667 -79 -89l-46 30c32.667 27.333 55.334 58.666 68.001 93.999c-16 2 -29.667 9.16699 -41 21.5s-17 27.166 -17 44.499c0 7.33301 1 14.5 3 21.5s5.16699 13.333 9.5 19s9.16602 10.5 14.499 14.5
s11.5 7.16699 18.5 9.5s14.167 3.5 21.5 3.5c18 0 33.5 -6.16699 46.5 -18.5s20.833 -28.833 23.5 -49.5zM330 101.002c19.333 0 42 4.33301 68 13l29 -94c-45.333 -22.667 -91.333 -34 -138 -34c-47.333 0 -86.333 13.167 -117 39.5s-46 66.833 -46 121.5v245h-96v88l93 20
h3v135h140v-135h135v-108h-135v-226c0 -43.333 21.333 -65 64 -65z" />
    <glyph glyph-name="Tbar" unicode="&#x166;" horiz-adv-x="617" 
d="M383 577v-173h97v-108h-97v-296h-149v296h-97v108h97v173h-209v123h566v-123h-208z" />
    <glyph glyph-name="tbar" unicode="&#x167;" horiz-adv-x="472" 
d="M398 114l29 -94c-45.333 -22.667 -91.333 -34 -138 -34c-47.333 0 -86.333 13.167 -117 39.5s-46 66.833 -46 121.5v95h-87v101h87v49h-96v88l93 20h3v135h140v-135h135v-108h-135v-49h117v-101h-117v-76c0 -43.333 21.333 -65 64 -65c19.333 0 42 4.33301 68 13z" />
    <glyph glyph-name="Utilde" unicode="&#x168;" horiz-adv-x="762" 
d="M316 932c16.667 0 31.9951 -3.66699 45.9951 -11s30 -18 48 -32c20.667 -16 36 -24 46 -24c18.667 0 40.334 20 65.001 60l61 -50c-12 -18.667 -21.5 -32.667 -28.5 -42s-16.167 -20.166 -27.5 -32.499s-23.166 -21.333 -35.499 -27s-25.833 -8.5 -40.5 -8.5
c-12.667 0 -25.5 2.5 -38.5 7.5s-22.667 9.83301 -29 14.5s-15.5 11.667 -27.5 21c-20.667 16 -36.667 24 -48 24c-17.333 0 -38.666 -20 -63.999 -60l-60 50c10.667 17.333 19.334 30.666 26.001 39.999s15.834 20.333 27.501 33s24 22 37 28s27.167 9 42.5 9zM683.995 700
l0.000976562 -448c0 -80 -28.833 -144.333 -86.5 -193s-128.834 -73 -213.501 -73c-85.333 0 -156.833 24.5 -214.5 73.5s-86.5 113.167 -86.5 192.5v448h149v-448c0 -42.667 14.167 -76.334 42.5 -101.001s64.833 -37 109.5 -37c44 0 80.167 12.333 108.5 37
s42.5 58.334 42.5 101.001v448h149z" />
    <glyph glyph-name="utilde" unicode="&#x169;" horiz-adv-x="596" 
d="M223 632c-17.333 0 -38.6689 -20.002 -64.002 -60.002l-60 50c8.66699 13.333 15.5 23.833 20.5 31.5s12.167 17.334 21.5 29.001s18 20.5 26 26.5s17.833 11.333 29.5 16s23.5 7 35.5 7c11.333 0 23 -2.33301 35 -7s21.833 -9.5 29.5 -14.5s17.5 -12.167 29.5 -21.5
c20.667 -16 36 -24 46 -24c18.667 0 40.334 20 65.001 60l61 -50c-12 -18.667 -21.5 -32.667 -28.5 -42s-16.167 -20.166 -27.5 -32.499s-23.166 -21.333 -35.499 -27s-25.833 -8.5 -40.5 -8.5c-12.667 0 -25.5 2.5 -38.5 7.5s-22.667 9.83301 -29 14.5
s-15.5 11.667 -27.5 21c-20.667 16 -36.667 24 -48 24zM537.997 499.998l-0.00195312 -500h-140v60c-10 -9.33301 -20.667 -18 -32 -26s-22.666 -15 -33.999 -21s-23 -11 -35 -15s-24 -7 -36 -9s-23.667 -3 -35 -3c-49.333 0 -89.666 15.833 -120.999 47.5
s-47 78.5 -47 140.5v326h140v-308c0 -28.667 6.5 -50.167 19.5 -64.5s31.5 -21.833 55.5 -22.5c43.333 0 85 17.333 125 52v343h140z" />
    <glyph glyph-name="Umacron" unicode="&#x16a;" horiz-adv-x="762" 
d="M554 786h-344v108h344v-108zM684 700l0.000976562 -448c0 -80 -28.833 -144.333 -86.5 -193s-128.834 -73 -213.501 -73c-85.333 0 -156.833 24.5 -214.5 73.5s-86.5 113.167 -86.5 192.5v448h149v-448c0 -42.667 14.167 -76.334 42.5 -101.001s64.833 -37 109.5 -37
c44 0 80.167 12.333 108.5 37s42.5 58.334 42.5 101.001v448h149z" />
    <glyph glyph-name="umacron" unicode="&#x16b;" horiz-adv-x="596" 
d="M470 586h-344v108h344v-108zM538 500l-0.00195312 -500h-140v60c-24.667 -24 -52.167 -42.333 -82.5 -55s-60.166 -19 -89.499 -19c-49.333 0 -89.666 15.833 -120.999 47.5s-47 78.5 -47 140.5v326h140v-308c0 -28.667 6.5 -50.167 19.5 -64.5s31.5 -21.833 55.5 -22.5
c43.333 0 85 17.333 125 52v343h140z" />
    <glyph glyph-name="Uring" unicode="&#x16e;" horiz-adv-x="762" 
d="M382 997c26.667 0 50.168 -5.83496 70.501 -17.502s36 -27.167 47 -46.5s16.5 -41 16.5 -65c0 -36 -12.333 -66.333 -37 -91s-57 -37 -97 -37c-19.333 0 -37.333 3.33301 -54 10s-30.834 15.834 -42.501 27.501s-20.667 25.334 -27 41.001s-9.5 32.167 -9.5 49.5
c0 24 5.5 45.833 16.5 65.5s26.667 35.167 47 46.5s43.5 17 69.5 17zM382.001 922.998c-14 0 -25.833 -4.99805 -35.5 -14.998s-14.5 -23.333 -14.5 -40s4.83301 -30 14.5 -40s21.667 -15 36 -15s26.333 5 36 15s14.5 23.333 14.5 40c0 11.333 -2.33301 21.166 -7 29.499
s-10.667 14.666 -18 18.999s-16 6.5 -26 6.5zM684.001 700l0.000976562 -448c0 -80 -28.833 -144.333 -86.5 -193s-128.834 -73 -213.501 -73c-85.333 0 -156.833 24.5 -214.5 73.5s-86.5 113.167 -86.5 192.5v448h149v-448c0 -42.667 14.167 -76.334 42.5 -101.001
s64.833 -37 109.5 -37c44 0 80.167 12.333 108.5 37s42.5 58.334 42.5 101.001v448h149z" />
    <glyph glyph-name="uring" unicode="&#x16f;" horiz-adv-x="596" 
d="M298 540c-39.333 0 -71.333 12.332 -96 36.999s-37 55 -37 91c0 36.667 12.333 67.334 37 92.001s56.667 37 96 37c40 0 72.167 -12.333 96.5 -37s36.5 -55.167 36.5 -91.5s-12.167 -66.833 -36.5 -91.5s-56.5 -37 -96.5 -37zM298 722.999c-14 0 -25.833 -5 -35.5 -15
s-14.5 -23.333 -14.5 -40s4.66699 -30 14 -40s21.333 -15 36 -15s26.834 5 36.501 15s14.5 23.333 14.5 40s-4.83301 30 -14.5 40s-21.834 15 -36.501 15zM538 499.999l0.000976562 -500h-140v60c-16.667 -16 -34.834 -29.5 -54.501 -40.5s-39.334 -19.333 -59.001 -25
s-39.167 -8.5 -58.5 -8.5c-49.333 0 -89.666 15.833 -120.999 47.5s-47 78.5 -47 140.5v326h140v-308c0 -28.667 6.5 -50.167 19.5 -64.5s31.5 -21.833 55.5 -22.5c43.333 0 85 17.333 125 52v343h140z" />
    <glyph glyph-name="Uhungarumlaut" unicode="&#x170;" horiz-adv-x="762" 
d="M338 764h-127l131 173h139zM551 764h-126l131 173h139zM684 700l0.000976562 -448c0 -80 -28.833 -144.333 -86.5 -193s-128.834 -73 -213.501 -73c-85.333 0 -156.833 24.5 -214.5 73.5s-86.5 113.167 -86.5 192.5v448h149v-448c0 -42.667 14.167 -76.334 42.5 -101.001
s64.833 -37 109.5 -37c44 0 80.167 12.333 108.5 37s42.5 58.334 42.5 101.001v448h149z" />
    <glyph glyph-name="uhungarumlaut" unicode="&#x171;" horiz-adv-x="596" 
d="M254 564h-127l131 173h139zM341 564l131 173h139l-144 -173h-126zM398 500h139.998v-500h-140v60c-24.667 -24 -52.167 -42.333 -82.5 -55s-60.166 -19 -89.499 -19c-49.333 0 -89.666 15.833 -120.999 47.5s-47 78.5 -47 140.5v326h140v-308
c0 -28.667 6.5 -50.167 19.5 -64.5s31.5 -21.833 55.5 -22.5c43.333 0 85 17.333 125 52v343z" />
    <glyph glyph-name="Uogonek" unicode="&#x172;" horiz-adv-x="762" 
d="M543 -110c18.667 0 35.666 3.66895 50.999 11.002l25 -70c-29.333 -19.333 -65.666 -29.333 -108.999 -30c-22 0.666992 -42.5 4.5 -61.5 11.5s-34.667 18.167 -47 33.5s-18.5 33 -18.5 53c0 31.333 14 61 42 89c-13.333 -1.33301 -27 -2 -41 -2
c-85.333 0 -156.833 24.5 -214.5 73.5s-86.5 113.167 -86.5 192.5v448h149v-448c0 -42.667 14.167 -76.334 42.5 -101.001s64.833 -37 109.5 -37c44 0 80.167 12.333 108.5 37s42.5 58.334 42.5 101.001v448h149v-448c0 -50.667 -12 -95.334 -36 -134.001
s-57 -69.334 -99 -92.001c-42 -28.667 -63 -58.667 -63 -90c0.666992 -30.667 19.667 -46 57 -46z" />
    <glyph glyph-name="uogonek" unicode="&#x173;" horiz-adv-x="596" 
d="M533 -116l24.998 -70c-29.333 -19.333 -65.333 -29 -108 -29c-35.333 0 -65.5 8.66699 -90.5 26s-37.5 41.333 -37.5 72c0.666992 42.667 26 81.667 76 117v60c-24.667 -24 -52.167 -42.333 -82.5 -55s-60.166 -19 -89.499 -19c-49.333 0 -89.666 15.833 -120.999 47.5
s-47 78.5 -47 140.5v326h140v-308c0 -28.667 6.5 -50.167 19.5 -64.5s31.5 -21.833 55.5 -22.5c43.333 0 85 17.333 125 52v343h140v-500h-62c-33.333 -25.333 -50.333 -52 -51 -80c0.666992 -31.333 20 -46.666 58 -45.999c18 -0.666992 34.667 2.66602 50 9.99902z" />
    <glyph glyph-name="Wcircumflex" unicode="&#x174;" horiz-adv-x="1038" 
d="M445 764h-136l141 173h138l141 -173h-136l-74 101zM1013 700l-183 -700h-178l-133 494l-132 -494h-178l-184 700h161l117 -506l131 506h170l131 -506l117 506h161z" />
    <glyph glyph-name="wcircumflex" unicode="&#x175;" horiz-adv-x="857" 
d="M355 564h-136l141 173h138l141 -173h-136l-74 101zM842 500l-172 -500h-144l-97 336l-98 -336h-144l-172 500h147l101 -341l92 341h147l92 -341l102 341h146z" />
    <glyph glyph-name="Ycircumflex" unicode="&#x176;" horiz-adv-x="721" 
d="M288 764h-136l141 173h138l141 -173h-136l-74 101zM433 253v-253h-149v252l-259 448h167l168 -302l169 302h167z" />
    <glyph glyph-name="ycircumflex" unicode="&#x177;" horiz-adv-x="594" 
d="M223 564h-136l141 173h138l141 -173h-136l-74 101zM579 500l-292 -700h-124l77 201l-225 499h151l139 -333l128 333h146z" />
    <glyph glyph-name="Ydieresis" unicode="&#x178;" horiz-adv-x="721" 
d="M252 775c-10 0 -19.333 1.83105 -28 5.49805s-16.167 8.83398 -22.5 15.501s-11.5 14.334 -15.5 23.001s-6 18 -6 28c0 19.333 7 36 21 50s30.833 21 50.5 21s36.5 -7 50.5 -21s21 -30.833 21 -50.5s-7 -36.5 -21 -50.5s-30.667 -21 -50 -21zM473 774.998
c-13.333 0 -25.5 3.16699 -36.5 9.5s-19.667 15 -26 26s-9.5 23.167 -9.5 36.5c0 19.333 7 36 21 50s30.833 21 50.5 21s36.5 -7 50.5 -21s21 -30.833 21 -50.5s-7 -36.5 -21 -50.5s-30.667 -21 -50 -21zM433 252.998v-253h-149v252l-259 448h167l168 -302l169 302h167z" />
    <glyph glyph-name="Zacute" unicode="&#x179;" horiz-adv-x="626" 
d="M374 765h-133l128 173h145zM583 0h-540v99l342 478h-318v123h506v-99l-342 -478h352v-123z" />
    <glyph glyph-name="zacute" unicode="&#x17a;" horiz-adv-x="494" 
d="M311 565h-133l128 173h145zM457 104v-104h-427v83l246 313h-230v104h402v-83l-246 -313h255z" />
    <glyph glyph-name="Zdotaccent" unicode="&#x17b;" horiz-adv-x="626" 
d="M313 775c-19.333 0 -35.999 7 -49.999 21s-21 30.833 -21 50.5s7 36.5 21 50.5s30.833 21 50.5 21s36.5 -7 50.5 -21s21 -30.667 21 -50c0 -13.333 -3.33301 -25.5 -10 -36.5s-15.334 -19.667 -26.001 -26s-22.667 -9.5 -36 -9.5zM583.001 0h-540v99l342 478h-318v123
h506v-99l-342 -478h352v-123z" />
    <glyph glyph-name="zdotaccent" unicode="&#x17c;" horiz-adv-x="494" 
d="M250 575c-9.33301 0 -18.5 1.83105 -27.5 5.49805s-16.667 8.83398 -23 15.501s-11.333 14.334 -15 23.001s-5.5 18 -5.5 28c0 19.333 7 36 21 50s30.833 21 50.5 21s36.5 -7 50.5 -21s21 -30.833 21 -50.5s-7 -36.5 -21 -50.5s-31 -21 -51 -21zM457 103.998v-104h-427
v83l246 313h-230v104h402v-83l-246 -313h255z" />
    <glyph glyph-name="Zcaron" unicode="&#x17d;" horiz-adv-x="626" 
d="M244 764l-141 173h136l74 -101l74 101h136l-141 -173h-138zM583 0h-540v99l342 478h-318v123h506v-99l-342 -478h352v-123z" />
    <glyph glyph-name="zcaron" unicode="&#x17e;" horiz-adv-x="494" 
d="M181 564l-141 173h136l74 -101l74 101h136l-141 -173h-138zM202 104h255v-104h-427v83l246 313h-230v104h402v-83z" />
    <glyph glyph-name="florin" unicode="&#x192;" horiz-adv-x="453" 
d="M336 615c-14 0 -25.833 -2.83398 -35.5 -8.50098s-17.334 -14.5 -23.001 -26.5s-8.5 -27 -8.5 -45v-103h136v-101h-136v-380c0 -58.667 -14.167 -101.667 -42.5 -129s-65.5 -41 -111.5 -41c-25.333 0 -53 3.66699 -83 11l10 106c8.66699 -1.33301 17 -2 25 -2
c41.333 0 62 23.333 62 70v365h-96v81l93 20h3v100c0 64.667 15.833 113.334 47.5 146.001s72.834 49 123.501 49c56 0 113.333 -16 172 -48l-31 -88c-40 16 -75 24 -105 24z" />
    <glyph glyph-name="Ohorn" unicode="&#x1a0;" 
d="M774 598c-16.667 -11.333 -36.334 -18.002 -59.001 -20.002c48.667 -64.667 73 -140.667 73 -228c0 -67.333 -14.667 -128.5 -44 -183.5s-71.666 -98.833 -126.999 -131.5s-118.333 -49 -189 -49c-53.333 0 -102.666 9.5 -147.999 28.5s-83.333 45 -114 78
s-54.667 71.667 -72 116s-26 91.5 -26 141.5c0 67.333 14.667 128.5 44 183.5s71.666 98.833 126.999 131.5s118.333 49 189 49c76.667 0 144.334 -19 203.001 -57c26.667 -7.33301 47 -5.66602 61 5.00098c21.333 16.667 24 50 8 100l106 31
c14.667 -46 19.167 -85.667 13.5 -119s-20.834 -58.666 -45.501 -75.999zM428 116.998c61.333 0 111.166 21.833 149.499 65.5s57.5 99.5 57.5 167.5s-19.167 123.833 -57.5 167.5s-88.166 65.5 -149.499 65.5s-111.166 -21.833 -149.499 -65.5s-57.5 -99.5 -57.5 -167.5
s19.167 -123.833 57.5 -167.5s88.166 -65.5 149.499 -65.5z" />
    <glyph glyph-name="ohorn" unicode="&#x1a1;" horiz-adv-x="634" 
d="M521 562l85 25c23.333 -76 14.666 -128.333 -26.001 -157c-13.333 -10 -29.333 -16 -48 -18c34.667 -46 52 -100 52 -162c0 -74.667 -24.667 -137.334 -74 -188.001s-113.666 -76 -192.999 -76c-78.667 0 -142.834 25.333 -192.501 76s-74.5 113.334 -74.5 188.001
c0 75.333 24.833 138.333 74.5 189s113.834 75.667 192.501 75c56 0 105.333 -13.333 148 -40c20 -4 35.667 -1.66699 47 7c18 14.667 21 41.667 9 81zM317 106c25.333 0 47.501 5.99902 66.501 17.999s33.5 28.833 43.5 50.5s15 46.834 15 75.501s-5 53.834 -15 75.501
s-24.5 38.5 -43.5 50.5s-41.167 18 -66.5 18c-38.667 0 -69.334 -13.333 -92.001 -40s-33.667 -61.334 -33 -104.001c0 -28 5 -52.833 15 -74.5s24.5 -38.667 43.5 -51s41.167 -18.5 66.5 -18.5z" />
    <glyph glyph-name="Uhorn" unicode="&#x1af;" horiz-adv-x="762" 
d="M717 789l107.002 31c10.667 -40.667 12.667 -76 6 -106s-21.334 -53 -44.001 -69c-26.667 -18 -60.667 -24.333 -102 -19v-374c0 -80 -28.833 -144.333 -86.5 -193s-128.834 -73 -213.501 -73c-85.333 0 -156.833 24.5 -214.5 73.5s-86.5 113.167 -86.5 192.5v448h149
v-448c0 -42.667 14.167 -76.334 42.5 -101.001s64.833 -37 109.5 -37c44 0 80.167 12.333 108.5 37s42.5 58.334 42.5 101.001v448h138c12.667 0 23 3 31 9c18 14 22.333 40.667 13 80z" />
    <glyph glyph-name="uhorn" unicode="&#x1b0;" horiz-adv-x="596" 
d="M572 591l95.001 28c12 -41.333 15.5 -76 10.5 -104s-17.833 -49.333 -38.5 -64c-26 -18.667 -59.667 -24.667 -101 -18v-433h-140v60c-16.667 -16 -34.834 -29.5 -54.501 -40.5s-39.334 -19.333 -59.001 -25s-39.167 -8.5 -58.5 -8.5
c-49.333 0 -89.666 15.833 -120.999 47.5s-47 78.5 -47 140.5v326h140v-308c0 -28.667 6.5 -50.167 19.5 -64.5s31.5 -21.833 55.5 -22.5c43.333 0 85 17.333 125 52v343h131c12.667 0 23 3.33301 31 10c19.333 14.667 23.333 41.667 12 81z" />
    <glyph glyph-name="Acaron" unicode="&#x1cd;" horiz-adv-x="754" 
d="M308 764l-141 173h136l74 -101l74 101h136l-141 -173h-138zM729 0h-161l-49 138h-284l-49 -138h-161l273 700h158zM476 261l-99 276l-99 -276h198z" />
    <glyph glyph-name="acaron" unicode="&#x1ce;" horiz-adv-x="627" 
d="M257 564l-141 173h136l74 -101l74 101h136l-141 -173h-138zM565 500l-0.000976562 -500.001h-140v54c-48 -45.333 -101.667 -68 -161 -68c-42 0 -79.5 11.833 -112.5 35.5s-58.5 55.5 -76.5 95.5s-27 84.333 -27 133c0 74.667 20.333 137.334 61 188.001
s92.334 76 155.001 76c59.333 0 113 -22.667 161 -68v54h140zM294.999 103.999c13.333 0 27.332 2.16699 41.999 6.5s29.834 11 45.501 20s29.834 19.833 42.501 32.5v174c-19.333 18.667 -40.666 33.167 -63.999 43.5s-45.333 15.5 -66 15.5
c-32.667 0 -58.334 -13.167 -77.001 -39.5s-28 -61.833 -28 -106.5s9.16699 -80.167 27.5 -106.5s44.166 -39.5 77.499 -39.5z" />
    <glyph glyph-name="Icaron" unicode="&#x1cf;" horiz-adv-x="315" 
d="M88 764l-141 173h136l74 -101l74 101h136l-141 -173h-138zM83 700h149v-700h-149v700z" />
    <glyph glyph-name="icaron" unicode="&#x1d0;" horiz-adv-x="255" 
d="M60 564l-141 173h136l74 -101l74 101h136l-141 -173h-138zM60 500h140v-500h-140v500z" />
    <glyph glyph-name="Ocaron" unicode="&#x1d1;" 
d="M359 764l-141 173h136l74 -101l73 101h137l-142 -173h-137zM428 714c53.333 0 102.666 -9.49805 147.999 -28.498s83.333 -45 114 -78s54.667 -71.667 72 -116s26 -91.5 26 -141.5c0 -67.333 -14.667 -128.5 -44 -183.5s-71.666 -98.833 -126.999 -131.5
s-118.333 -49 -189 -49s-133.667 16.333 -189 49s-97.666 76.5 -126.999 131.5s-44 116.167 -44 183.5s14.667 128.666 44 183.999s71.666 99.166 126.999 131.499s118.333 48.5 189 48.5zM428 117.002c61.333 0 111.166 21.833 149.499 65.5s57.5 99.5 57.5 167.5
s-19.167 123.833 -57.5 167.5s-88.166 65.5 -149.499 65.5s-111.166 -21.833 -149.499 -65.5s-57.5 -99.5 -57.5 -167.5s19.167 -123.833 57.5 -167.5s88.166 -65.5 149.499 -65.5z" />
    <glyph glyph-name="ocaron" unicode="&#x1d2;" horiz-adv-x="634" 
d="M248 564l-141 173h136l74 -101l74 101h136l-141 -173h-138zM317 514c52.667 0 99.5 -11.833 140.5 -35.5s72.167 -55.5 93.5 -95.5s32 -84.333 32 -133c0 -74.667 -24.5 -137.334 -73.5 -188.001s-113.167 -76 -192.5 -76c-78.667 0 -142.834 25.333 -192.501 76
s-74.5 113.334 -74.5 188.001c0 75.333 24.833 138.333 74.5 189s113.834 75.667 192.501 75zM317 106c38 0 68.334 13.168 91.001 39.501s34 61.166 34 104.499c0 28.667 -5 53.834 -15 75.501s-24.5 38.5 -43.5 50.5s-41.167 18 -66.5 18
c-38.667 0 -69.334 -13.333 -92.001 -40s-33.667 -61.334 -33 -104.001c0 -28 5 -52.833 15 -74.5s24.5 -38.667 43.5 -51s41.167 -18.5 66.5 -18.5z" />
    <glyph glyph-name="Ucaron" unicode="&#x1d3;" horiz-adv-x="762" 
d="M313 764l-141 173h136l74 -101l74 101h136l-141 -173h-138zM684 700l0.000976562 -448c0 -80 -28.833 -144.333 -86.5 -193s-128.834 -73 -213.501 -73c-85.333 0 -156.833 24.5 -214.5 73.5s-86.5 113.167 -86.5 192.5v448h149v-448
c0 -42.667 14.167 -76.334 42.5 -101.001s64.833 -37 109.5 -37c44 0 80.167 12.333 108.5 37s42.5 58.334 42.5 101.001v448h149z" />
    <glyph glyph-name="ucaron" unicode="&#x1d4;" horiz-adv-x="596" 
d="M229 564l-141 173h136l74 -101l74 101h136l-141 -173h-138zM538 500l0.000976562 -500h-140v60c-16.667 -16 -34.834 -29.5 -54.501 -40.5s-39.334 -19.333 -59.001 -25s-39.167 -8.5 -58.5 -8.5c-49.333 0 -89.666 15.833 -120.999 47.5s-47 78.5 -47 140.5v326h140
v-308c0 -28.667 6.5 -50.167 19.5 -64.5s31.5 -21.833 55.5 -22.5c43.333 0 85 17.333 125 52v343h140z" />
    <glyph glyph-name="Udieresismacron" unicode="&#x1d5;" horiz-adv-x="762" 
d="M554 971h-344v108h344v-108zM272 918c20 0 36.833 -7 50.5 -21s20.5 -30.833 20.5 -50.5s-6.83301 -36.5 -20.5 -50.5s-30.5 -21 -50.5 -21s-37 7 -51 21s-21 30.833 -21 50.5s7 36.5 21 50.5s31 21 51 21zM493 918c19.333 0 36 -7 50 -21s21 -30.667 21 -50
c0 -13.333 -3.16699 -25.5 -9.5 -36.5s-15 -19.667 -26 -26s-22.833 -9.5 -35.5 -9.5c-20 0 -37 7 -51 21s-21 31 -21 51c0 12.667 3.16699 24.5 9.5 35.5s15 19.667 26 26s23.167 9.5 36.5 9.5zM684 700l0.000976562 -448c0 -80 -28.833 -144.333 -86.5 -193
s-128.834 -73 -213.501 -73c-85.333 0 -156.833 24.5 -214.5 73.5s-86.5 113.167 -86.5 192.5v448h149v-448c0 -42.667 14.167 -76.334 42.5 -101.001s64.833 -37 109.5 -37c44 0 80.167 12.333 108.5 37s42.5 58.334 42.5 101.001v448h149z" />
    <glyph glyph-name="udieresismacron" unicode="&#x1d6;" horiz-adv-x="596" 
d="M470 768h-344v107h344v-107zM188 575c-13.333 0 -25.332 3.16699 -35.999 9.5s-19.334 15 -26.001 26s-10 23.167 -10 36.5c0 19.333 7 36 21 50s30.833 21 50.5 21s36.5 -7 50.5 -21s21 -30.833 21 -50.5s-7 -36.5 -21 -50.5s-30.667 -21 -50 -21zM408.501 718
c19.667 0 36.5 -7 50.5 -21s21 -30.833 21 -50.5s-7 -36.5 -21 -50.5s-30.667 -21 -50 -21c-13.333 0 -25.5 3.16699 -36.5 9.5s-19.667 15 -26 26s-9.5 23.167 -9.5 36.5c0 19.333 7 36 21 50s30.833 21 50.5 21zM538.001 500l0.000976562 -500h-140v60
c-16.667 -16 -34.834 -29.5 -54.501 -40.5s-39.334 -19.333 -59.001 -25s-39.167 -8.5 -58.5 -8.5c-49.333 0 -89.666 15.833 -120.999 47.5s-47 78.5 -47 140.5v326h140v-308c0 -28.667 6.5 -50.167 19.5 -64.5s31.5 -21.833 55.5 -22.5c43.333 0 85 17.333 125 52v343h140
z" />
    <glyph glyph-name="Udieresisacute" unicode="&#x1d7;" horiz-adv-x="762" 
d="M443 952h-133l128 173h145zM272 918c12.667 0 24.5 -3.16699 35.5 -9.5s19.667 -15 26 -26s9.5 -22.833 9.5 -35.5c0 -20 -6.83301 -37 -20.5 -51s-30.5 -21 -50.5 -21s-37 7 -51 21s-21 30.833 -21 50.5s7 36.5 21 50.5s31 21 51 21zM493 918
c12.667 0 24.5 -3.16699 35.5 -9.5s19.667 -15 26 -26s9.5 -22.833 9.5 -35.5c0 -20 -7 -37 -21 -51s-30.833 -21 -50.5 -21s-36.5 7 -50.5 21s-21 30.833 -21 50.5s7 36.5 21 50.5s31 21 51 21zM684 700l0.000976562 -448c0 -80 -28.833 -144.333 -86.5 -193
s-128.834 -73 -213.501 -73c-85.333 0 -156.833 24.5 -214.5 73.5s-86.5 113.167 -86.5 192.5v448h149v-448c0 -42.667 14.167 -76.334 42.5 -101.001s64.833 -37 109.5 -37c44 0 80.167 12.333 108.5 37s42.5 58.334 42.5 101.001v448h149z" />
    <glyph glyph-name="udieresisacute" unicode="&#x1d8;" horiz-adv-x="596" 
d="M359 756h-133l128 173h145zM187.5 575c-19.667 0 -36.5 7 -50.5 21s-21 30.833 -21 50.5s7 36.5 21 50.5s30.833 21 50.5 21s36.5 -7 50.5 -21s21 -30.833 21 -50.5s-7 -36.5 -21 -50.5s-30.833 -21 -50.5 -21zM337 646.5c0 19.667 7 36.5 21 50.5s30.833 21 50.5 21
s36.5 -7 50.5 -21s21 -30.667 21 -50c0 -13.333 -3.16699 -25.5 -9.5 -36.5s-15 -19.667 -26 -26s-22.833 -9.5 -35.5 -9.5c-20 0 -37 7 -51 21s-21 30.833 -21 50.5zM538 500l-0.00195312 -500h-140v60c-24.667 -24 -52.167 -42.333 -82.5 -55s-60.166 -19 -89.499 -19
c-49.333 0 -89.666 15.833 -120.999 47.5s-47 78.5 -47 140.5v326h140v-308c0 -28.667 6.5 -50.167 19.5 -64.5s31.5 -21.833 55.5 -22.5c43.333 0 85 17.333 125 52v343h140z" />
    <glyph glyph-name="Udieresiscaron" unicode="&#x1d9;" horiz-adv-x="762" 
d="M313 952l-141 173h136l74 -101l74 101h136l-141 -173h-138zM271.5 918c19.667 0 36.5 -7 50.5 -21s21 -30.833 21 -50.5s-7 -36.5 -21 -50.5s-30.833 -21 -50.5 -21s-36.5 7 -50.5 21s-21 30.833 -21 50.5s7 36.5 21 50.5s30.833 21 50.5 21zM421 847
c0 12.667 3.16699 24.5 9.5 35.5s15 19.667 26 26s23.167 9.5 36.5 9.5c19.333 0 36 -7 50 -21s21 -30.667 21 -50c0 -13.333 -3.16699 -25.5 -9.5 -36.5s-15 -19.667 -26 -26s-22.833 -9.5 -35.5 -9.5c-20 0 -37 7 -51 21s-21 31 -21 51zM684 700l0.000976562 -448
c0 -80 -28.833 -144.333 -86.5 -193s-128.834 -73 -213.501 -73c-85.333 0 -156.833 24.5 -214.5 73.5s-86.5 113.167 -86.5 192.5v448h149v-448c0 -42.667 14.167 -76.334 42.5 -101.001s64.5 -37 108.5 -37c44.667 0 81.167 12.333 109.5 37s42.5 58.334 42.5 101.001v448
h149z" />
    <glyph glyph-name="udieresiscaron" unicode="&#x1da;" horiz-adv-x="596" 
d="M229 756l-141 172h136l74 -101l74 101h136l-141 -172h-138zM187.5 718c19.667 0 36.5 -7 50.5 -21s21 -30.833 21 -50.5s-7 -36.5 -21 -50.5s-30.833 -21 -50.5 -21s-36.5 7 -50.5 21s-21 30.833 -21 50.5s7 36.5 21 50.5s30.833 21 50.5 21zM337 646.5
c0 19.667 7 36.5 21 50.5s30.833 21 50.5 21s36.5 -7 50.5 -21s21 -30.667 21 -50c0 -13.333 -3.16699 -25.5 -9.5 -36.5s-15 -19.667 -26 -26s-22.833 -9.5 -35.5 -9.5c-20 0 -37 7 -51 21s-21 30.833 -21 50.5zM538 500l0.000976562 -500h-140v60
c-16.667 -16 -34.834 -29.5 -54.501 -40.5s-39.334 -19.333 -59.001 -25s-39.167 -8.5 -58.5 -8.5c-49.333 0 -89.666 15.833 -120.999 47.5s-47 78.5 -47 140.5v326h140v-308c0 -28.667 6.5 -50.167 19.5 -64.5s31.5 -21.833 55.5 -22.5c43.333 0 85 17.333 125 52v343h140
z" />
    <glyph glyph-name="Udieresisgrave" unicode="&#x1db;" horiz-adv-x="762" 
d="M447 952h-133l-140 173h145zM272 918c12.667 0 24.5 -3.16699 35.5 -9.5s19.667 -15 26 -26s9.5 -22.833 9.5 -35.5c0 -20 -6.83301 -37 -20.5 -51s-30.5 -21 -50.5 -21s-37 7 -51 21s-21 30.833 -21 50.5s7 36.5 21 50.5s31 21 51 21zM493 918
c12.667 0 24.5 -3.16699 35.5 -9.5s19.667 -15 26 -26s9.5 -22.833 9.5 -35.5c0 -20 -7 -37 -21 -51s-30.833 -21 -50.5 -21s-36.5 7 -50.5 21s-21 30.833 -21 50.5s7 36.5 21 50.5s31 21 51 21zM684 700l0.000976562 -448c0 -80 -28.833 -144.333 -86.5 -193
s-128.834 -73 -213.501 -73c-85.333 0 -156.833 24.5 -214.5 73.5s-86.5 113.167 -86.5 192.5v448h149v-448c0 -42.667 14.167 -76.334 42.5 -101.001s64.833 -37 109.5 -37c44 0 80.167 12.333 108.5 37s42.5 58.334 42.5 101.001v448h149z" />
    <glyph glyph-name="udieresisgrave" unicode="&#x1dc;" horiz-adv-x="596" 
d="M230 756l-140 173h145l128 -173h-133zM116 647c0 19.333 7.00098 36 21.001 50s30.833 21 50.5 21s36.5 -7 50.5 -21s21 -30.833 21 -50.5s-7 -36.5 -21 -50.5s-30.667 -21 -50 -21c-13.333 0 -25.333 3.16699 -36 9.5s-19.334 15 -26.001 26s-10 23.167 -10 36.5z
M337.001 647c0 19.333 7 36 21 50s30.833 21 50.5 21s36.5 -7 50.5 -21s21 -30.833 21 -50.5s-7 -36.5 -21 -50.5s-30.667 -21 -50 -21c-13.333 0 -25.5 3.16699 -36.5 9.5s-19.667 15 -26 26s-9.5 23.167 -9.5 36.5zM538.001 500l-0.00195312 -500h-140v60
c-24.667 -24 -52.167 -42.333 -82.5 -55s-60.166 -19 -89.499 -19c-49.333 0 -89.666 15.833 -120.999 47.5s-47 78.5 -47 140.5v326h140v-308c0 -28.667 6.5 -50.167 19.5 -64.5s31.5 -21.833 55.5 -22.5c43.333 0 85 17.333 125 52v343h140z" />
    <glyph glyph-name="Scommaaccent" unicode="&#x218;" horiz-adv-x="639" 
d="M328 714c104 0 188.997 -29.6709 254.997 -89.0039l-81 -99c-48.667 38.667 -107 58 -175 58c-74.667 0 -113.334 -27 -116.001 -81c-0.666992 -19.333 7.5 -34.333 24.5 -45s55.833 -24 116.5 -40l9 -3c20 -5.33301 35.333 -9.5 46 -12.5s25.667 -8 45 -15
s34.5 -13.833 45.5 -20.5s23.667 -15.5 38 -26.5s25.333 -22.5 33 -34.5s14.334 -26.833 20.001 -44.5s8.5 -36.5 8.5 -56.5c0 -30.667 -5.5 -58.5 -16.5 -83.5s-25.667 -45.667 -44 -62s-39.666 -30.166 -63.999 -41.499s-49 -19.5 -74 -24.5s-50.5 -7.5 -76.5 -7.5
c-54.667 0 -108.167 10.833 -160.5 32.5s-92.833 50.834 -121.5 87.501l84 94c21.333 -26 50.333 -46.667 87 -62s73.667 -23 111 -23c25.333 0 47.166 3.66699 65.499 11s32.333 17.333 42 30s14.5 27.334 14.5 44.001c0.666992 26 -12.666 45.333 -39.999 58
c-15.333 7.33301 -48.666 18 -99.999 32c-36.667 10 -66.667 19 -90 27s-46 17.833 -68 29.5s-38.667 24 -50 37s-20.5 28.833 -27.5 47.5s-10.5 40.334 -10.5 65.001c0 38 7.33301 71.5 22 100.5s34.834 51.833 60.501 68.5s54.167 29 85.5 37s65.333 12 102 12z
M319.997 -51.0039c18 0.666992 33.499 -5.16504 46.499 -17.498s20.833 -28.833 23.5 -49.5c5.33301 -31.333 -2 -65 -22 -101s-46.333 -65.667 -79 -89l-46 30c32.667 27.333 55.334 58.666 68.001 93.999c-16 2 -29.667 9.16699 -41 21.5s-17 27.166 -17 44.499
c0 19.333 6.5 35.5 19.5 48.5s28.833 19.167 47.5 18.5z" />
    <glyph glyph-name="scommaaccent" unicode="&#x219;" horiz-adv-x="503" 
d="M253 514c37.333 0 73.832 -5.16895 109.499 -15.502s65.5 -26.5 89.5 -48.5l-53 -86c-16.667 14.667 -37.667 25.834 -63 33.501s-51 11.5 -77 11.5c-22.667 0 -40.834 -3.83301 -54.501 -11.5s-21.167 -19.5 -22.5 -35.5c-1.33301 -12 4 -21.333 16 -28
s37 -14.667 75 -24c15.333 -3.33301 25.5 -5.66602 30.5 -6.99902s14.667 -4 29 -8s24.5 -7.33301 30.5 -10s15.167 -6.83398 27.5 -12.501s21.333 -11 27 -16s12.5 -11.333 20.5 -19s13.833 -15.667 17.5 -24s7 -18 10 -29s4.5 -22.833 4.5 -35.5
c0 -29.333 -6.83301 -54.833 -20.5 -76.5s-31.667 -38.667 -54 -51s-46.166 -21.333 -71.499 -27s-51.666 -8.5 -78.999 -8.5c-43.333 0 -84.5 6.83301 -123.5 20.5s-69.5 33.167 -91.5 58.5l54 86c15.333 -19.333 37.166 -34.166 65.499 -44.499s57.833 -15.5 88.5 -15.5
c29.333 0 52.166 4.83301 68.499 14.5s24.833 22.834 25.5 39.501c0 14 -5.83301 24 -17.5 30s-33.5 13 -65.5 21c-6 2 -10.667 3.33301 -14 4c-28 7.33301 -50.833 13.833 -68.5 19.5s-35.167 12.667 -52.5 21s-30.666 17.333 -39.999 27s-16.666 21.667 -21.999 36
s-8 30.833 -8 49.5c0 28.667 5.83301 53.667 17.5 75s27.667 38.166 48 50.499s42.5 21.333 66.5 27s49.667 8.5 77 8.5zM251.999 -51.002c18 0.666992 33.333 -5.16504 46 -17.498s20.667 -28.833 24 -49.5c4.66699 -31.333 -3 -65 -23 -101s-46 -65.667 -78 -89l-47 30
c33.333 27.333 56.333 58.666 69 93.999c-16.667 2 -30.667 9.16699 -42 21.5s-17 27.166 -17 44.499c0 19.333 6.66699 35.5 20 48.5s29.333 19.167 48 18.5z" />
    <glyph glyph-name="uni021A" unicode="&#x21a;" horiz-adv-x="617" 
d="M591 700v-123h-208v-577h-149v577h-209v123h566zM312 -51c18 0.666992 33.334 -5.16504 46.001 -17.498s20.667 -28.833 24 -49.5s0.666016 -43.167 -8.00098 -67.5s-21.167 -47 -37.5 -68s-34.833 -39.167 -55.5 -54.5l-47 30c33.333 27.333 56.333 58.666 69 93.999
c-16.667 2 -30.667 9.16699 -42 21.5s-17 27.166 -17 44.499c0 12.667 3 24.167 9 34.5s14.167 18.5 24.5 24.5s21.833 8.66699 34.5 8z" />
    <glyph glyph-name="uni021B" unicode="&#x21b;" horiz-adv-x="472" 
d="M289 -14c-47.333 0 -86.333 13.167 -117 39.5s-46 66.833 -46 121.5v245h-96v88l93 20h3v135h140v-135h135v-108h-135v-226c0 -43.333 21.333 -65 64 -65c19.333 0 42 4.33301 68 13l29 -94c-45.333 -22.667 -91.333 -34 -138 -34zM240 -51
c18 0.666992 33.499 -5.16504 46.499 -17.498s20.833 -28.833 23.5 -49.5c5.33301 -31.333 -2 -65 -22 -101s-46.333 -65.667 -79 -89l-46 30c32.667 27.333 55.334 58.666 68.001 93.999c-16 2 -29.667 9.16699 -41 21.5s-17 27.166 -17 44.499
c0 19.333 6.5 35.5 19.5 48.5s28.833 19.167 47.5 18.5z" />
    <glyph glyph-name="circumflex" unicode="&#x2c6;" horiz-adv-x="490" 
d="M319 564l-74 101l-74 -101h-136l141 173h138l141 -173h-136z" />
    <glyph glyph-name="caron" unicode="&#x2c7;" horiz-adv-x="490" 
d="M455 737l-141 -173h-138l-141 173h136l74 -101l74 101h136z" />
    <glyph glyph-name="breve" unicode="&#x2d8;" horiz-adv-x="450" 
d="M314 731h101c0 -47.333 -17.5 -87 -52.5 -119s-80.833 -48 -137.5 -48c-56 0 -101.667 16 -137 48s-53 71.667 -53 119h101c0 -22.667 8.33301 -40.834 25 -54.501s38 -20.5 64 -20.5s47.333 6.83301 64 20.5s25 31.834 25 54.501z" />
    <glyph glyph-name="dotaccent" unicode="&#x2d9;" horiz-adv-x="208" 
d="M104 718c20 0 36.833 -7 50.5 -21s20.5 -30.833 20.5 -50.5s-6.83301 -36.5 -20.5 -50.5s-30.5 -21 -50.5 -21c-12.667 0 -24.5 3.16699 -35.5 9.5s-19.667 15 -26 26s-9.5 23.167 -9.5 36.5c0 19.333 6.83301 36 20.5 50s30.5 21 50.5 21z" />
    <glyph glyph-name="ring" unicode="&#x2da;" horiz-adv-x="341" 
d="M170 797c40 0 72.167 -12.334 96.5 -37.001s36.5 -55.167 36.5 -91.5s-12.167 -66.833 -36.5 -91.5s-56.5 -37 -96.5 -37c-39.333 0 -71.333 12.333 -96 37s-37 55 -37 91c0 36.667 12.333 67.334 37 92.001s56.667 37 96 37zM170 722.999
c-9.33301 0 -17.833 -2.17188 -25.5 -6.50488s-13.667 -10.666 -18 -18.999s-6.5 -18.166 -6.5 -29.499c0 -16.667 4.66699 -30 14 -40s21.333 -15 36 -15s26.834 5 36.501 15s14.5 23.333 14.5 40c0 8.66699 -1.33301 16.334 -4 23.001s-6.33398 12.334 -11.001 17.001
s-10 8.33398 -16 11.001s-12.667 4 -20 4z" />
    <glyph glyph-name="ogonek" unicode="&#x2db;" horiz-adv-x="307" 
d="M134 6l75.999 0.000976562c-47.333 -30.667 -71.333 -62.334 -72 -95.001c0.666992 -31.333 20 -46.666 58 -45.999c18 -0.666992 34.667 2.66602 50 9.99902l26 -70c-29.333 -19.333 -65.666 -29 -108.999 -29c-35.333 0 -65.5 8.66699 -90.5 26s-37.5 41.333 -37.5 72
c0.666992 49.333 33.667 93.333 99 132z" />
    <glyph glyph-name="tilde" unicode="&#x2dc;" horiz-adv-x="469" 
d="M168 732c16.667 0 31.9951 -3.66797 45.9951 -11.001s30 -18 48 -32c20.667 -16 36 -24 46 -24c18.667 0 40.334 20 65.001 60l60 -50c-7.33301 -12 -13.166 -21.167 -17.499 -27.5s-10.333 -14.666 -18 -24.999s-14.5 -18.166 -20.5 -23.499s-13.167 -11 -21.5 -17
s-17 -10.333 -26 -13s-18.167 -4 -27.5 -4c-12.667 0 -25.5 2.5 -38.5 7.5s-22.667 9.83301 -29 14.5s-15.5 11.667 -27.5 21c-20.667 16 -36.667 24 -48 24c-17.333 0 -38.666 -20 -63.999 -60l-60 50c10.667 17.333 19.334 30.666 26.001 39.999s15.834 20.333 27.501 33
s24 22 37 28s27.167 9 42.5 9z" />
    <glyph glyph-name="hungarumlaut" unicode="&#x2dd;" horiz-adv-x="553" 
d="M161 564h-126l131 173h138zM375 564h-126l131 173h138z" />
    <glyph glyph-name="dotbelowcomb" unicode="&#x323;" horiz-adv-x="0" 
d="M104 -54c20 0 36.833 -7 50.5 -21s20.5 -30.833 20.5 -50.5s-6.83301 -36.5 -20.5 -50.5s-30.5 -21 -50.5 -21s-36.833 7 -50.5 21s-20.5 30.833 -20.5 50.5s6.83301 36.5 20.5 50.5s30.5 21 50.5 21z" />
    <glyph glyph-name="uni0326" unicode="&#x326;" horiz-adv-x="0" 
d="M101 -51c18 0.666992 33.499 -5.16504 46.499 -17.498s20.833 -28.833 23.5 -49.5c5.33301 -31.333 -2 -65 -22 -101s-46.333 -65.667 -79 -89l-46 30c32.667 27.333 55.334 58.666 68.001 93.999c-16 2 -29.667 9.16699 -41 21.5s-17 27.166 -17 44.499
c0 19.333 6.5 35.5 19.5 48.5s28.833 19.167 47.5 18.5z" />
    <glyph glyph-name="uni032D" unicode="&#x32d;" horiz-adv-x="0" 
d="M319 -229l-74 101l-74 -101h-136l141 173h138l141 -173h-136z" />
    <glyph glyph-name="uni0331" unicode="&#x331;" horiz-adv-x="0" 
d="M379 -187h-344v107h344v-107z" />
    <glyph glyph-name="Delta" unicode="&#x394;" horiz-adv-x="600" 
 />
    <glyph glyph-name="Omega" unicode="&#x3a9;" horiz-adv-x="600" 
 />
    <glyph glyph-name="mu" unicode="&#x3bc;" horiz-adv-x="600" 
 />
    <glyph glyph-name="pi" unicode="&#x3c0;" horiz-adv-x="600" 
 />
    <glyph glyph-name="Wgrave" unicode="&#x1e80;" horiz-adv-x="1038" 
d="M584 765h-134l-140 173h146zM830 0h-178l-133 494l-132 -494h-178l-184 700h161l117 -506l131 506h170l131 -506l117 506h161z" />
    <glyph glyph-name="wgrave" unicode="&#x1e81;" horiz-adv-x="857" 
d="M493 565h-133l-140 173h145zM670 0h-144l-97 336l-98 -336h-144l-172 500h147l101 -341l92 341h147l92 -341l101 341h147z" />
    <glyph glyph-name="Wacute" unicode="&#x1e82;" horiz-adv-x="1038" 
d="M580 765h-133l128 173h145zM830 0h-178l-133 494l-132 -494h-178l-184 700h161l117 -506l131 506h170l131 -506l117 506h161z" />
    <glyph glyph-name="wacute" unicode="&#x1e83;" horiz-adv-x="857" 
d="M489 565h-133l128 173h145zM670 0h-144l-97 336l-98 -336h-144l-172 500h147l101 -341l92 341h147l92 -341l101 341h147z" />
    <glyph glyph-name="Wdieresis" unicode="&#x1e84;" horiz-adv-x="1038" 
d="M408.5 918c19.667 0 36.5 -7 50.5 -21s21 -30.833 21 -50.5s-7 -36.5 -21 -50.5s-30.667 -21 -50 -21c-13.333 0 -25.5 3.16699 -36.5 9.5s-19.667 15 -26 26s-9.5 23.167 -9.5 36.5c0 19.333 7 36 21 50s30.833 21 50.5 21zM629.5 918c19.667 0 36.5 -7 50.5 -21
s21 -30.833 21 -50.5s-7 -36.5 -21 -50.5s-31 -21 -51 -21c-12.667 0 -24.5 3.16699 -35.5 9.5s-19.667 15 -26 26s-9.5 23.167 -9.5 36.5c0 19.333 7 36 21 50s30.833 21 50.5 21zM830 0h-178l-133 494l-132 -494h-178l-184 700h161l117 -506l131 506h170l131 -506l117 506
h161z" />
    <glyph glyph-name="wdieresis" unicode="&#x1e85;" horiz-adv-x="857" 
d="M318.5 718c19.667 0 36.5 -7 50.5 -21s21 -30.833 21 -50.5s-7 -36.5 -21 -50.5s-31 -21 -51 -21c-12.667 0 -24.5 3.16699 -35.5 9.5s-19.667 15 -26 26s-9.5 23.167 -9.5 36.5c0 19.333 7 36 21 50s30.833 21 50.5 21zM539 718c20 0 37 -7 51 -21s21 -30.833 21 -50.5
s-7 -36.5 -21 -50.5s-31 -21 -51 -21c-12.667 0 -24.5 3.16699 -35.5 9.5s-19.667 15 -26 26s-9.5 23.167 -9.5 36.5c0 19.333 6.83301 36 20.5 50s30.5 21 50.5 21zM670 0h-144l-97 336l-98 -336h-144l-172 500h147l101 -341l92 341h147l92 -341l102 341h146z" />
    <glyph glyph-name="Adotbelow" unicode="&#x1ea0;" horiz-adv-x="754" 
d="M729 0h-161l-49 138h-284l-49 -138h-161l273 700h158zM278 261h198l-99 276zM377.5 -54c19.667 0 36.5 -7 50.5 -21s21 -30.833 21 -50.5s-7 -36.5 -21 -50.5s-30.833 -21 -50.5 -21s-36.5 7 -50.5 21s-21 30.833 -21 50.5s7 36.5 21 50.5s30.833 21 50.5 21z" />
    <glyph glyph-name="adotbelow" unicode="&#x1ea1;" horiz-adv-x="627" 
d="M565 500l-0.000976562 -500.001h-140v54c-48 -45.333 -101.667 -68 -161 -68c-42 0 -79.5 11.833 -112.5 35.5s-58.5 55.5 -76.5 95.5s-27 84.333 -27 133c0 74.667 20.333 137.334 61 188.001s92.334 76 155.001 76c59.333 0 113 -22.667 161 -68v54h140z
M294.999 103.999c13.333 0 27.3301 2.16699 41.9971 6.5s29.834 11 45.501 20s29.834 19.833 42.501 32.5v174c-19.333 18.667 -40.666 33.167 -63.999 43.5s-45.333 15.5 -66 15.5c-22 0 -40.833 -6 -56.5 -18s-27.667 -29 -36 -51s-12.5 -47.667 -12.5 -77s4 -55 12 -77
s20 -39 36 -51s35 -18 57 -18zM325.996 -54.001c20 0 37 -7 51 -21s21 -30.833 21 -50.5s-7 -36.5 -21 -50.5s-31 -21 -51 -21s-36.833 7 -50.5 21s-20.5 30.833 -20.5 50.5s6.83301 36.5 20.5 50.5s30.5 21 50.5 21z" />
    <glyph glyph-name="Ahookabove" unicode="&#x1ea2;" horiz-adv-x="754" 
d="M404 994c88 0 132.001 -35.999 132.001 -107.999c0 -28.667 -6.83301 -49.834 -20.5 -63.501s-37.5 -28.167 -71.5 -43.5c-6.66699 -2.66699 -11.5 -5 -14.5 -7s-5.66699 -4.5 -8 -7.5s-3.5 -6.5 -3.5 -10.5h-89c0 29.333 5.16699 50 15.5 62s28.166 23.333 53.499 34
c10.667 4.66699 18.834 8.66699 24.501 12s10 7 13 11s4.5 8.33301 4.5 13c0 16.667 -14.667 25 -44 25c-18.667 0 -41.334 -3.66699 -68.001 -11l-41 72c34.667 14.667 73.667 22 117 22zM729.001 0.000976562h-161l-49 138h-284l-49 -138h-161l273 700h158z
M278.001 261.001h198l-99 276z" />
    <glyph glyph-name="ahookabove" unicode="&#x1ea3;" horiz-adv-x="627" 
d="M333 730c-18.667 0 -41.332 -3.33496 -67.999 -10.002l-41 71c34.667 15.333 73.667 23 117 23c88 0 132 -36 132 -108c0 -29.333 -6.83301 -50.666 -20.5 -63.999s-37.5 -27.666 -71.5 -42.999c-9.33301 -4.66699 -16 -8.5 -20 -11.5s-6 -7.5 -6 -13.5h-89
c0 20 3 36.167 9 48.5s13.167 21.5 21.5 27.5s21.166 12.667 38.499 20c16 6.66699 27 12.5 33 17.5s9 11.167 9 18.5c0 16.667 -14.667 24.667 -44 24zM565.002 499.998v-500.002h-140v54c-48 -45.333 -101.667 -68 -161 -68c-62.667 0 -114.334 25.333 -155.001 76
s-61 113.334 -61 188.001s20.333 137.334 61 188.001s92.334 76 155.001 76c59.333 0 113 -22.667 161 -68v54h140zM295.002 103.996c20.667 0 42.668 5.16699 66.001 15.5s44.666 24.833 63.999 43.5v174c-19.333 18.667 -40.666 33.167 -63.999 43.5
s-45.333 15.5 -66 15.5c-32.667 0 -58.334 -13.167 -77.001 -39.5s-28 -61.833 -28 -106.5c0 -29.333 4 -55 12 -77s20 -39 36 -51s35 -18 57 -18z" />
    <glyph glyph-name="Acircumflexacute" unicode="&#x1ea4;" horiz-adv-x="754" 
d="M703 825h-133l128 173h145zM303 764h-136l141 173h138l141 -173h-136l-74 101zM456 700l273 -700h-161l-49 138h-284l-49 -138h-161l273 700h158zM476 261l-99 276l-99 -276h198z" />
    <glyph glyph-name="acircumflexacute" unicode="&#x1ea5;" horiz-adv-x="627" 
d="M792 798l-140 -173h-133l128 173h145zM252 564h-136l141 173h138l141 -173h-136l-74 101zM425 500l139.999 -0.000976562v-500h-140v54c-48 -45.333 -101.667 -68 -161 -68c-42 0 -79.5 11.833 -112.5 35.5s-58.5 55.5 -76.5 95.5s-27 84.333 -27 133
c0 74.667 20.333 137.334 61 188.001s92.334 76 155.001 76c59.333 0 113 -22.667 161 -68v54zM294.999 103.999c13.333 0 27.3311 2.16699 41.998 6.5s29.834 11 45.501 20s29.834 19.833 42.501 32.5v174c-19.333 18.667 -40.666 33.167 -63.999 43.5
s-45.333 15.5 -66 15.5c-32.667 0 -58.334 -13.167 -77.001 -39.5s-28 -61.833 -28 -106.5c0 -29.333 4 -55 12 -77s20 -39 36 -51s35 -18 57 -18z" />
    <glyph glyph-name="Acircumflexgrave" unicode="&#x1ea6;" horiz-adv-x="754" 
d="M605 825l-140 173h145l128 -173h-133zM303 764h-136l141 173h138l141 -173h-136l-74 101zM456 700l273 -700h-161l-49 138h-284l-49 -138h-161l273 700h158zM476 261l-99 276l-99 -276h198z" />
    <glyph glyph-name="acircumflexgrave" unicode="&#x1ea7;" horiz-adv-x="627" 
d="M554 625l-140 173h145l128 -173h-133zM252 564h-136l141 173h138l141 -173h-136l-74 101zM425 500l140 -0.00195312v-500h-140v54c-48 -45.333 -101.667 -68 -161 -68c-62.667 0 -114.334 25.333 -155.001 76s-61 113.334 -61 188.001s20.333 137.334 61 188.001
s92.334 76 155.001 76c59.333 0 113 -22.667 161 -68v54zM295 103.998c20.667 0 42.668 5.16699 66.001 15.5s44.666 24.833 63.999 43.5v174c-19.333 18.667 -40.666 33.167 -63.999 43.5s-45.333 15.5 -66 15.5c-32.667 0 -58.334 -13.167 -77.001 -39.5
s-28 -61.833 -28 -106.5c0 -29.333 4 -55 12 -77s20 -39 36 -51s35 -18 57 -18z" />
    <glyph glyph-name="Acircumflexhookabove" unicode="&#x1ea8;" horiz-adv-x="754" 
d="M658 1035c88.667 0 133 -35.999 133 -107.999c0 -28.667 -6.83301 -49.834 -20.5 -63.501s-37.834 -28.167 -72.501 -43.5c-6.66699 -2.66699 -11.5 -5 -14.5 -7s-5.5 -4.33301 -7.5 -7s-3.33301 -6 -4 -10h-89c0.666992 28.667 6 49 16 61s28 23.333 54 34
c10.667 4.66699 18.667 8.66699 24 12s9.5 7 12.5 11s4.5 8.66699 4.5 14c0 16 -14.333 24 -43 24c-18.667 0 -41.667 -3.33301 -69 -10l-40 71c34.667 14.667 73.334 22 116.001 22zM303 764.001h-136l141 173h138l141 -173h-136l-74 101zM456 700.001l273 -700h-161
l-49 138h-284l-49 -138h-161l273 700h158zM476 261.001l-99 276l-99 -276h198z" />
    <glyph glyph-name="acircumflexhookabove" unicode="&#x1ea9;" horiz-adv-x="627" 
d="M607 835c88.667 0 133.001 -36 133.001 -108c0 -28.667 -6.83301 -49.834 -20.5 -63.501s-37.834 -28.167 -72.501 -43.5c-9.33301 -4 -15.833 -7.66699 -19.5 -11s-5.83398 -7.66602 -6.50098 -12.999h-89c0.666992 28.667 6 49 16 61s28 23.333 54 34
c15.333 7.33301 26 13.5 32 18.5s9 11.167 9 18.5c0 16 -14.333 24 -43 24c-18.667 0 -41.667 -3.33301 -69 -10l-40 71c34.667 14.667 73.334 22 116.001 22zM252.001 564h-136l141 173h138l141 -173h-136l-74 101zM425.001 500l139.999 -0.000976562v-500h-140v54
c-48 -45.333 -101.667 -68 -161 -68c-42 0 -79.5 11.833 -112.5 35.5s-58.5 55.5 -76.5 95.5s-27 84.333 -27 133c0 74.667 20.333 137.334 61 188.001s92.334 76 155.001 76c59.333 0 113 -22.667 161 -68v54zM295 103.999c20.667 0 42.667 5.16699 66 15.5
s44.666 24.833 63.999 43.5v174c-19.333 18.667 -40.666 33.167 -63.999 43.5s-45.333 15.5 -66 15.5c-16.667 0 -31.5 -3.5 -44.5 -10.5s-24 -16.833 -33 -29.5s-15.833 -28 -20.5 -46s-7 -38 -7 -60c0 -29.333 4 -55 12 -77s20 -39 36 -51s35 -18 57 -18z" />
    <glyph glyph-name="Acircumflextilde" unicode="&#x1eaa;" horiz-adv-x="754" 
d="M302 1021c-17.333 0 -38.668 -20 -64.001 -60l-60 50c8.66699 14 15.5 24.667 20.5 32s12.167 16.833 21.5 28.5s18 20.5 26 26.5s17.833 11.333 29.5 16s23.5 7 35.5 7c16.667 0 32 -3.66699 46 -11s30 -18 48 -32c20.667 -16 36 -24 46 -24
c18.667 0 40.334 20 65.001 60l60 -50c-11.333 -18 -20.5 -31.833 -27.5 -41.5s-16.167 -20.667 -27.5 -33s-23.333 -21.333 -36 -27s-26 -8.5 -40 -8.5c-13.333 0 -26.333 2.5 -39 7.5s-22.167 9.83301 -28.5 14.5s-15.5 11.667 -27.5 21c-20.667 16 -36.667 24 -48 24z
M302.998 764h-136l141 173h138l141 -173h-136l-74 101zM728.998 0h-161l-49 138h-284l-49 -138h-161l273 700h158zM475.998 261l-99 276l-99 -276h198z" />
    <glyph glyph-name="acircumflextilde" unicode="&#x1eab;" horiz-adv-x="627" 
d="M251 821c-17.333 0 -38.6709 -19.999 -64.0039 -59.999l-60 50c10.667 17.333 19.334 30.666 26.001 39.999s15.834 20.5 27.501 33.5s24 22.333 37 28s27.167 8.5 42.5 8.5c16.667 0 32 -3.66699 46 -11s30 -18 48 -32c20.667 -16 36 -24 46 -24
c18.667 0 40.334 20 65.001 60l60 -50c-11.333 -18 -20.5 -31.833 -27.5 -41.5s-16.167 -20.667 -27.5 -33s-23.166 -21.333 -35.499 -27s-25.833 -8.5 -40.5 -8.5c-13.333 0 -26.333 2.5 -39 7.5s-22.167 9.83301 -28.5 14.5s-15.5 11.667 -27.5 21
c-20.667 16 -36.667 24 -48 24zM251.995 564.001h-136l141 173h138l141 -173h-136l-74 101zM564.995 500.001v-500.002h-140v54c-48 -45.333 -101.667 -68 -161 -68c-62.667 0 -114.334 25.333 -155.001 76s-61 113.334 -61 188.001s20.333 137.334 61 188.001
s92.334 76 155.001 76c59.333 0 113 -22.667 161 -68v54h140zM294.995 103.999c20.667 0 42.668 5.16699 66.001 15.5s44.666 24.833 63.999 43.5v174c-19.333 18.667 -40.666 33.167 -63.999 43.5s-45.333 15.5 -66 15.5c-32.667 0 -58.334 -13.167 -77.001 -39.5
s-28 -61.833 -28 -106.5c0 -29.333 4 -55 12 -77s20 -39 36 -51s35 -18 57 -18z" />
    <glyph glyph-name="Acircumflexdotbelow" unicode="&#x1eac;" horiz-adv-x="754" 
d="M303 764h-136l141 173h138l141 -173h-136l-74 101zM729 0h-161l-49 138h-284l-49 -138h-161l273 700h158zM476 261l-99 276l-99 -276h198zM377.5 -54c19.667 0 36.5 -7 50.5 -21s21 -30.833 21 -50.5s-7 -36.5 -21 -50.5s-30.833 -21 -50.5 -21s-36.5 7 -50.5 21
s-21 30.833 -21 50.5s7 36.5 21 50.5s30.833 21 50.5 21z" />
    <glyph glyph-name="acircumflexdotbelow" unicode="&#x1ead;" horiz-adv-x="627" 
d="M252 564h-136l141 173h138l141 -173h-136l-74 101zM565 500l-0.000976562 -500.001h-140v54c-48 -45.333 -101.667 -68 -161 -68c-42 0 -79.5 11.833 -112.5 35.5s-58.5 55.5 -76.5 95.5s-27 84.333 -27 133c0 74.667 20.333 137.334 61 188.001s92.334 76 155.001 76
c59.333 0 113 -22.667 161 -68v54h140zM294.999 103.999c13.333 0 27.3311 2.16699 41.998 6.5s29.834 11 45.501 20s29.834 19.833 42.501 32.5v174c-19.333 18.667 -40.666 33.167 -63.999 43.5s-45.333 15.5 -66 15.5c-32.667 0 -58.334 -13.167 -77.001 -39.5
s-28 -61.833 -28 -106.5c0 -29.333 4 -55 12 -77s20 -39 36 -51s35 -18 57 -18zM326.497 -54.001c19.667 0 36.5 -7 50.5 -21s21 -30.833 21 -50.5s-7 -36.5 -21 -50.5s-30.833 -21 -50.5 -21s-36.5 7 -50.5 21s-21 30.833 -21 50.5s7 36.5 21 50.5s30.833 21 50.5 21z" />
    <glyph glyph-name="Abreveacute" unicode="&#x1eae;" horiz-adv-x="754" 
d="M438 939h-133l128 173h145zM466 931h101c0 -47.333 -17.5 -87 -52.5 -119s-80.833 -48 -137.5 -48c-56 0 -101.667 16 -137 48s-53 71.667 -53 119h101c0 -22.667 8.5 -40.834 25.5 -54.501s38.167 -20.5 63.5 -20.5c26 0 47.333 6.83301 64 20.5s25 31.834 25 54.501z
M729 0h-161l-49 138h-284l-49 -138h-161l273 700h158zM278 261h198l-99 276z" />
    <glyph glyph-name="abreveacute" unicode="&#x1eaf;" horiz-adv-x="627" 
d="M387 740h-133l128 173h145zM326 564c-37.333 0 -70.5 7.5 -99.5 22.5s-51.333 35.167 -67 60.5s-23.5 53.333 -23.5 84h101c0 -22.667 8.5 -40.834 25.5 -54.501s38.167 -20.5 63.5 -20.5c26 0 47.333 6.83301 64 20.5s25 31.834 25 54.501h101
c0 -47.333 -17.5 -87 -52.5 -119s-80.833 -48 -137.5 -48zM565 500l-0.000976562 -500.001h-140v54c-48 -45.333 -101.667 -68 -161 -68c-42 0 -79.5 11.833 -112.5 35.5s-58.5 55.5 -76.5 95.5s-27 84.333 -27 133c0 74.667 20.333 137.334 61 188.001
s92.334 76 155.001 76c59.333 0 113 -22.667 161 -68v54h140zM294.999 103.999c13.333 0 27.3311 2.16699 41.998 6.5s29.834 11 45.501 20s29.834 19.833 42.501 32.5v174c-19.333 18.667 -40.666 33.167 -63.999 43.5s-45.333 15.5 -66 15.5
c-32.667 0 -58.334 -13.167 -77.001 -39.5s-28 -61.833 -28 -106.5c0 -29.333 4 -55 12 -77s20 -39 36 -51s35 -18 57 -18z" />
    <glyph glyph-name="Abrevegrave" unicode="&#x1eb0;" horiz-adv-x="754" 
d="M442 939h-133l-140 173h145zM466 931h101c0 -47.333 -17.5 -87 -52.5 -119s-80.833 -48 -137.5 -48c-56 0 -101.667 16 -137 48s-53 71.667 -53 119h101c0 -22.667 8.5 -40.834 25.5 -54.501s38.167 -20.5 63.5 -20.5c26 0 47.333 6.83301 64 20.5s25 31.834 25 54.501z
M729 0h-161l-49 138h-284l-49 -138h-161l273 700h158zM278 261h198l-99 276z" />
    <glyph glyph-name="abrevegrave" unicode="&#x1eb1;" horiz-adv-x="627" 
d="M258 740l-140 173h145l128 -173h-133zM136 731h101c0 -22.667 8.5 -40.834 25.5 -54.501s38.167 -20.5 63.5 -20.5c26 0 47.333 6.83301 64 20.5s25 31.834 25 54.501h101c0 -47.333 -17.5 -87 -52.5 -119s-80.833 -48 -137.5 -48c-56 0 -101.667 16 -137 48
s-53 71.667 -53 119zM565 500l-0.000976562 -500.001h-140v54c-48 -45.333 -101.667 -68 -161 -68c-42 0 -79.5 11.833 -112.5 35.5s-58.5 55.5 -76.5 95.5s-27 84.333 -27 133c0 74.667 20.333 137.334 61 188.001s92.334 76 155.001 76c59.333 0 113 -22.667 161 -68v54
h140zM294.999 103.999c13.333 0 27.3311 2.16699 41.998 6.5s29.834 11 45.501 20s29.834 19.833 42.501 32.5v174c-19.333 18.667 -40.666 33.167 -63.999 43.5s-45.333 15.5 -66 15.5c-32.667 0 -58.334 -13.167 -77.001 -39.5s-28 -61.833 -28 -106.5
c0 -29.333 4 -55 12 -77s20 -39 36 -51s35 -18 57 -18z" />
    <glyph glyph-name="Abrevehookabove" unicode="&#x1eb2;" horiz-adv-x="754" 
d="M392 1155c88 0 132.002 -35.999 132.002 -107.999c0 -28.667 -6.83301 -49.834 -20.5 -63.501s-37.5 -28.167 -71.5 -43.5c-10 -4 -16.833 -7.66699 -20.5 -11s-5.5 -8 -5.5 -14h-89c0 29.333 5.16699 50 15.5 62s28.166 23.333 53.499 34c16 7.33301 27 13.5 33 18.5
s9 10.833 9 17.5c0 16.667 -14.667 25 -44 25c-18.667 0 -41.334 -3.66699 -68.001 -11l-41 72c34.667 14.667 73.667 22 117 22zM466.002 931.001h101c0 -47.333 -17.5 -87 -52.5 -119s-80.833 -48 -137.5 -48c-56 0 -101.667 16 -137 48s-53 71.667 -53 119h101
c0 -22.667 8.5 -40.834 25.5 -54.501s38.167 -20.5 63.5 -20.5c26 0 47.333 6.83301 64 20.5s25 31.834 25 54.501zM729.002 0.000976562h-161l-49 138h-284l-49 -138h-161l273 700h158zM278.002 261.001h198l-99 276z" />
    <glyph glyph-name="abrevehookabove" unicode="&#x1eb3;" horiz-adv-x="627" 
d="M333 872c-18.667 0 -41.333 -3.66602 -68 -10.999l-41 72c34.667 14.667 73.667 22 117 22c88 0 132 -36 132 -108c0 -28.667 -6.83301 -49.834 -20.5 -63.501s-37.5 -28.167 -71.5 -43.5c-9.33301 -4 -16 -7.66699 -20 -11s-6 -8 -6 -14h-89
c0 29.333 5.16699 50 15.5 62s28.166 23.333 53.499 34c10.667 4.66699 18.834 8.66699 24.501 12s10 7 13 11s4.5 8.33301 4.5 13c0 16.667 -14.667 25 -44 25zM326.001 564.001c-56 0 -101.667 16 -137 48s-53 71.667 -53 119h101c0 -22.667 8.5 -40.834 25.5 -54.501
s38.167 -20.5 63.5 -20.5c26 0 47.333 6.83301 64 20.5s25 31.834 25 54.501h101c0 -47.333 -17.5 -87 -52.5 -119s-80.833 -48 -137.5 -48zM565.001 500.001l-0.000976562 -500.001h-140v54c-48 -45.333 -101.667 -68 -161 -68c-42 0 -79.5 11.833 -112.5 35.5
s-58.5 55.5 -76.5 95.5s-27 84.333 -27 133c0 74.667 20.333 137.334 61 188.001s92.334 76 155.001 76c59.333 0 113 -22.667 161 -68v54h140zM295 104c20.667 0 42.668 5.16699 66.001 15.5s44.666 24.833 63.999 43.5v174c-19.333 18.667 -40.666 33.167 -63.999 43.5
s-45.333 15.5 -66 15.5c-32.667 0 -58.334 -13.167 -77.001 -39.5s-28 -61.833 -28 -106.5c0 -29.333 4 -55 12 -77s20 -39 36 -51s35 -18 57 -18z" />
    <glyph glyph-name="Abrevetilde" unicode="&#x1eb4;" horiz-adv-x="754" 
d="M311 1118c11.333 0 22.998 -2.16895 34.998 -6.50195s21.833 -9.16602 29.5 -14.499s17.5 -12.666 29.5 -21.999c20.667 -16 36 -24 46 -24c18.667 0 40.334 20 65.001 60l60 -50c-11.333 -18 -20.5 -31.833 -27.5 -41.5s-16.167 -20.667 -27.5 -33
s-23.333 -21.333 -36 -27s-26 -8.5 -40 -8.5c-13.333 0 -26.333 2.5 -39 7.5s-22.167 9.83301 -28.5 14.5s-15.5 11.667 -27.5 21c-20.667 16 -36.667 24 -48 24c-17.333 0 -38.666 -20 -63.999 -60l-60 50c8.66699 14 15.5 24.667 20.5 32s12.167 16.833 21.5 28.5
s18 20.5 26 26.5s17.833 11.333 29.5 16s23.5 7 35.5 7zM465.998 930.998h101c0 -47.333 -17.5 -87 -52.5 -119s-80.833 -48 -137.5 -48c-56 0 -101.667 16 -137 48s-53 71.667 -53 119h101c0 -22.667 8.5 -40.834 25.5 -54.501s38.167 -20.5 63.5 -20.5
c26 0 47.333 6.83301 64 20.5s25 31.834 25 54.501zM728.998 -0.00195312h-161l-49 138h-284l-49 -138h-161l273 700h158zM277.998 260.998h198l-99 276z" />
    <glyph glyph-name="abrevetilde" unicode="&#x1eb5;" horiz-adv-x="627" 
d="M251 815c-17.333 0 -38.6699 -19.9971 -64.0029 -59.9971l-60 50c10.667 17.333 19.334 30.666 26.001 39.999s15.834 20.333 27.501 33s24 22 37 28s27.167 9 42.5 9c16.667 0 32 -3.66699 46 -11s30 -18 48 -32c20.667 -16 36 -24 46 -24c18.667 0 40.334 20 65.001 60
l60 -50c-9.33301 -14.667 -16.5 -25.834 -21.5 -33.501s-12.167 -17.167 -21.5 -28.5s-18 -19.833 -26 -25.5s-17.5 -10.834 -28.5 -15.501s-22.167 -7 -33.5 -7c-12.667 0 -25.5 2.5 -38.5 7.5s-22.667 9.83301 -29 14.5s-15.5 11.667 -27.5 21
c-20.667 16 -36.667 24 -48 24zM325.996 656.003c26 0 47.333 6.83301 64 20.5s25 31.834 25 54.501h101c0 -47.333 -17.5 -87 -52.5 -119s-80.833 -48 -137.5 -48c-56 0 -101.667 16 -137 48s-53 71.667 -53 119h101c0 -22.667 8.5 -40.834 25.5 -54.501
s38.167 -20.5 63.5 -20.5zM564.996 500.003v-500.002h-140v54c-48 -45.333 -101.667 -68 -161 -68c-62.667 0 -114.334 25.333 -155.001 76s-61 113.334 -61 188.001s20.333 137.334 61 188.001s92.334 76 155.001 76c59.333 0 113 -22.667 161 -68v54h140zM294.996 104.001
c10 0 20.5 1.33105 31.5 3.99805s22.167 6.33398 33.5 11.001s22.5 10.834 33.5 18.501s21.5 16.167 31.5 25.5v174c-19.333 18.667 -40.666 33.167 -63.999 43.5s-45.333 15.5 -66 15.5c-32.667 0 -58.334 -13.167 -77.001 -39.5s-28 -61.833 -28 -106.5
c0 -29.333 4 -55 12 -77s20 -39 36 -51s35 -18 57 -18z" />
    <glyph glyph-name="Abrevedotbelow" unicode="&#x1eb6;" horiz-adv-x="754" 
d="M466 931h101c0 -47.333 -17.5 -87 -52.5 -119s-80.833 -48 -137.5 -48c-56 0 -101.667 16 -137 48s-53 71.667 -53 119h101c0 -22.667 8.5 -40.834 25.5 -54.501s38.167 -20.5 63.5 -20.5c26 0 47.333 6.83301 64 20.5s25 31.834 25 54.501zM729 0h-161l-49 138h-284
l-49 -138h-161l273 700h158zM278 261h198l-99 276zM377.5 -54c19.667 0 36.501 -7 50.501 -21s21 -30.667 21 -50c0 -13.333 -3.33301 -25.5 -10 -36.5s-15.334 -19.667 -26.001 -26s-22.667 -9.5 -36 -9.5c-19.333 0 -36 7 -50 21s-21 30.833 -21 50.5s7 36.5 21 50.5
s30.833 21 50.5 21z" />
    <glyph glyph-name="abrevedotbelow" unicode="&#x1eb7;" horiz-adv-x="627" 
d="M326 564c-37.333 0 -70.5 7.5 -99.5 22.5s-51.333 35.167 -67 60.5s-23.5 53.333 -23.5 84h101c0 -22.667 8.5 -40.834 25.5 -54.501s38.167 -20.5 63.5 -20.5c26 0 47.333 6.83301 64 20.5s25 31.834 25 54.501h101c0 -47.333 -17.5 -87 -52.5 -119
s-80.833 -48 -137.5 -48zM565 500l-0.000976562 -500.001h-140v54c-48 -45.333 -101.667 -68 -161 -68c-42 0 -79.5 11.833 -112.5 35.5s-58.5 55.5 -76.5 95.5s-27 84.333 -27 133c0 74.667 20.333 137.334 61 188.001s92.334 76 155.001 76c59.333 0 113 -22.667 161 -68
v54h140zM294.999 103.999c20.667 0 42.668 5.16699 66.001 15.5s44.666 24.833 63.999 43.5v174c-19.333 18.667 -40.666 33.167 -63.999 43.5s-45.333 15.5 -66 15.5c-32.667 0 -58.334 -13.167 -77.001 -39.5s-28 -61.833 -28 -106.5c0 -29.333 4 -55 12 -77
s20 -39 36 -51s35 -18 57 -18zM326 -54.001c20 0 37 -7 51 -21s21 -30.833 21 -50.5s-7 -36.5 -21 -50.5s-31 -21 -51 -21s-36.833 7 -50.5 21s-20.5 30.833 -20.5 50.5s6.83301 36.5 20.5 50.5s30.5 21 50.5 21z" />
    <glyph glyph-name="Edotbelow" unicode="&#x1eb8;" horiz-adv-x="635" 
d="M590 123v-123h-507v700h497v-123h-348v-149h309v-123h-309v-182h358zM337 -54c19.333 0 36 -7 50 -21s21 -30.833 21 -50.5s-7 -36.5 -21 -50.5s-30.833 -21 -50.5 -21s-36.5 7 -50.5 21s-21 31 -21 51c0 12.667 3.16699 24.5 9.5 35.5s15 19.667 26 26
s23.167 9.5 36.5 9.5z" />
    <glyph glyph-name="edotbelow" unicode="&#x1eb9;" horiz-adv-x="589" 
d="M304 514c76 0 135.5 -24.834 178.5 -74.501s64.5 -116.167 64.5 -199.5c0 -8 -0.333008 -16 -1 -24h-351c0.666992 -2.66699 1 -5.33398 1 -8.00098c6 -34 20 -60.5 42 -79.5s49 -28.5 81 -28.5c46.667 0 97.667 14 153 42l33 -88c-58.667 -45.333 -125 -68 -199 -68
c-75.333 0 -136.833 25.333 -184.5 76s-71.5 113.334 -71.5 188.001s23.5 137.334 70.5 188.001s108.167 76 183.5 76zM307 399.999c-29.333 0 -53.5 -8.83301 -72.5 -26.5s-31.5 -41.5 -37.5 -71.5h211c-9.33301 65.333 -43 98 -101 98zM306.5 -54.001
c19.667 0 36.5 -7 50.5 -21s21 -30.833 21 -50.5s-7 -36.5 -21 -50.5s-30.833 -21 -50.5 -21s-36.5 7 -50.5 21s-21 30.833 -21 50.5s7 36.5 21 50.5s30.833 21 50.5 21z" />
    <glyph glyph-name="Ehookabove" unicode="&#x1eba;" horiz-adv-x="635" 
d="M357 911c-18.667 0 -41.3311 -3.66602 -67.998 -10.999l-41 72c34.667 14.667 73.667 22 117 22c88 0 132 -36 132 -108c0 -28.667 -6.83301 -49.834 -20.5 -63.501s-37.834 -28.167 -72.501 -43.5c-9.33301 -4 -15.833 -7.66699 -19.5 -11s-5.83398 -8 -6.50098 -14h-88
c0 29.333 5 50 15 62s28 23.333 54 34c16 7.33301 27 13.333 33 18s9 10.667 9 18c0 16.667 -14.667 25 -44 25zM590.003 123.001v-123h-507v700h497v-123h-348v-149h309v-123h-309v-182h358z" />
    <glyph glyph-name="ehookabove" unicode="&#x1ebb;" horiz-adv-x="589" 
d="M325 814c88 0 132.004 -36.002 132.004 -108.002c0 -29.333 -6.83301 -50.666 -20.5 -63.999s-37.5 -27.666 -71.5 -42.999c-9.33301 -4.66699 -15.833 -8.5 -19.5 -11.5s-5.83398 -7.5 -6.50098 -13.5h-89c0 20 3 36.167 9 48.5s13.167 21.5 21.5 27.5
s21.166 12.667 38.499 20c11.333 4.66699 19.666 8.66699 24.999 12s9.5 7 12.5 11s4.5 8.33301 4.5 13c0 16.667 -14.667 24.667 -44 24c-18.667 0 -41.334 -3.33301 -68.001 -10l-41 71c35.333 15.333 74.333 23 117 23zM304.004 513.998
c76 0 135.5 -24.834 178.5 -74.501s64.5 -116.167 64.5 -199.5c0 -8 -0.333008 -16 -1 -24h-351c0.666992 -2.66699 1 -5.33398 1 -8.00098c6 -34 20 -60.5 42 -79.5s49.333 -28.5 82 -28.5c46 0 96.667 14 152 42l33 -88c-58.667 -45.333 -125 -68 -199 -68
c-75.333 0 -136.833 25.333 -184.5 76s-71.5 113.334 -71.5 188.001s23.5 137.334 70.5 188.001s108.167 76 183.5 76zM307.004 399.997c-29.333 0 -53.5 -8.83301 -72.5 -26.5s-31.5 -41.5 -37.5 -71.5h211c-9.33301 65.333 -43 98 -101 98z" />
    <glyph glyph-name="Etilde" unicode="&#x1ebc;" horiz-adv-x="635" 
d="M261 832c-18 0 -39.334 -20 -64.001 -60l-60 50c10.667 17.333 19.334 30.666 26.001 39.999s15.834 20.333 27.501 33s24 22 37 28s27.167 9 42.5 9c16.667 0 32 -3.66699 46 -11s30 -18 48 -32c20 -16 35.333 -24 46 -24c18.667 0 40.334 20 65.001 60l60 -50
c-11.333 -18.667 -20.5 -32.667 -27.5 -42s-16.167 -20.166 -27.5 -32.499s-23.333 -21.333 -36 -27s-26.334 -8.5 -41.001 -8.5c-12.667 0 -25.334 2.5 -38.001 7.5s-22.167 9.83301 -28.5 14.5s-15.5 11.667 -27.5 21c-20.667 16 -36.667 24 -48 24zM589.999 123v-123
h-507v700h497v-123h-348v-149h309v-123h-309v-182h358z" />
    <glyph glyph-name="etilde" unicode="&#x1ebd;" horiz-adv-x="589" 
d="M237 732c16.667 0 31.998 -3.66699 45.998 -11s30 -18 48 -32c20.667 -16 36 -24 46 -24c18.667 0 40.334 20 65.001 60l61 -50c-10 -14.667 -17.5 -25.834 -22.5 -33.501s-12.167 -17.167 -21.5 -28.5s-18 -20 -26 -26s-17.5 -11.167 -28.5 -15.5
s-22.167 -6.5 -33.5 -6.5c-12.667 0 -25.5 2.5 -38.5 7.5s-22.667 9.83301 -29 14.5s-15.5 11.667 -27.5 21c-20.667 16 -36.667 24 -48 24c-17.333 0 -38.666 -20 -63.999 -60l-60 50c8.66699 13.333 15.5 23.833 20.5 31.5s12.167 17.334 21.5 29.001s18 20.5 26 26.5
s17.833 11.333 29.5 16s23.5 7 35.5 7zM303.998 514c50.667 0 94.333 -11.502 131 -34.502s64.5 -55 83.5 -96s28.5 -88.833 28.5 -143.5c0 -8 -0.333008 -16 -1 -24h-351c0 -2.66699 0.333008 -5.33398 1 -8.00098c4 -22.667 11.667 -42.167 23 -58.5
s25.5 -28.666 42.5 -36.999s36.5 -12.5 58.5 -12.5c46 0 96.667 14 152 42l33 -88c-58.667 -45.333 -125 -68 -199 -68c-75.333 0 -136.833 25.333 -184.5 76s-71.5 113.334 -71.5 188.001s23.5 137.334 70.5 188.001s108.167 76 183.5 76zM306.997 399.998
c-29.333 0 -53.5 -8.83301 -72.5 -26.5s-31.5 -41.5 -37.5 -71.5h211c-9.33301 65.333 -43 98 -101 98z" />
    <glyph glyph-name="Ecircumflexacute" unicode="&#x1ebe;" horiz-adv-x="635" 
d="M802 998l-140 -173h-133l128 173h145zM262 764h-136l141 173h138l141 -173h-136l-74 101zM232 123h358v-123h-507v700h497v-123h-348v-149h309v-123h-309v-182z" />
    <glyph glyph-name="ecircumflexacute" unicode="&#x1ebf;" horiz-adv-x="589" 
d="M769 798l-140 -173h-133l128 173h145zM229 564h-136l141 173h138l141 -173h-136l-74 101zM304 514c76 0 135.5 -24.834 178.5 -74.501s64.5 -116.167 64.5 -199.5c0 -8 -0.333008 -16 -1 -24h-351c0 -2.66699 0.333008 -5.33398 1 -8.00098c6 -34 20 -60.5 42 -79.5
s49.333 -28.5 82 -28.5c46 0 96.667 14 152 42l33 -88c-58.667 -45.333 -125 -68 -199 -68c-75.333 0 -136.833 25.333 -184.5 76s-71.5 113.334 -71.5 188.001s23.5 137.334 70.5 188.001s108.167 76 183.5 76zM197 300.999l211 0.000976562c-9.33301 66 -43 99 -101 99
c-29.333 0 -53.5 -8.83301 -72.5 -26.5s-31.5 -41.834 -37.5 -72.501z" />
    <glyph glyph-name="Ecircumflexgrave" unicode="&#x1ec0;" horiz-adv-x="635" 
d="M564 825l-140 173h145l128 -173h-133zM262 764h-136l141 173h138l141 -173h-136l-74 101zM232 123h358v-123h-507v700h497v-123h-348v-149h309v-123h-309v-182z" />
    <glyph glyph-name="ecircumflexgrave" unicode="&#x1ec1;" horiz-adv-x="589" 
d="M531 625l-140 173h145l128 -173h-133zM229 564h-136l141 173h138l141 -173h-136l-74 101zM304 514c76 0 135.5 -24.834 178.5 -74.501s64.5 -116.167 64.5 -199.5c0 -8 -0.333008 -16 -1 -24h-351c0 -2.66699 0.333008 -5.33398 1 -8.00098c6 -34 20 -60.5 42 -79.5
s49.333 -28.5 82 -28.5c46 0 96.667 14 152 42l33 -88c-58.667 -45.333 -125 -68 -199 -68c-75.333 0 -136.833 25.333 -184.5 76s-71.5 113.334 -71.5 188.001s23.5 137.334 70.5 188.001s108.167 76 183.5 76zM197 301.999h211c-9.33301 65.333 -43 98 -101 98
c-29.333 0 -53.5 -8.83301 -72.5 -26.5s-31.5 -41.5 -37.5 -71.5z" />
    <glyph glyph-name="Ecircumflexhookabove" unicode="&#x1ec2;" horiz-adv-x="635" 
d="M617 1035c88 0 132.001 -35.999 132.001 -107.999c0 -28.667 -6.83301 -49.834 -20.5 -63.501s-37.5 -28.167 -71.5 -43.5c-6.66699 -2.66699 -11.5 -5 -14.5 -7s-5.66699 -4.33301 -8 -7s-3.5 -6 -3.5 -10h-89c0 28.667 5.16699 49 15.5 61s28.166 23.333 53.499 34
c16 7.33301 27 13.5 33 18.5s9 11.167 9 18.5c0 16 -14.667 24 -44 24c-18.667 0 -41.334 -3.33301 -68.001 -10l-40 71c34.667 14.667 73.334 22 116.001 22zM262.001 764.001h-136l141 173h138l141 -173h-136l-74 101zM232.001 123.001h358v-123h-507v700h497v-123h-348
v-149h309v-123h-309v-182z" />
    <glyph glyph-name="ecircumflexhookabove" unicode="&#x1ec3;" horiz-adv-x="589" 
d="M585 835c88 0 132.002 -35.999 132.002 -107.999c0 -28.667 -6.83301 -49.834 -20.5 -63.501s-37.834 -28.167 -72.501 -43.5c-6 -2.66699 -10.667 -5 -14 -7s-6 -4.33301 -8 -7s-3.33301 -6 -4 -10h-88c0 28.667 5 49 15 61s28 23.333 54 34c16 7.33301 27 13.5 33 18.5
s9 11.167 9 18.5c-0.666992 16 -15.334 24 -44.001 24c-18.667 0 -41.667 -3.33301 -69 -10l-40 71c34.667 14.667 73.667 22 117 22zM229.002 564.001h-136l141 173h138l141 -173h-136l-74 101zM304.002 514.001c76 0 135.5 -24.834 178.5 -74.501
s64.5 -116.167 64.5 -199.5c0 -8 -0.333008 -16 -1 -24h-351c0.666992 -2.66699 1 -5.33398 1 -8.00098c6 -34 20 -60.5 42 -79.5s49.333 -28.5 82 -28.5c46 0 96.667 14 152 42l33 -88c-58.667 -45.333 -125 -68 -199 -68c-75.333 0 -136.833 25.333 -184.5 76
s-71.5 113.334 -71.5 188.001s23.5 137.334 70.5 188.001s108.167 76 183.5 76zM197.002 302h211c-9.33301 65.333 -43 98 -101 98c-29.333 0 -53.5 -8.83301 -72.5 -26.5s-31.5 -41.5 -37.5 -71.5z" />
    <glyph glyph-name="Ecircumflextilde" unicode="&#x1ec4;" horiz-adv-x="635" 
d="M261 1021c-18 0 -39.334 -20 -64.001 -60l-60 50c8.66699 14 15.334 24.667 20.001 32s11.834 16.833 21.501 28.5s18.5 20.5 26.5 26.5s17.667 11.333 29 16s23.333 7 36 7c16.667 0 32 -3.66699 46 -11s30 -18 48 -32c20 -16 35.333 -24 46 -24
c18.667 0 40.334 20 65.001 60l60 -50c-11.333 -18 -20.5 -31.833 -27.5 -41.5s-16.167 -20.667 -27.5 -33s-23.333 -21.333 -36 -27s-26.334 -8.5 -41.001 -8.5c-12.667 0 -25.334 2.5 -38.001 7.5s-22.167 9.83301 -28.5 14.5s-15.5 11.667 -27.5 21
c-20.667 16 -36.667 24 -48 24zM261.999 764h-136l141 173h138l141 -173h-136l-74 101zM589.999 123v-123h-507v700h497v-123h-348v-149h309v-123h-309v-182h358z" />
    <glyph glyph-name="ecircumflextilde" unicode="&#x1ec5;" horiz-adv-x="589" 
d="M228 821c-17.333 0 -38.6699 -19.9971 -64.0029 -59.9971l-60 50c10.667 17.333 19.334 30.666 26.001 39.999s15.834 20.5 27.501 33.5s24 22.333 37 28s27.167 8.5 42.5 8.5c16.667 0 32 -3.66699 46 -11s30 -18 48 -32c20.667 -16 36 -24 46 -24
c18.667 0 40.334 20 65.001 60l61 -50c-10 -14.667 -17.5 -25.834 -22.5 -33.501s-12.167 -17.167 -21.5 -28.5s-18 -19.833 -26 -25.5s-17.5 -10.834 -28.5 -15.501s-22.167 -7 -33.5 -7c-12.667 0 -25.5 2.5 -38.5 7.5s-22.667 9.83301 -29 14.5s-15.5 11.667 -27.5 21
c-20.667 16 -36.667 24 -48 24zM228.996 564.003h-136l141 173h138l141 -173h-136l-74 101zM303.996 514.003c76 0 135.5 -24.833 178.5 -74.5s64.5 -116.167 64.5 -199.5c0 -8 -0.333008 -16 -1 -24h-351c0.666992 -2.66699 1 -5.33398 1 -8.00098c6 -34 20 -60.5 42 -79.5
s49.333 -28.5 82 -28.5c46 0 96.667 14 152 42l33 -88c-58.667 -45.333 -125 -68 -199 -68c-50 0 -94.667 11.833 -134 35.5s-69.5 55.5 -90.5 95.5s-31.5 84.333 -31.5 133c0 74.667 23.5 137.334 70.5 188.001s108.167 76 183.5 76zM196.996 302.003h210.999
c-9.33301 65.333 -43 98 -101 98c-19.333 0 -36.666 -4 -51.999 -12s-27.833 -19.333 -37.5 -34s-16.5 -32 -20.5 -52z" />
    <glyph glyph-name="Ecircumflexdotbelow" unicode="&#x1ec6;" horiz-adv-x="635" 
d="M262 764h-136l141 173h138l141 -173h-136l-74 101zM590 123v-123h-507v700h497v-123h-348v-149h309v-123h-309v-182h358zM336.5 -54c19.667 0 36.5 -7 50.5 -21s21 -30.833 21 -50.5s-7 -36.5 -21 -50.5s-30.833 -21 -50.5 -21s-36.5 7 -50.5 21s-21 30.833 -21 50.5
s7 36.5 21 50.5s30.833 21 50.5 21z" />
    <glyph glyph-name="ecircumflexdotbelow" unicode="&#x1ec7;" horiz-adv-x="589" 
d="M229 564h-136l141 173h138l141 -173h-136l-74 101zM304 514c76 0 135.5 -24.834 178.5 -74.501s64.5 -116.167 64.5 -199.5c0 -8 -0.333008 -16 -1 -24h-351c0.666992 -2.66699 1 -5.33398 1 -8.00098c6 -34 20 -60.5 42 -79.5s49.333 -28.5 82 -28.5
c46 0 96.667 14 152 42l33 -88c-58.667 -45.333 -125 -68 -199 -68c-75.333 0 -136.833 25.333 -184.5 76s-71.5 113.334 -71.5 188.001s23.5 137.334 70.5 188.001s108.167 76 183.5 76zM197 301.999h211c-9.33301 65.333 -43 98 -101 98
c-29.333 0 -53.5 -8.83301 -72.5 -26.5s-31.5 -41.5 -37.5 -71.5zM307 -54.001c19.333 0 36 -7 50 -21s21 -30.833 21 -50.5s-7 -36.5 -21 -50.5s-30.833 -21 -50.5 -21s-36.5 7 -50.5 21s-21 31 -21 51c0 12.667 3.16699 24.5 9.5 35.5s15 19.667 26 26
s23.167 9.5 36.5 9.5z" />
    <glyph glyph-name="Ihookabove" unicode="&#x1ec8;" horiz-adv-x="315" 
d="M187 994c88 0 132.002 -35.999 132.002 -107.999c0 -28.667 -6.83301 -49.834 -20.5 -63.501s-37.834 -28.167 -72.501 -43.5c-9.33301 -4 -15.833 -7.66699 -19.5 -11s-5.83398 -8 -6.50098 -14h-88c0 20.667 2.83301 37.167 8.5 49.5s12.834 21.333 21.501 27
s21.667 12.167 39 19.5c16 7.33301 27 13.333 33 18s9 10.667 9 18c0 16.667 -14.667 25 -44 25c-18.667 0 -41.334 -3.66699 -68.001 -11l-41 72c34.667 14.667 73.667 22 117 22zM232.002 0.000976562h-149v700h149v-700z" />
    <glyph glyph-name="ihookabove" unicode="&#x1ec9;" horiz-adv-x="255" 
d="M158 814c88 0 132.002 -36.002 132.002 -108.002c0 -29.333 -6.83301 -50.666 -20.5 -63.999s-37.834 -27.666 -72.501 -42.999c-9.33301 -4.66699 -15.833 -8.5 -19.5 -11.5s-5.83398 -7.5 -6.50098 -13.5h-88c0 28.667 5 49 15 61s28 23.667 54 35
c10.667 4.66699 18.834 8.66699 24.501 12s10 7 13 11s4.5 8.33301 4.5 13c-0.666992 16.667 -15.334 24.667 -44.001 24c-18.667 0 -41.667 -3.33301 -69 -10l-40 71c34.667 15.333 73.667 23 117 23zM200.002 -0.00195312h-140v500h140v-500z" />
    <glyph glyph-name="Idotbelow" unicode="&#x1eca;" horiz-adv-x="315" 
d="M232 0h-149v700h149v-700zM157.5 -54c19.667 0 36.5 -7 50.5 -21s21 -30.833 21 -50.5s-7 -36.5 -21 -50.5s-30.833 -21 -50.5 -21s-36.5 7 -50.5 21s-21 30.833 -21 50.5s7 36.5 21 50.5s30.833 21 50.5 21z" />
    <glyph glyph-name="idotbelow" unicode="&#x1ecb;" horiz-adv-x="255" 
d="M130 719c14.667 0 28.333 -3.5 41 -10.5s22.667 -16.5 30 -28.5s11 -25.333 11 -40c0 -22 -8 -40.833 -24 -56.5s-35.333 -23.5 -58 -23.5s-42 7.83301 -58 23.5s-24 34.5 -24 56.5s8 40.667 24 56s35.333 23 58 23zM199.999 0h-140v500h140v-500zM129.999 -54
c20 0 36.833 -7 50.5 -21s20.5 -30.833 20.5 -50.5s-6.83301 -36.5 -20.5 -50.5s-30.5 -21 -50.5 -21s-36.833 7 -50.5 21s-20.5 30.833 -20.5 50.5s6.83301 36.5 20.5 50.5s30.5 21 50.5 21z" />
    <glyph glyph-name="Odotbelow" unicode="&#x1ecc;" 
d="M428 714c53.333 0 102.666 -9.49805 147.999 -28.498s83.333 -45 114 -78s54.667 -71.667 72 -116s26 -91.5 26 -141.5c0 -67.333 -14.667 -128.5 -44 -183.5s-71.666 -98.833 -126.999 -131.5s-118.333 -49 -189 -49s-133.667 16.333 -189 49
s-97.666 76.5 -126.999 131.5s-44 116.167 -44 183.5s14.667 128.666 44 183.999s71.666 99.166 126.999 131.499s118.333 48.5 189 48.5zM428 583.002c-61.333 0 -111.166 -21.833 -149.499 -65.5s-57.5 -99.5 -57.5 -167.5s19.167 -123.833 57.5 -167.5
s88.166 -65.5 149.499 -65.5s111.166 21.833 149.499 65.5s57.5 99.5 57.5 167.5s-19.167 123.833 -57.5 167.5s-88.166 65.5 -149.499 65.5zM428 -53.998c19.333 0 36 -7 50 -21s21 -30.833 21 -50.5s-7 -36.5 -21 -50.5s-30.833 -21 -50.5 -21s-36.5 7 -50.5 21
s-21 31 -21 51c0 12.667 3.16699 24.5 9.5 35.5s15 19.667 26 26s23.167 9.5 36.5 9.5z" />
    </font>
</defs>
</svg>
