<?xml version="1.0" standalone="no"?>
<!DOCTYPE svg PUBLIC "-//W3C//DTD SVG 1.1//EN" "http://www.w3.org/Graphics/SVG/1.1/DTD/svg11.dtd" >
<svg xmlns="http://www.w3.org/2000/svg" xmlns:xlink="http://www.w3.org/1999/xlink" version="1.1">
<metadata>
Created by FontForge 20170910 at Thu Jul  9 17:30:54 2015
 By Jimmy Wärting
Copyright (c) 2015 by Jonathan Hill. All rights reserved.
</metadata>
<defs>
<font id="Halcom-Medium" horiz-adv-x="615" >
  <font-face 
    font-family="Halcom-Medium"
    font-weight="400"
    font-stretch="normal"
    units-per-em="1000"
    panose-1="0 0 6 0 0 0 0 0 0 0"
    ascent="768"
    descent="-232"
    x-height="500"
    cap-height="700"
    bbox="-77 -282.006 1352 1153"
    underline-thickness="50"
    underline-position="-50"
    unicode-range="U+0020-FB02"
  />
<missing-glyph horiz-adv-x="500" 
d="M0 0v700h500v-700h-500zM250 395l170 255h-340zM280 350l170 -255v510zM80 50h340l-170 255zM50 605v-510l170 255z" />
    <glyph glyph-name="fi" unicode="fi" horiz-adv-x="668" 
d="M603 500l-0.000976562 -499.999h-113v414h-246v-414h-112v414h-98v68l93 18h5v30c0 62.667 15.333 110 46 142s70.334 48 119.001 48c51.333 0 103.333 -15 156 -45l-26 -74c-40 16.667 -76.667 24.667 -110 24c-22.667 0 -40.5 -7.83301 -53.5 -23.5
s-19.5 -37.834 -19.5 -66.501v-35h296h63z" />
    <glyph glyph-name="fl" unicode="fl" horiz-adv-x="799" 
d="M132 500v22c0 65.333 15.833 114.666 47.5 147.999s73.167 50 124.5 50c48.667 0 98.667 -13.667 150 -41l-27 -78c-38.667 15.333 -74 23 -106 23c-16.667 0 -30.667 -3.66699 -42 -11s-20 -18.166 -26 -32.499s-9 -31.833 -9 -52.5v-28h142v-89h-142v-411h-112v411h-98
v71l93 18h5zM723 86l30.001 -80c-31.333 -13.333 -62.333 -20 -93 -20c-27.333 0 -52 5 -74 15s-40 27.167 -54 51.5s-21 54.5 -21 90.5v557h112v-549c0 -46.667 23 -69.667 69 -69c9.33301 0 19.666 1.33301 30.999 4z" />
    <glyph glyph-name=".notdef" horiz-adv-x="500" 
d="M0 0v700h500v-700h-500zM250 395l170 255h-340zM280 350l170 -255v510zM80 50h340l-170 255zM50 605v-510l170 255z" />
    <glyph glyph-name="space" unicode=" " horiz-adv-x="245" 
 />
    <glyph glyph-name="exclam" unicode="!" horiz-adv-x="266" 
d="M182 196h-98l-15 504h127zM133 135c12 0 23.333 -3.16602 34 -9.49902s19.167 -14.833 25.5 -25.5s9.5 -22.334 9.5 -35.001c0 -18.667 -6.83301 -34.834 -20.5 -48.501s-30 -20.5 -49 -20.5s-35.333 6.83301 -49 20.5s-20.5 29.834 -20.5 48.501
c0 19.333 6.83301 35.833 20.5 49.5s30.167 20.5 49.5 20.5z" />
    <glyph glyph-name="quotedbl" unicode="&#x22;" horiz-adv-x="415" 
d="M153 482h-89l-16 268h121zM350 482h-89l-16 268h122z" />
    <glyph glyph-name="numbersign" unicode="#" horiz-adv-x="680" 
d="M522 410l-22 -129h114l-17 -98h-115l-32 -183h-109l32 183h-126l-32 -183h-109l32 183h-110l17 98h110l23 129h-110l17 98h110l34 192h110l-34 -192h125l34 192h110l-34 -192h115l-18 -98h-115zM413 410h-126l-22 -129h125z" />
    <glyph glyph-name="dollar" unicode="$" horiz-adv-x="628" 
d="M593 201c0 -31.333 -6.16992 -59.9961 -18.5029 -85.9961s-29.166 -47.333 -50.499 -64s-44.833 -30.167 -70.5 -40.5s-52.834 -17.5 -81.501 -21.5v-106h-106v107c-44.667 6.66699 -86.667 20.167 -126 40.5s-70.666 45.166 -93.999 74.499l67 80
c23.333 -28.667 54.666 -51 93.999 -67s78 -23.667 116 -23c42 -0.666992 76.333 8.33301 103 27s40.334 43.667 41.001 75c0 12 -2.33301 22.5 -7 31.5s-9.83398 16.333 -15.501 22s-15.667 11.334 -30 17.001s-26.666 10.167 -36.999 13.5s-27.166 8 -50.499 14
c-7.33301 2 -13 3.66699 -17 5c-46.667 12.667 -84.167 24.5 -112.5 35.5s-53.166 24.333 -74.499 40s-36.5 33.667 -45.5 54s-13.5 44.833 -13.5 73.5c0 61.333 18.833 109 56.5 143s86.167 55.333 145.5 64v107h106v-106c82 -8.66699 150.667 -37.667 206 -87l-66 -83
c-52 42 -115 63 -189 63c-87.333 0 -131.666 -32.667 -132.999 -98c0 -16 3.83301 -28.833 11.5 -38.5s22.167 -18.834 43.5 -27.501s55 -19.334 101 -32.001c3.33301 -0.666992 7.66602 -1.66699 12.999 -3c20 -6 35.5 -10.5 46.5 -13.5s26 -7.83301 45 -14.5
s33.833 -13.167 44.5 -19.5s23 -14.833 37 -25.5s24.833 -21.834 32.5 -33.501s14.167 -25.834 19.5 -42.501s8.33301 -35 9 -55z" />
    <glyph glyph-name="percent" unicode="%" horiz-adv-x="956" 
d="M228 716c56.667 0 102.667 -19 138 -57s53 -85 53 -141s-17.667 -103 -53 -141s-81.333 -57 -138 -57c-56 0 -101.667 19 -137 57s-53 85 -53 141s17.667 103 53 141s81 57 137 57zM326 -14h-115l409 728h115zM228 628c-26 0 -47.501 -10 -64.501 -30
s-25.5 -46.667 -25.5 -80c0 -22 4 -41.333 12 -58s18.833 -29.5 32.5 -38.5s28.834 -13.5 45.501 -13.5c26.667 0 48.5 10 65.5 30s25.5 46.667 25.5 80s-8.5 60 -25.5 80s-38.833 30 -65.5 30zM727.999 381c56.667 0 102.667 -19 138 -57s53 -84.833 53 -140.5
s-17.667 -102.5 -53 -140.5s-81.333 -57 -138 -57c-56 0 -101.667 19 -137 57s-53 85 -53 141s17.667 103 53 141s81 56.667 137 56zM727.999 294c-26 0 -47.5 -10.167 -64.5 -30.5s-25.5 -46.833 -25.5 -79.5c0 -33.333 8.5 -60 25.5 -80s38.5 -30 64.5 -30
c26.667 0 48.334 10 65.001 30s25 46.5 25 79.5s-8.33301 59.667 -25 80s-38.334 30.5 -65.001 30.5z" />
    <glyph glyph-name="ampersand" unicode="&#x26;" horiz-adv-x="735" 
d="M678 20v-19.998h-142l-30 32c-49.333 -30.667 -109.333 -46 -180 -46c-78.667 0 -143 19.167 -193 57.5s-75 91.166 -75 158.499c0 84 39 144 117 180l4 1l-18 19c-27.333 30 -41 69.333 -41 118c0 58 19 104.833 57 140.5s87.667 53.5 149 53.5
c60 0 108.167 -17.333 144.5 -52s54.833 -79.667 55.5 -135c0 -24 -3.5 -44.833 -10.5 -62.5s-18.667 -33.334 -35 -47.001s-32.5 -25 -48.5 -34s-38 -19.833 -66 -32.5l115 -122l4 91h117v-116c0 -30.667 -6 -59 -18 -85zM324 607.002
c-27.333 -0.666992 -48.501 -8.33301 -63.501 -23s-22.5 -36 -22.5 -64c0 -22 6.66699 -40.333 20 -55l30 -31l23 9c40.667 17.333 67 31 79 41s18.333 23.333 19 40c0.666992 24.667 -6.16602 44.5 -20.499 59.5s-35.833 22.833 -64.5 23.5zM325.999 93.0029
c41.333 0 75 7.66699 101 23l-170 183l-31 -14c-30.667 -16 -46 -42.667 -46 -80c0 -35.333 12.667 -62.833 38 -82.5s61.333 -29.5 108 -29.5z" />
    <glyph glyph-name="quotesingle" unicode="'" horiz-adv-x="217" 
d="M153 482h-89l-16 268h121z" />
    <glyph glyph-name="parenleft" unicode="(" horiz-adv-x="392" 
d="M296 779l45 -61c-32.667 -36.667 -60.667 -78.5 -84 -125.5s-41 -98 -53 -153s-18 -112.167 -18 -171.5c0 -90 13.667 -174 41 -252s66 -144.333 116 -199l-44 -61c-70 52 -124.667 123.167 -164 213.5s-59 189.833 -59 298.5s19.333 208 58 298s92.667 161 162 213z" />
    <glyph glyph-name="parenright" unicode=")" horiz-adv-x="392" 
d="M51 718l45 61c69.333 -52 123.333 -123 162 -213s58 -189.333 58 -298s-19.667 -208.167 -59 -298.5s-94 -161.5 -164 -213.5l-44 61c50 54.667 88.667 121 116 199s41 162 41 252c0 89.333 -13.5 172.833 -40.5 250.5s-65.167 144.167 -114.5 199.5z" />
    <glyph glyph-name="asterisk" unicode="*" horiz-adv-x="446" 
d="M267 584l125 49l32 -99l-129 -34l85 -103l-85 -62l-72 113l-72 -113l-84 62l85 103l-130 34l33 99l124 -49l-8 134h105z" />
    <glyph glyph-name="plus" unicode="+" horiz-adv-x="552" 
d="M514 243h-190v-190h-97v190h-189v97h189v189h97v-189h190v-97z" />
    <glyph glyph-name="comma" unicode="," horiz-adv-x="246" 
d="M125 135c18 0 33.501 -6.16699 46.501 -18.5s21.167 -29.166 24.5 -50.499c6 -34 -1.83301 -71.167 -23.5 -111.5s-49.834 -73.5 -84.501 -99.5l-48 31c36 32 59.667 69.333 71 112c-16 2.66699 -29.333 10.167 -40 22.5s-16 27.166 -16 44.499
c0 20 6.66699 36.667 20 50s30 20 50 20z" />
    <glyph glyph-name="hyphen" unicode="-" horiz-adv-x="422" 
d="M377 245h-331v92h331v-92z" />
    <glyph glyph-name="period" unicode="." horiz-adv-x="223" 
d="M111.5 135c19 0 35.333 -6.83398 49 -20.501s20.5 -30 20.5 -49s-6.83301 -35.333 -20.5 -49s-30 -20.5 -49 -20.5s-35.333 6.83301 -49 20.5s-20.5 29.834 -20.5 48.501c0 19.333 6.83301 35.833 20.5 49.5s30 20.5 49 20.5z" />
    <glyph glyph-name="slash" unicode="/" horiz-adv-x="516" 
d="M135 -14h-119l355 728h119z" />
    <glyph glyph-name="zero" unicode="0" horiz-adv-x="743" 
d="M371 694c60.667 0 114.5 -15.832 161.5 -47.499s83 -74.334 108 -128.001s37.5 -113.167 37.5 -178.5s-12.5 -124.833 -37.5 -178.5s-61 -96.334 -108 -128.001s-100.833 -47.5 -161.5 -47.5c-60 0 -113.5 15.833 -160.5 47.5s-83.167 74.334 -108.5 128.001
s-38 113.167 -38 178.5s12.667 125 38 179s61.5 96.833 108.5 128.5s100.5 47.167 160.5 46.5zM371 583.001c-52.667 0 -95.834 -22.334 -129.501 -67.001s-50.5 -103.334 -50.5 -176.001c0 -72 16.833 -130.5 50.5 -175.5s76.834 -67.5 129.501 -67.5
c53.333 0 96.833 22.333 130.5 67s50.5 103.334 50.5 176.001s-16.833 131.334 -50.5 176.001s-77.167 67 -130.5 67z" />
    <glyph glyph-name="one" unicode="1" horiz-adv-x="509" 
d="M331 102h138v-102h-415v102h155v438l-124 -60l-49 92l226 108h69v-578z" />
    <glyph glyph-name="two" unicode="2" horiz-adv-x="607" 
d="M544 102l0.00488281 -101.997h-497v108c0 26 4.5 49.833 13.5 71.5s19.333 39.667 31 54s28.5 29 50.5 44s41 26.667 57 35s38 19.166 66 32.499c36 16.667 62.333 29.5 79 38.5s31.667 18.833 45 29.5s21.666 21 24.999 31s5 22.667 5 38c0 38 -11.833 64.333 -35.5 79
s-61.167 22 -112.5 22c-58.667 0 -113.334 -7.66699 -164.001 -23l-44 94c62.667 26.667 134 40 214 40c24.667 0 47.5 -1.33301 68.5 -4s41.833 -7.16699 62.5 -13.5s39 -14.833 55 -25.5s30.167 -23.334 42.5 -38.001s21.833 -32.667 28.5 -54s10 -45.333 10 -72
c0 -18.667 -2.16699 -36.334 -6.5 -53.001s-9.16602 -31 -14.499 -43s-13.833 -24 -25.5 -36s-21.834 -21.833 -30.501 -29.5s-21.834 -16.5 -39.501 -26.5s-32 -17.667 -43 -23l-49.5 -24c-2.66699 -1.33301 -4.83398 -2.33301 -6.50098 -3s-3.83398 -1.66699 -6.50098 -3
s-5 -2.33301 -7 -3c-52 -25.333 -88.5 -47.333 -109.5 -66s-31.833 -43.667 -32.5 -75h371z" />
    <glyph glyph-name="three" unicode="3" horiz-adv-x="628" 
d="M449 362c36 -16 64.167 -38.167 84.5 -66.5s30.5 -60.833 30.5 -97.5c0 -63.333 -26.333 -114.5 -79 -153.5s-120.334 -58.5 -203.001 -58.5c-88 0 -166.667 14.667 -236 44l47 97c58.667 -20 122.667 -30 192 -30c31.333 0 58.5 4.5 81.5 13.5s40.5 21.333 52.5 37
s18 33.5 18 53.5c0 20.667 -6 38.667 -18 54s-29.5 27.333 -52.5 36s-50.167 13 -81.5 13h-93v83v24h89c26.667 0 49.834 3.66699 69.501 11s34.334 17.333 44.001 30s14.5 27.667 14.5 45c0 25.333 -11.167 46 -33.5 62s-53.833 24 -94.5 24
c-58 0 -111.667 -8.33301 -161 -25l-46 98c61.333 25.333 130.666 38 207.999 38c49.333 0 93.333 -7.83301 132 -23.5s68.667 -38.167 90 -67.5s32 -63 32 -101c0 -62 -29 -108.667 -87 -140z" />
    <glyph glyph-name="four" unicode="4" horiz-adv-x="643" 
d="M507 258h93v-101h-93v-157h-121v157h-358v77l364 446h115v-422zM185 258h201v255z" />
    <glyph glyph-name="five" unicode="5" horiz-adv-x="632" 
d="M517 578h-305.002v-164c30 8 66 12 108 12c75.333 0 136.5 -19.167 183.5 -57.5s70.5 -88.5 70.5 -150.5c0 -70 -26.333 -126.167 -79 -168.5s-120.667 -63.5 -204 -63.5c-87.333 0 -165.666 15.667 -234.999 47l46 97c58.667 -22 122.334 -33 191.001 -33
c48 0 85.667 10.667 113 32s41 49.333 41 84c0 35.333 -11.667 63.333 -35 84s-56 31 -98 31c-54.667 0 -107 -10.667 -157 -32l-67 65v319h427v-102z" />
    <glyph glyph-name="six" unicode="6" horiz-adv-x="659" 
d="M374 694c66 0 125.336 -16.333 178.003 -49l-40 -85c-42 20.667 -87 31 -135 31c-52.667 0 -96.167 -19.333 -130.5 -58s-53.833 -89.667 -58.5 -153c53.333 30 113.333 45 180 45c69.333 0 126.166 -18.833 170.499 -56.5s66.5 -88.5 66.5 -152.5
c0 -45.333 -11.5 -85.666 -34.5 -120.999s-54.333 -62.333 -94 -81s-84.167 -28 -133.5 -28c-48 0 -90.333 9.16699 -127 27.5s-65.834 43.666 -87.501 75.999s-37.834 68.333 -48.501 108s-16 82.5 -16 128.5c0 109.333 28.333 198 85 266s131.667 102 225 102z
M363.003 326c-64.667 0 -122.999 -14.334 -174.999 -43.001c10 -130.667 62.667 -196 158 -196c20 0 38.333 3 55 9s31 14.333 43 25s21.5 24.334 28.5 41.001s10.5 35 10.5 55c0 36 -10.333 63.167 -31 81.5s-50.334 27.5 -89.001 27.5z" />
    <glyph glyph-name="seven" unicode="7" horiz-adv-x="535" 
d="M512 680v-80l-314 -600h-140l316 578h-350v102h488z" />
    <glyph glyph-name="eight" unicode="8" horiz-adv-x="692" 
d="M511 362c78.667 -30.667 117.669 -85.332 117.002 -163.999c0 -63.333 -26.333 -114.5 -79 -153.5s-120.334 -58.5 -203.001 -58.5s-150.334 19.5 -203.001 58.5s-79 90.167 -79 153.5c0 78.667 39 133 117 163c-58.667 28.667 -88 75.667 -88 141
c0 57.333 23.5 103.666 70.5 138.999s107.833 53 182.5 53c75.333 0 136.5 -17.667 183.5 -53s70.5 -81.666 70.5 -138.999c0 -64.667 -29.667 -111.334 -89 -140.001zM346.002 584.002c-20 0 -38 -2.16602 -54 -6.49902s-29.333 -10.333 -40 -18
s-18.834 -16.834 -24.501 -27.501s-8.5 -22.334 -8.5 -35.001s2.83301 -24.167 8.5 -34.5s13.834 -19.333 24.501 -27s24 -13.5 40 -17.5s34 -6 54 -6c40 0 71.167 7.66699 93.5 23s33.5 36 33.5 62c0 17.333 -4.83301 32.333 -14.5 45s-24.167 22.834 -43.5 30.501
s-42.333 11.5 -69 11.5zM346.002 97.0029c48 0 85.834 9.83203 113.501 29.499s41.5 45.5 41.5 77.5s-13.833 57.667 -41.5 77s-65.5 29 -113.5 29c-47.333 0 -85 -9.83301 -113 -29.5s-42 -45.167 -42 -76.5c0 -16 3.5 -30.5 10.5 -43.5s17.167 -24.167 30.5 -33.5
s29.666 -16.666 48.999 -21.999s41 -8 65 -8z" />
    <glyph glyph-name="nine" unicode="9" horiz-adv-x="659" 
d="M316 694c48 0 90.333 -9.16797 127 -27.501s65.834 -43.666 87.501 -75.999s37.834 -68.333 48.501 -108s16 -82.5 16 -128.5c0 -109.333 -28.333 -198 -85 -266s-131.334 -102 -224.001 -102c-66.667 0 -126 16.333 -178 49l39 85c42 -20.667 87.333 -31 136 -31
c52 0 95.167 19.333 129.5 58s53.833 89.667 58.5 153c-53.333 -30 -113.333 -45 -180 -45c-68.667 0 -125.167 18.833 -169.5 56.5s-66.833 88.5 -67.5 152.5c0.666992 68.667 25.667 124.167 75 166.5s111.666 63.5 186.999 63.5zM314 592.999
c-40.667 0 -73.6689 -11.501 -99.002 -34.501s-38 -55.167 -38 -96.5c0 -35.333 10.333 -62.166 31 -80.499s50.334 -27.5 89.001 -27.5c64 0 122 14.333 174 43c-9.33301 130.667 -61.666 196 -156.999 196z" />
    <glyph glyph-name="colon" unicode=":" horiz-adv-x="222" 
d="M111 504c19.333 0 35.833 -6.66699 49.5 -20s20.5 -29.666 20.5 -48.999s-6.83301 -35.833 -20.5 -49.5s-30.167 -20.5 -49.5 -20.5s-35.666 6.83301 -48.999 20.5s-20 30.167 -20 49.5s6.66699 35.666 20 48.999s29.666 20 48.999 20zM111 135
c19.333 0 35.833 -6.83398 49.5 -20.501s20.5 -30 20.5 -49s-6.83301 -35.333 -20.5 -49s-30.167 -20.5 -49.5 -20.5s-35.666 6.83301 -48.999 20.5s-20 29.834 -20 48.501c0 19.333 6.66699 35.833 20 49.5s29.666 20.5 48.999 20.5z" />
    <glyph glyph-name="semicolon" unicode=";" horiz-adv-x="239" 
d="M120 504c19.333 0 35.835 -6.66699 49.502 -20s20.5 -29.666 20.5 -48.999s-6.83301 -35.833 -20.5 -49.5s-29.834 -20.5 -48.501 -20.5c-19.333 0 -35.833 6.83301 -49.5 20.5s-20.5 30.167 -20.5 49.5s6.66699 35.666 20 48.999s29.666 20 48.999 20zM121.002 135
c18.667 0 34.5029 -6.16699 47.5029 -18.5s21.167 -29.166 24.5 -50.499c5.33301 -34 -2.83398 -71.167 -24.501 -111.5s-49.834 -73.5 -84.501 -99.5l-47 31c35.333 32 58.666 69.333 69.999 112c-15.333 2.66699 -28.5 10.167 -39.5 22.5s-16.5 27.166 -16.5 44.499
c0 20 6.83301 36.667 20.5 50s30.167 20 49.5 20z" />
    <glyph glyph-name="less" unicode="&#x3c;" horiz-adv-x="537" 
d="M507 428l-332 -138l332 -138v-126l-469 203v122l469 203v-126z" />
    <glyph glyph-name="equal" unicode="=" horiz-adv-x="552" 
d="M514 330h-476v97h476v-97zM514 153h-476v97h476v-97z" />
    <glyph glyph-name="greater" unicode="&#x3e;" horiz-adv-x="537" 
d="M500 351v-122l-470 -203v126l333 138l-333 138v126z" />
    <glyph glyph-name="question" unicode="?" horiz-adv-x="564" 
d="M266 714c21.333 0 41.667 -1.33301 61 -4s38.333 -7.16699 57 -13.5s35.334 -14.833 50.001 -25.5s27.667 -23.334 39 -38.001s20 -32.667 26 -54s9 -45 9 -71c0 -22.667 -2.83301 -43 -8.5 -61s-12.834 -33.5 -21.501 -46.5s-21 -25.5 -37 -37.5
s-31.833 -22.167 -47.5 -30.5s-35.834 -18.166 -60.501 -29.499c-19.333 -9.33301 -33.166 -18 -41.499 -26s-12.833 -19 -13.5 -33l-1 -48h-101l-2 62c-2 33.333 4.5 59.166 19.5 77.499s42.5 36.5 82.5 54.5c44.667 21.333 74 38.833 88 52.5s21 34.834 21 63.501
c0 40 -10.167 67.5 -30.5 82.5s-51.833 22.5 -94.5 22.5c-57.333 0.666992 -112.333 -8 -165 -26l-49 84c64.667 30 138 45 220 45zM227.501 135c19 0 35.333 -6.83398 49 -20.501s20.5 -30 20.5 -49s-6.83301 -35.333 -20.5 -49s-30 -20.5 -49 -20.5
s-35.333 6.83301 -49 20.5s-20.5 29.834 -20.5 48.501c0 19.333 6.83301 35.833 20.5 49.5s30 20.5 49 20.5z" />
    <glyph glyph-name="at" unicode="@" horiz-adv-x="1045" 
d="M522 714c68 0 130.67 -12.167 188.003 -36.5s105.333 -57.333 144 -99s69 -90.834 91 -147.501s33 -117 33 -181c0 -40 -6.83301 -77 -20.5 -111s-33.5 -62.5 -59.5 -85.5s-56.333 -37.833 -91 -44.5c-64.667 -13.333 -135.334 1.33398 -212.001 44.001v35
c-36.667 -30.667 -76.667 -46 -120 -46c-52.667 0 -95.834 20.333 -129.501 61s-50.5 90.5 -50.5 149.5s16.833 108.833 50.5 149.5s76.834 61 129.501 61c43.333 0 83.333 -15.333 120 -46v43h105l-1 -350c32 -12 60.333 -15 85 -9c18 4 33.667 12.667 47 26
s23.166 30.5 29.499 51.5s9.5 44.833 9.5 71.5c0 106 -32 193.5 -96 262.5s-148 103.5 -252 103.5c-103.333 0 -187.166 -34.5 -251.499 -103.5s-96.5 -156.5 -96.5 -262.5c0 -52 8.5 -100.5 25.5 -145.5s40.5 -83.667 70.5 -116s66.667 -57.833 110 -76.5
s90.666 -28 141.999 -28c45.333 0 88.666 7.33301 129.999 22l37 -92c-52 -18.667 -107.667 -28 -167 -28c-66.667 0 -128.667 12.167 -186 36.5s-105.5 57.333 -144.5 99s-69.5 90.834 -91.5 147.501s-33 117 -33 181c0 86 18.667 164.167 56 234.5
s90.833 126.166 160.5 167.499s149.167 62 238.5 62zM595.003 178v148c-34.667 34 -71.334 51 -110.001 51c-25.333 0 -45.5 -11.333 -60.5 -34s-22.5 -53 -22.5 -91s7.5 -68.167 22.5 -90.5s35.167 -33.5 60.5 -33.5c38.667 0 75.334 16.667 110.001 50z" />
    <glyph glyph-name="A" unicode="A" horiz-adv-x="738" 
d="M710 0h-131l-55 150h-311l-55 -150h-130l273 700h136zM250 251h238l-119 324z" />
    <glyph glyph-name="B" unicode="B" horiz-adv-x="690" 
d="M520 375c37.333 -12.667 67.168 -33.999 89.501 -63.999s33.5 -65.667 33.5 -107c0 -60.667 -20.833 -109.834 -62.5 -147.501s-92.834 -56.5 -153.501 -56.5h-213h-122v700h302c56 0 103.167 -17.333 141.5 -52s57.5 -80 57.5 -136c0 -60 -24.333 -105.667 -73 -137z
M214.002 600.001v-187.001h164c26 0 47.333 8.33301 64 25s25 39.334 25 68.001c0 29.333 -8.33301 52.333 -25 69s-38 25 -64 25h-164zM518.002 208c0 32.667 -9.83301 58.668 -29.5 78.001s-44.834 29 -75.501 29h-199v-215h199c30.667 0 55.834 9.66699 75.501 29
s29.5 45.666 29.5 78.999z" />
    <glyph glyph-name="C" unicode="C" horiz-adv-x="762" 
d="M423 714c45.333 0 91.667 -8.50098 139 -25.501s92 -41.5 134 -73.5l-32 -89c-78 51.333 -157 77 -237 77c-67.333 0 -121.833 -23.167 -163.5 -69.5s-62.5 -107.5 -62.5 -183.5c0 -75.333 21 -136.333 63 -183s96.333 -70 163 -70c80 0 159.333 25.667 238 77l32 -88
c-27.333 -21.333 -56.833 -39.666 -88.5 -54.999s-63.167 -26.666 -94.5 -33.999s-61.666 -11 -90.999 -11c-51.333 0 -98.833 9.5 -142.5 28.5s-80.5 45 -110.5 78s-53.333 71.667 -70 116s-25 91.5 -25 141.5c0 67.333 14.167 128.666 42.5 183.999
s69.166 99.333 122.499 132s114.333 48.667 183 48z" />
    <glyph glyph-name="D" unicode="D" horiz-adv-x="772" 
d="M125 700h227c103.333 0 186.833 -32.833 250.5 -98.5s95.5 -149.5 95.5 -251.5s-31.833 -185.833 -95.5 -251.5s-147.167 -98.5 -250.5 -98.5h-260v700h33zM214 102h133c68.667 0 123.334 22.5 164.001 67.5s61 105.167 61 180.5s-20.333 135.5 -61 180.5
s-95.334 67.5 -164.001 67.5h-133v-496z" />
    <glyph glyph-name="E" unicode="E" horiz-adv-x="628" 
d="M580 102v-102h-488v700h478v-102h-356v-181h317v-101h-317v-214h366z" />
    <glyph glyph-name="F" unicode="F" horiz-adv-x="599" 
d="M214 598v-201h298v-101h-298v-296h-122v700h459v-102h-337z" />
    <glyph glyph-name="G" unicode="G" horiz-adv-x="820" 
d="M732 379v-379.001h-92l-11 60c-68 -49.333 -139.667 -74 -215 -74c-66 0 -125 16.333 -177 49s-92 76.5 -120 131.5s-42.333 115.833 -43 182.5c0.666992 68 15.334 129.667 44.001 185s69.834 99.333 123.501 132s114.5 48.667 182.5 48
c47.333 0 95.5 -8.83301 144.5 -26.5s95.167 -42.834 138.5 -75.501l-32 -89c-80.667 53.333 -163.334 80 -248.001 80c-66.667 0 -121 -23.167 -163 -69.5s-63 -107.833 -63 -184.5c0 -75.333 20.667 -136.166 62 -182.499s94.666 -69.5 159.999 -69.5
c62 0.666992 125.333 18.334 190 53.001v128h-132v101h251z" />
    <glyph glyph-name="H" unicode="H" horiz-adv-x="794" 
d="M702 700v-700h-122v315h-366v-315h-122v700h122v-284h366v284h122z" />
    <glyph glyph-name="I" unicode="I" horiz-adv-x="307" 
d="M214 0h-122v700h122v-700z" />
    <glyph glyph-name="J" unicode="J" horiz-adv-x="472" 
d="M380 700v-457c0 -72.667 -23.167 -133.667 -69.5 -183s-106.5 -74 -180.5 -74c-36.667 0 -70.667 6.33301 -102 19l33 92c20 -5.33301 41 -8 63 -8c40 0 72.333 14.167 97 42.5s37 65.5 37 111.5v457h122z" />
    <glyph glyph-name="K" unicode="K" horiz-adv-x="721" 
d="M321 342l-107 -109v-233h-122v700h122v-318l292 318h162l-268 -276l293 -424h-149z" />
    <glyph glyph-name="L" unicode="L" horiz-adv-x="563" 
d="M535 102v-102h-443v700h122v-598h321z" />
    <glyph glyph-name="M" unicode="M" horiz-adv-x="900" 
d="M808 700v-700h-121v478l-183 -267h-113l-183 267v-478h-121v700h109l251 -378l252 378h109z" />
    <glyph glyph-name="N" unicode="N" horiz-adv-x="771" 
d="M684 700v-700h-108l-368 492v-492h-121v700h109l368 -494v494h120z" />
    <glyph glyph-name="O" unicode="O" horiz-adv-x="851" 
d="M425 714c69.333 0 131 -16.3311 185 -48.998s95.167 -76.5 123.5 -131.5s42.5 -116.167 42.5 -183.5s-14.167 -128.5 -42.5 -183.5s-69.5 -98.833 -123.5 -131.5s-115.667 -49 -185 -49c-68.667 0 -129.834 16.333 -183.501 49s-95 76.5 -124 131.5
s-43.5 116.167 -43.5 183.5s14.5 128.666 43.5 183.999s70.333 99.166 124 131.499s114.834 48.5 183.501 48.5zM425 603.002c-66.667 0 -120.667 -23.667 -162 -71s-62 -108 -62 -182c0 -73.333 20.833 -133.833 62.5 -181.5s95.5 -71.5 161.5 -71.5
c66.667 0 120.834 23.667 162.501 71s62.5 108 62.5 182s-20.833 134.667 -62.5 182s-95.834 71 -162.501 71z" />
    <glyph glyph-name="P" unicode="P" horiz-adv-x="687" 
d="M169 700h256c57.333 0 105.833 -21.167 145.5 -63.5s59.5 -96.833 59.5 -163.5c0 -67.333 -19.833 -122 -59.5 -164s-88.167 -63 -145.5 -63h-211v-246h-122v700h77zM508 473c0 26.667 -4.33203 49.667 -12.999 69s-19.834 33.5 -33.501 42.5s-28.5 13.5 -44.5 13.5h-203
v-250h203c25.333 0 46.833 11 64.5 33s26.5 52.667 26.5 92z" />
    <glyph glyph-name="Q" unicode="Q" horiz-adv-x="851" 
d="M776 350c0 -62.667 -12.8311 -120.499 -38.498 -173.499s-61.834 -95.833 -108.501 -128.5l86 -136l-120 -25l-66 113c-32.667 -9.33301 -67.334 -14 -104.001 -14c-68.667 0 -129.834 16.333 -183.501 49s-95 76.5 -124 131.5s-43.5 116.167 -43.5 183.5
s14.5 128.666 43.5 183.999s70.333 99.333 124 132s114.834 48.667 183.501 48c69.333 0 131 -16.333 185 -49s95.167 -76.5 123.5 -131.5s42.5 -116.167 42.5 -183.5zM425.002 97.001c16 0 31.3369 1.66699 46.0039 5l-81 139l103 22l73 -116
c13.333 11.333 25.166 24.333 35.499 39s19.166 30.5 26.499 47.5s12.833 35.333 16.5 55s5.5 40.167 5.5 61.5c0 74 -20.833 134.667 -62.5 182s-95.834 71 -162.501 71s-120.667 -23.667 -162 -71s-62 -108 -62 -182c0 -48.667 9.33301 -92.167 28 -130.5
s45.167 -68.333 79.5 -90s73.166 -32.5 116.499 -32.5z" />
    <glyph glyph-name="R" unicode="R" horiz-adv-x="684" 
d="M371 272h-157.001v-272h-122v700h122h202c57.333 0 105.833 -19.833 145.5 -59.5s59.5 -91.167 59.5 -154.5c0 -48.667 -12.167 -90.667 -36.5 -126s-56.166 -60.333 -95.499 -75l167 -285h-141zM213.999 374l196 0.000976562c16.667 0 31.5 4.16699 44.5 12.5
s23.667 21.166 32 38.499s12.5 38 12.5 62c0 34 -8.5 61 -25.5 81s-38.167 30 -63.5 30h-196v-224z" />
    <glyph glyph-name="S" unicode="S" horiz-adv-x="639" 
d="M325 714c33.333 0 65.8301 -3.8291 97.4971 -11.4961s60.5 -18.167 86.5 -31.5s49 -29 69 -47l-66 -83c-52 42 -115 63 -189 63c-87.333 0 -131.666 -32.667 -132.999 -98c0 -16 3.83301 -28.833 11.5 -38.5s22.167 -18.834 43.5 -27.501s55 -19.334 101 -32.001
c3.33301 -0.666992 7.66602 -1.66699 12.999 -3c20 -6 35.5 -10.5 46.5 -13.5s26 -7.83301 45 -14.5s33.833 -13.167 44.5 -19.5s23 -14.833 37 -25.5s24.833 -21.834 32.5 -33.501s14.167 -25.834 19.5 -42.501s8.33301 -35 9 -55c0 -36 -8 -68.167 -24 -96.5
s-37.333 -50.833 -64 -67.5s-55.5 -29.334 -86.5 -38.001s-62.833 -13 -95.5 -13c-53.333 0 -105.666 10.833 -156.999 32.5s-91.333 50.5 -120 86.5l67 80c23.333 -28.667 54.666 -51 93.999 -67s78 -23.667 116 -23c42 -0.666992 76.333 8.33301 103 27
s40.334 43.667 41.001 75c0 12 -2.33301 22.5 -7 31.5s-9.83398 16.333 -15.501 22s-15.667 11.334 -30 17.001s-26.666 10.167 -36.999 13.5s-27.166 8 -50.499 14c-7.33301 2 -13 3.66699 -17 5c-46.667 12.667 -84.167 24.5 -112.5 35.5s-53.166 24.333 -74.499 40
s-36.5 33.667 -45.5 54s-13.5 44.833 -13.5 73.5c0 37.333 7.33301 70 22 98s34.5 50 59.5 66s52.5 27.833 82.5 35.5s62.333 11.5 97 11.5z" />
    <glyph glyph-name="T" unicode="T" 
d="M587 598h-218v-598h-123v598h-218v102h559v-102z" />
    <glyph glyph-name="U" unicode="U" horiz-adv-x="766" 
d="M678 700l0.000976562 -456c0 -74.667 -27.5 -136.334 -82.5 -185.001s-125.167 -73 -210.5 -73c-84.667 0 -154.667 24.333 -210 73s-83 110.334 -83 185.001v456h122v-456c0 -46 15.667 -82.833 47 -110.5s72.666 -41.5 123.999 -41.5c52 0 93.5 13.833 124.5 41.5
s46.5 64.5 46.5 110.5v456h122z" />
    <glyph glyph-name="V" unicode="V" horiz-adv-x="703" 
d="M423 0h-142l-253 700h131l193 -560l192 560h132z" />
    <glyph glyph-name="W" unicode="W" horiz-adv-x="1029" 
d="M820 0h-152l-154 551l-153 -551h-152l-181 700h131l131 -544l146 544h157l146 -544l131 544h131z" />
    <glyph glyph-name="X" unicode="X" horiz-adv-x="721" 
d="M440 353l253 -353h-146l-191 268l-184 -268h-144l253 361l-241 339h147l179 -253l171 253h144z" />
    <glyph glyph-name="Y" unicode="Y" horiz-adv-x="709" 
d="M413 248v-248h-122v247l-263 453h140l186 -329l187 329h140z" />
    <glyph glyph-name="Z" unicode="Z" horiz-adv-x="627" 
d="M580 102v-102h-533v81l368 517h-344v102h499v-81l-368 -517h378z" />
    <glyph glyph-name="bracketleft" unicode="[" horiz-adv-x="360" 
d="M194 702v-816h138v-86h-243v988h243v-86h-138z" />
    <glyph glyph-name="backslash" unicode="\" horiz-adv-x="516" 
d="M500 -14h-120l-354 728h119z" />
    <glyph glyph-name="bracketright" unicode="]" horiz-adv-x="360" 
d="M271 788v-988h-243v86h138v816h-138v86h243z" />
    <glyph glyph-name="asciicircum" unicode="^" horiz-adv-x="466" 
d="M320 401l-87 214l-87 -214h-108l137 313h116l137 -313h-108z" />
    <glyph glyph-name="underscore" unicode="_" horiz-adv-x="601" 
d="M556 -173h-510v86h510v-86z" />
    <glyph glyph-name="grave" unicode="`" horiz-adv-x="326" 
d="M289 564h-113l-140 173h126z" />
    <glyph glyph-name="a" unicode="a" 
d="M546 500l-0.00195312 -500.001h-113v58c-48.667 -48 -103.667 -72 -165 -72c-41.333 0 -78.666 11.833 -111.999 35.5s-59 55.5 -77 95.5s-27 84.333 -27 133c0 74.667 20.333 137.334 61 188.001s92.334 76 155.001 76c61.333 0 116.333 -24 165 -72v58h113z
M284.998 85.999c24 0 49.333 5.83301 76 17.5s50.667 28.5 72 50.5v192c-21.333 22 -45.333 38.833 -72 50.5s-52 17.5 -76 17.5c-36.667 0 -65.5 -14.833 -86.5 -44.5s-31.5 -69.5 -31.5 -119.5s10.5 -89.833 31.5 -119.5s49.833 -44.5 86.5 -44.5z" />
    <glyph glyph-name="b" unicode="b" horiz-adv-x="624" 
d="M351 514c63.333 0 115.331 -25.3311 155.998 -75.998s61 -113.334 61 -188.001s-20.167 -137.334 -60.5 -188.001s-92.166 -76 -155.499 -76c-61.333 0 -116.666 24.333 -165.999 73v-59h-113v700h113v-259c49.333 48.667 104.333 73 165 73zM334.998 86.002
c36.667 0 65.5 15.002 86.5 45.002s31.5 69.667 31.5 119s-10.5 89 -31.5 119s-49.833 45 -86.5 45c-24 0 -49.333 -5.83301 -76 -17.5s-51 -28.834 -73 -51.501v-190c22 -22.667 46.333 -39.834 73 -51.501s52 -17.5 76 -17.5z" />
    <glyph glyph-name="c" unicode="c" horiz-adv-x="556" 
d="M309 514c68.667 0 132.333 -22.334 191 -67.001l-28 -75c-53.333 28.667 -106 43 -158 43c-29.333 0 -54.833 -6.83301 -76.5 -20.5s-38.167 -33 -49.5 -58s-17 -53.833 -17 -86.5c0 -49.333 13 -89.166 39 -119.499s61.667 -45.5 107 -45.5
c50.667 0 102.667 14.333 156 43l28 -75c-58.667 -44.667 -122.667 -67 -192 -67c-74.667 0 -135.5 25.333 -182.5 76s-70.5 113.334 -70.5 188.001c0 76 23.5 139.167 70.5 189.5s107.833 75.166 182.5 74.499z" />
    <glyph glyph-name="d" unicode="d" horiz-adv-x="624" 
d="M551 700l-0.00195312 -700h-113v59c-49.333 -48.667 -104.666 -73 -165.999 -73c-42 0 -79.5 11.833 -112.5 35.5s-58.5 55.5 -76.5 95.5s-27 84.333 -27 133c0 74.667 20.333 137.5 61 188.5s93.334 76.167 158.001 75.5c27.333 0 55.333 -6.16699 84 -18.5
s55 -30.5 79 -54.5v259h113zM289.998 86c23.333 0 48.502 6 75.502 18s51.167 29 72.5 51v190c-22 22 -46.333 39 -73 51s-52.334 18 -77.001 18c-36.667 0 -65.334 -15 -86.001 -45s-31 -69.667 -31 -119s10.5 -89 31.5 -119s50.167 -45 87.5 -45z" />
    <glyph glyph-name="e" unicode="e" horiz-adv-x="586" 
d="M303 514c75.333 0 133.666 -24.833 174.999 -74.5s62 -114.5 62 -194.5c0 -7.33301 -0.333008 -15 -1 -23h-366c0 -2.66699 0.333008 -5.33398 1 -8.00098c6 -40 21.167 -71.667 45.5 -95s54.833 -35 91.5 -35c50 0 103 14.667 159 44l27 -74
c-59.333 -45.333 -123.666 -68 -192.999 -68c-73.333 0 -133 25.333 -179 76s-69 113.334 -69 188.001c0 75.333 22.833 138.333 68.5 189s105.167 75.667 178.5 75zM306 416c-34.667 0 -63.168 -10.332 -85.501 -30.999s-37.166 -48.334 -44.499 -83.001h250
c-11.333 76 -51.333 114 -120 114z" />
    <glyph glyph-name="f" unicode="f" horiz-adv-x="436" 
d="M321 624c-24.667 0 -43.667 -8.33105 -57 -24.998s-20 -40.334 -20 -71.001v-28h142v-89h-142v-411h-112v411h-98v71l93 18h5v22c0 65.333 15.833 114.666 47.5 147.999s73.167 50 124.5 50c48.667 0 98.667 -13.667 150 -41l-27 -78c-38.667 15.333 -74 23 -106 23z" />
    <glyph glyph-name="g" unicode="g" horiz-adv-x="620" 
d="M551 500l0.000976562 -480.999c0 -76.667 -20.833 -134.334 -62.5 -173.001s-95.5 -58 -161.5 -58c-82.667 -0.666992 -159.334 26.333 -230.001 81l8 89c33.333 -24 69 -42.5 107 -55.5s72.667 -19.5 104 -19.5c81.333 0 122 45.667 122 137v55
c-49.333 -46.667 -104.333 -70 -165 -70c-63.333 0 -115.333 24.333 -156 73s-61 109 -61 181s20.333 132.5 61 181.5s92.667 73.5 156 73.5c60.667 0 115.667 -23.667 165 -71v57h113zM290.001 100.001c24 0 49.5 5.83203 76.5 17.499s50.833 27.834 71.5 48.501v182
c-14 13.333 -29.5 25 -46.5 35s-34.167 17.667 -51.5 23s-34 8 -50 8c-25.333 0 -46.833 -6.5 -64.5 -19.5s-31.167 -31.167 -40.5 -54.5s-14 -51 -14 -83c0 -48 10.5 -86.167 31.5 -114.5s50.167 -42.5 87.5 -42.5z" />
    <glyph glyph-name="h" unicode="h" horiz-adv-x="601" 
d="M364 514c49.333 0 90.168 -16 122.501 -48s48.5 -78.667 48.5 -140v-326h-112v318c0 32 -8.66699 56 -26 72s-40 24 -68 24c-48.667 0 -96.334 -20 -143.001 -60v-354h-113v700h113v-261c17.333 16 36 29.667 56 41s40.333 19.833 61 25.5s41 8.5 61 8.5z" />
    <glyph glyph-name="i" unicode="i" horiz-adv-x="255" 
d="M130 704c18.667 0 34.5 -6.33301 47.5 -19s19.5 -28.334 19.5 -47.001c0 -12 -3 -23 -9 -33s-14.167 -18 -24.5 -24s-21.5 -9 -33.5 -9s-23.167 3 -33.5 9s-18.5 14 -24.5 24s-9 21 -9 33c0 18.667 6.5 34.334 19.5 47.001s28.833 19 47.5 19zM186 0h-112v500h112v-500z
" />
    <glyph glyph-name="j" unicode="j" horiz-adv-x="271" 
d="M140.5 704c18.333 0 34.168 -6.33203 47.501 -18.999s20 -28.334 20 -47.001c0 -12 -3 -23 -9 -33s-14.167 -18 -24.5 -24s-21.833 -9 -34.5 -9c-18 0 -33.667 6.5 -47 19.5s-20 28.667 -20 47s6.66699 33.833 20 46.5s29.166 19 47.499 19zM197.002 500.001v-553.998
c0 -54.667 -13.333 -95.334 -40 -122.001s-61 -40 -103 -40c-27.333 0 -56.333 4.66699 -87 14l7 87c16.667 -3.33301 32 -5 46 -5c20.667 0 36.5 6.16699 47.5 18.5s16.5 30.166 16.5 53.499v548h113z" />
    <glyph glyph-name="k" unicode="k" horiz-adv-x="587" 
d="M278 245l-91 -86v-159h-113v700h113v-408l209 208h151l-196 -185l219 -315h-133z" />
    <glyph glyph-name="l" unicode="l" horiz-adv-x="363" 
d="M187 700v-549c0 -46.667 23 -69.667 69 -69c9.33301 0 19.666 1.33301 30.999 4l30 -80c-31.333 -13.333 -62.333 -20 -93 -20c-43.333 0 -79.166 12.833 -107.499 38.5s-42.5 65.167 -42.5 118.5v557h113z" />
    <glyph glyph-name="m" unicode="m" horiz-adv-x="916" 
d="M686 514c48 0 87.6631 -15.832 118.996 -47.499s47 -78.5 47 -140.5v-326h-113v318c0 32 -8.16699 56 -24.5 72s-38.166 24 -65.499 24c-44 0 -88.667 -17 -134 -51c1.33301 -12 2 -24.333 2 -37v-326h-113v318c0 32 -8 56 -24 72s-37.333 24 -64 24
c-45.333 0 -90 -19.333 -134 -58v-356h-112v500h112v-61c51.333 50 108 75 170 75c20.667 0 39.834 -2.83301 57.501 -8.5s33.834 -14.834 48.501 -27.501s26.667 -28 36 -46c28 26 58.833 46.167 92.5 60.5s66.834 21.5 99.501 21.5z" />
    <glyph glyph-name="n" unicode="n" horiz-adv-x="596" 
d="M360 514c48.667 0 89.334 -16 122.001 -48s49 -78.667 49 -140v-326h-112v318c0 32 -8.5 56 -25.5 72s-38.833 24 -65.5 24c-22.667 0 -47 -5.16699 -73 -15.5s-50.333 -25.166 -73 -44.499v-354h-113v500h113v-61c17.333 16.667 36.333 30.667 57 42
s41.167 19.666 61.5 24.999s40.166 8 59.499 8z" />
    <glyph glyph-name="o" unicode="o" horiz-adv-x="625" 
d="M313 514c76 0 137.667 -25.332 185 -75.999s71 -113.334 71 -188.001s-23.667 -137.334 -71 -188.001s-109 -76 -185 -76s-137.833 25.333 -185.5 76s-71.5 113.334 -71.5 188.001c0 75.333 23.833 138.333 71.5 189s109.5 75.667 185.5 75zM313 413.001
c-44 0 -78.833 -15 -104.5 -45s-38.167 -69.333 -37.5 -118c0 -48.667 12.833 -88 38.5 -118s60.167 -45 103.5 -45s77.666 15 102.999 45s38 69.333 38 118s-12.667 88 -38 118s-59.666 45 -102.999 45z" />
    <glyph glyph-name="p" unicode="p" horiz-adv-x="611" 
d="M340 514c42 0 79.665 -11.834 112.998 -35.501s59 -55.5 77 -95.5s27.333 -84.333 28 -133c-0.666992 -79.333 -22.167 -143.166 -64.5 -191.499s-94.166 -72.5 -155.499 -72.5c-59.333 0 -113.666 23 -162.999 69v-255h-113v700h113v-59
c49.333 48.667 104.333 73 165 73zM322.998 83.999c35.333 0.666992 64.167 15.1689 86.5 43.502s33.166 69.166 32.499 122.499c0.666992 49.333 -9.66602 89 -30.999 119s-50.333 45 -87 45c-24 0 -49.333 -5.83301 -76 -17.5s-51 -28.834 -73 -51.501v-186
c50.667 -50.667 100 -75.667 148 -75z" />
    <glyph glyph-name="q" unicode="q" horiz-adv-x="611" 
d="M535 500l0.00195312 -700h-112v255c-49.333 -46 -104 -69 -164 -69c-60.667 0 -112.167 24.167 -154.5 72.5s-63.833 112.166 -64.5 191.499c0.666992 74.667 21.167 137.334 61.5 188.001s92.166 76 155.499 76c61.333 0 116.666 -24.333 165.999 -73v59h112z
M275.002 84c48.667 -0.666992 98.001 24.3311 148.001 74.998v186c-14.667 15.333 -31 28.333 -49 39s-35.333 18.334 -52 23.001s-32.334 7 -47.001 7c-37.333 0 -66.5 -15 -87.5 -45s-31.5 -69.667 -31.5 -119c0 -53.333 10.833 -94.166 32.5 -122.499
s50.5 -42.833 86.5 -43.5z" />
    <glyph glyph-name="r" unicode="r" horiz-adv-x="408" 
d="M377 515c4.66699 0 8.99902 -0.333008 12.999 -1l-19 -109c-5.33301 0.666992 -10.666 1 -15.999 1c-62 0 -119.667 -23 -173 -69v-337h-113v500h113v-69c18.667 18 39.167 33.333 61.5 46s44.833 22.167 67.5 28.5s44.667 9.5 66 9.5z" />
    <glyph glyph-name="s" unicode="s" horiz-adv-x="493" 
d="M247 514c36.667 0 72.167 -5.33789 106.5 -16.0049s62.833 -27 85.5 -49l-47 -74c-15.333 15.333 -35.666 27.166 -60.999 35.499s-51.833 12.5 -79.5 12.5s-49.667 -4.83301 -66 -14.5s-24.833 -24.167 -25.5 -43.5c-0.666992 -14.667 5.83301 -26 19.5 -34
s41.834 -17.667 84.501 -29c2 0 4.66699 -0.666992 8 -2c14 -3.33301 24.667 -6 32 -8s17.666 -5.16699 30.999 -9.5s23.833 -8.33301 31.5 -12s16.834 -8.5 27.501 -14.5s19.167 -12.667 25.5 -20s12.666 -15.5 18.999 -24.5s10.833 -19.167 13.5 -30.5
s4 -23.666 4 -36.999c0 -27.333 -6.33301 -51.666 -19 -72.999s-29.834 -38 -51.501 -50s-44.667 -20.833 -69 -26.5s-49.833 -8.5 -76.5 -8.5c-41.333 0 -80.666 6.83301 -117.999 20.5s-66 33.167 -86 58.5l47 74c14.667 -20 36 -35.5 64 -46.5s57.667 -16.5 89 -16.5
c32 0 58 6 78 18s30 28 30 48c0.666992 7.33301 -0.666016 13.833 -3.99902 19.5s-7 10.334 -11 14.001s-10.833 7.33398 -20.5 11.001s-17.834 6.5 -24.501 8.5s-17.334 5 -32.001 9c-8 2 -14.333 3.66699 -19 5c-68 17.333 -115.667 36.333 -143 57s-41 51.667 -41 93
c0 27.333 5.5 51.333 16.5 72s26.167 36.834 45.5 48.501s40.333 20.334 63 26.001s47 8.5 73 8.5z" />
    <glyph glyph-name="t" unicode="t" horiz-adv-x="456" 
d="M381 96l25 -76c-40 -22.667 -82 -34 -126 -34s-80.333 12.667 -109 38s-43 64 -43 116v271h-98v71l93 18h5v139h112v-139h142v-89h-142v-263c0 -44 23 -66 69 -66c21.333 0 45.333 4.66699 72 14z" />
    <glyph glyph-name="u" unicode="u" horiz-adv-x="587" 
d="M522 500l-0.00195312 -500.003h-112v61c-25.333 -24 -53.5 -42.5 -84.5 -55.5s-61.167 -19.5 -90.5 -19.5c-24 0 -46 3.83301 -66 11.5s-38 18.834 -54 33.501s-28.5 34.334 -37.5 59.001s-13.5 52.667 -13.5 84v326h113v-318c0 -31.333 7.33301 -55.166 22 -71.499
s35.334 -24.5 62.001 -24.5c52.667 0 102.334 20 149.001 60v354h112z" />
    <glyph glyph-name="v" unicode="v" horiz-adv-x="555" 
d="M537 500l-199 -500h-120l-200 500h119l141 -379l140 379h119z" />
    <glyph glyph-name="w" unicode="w" horiz-adv-x="836" 
d="M647 0h-122l-107 370l-107 -370h-121l-172 500h119l115 -367l103 367h126l103 -367l115 367h120z" />
    <glyph glyph-name="x" unicode="x" horiz-adv-x="560" 
d="M342 256l191 -256h-126l-136 183l-130 -183h-125l190 260l-178 240h126l123 -166l119 166h125z" />
    <glyph glyph-name="y" unicode="y" horiz-adv-x="571" 
d="M553 500l-292 -700h-103l80 202l-220 498h122l152 -363l143 363h118z" />
    <glyph glyph-name="z" unicode="z" horiz-adv-x="490" 
d="M448 88v-88h-415v69l267 343h-252v88h392v-69l-267 -343h275z" />
    <glyph glyph-name="braceleft" unicode="{" horiz-adv-x="399" 
d="M284 794c27.333 0 56.333 -5.00195 87 -15.002l-7 -80c-16.667 2.66699 -32.334 4 -47.001 4c-20.667 0 -36.667 -6.16699 -48 -18.5s-17 -30.166 -17 -53.499v-224c0 -54 -16 -92.667 -48 -116c32 -22.667 48 -61 48 -115v-224c0 -23.333 5.66699 -41.166 17 -53.499
s27.333 -18.5 48 -18.5c14.667 -0.666992 30.334 0.666016 47.001 3.99902l7 -80c-30.667 -10 -59.667 -15 -87 -15c-40 0 -72.833 12.833 -98.5 38.5s-38.5 64.5 -38.5 116.5v236c0 21.333 -5.16699 37.833 -15.5 49.5s-25.166 17.5 -44.499 17.5h-21v88h21
c19.333 0 34.166 6 44.499 18s15.5 28.667 15.5 50v235c0 52.667 12.833 91.834 38.5 117.501s58.5 38.5 98.5 38.5z" />
    <glyph glyph-name="bar" unicode="|" horiz-adv-x="297" 
d="M205 -214h-113v964h113v-964z" />
    <glyph glyph-name="braceright" unicode="}" horiz-adv-x="399" 
d="M114 794c40.667 0 73.667 -12.8311 99 -38.498s38 -64.834 38 -117.501v-235c0 -21.333 5.33301 -38 16 -50s25.334 -18 44.001 -18h22v-88h-22c-18.667 0 -33.334 -5.83301 -44.001 -17.5s-16 -28.167 -16 -49.5v-236c0 -52 -12.667 -90.833 -38 -116.5
s-58.333 -38.5 -99 -38.5c-26.667 0 -55.334 5 -86.001 15l7 80c16.667 -3.33301 32 -4.66602 46 -3.99902c20.667 0 36.667 6.16699 48 18.5s17 30.166 17 53.499v224c0 54 16 92.333 48 115c-32 23.333 -48 62 -48 116v224c0 23.333 -5.66699 41.166 -17 53.499
s-27.333 18.5 -48 18.5c-14 0 -29.333 -1.33301 -46 -4l-7 80c30.667 10 59.334 15 86.001 15z" />
    <glyph glyph-name="asciitilde" unicode="~" horiz-adv-x="575" 
d="M197 354c20.667 0 40.165 -4.50098 58.498 -13.501s38.833 -21.5 61.5 -37.5c28 -20.667 50.333 -31 67 -31c27.333 0 57.666 24.333 90.999 73l62 -48c-14 -20 -25.167 -35.333 -33.5 -46s-19.333 -23 -33 -37s-28 -24.167 -43 -30.5s-31.167 -9.5 -48.5 -9.5
c-15.333 0 -31.166 3 -47.499 9s-29.166 12 -38.499 18s-21 14 -35 24c-28 20.667 -50.667 31 -68 31c-26.667 0 -56.667 -24 -90 -72l-62 47c0.666992 1.33301 2 3.66602 4 6.99902c13.333 18.667 23.833 32.834 31.5 42.501s18.334 21.334 32.001 35.001s28 23.5 43 29.5
s31.167 9 48.5 9z" />
    <glyph glyph-name="exclamdown" unicode="&#xa1;" horiz-adv-x="266" 
d="M133 518c12.667 0 24.332 -3 34.999 -9s19 -14.333 25 -25s9 -22.334 9 -35.001c0 -19.333 -6.66699 -35.833 -20 -49.5s-29.666 -20.5 -48.999 -20.5s-35.666 6.83301 -48.999 20.5s-20 30.167 -20 49.5c0 18.667 6.66699 34.834 20 48.501s29.666 20.5 48.999 20.5z
M196.998 -186h-128l15 504h98z" />
    <glyph glyph-name="cent" unicode="&#xa2;" horiz-adv-x="556" 
d="M491 139l9.99902 -85.999c-44 -33.333 -92.333 -54.333 -145 -63v-99h-102v101c-60 12 -108 41.833 -144 89.5s-54 103.834 -54 168.501c0 43.333 8 83.166 24 119.499s39 66.666 69 90.999s65 40.5 105 48.5v100h102v-99c52 -8.66699 100 -29.667 144 -63l-10 -86
c-60.667 34.667 -119 52 -175 52c-44.667 0 -80 -14.667 -106 -44s-38.667 -69 -38 -119c0 -49.333 13 -88.833 39 -118.5s61 -44.5 105 -44.5c56.667 0 115.334 17.333 176.001 52z" />
    <glyph glyph-name="sterling" unicode="&#xa3;" horiz-adv-x="637" 
d="M587 102v-102.002h-508v58c40 40.667 65.667 78.5 77 113.5s14 72.167 8 111.5h-90l1 98h67c-12 52 -18.333 93.333 -19 124c0 31.333 4.83301 59.333 14.5 84s22.667 44.667 39 60s36 28 59 38s46.667 17 71 21s50.5 6 78.5 6c71.333 0 135.333 -14.667 192 -44
l-37 -100c-42.667 22 -92.667 33 -150 33c-48.667 0 -84.167 -7.66699 -106.5 -23s-33.5 -42.666 -33.5 -81.999c0 -24.667 6.66699 -63.667 20 -117h195v-98h-176c7.33301 -65.333 -8 -125.666 -46 -180.999h344z" />
    <glyph glyph-name="currency" unicode="&#xa4;" horiz-adv-x="600" 
 />
    <glyph glyph-name="yen" unicode="&#xa5;" horiz-adv-x="728" 
d="M528 422h77v-94h-136l-47 -76v-6h183v-94h-183v-152h-122v152h-177v94h177v13l-42 69h-135v94h77l-172 278h140l196 -331l196 331h140z" />
    <glyph glyph-name="brokenbar" unicode="&#xa6;" horiz-adv-x="297" 
d="M205 327h-113v423h113v-423zM205 -214h-113v422h113v-422z" />
    <glyph glyph-name="section" unicode="&#xa7;" horiz-adv-x="591" 
d="M468 146c48 -30 71.9941 -71.998 71.9941 -125.998c0 -30 -7.16699 -56.833 -21.5 -80.5s-33.333 -42.5 -57 -56.5s-49.167 -24.5 -76.5 -31.5s-55.333 -10.5 -84 -10.5c-50 0 -98.167 9.66699 -144.5 29s-82.166 46.666 -107.499 81.999l81 59
c16.667 -22.667 40.834 -40.5 72.501 -53.5s65.5 -19.5 101.5 -19.5c36.667 0 66.834 7.33301 90.501 22s35.5 34 35.5 58c0 9.33301 -1.83301 17.5 -5.5 24.5s-8 12.833 -13 17.5s-13.333 9.33398 -25 14.001s-21.667 8.16699 -30 10.5s-21.5 5.83301 -39.5 10.5l-21 6
c-77.333 20.667 -131.666 43 -162.999 67s-46.666 60 -45.999 108c-0.666992 59.333 21.666 104.333 66.999 135c-23.333 14 -40.5 30.5 -51.5 49.5s-16.167 43.167 -15.5 72.5c-0.666992 32 5.33301 60 18 84s29.834 42.833 51.501 56.5s45.667 23.834 72 30.501
s54.5 10 84.5 10c28 0 54.833 -2.66699 80.5 -8s50.667 -13.833 75 -25.5s45.166 -26.167 62.499 -43.5l-73 -70c-33.333 33.333 -81.666 50 -144.999 50c-76.667 0 -115.667 -27 -117 -81c0 -14 2.83301 -24.833 8.5 -32.5s17.667 -15.334 36 -23.001
s47.5 -16.834 87.5 -27.501c3.33301 -1.33301 9 -3 17 -5c16 -4 28.333 -7.16699 37 -9.5s20.834 -6.33301 36.501 -12s28.167 -11.167 37.5 -16.5s20 -12.5 32 -21.5s21.167 -18.5 27.5 -28.5s12 -22.167 17 -36.5s7.5 -29.833 7.5 -46.5
c0 -54.667 -24 -98.334 -72 -131.001zM196.994 278.002c-0.666992 -13.333 1.83398 -23.834 7.50098 -31.501s17.167 -15.334 34.5 -23.001s45.333 -16.5 84 -26.5c21.333 1.33301 40 5.5 56 12.5s28.5 16.167 37.5 27.5s13.5 24.333 13.5 39c0 8.66699 -2 16.667 -6 24
s-8.5 13.166 -13.5 17.499s-13.333 8.83301 -25 13.5s-21.667 8.33398 -30 11.001s-21.5 6.33398 -39.5 11.001c-8.66699 2.66699 -15.334 4.33398 -20.001 5.00098l-2 1c-64.667 -4 -97 -31 -97 -81z" />
    <glyph glyph-name="dieresis" unicode="&#xa8;" horiz-adv-x="409" 
d="M96 704c17.333 0 32.166 -6.16699 44.499 -18.5s18.5 -27.166 18.5 -44.499s-6.16699 -32 -18.5 -44s-27.166 -18 -44.499 -18s-32 6 -44 18s-18 26.667 -18 44s6 32.166 18 44.499s26.667 18.5 44 18.5zM313 704c17.333 0 32 -6.16699 44 -18.5s18 -27.166 18 -44.499
s-6 -32 -18 -44s-26.667 -18 -44 -18s-32.166 6 -44.499 18s-18.5 26.667 -18.5 44s6.16699 32.166 18.5 44.499s27.166 18.5 44.499 18.5z" />
    <glyph glyph-name="copyright" unicode="&#xa9;" horiz-adv-x="861" 
d="M430 714c64.667 0 124.5 -16.167 179.5 -48.5s98.333 -76.5 130 -132.5s47.5 -117 47.5 -183s-15.833 -126.833 -47.5 -182.5s-75 -99.834 -130 -132.501s-114.833 -49 -179.5 -49s-124.334 16.333 -179.001 49s-98 76.834 -130 132.501s-48 116.5 -48 182.5
s16 127 48 183s75.333 100.167 130 132.5s114.334 48.5 179.001 48.5zM430.5 636c-75 0 -139.168 -27.501 -192.501 -82.501s-80 -122.667 -80 -203s26.667 -148.166 80 -203.499s117.333 -83 192 -83c49.333 0 94.833 12.5 136.5 37.5s74.834 59.5 99.501 103.5
s37 92.333 37 145c0 80.667 -26.667 148.5 -80 203.5s-117.5 82.5 -192.5 82.5zM427.999 539.999c16 0 32.668 -2.16992 50.001 -6.50293s34.5 -10.666 51.5 -18.999s32.5 -18.166 46.5 -29.499l-22 -62c-41.333 30 -83 45 -125 45c-30 0.666992 -54.5 -9.83301 -73.5 -31.5
s-28.5 -50.5 -28.5 -86.5c0 -35.333 9.66699 -64 29 -86s44 -33 74 -33c41.333 0 82.666 15.333 123.999 46l23 -61c-14.667 -12 -30.5 -22.167 -47.5 -30.5s-34.167 -14.666 -51.5 -18.999s-34 -6.5 -50 -6.5c-54.667 0 -99.334 18.5 -134.001 55.5s-52 81.833 -52 134.5
c0 53.333 17.333 98.5 52 135.5s79.334 55.167 134.001 54.5z" />
    <glyph glyph-name="ordfeminine" unicode="&#xaa;" horiz-adv-x="498" 
d="M435 768v-387.998h-96v38c-36.667 -32.667 -76.667 -49 -120 -49c-34 0 -64.333 9.16699 -91 27.5s-47 43.166 -61 74.499s-21 65.666 -21 102.999c0 58 16 106.667 48 146s73.667 59 125 59c43.333 0 83.333 -16.333 120 -49v38h96zM229 449.002
c39.333 0 76.001 17 110.001 51v148c-34 34 -70.667 51 -110 51c-26 0 -46.833 -11.5 -62.5 -34.5s-23.167 -53.167 -22.5 -90.5c-0.666992 -37.333 6.66602 -67.5 21.999 -90.5s36.333 -34.5 63 -34.5z" />
    <glyph glyph-name="guillemotleft" unicode="&#xab;" horiz-adv-x="655" 
d="M347 462l-200 -177l200 -178l-62 -67l-255 214v62l255 213zM628 462l-201 -177l201 -178l-63 -67l-255 214v62l255 213z" />
    <glyph glyph-name="logicalnot" unicode="&#xac;" horiz-adv-x="600" 
 />
    <glyph glyph-name="registered" unicode="&#xae;" horiz-adv-x="861" 
d="M430 714c64.667 0 124.5 -16.167 179.5 -48.5s98.333 -76.5 130 -132.5s47.5 -117 47.5 -183s-15.833 -126.833 -47.5 -182.5s-75 -99.834 -130 -132.501s-114.833 -49 -179.5 -49s-124.334 16.333 -179.001 49s-98 76.834 -130 132.501s-48 116.5 -48 182.5
s16 127 48 183s75.333 100.167 130 132.5s114.334 48.5 179.001 48.5zM430 636c-36.667 0 -71.666 -7.33398 -104.999 -22.001s-62.333 -34.667 -87 -60s-44.167 -55.666 -58.5 -90.999s-21.5 -73 -21.5 -113c0 -80 26.667 -147.667 80 -203s117.5 -83 192.5 -83
s139.167 27.667 192.5 83s80 123 80 203c0 52.667 -12.333 101 -37 145s-57.834 78.5 -99.501 103.5s-87.167 37.5 -136.5 37.5zM288.001 530.999h170.001c20 0 38.5 -4.66699 55.5 -14s30.5 -22.833 40.5 -40.5s15 -37.167 15 -58.5c0 -24 -5.83301 -45 -17.5 -63
s-26.834 -31.667 -45.501 -41l85 -146h-89l-72 136h-64v-136h-78v363zM366.002 466.999v-99h89c10 0 18.5 4.5 25.5 13.5s10.5 21.167 10.5 36.5s-3.5 27.333 -10.5 36s-15.5 13 -25.5 13h-89z" />
    <glyph glyph-name="macron" unicode="&#xaf;" horiz-adv-x="411" 
d="M373 587h-335v95h335v-95z" />
    <glyph glyph-name="degree" unicode="&#xb0;" horiz-adv-x="415" 
d="M207 841c50.667 0 91.667 -15.666 123 -46.999s47 -70 47 -116s-15.667 -84.833 -47 -116.5s-72.333 -47.5 -123 -47.5c-50 0 -90.667 15.833 -122 47.5s-47 70.5 -47 116.5c0 46.667 15.667 85.667 47 117s72 46.666 122 45.999zM207 768.001
c-24 0 -43.666 -8.16797 -58.999 -24.501s-23 -38.166 -23 -65.499s7.83301 -49.166 23.5 -65.499s35.167 -24.5 58.5 -24.5c16 0 30.167 3.5 42.5 10.5s22.166 17.5 29.499 31.5s11 30 11 48c0 27.333 -7.83301 49.166 -23.5 65.499s-35.5 24.5 -59.5 24.5z" />
    <glyph glyph-name="plusminus" unicode="&#xb1;" horiz-adv-x="519" 
d="M497 404v-97h-189v-156h-97v156h-190v97h190v156h97v-156h189zM21 94h476v-97h-476v97z" />
    <glyph glyph-name="twosuperior" unicode="&#xb2;" horiz-adv-x="407" 
d="M366 352l-0.000976562 -69.9971h-333v84c0 10 1.5 19.5 4.5 28.5s6.16699 16.833 9.5 23.5s9.33301 13.5 18 20.5s15.5 12.5 20.5 16.5s14.167 9.16699 27.5 15.5s23 10.666 29 12.999s17 7.16602 33 14.499c16 6 28.667 11.167 38 15.5s18.333 8.83301 27 13.5
s15.167 8.66699 19.5 12s8.33301 7 12 11s6 8 7 12s1.5 9 1.5 15c0 20.667 -8.5 35.667 -25.5 45s-42.5 14 -76.5 14c-38.667 -0.666992 -74.667 -5.66699 -108 -15l-29 63c42.667 16.667 92.334 25 149.001 25c117.333 0 176 -41.333 176 -124c0 -10 -1 -19.333 -3 -28
s-4.16699 -16.5 -6.5 -23.5s-6.16602 -13.833 -11.499 -20.5s-9.83301 -12.334 -13.5 -17.001s-9.5 -9.66699 -17.5 -15s-14.333 -9.5 -19 -12.5s-12 -6.83301 -22 -11.5s-17.333 -8 -22 -10s-12.834 -5.33301 -24.501 -10l-22.5 -9c-32.667 -14 -54.667 -25.667 -66 -35
s-17 -21.333 -17 -36v-5h245z" />
    <glyph glyph-name="threesuperior" unicode="&#xb3;" horiz-adv-x="419" 
d="M291 504c17.333 -6 32.3311 -13.8311 44.998 -23.498s22.5 -21.167 29.5 -34.5s10.5 -28 10.5 -44c0 -38.667 -17.5 -69.834 -52.5 -93.501s-79.833 -35.5 -134.5 -35.5c-58.667 0 -111 9 -157 27l34 67c37.333 -14 79.333 -21 126 -21c28.667 0 51.834 5.5 69.501 16.5
s26.5 25.833 26.5 44.5c0 16.667 -7.66699 30.167 -23 40.5s-36.333 15.5 -63 15.5h-74v53v19h65c16 0 29.833 2 41.5 6s20.5 9.66699 26.5 17s9 15.666 9 24.999c0 16.667 -7.66699 29.834 -23 39.501s-35.666 14.5 -60.999 14.5c-38 0 -72.667 -6 -104 -18l-31 67
c40.667 15.333 86.667 23 138 23c50 0 90.5 -10.667 121.5 -32s46.5 -49.333 46.5 -84c0 -40.667 -22 -70.334 -66 -89.001z" />
    <glyph glyph-name="acute" unicode="&#xb4;" horiz-adv-x="329" 
d="M152 564h-114l128 173h125z" />
    <glyph glyph-name="paragraph" unicode="&#xb6;" horiz-adv-x="703" 
d="M628 604l-61 0.000976562v-818h-105v818h-71v-818h-105v532h-57c-23.333 0 -45.5 4.5 -66.5 13.5s-39.333 21.667 -55 38s-28 36.666 -37 60.999s-13.5 50.5 -13.5 78.5c-0.666992 56 15.833 101.833 49.5 137.5s74.5 53.5 122.5 53.5h399v-96z" />
    <glyph glyph-name="periodcentered" unicode="&#xb7;" horiz-adv-x="223" 
d="M112 371c12 0 23.333 -3.16602 34 -9.49902s19.167 -14.833 25.5 -25.5s9.5 -22.334 9.5 -35.001c0 -19.333 -6.83301 -35.666 -20.5 -48.999s-30 -20 -49 -20s-35.333 6.66699 -49 20s-20.5 29.666 -20.5 48.999s6.83301 35.833 20.5 49.5s30.167 20.5 49.5 20.5z" />
    <glyph glyph-name="cedilla" unicode="&#xb8;" horiz-adv-x="340" 
d="M217 16l-17.002 -59.001c2.66699 0 5.33398 -0.333008 8.00098 -1c30 -4 54 -14.5 72 -31.5s27 -38.5 27 -64.5c0 -30.667 -12.333 -56.167 -37 -76.5s-57.334 -30.833 -98.001 -31.5c-22.667 -0.666992 -47.167 1.83301 -73.5 7.5s-48.166 12.834 -65.499 21.501l28 60
c30.667 -12 63.334 -18 98.001 -18c33.333 0 50 12 50 36c0 23.333 -12.333 35 -37 35c-18 0 -35.667 -3.66699 -53 -11l-19 40l45 93h72z" />
    <glyph glyph-name="onesuperior" unicode="&#xb9;" horiz-adv-x="339" 
d="M222 352h86v-70h-268v70h97v252l-80 -35l-31 64l148 67h48v-348z" />
    <glyph glyph-name="ordmasculine" unicode="&#xba;" horiz-adv-x="496" 
d="M248 780c60 0 108.667 -19.833 146 -59.5s56 -88.167 56 -145.5s-18.667 -105.833 -56 -145.5s-86 -59.5 -146 -59.5s-108.667 19.833 -146 59.5s-56 88.167 -56 145.5c0 58 18.667 106.667 56 146s86 59 146 59zM248 699c-32 0 -57.5 -11.333 -76.5 -34
s-28.167 -52.667 -27.5 -90c0 -24.667 4.16699 -46.334 12.5 -65.001s20.5 -33.167 36.5 -43.5s34.333 -15.5 55 -15.5c32 0 57.333 11.333 76 34s28 52.667 28 90c0 24.667 -4.16699 46.334 -12.5 65.001s-20.333 33.167 -36 43.5s-34.167 15.5 -55.5 15.5z" />
    <glyph glyph-name="guillemotright" unicode="&#xbb;" horiz-adv-x="655" 
d="M345 316v-62l-255 -214l-62 67l200 178l-200 177l62 67zM625 316v-62l-254 -214l-63 67l200 178l-200 177l63 67z" />
    <glyph glyph-name="onequarter" unicode="&#xbc;" horiz-adv-x="948" 
d="M746 714l-445 -728h-102l445 728h102zM222 352h86v-70h-268v70h97v252l-80 -35l-31 64l148 67h48v-348zM855 162h61v-70h-61v-92h-85v92h-231v54l218 272h98v-256zM642 162h128v168z" />
    <glyph glyph-name="onehalf" unicode="&#xbd;" horiz-adv-x="982" 
d="M746 714l-445 -728h-102l445 728h102zM137 352v252l-80 -35l-31 64l148 67h48v-348h86v-70h-268v70h97zM941 70l-0.00195312 -70.0049h-333v47v37c0 10 1.33301 19.5 4 28.5s5.83398 16.833 9.50098 23.5s9.5 13.334 17.5 20.001s14.833 12.167 20.5 16.5
s14.834 9.5 27.501 15.5s22.334 10.5 29.001 13.5s18 7.83301 34 14.5c24 10 41 17.333 51 22s20 10.334 30 17.001s16.5 12.834 19.5 18.501s4.5 12.834 4.5 21.501c0 39.333 -34 59 -102 59c-39.333 0 -75.333 -5 -108 -15l-30 63c44 16.667 94 25 150 25
c117.333 0 176 -41 176 -123c0 -12.667 -1.5 -24.5 -4.5 -35.5s-6.33301 -20.333 -10 -28s-9.66699 -15.5 -18 -23.5s-15.166 -14.167 -20.499 -18.5s-14 -9.66602 -26 -15.999s-20.833 -10.666 -26.5 -12.999s-15.334 -6.33301 -29.001 -12s-22.834 -9.5 -27.501 -11.5
c-33.333 -14.667 -55.5 -26.334 -66.5 -35.001s-16.5 -20.667 -16.5 -36v-5h245z" />
    <glyph glyph-name="threequarters" unicode="&#xbe;" horiz-adv-x="977" 
d="M776 714l-445 -728h-102l444 728h103zM376 402c0 -38.667 -17.502 -69.832 -52.502 -93.499s-79.833 -35.5 -134.5 -35.5c-58.667 0 -111 9 -157 27l34 67c37.333 -14 79.333 -21 126 -21c28.667 0 51.834 5.5 69.501 16.5s26.5 25.833 26.5 44.5
c0 16.667 -7.66699 30.167 -23 40.5s-36.333 15.5 -63 15.5h-74v53v19h65c16 0 29.833 2 41.5 6s20.5 9.66699 26.5 17s9 15.666 9 24.999c0 16.667 -7.66699 29.834 -23 39.501s-35.666 14.5 -60.999 14.5c-38 0 -72.667 -6 -104 -18l-31 67
c40.667 15.333 86.667 23 138 23c50 0 90.5 -10.667 121.5 -32s46.5 -49.333 46.5 -84c0 -40.667 -22 -70.334 -66 -89.001c26 -8.66699 46.667 -22 62 -40s23 -38.667 23 -62zM944.998 162.002v-70h-61v-92h-85v92h-231v54l218 272h98v-256h61zM798.998 330.002l-128 -168
h128v168z" />
    <glyph glyph-name="questiondown" unicode="&#xbf;" horiz-adv-x="564" 
d="M337 518c19.333 0 35.666 -6.83203 48.999 -20.499s20 -29.834 20 -48.501c0 -19.333 -6.66699 -35.833 -20 -49.5s-29.666 -20.5 -48.999 -20.5s-35.833 6.83301 -49.5 20.5s-20.5 30 -20.5 49s6.83301 35.333 20.5 49s30.167 20.5 49.5 20.5zM388 318.001l2.99805 -62
c1.33301 -33.333 -5.5 -59.166 -20.5 -77.499s-42.5 -36.5 -82.5 -54.5c-44.667 -21.333 -73.834 -38.833 -87.501 -52.5s-20.5 -34.834 -20.5 -63.501c0 -40 10 -67.5 30 -82.5s51.667 -22.5 95 -22.5c56.667 -0.666992 111.667 8 165 26l49 -84
c-64.667 -30 -138 -45 -220 -45c-33.333 0 -63.666 3.33301 -90.999 10s-52.833 17.334 -76.5 32.001s-42 36 -55 64s-19.5 61.333 -19.5 100c0 19.333 1.66699 36.666 5 51.999s8.83301 29.166 16.5 41.499s15.834 23.333 24.501 33s20.334 19.334 35.001 29.001
s28.667 18 42 25s30.333 15.167 51 24.5c20 9.33301 34.167 18 42.5 26s12.5 19 12.5 33l1 48h101z" />
    <glyph glyph-name="Agrave" unicode="&#xc0;" horiz-adv-x="738" 
d="M425 764h-114l-140 173h126zM710 0h-131l-55 150h-311l-55 -150h-130l273 700h136zM250 251h238l-119 324z" />
    <glyph glyph-name="Aacute" unicode="&#xc1;" horiz-adv-x="738" 
d="M421 764h-113l127 173h126zM710 0h-131l-55 150h-311l-55 -150h-130l273 700h136zM250 251h238l-119 324z" />
    <glyph glyph-name="Acircumflex" unicode="&#xc2;" horiz-adv-x="738" 
d="M285 764h-122l148 173h116l147 -173h-121l-84 108zM710 0h-131l-55 150h-311l-55 -150h-130l273 700h136zM488 251l-119 324l-119 -324h238z" />
    <glyph glyph-name="Atilde" unicode="&#xc3;" horiz-adv-x="738" 
d="M300 927c26.667 0 58.6699 -14.3291 96.0029 -42.9961c20.667 -15.333 36 -23 46 -23c19.333 0 42 20.333 68 61l59 -46c-12.667 -19.333 -22.334 -33.5 -29.001 -42.5s-15.667 -19.333 -27 -31s-23 -19.834 -35 -24.501s-25.333 -7.33398 -40 -8.00098
c-12.667 0 -25.667 2.5 -39 7.5s-23 9.66699 -29 14s-15 11.166 -27 20.499c-21.333 15.333 -37.666 23 -48.999 23c-18 0 -40 -20.333 -66 -61l-59 47c9.33301 14.667 15.666 24.167 18.999 28.5s10.166 13 20.499 26s19.166 22.167 26.499 27.5s17 10.666 29 15.999
s24 8 36 8zM710.003 0.00390625h-131l-55 150h-311l-55 -150h-130l273 700h136zM250.003 251.004h238l-119 324z" />
    <glyph glyph-name="Adieresis" unicode="&#xc4;" horiz-adv-x="738" 
d="M260.5 904c17 0 31.668 -6.16602 44.001 -18.499s18.5 -27.166 18.5 -44.499s-6.16699 -32 -18.5 -44s-26.833 -18 -43.5 -18c-11.333 0 -21.833 2.83301 -31.5 8.5s-17.334 13.167 -23.001 22.5s-8.5 19.666 -8.5 30.999c0 17.333 6.16699 32.166 18.5 44.499
s27 18.5 44 18.5zM477.001 904.001c17.333 0 32 -6.16699 44 -18.5s18 -27.166 18 -44.499s-6 -32 -18 -44s-26.667 -18 -44 -18s-32 6 -44 18s-18 26.667 -18 44s6 32.166 18 44.499s26.667 18.5 44 18.5zM710.001 0.000976562h-131l-55 150h-311l-55 -150h-130l273 700
h136zM250.001 251.001h238l-119 324z" />
    <glyph glyph-name="Aring" unicode="&#xc5;" horiz-adv-x="738" 
d="M369 997c39.333 0 71.332 -12.3359 95.999 -37.0029s37 -55.167 37 -91.5s-12.333 -66.833 -37 -91.5s-56.667 -37 -96 -37c-20 0 -38.333 3.33301 -55 10s-30.667 15.834 -42 27.501s-20.166 25.334 -26.499 41.001s-9.5 32.167 -9.5 49.5
c0 36.667 12.333 67.334 37 92.001s56.667 37 96 37zM367.999 928.997c-15.333 0 -28.3311 -5.49902 -38.998 -16.499s-16 -25.667 -16 -44s5.33301 -33 16 -44s24 -16.5 40 -16.5c10.667 0 20.167 2.33301 28.5 7s14.833 11.667 19.5 21s7 20.166 7 32.499
s-2.33301 23 -7 32s-11.334 16 -20.001 21s-18.334 7.5 -29.001 7.5zM710.001 -0.00195312h-131l-55 150h-311l-55 -150h-130l273 700h136zM250.001 250.998h238l-119 324z" />
    <glyph glyph-name="AE" unicode="&#xc6;" horiz-adv-x="1001" 
d="M953 102v-102h-488v150h-230l-77 -150h-130l373 700h542v-102h-356v-181h317v-101h-317v-214h366zM465 251v346l-177 -346h177z" />
    <glyph glyph-name="Ccedilla" unicode="&#xc7;" horiz-adv-x="762" 
d="M422 -44c30.667 -4 54.833 -14.501 72.5 -31.501s26.5 -38.5 26.5 -64.5c0 -20 -5.33301 -38.167 -16 -54.5s-26.334 -29.166 -47.001 -38.499s-44.667 -14.333 -72 -15c-22.667 -0.666992 -47.167 1.83301 -73.5 7.5s-48.166 12.834 -65.499 21.501l28 60
c31.333 -12 64 -18 98 -18c33.333 0 50.333 12 51 36c-0.666992 23.333 -13.334 35 -38.001 35c-18 0 -35.667 -3.66699 -53 -11l-18 40l33 70c-82.667 16.667 -149 58 -199 124s-75 143.667 -75 233c0 67.333 14.333 128.666 43 183.999s69.667 99.333 123 132
s114.333 48.667 183 48c22 0 44.667 -2.16699 68 -6.5s46.666 -10.5 69.999 -18.5s46.5 -18.333 69.5 -31s44.833 -27 65.5 -43l-32 -89c-78 51.333 -157 77 -237 77c-67.333 0 -121.833 -23.167 -163.5 -69.5s-62.5 -107.5 -62.5 -183.5c0 -37.333 5.5 -71.833 16.5 -103.5
s26.333 -58.5 46 -80.5s43.667 -39 72 -51s58.833 -18 91.5 -18c80 0 159.333 25.667 238 77l32 -88c-41.333 -32.667 -86.166 -57.5 -134.499 -74.5s-94.833 -25.5 -139.5 -25.5l-9 -29c2.66699 0 5.33398 -0.333008 8.00098 -1z" />
    <glyph glyph-name="Egrave" unicode="&#xc8;" horiz-adv-x="628" 
d="M278 764l-140 173h126l128 -173h-114zM580 102v-102h-488v700h478v-102h-356v-181h317v-101h-317v-214h366z" />
    <glyph glyph-name="Eacute" unicode="&#xc9;" horiz-adv-x="628" 
d="M388 764h-113l128 173h125zM580 102v-102h-488v700h478v-102h-356v-181h317v-101h-317v-214h366z" />
    <glyph glyph-name="Ecircumflex" unicode="&#xca;" horiz-adv-x="628" 
d="M252 764h-121l147 173h116l147 -173h-121l-84 108zM580 102v-102h-488v700h478v-102h-356v-181h317v-101h-317v-214h366z" />
    <glyph glyph-name="Edieresis" unicode="&#xcb;" horiz-adv-x="628" 
d="M228 779c-17.333 0 -32.166 6 -44.499 18s-18.5 26.667 -18.5 44s6.16699 32.166 18.5 44.499s27.166 18.5 44.499 18.5s32 -6.16699 44 -18.5s18 -27.166 18 -44.499s-6 -32 -18 -44s-26.667 -18 -44 -18zM444 779c-17.333 0 -32 6 -44 18s-18 26.667 -18 44
s6 32.166 18 44.499s26.667 18.5 44 18.5s32.166 -6.16699 44.499 -18.5s18.5 -27.166 18.5 -44.499s-6.16699 -32 -18.5 -44s-27.166 -18 -44.499 -18zM580 102v-102h-488v700h478v-102h-356v-181h317v-101h-317v-214h366z" />
    <glyph glyph-name="Igrave" unicode="&#xcc;" horiz-adv-x="307" 
d="M209 764h-113l-140 173h126zM214 0h-122v700h122v-700z" />
    <glyph glyph-name="Iacute" unicode="&#xcd;" horiz-adv-x="307" 
d="M206 764h-114l128 173h126zM214 0h-122v700h122v-700z" />
    <glyph glyph-name="Icircumflex" unicode="&#xce;" horiz-adv-x="307" 
d="M359 764h-122l-84 108l-83 -108h-122l147 173h116zM92 700h122v-700h-122v700z" />
    <glyph glyph-name="Idieresis" unicode="&#xcf;" horiz-adv-x="307" 
d="M45 904c17.333 0 32 -6.16699 44 -18.5s18 -27.166 18 -44.499s-6 -32 -18 -44s-26.667 -18 -44 -18s-32 6 -44 18s-18 26.667 -18 44s6 32.166 18 44.499s26.667 18.5 44 18.5zM261.5 904c17 0 31.667 -6.16699 44 -18.5s18.5 -27.166 18.5 -44.499
s-6.16699 -32 -18.5 -44s-27 -18 -44 -18s-31.667 6 -44 18s-18.5 26.667 -18.5 44s6.16699 32.166 18.5 44.499s27 18.5 44 18.5zM214 0h-122v700h122v-700z" />
    <glyph glyph-name="Eth" unicode="&#xd0;" horiz-adv-x="772" 
d="M114 700h238c103.333 0 186.833 -32.833 250.5 -98.5s95.5 -149.5 95.5 -251.5s-31.833 -185.833 -95.5 -251.5s-147.167 -98.5 -250.5 -98.5h-260v304h-92v92h92v304h22zM214 102l133.001 0.000976562c45.333 0 85 10.167 119 30.5s60.167 49.166 78.5 86.499
s27.5 81 27.5 131c0 75.333 -20.333 135.5 -61 180.5s-95.334 67.5 -164.001 67.5h-133v-202h163v-92h-163v-202z" />
    <glyph glyph-name="Ntilde" unicode="&#xd1;" horiz-adv-x="771" 
d="M311 835c-18 0 -39.999 -20.3301 -65.999 -60.9971l-59 47l3 6c10 14.667 18.167 26.167 24.5 34.5s15.166 18.333 26.499 30s23.333 20.5 36 26.5s26.334 9 41.001 9c26.667 0 58.667 -14.333 96 -43c20.667 -15.333 36 -23 46 -23c18.667 0 41 20.333 67 61l59 -46
c-12.667 -19.333 -22.334 -33.5 -29.001 -42.5s-15.5 -19.333 -26.5 -31s-22.5 -19.834 -34.5 -24.501s-25.333 -7.33398 -40 -8.00098c-13.333 0 -26.5 2.5 -39.5 7.5s-22.5 9.66699 -28.5 14s-15.333 11.166 -28 20.499c-21.333 15.333 -37.333 23 -48 23z
M684.001 700.003v-700h-108l-368 492v-492h-121v700h109l368 -494v494h120z" />
    <glyph glyph-name="Ograve" unicode="&#xd2;" horiz-adv-x="851" 
d="M481 764h-114l-139 173h125zM425 714c52 0 100.168 -9.5 144.501 -28.5s81.5 -45 111.5 -78s53.333 -71.667 70 -116s25 -91.5 25 -141.5c0 -67.333 -14.167 -128.5 -42.5 -183.5s-69.5 -98.833 -123.5 -131.5s-115.667 -49 -185 -49
c-68.667 0 -129.834 16.333 -183.501 49s-95 76.5 -124 131.5s-43.5 116.167 -43.5 183.5c0 50.667 8.5 98.167 25.5 142.5s40.667 82.833 71 115.5s67.5 58.5 111.5 77.5s91.667 28.5 143 28.5zM425.001 603c-66.667 0 -120.667 -23.667 -162 -71s-62 -108 -62 -182
c0 -73.333 20.833 -133.833 62.5 -181.5s95.5 -71.5 161.5 -71.5c66.667 0 120.834 23.667 162.501 71s62.5 108 62.5 182s-20.833 134.667 -62.5 182s-95.834 71 -162.501 71z" />
    <glyph glyph-name="Oacute" unicode="&#xd3;" horiz-adv-x="851" 
d="M477 764h-113l128 173h125zM425 714c52 0 100.169 -9.5 144.502 -28.5s81.5 -45 111.5 -78s53.333 -71.667 70 -116s25 -91.5 25 -141.5c0 -67.333 -14.167 -128.5 -42.5 -183.5s-69.5 -98.833 -123.5 -131.5s-115.667 -49 -185 -49
c-68.667 0 -129.834 16.333 -183.501 49s-94.834 76.5 -123.501 131.5s-43 116.167 -43 183.5c0 50.667 8.33301 98.167 25 142.5s40.167 82.833 70.5 115.5s67.5 58.5 111.5 77.5s91.667 28.5 143 28.5zM425.002 603c-66.667 0 -120.667 -23.667 -162 -71
s-62 -108 -62 -182c0 -73.333 20.833 -133.833 62.5 -181.5s95.5 -71.5 161.5 -71.5c66.667 0 120.834 23.667 162.501 71s62.5 108 62.5 182s-20.833 134.667 -62.5 182s-95.834 71 -162.501 71z" />
    <glyph glyph-name="Ocircumflex" unicode="&#xd4;" horiz-adv-x="851" 
d="M341 764h-121l147 173h116l148 -173h-122l-84 108zM425 714c52 0 100.167 -9.49805 144.5 -28.498s81.5 -45 111.5 -78s53.333 -71.667 70 -116s25 -91.5 25 -141.5c0 -67.333 -14.167 -128.5 -42.5 -183.5s-69.5 -98.833 -123.5 -131.5s-115.667 -49 -185 -49
c-68.667 0 -129.834 16.333 -183.501 49s-94.834 76.5 -123.501 131.5s-43 116.167 -43 183.5s14.333 128.666 43 183.999s69.834 99.166 123.501 131.499s114.834 48.5 183.501 48.5zM425 97.002c66.667 0 120.834 23.667 162.501 71s62.5 108 62.5 182
s-20.833 134.667 -62.5 182s-95.834 71 -162.501 71s-120.667 -23.667 -162 -71s-62 -108 -62 -182c0 -73.333 20.833 -133.833 62.5 -181.5s95.5 -71.5 161.5 -71.5z" />
    <glyph glyph-name="Otilde" unicode="&#xd5;" horiz-adv-x="851" 
d="M356 927c26.667 0 58.668 -14.3301 96.001 -42.9971c20.667 -15.333 36.334 -23 47.001 -23c18.667 0 41 20.333 67 61l59 -46c-12.667 -19.333 -22.334 -33.5 -29.001 -42.5s-15.667 -19.333 -27 -31s-23 -19.834 -35 -24.501s-25 -7.33398 -39 -8.00098
c-10.667 0 -20.334 1.16699 -29.001 3.5s-17.667 6 -27 11s-16 9 -20 12s-10.667 8.16699 -20 15.5c-21.333 15.333 -37.666 23 -48.999 23c-17.333 0 -39.333 -20.333 -66 -61l-59 47c10 14.667 16.5 24.167 19.5 28.5s9.66699 13 20 26s19.166 22.167 26.499 27.5
s17 10.666 29 15.999s24 8 36 8zM425.001 714.003c69.333 0 131 -16.3311 185 -48.998s95.167 -76.5 123.5 -131.5s42.5 -116.167 42.5 -183.5s-14.167 -128.5 -42.5 -183.5s-69.5 -98.833 -123.5 -131.5s-115.667 -49 -185 -49c-68.667 0 -129.834 16.333 -183.501 49
s-95 76.5 -124 131.5s-43.5 116.167 -43.5 183.5s14.5 128.666 43.5 183.999s70.333 99.166 124 131.499s114.834 48.5 183.501 48.5zM425.001 603.005c-66.667 0 -120.666 -23.667 -161.999 -71s-62 -108 -62 -182c0 -48.667 9.33301 -92.167 28 -130.5
s45.167 -68.333 79.5 -90s73.166 -32.5 116.499 -32.5c66.667 0 120.834 23.667 162.501 71s62.5 108 62.5 182s-20.833 134.667 -62.5 182s-95.834 71 -162.501 71z" />
    <glyph glyph-name="Odieresis" unicode="&#xd6;" horiz-adv-x="851" 
d="M317 904c17.333 0 32 -6.16699 44 -18.5s18 -27.166 18 -44.499s-6 -32 -18 -44s-26.667 -18 -44 -18s-32.166 6 -44.499 18s-18.5 26.667 -18.5 44s6.16699 32.166 18.5 44.499s27.166 18.5 44.499 18.5zM533 904c17.333 0 32.168 -6.16797 44.501 -18.501
s18.5 -27.166 18.5 -44.499c0 -11.333 -2.83301 -21.666 -8.5 -30.999s-13.334 -16.833 -23.001 -22.5s-20.167 -8.5 -31.5 -8.5c-17.333 0 -32 6 -44 18s-18 26.667 -18 44s6 32.166 18 44.499s26.667 18.5 44 18.5zM425.002 713.999c52 0 100.167 -9.49805 144.5 -28.498
s81.5 -45 111.5 -78s53.333 -71.667 70 -116s25 -91.5 25 -141.5c0 -67.333 -14.167 -128.5 -42.5 -183.5s-69.5 -98.833 -123.5 -131.5s-115.667 -49 -185 -49c-68.667 0 -129.834 16.333 -183.501 49s-95 76.5 -124 131.5s-43.5 116.167 -43.5 183.5
s14.5 128.666 43.5 183.999s70.333 99.166 124 131.499s114.834 48.5 183.501 48.5zM425.002 603.001c-66.667 0 -120.666 -23.667 -161.999 -71s-62 -108 -62 -182c0 -48.667 9.33301 -92.167 28 -130.5s45.167 -68.333 79.5 -90s73.166 -32.5 116.499 -32.5
c66.667 0 120.834 23.667 162.501 71s62.5 108 62.5 182s-20.833 134.667 -62.5 182s-95.834 71 -162.501 71z" />
    <glyph glyph-name="multiply" unicode="&#xd7;" horiz-adv-x="507" 
d="M469 438l-147 -147l147 -147l-69 -68l-147 147l-146 -147l-69 68l147 147l-147 147l69 69l146 -147l147 147z" />
    <glyph glyph-name="Oslash" unicode="&#xd8;" horiz-adv-x="851" 
d="M672 750l-47.001 -96c47.333 -32.667 84.333 -75.667 111 -129s40 -111.666 40 -174.999c0 -67.333 -14.167 -128.5 -42.5 -183.5s-69.5 -98.833 -123.5 -131.5s-115.667 -49 -185 -49c-41.333 0 -80.333 6 -117 18l-26 -54h-103l46 95
c-47.333 32.667 -84.333 75.834 -111 129.501s-40 112.167 -40 175.5c0 67.333 14.5 128.666 43.5 183.999s70.333 99.166 124 131.499s114.834 48.5 183.501 48.5c41.333 0 80.333 -6.33301 117 -19l27 55h103zM200.999 350c0 -83.333 25.667 -149 77 -197l215 440
c-22 6.66699 -44.667 10 -68 10c-66.667 0 -120.667 -23.667 -162 -71s-62 -108 -62 -182zM424.999 97c66.667 0 120.834 23.667 162.501 71s62.5 108 62.5 182c0 83.333 -25.667 149 -77 197l-215 -440c21.333 -6.66699 43.666 -10 66.999 -10z" />
    <glyph glyph-name="Ugrave" unicode="&#xd9;" horiz-adv-x="766" 
d="M439 764h-113l-140 173h125zM678 700l0.000976562 -456c0 -74.667 -27.5 -136.334 -82.5 -185.001s-125.167 -73 -210.5 -73c-84.667 0 -154.667 24.333 -210 73s-83 110.334 -83 185.001v456h122v-456c0 -46 15.667 -82.833 47 -110.5s72.666 -41.5 123.999 -41.5
c52 0 93.5 13.833 124.5 41.5s46.5 64.5 46.5 110.5v456h122z" />
    <glyph glyph-name="Uacute" unicode="&#xda;" horiz-adv-x="766" 
d="M436 764h-114l128 173h126zM678 700l0.000976562 -456c0 -74.667 -27.5 -136.334 -82.5 -185.001s-125.167 -73 -210.5 -73c-84.667 0 -154.667 24.333 -210 73s-83 110.334 -83 185.001v456h122v-456c0 -46 15.667 -82.833 47 -110.5s72.666 -41.5 123.999 -41.5
c52 0 93.5 13.833 124.5 41.5s46.5 64.5 46.5 110.5v456h122z" />
    <glyph glyph-name="Ucircumflex" unicode="&#xdb;" horiz-adv-x="766" 
d="M300 764h-122l147 173h116l148 -173h-122l-84 108zM678 700l0.000976562 -456c0 -74.667 -27.5 -136.334 -82.5 -185.001s-125.167 -73 -210.5 -73c-84.667 0 -154.667 24.333 -210 73s-83 110.334 -83 185.001v456h122v-456c0 -46 15.667 -82.833 47 -110.5
s72.666 -41.5 123.999 -41.5c52 0 93.5 13.833 124.5 41.5s46.5 64.5 46.5 110.5v456h122z" />
    <glyph glyph-name="Udieresis" unicode="&#xdc;" horiz-adv-x="766" 
d="M275 904c17.333 0 32 -6.16602 44 -18.499s18 -27.166 18 -44.499s-6 -32 -18 -44s-26.667 -18 -44 -18c-11.333 0 -21.833 2.83301 -31.5 8.5s-17.167 13.167 -22.5 22.5s-8 19.666 -8 30.999c0 17.333 6 32.166 18 44.499s26.667 18.5 44 18.5zM491.5 904.001
c17 0 31.668 -6.16797 44.001 -18.501s18.5 -27.166 18.5 -44.499c0 -11.333 -2.83301 -21.666 -8.5 -30.999s-13.334 -16.833 -23.001 -22.5s-19.834 -8.5 -30.501 -8.5c-17.333 0 -32.166 6 -44.499 18s-18.5 26.667 -18.5 44s6.16699 32.166 18.5 44.499s27 18.5 44 18.5
zM678.001 700l0.000976562 -456c0 -74.667 -27.5 -136.334 -82.5 -185.001s-125.167 -73 -210.5 -73c-84.667 0 -154.667 24.333 -210 73s-83 110.334 -83 185.001v456h122v-456c0 -46 15.667 -82.833 47 -110.5s72.666 -41.5 123.999 -41.5c52 0 93.5 13.833 124.5 41.5
s46.5 64.5 46.5 110.5v456h122z" />
    <glyph glyph-name="Yacute" unicode="&#xdd;" horiz-adv-x="709" 
d="M408 764h-114l128 173h126zM413 248v-248h-122v247l-263 453h140l186 -329l187 329h140z" />
    <glyph glyph-name="Thorn" unicode="&#xde;" horiz-adv-x="687" 
d="M214 587h211c57.333 0 105.833 -21.167 145.5 -63.5s59.5 -96.833 59.5 -163.5c0 -67.333 -19.833 -122 -59.5 -164s-88.167 -63 -145.5 -63h-211v-133h-122v700h122v-113zM508 360c0 39.333 -8.83301 70.001 -26.5 92.001s-39.167 33 -64.5 33h-203v-251h203
c25.333 0 46.833 11.167 64.5 33.5s26.5 53.166 26.5 92.499z" />
    <glyph glyph-name="germandbls" unicode="&#xdf;" horiz-adv-x="726" 
d="M335 750c70 0 126.665 -15.6572 169.998 -46.9902s67.666 -73.666 72.999 -126.999c2.66699 -20.667 1.66699 -38.5 -3 -53.5s-14.334 -27.833 -29.001 -38.5s-29.834 -19.334 -45.501 -26.001s-37.5 -14.667 -65.5 -24c-22 -8.66699 -37.833 -17.334 -47.5 -26.001
s-14.167 -22.334 -13.5 -41.001c0.666992 -15.333 7.66699 -27 21 -35s41.666 -17.667 84.999 -29c14.667 -4 25.334 -6.83301 32.001 -8.5s17.834 -5.33398 33.501 -11.001s27.667 -10.834 36 -15.501s18.666 -11.334 30.999 -20.001s21.666 -17.834 27.999 -27.501
s11.833 -21.334 16.5 -35.001s6.66699 -28.5 6 -44.5c0 -27.333 -6.66699 -51.5 -20 -72.5s-30.666 -37.167 -51.999 -48.5s-44 -19.833 -68 -25.5s-48.667 -8.5 -74 -8.5c-44 0 -85.5 8.16699 -124.5 24.5s-67.5 39.833 -85.5 70.5l75 56c4 -6 9 -11.667 15 -17
s13.333 -10.166 22 -14.499s17.834 -8.16602 27.501 -11.499s20.334 -5.83301 32.001 -7.5s23.834 -2.5 36.501 -2.5c30.667 0 55.834 5.5 75.501 16.5s29.5 25.833 29.5 44.5c0 6 -1 11.333 -3 16s-5.5 9 -10.5 13s-9.83301 7.33301 -14.5 10s-12 5.66699 -22 9
s-18.5 6 -25.5 8l-31.5 9c-25.333 6.66699 -45.166 12.334 -59.499 17.001s-30.166 11.167 -47.499 19.5s-30.5 17.166 -39.5 26.499s-17 21.166 -24 35.499s-11.167 31.166 -12.5 50.499s0.833984 37.166 6.50098 53.499s12 29.166 19 38.499s17.167 18.333 30.5 27
s23 14.167 29 16.5s14.667 5.83301 26 10.5c40.667 14 66.5 24.667 77.5 32s15.5 18.666 13.5 33.999c-2 23.333 -13.5 42.333 -34.5 57s-51.833 22 -92.5 22c-42.667 0 -75.334 -8.5 -98.001 -25.5s-34 -40.833 -34 -71.5v-553h-113v546c0 64 22.167 114 66.5 150
s103.166 54 176.499 54z" />
    <glyph glyph-name="agrave" unicode="&#xe0;" 
d="M261 564l-140 173h126l127 -173h-113zM546 500l-0.00195312 -500.001h-113v58c-48.667 -48 -103.667 -72 -165 -72c-41.333 0 -78.666 11.833 -111.999 35.5s-59 55.5 -77 95.5s-27 84.333 -27 133c0 74.667 20.333 137.334 61 188.001s92.334 76 155.001 76
c61.333 0 116.333 -24 165 -72v58h113zM284.998 85.999c24 0 49.333 5.83301 76 17.5s50.667 28.5 72 50.5v192c-14 14.667 -29.833 27.167 -47.5 37.5s-35 18 -52 23s-33.167 7.5 -48.5 7.5c-36.667 0 -65.5 -14.833 -86.5 -44.5s-31.5 -69.5 -31.5 -119.5
s10.5 -89.833 31.5 -119.5s49.833 -44.5 86.5 -44.5z" />
    <glyph glyph-name="aacute" unicode="&#xe1;" 
d="M371 564h-114l128 173h126zM546 500l-0.00195312 -500.001h-113v58c-48.667 -48 -103.667 -72 -165 -72c-41.333 0 -78.666 11.833 -111.999 35.5s-59 55.5 -77 95.5s-27 84.333 -27 133c0 74.667 20.333 137.334 61 188.001s92.334 76 155.001 76
c61.333 0 116.333 -24 165 -72v58h113zM284.998 85.999c24 0 49.333 5.83301 76 17.5s50.667 28.5 72 50.5v192c-21.333 22 -45.333 38.833 -72 50.5s-52 17.5 -76 17.5c-36.667 0 -65.5 -14.833 -86.5 -44.5s-31.5 -69.5 -31.5 -119.5s10.5 -89.833 31.5 -119.5
s49.833 -44.5 86.5 -44.5z" />
    <glyph glyph-name="acircumflex" unicode="&#xe2;" 
d="M235 564h-122l147 173h116l148 -173h-122l-84 108zM546 500l-0.00195312 -500.001h-113v58c-48.667 -48 -103.667 -72 -165 -72c-41.333 0 -78.666 11.833 -111.999 35.5s-59 55.5 -77 95.5s-27 84.333 -27 133c0 74.667 20.333 137.334 61 188.001s92.334 76 155.001 76
c61.333 0 116.333 -24 165 -72v58h113zM284.998 85.999c15.333 0 31.5 2.49902 48.5 7.49902s34.333 12.667 52 23s33.5 22.833 47.5 37.5v192c-21.333 22 -45.333 38.833 -72 50.5s-52 17.5 -76 17.5c-18 0 -34.5 -3.83301 -49.5 -11.5s-27.5 -18.667 -37.5 -33
s-17.667 -31.666 -23 -51.999s-8 -42.833 -8 -67.5c0 -50 10.5 -89.833 31.5 -119.5s49.833 -44.5 86.5 -44.5z" />
    <glyph glyph-name="atilde" unicode="&#xe3;" 
d="M244 635c-18 0 -40 -20.3291 -66 -60.9961l-59 47c9.33301 14.667 15.5 24.167 18.5 28.5s9.66699 13 20 26s19.333 22.167 27 27.5s17.334 10.666 29.001 15.999s23.834 8 36.501 8c26 0 57.667 -14.333 95 -43c21.333 -15.333 37 -23 47 -23c18.667 0 41 20.333 67 61
l59 -46c-12.667 -19.333 -22.334 -33.5 -29.001 -42.5s-15.667 -19.333 -27 -31s-22.833 -19.834 -34.5 -24.501s-24.834 -7.33398 -39.501 -8.00098c-13.333 0 -26.5 2.5 -39.5 7.5s-22.5 9.66699 -28.5 14s-15.333 11.166 -28 20.499c-21.333 15.333 -37.333 23 -48 23z
M546 500.004l-0.00195312 -500.001h-113v58c-48.667 -48 -103.667 -72 -165 -72c-41.333 0 -78.666 11.833 -111.999 35.5s-59 55.5 -77 95.5s-27 84.333 -27 133c0 74.667 20.333 137.334 61 188.001s92.334 76 155.001 76c61.333 0 116.333 -24 165 -72v58h113z
M284.998 86.0029c24 0 49.334 5.83203 76.001 17.499s50.667 28.5 72 50.5v192c-10.667 11.333 -22.334 21.333 -35.001 30s-25.5 15.667 -38.5 21s-25.667 9.5 -38 12.5s-24.5 4.5 -36.5 4.5c-18 0 -34.5 -3.83301 -49.5 -11.5s-27.5 -18.667 -37.5 -33
s-17.667 -31.666 -23 -51.999s-8 -42.833 -8 -67.5c0 -50 10.5 -89.833 31.5 -119.5s49.833 -44.5 86.5 -44.5z" />
    <glyph glyph-name="adieresis" unicode="&#xe4;" 
d="M210 579c-17.333 0 -32 6 -44 18s-18 26.667 -18 44s6 32.166 18 44.499s26.667 18.5 44 18.5s32.166 -6.16699 44.499 -18.5s18.5 -27.166 18.5 -44.499s-6.16699 -32 -18.5 -44s-27.166 -18 -44.499 -18zM426.5 579c-17 0 -31.667 6 -44 18s-18.5 26.667 -18.5 44
s6.16699 32.166 18.5 44.499s27 18.5 44 18.5s31.667 -6.16699 44 -18.5s18.5 -27.166 18.5 -44.499s-6.16699 -32 -18.5 -44s-27 -18 -44 -18zM546 500l-0.00195312 -500.001h-113v58c-48.667 -48 -103.667 -72 -165 -72c-41.333 0 -78.666 11.833 -111.999 35.5
s-59 55.5 -77 95.5s-27 84.333 -27 133c0 74.667 20.333 137.334 61 188.001s92.334 76 155.001 76c61.333 0 116.333 -24 165 -72v58h113zM284.998 85.999c24 0 49.333 5.83301 76 17.5s50.667 28.5 72 50.5v192c-21.333 22 -45.333 38.833 -72 50.5s-52 17.5 -76 17.5
c-36.667 0 -65.5 -14.833 -86.5 -44.5s-31.5 -69.5 -31.5 -119.5s10.5 -89.833 31.5 -119.5s49.833 -44.5 86.5 -44.5z" />
    <glyph glyph-name="aring" unicode="&#xe5;" 
d="M318 540c-39.333 0 -71.333 12.333 -96 37s-37 55 -37 91c0 24 5.5 45.833 16.5 65.5s26.667 35.167 47 46.5s43.5 17 69.5 17c40 0 72.333 -12.333 97 -37s37 -55.167 37 -91.5s-12.333 -66.833 -37 -91.5s-57 -37 -97 -37zM318 729c-16 0 -29.165 -5.5 -39.498 -16.5
s-15.5 -25.833 -15.5 -44.5c0 -12 2.5 -22.667 7.5 -32s11.667 -16.333 20 -21s17.666 -7 27.999 -7s19.666 2.33301 27.999 7s15 11.667 20 21s7.5 20 7.5 32c0 18.667 -5.33301 33.5 -16 44.5s-24 16.5 -40 16.5zM546.002 500l-0.00195312 -500.001h-113v58
c-48.667 -48 -103.667 -72 -165 -72c-41.333 0 -78.666 11.833 -111.999 35.5s-59 55.5 -77 95.5s-27 84.333 -27 133c0 74.667 20.333 137.334 61 188.001s92.334 76 155.001 76c61.333 0 116.333 -24 165 -72v58h113zM285 85.999c24 0 49.333 5.83301 76 17.5
s50.667 28.5 72 50.5v192c-21.333 22 -45.333 38.833 -72 50.5s-52 17.5 -76 17.5c-36.667 0 -65.5 -14.833 -86.5 -44.5s-31.5 -69.5 -31.5 -119.5s10.5 -89.833 31.5 -119.5s49.833 -44.5 86.5 -44.5z" />
    <glyph glyph-name="ae" unicode="&#xe6;" horiz-adv-x="936" 
d="M272 514c21.333 0 43.165 -2.99609 65.498 -8.99609s44.833 -15.167 67.5 -27.5s44 -27.5 64 -45.5c46.667 55.333 108 82.666 184 81.999c50.667 0 94.334 -12 131.001 -36s63.5 -56 80.5 -96s25.5 -85.667 25.5 -137c0 -7.33301 -0.333008 -15 -1 -23h-366
c0.666992 -4.66699 1.33398 -9.66699 2.00098 -15c4.66699 -24.667 13 -46.334 25 -65.001s27.5 -33 46.5 -43s40.5 -15 64.5 -15c50 0 102.667 14.333 158 43l28 -73c-58.667 -45.333 -123 -68 -193 -68c-76 0 -137.667 27.333 -185 82c-30 -26.667 -62.167 -47 -96.5 -61
s-67.833 -21 -100.5 -21c-65.333 0 -118.333 25.167 -159 75.5s-61 113.166 -61 188.499s20.333 138.166 61 188.499s93.667 75.5 159 75.5zM655.999 416.004c-34.667 0 -63.168 -10.332 -85.501 -30.999s-37.166 -48.334 -44.499 -83.001h250
c-11.333 76 -51.333 114 -120 114zM286.998 414.005c-14.667 0 -28.332 -2.33594 -40.999 -7.00293s-23.834 -11.667 -33.501 -21s-17.834 -20.666 -24.501 -33.999s-11.834 -28.666 -15.501 -45.999s-5.5 -36 -5.5 -56c0 -50.667 10.5 -90.667 31.5 -120
s50.167 -44 87.5 -44c14 0 28.833 2 44.5 6s31.834 10.333 48.501 19s32.334 19.334 47.001 32.001c-13.333 33.333 -20 69 -20 107c0 38.667 6.66699 74.667 20 108c-21.333 17.333 -44.333 31 -69 41s-48 15 -70 15z" />
    <glyph glyph-name="ccedilla" unicode="&#xe7;" horiz-adv-x="556" 
d="M317 -44c30.667 -4 54.833 -14.499 72.5 -31.499s26.5 -38.5 26.5 -64.5c0 -30.667 -12.333 -56.167 -37 -76.5s-57.334 -30.833 -98.001 -31.5c-22.667 -0.666992 -47.167 1.83301 -73.5 7.5s-48.166 12.834 -65.499 21.501l28 60c31.333 -12 64 -18 98 -18
c33.333 0 50.333 12 51 36c-0.666992 23.333 -13.334 35 -38.001 35c-18 0 -35.667 -3.66699 -53 -11l-18 40l33 71c-56.667 14 -102 44.5 -136 91.5s-51 101.833 -51 164.5c0 76 23.5 139.167 70.5 189.5s107.833 75.166 182.5 74.499
c68.667 0 132.334 -22.333 191.001 -67l-28 -75c-53.333 28.667 -106 43 -158 43c-29.333 0 -54.833 -6.83301 -76.5 -20.5s-38.167 -33 -49.5 -58s-17 -53.833 -17 -86.5s5.66699 -61.334 17 -86.001s28.166 -44 50.499 -58s48.5 -21 78.5 -21
c50.667 0 102.667 14.333 156 43l28 -75c-55.333 -42.667 -116.333 -65 -183 -67l-9 -29c2.66699 0 5.33398 -0.333008 8.00098 -1z" />
    <glyph glyph-name="egrave" unicode="&#xe8;" horiz-adv-x="586" 
d="M358 564h-114l-139 173h125zM303 514c75.333 0 133.666 -24.833 174.999 -74.5s62 -114.5 62 -194.5c0 -7.33301 -0.333008 -15 -1 -23h-366c0 -2.66699 0.333008 -5.33398 1 -8.00098c6 -40 21.167 -71.667 45.5 -95s54.833 -35 91.5 -35c50 0 103 14.667 159 44l27 -74
c-59.333 -45.333 -123.666 -68 -192.999 -68c-73.333 0 -133 25.333 -179 76s-69 113.334 -69 188.001c0 75.333 22.833 138.333 68.5 189s105.167 75.667 178.5 75zM306 416c-34.667 0 -63.168 -10.332 -85.501 -30.999s-37.166 -48.334 -44.499 -83.001h250
c-11.333 76 -51.333 114 -120 114z" />
    <glyph glyph-name="eacute" unicode="&#xe9;" horiz-adv-x="586" 
d="M354 564h-113l128 173h125zM303 514c75.333 0 133.666 -24.833 174.999 -74.5s62 -114.5 62 -194.5c0 -7.33301 -0.333008 -15 -1 -23h-366c0 -2.66699 0.333008 -5.33398 1 -8.00098c6 -40 21.167 -71.667 45.5 -95s54.833 -35 91.5 -35c50 0 103 14.667 159 44l27 -74
c-59.333 -45.333 -123.666 -68 -192.999 -68c-73.333 0 -133 25.333 -179 76s-69 113.334 -69 188.001c0 75.333 22.833 138.333 68.5 189s105.167 75.667 178.5 75zM306 416c-34.667 0 -63.168 -10.332 -85.501 -30.999s-37.166 -48.334 -44.499 -83.001h250
c-11.333 76 -51.333 114 -120 114z" />
    <glyph glyph-name="ecircumflex" unicode="&#xea;" horiz-adv-x="586" 
d="M218 564h-121l147 173h116l148 -173h-122l-84 108zM303 514c75.333 0 133.666 -24.833 174.999 -74.5s62 -114.5 62 -194.5c0 -7.33301 -0.333008 -15 -1 -23h-366c0 -2.66699 0.333008 -5.33398 1 -8.00098c6 -40 21.167 -71.667 45.5 -95s54.833 -35 91.5 -35
c50 0 103 14.667 159 44l27 -74c-59.333 -45.333 -123.666 -68 -192.999 -68c-73.333 0 -133 25.333 -179 76s-69 113.334 -69 188.001c0 75.333 22.833 138.333 68.5 189s105.167 75.667 178.5 75zM176 302l250.002 0.000976562c-11.333 76 -51.333 114 -120 114
c-34.667 0 -63.334 -10.333 -86.001 -31s-37.334 -48.334 -44.001 -83.001z" />
    <glyph glyph-name="edieresis" unicode="&#xeb;" horiz-adv-x="586" 
d="M194 704c17.333 0 32 -6.16699 44 -18.5s18 -27.166 18 -44.499s-6 -32 -18 -44s-26.667 -18 -44 -18s-32.166 6 -44.499 18s-18.5 26.667 -18.5 44s6.16699 32.166 18.5 44.499s27.166 18.5 44.499 18.5zM410 704c17.333 0 32.166 -6.16699 44.499 -18.5
s18.5 -27.166 18.5 -44.499s-6.16699 -32 -18.5 -44s-27.166 -18 -44.499 -18s-32 6 -44 18s-18 26.667 -18 44s6 32.166 18 44.499s26.667 18.5 44 18.5zM303 514c75.333 0 133.666 -24.833 174.999 -74.5s62 -114.5 62 -194.5c0 -7.33301 -0.333008 -15 -1 -23h-366
c0 -2.66699 0.333008 -5.33398 1 -8.00098c6 -40 21.167 -71.667 45.5 -95s54.833 -35 91.5 -35c50 0 103 14.667 159 44l27 -74c-59.333 -45.333 -123.666 -68 -192.999 -68c-73.333 0 -133 25.333 -179 76s-69 113.334 -69 188.001c0 75.333 22.833 138.333 68.5 189
s105.167 75.667 178.5 75zM306 416c-34.667 0 -63.168 -10.332 -85.501 -30.999s-37.166 -48.334 -44.499 -83.001h250c-11.333 76 -51.333 114 -120 114z" />
    <glyph glyph-name="igrave" unicode="&#xec;" horiz-adv-x="255" 
d="M185 564h-114l-140 173h126zM186 0h-112v500h112v-500z" />
    <glyph glyph-name="iacute" unicode="&#xed;" horiz-adv-x="255" 
d="M181 564h-114l128 173h126zM186 0h-112v500h112v-500z" />
    <glyph glyph-name="icircumflex" unicode="&#xee;" horiz-adv-x="255" 
d="M334 564h-122l-84 108l-83 -108h-122l147 173h116zM74 500h112v-500h-112v500z" />
    <glyph glyph-name="idieresis" unicode="&#xef;" horiz-adv-x="255" 
d="M20 704c17.333 0 32.166 -6.16699 44.499 -18.5s18.5 -27.166 18.5 -44.499s-6.16699 -32 -18.5 -44s-27.166 -18 -44.499 -18s-32 6 -44 18s-18 26.667 -18 44s6 32.166 18 44.499s26.667 18.5 44 18.5zM237 704c17.333 0 32.002 -6.16602 44.002 -18.499
s18 -27.166 18 -44.499s-6 -32 -18 -44s-26.667 -18 -44 -18c-11.333 0 -21.833 2.83301 -31.5 8.5s-17.334 13.167 -23.001 22.5s-8.5 19.666 -8.5 30.999c0 17.333 6.16699 32.166 18.5 44.499s27.166 18.5 44.499 18.5zM186.002 0.000976562h-112v500h112v-500z" />
    <glyph glyph-name="eth" unicode="&#xf0;" horiz-adv-x="651" 
d="M567 652l-71.998 -39c64 -76 95.333 -175 94 -297c-0.666992 -46 -6.33398 -88.333 -17.001 -127s-26.5 -73.5 -47.5 -104.5s-49 -55.167 -84 -72.5s-75.5 -26 -121.5 -26c-77.333 0 -140.833 23.5 -190.5 70.5s-74.5 109.167 -74.5 186.5c0 70 21.833 126.5 65.5 169.5
s103.5 64.5 179.5 64.5c64 0 119.667 -21.667 167 -65c-11.333 62 -34 111.333 -68 148l-117 -63l-42 74l76 42c-24 8 -49.667 12 -77 12c-46 0 -91 -8.66699 -135 -26l-40 87c53.333 28 111.666 42 174.999 42c71.333 0 134.333 -18 189 -54l98 53zM471.002 305
l-0.00195312 10.001c-51.333 41.333 -107.666 62 -168.999 62c-43.333 0 -75.833 -11.5 -97.5 -34.5s-32.5 -55.833 -32.5 -98.5c0 -32.667 6.16699 -60.834 18.5 -84.501s29.333 -41.5 51 -53.5s46.834 -18 75.501 -18c98.667 0 150 72.333 154 217z" />
    <glyph glyph-name="ntilde" unicode="&#xf1;" horiz-adv-x="596" 
d="M235 635c-18 0 -40.3311 -20.3301 -66.998 -60.9971l-59 47c1.33301 1.33301 2.66602 3.33301 3.99902 6c10 14.667 18 26.167 24 34.5s14.667 18.333 26 30s23.5 20.5 36.5 26.5s26.833 9 41.5 9c26 0 57.667 -14.333 95 -43c20.667 -15.333 36.334 -23 47.001 -23
c18.667 0 41 20.333 67 61l59 -46c-12.667 -19.333 -22.334 -33.5 -29.001 -42.5s-15.667 -19.333 -27 -31s-22.833 -19.834 -34.5 -24.501s-24.834 -7.33398 -39.501 -8.00098c-13.333 0 -26.5 2.5 -39.5 7.5s-22.667 9.66699 -29 14s-15.5 11.166 -27.5 20.499
c-21.333 15.333 -37.333 23 -48 23zM360.002 514.003c48.667 0 89.334 -16 122.001 -48s49 -78.667 49 -140v-326h-112v318c0 32 -8.5 56 -25.5 72s-38.833 24 -65.5 24c-22.667 0 -47 -5.16699 -73 -15.5s-50.333 -25.166 -73 -44.499v-354h-113v500h113v-61
c17.333 16.667 36.333 30.667 57 42s41.167 19.666 61.5 24.999s40.166 8 59.499 8z" />
    <glyph glyph-name="ograve" unicode="&#xf2;" horiz-adv-x="625" 
d="M369 564h-114l-140 173h126zM313 514c50.667 0 95.667 -11.833 135 -35.5s69.333 -55.5 90 -95.5s31 -84.333 31 -133c0 -74.667 -23.667 -137.334 -71 -188.001s-109 -76 -185 -76s-137.833 25.333 -185.5 76s-71.5 113.334 -71.5 188.001
c0 75.333 23.833 138.333 71.5 189s109.5 75.667 185.5 75zM313 413c-44 0 -78.833 -15 -104.5 -45s-38.167 -69.333 -37.5 -118c0 -48.667 12.833 -88 38.5 -118s60.167 -45 103.5 -45s77.666 15 102.999 45s38 69.333 38 118s-12.667 88 -38 118s-59.666 45 -102.999 45z
" />
    <glyph glyph-name="oacute" unicode="&#xf3;" horiz-adv-x="625" 
d="M365 564h-114l128 173h126zM313 514c76 0 137.667 -25.332 185 -75.999s71 -113.334 71 -188.001s-23.667 -137.334 -71 -188.001s-109 -76 -185 -76s-137.833 25.333 -185.5 76s-71.5 113.334 -71.5 188.001c0 75.333 23.833 138.333 71.5 189s109.5 75.667 185.5 75z
M313 413.001c-44 0 -78.833 -15 -104.5 -45s-38.167 -69.333 -37.5 -118c0 -48.667 12.833 -88 38.5 -118s60.167 -45 103.5 -45s77.666 15 102.999 45s38 69.333 38 118s-12.667 88 -38 118s-59.666 45 -102.999 45z" />
    <glyph glyph-name="ocircumflex" unicode="&#xf4;" horiz-adv-x="625" 
d="M229 564h-122l148 173h115l148 -173h-122l-83 108zM313 514c50.667 0 95.667 -11.833 135 -35.5s69.333 -55.5 90 -95.5s31 -84.333 31 -133c0 -74.667 -23.667 -137.334 -71 -188.001s-109 -76 -185 -76s-137.833 25.333 -185.5 76s-71.5 113.334 -71.5 188.001
c0 75.333 23.833 138.333 71.5 189s109.5 75.667 185.5 75zM313 87c43.333 0 77.666 15 102.999 45s38 69.333 38 118s-12.667 88 -38 118s-59.666 45 -102.999 45c-44 0 -78.833 -15 -104.5 -45s-38.167 -69.333 -37.5 -118c0 -48.667 12.833 -88 38.5 -118
s60.167 -45 103.5 -45z" />
    <glyph glyph-name="otilde" unicode="&#xf5;" horiz-adv-x="625" 
d="M244 727c26.667 0 58.667 -14.332 96 -42.999c20.667 -15.333 36 -23 46 -23c18.667 0 41 20.333 67 61l59 -46c-12.667 -19.333 -22.334 -33.333 -29.001 -42s-15.5 -19 -26.5 -31s-22.5 -20.333 -34.5 -25s-25.333 -7.33398 -40 -8.00098
c-10 0 -19.5 1.16699 -28.5 3.5s-18 6 -27 11s-15.667 9 -20 12s-11.166 8.16699 -20.499 15.5c-21.333 15.333 -37.333 23 -48 23c-18 0 -40 -20.333 -66 -61l-59 47l3 6c10 14.667 18.167 26.167 24.5 34.5s15.166 18.333 26.499 30s23.333 20.5 36 26.5
s26.334 9 41.001 9zM313 514.001c50.667 0 95.667 -11.833 135 -35.5s69.333 -55.5 90 -95.5s31 -84.333 31 -133c0 -74.667 -23.667 -137.334 -71 -188.001s-109 -76 -185 -76s-137.833 25.333 -185.5 76s-71.5 113.334 -71.5 188.001c0 75.333 23.833 138.333 71.5 189
s109.5 75.667 185.5 75zM313 413.001c-44 0 -78.833 -15 -104.5 -45s-38.167 -69.333 -37.5 -118c0 -48.667 12.833 -88 38.5 -118s60.167 -45 103.5 -45s77.666 15 102.999 45s38 69.333 38 118s-12.667 88 -38 118s-59.666 45 -102.999 45z" />
    <glyph glyph-name="odieresis" unicode="&#xf6;" horiz-adv-x="625" 
d="M204 704c17.333 0 32.166 -6.16699 44.499 -18.5s18.5 -27.166 18.5 -44.499s-6.16699 -32 -18.5 -44s-27.166 -18 -44.499 -18s-32 6 -44 18s-18 26.667 -18 44s6 32.166 18 44.499s26.667 18.5 44 18.5zM421 704c17.333 0 32 -6.16699 44 -18.5s18 -27.166 18 -44.499
s-6 -32 -18 -44s-26.667 -18 -44 -18s-32.166 6 -44.499 18s-18.5 26.667 -18.5 44s6.16699 32.166 18.5 44.499s27.166 18.5 44.499 18.5zM313 514c76 0 137.667 -25.332 185 -75.999s71 -113.334 71 -188.001s-23.667 -137.334 -71 -188.001s-109 -76 -185 -76
s-137.833 25.333 -185.5 76s-71.5 113.334 -71.5 188.001c0 75.333 23.833 138.333 71.5 189s109.5 75.667 185.5 75zM313 413.001c-44 0 -78.833 -15 -104.5 -45s-38.167 -69.333 -37.5 -118c0 -48.667 12.833 -88 38.5 -118s60.167 -45 103.5 -45s77.666 15 102.999 45
s38 69.333 38 118s-12.667 88 -38 118s-59.666 45 -102.999 45z" />
    <glyph glyph-name="divide" unicode="&#xf7;" horiz-adv-x="588" 
d="M294 516c12 0 23.166 -3 33.499 -9s18.5 -14.333 24.5 -25s9 -22 9 -34c0 -18.667 -6.5 -34.5 -19.5 -47.5s-28.833 -19.5 -47.5 -19.5c-9.33301 0 -18.166 1.83301 -26.499 5.5s-15.5 8.33398 -21.5 14.001s-10.833 12.667 -14.5 21s-5.5 17.166 -5.5 26.499
c0 18.667 6.66699 34.667 20 48s29.333 20 48 20zM549.999 307v-99h-512v99h512zM293.999 134c18.667 0 34.502 -6.66504 47.502 -19.998s19.5 -29.333 19.5 -48c0 -12.667 -3 -24 -9 -34s-14.167 -18 -24.5 -24s-21.5 -9 -33.5 -9c-18.667 0 -34.667 6.5 -48 19.5
s-20 28.833 -20 47.5c0 7.33301 1.16699 14.5 3.5 21.5s5.66602 13.167 9.99902 18.5s9.16602 10.166 14.499 14.499s11.5 7.66602 18.5 9.99902s14.167 3.5 21.5 3.5z" />
    <glyph glyph-name="oslash" unicode="&#xf8;" horiz-adv-x="625" 
d="M511 550l-43 -87c32 -24 56.833 -54.667 74.5 -92s26.5 -77.666 26.5 -120.999c0 -74.667 -23.667 -137.334 -71 -188.001s-109 -76 -185 -76c-26 0 -50.667 3 -74 9l-22 -45h-103l42 86c-20.667 16 -38.667 35 -54 57s-26.833 46.333 -34.5 73s-11.5 54.667 -11.5 84
c0 75.333 23.833 138.333 71.5 189s109.5 75.667 185.5 75c24.667 0 48.667 -3.33301 72 -10l23 46h103zM171 250c0 -46 11.667 -83.667 35 -113l134 274c-8.66699 1.33301 -17.667 2 -27 2c-44 0 -78.833 -15 -104.5 -45s-38.167 -69.333 -37.5 -118zM313 87
c43.333 0 77.667 15 103 45s38 69.333 38 118c0 46.667 -11.333 84.667 -34 114l-135 -275c8.66699 -1.33301 18 -2 28 -2z" />
    <glyph glyph-name="ugrave" unicode="&#xf9;" horiz-adv-x="587" 
d="M236 564l-140 173h126l128 -173h-114zM522 500l-0.00195312 -500.003h-112v61c-25.333 -24 -53.5 -42.5 -84.5 -55.5s-61.167 -19.5 -90.5 -19.5c-24 0 -46 3.83301 -66 11.5s-38 18.834 -54 33.501s-28.5 34.334 -37.5 59.001s-13.5 52.667 -13.5 84v326h113v-318
c0 -31.333 7.33301 -55.166 22 -71.499s35.334 -24.5 62.001 -24.5c52.667 0 102.334 20 149.001 60v354h112z" />
    <glyph glyph-name="uacute" unicode="&#xfa;" horiz-adv-x="587" 
d="M346 564h-114l128 173h126zM522 500l-0.00195312 -500.003h-112v61c-25.333 -24 -53.5 -42.5 -84.5 -55.5s-61.167 -19.5 -90.5 -19.5c-24 0 -46 3.83301 -66 11.5s-38 18.834 -54 33.501s-28.5 34.334 -37.5 59.001s-13.5 52.667 -13.5 84v326h113v-318
c0 -31.333 7.33301 -55.166 22 -71.499s35.334 -24.5 62.001 -24.5c52.667 0 102.334 20 149.001 60v354h112z" />
    <glyph glyph-name="ucircumflex" unicode="&#xfb;" horiz-adv-x="587" 
d="M210 564h-122l148 173h116l147 -173h-122l-83 108zM522 500l-0.00292969 -500.001h-112v61c-25.333 -24 -53.5 -42.5 -84.5 -55.5s-61.167 -19.5 -90.5 -19.5c-49.333 0 -90.166 15.833 -122.499 47.5s-48.5 78.5 -48.5 140.5v326h113v-318
c0 -31.333 7.33301 -55.166 22 -71.499s35.334 -24.5 62.001 -24.5c52.667 0 102.334 20 149.001 60v354h112z" />
    <glyph glyph-name="udieresis" unicode="&#xfc;" horiz-adv-x="587" 
d="M185.5 579c-17 0 -31.667 6 -44 18s-18.5 26.667 -18.5 44s6.16699 32.166 18.5 44.499s27 18.5 44 18.5s31.667 -6.16699 44 -18.5s18.5 -27.166 18.5 -44.499s-6.16699 -32 -18.5 -44s-27 -18 -44 -18zM402 579c-17.333 0 -32 6 -44 18s-18 26.667 -18 44
s6 32.166 18 44.499s26.667 18.5 44 18.5s32 -6.16699 44 -18.5s18 -27.166 18 -44.499s-6 -32 -18 -44s-26.667 -18 -44 -18zM522 500l-0.00195312 -500.003h-112v61c-25.333 -24 -53.5 -42.5 -84.5 -55.5s-61.167 -19.5 -90.5 -19.5c-24 0 -46 3.83301 -66 11.5
s-38 18.834 -54 33.501s-28.5 34.334 -37.5 59.001s-13.5 52.667 -13.5 84v326h113v-318c0 -31.333 7.33301 -55.166 22 -71.499s35.334 -24.5 62.001 -24.5c52.667 0 102.334 20 149.001 60v354h112z" />
    <glyph glyph-name="yacute" unicode="&#xfd;" horiz-adv-x="571" 
d="M338 564h-114l128 173h126zM553 500l-292 -700h-103l80 202l-220 498h122l152 -363l143 363h118z" />
    <glyph glyph-name="thorn" unicode="&#xfe;" horiz-adv-x="611" 
d="M337 514c65.333 0.666992 118.5 -24.333 159.5 -75s61.5 -113.667 61.5 -189s-20.5 -138.333 -61.5 -189s-94.167 -75.667 -159.5 -75c-27.333 0 -55.166 6.33301 -83.499 19s-54.5 30.667 -78.5 54v-259h-113v900h113v-259c24 23.333 50.167 41.333 78.5 54
s56.166 19 83.499 19zM326 86c36 0 64.5 15.167 85.5 45.5s31.167 69.833 30.5 118.5c0.666992 48.667 -9.5 88.167 -30.5 118.5s-49.5 45.5 -85.5 45.5c-25.333 0 -51.333 -6 -78 -18s-51 -29 -73 -51v-190c22 -22 46.333 -39 73 -51s52.667 -18 78 -18z" />
    <glyph glyph-name="ydieresis" unicode="&#xff;" horiz-adv-x="571" 
d="M177 579c-17.333 0 -32 6 -44 18s-18 26.667 -18 44s6 32.166 18 44.499s26.667 18.5 44 18.5s32.166 -6.16699 44.499 -18.5s18.5 -27.166 18.5 -44.499s-6.16699 -32 -18.5 -44s-27.166 -18 -44.499 -18zM394 579c-17.333 0 -32.166 6 -44.499 18
s-18.5 26.667 -18.5 44s6.16699 32.166 18.5 44.499s27.166 18.5 44.499 18.5s32 -6.16699 44 -18.5s18 -27.166 18 -44.499s-6 -32 -18 -44s-26.667 -18 -44 -18zM553 500l-291 -700h-104l80 202l-220 498h122l152 -363l143 363h118z" />
    <glyph glyph-name="Amacron" unicode="&#x100;" horiz-adv-x="738" 
d="M536 787h-335v95h335v-95zM710 0h-131l-55 150h-311l-55 -150h-130l273 700h136zM250 251h238l-119 324z" />
    <glyph glyph-name="amacron" unicode="&#x101;" 
d="M486 587h-335v95h335v-95zM546 500l-0.00195312 -500.001h-113v58c-48.667 -48 -103.667 -72 -165 -72c-41.333 0 -78.666 11.833 -111.999 35.5s-59 55.5 -77 95.5s-27 84.333 -27 133c0 74.667 20.333 137.334 61 188.001s92.334 76 155.001 76
c61.333 0 116.333 -24 165 -72v58h113zM284.998 85.999c24 0 49.333 5.83301 76 17.5s50.667 28.5 72 50.5v192c-21.333 22 -45.333 38.833 -72 50.5s-52 17.5 -76 17.5c-36.667 0 -65.5 -14.833 -86.5 -44.5s-31.5 -69.5 -31.5 -119.5s10.5 -89.833 31.5 -119.5
s49.833 -44.5 86.5 -44.5z" />
    <glyph glyph-name="Abreve" unicode="&#x102;" horiz-adv-x="738" 
d="M462 933h94.001c0 -46.667 -17.333 -85.834 -52 -117.501s-79.667 -47.5 -135 -47.5s-100.5 15.833 -135.5 47.5s-52.5 70.834 -52.5 117.501h94c0 -24 8.83301 -43.333 26.5 -58s40.167 -22 67.5 -22s49.666 7.33301 66.999 22s26 34 26 58zM710.001 0h-131l-55 150
h-311l-55 -150h-130l273 700h136zM250.001 251h238l-119 324z" />
    <glyph glyph-name="abreve" unicode="&#x103;" 
d="M318 568c-55.333 0 -100.334 15.833 -135.001 47.5s-52 70.834 -52 117.501h94c0 -24 8.83301 -43.333 26.5 -58s39.834 -22 66.501 -22c27.333 0 49.833 7.33301 67.5 22s26.5 34 26.5 58h94c0 -46.667 -17.333 -85.834 -52 -117.501s-80 -47.5 -136 -47.5zM545.999 500
l-0.00195312 -500.001h-113v58c-48.667 -48 -103.667 -72 -165 -72c-41.333 0 -78.666 11.833 -111.999 35.5s-59 55.5 -77 95.5s-27 84.333 -27 133c0 74.667 20.333 137.334 61 188.001s92.334 76 155.001 76c61.333 0 116.333 -24 165 -72v58h113zM284.997 85.999
c24 0 49.333 5.83301 76 17.5s50.667 28.5 72 50.5v192c-21.333 22 -45.333 38.833 -72 50.5s-52 17.5 -76 17.5c-36.667 0 -65.5 -14.833 -86.5 -44.5s-31.5 -69.5 -31.5 -119.5s10.5 -89.833 31.5 -119.5s49.833 -44.5 86.5 -44.5z" />
    <glyph glyph-name="Aogonek" unicode="&#x104;" horiz-adv-x="738" 
d="M712 -122l24.002 -64c-28 -18.667 -62.667 -28 -104 -28c-34.667 0 -64.334 8.66699 -89.001 26s-37 41.333 -37 72c0 42 24.333 80.667 73 116l-55 150h-311l-55 -150h-130l273 700h136l273 -700h-58c-34 -26.667 -51 -54.667 -51 -84c0 -32.667 19.667 -49 59 -49
c19.333 0 36.666 3.66699 51.999 11zM250.002 251h238l-119 324z" />
    <glyph glyph-name="aogonek" unicode="&#x105;" 
d="M559 -127l22.999 -64.001c-28 -18.667 -62.667 -28.334 -104 -29.001c-34.667 0 -64.334 8.83301 -89.001 26.5s-37 41.5 -37 71.5c0 44.667 27 85.334 81 122.001v58c-48.667 -48 -103.667 -72 -165 -72c-41.333 0 -78.666 11.833 -111.999 35.5s-59 55.5 -77 95.5
s-27 84.333 -27 133c0 74.667 20.333 137.334 61 188.001s92.334 76 155.001 76c61.333 0 116.333 -24 165 -72v58h113v-500h-40c-39.333 -28.667 -59 -58.667 -59 -90c0 -32.667 19.667 -48.667 59 -48c19.333 -0.666992 37 3 53 11zM284.999 85.999
c24 0 49.333 5.83301 76 17.5s50.667 28.5 72 50.5v192c-21.333 22 -45.333 38.833 -72 50.5s-52 17.5 -76 17.5c-36.667 0 -65.5 -14.833 -86.5 -44.5s-31.5 -69.5 -31.5 -119.5s10.5 -89.833 31.5 -119.5s49.833 -44.5 86.5 -44.5z" />
    <glyph glyph-name="Cacute" unicode="&#x106;" horiz-adv-x="762" 
d="M457 764h-114l128 173h126zM423 714c45.333 0 91.667 -8.50098 139 -25.501s92 -41.5 134 -73.5l-32 -89c-78 51.333 -157 77 -237 77c-67.333 0 -121.833 -23.167 -163.5 -69.5s-62.5 -107.5 -62.5 -183.5c0 -75.333 21 -136.333 63 -183s96.333 -70 163 -70
c80 0 159.333 25.667 238 77l32 -88c-27.333 -21.333 -56.833 -39.666 -88.5 -54.999s-63.167 -26.666 -94.5 -33.999s-61.666 -11 -90.999 -11c-51.333 0 -98.833 9.5 -142.5 28.5s-80.5 45 -110.5 78s-53.333 71.667 -70 116s-25 91.5 -25 141.5
c0 67.333 14.167 128.666 42.5 183.999s69.166 99.333 122.499 132s114.333 48.667 183 48z" />
    <glyph glyph-name="cacute" unicode="&#x107;" horiz-adv-x="556" 
d="M350 564h-113l127 173h126zM309 514c68.667 0 132.334 -22.334 191.001 -67.001l-28 -75c-53.333 28.667 -106 43 -158 43c-44.667 0 -79.834 -15 -105.501 -45s-38.167 -70 -37.5 -120c0 -49.333 13 -89.166 39 -119.499s61.667 -45.5 107 -45.5
c50.667 0 102.667 14.333 156 43l28 -75c-58.667 -44.667 -122.667 -67 -192 -67c-74.667 0 -135.5 25.333 -182.5 76s-70.5 113.334 -70.5 188.001c0 76 23.5 139.167 70.5 189.5s107.833 75.166 182.5 74.499z" />
    <glyph glyph-name="Cdotaccent" unicode="&#x10a;" horiz-adv-x="762" 
d="M404.5 904c17 0 31.667 -6.16699 44 -18.5s18.5 -27.166 18.5 -44.499s-6.16699 -32 -18.5 -44s-27 -18 -44 -18s-31.667 6 -44 18s-18.5 26.667 -18.5 44s6.16699 32.166 18.5 44.499s27 18.5 44 18.5zM423 714c30 0 60.499 -3.66602 91.499 -10.999s62 -18.5 93 -33.5
s60.5 -33.167 88.5 -54.5l-32 -89c-78 51.333 -157 77 -237 77c-67.333 0 -121.833 -23.167 -163.5 -69.5s-62.5 -107.5 -62.5 -183.5c0 -50 9.5 -94.167 28.5 -132.5s45.667 -68 80 -89s73.5 -31.5 117.5 -31.5c80 0 159.333 25.667 238 77l32 -88
c-41.333 -32 -86.166 -56.667 -134.499 -74s-94.833 -26 -139.5 -26c-68.667 0 -129.667 16.333 -183 49s-94.166 76.5 -122.499 131.5s-42.5 116.167 -42.5 183.5s14.167 128.666 42.5 183.999s69.166 99.333 122.499 132s114.333 48.667 183 48z" />
    <glyph glyph-name="cdotaccent" unicode="&#x10b;" horiz-adv-x="556" 
d="M298 704c17.333 0 32 -6.16602 44 -18.499s18 -27.166 18 -44.499s-6 -32 -18 -44s-26.667 -18 -44 -18c-11.333 0 -21.833 2.83301 -31.5 8.5s-17.167 13.167 -22.5 22.5s-8 19.666 -8 30.999c0 17.333 6 32.166 18 44.499s26.667 18.5 44 18.5zM309 514.001
c68.667 0 132.334 -22.334 191.001 -67.001l-28 -75c-53.333 28.667 -106 43 -158 43c-44.667 0 -79.834 -15 -105.501 -45s-38.167 -70 -37.5 -120c0 -49.333 13 -89.166 39 -119.499s61.667 -45.5 107 -45.5c50.667 0 102.667 14.333 156 43l28 -75
c-58.667 -44.667 -122.667 -67 -192 -67c-74.667 0 -135.5 25.333 -182.5 76s-70.5 113.334 -70.5 188.001c0 76 23.5 139.167 70.5 189.5s107.833 75.166 182.5 74.499z" />
    <glyph glyph-name="Ccaron" unicode="&#x10c;" horiz-adv-x="762" 
d="M347 764l-148 173h122l84 -108l83 108h122l-147 -173h-116zM665 174l32 -87.999c-41.333 -32 -86.166 -56.667 -134.499 -74s-94.833 -26 -139.5 -26c-51.333 0 -98.833 9.5 -142.5 28.5s-80.5 45 -110.5 78s-53.5 71.667 -70.5 116s-25.5 91.5 -25.5 141.5
c0 67.333 14.333 128.666 43 183.999s69.667 99.333 123 132s114.333 48.667 183 48c45.333 0 91.666 -8.5 138.999 -25.5s92 -41.5 134 -73.5l-32 -89c-78 51.333 -157 77 -237 77c-67.333 0 -121.833 -23.167 -163.5 -69.5s-62.5 -107.5 -62.5 -183.5
c0 -75.333 21 -136.333 63 -183s96.333 -70 163 -70c80 0 159.333 25.667 238 77z" />
    <glyph glyph-name="ccaron" unicode="&#x10d;" horiz-adv-x="556" 
d="M240 564l-148 173h122l84 -108l84 108h121l-147 -173h-116zM317 85c50.667 0 102.667 14.332 156 42.999l28 -75c-58.667 -44.667 -122.667 -67 -192 -67c-74.667 0 -135.5 25.333 -182.5 76s-70.5 113.334 -70.5 188.001c0 76 23.5 139.167 70.5 189.5
s107.833 75.166 182.5 74.499c68.667 0 132.334 -22.333 191.001 -67l-28 -75c-53.333 28.667 -106 43 -158 43c-44.667 0 -79.834 -15 -105.501 -45s-38.167 -70 -37.5 -120c0 -49.333 13 -89.166 39 -119.499s61.667 -45.5 107 -45.5z" />
    <glyph glyph-name="Dcaron" unicode="&#x10e;" horiz-adv-x="772" 
d="M318 764l-148 173h122l84 -108l83 108h122l-147 -173h-116zM125 700h227c103.333 0 186.833 -32.833 250.5 -98.5s95.5 -149.5 95.5 -251.5s-31.833 -185.833 -95.5 -251.5s-147.167 -98.5 -250.5 -98.5h-260v700h33zM214 102l133.001 0.000976562
c45.333 0 85 10.167 119 30.5s60.167 49.166 78.5 86.499s27.5 81 27.5 131c0 75.333 -20.333 135.5 -61 180.5s-95.334 67.5 -164.001 67.5h-133v-496z" />
    <glyph glyph-name="dcaron" unicode="&#x10f;" horiz-adv-x="624" 
d="M753 666c4 -27.333 -2.83301 -57.332 -20.5 -89.999s-40.5 -59.334 -68.5 -80.001l-38 24c28.667 26 47.667 56.333 57 91c-12.667 2 -23.334 8.16699 -32.001 18.5s-13 22.5 -13 36.5c0 7.33301 1.5 14.5 4.5 21.5s7 13 12 18s11 9 18 12s14.167 4.5 21.5 4.5
c14.667 0 27.334 -5 38.001 -15s17.667 -23.667 21 -41zM438 700.001h112.998v-700h-113v59c-49.333 -48.667 -104.666 -73 -165.999 -73c-42 0 -79.5 11.833 -112.5 35.5s-58.5 55.5 -76.5 95.5s-27 84.333 -27 133c0 74.667 20.333 137.5 61 188.5
s93.334 76.167 158.001 75.5c27.333 0 55.333 -6.16699 84 -18.5s55 -30.5 79 -54.5v259zM289.998 86.001c23.333 0 48.501 6 75.501 18s51.167 29 72.5 51v190c-22 22 -46.333 39 -73 51s-52.334 18 -77.001 18c-24 0 -45 -7 -63 -21s-31.5 -33.333 -40.5 -58
s-13.5 -53 -13.5 -85c0 -49.333 10.5 -89 31.5 -119s50.167 -45 87.5 -45z" />
    <glyph glyph-name="Dcroat" unicode="&#x110;" horiz-adv-x="772" 
d="M114 700h238c103.333 0 186.833 -32.833 250.5 -98.5s95.5 -149.5 95.5 -251.5s-31.833 -185.833 -95.5 -251.5s-147.167 -98.5 -250.5 -98.5h-260v304h-92v92h92v304h22zM214 102l133.001 0.000976562c45.333 0 85 10.167 119 30.5s60.167 49.166 78.5 86.499
s27.5 81 27.5 131c0 75.333 -20.333 135.5 -61 180.5s-95.334 67.5 -164.001 67.5h-133v-202h163v-92h-163v-202z" />
    <glyph glyph-name="dcroat" unicode="&#x111;" horiz-adv-x="624" 
d="M646 547h-95.001v-547h-113v59c-48.667 -48.667 -104 -73 -166 -73c-42 0 -79.5 11.833 -112.5 35.5s-58.5 55.5 -76.5 95.5s-27 84.333 -27 133c0 74.667 20.333 137.5 61 188.5s93.334 76.167 158.001 75.5c27.333 0 55.333 -6.16699 84 -18.5s55 -30.5 79 -54.5v106
h-127v86h127v67h113v-67h95v-86zM289.999 86c23.333 0 48.502 6 75.502 18s51.167 29 72.5 51v190c-22 22 -46.333 39 -73 51s-52.334 18 -77.001 18c-36.667 0 -65.334 -15 -86.001 -45s-31 -69.667 -31 -119s10.5 -89 31.5 -119s50.167 -45 87.5 -45z" />
    <glyph glyph-name="Emacron" unicode="&#x112;" horiz-adv-x="628" 
d="M503 787h-334v95h334v-95zM580 102v-102h-488v700h478v-102h-356v-181h317v-101h-317v-214h366z" />
    <glyph glyph-name="emacron" unicode="&#x113;" horiz-adv-x="586" 
d="M470 587h-335v95h335v-95zM303 514c75.333 0 133.666 -24.833 174.999 -74.5s62 -114.5 62 -194.5c0 -7.33301 -0.333008 -15 -1 -23h-366c0 -2.66699 0.333008 -5.33398 1 -8.00098c6 -40 21.167 -71.667 45.5 -95s54.833 -35 91.5 -35c50 0 103 14.667 159 44l27 -74
c-59.333 -45.333 -123.666 -68 -192.999 -68c-73.333 0 -133 25.333 -179 76s-69 113.334 -69 188.001c0 75.333 22.833 138.333 68.5 189s105.167 75.667 178.5 75zM306 416c-34.667 0 -63.332 -10.332 -85.999 -30.999s-37.334 -48.334 -44.001 -83.001h250
c-11.333 76 -51.333 114 -120 114z" />
    <glyph glyph-name="Edotaccent" unicode="&#x116;" horiz-adv-x="628" 
d="M336 779c-17.333 0 -32 6 -44 18s-18 26.667 -18 44s6 32.166 18 44.499s26.667 18.5 44 18.5s32 -6.16699 44 -18.5s18 -27.166 18 -44.499s-6 -32 -18 -44s-26.667 -18 -44 -18zM580 102v-102h-488v700h478v-102h-356v-181h317v-101h-317v-214h366z" />
    <glyph glyph-name="edotaccent" unicode="&#x117;" horiz-adv-x="586" 
d="M302 704c17.333 0 32 -6.16699 44 -18.5s18 -27.166 18 -44.499s-6 -32 -18 -44s-26.667 -18 -44 -18s-32 6 -44 18s-18 26.667 -18 44s6 32.166 18 44.499s26.667 18.5 44 18.5zM303 514c75.333 0 133.666 -24.833 174.999 -74.5s62 -114.5 62 -194.5
c0 -7.33301 -0.333008 -15 -1 -23h-366c0 -2.66699 0.333008 -5.33398 1 -8.00098c6 -40 21.167 -71.667 45.5 -95s54.833 -35 91.5 -35c50 0 103 14.667 159 44l27 -74c-59.333 -45.333 -123.666 -68 -192.999 -68c-73.333 0 -133 25.333 -179 76s-69 113.334 -69 188.001
c0 75.333 22.833 138.333 68.5 189s105.167 75.667 178.5 75zM306 416c-34.667 0 -63.332 -10.332 -85.999 -30.999s-37.334 -48.334 -44.001 -83.001h250c-11.333 76 -51.333 114 -120 114z" />
    <glyph glyph-name="Eogonek" unicode="&#x118;" horiz-adv-x="628" 
d="M597 -122l22.999 -64c-28 -18.667 -62.667 -28 -104 -28c-22 0 -42.333 3.66699 -61 11s-34.167 18.5 -46.5 33.5s-18.5 32.833 -18.5 53.5c0.666992 42 25.334 80.667 74.001 116h-372v700h478v-102h-356v-181h317v-101h-317v-214h366v-102h-43
c-34.667 -26.667 -52 -54.667 -52 -84c0 -32.667 19.667 -49 59 -49c19.333 0 37 3.66699 53 11z" />
    <glyph glyph-name="eogonek" unicode="&#x119;" horiz-adv-x="586" 
d="M303 514c75.333 0 133.667 -24.833 175 -74.5s62 -114.5 62 -194.5c0 -7.33301 -0.333008 -15 -1 -23h-366c0 -2.66699 0.333008 -5.33398 1 -8.00098c6 -40 21.167 -71.667 45.5 -95s54.833 -35 91.5 -35c50 0 103 14.667 159 44l27 -74
c-22 -16.667 -45.667 -30.667 -71 -42c-40 -28.667 -60.333 -59 -61 -91c0.666992 -32.667 20.667 -48.667 60 -48c18.667 -0.666992 36 3 52 11l23 -64c-28 -18.667 -62.667 -28.334 -104 -29.001c-34.667 0.666992 -64.167 9.66699 -88.5 27s-36.833 41 -37.5 71
c0.666992 34.667 17.667 67.334 51 98.001c-6 -0.666992 -11.667 -1 -17 -1c-73.333 0 -133 25.333 -179 76s-69 113.334 -69 188.001c0 75.333 22.833 138.333 68.5 189s105.167 75.667 178.5 75zM176.001 302l249.999 0.000976562c-11.333 76 -51.333 114 -120 114
c-34.667 0 -63.167 -10.333 -85.5 -31s-37.166 -48.334 -44.499 -83.001z" />
    <glyph glyph-name="Ecaron" unicode="&#x11a;" horiz-adv-x="628" 
d="M278 764l-147 173h121l84 -108l84 108h121l-147 -173h-116zM580 102v-102h-488v700h478v-102h-356v-181h317v-101h-317v-214h366z" />
    <glyph glyph-name="ecaron" unicode="&#x11b;" horiz-adv-x="586" 
d="M244 564l-147 173h121l84 -108l84 108h122l-148 -173h-116zM303 514c75.333 0 133.666 -24.832 174.999 -74.499s62 -114.5 62 -194.5c0 -7.33301 -0.333008 -15 -1 -23h-366c0 -2.66699 0.333008 -5.33398 1 -8.00098c6 -40 21.167 -71.667 45.5 -95
s54.833 -35 91.5 -35c50 0 103 14.667 159 44l27 -74c-59.333 -45.333 -123.666 -68 -192.999 -68c-48.667 0 -92.167 11.833 -130.5 35.5s-67.5 55.5 -87.5 95.5s-30 84.333 -30 133c0 75.333 22.833 138.333 68.5 189s105.167 75.667 178.5 75zM176 302.001
l249.999 0.000976562c-11.333 76 -51.333 114 -120 114c-34.667 0 -63.167 -10.333 -85.5 -31s-37.166 -48.334 -44.499 -83.001z" />
    <glyph glyph-name="Gbreve" unicode="&#x11e;" horiz-adv-x="820" 
d="M415 768c-55.333 0 -100.332 15.833 -134.999 47.5s-52 70.834 -52 117.501h94c0 -24 8.66699 -43.333 26 -58s39.666 -22 66.999 -22s49.833 7.33301 67.5 22s26.5 34 26.5 58h93c0 -46.667 -17.167 -85.834 -51.5 -117.501s-79.5 -47.5 -135.5 -47.5zM732.001 379
v-379.001h-92l-11 60c-68 -49.333 -139.667 -74 -215 -74c-66 0 -125 16.333 -177 49s-92 76.5 -120 131.5s-42.333 115.833 -43 182.5c0.666992 68 15.334 129.667 44.001 185s69.834 99.333 123.501 132s114.5 48.667 182.5 48c47.333 0 95.5 -8.83301 144.5 -26.5
s95.167 -42.834 138.5 -75.501l-32 -89c-80.667 53.333 -163.334 80 -248.001 80c-66.667 0 -121 -23.167 -163 -69.5s-63 -107.833 -63 -184.5c0 -75.333 20.667 -136.166 62 -182.499s94.666 -69.5 159.999 -69.5c62 0.666992 125.333 18.334 190 53.001v128h-132v101h251
z" />
    <glyph glyph-name="gbreve" unicode="&#x11f;" horiz-adv-x="620" 
d="M316 568c-55.333 0 -100.499 15.833 -135.499 47.5s-52.5 70.834 -52.5 117.501h94c0 -24 8.83301 -43.333 26.5 -58s40.167 -22 67.5 -22s49.666 7.33301 66.999 22s26 34 26 58h94c0 -46.667 -17.333 -85.834 -52 -117.501s-79.667 -47.5 -135 -47.5zM551.001 500
l0.000976562 -480.999c0 -76.667 -20.833 -134.334 -62.5 -173.001s-95.5 -58 -161.5 -58c-82.667 -0.666992 -159.334 26.333 -230.001 81l8 89c33.333 -24 69 -42.5 107 -55.5s72.667 -19.5 104 -19.5c81.333 0 122 45.667 122 137v55
c-24.667 -23.333 -51 -40.833 -79 -52.5s-56.667 -17.5 -86 -17.5c-63.333 0 -115.333 24.333 -156 73s-61 109 -61 181s20.333 132.5 61 181.5s92.667 73.5 156 73.5c60.667 0 115.667 -23.667 165 -71v57h113zM290.002 100.001c24 0 49.333 5.83105 76 17.498
s50.667 27.834 72 48.501v182c-20.667 20.667 -44.5 36.834 -71.5 48.501s-52.5 17.5 -76.5 17.5c-25.333 0 -46.833 -6.5 -64.5 -19.5s-31.167 -31.167 -40.5 -54.5s-14 -51 -14 -83c0 -48 10.5 -86.167 31.5 -114.5s50.167 -42.5 87.5 -42.5z" />
    <glyph glyph-name="Gdotaccent" unicode="&#x120;" horiz-adv-x="820" 
d="M415 779c-17.333 0 -32 6 -44 18s-18 26.667 -18 44s6 32.166 18 44.499s26.667 18.5 44 18.5s32 -6.16699 44 -18.5s18 -27.166 18 -44.499s-6 -32 -18 -44s-26.667 -18 -44 -18zM732 379v-379.001h-92l-11 60c-68 -49.333 -139.667 -74 -215 -74
c-66 0 -125 16.333 -177 49s-92 76.5 -120 131.5s-42.333 115.833 -43 182.5c0.666992 68 15.334 129.667 44.001 185s69.834 99.333 123.501 132s114.5 48.667 182.5 48c47.333 0 95.5 -8.83301 144.5 -26.5s95.167 -42.834 138.5 -75.501l-32 -89
c-80.667 53.333 -163.334 80 -248.001 80c-66.667 0 -121 -23.167 -163 -69.5s-63 -107.833 -63 -184.5c0 -75.333 20.667 -136.166 62 -182.499s94.666 -69.5 159.999 -69.5c62 0.666992 125.333 18.334 190 53.001v128h-132v101h251z" />
    <glyph glyph-name="gdotaccent" unicode="&#x121;" horiz-adv-x="620" 
d="M315.5 579c-17 0 -31.667 6 -44 18s-18.5 26.667 -18.5 44s6.16699 32.166 18.5 44.499s27 18.5 44 18.5s31.667 -6.16699 44 -18.5s18.5 -27.166 18.5 -44.499s-6.16699 -32 -18.5 -44s-27 -18 -44 -18zM551 500l0.000976562 -480.999
c0 -76.667 -20.833 -134.334 -62.5 -173.001s-95.5 -58 -161.5 -58c-82.667 -0.666992 -159.334 26.333 -230.001 81l8 89c33.333 -24 69 -42.5 107 -55.5s72.667 -19.5 104 -19.5c81.333 0 122 45.667 122 137v55c-49.333 -46.667 -104.333 -70 -165 -70
c-63.333 0 -115.333 24.333 -156 73s-61 109 -61 181s20.333 132.5 61 181.5s92.667 73.5 156 73.5c60.667 0 115.667 -23.667 165 -71v57h113zM290.001 100.001c24 0 49.5 5.83203 76.5 17.499s50.833 27.834 71.5 48.501v182c-14 13.333 -29.5 25 -46.5 35
s-34.167 17.667 -51.5 23s-34 8 -50 8c-25.333 0 -46.833 -6.5 -64.5 -19.5s-31.167 -31.167 -40.5 -54.5s-14 -51 -14 -83c0 -48 10.5 -86.167 31.5 -114.5s50.167 -42.5 87.5 -42.5z" />
    <glyph glyph-name="Gcommaaccent" unicode="&#x122;" horiz-adv-x="820" 
d="M732 379v-379.001h-92l-11 60c-68 -49.333 -139.667 -74 -215 -74c-66 0 -125 16.333 -177 49s-92 76.5 -120 131.5s-42.333 115.833 -43 182.5c0.666992 68 15.334 129.667 44.001 185s69.834 99.333 123.501 132s114.5 48.667 182.5 48
c47.333 0 95.5 -8.83301 144.5 -26.5s95.167 -42.834 138.5 -75.501l-32 -89c-80.667 53.333 -163.334 80 -248.001 80c-66.667 0 -121 -23.167 -163 -69.5s-63 -107.833 -63 -184.5c0 -75.333 20.667 -136.166 62 -182.499s94.666 -69.5 159.999 -69.5
c62 0.666992 125.333 18.334 190 53.001v128h-132v101h251zM420 -56.001c14.667 0.666992 27.333 -4.16699 38 -14.5s17.334 -24.166 20.001 -41.499c4 -27.333 -2.66699 -57.333 -20 -90s-40 -59.334 -68 -80.001l-39 25c29.333 26 48.333 56 57 90
c-12.667 2.66699 -23.334 9 -32.001 19s-13 22 -13 36c0 16 5.5 29.5 16.5 40.5s24.5 16.167 40.5 15.5z" />
    <glyph glyph-name="gcommaaccent" unicode="&#x123;" horiz-adv-x="620" 
d="M311 550c-14.667 0 -27.333 4.99902 -38 14.999s-17.334 23.667 -20.001 41c-4.66699 27.333 1.83301 57.333 19.5 90s40.5 59.334 68.5 80.001l38 -25c-28.667 -26 -47.667 -56 -57 -90c12.667 -2.66699 23.334 -9 32.001 -19s13 -22 13 -36
c0 -10.667 -2.5 -20.167 -7.5 -28.5s-11.833 -15 -20.5 -20s-18 -7.5 -28 -7.5zM551.001 499.999l0.000976562 -480.999c0 -76.667 -20.833 -134.334 -62.5 -173.001s-95.5 -58 -161.5 -58c-82.667 -0.666992 -159.334 26.333 -230.001 81l8 89
c33.333 -24 69 -42.5 107 -55.5s72.667 -19.5 104 -19.5c81.333 0 122 45.667 122 137v55c-49.333 -46.667 -104.333 -70 -165 -70c-63.333 0 -115.333 24.333 -156 73s-61 109 -61 181s20.333 132.5 61 181.5s92.667 73.5 156 73.5c60.667 0 115.667 -23.667 165 -71v57
h113zM290.002 100c24 0 49.5 5.83105 76.5 17.498s50.833 27.834 71.5 48.501v182c-20.667 20.667 -44.5 36.834 -71.5 48.501s-52.5 17.5 -76.5 17.5c-37.333 0 -66.5 -14 -87.5 -42s-31.5 -66.333 -31.5 -115c0 -48 10.5 -86.167 31.5 -114.5s50.167 -42.5 87.5 -42.5z
" />
    <glyph glyph-name="Hbar" unicode="&#x126;" horiz-adv-x="793" 
d="M793 514h-91v-514h-122v315h-365v-315h-122v514h-93v93h93v93h122v-93h365v93h122v-93h91v-93zM580 514h-365v-98h365v98z" />
    <glyph glyph-name="hbar" unicode="&#x127;" horiz-adv-x="601" 
d="M364 514c49.333 0 90.168 -16 122.501 -48s48.5 -78.667 48.5 -140v-326h-112v318c0 32 -8.66699 56 -26 72s-40 24 -68 24c-48.667 0 -96.334 -20 -143.001 -60v-354h-113v547h-95v86h95v67h113v-67h127v-86h-127v-108c17.333 16 36 29.667 56 41s40.333 19.833 61 25.5
s41 8.5 61 8.5z" />
    <glyph glyph-name="Itilde" unicode="&#x128;" horiz-adv-x="307" 
d="M85 927c26 0 57.667 -14.3291 95 -42.9961c21.333 -15.333 37 -23 47 -23c18.667 0 41 20.333 67 61l59 -46c-12.667 -19.333 -22.334 -33.5 -29.001 -42.5s-15.667 -19.333 -27 -31s-22.833 -19.834 -34.5 -24.501s-24.834 -7.33398 -39.501 -8.00098
c-13.333 0 -26.5 2.5 -39.5 7.5s-22.667 9.66699 -29 14s-15.5 11.166 -27.5 20.499c-21.333 15.333 -37.333 23 -48 23c-18 0 -40 -20.333 -66 -61l-60 47c10 14.667 16.5 24.167 19.5 28.5s9.66699 13 20 26s19.333 22.167 27 27.5s17.334 10.666 29.001 15.999
s23.834 8 36.501 8zM214 0.00390625h-122v700h122v-700z" />
    <glyph glyph-name="itilde" unicode="&#x129;" horiz-adv-x="255" 
d="M60 727c26.667 0 58.333 -14.3301 95 -42.9971c21.333 -15.333 37 -23 47 -23c18.667 0 41 20.333 67 61l59 -46c-12.667 -19.333 -22.334 -33.5 -29.001 -42.5s-15.667 -19.333 -27 -31s-22.833 -19.834 -34.5 -24.501s-24.834 -7.33398 -39.501 -8.00098
c-10 0 -19.5 1.16699 -28.5 3.5s-18 6 -27 11s-15.667 9 -20 12s-11.166 8.16699 -20.499 15.5c-21.333 15.333 -37.333 23 -48 23c-18 0 -40 -20.333 -66 -61l-59 47c9.33301 14.667 15.5 24.167 18.5 28.5s9.83301 13 20.5 26s19.667 22.167 27 27.5
s16.833 10.666 28.5 15.999s23.834 8 36.501 8zM185.999 0.00292969h-112v500h112v-500z" />
    <glyph glyph-name="Imacron" unicode="&#x12a;" horiz-adv-x="307" 
d="M321 787h-335v95h335v-95zM214 0h-122v700h122v-700z" />
    <glyph glyph-name="imacron" unicode="&#x12b;" horiz-adv-x="255" 
d="M296 587h-335v95h335v-95zM186 0h-112v500h112v-500z" />
    <glyph glyph-name="Iogonek" unicode="&#x12e;" horiz-adv-x="307" 
d="M252 -138l23.001 -64c-28 -18.667 -62.667 -28 -104 -28c-34.667 0 -64.334 8.66699 -89.001 26s-37 41.333 -37 72c0 25.333 9 49.5 27 72.5s41 42.833 69 59.5h-49v700h122v-700c-49.333 -32 -74 -65.333 -74 -100c0 -32.667 19.667 -49 59 -49
c19.333 0 37 3.66699 53 11z" />
    <glyph glyph-name="iogonek" unicode="&#x12f;" horiz-adv-x="255" 
d="M128.5 579c-17 0 -31.667 6 -44 18s-18.5 26.667 -18.5 44s6.16699 32.166 18.5 44.499s27 18.5 44 18.5s31.667 -6.16699 44 -18.5s18.5 -27.166 18.5 -44.499s-6.16699 -32 -18.5 -44s-27 -18 -44 -18zM224 -138l23.001 -64c-28 -18.667 -62.667 -28 -104 -28
c-34.667 0 -64.334 8.66699 -89.001 26s-37 41.333 -37 72c0 25.333 9 49.5 27 72.5s41 42.833 69 59.5h-39v500h112v-500c-49.333 -32 -74 -65.333 -74 -100c0 -32.667 19.667 -49 59 -49c19.333 0 37 3.66699 53 11z" />
    <glyph glyph-name="Idotaccent" unicode="&#x130;" horiz-adv-x="307" 
d="M153 904c17.333 0 32.165 -6.16602 44.498 -18.499s18.5 -27.166 18.5 -44.499s-6.16699 -32 -18.5 -44s-27.166 -18 -44.499 -18c-11.333 0 -21.666 2.83301 -30.999 8.5s-16.833 13.167 -22.5 22.5s-8.5 19.666 -8.5 30.999c0 17.333 6 32.166 18 44.499
s26.667 18.5 44 18.5zM213.999 0.000976562h-122v700h122v-700z" />
    <glyph glyph-name="dotlessi" unicode="&#x131;" horiz-adv-x="255" 
d="M186 0h-112v500h112v-500z" />
    <glyph glyph-name="IJ" unicode="&#x132;" horiz-adv-x="779" 
d="M214 0h-122v700h122v-700zM686 700v-457c0 -72.667 -23 -133.667 -69 -183s-106 -74 -180 -74c-36.667 0 -71 6.33301 -103 19l33 92c20.667 -5.33301 42 -8 64 -8c40 0 72.167 14.167 96.5 42.5s36.5 65.5 36.5 111.5v457h122z" />
    <glyph glyph-name="ij" unicode="&#x133;" horiz-adv-x="526" 
d="M130 704c18.667 0 34.5 -6.33301 47.5 -19s19.5 -28.334 19.5 -47.001c0 -12 -3 -23 -9 -33s-14.167 -18 -24.5 -24s-21.5 -9 -33.5 -9s-23.167 3 -33.5 9s-18.5 14 -24.5 24s-9 21 -9 33c0 18.667 6.5 34.334 19.5 47.001s28.833 19 47.5 19zM395 704
c18.667 0 34.665 -6.33301 47.998 -19s20 -28.167 20 -46.5s-6.66699 -34 -20 -47s-29.166 -19.5 -47.499 -19.5s-34.166 6.5 -47.499 19.5s-20 28.5 -20 46.5c0 12 3 23.167 9 33.5s14.167 18.333 24.5 24s21.5 8.5 33.5 8.5zM185.998 0h-112v500h112v-500zM451.998 500
v-553.998c0 -54.667 -13.333 -95.334 -40 -122.001s-61 -40 -103 -40c-27.333 0 -56.333 4.66699 -87 14l7 87c16.667 -3.33301 32 -5 46 -5c20.667 0 36.5 6.16699 47.5 18.5s16.5 30.166 16.5 53.499v548h113z" />
    <glyph glyph-name="Kcommaaccent" unicode="&#x136;" horiz-adv-x="721" 
d="M693 0h-149l-223 342l-107 -109v-233h-122v700h122v-318l292 318h162l-268 -276zM365 -56c14.667 0.666992 27.3311 -4.16895 37.998 -14.502s17.334 -24.166 20.001 -41.499c2.66699 -18 0.333984 -37.833 -6.99902 -59.5s-18.166 -42.167 -32.499 -61.5
s-30.5 -35.666 -48.5 -48.999l-39 25c29.333 26 48.333 56 57 90c-12.667 2.66699 -23.334 9 -32.001 19s-13 22 -13 36c0 16 5.5 29.5 16.5 40.5s24.5 16.167 40.5 15.5z" />
    <glyph glyph-name="kcommaaccent" unicode="&#x137;" horiz-adv-x="587" 
d="M570 0h-133l-159 245l-91 -86v-159h-113v700h113v-408l209 208h151l-196 -185zM307 -56c15.333 0.666992 28.3311 -4.16895 38.998 -14.502s17.334 -24.166 20.001 -41.499c2.66699 -18 0.333984 -37.833 -6.99902 -59.5s-18.166 -42.167 -32.499 -61.5
s-30.833 -35.666 -49.5 -48.999l-38 25c29.333 26 48.333 56 57 90c-12.667 2.66699 -23.334 9 -32.001 19s-13 22 -13 36c0 16 5.5 29.5 16.5 40.5s24.167 16.167 39.5 15.5z" />
    <glyph glyph-name="Lacute" unicode="&#x139;" horiz-adv-x="563" 
d="M344 764h-113l127 173h126zM535 102v-102h-443v700h122v-598h321z" />
    <glyph glyph-name="lacute" unicode="&#x13a;" horiz-adv-x="363" 
d="M207 764h-114l128 173h126zM187 700v-549c0 -46.667 23 -69.667 69 -69c9.33301 0 19.666 1.33301 30.999 4l30 -80c-31.333 -13.333 -62.333 -20 -93 -20c-43.333 0 -79.166 12.833 -107.499 38.5s-42.5 65.167 -42.5 118.5v557h113z" />
    <glyph glyph-name="Lcommaaccent" unicode="&#x13b;" horiz-adv-x="563" 
d="M535 102v-102h-443v700h122v-598h321zM296 -56c15.333 0.666992 28.167 -4.16895 38.5 -14.502s17.166 -24.166 20.499 -41.499c2.66699 -18 0.333984 -37.833 -6.99902 -59.5s-18.166 -42.167 -32.499 -61.5s-30.833 -35.666 -49.5 -48.999l-38 25
c29.333 26 48.333 56 57 90c-12.667 2.66699 -23.334 9 -32.001 19s-13 22 -13 36c0 16 5.5 29.5 16.5 40.5s24.167 16.167 39.5 15.5z" />
    <glyph glyph-name="lcommaaccent" unicode="&#x13c;" horiz-adv-x="363" 
d="M187 700v-549c0 -46.667 23 -69.667 69 -69c9.33301 0 19.666 1.33301 30.999 4l30 -80c-31.333 -13.333 -62.333 -20 -93 -20c-43.333 0 -79.166 12.833 -107.499 38.5s-42.5 65.167 -42.5 118.5v557h113zM181 -56c15.333 0.666992 28.1689 -4.16699 38.502 -14.5
s17.166 -24.166 20.499 -41.499c4 -27.333 -2.83301 -57.333 -20.5 -90s-40.5 -59.334 -68.5 -80.001l-38 25c29.333 26 48.333 56 57 90c-12.667 2.66699 -23.334 9 -32.001 19s-13 22 -13 36c0 16 5.5 29.5 16.5 40.5s24.167 16.167 39.5 15.5z" />
    <glyph glyph-name="Lcaron" unicode="&#x13d;" horiz-adv-x="563" 
d="M479 666c4 -27.333 -2.83008 -57.332 -20.4971 -89.999s-40.5 -59.334 -68.5 -80.001l-38 24c29.333 26 48.333 56.333 57 91c-12.667 2 -23.334 8.16699 -32.001 18.5s-13 22.5 -13 36.5c0 15.333 5.5 28.5 16.5 39.5s24.167 16.5 39.5 16.5s28.166 -5 38.499 -15
s17.166 -23.667 20.499 -41zM535.003 102.001v-102h-443v700h122v-598h321z" />
    <glyph glyph-name="lcaron" unicode="&#x13e;" horiz-adv-x="363" 
d="M331 722c14.667 0 27.333 -4.99902 38 -14.999s17.334 -23.667 20.001 -41c4 -27.333 -2.66699 -57.333 -20 -90s-40 -59.334 -68 -80.001l-39 24c29.333 26 48.333 56.333 57 91c-12.667 2 -23.334 8.16699 -32.001 18.5s-13 22.5 -13 36.5c0 7.33301 1.5 14.5 4.5 21.5
s7 13 12 18s11 9 18 12s14.5 4.5 22.5 4.5zM186.999 700.001v-549c0 -46.667 23 -69.667 69 -69c9.33301 0 19.666 1.33301 30.999 4l30 -80c-31.333 -13.333 -62.333 -20 -93 -20c-43.333 0 -79.166 12.833 -107.499 38.5s-42.5 65.167 -42.5 118.5v557h113z" />
    <glyph glyph-name="Ldot" unicode="&#x13f;" horiz-adv-x="563" 
d="M535 102v-102h-443v700h122v-598h321zM370.5 271c-19 0 -35.333 6.66699 -49 20s-20.5 29.666 -20.5 48.999s6.83301 35.666 20.5 48.999s30 20 49 20s35.333 -6.66699 49 -20s20.5 -29.666 20.5 -48.999s-6.83301 -35.666 -20.5 -48.999s-30 -20 -49 -20z" />
    <glyph glyph-name="ldot" unicode="&#x140;" horiz-adv-x="363" 
d="M187 700v-549c0 -46.667 23 -69.667 69 -69c9.33301 0 19.666 1.33301 30.999 4l30 -80c-31.333 -13.333 -62.333 -20 -93 -20c-43.333 0 -79.166 12.833 -107.499 38.5s-42.5 65.167 -42.5 118.5v557h113zM301 409c19.333 0 35.666 -6.66699 48.999 -20
s20 -29.666 20 -48.999s-6.66699 -35.666 -20 -48.999s-29.666 -20 -48.999 -20s-35.833 6.66699 -49.5 20s-20.5 29.666 -20.5 48.999s6.83301 35.666 20.5 48.999s30.167 20 49.5 20z" />
    <glyph glyph-name="Lslash" unicode="&#x141;" horiz-adv-x="557" 
d="M535 102v-102h-443v269l-79 -43l-46 83l125 69v322h122v-255l115 63l46 -84l-161 -88v-234h321z" />
    <glyph glyph-name="lslash" unicode="&#x142;" horiz-adv-x="343" 
d="M250 80c11.333 0 23.666 1.66797 36.999 5.00098l4 -83c-26 -10.667 -51 -16 -75 -16c-41.333 0 -75.166 13.667 -101.499 41s-39.5 67.666 -39.5 120.999v144l-77 -42l-42 76l119 64v310h112v-248l104 57l41 -75l-145 -80v-198c0 -24 5.5 -42.667 16.5 -56
s26.5 -20 46.5 -20z" />
    <glyph glyph-name="Nacute" unicode="&#x143;" horiz-adv-x="771" 
d="M438 764h-114l128 173h126zM684 700v-700h-108l-368 492v-492h-121v700h109l368 -494v494h120z" />
    <glyph glyph-name="nacute" unicode="&#x144;" horiz-adv-x="596" 
d="M362 564h-114l128 173h126zM360 514c48.667 0 89.333 -16.002 122 -48.002s49 -78.667 49 -140v-326h-112v318c0 32 -8.33301 56 -25 72s-38.667 24 -66 24c-22.667 0 -47 -5.16699 -73 -15.5s-50.333 -25.166 -73 -44.499v-354h-112v500h112v-61
c26 24.667 54.667 43.334 86 56.001s62 19 92 19z" />
    <glyph glyph-name="Ncommaaccent" unicode="&#x145;" horiz-adv-x="771" 
d="M684 700v-700h-108l-368 492v-492h-121v700h109l368 -494v494h120zM390 -56c14.667 0.666992 27.333 -4.16895 38 -14.502s17.334 -24.166 20.001 -41.499c3.33301 -18 1.33301 -37.833 -6 -59.5s-18.333 -42.167 -33 -61.5s-31 -35.666 -49 -48.999l-38 25
c28.667 26 47.667 56 57 90c-12.667 2.66699 -23.334 9 -32.001 19s-13 22 -13 36c0 16 5.33301 29.5 16 40.5s24 16.167 40 15.5z" />
    <glyph glyph-name="ncommaaccent" unicode="&#x146;" horiz-adv-x="596" 
d="M360 514c48.667 0 89.334 -16 122.001 -48s49 -78.667 49 -140v-326h-112v318c0 32 -8.5 56 -25.5 72s-38.833 24 -65.5 24c-22.667 0 -47 -5.16699 -73 -15.5s-50.333 -25.166 -73 -44.499v-354h-113v500h113v-61c17.333 16.667 36.333 30.667 57 42
s41.167 19.666 61.5 24.999s40.166 8 59.499 8zM314 -56c14.667 0.666992 27.3311 -4.16895 37.998 -14.502s17.334 -24.166 20.001 -41.499c2.66699 -18 0.333984 -37.833 -6.99902 -59.5s-18.166 -42.167 -32.499 -61.5s-30.5 -35.666 -48.5 -48.999l-39 25
c29.333 26 48.333 56 57 90c-12.667 2.66699 -23.334 9 -32.001 19s-13 22 -13 36c0 16 5.5 29.5 16.5 40.5s24.5 16.167 40.5 15.5z" />
    <glyph glyph-name="Ncaron" unicode="&#x147;" horiz-adv-x="771" 
d="M328 764l-148 173h122l84 -108l83 108h122l-147 -173h-116zM684 700v-700h-108l-368 492v-492h-121v700h109l368 -494v494h120z" />
    <glyph glyph-name="ncaron" unicode="&#x148;" horiz-adv-x="596" 
d="M251 564l-147 173h121l84 -108l84 108h122l-148 -173h-116zM360 514c48.667 0 89.333 -16.002 122 -48.002s49 -78.667 49 -140v-326h-112v318c0 32 -8.33301 56 -25 72s-38.667 24 -66 24c-22.667 0 -47 -5.16699 -73 -15.5s-50.333 -25.166 -73 -44.499v-354h-113v500
h113v-61c26 24.667 54.667 43.334 86 56.001s62 19 92 19z" />
    <glyph glyph-name="Eng" unicode="&#x14a;" horiz-adv-x="771" 
d="M684 700l-0.000976562 -657c0 -72.667 -23.167 -133.667 -69.5 -183s-106.5 -74 -180.5 -74c-35.333 0 -68.333 6 -99 18l32 90c20 -5.33301 41 -8 63 -8c24 0 45.667 5.33301 65 16s34.833 26 46.5 46s18.834 43.333 21.501 70l-355 474v-492h-121v700h109l368 -494v494
h120z" />
    <glyph glyph-name="eng" unicode="&#x14b;" horiz-adv-x="596" 
d="M360 514c48.667 0 89.332 -15.998 121.999 -47.998s49 -78.667 49 -140v-380c0 -54.667 -13.167 -95.334 -39.5 -122.001s-60.833 -40 -103.5 -40c-27.333 0 -56.333 4.66699 -87 14l8 87c16.667 -3.33301 32 -5 46 -5c20 0 35.667 6.16699 47 18.5s17 30.166 17 53.499
v366c0 32 -8.33301 56 -25 72s-38.667 24 -66 24c-14.667 0 -30.167 -2.16699 -46.5 -6.5s-33.166 -11.166 -50.499 -20.499s-33.666 -20.333 -48.999 -33v-354h-113v500h113v-61c17.333 16.667 36.333 30.667 57 42s41.167 19.666 61.5 24.999s40.166 8 59.499 8z" />
    <glyph glyph-name="Omacron" unicode="&#x14c;" horiz-adv-x="851" 
d="M593 787h-335v95h335v-95zM425 714c69.333 0 131 -16.3311 185 -48.998s95.167 -76.5 123.5 -131.5s42.5 -116.167 42.5 -183.5s-14.167 -128.5 -42.5 -183.5s-69.5 -98.833 -123.5 -131.5s-115.667 -49 -185 -49c-68.667 0 -129.834 16.333 -183.501 49
s-95 76.5 -124 131.5s-43.5 116.167 -43.5 183.5s14.5 128.666 43.5 183.999s70.333 99.166 124 131.499s114.834 48.5 183.501 48.5zM425 603.002c-66.667 0 -120.667 -23.667 -162 -71s-62 -108 -62 -182c0 -73.333 20.833 -133.833 62.5 -181.5s95.5 -71.5 161.5 -71.5
c66.667 0 120.834 23.667 162.501 71s62.5 108 62.5 182s-20.833 134.667 -62.5 182s-95.834 71 -162.501 71z" />
    <glyph glyph-name="omacron" unicode="&#x14d;" horiz-adv-x="625" 
d="M480 587h-335v95h335v-95zM313 514c76 0 137.667 -25.332 185 -75.999s71 -113.334 71 -188.001s-23.667 -137.334 -71 -188.001s-109 -76 -185 -76s-137.833 25.333 -185.5 76s-71.5 113.334 -71.5 188.001c0 75.333 23.833 138.333 71.5 189s109.5 75.667 185.5 75z
M313 413.001c-44 0 -78.833 -15 -104.5 -45s-38.167 -69.333 -37.5 -118c0 -48.667 12.833 -88 38.5 -118s60.167 -45 103.5 -45s77.666 15 102.999 45s38 69.333 38 118s-12.667 88 -38 118s-59.666 45 -102.999 45z" />
    <glyph glyph-name="Ohungarumlaut" unicode="&#x150;" horiz-adv-x="851" 
d="M378 764h-111l129 173h123zM583 764h-110l129 173h123zM425 714c52 0 100.167 -9.49805 144.5 -28.498s81.5 -45 111.5 -78s53.333 -71.667 70 -116s25 -91.5 25 -141.5c0 -67.333 -14.167 -128.5 -42.5 -183.5s-69.5 -98.833 -123.5 -131.5s-115.667 -49 -185 -49
c-68.667 0 -129.834 16.333 -183.501 49s-94.834 76.5 -123.501 131.5s-43 116.167 -43 183.5s14.333 128.666 43 183.999s69.834 99.166 123.501 131.499s114.834 48.5 183.501 48.5zM425 603.002c-66.667 0 -120.667 -23.667 -162 -71s-62 -108 -62 -182
c0 -73.333 20.833 -133.833 62.5 -181.5s95.5 -71.5 161.5 -71.5c66.667 0 120.834 23.667 162.501 71s62.5 108 62.5 182s-20.833 134.667 -62.5 182s-95.834 71 -162.501 71z" />
    <glyph glyph-name="ohungarumlaut" unicode="&#x151;" horiz-adv-x="625" 
d="M265 564h-110l129 173h123zM471 564h-111l129 173h123zM313 514c50.667 0 95.667 -11.833 135 -35.5s69.333 -55.5 90 -95.5s31 -84.333 31 -133c0 -74.667 -23.667 -137.334 -71 -188.001s-109 -76 -185 -76s-137.833 25.333 -185.5 76s-71.5 113.334 -71.5 188.001
c0 75.333 23.833 138.333 71.5 189s109.5 75.667 185.5 75zM313 413c-44 0 -78.833 -15 -104.5 -45s-38.167 -69.333 -37.5 -118c0 -48.667 12.833 -88 38.5 -118s60.167 -45 103.5 -45s77.666 15 102.999 45s38 69.333 38 118s-12.667 88 -38 118s-59.666 45 -102.999 45z
" />
    <glyph glyph-name="OE" unicode="&#x152;" horiz-adv-x="1191" 
d="M1143 102l0.000976562 -102h-488v68c-63.333 -54.667 -140 -82 -230 -82c-68.667 0 -129.834 16.333 -183.501 49s-95 76.5 -124 131.5s-43.5 116.167 -43.5 183.5c0 50.667 8.5 98.167 25.5 142.5s40.667 82.833 71 115.5s67.5 58.5 111.5 77.5s91.667 28.5 143 28.5
c90 0 166.667 -27.333 230 -82v68h478v-102h-356v-181h317v-101h-317v-214h366zM425.001 97c66.667 0 120.833 23.667 162.5 71s62.5 108 62.5 182c0 48.667 -9.33301 92.167 -28 130.5s-45.167 68.333 -79.5 90s-73.5 32.5 -117.5 32.5
c-66.667 0 -120.667 -23.667 -162 -71s-62 -108 -62 -182c0 -73.333 20.833 -133.833 62.5 -181.5s95.5 -71.5 161.5 -71.5z" />
    <glyph glyph-name="oe" unicode="&#x153;" horiz-adv-x="986" 
d="M313 514c83.333 0 149.332 -31 197.999 -93c21.333 29.333 48.5 52.166 81.5 68.499s69.5 24.5 109.5 24.5c74.667 0 132.667 -24.333 174 -73s62.333 -112.334 63 -191.001c0 -9.33301 -0.333008 -18.666 -1 -27.999h-366c0.666992 -4.66699 1.33398 -9 2.00098 -13
c6.66699 -38.667 22 -69.167 46 -91.5s54 -33.5 90 -33.5c50 0 102.667 14.333 158 43l28 -73c-58.667 -45.333 -123 -68 -193 -68c-40 0 -76.5 8.33301 -109.5 25s-60.5 39.667 -82.5 69c-22.667 -29.333 -51 -52.333 -85 -69s-71.667 -25 -113 -25
c-76 0 -137.833 25.333 -185.5 76s-71.5 113.334 -71.5 188.001c0 75.333 23.833 138.333 71.5 189s109.5 75.667 185.5 75zM704.999 416c-22.667 0 -43.168 -4.66895 -61.501 -14.002s-33.166 -22.666 -44.499 -39.999s-19.333 -37.666 -24 -60.999h250
c-11.333 76.667 -51.333 115 -120 115zM312.998 412.998c-44 0 -78.833 -15 -104.5 -45s-38.167 -69.333 -37.5 -118c0 -48.667 12.833 -88 38.5 -118s60.167 -45 103.5 -45s77.666 15 102.999 45s38 69.333 38 118s-12.667 88 -38 118s-59.666 45 -102.999 45z" />
    <glyph glyph-name="Racute" unicode="&#x154;" horiz-adv-x="684" 
d="M394 764h-114l128 173h126zM371 272h-156.999v-272h-122v700h122h202c57.333 0 105.833 -19.833 145.5 -59.5s59.5 -91.167 59.5 -154.5c0 -32 -5.83301 -61.833 -17.5 -89.5s-27.334 -50.667 -47.001 -69s-42.167 -32.5 -67.5 -42.5l167 -285h-141zM214.001 374h196
c25.333 0 46.5 10 63.5 30s25.5 47.667 25.5 83c0 34 -8.5 61 -25.5 81s-38.167 30 -63.5 30h-196v-224z" />
    <glyph glyph-name="racute" unicode="&#x155;" horiz-adv-x="408" 
d="M266 564h-113l128 173h125zM182 500l-0.00195312 -68.999c28 27.333 59.333 48.166 94 62.499s68.334 21.5 101.001 21.5c4 0 8.33301 -0.333008 13 -1l-19 -109c-5.33301 0.666992 -10.666 1 -15.999 1c-62 0 -119.667 -23 -173 -69v-337h-112v500h112z" />
    <glyph glyph-name="Rcommaaccent" unicode="&#x156;" horiz-adv-x="684" 
d="M656 0h-141.001l-144 272h-157v-272h-122v700h122h202c57.333 0 105.833 -19.833 145.5 -59.5s59.5 -91.167 59.5 -154.5c0 -48.667 -12.167 -90.667 -36.5 -126s-56.166 -60.333 -95.499 -75zM213.999 374l196 0.00195312c16.667 0 31.5 4.16699 44.5 12.5
s23.667 21.166 32 38.499s12.5 38 12.5 62c0 17.333 -2.33301 33.166 -7 47.499s-11 26 -19 35s-17.5 16 -28.5 21s-22.5 7.5 -34.5 7.5h-196v-224zM345.999 -55.998c14.667 0.666992 27.333 -4.16699 38 -14.5s17.334 -24.166 20.001 -41.499
c4.66699 -27.333 -1.83301 -57.333 -19.5 -90s-40.5 -59.334 -68.5 -80.001l-38 25c28.667 26 47.667 56 57 90c-12.667 2.66699 -23.334 9 -32.001 19s-13 22 -13 36c0 16 5.5 29.5 16.5 40.5s24.167 16.167 39.5 15.5z" />
    <glyph glyph-name="rcommaaccent" unicode="&#x157;" horiz-adv-x="408" 
d="M377 515c4.66699 0 8.99902 -0.333008 12.999 -1l-19 -109c-5.33301 0.666992 -10.666 1 -15.999 1c-62 0 -119.667 -23 -173 -69v-337h-113v500h113v-69c18.667 18 39.167 33.333 61.5 46s44.833 22.167 67.5 28.5s44.667 9.5 66 9.5zM217.999 -56
c15.333 0.666992 28.333 -4.16699 39 -14.5s17.334 -24.166 20.001 -41.499c4 -27.333 -2.66699 -57.333 -20 -90s-40.333 -59.334 -69 -80.001l-38 25c29.333 26 48.333 56 57 90c-12.667 2.66699 -23.334 9 -32.001 19s-13 22 -13 36c0 16 5.5 29.5 16.5 40.5
s24.167 16.167 39.5 15.5z" />
    <glyph glyph-name="Rcaron" unicode="&#x158;" horiz-adv-x="684" 
d="M284 764l-148 173h122l84 -108l83 108h122l-147 -173h-116zM371 272h-157.001v-272h-122v700h122h202c57.333 0 105.833 -19.833 145.5 -59.5s59.5 -91.167 59.5 -154.5c0 -48.667 -12.167 -90.667 -36.5 -126s-56.166 -60.333 -95.499 -75l167 -285h-141zM213.999 374
h196c25.333 0 46.5 10 63.5 30s25.5 47.667 25.5 83c0 34 -8.5 61 -25.5 81s-38.167 30 -63.5 30h-196v-224z" />
    <glyph glyph-name="rcaron" unicode="&#x159;" horiz-adv-x="408" 
d="M156 564l-148 173h122l84 -108l84 108h121l-147 -173h-116zM182 500l-0.00195312 -68.999c28 27.333 59.333 48.166 94 62.499s68.334 21.5 101.001 21.5c4 0 8.33301 -0.333008 13 -1l-19 -109c-5.33301 0.666992 -10.666 1 -15.999 1c-62 0 -119.667 -23 -173 -69v-337
h-113v500h113z" />
    <glyph glyph-name="Sacute" unicode="&#x15a;" horiz-adv-x="639" 
d="M373 764h-114l128 173h125zM325 714c50 0 96.8281 -7.99805 140.495 -23.998s81.167 -38 112.5 -66l-66 -83c-52 42 -115 63 -189 63c-87.333 0 -131.666 -32.667 -132.999 -98c0 -16 3.83301 -28.833 11.5 -38.5s22.167 -18.834 43.5 -27.501s55 -19.334 101 -32.001
c3.33301 -0.666992 7.66602 -1.66699 12.999 -3c20 -6 35.5 -10.5 46.5 -13.5s26 -7.83301 45 -14.5s33.833 -13.167 44.5 -19.5s23 -14.833 37 -25.5s24.833 -21.834 32.5 -33.501s14.167 -25.834 19.5 -42.501s8.33301 -35 9 -55c0 -24 -3.66699 -46.667 -11 -68
s-17.666 -39.666 -30.999 -54.999s-28.666 -29 -45.999 -41s-36.166 -21.667 -56.499 -29s-41 -12.833 -62 -16.5s-42.167 -5.5 -63.5 -5.5c-53.333 0 -105.666 10.833 -156.999 32.5s-91.333 50.5 -120 86.5l67 80c23.333 -28.667 54.666 -51 93.999 -67
s78 -23.667 116 -23c27.333 -0.666992 51.833 3 73.5 11s38.667 20 51 36s18.833 34.333 19.5 55c0 12 -2.33301 22.5 -7 31.5s-9.83398 16.333 -15.501 22s-15.667 11.334 -30 17.001s-26.666 10.167 -36.999 13.5s-27.166 8 -50.499 14c-7.33301 2 -13 3.66699 -17 5
c-46.667 12.667 -84.167 24.5 -112.5 35.5s-53.166 24.333 -74.499 40s-36.5 33.667 -45.5 54s-13.5 44.833 -13.5 73.5c0 37.333 7.33301 70 22 98s34.5 50 59.5 66s52.5 27.833 82.5 35.5s62.333 11.5 97 11.5z" />
    <glyph glyph-name="sacute" unicode="&#x15b;" horiz-adv-x="493" 
d="M298 564h-113l127 173h126zM247 514c36.667 0 72.167 -5.33789 106.5 -16.0049s62.833 -27 85.5 -49l-47 -74c-15.333 15.333 -35.666 27.166 -60.999 35.499s-51.833 12.5 -79.5 12.5s-49.667 -4.83301 -66 -14.5s-24.833 -24.167 -25.5 -43.5
c-0.666992 -14.667 5.83301 -26 19.5 -34s41.834 -17.667 84.501 -29c2 0 4.66699 -0.666992 8 -2c14 -3.33301 24.667 -6 32 -8s17.666 -5.16699 30.999 -9.5s23.833 -8.33301 31.5 -12s16.834 -8.5 27.501 -14.5s19.167 -12.667 25.5 -20s12.666 -15.5 18.999 -24.5
s10.833 -19.167 13.5 -30.5s4 -23.666 4 -36.999c0 -27.333 -6.33301 -51.666 -19 -72.999s-29.834 -38 -51.501 -50s-44.667 -20.833 -69 -26.5s-49.833 -8.5 -76.5 -8.5c-41.333 0 -80.666 6.83301 -117.999 20.5s-66 33.167 -86 58.5l47 74c14.667 -20 36 -35.5 64 -46.5
s57.667 -16.5 89 -16.5c32 0 58 6 78 18s30 28 30 48c0.666992 7.33301 -0.666016 13.833 -3.99902 19.5s-7 10.334 -11 14.001s-10.833 7.33398 -20.5 11.001s-17.834 6.5 -24.501 8.5s-17.334 5 -32.001 9c-8 2 -14.333 3.66699 -19 5c-68 17.333 -115.667 36.333 -143 57
s-41 51.667 -41 93c0 27.333 5.5 51.333 16.5 72s26.167 36.834 45.5 48.501s40.333 20.334 63 26.001s47 8.5 73 8.5z" />
    <glyph glyph-name="Scedilla" unicode="&#x15e;" horiz-adv-x="639" 
d="M593 201c0 -33.333 -6.83496 -63.3311 -20.502 -89.998s-32 -48.334 -55 -65.001s-48.333 -30 -76 -40s-56.5 -16.333 -86.5 -19l-9 -30c2.66699 0 5.33398 -0.333008 8.00098 -1c30 -4 54 -14.5 72 -31.5s26.667 -38.5 26 -64.5
c0.666992 -30.667 -11.333 -56.167 -36 -76.5s-57.667 -30.833 -99 -31.5c-22 -0.666992 -46.333 1.83301 -73 7.5s-48.334 12.834 -65.001 21.501l28 60c30.667 -12 63 -18 97 -18s51 12 51 36c0 23.333 -12.667 35 -38 35c-17.333 0 -34.666 -3.66699 -51.999 -11l-19 40
l32 66c-46.667 5.33301 -91 18.333 -133 39s-75 46.334 -99 77.001l67 80c23.333 -28.667 54.666 -51 93.999 -67s78 -23.667 116 -23c27.333 -0.666992 51.833 3 73.5 11s38.667 19.833 51 35.5s18.833 34.167 19.5 55.5c0 12 -2.33301 22.5 -7 31.5
s-9.83398 16.333 -15.501 22s-15.667 11.334 -30 17.001s-26.666 10.167 -36.999 13.5s-27.166 8 -50.499 14c-7.33301 2 -13 3.66699 -17 5c-46.667 12.667 -84.167 24.5 -112.5 35.5s-53.166 24.333 -74.499 40s-36.5 33.667 -45.5 54s-13.5 44.833 -13.5 73.5
c0 37.333 7.33301 70 22 98s34.5 50 59.5 66s52.5 27.833 82.5 35.5s62.333 11.5 97 11.5c50 0 96.833 -8 140.5 -24s81.167 -38 112.5 -66l-66 -83c-52 42 -115 63 -189 63c-87.333 0 -131.666 -32.667 -132.999 -98c0 -16 3.83301 -28.833 11.5 -38.5
s22.167 -18.834 43.5 -27.501s55 -19.334 101 -32.001c3.33301 -0.666992 7.66602 -1.66699 12.999 -3c20 -6 35.5 -10.5 46.5 -13.5s26 -7.83301 45 -14.5s33.833 -13.167 44.5 -19.5s23 -14.833 37 -25.5s24.833 -21.834 32.5 -33.501s14.167 -25.834 19.5 -42.501
s8.33301 -35 9 -55z" />
    <glyph glyph-name="scedilla" unicode="&#x15f;" horiz-adv-x="493" 
d="M456 144c0 -46.667 -16.6689 -82.834 -50.002 -108.501s-75 -41.5 -125 -47.5l-9 -31c2.66699 0 5.33398 -0.333008 8.00098 -1c30.667 -4 54.834 -14.5 72.501 -31.5s26.5 -38.5 26.5 -64.5c0 -30.667 -12.333 -56.167 -37 -76.5s-57.334 -30.833 -98.001 -31.5
c-11.333 0 -23.5 0.666992 -36.5 2s-25.5 3.16602 -37.5 5.49902s-23.667 5.33301 -35 9s-21.333 7.83398 -30 12.501l28 60c30.667 -12 63.334 -18 98.001 -18c33.333 0 50.333 12 51 36c-0.666992 23.333 -13.334 35 -38.001 35c-18 0 -35.667 -3.66699 -53 -11l-18 40
l31 65c-35.333 3.33301 -68 11.666 -98 24.999s-53.333 30.666 -70 51.999l47 74c14.667 -20 36 -35.5 64 -46.5s57.667 -16.5 89 -16.5c32 0 58 6 78 18s30 28 30 48c0.666992 7.33301 -0.666016 13.833 -3.99902 19.5s-7 10.334 -11 14.001s-10.833 7.33398 -20.5 11.001
s-17.834 6.5 -24.501 8.5s-17.334 5 -32.001 9c-8 2 -14.333 3.66699 -19 5c-68 17.333 -115.667 36.333 -143 57s-41 51.667 -41 93c0 27.333 5.5 51.333 16.5 72s26.167 36.834 45.5 48.501s40.333 20.334 63 26.001s47 8.5 73 8.5c36.667 0 72.167 -5.33301 106.5 -16
s62.833 -27 85.5 -49l-47 -74c-15.333 15.333 -35.666 27.166 -60.999 35.499s-51.833 12.5 -79.5 12.5s-49.667 -4.83301 -66 -14.5s-24.833 -24.167 -25.5 -43.5c-0.666992 -14.667 5.83301 -26 19.5 -34s41.834 -17.667 84.501 -29c2 0 4.66699 -0.666992 8 -2
c16 -4 28.167 -7.16699 36.5 -9.5s20 -6 35 -11s26.833 -10 35.5 -15s18.5 -11.5 29.5 -19.5s19.5 -16.667 25.5 -26s11.167 -20.333 15.5 -33s6.5 -26.667 6.5 -42z" />
    <glyph glyph-name="Scaron" unicode="&#x160;" horiz-adv-x="639" 
d="M262 764l-147 173h121l84 -108l84 108h122l-148 -173h-116zM593 201c0 -36 -8.00293 -68.1631 -24.0029 -96.4961s-37.333 -50.833 -64 -67.5s-55.5 -29.334 -86.5 -38.001s-62.833 -13 -95.5 -13c-53.333 0 -105.666 10.833 -156.999 32.5s-91.333 50.5 -120 86.5l67 80
c23.333 -28.667 54.666 -51 93.999 -67s78 -23.667 116 -23c42 -0.666992 76.333 8.33301 103 27s40.334 43.667 41.001 75c0 12 -2.33301 22.5 -7 31.5s-9.83398 16.333 -15.501 22s-15.667 11.334 -30 17.001s-26.666 10.167 -36.999 13.5s-27.166 8 -50.499 14
c-7.33301 2 -13 3.66699 -17 5c-46.667 12.667 -84.167 24.5 -112.5 35.5s-53.166 24.333 -74.499 40s-36.5 33.667 -45.5 54s-13.5 44.833 -13.5 73.5c0 37.333 7.33301 70 22 98s34.5 50 59.5 66s52.5 27.833 82.5 35.5s62.333 11.5 97 11.5c50 0 96.833 -8 140.5 -24
s81.167 -38 112.5 -66l-66 -83c-52 42 -115 63 -189 63c-87.333 0 -131.666 -32.667 -132.999 -98c0 -16 3.83301 -28.833 11.5 -38.5s22.167 -18.834 43.5 -27.501s55 -19.334 101 -32.001c3.33301 -0.666992 7.66602 -1.66699 12.999 -3c20 -6 35.5 -10.5 46.5 -13.5
s26 -7.83301 45 -14.5s33.833 -13.167 44.5 -19.5s23 -14.833 37 -25.5s24.833 -21.834 32.5 -33.501s14.167 -25.834 19.5 -42.501s8.33301 -35 9 -55z" />
    <glyph glyph-name="scaron" unicode="&#x161;" horiz-adv-x="493" 
d="M188 564l-148 173h122l84 -108l84 108h121l-147 -173h-116zM456 144c0 -27.333 -6.33398 -51.6699 -19.001 -73.0029s-29.834 -38 -51.501 -50s-44.667 -20.833 -69 -26.5s-49.833 -8.5 -76.5 -8.5c-41.333 0 -80.666 6.83301 -117.999 20.5s-66 33.167 -86 58.5l47 74
c14.667 -20 36 -35.5 64 -46.5s57.667 -16.5 89 -16.5c32 0 58 6 78 18s30 28 30 48c0.666992 7.33301 -0.666016 13.833 -3.99902 19.5s-7 10.334 -11 14.001s-10.833 7.33398 -20.5 11.001s-17.834 6.5 -24.501 8.5s-17.334 5 -32.001 9c-8 2 -14.333 3.66699 -19 5
c-68 17.333 -115.667 36.333 -143 57s-41 51.667 -41 93c0 27.333 5.5 51.333 16.5 72s26.167 36.834 45.5 48.501s40.333 20.334 63 26.001s47 8.5 73 8.5c36.667 0 72.167 -5.33301 106.5 -16s62.833 -27 85.5 -49l-47 -74c-15.333 15.333 -35.666 27.166 -60.999 35.499
s-52 12.5 -80 12.5c-18 0 -33.667 -2 -47 -6s-24 -10.333 -32 -19s-12 -19.667 -12 -33c-0.666992 -14.667 5.83301 -26 19.5 -34s41.834 -17.667 84.501 -29c2 0 4.66699 -0.666992 8 -2c16 -4 28.167 -7.16699 36.5 -9.5s20 -6 35 -11s26.833 -10 35.5 -15
s18.5 -11.5 29.5 -19.5s19.5 -16.667 25.5 -26s11.167 -20.333 15.5 -33s6.5 -26.667 6.5 -42z" />
    <glyph glyph-name="Tcedilla" unicode="&#x162;" 
d="M350 0l-12.0029 -43.001c2.66699 0 5.33398 -0.333008 8.00098 -1c30 -4 54 -14.5 72 -31.5s26.667 -38.5 26 -64.5c0.666992 -30.667 -11.333 -56.167 -36 -76.5s-57.667 -30.833 -99 -31.5c-22 -0.666992 -46.167 1.83301 -72.5 7.5s-48.166 12.834 -65.499 21.501
l28 60c30.667 -12 63 -18 97 -18s51 12 51 36c0 23.333 -12.667 35 -38 35c-17.333 0 -34.666 -3.66699 -51.999 -11l-19 40l37 77h-29v598h-218v102h559v-102h-218v-598h-19z" />
    <glyph glyph-name="tcedilla" unicode="&#x163;" horiz-adv-x="456" 
d="M265 -44c30.667 -4 54.833 -14.501 72.5 -31.501s26.5 -38.5 26.5 -64.5c0 -30.667 -12.333 -56.167 -37 -76.5s-57.334 -30.833 -98.001 -31.5c-22.667 -0.666992 -47.167 1.83301 -73.5 7.5s-48.166 12.834 -65.499 21.501l28 60c31.333 -12 64 -18 98 -18
c33.333 0 50.333 12 51 36c-0.666992 23.333 -13.334 35 -38.001 35c-18 0 -35.667 -3.66699 -53 -11l-18 40l39 82c-46 25.333 -69 70.333 -69 135v271h-98v71l93 18h5v139h112v-139h142v-89h-142v-263c0 -44 23 -66 69 -66c21.333 0 45.333 4.66699 72 14l25 -76
c-40 -22.667 -82 -34 -126 -34h-14l-9 -29c2.66699 0 5.33398 -0.333008 8.00098 -1z" />
    <glyph glyph-name="Tcaron" unicode="&#x164;" 
d="M250 764l-148 173h122l84 -108l83 108h122l-147 -173h-116zM587 598h-218v-598h-123v598h-218v102h559v-102z" />
    <glyph glyph-name="tcaron" unicode="&#x165;" horiz-adv-x="456" 
d="M504 666c4 -27.333 -2.83008 -57.332 -20.4971 -89.999s-40.5 -59.334 -68.5 -80.001l-38 24c29.333 26 48.333 56.333 57 91c-12.667 2 -23.334 8.16699 -32.001 18.5s-13 22.5 -13 36.5c0 15.333 5.5 28.5 16.5 39.5s24.167 16.5 39.5 16.5s28.166 -5 38.499 -15
s17.166 -23.667 20.499 -41zM309.003 82.001c21.333 0 45.333 4.66699 72 14l25 -76c-40 -22.667 -82 -34 -126 -34s-80.333 12.667 -109 38s-43 64 -43 116v271h-98v71l93 18h5v139h112v-139h142v-89h-142v-263c0 -44 23 -66 69 -66z" />
    <glyph glyph-name="Tbar" unicode="&#x166;" 
d="M369 598v-200h106v-96h-106v-302h-123v302h-106v96h106v200h-218v102h559v-102h-218z" />
    <glyph glyph-name="tbar" unicode="&#x167;" horiz-adv-x="456" 
d="M381 96l25 -76c-40 -22.667 -82 -34 -126 -34s-80.333 12.667 -109 38s-43 64 -43 116v121h-94v87h94v63h-98v71l93 18h5v139h112v-139h142v-89h-142v-63h129v-87h-129v-113c0 -44 23 -66 69 -66c21.333 0 45.333 4.66699 72 14z" />
    <glyph glyph-name="Utilde" unicode="&#x168;" horiz-adv-x="766" 
d="M315 927c26 0 57.667 -14.3291 95 -42.9961c21.333 -15.333 37 -23 47 -23c18.667 0 41 20.333 67 61l59 -46c-12.667 -19.333 -22.334 -33.5 -29.001 -42.5s-15.667 -19.333 -27 -31s-22.833 -19.834 -34.5 -24.501s-24.834 -7.33398 -39.501 -8.00098
c-13.333 0 -26.5 2.5 -39.5 7.5s-22.667 9.66699 -29 14s-15.5 11.166 -27.5 20.499c-21.333 15.333 -37.333 23 -48 23c-18 0 -40.333 -20.333 -67 -61l-59 47c10 14.667 16.5 24.167 19.5 28.5s9.66699 13 20 26s19.333 22.167 27 27.5s17.334 10.666 29.001 15.999
s23.834 8 36.501 8zM678 700.004l0.000976562 -455.998c0 -74.667 -27.5 -136.334 -82.5 -185.001s-125.167 -73 -210.5 -73c-55.333 0 -105.333 11 -150 33s-79.667 52.667 -105 92s-38 83.666 -38 132.999v456h122v-456c0 -46 15.667 -82.833 47 -110.5
s72.666 -41.5 123.999 -41.5c52 0 93.5 13.833 124.5 41.5s46.5 64.5 46.5 110.5v456h122z" />
    <glyph glyph-name="utilde" unicode="&#x169;" horiz-adv-x="587" 
d="M219 635c-18 0 -39.9971 -20.3291 -65.9971 -60.9961l-59 47c9.33301 14.667 15.666 24.167 18.999 28.5s10.166 13 20.499 26s19.166 22.167 26.499 27.5s17 10.666 29 15.999s24 8 36 8c26.667 0 58.667 -14.333 96 -43c20.667 -15.333 36 -23 46 -23
c18.667 0 41.334 20.333 68.001 61l59 -46c-12.667 -19.333 -22.334 -33.5 -29.001 -42.5s-15.667 -19.333 -27 -31s-23 -19.834 -35 -24.501s-25.333 -7.33398 -40 -8.00098c-12.667 0 -25.667 2.5 -39 7.5s-23 9.66699 -29 14s-15.333 11.166 -28 20.499
c-20.667 15.333 -36.667 23 -48 23zM522.003 500.004l-0.00390625 -500.001h-112v61c-17.333 -16 -35.833 -29.667 -55.5 -41s-39.667 -19.833 -60 -25.5s-40.166 -8.5 -59.499 -8.5c-49.333 0 -90.166 15.833 -122.499 47.5s-48.5 78.5 -48.5 140.5v326h113v-318
c0 -31.333 7.33301 -55.166 22 -71.499s35.334 -24.5 62.001 -24.5c52.667 0 102.334 20 149.001 60v354h112z" />
    <glyph glyph-name="Umacron" unicode="&#x16a;" horiz-adv-x="766" 
d="M551 787h-335v95h335v-95zM678 700l0.000976562 -456c0 -74.667 -27.5 -136.334 -82.5 -185.001s-125.167 -73 -210.5 -73c-84.667 0 -154.667 24.333 -210 73s-83 110.334 -83 185.001v456h122v-456c0 -46 15.667 -82.833 47 -110.5s72.666 -41.5 123.999 -41.5
c34 0 64 6.16699 90 18.5s46 30 60 53s21 49.833 21 80.5v456h122z" />
    <glyph glyph-name="umacron" unicode="&#x16b;" horiz-adv-x="587" 
d="M461 587h-335v95h335v-95zM522 500l-0.00292969 -500.001h-112v61c-25.333 -24 -53.5 -42.5 -84.5 -55.5s-61.167 -19.5 -90.5 -19.5c-49.333 0 -90.166 15.833 -122.499 47.5s-48.5 78.5 -48.5 140.5v326h113v-318c0 -31.333 7.33301 -55.166 22 -71.499
s35.334 -24.5 62.001 -24.5c52.667 0 102.334 20 149.001 60v354h112z" />
    <glyph glyph-name="Uring" unicode="&#x16e;" horiz-adv-x="766" 
d="M383 997c26.667 0 50.167 -5.83301 70.5 -17.5s35.833 -27.167 46.5 -46.5s16 -41 16 -65c0 -36 -12.167 -66.333 -36.5 -91s-56.5 -37 -96.5 -37c-39.333 0 -71.333 12.333 -96 37s-37 55 -37 91c0 24 5.5 45.833 16.5 65.5s26.667 35.167 47 46.5s43.5 17 69.5 17z
M383 929c-16 0 -29.168 -5.5 -39.501 -16.5s-15.5 -25.833 -15.5 -44.5c0 -12 2.33301 -22.667 7 -32s11.334 -16.333 20.001 -21s18 -7 28 -7c16.667 0 30.167 5.5 40.5 16.5s15.5 25.667 15.5 44s-5.33301 33 -16 44s-24 16.5 -40 16.5zM677.999 700l0.000976562 -455.998
c0 -74.667 -27.5 -136.334 -82.5 -185.001s-125.167 -73 -210.5 -73c-55.333 0 -105.333 11 -150 33s-79.667 52.667 -105 92s-38 83.666 -38 132.999v456h122v-456c0 -46 15.667 -82.833 47 -110.5s72.666 -41.5 123.999 -41.5c52 0 93.5 13.833 124.5 41.5
s46.5 64.5 46.5 110.5v456h122z" />
    <glyph glyph-name="uring" unicode="&#x16f;" horiz-adv-x="587" 
d="M294 540c-39.333 0 -71.333 12.332 -96 36.999s-37 55 -37 91c0 36.667 12.333 67.334 37 92.001s56.667 37 96 37s71.333 -12.333 96 -37s37 -55.167 37 -91.5s-12.333 -66.833 -37 -91.5s-56.667 -37 -96 -37zM293 728.999c-15.333 0 -28.333 -5.5 -39 -16.5
s-16 -25.833 -16 -44.5c0 -12 2.5 -22.667 7.5 -32s11.667 -16.333 20 -21s17.833 -7 28.5 -7c16 0 29.167 5.5 39.5 16.5s15.5 25.667 15.5 44s-5.16699 33 -15.5 44s-23.833 16.5 -40.5 16.5zM522 499.999l-0.00390625 -500.003h-112v61
c-17.333 -16 -35.833 -29.667 -55.5 -41s-39.667 -19.833 -60 -25.5s-40.166 -8.5 -59.499 -8.5c-23.333 0 -45.166 3.83301 -65.499 11.5s-38.5 18.834 -54.5 33.501s-28.5 34.334 -37.5 59.001s-13.5 52.667 -13.5 84v326h113v-318c0 -31.333 7.33301 -55.166 22 -71.499
s35.334 -24.5 62.001 -24.5c52.667 0 102.334 20 149.001 60v354h112z" />
    <glyph glyph-name="Uhungarumlaut" unicode="&#x170;" horiz-adv-x="766" 
d="M336 764h-111l130 173h122zM542 764h-111l129 173h123zM678 700l0.000976562 -456c0 -74.667 -27.5 -136.334 -82.5 -185.001s-125.167 -73 -210.5 -73c-84.667 0 -154.667 24.333 -210 73s-83 110.334 -83 185.001v456h122v-456c0 -46 15.667 -82.833 47 -110.5
s72.666 -41.5 123.999 -41.5c52 0 93.5 13.833 124.5 41.5s46.5 64.5 46.5 110.5v456h122z" />
    <glyph glyph-name="uhungarumlaut" unicode="&#x171;" horiz-adv-x="587" 
d="M247 564h-111l129 173h123zM341 564l129 173h123l-141 -173h-111zM410 500l111.997 -0.000976562v-500h-112v61c-25.333 -24 -53.5 -42.5 -84.5 -55.5s-61.167 -19.5 -90.5 -19.5c-49.333 0 -90.166 15.833 -122.499 47.5s-48.5 78.5 -48.5 140.5v326h113v-318
c0 -31.333 7.33301 -55.166 22 -71.499s35.334 -24.5 62.001 -24.5c52.667 0 102.334 20 149.001 60v354z" />
    <glyph glyph-name="Uogonek" unicode="&#x172;" horiz-adv-x="766" 
d="M544 23c-43.333 -29.333 -64.999 -60.332 -64.999 -92.999c0.666992 -32.667 20.667 -49 60 -49c18.667 0 36 3.66699 52 11l23 -64c-28 -18.667 -62.667 -28 -104 -28c-34.667 0 -64.334 8.66699 -89.001 26s-37 41 -37 71c0.666992 32 15.334 62.333 44.001 91
c-14 -1.33301 -28.333 -2 -43 -2c-55.333 0 -105.333 11 -150 33s-79.667 52.667 -105 92s-38 83.666 -38 132.999v456h122v-456c0 -46 15.667 -82.833 47 -110.5s72.666 -41.5 123.999 -41.5c52 0 93.5 13.833 124.5 41.5s46.5 64.5 46.5 110.5v456h122v-456
c0 -48 -11.833 -91.167 -35.5 -129.5s-56.5 -68.833 -98.5 -91.5z" />
    <glyph glyph-name="uogonek" unicode="&#x173;" horiz-adv-x="587" 
d="M540 -123l23.9961 -64c-28.667 -18.667 -63.667 -28.334 -105 -29.001c-22 0 -42.333 3.66699 -61 11s-34 18.5 -46 33.5s-18.333 32.833 -19 53.5c0.666992 42.667 26.334 82 77.001 118v61c-25.333 -24 -53.5 -42.5 -84.5 -55.5s-61.167 -19.5 -90.5 -19.5
c-49.333 0 -90.166 15.833 -122.499 47.5s-48.5 78.5 -48.5 140.5v326h113v-318c0 -31.333 7.33301 -55.166 22 -71.499s35.334 -24.5 62.001 -24.5c52.667 0 102.334 20 149.001 60v354h112v-500h-40c-35.333 -27.333 -53.333 -56 -54 -86
c0.666992 -32.667 20.667 -48.667 60 -48c18.667 -0.666992 36 3 52 11z" />
    <glyph glyph-name="Wcircumflex" unicode="&#x174;" horiz-adv-x="1029" 
d="M431 764h-122l148 173h116l147 -173h-122l-83 108zM1001 700l-181 -700h-152l-154 551l-153 -551h-152l-181 700h131l131 -544l146 544h157l146 -544l131 544h131z" />
    <glyph glyph-name="wcircumflex" unicode="&#x175;" horiz-adv-x="836" 
d="M335 564h-122l147 173h116l148 -173h-122l-84 108zM819 500l-172 -500h-122l-107 370l-107 -370h-121l-172 500h119l115 -367l103 367h126l103 -367l115 367h120z" />
    <glyph glyph-name="Ycircumflex" unicode="&#x176;" horiz-adv-x="709" 
d="M272 764h-122l148 173h115l148 -173h-122l-83 108zM413 248v-248h-122v247l-263 453h140l186 -329l187 329h140z" />
    <glyph glyph-name="ycircumflex" unicode="&#x177;" horiz-adv-x="571" 
d="M202 564h-122l148 173h115l148 -173h-122l-84 108zM553 500l-292 -700h-103l80 202l-220 498h122l152 -363l143 363h118z" />
    <glyph glyph-name="Ydieresis" unicode="&#x178;" horiz-adv-x="709" 
d="M247 779c-17.333 0 -32 6 -44 18s-18 26.667 -18 44s6 32.166 18 44.499s26.667 18.5 44 18.5s32.166 -6.16699 44.499 -18.5s18.5 -27.166 18.5 -44.499s-6.16699 -32 -18.5 -44s-27.166 -18 -44.499 -18zM464 779c-17.333 0 -32.166 6 -44.499 18
s-18.5 26.667 -18.5 44s6.16699 32.166 18.5 44.499s27.166 18.5 44.499 18.5s32 -6.16699 44 -18.5s18 -27.166 18 -44.499s-6 -32 -18 -44s-26.667 -18 -44 -18zM413 248v-248h-122v247l-263 453h140l186 -329l187 329h140z" />
    <glyph glyph-name="Zacute" unicode="&#x179;" horiz-adv-x="627" 
d="M366 764h-114l128 173h126zM580 102v-102h-533v81l368 517h-344v102h499v-81l-368 -517h378z" />
    <glyph glyph-name="zacute" unicode="&#x17a;" horiz-adv-x="490" 
d="M299 564h-114l128 173h126zM448 88v-88h-415v69l267 343h-252v88h392v-69l-267 -343h275z" />
    <glyph glyph-name="Zdotaccent" unicode="&#x17b;" horiz-adv-x="627" 
d="M313.5 779c-17 0 -31.667 6 -44 18s-18.5 26.667 -18.5 44s6.16699 32.166 18.5 44.499s27 18.5 44 18.5s31.667 -6.16699 44 -18.5s18.5 -27.166 18.5 -44.499s-6.16699 -32 -18.5 -44s-27 -18 -44 -18zM580 102v-102h-533v81l368 517h-344v102h499v-81l-368 -517h378z
" />
    <glyph glyph-name="zdotaccent" unicode="&#x17c;" horiz-adv-x="490" 
d="M246 579c-17.333 0 -32 6 -44 18s-18 26.667 -18 44s6 32.166 18 44.499s26.667 18.5 44 18.5s32.166 -6.16699 44.499 -18.5s18.5 -27.166 18.5 -44.499s-6.16699 -32 -18.5 -44s-27.166 -18 -44.499 -18zM448 88v-88h-415v69l267 343h-252v88h392v-69l-267 -343h275z
" />
    <glyph glyph-name="Zcaron" unicode="&#x17d;" horiz-adv-x="627" 
d="M256 764l-148 173h122l84 -108l83 108h122l-147 -173h-116zM580 102v-102h-533v81l368 517h-344v102h499v-81l-368 -517h378z" />
    <glyph glyph-name="zcaron" unicode="&#x17e;" horiz-adv-x="490" 
d="M188 564l-147 173h122l83 -108l84 108h122l-148 -173h-116zM173 88h275v-88h-415v69l267 343h-252v88h392v-69z" />
    <glyph glyph-name="florin" unicode="&#x192;" horiz-adv-x="438" 
d="M318 625c-23.333 0 -41.502 -7.83008 -54.502 -23.4971s-19.5 -37.834 -19.5 -66.501v-110h142v-86h-142v-393c0 -54.667 -13.167 -95.334 -39.5 -122.001s-60.833 -40 -103.5 -40c-21.333 0 -44 3 -68 9l9 89c8.66699 -1.33301 17.334 -2 26.001 -2
c20 0 35.667 6.16699 47 18.5s17 30.166 17 53.499v387h-98v68l93 18h5v105c0 62.667 15.333 110 46 142s70.334 48 119.001 48c51.333 0 103.333 -15 156 -45l-26 -74c-40 16.667 -76.333 24.667 -109 24z" />
    <glyph glyph-name="Ohorn" unicode="&#x1a0;" horiz-adv-x="851" 
d="M762 608c-18 -12.667 -39.334 -19.6689 -64.001 -21.002c52 -66 78 -145 78 -237c0 -67.333 -14.167 -128.5 -42.5 -183.5s-69.5 -98.833 -123.5 -131.5s-115.667 -49 -185 -49c-68.667 0 -129.834 16.333 -183.501 49s-94.834 76.667 -123.501 132s-43 116.333 -43 183
c0 67.333 14.333 128.5 43 183.5s69.834 98.833 123.501 131.5s114.834 49 183.501 49c72 0 136 -17.667 192 -53c32.667 -11.333 57.334 -10.666 74.001 2.00098c22 17.333 24.667 51 8 101l93 27c13.333 -43.333 17.333 -80.666 12 -111.999s-19.333 -55 -42 -71z
M424.999 96.998c44 0 83.168 10.833 117.501 32.5s60.833 51.667 79.5 90s28 81.833 28 130.5c0 74 -20.833 134.667 -62.5 182s-95.834 71 -162.501 71s-120.667 -23.667 -162 -71s-62 -108 -62 -182c0 -73.333 20.833 -133.833 62.5 -181.5s95.5 -71.5 161.5 -71.5z" />
    <glyph glyph-name="ohorn" unicode="&#x1a1;" horiz-adv-x="625" 
d="M516 564l77 23c22.667 -74.667 14.334 -126 -24.999 -154c-14 -10 -31 -16 -51 -18c34.667 -46.667 52 -101.667 52 -165c0 -74.667 -23.667 -137.334 -71 -188.001s-109 -76 -185 -76s-137.833 25.333 -185.5 76s-71.5 113.334 -71.5 188.001
c0 75.333 23.833 138.333 71.5 189s109.5 75.667 185.5 75c54.667 0 103 -14 145 -42c20.667 -4 36.667 -1.33301 48 8c19.333 15.333 22.666 43.333 9.99902 84zM313 87c43.333 0 77.666 15 102.999 45s38 69.333 38 118s-12.667 88 -38 118s-59.666 45 -102.999 45
c-44 0 -78.833 -15 -104.5 -45s-38.167 -69.333 -37.5 -118c0 -48.667 12.833 -88 38.5 -118s60.167 -45 103.5 -45z" />
    <glyph glyph-name="Uhorn" unicode="&#x1af;" horiz-adv-x="766" 
d="M715 791l92 27.002c10 -38.667 11.833 -71.834 5.5 -99.501s-20.166 -48.834 -41.499 -63.501c-24 -17.333 -55 -24 -93 -20v-391c0 -74.667 -27.5 -136.334 -82.5 -185.001s-125.167 -73 -210.5 -73c-84.667 0 -154.667 24.333 -210 73s-83 110.334 -83 185.001v456h122
v-456c0 -46 15.667 -82.833 47 -110.5s72.666 -41.5 123.999 -41.5c34 0 64 6.16699 90 18.5s46 30 60 53s21 49.833 21 80.5v456h112c13.333 0 24.333 3.33301 33 10c18 14.667 22.667 41.667 14 81z" />
    <glyph glyph-name="uhorn" unicode="&#x1b0;" horiz-adv-x="587" 
d="M551 594l81.9971 24c23.333 -76.667 14.666 -129.334 -26.001 -158.001c-22.667 -16.667 -51 -22.667 -85 -18v-442h-112v61c-17.333 -16 -35.833 -29.667 -55.5 -41s-39.667 -19.833 -60 -25.5s-40.166 -8.5 -59.499 -8.5c-49.333 0 -90.166 15.833 -122.499 47.5
s-48.5 78.5 -48.5 140.5v326h113v-318c0 -31.333 7.33301 -55.166 22 -71.499s35.334 -24.5 62.001 -24.5c52.667 0 102.334 20 149.001 60v354h41h58c12.667 0 23 3.33301 31 10c19.333 15.333 23 43.333 11 84z" />
    <glyph glyph-name="Acaron" unicode="&#x1cd;" horiz-adv-x="738" 
d="M311 764l-148 173h122l84 -108l84 108h121l-147 -173h-116zM710 0h-131l-55 150h-311l-55 -150h-130l273 700h136zM488 251l-119 324l-119 -324h238z" />
    <glyph glyph-name="acaron" unicode="&#x1ce;" 
d="M260 564l-147 173h122l83 -108l84 108h122l-148 -173h-116zM546 500l-0.00195312 -500.001h-113v58c-48.667 -48 -103.667 -72 -165 -72c-41.333 0 -78.666 11.833 -111.999 35.5s-59 55.5 -77 95.5s-27 84.333 -27 133c0 74.667 20.333 137.334 61 188.001
s92.334 76 155.001 76c61.333 0 116.333 -24 165 -72v58h113zM284.998 85.999c15.333 0 31.5 2.5 48.5 7.5s34.333 12.667 52 23s33.5 22.833 47.5 37.5v192c-21.333 22 -45.333 38.833 -72 50.5s-52 17.5 -76 17.5c-36.667 0 -65.5 -14.833 -86.5 -44.5
s-31.5 -69.5 -31.5 -119.5s10.5 -89.833 31.5 -119.5s49.833 -44.5 86.5 -44.5z" />
    <glyph glyph-name="Icaron" unicode="&#x1cf;" horiz-adv-x="307" 
d="M95 764l-147 173h122l83 -108l84 108h122l-148 -173h-116zM92 700h122v-700h-122v700z" />
    <glyph glyph-name="icaron" unicode="&#x1d0;" horiz-adv-x="255" 
d="M334 737l-148 -173h-116l-147 173h122l83 -108l84 108h122zM74 500h112v-500h-112v500z" />
    <glyph glyph-name="Ocaron" unicode="&#x1d1;" horiz-adv-x="851" 
d="M367 764l-147 173h121l84 -108l84 108h122l-148 -173h-116zM425 714c69.333 0 131 -16.3311 185 -48.998s95.167 -76.5 123.5 -131.5s42.5 -116.167 42.5 -183.5s-14.167 -128.5 -42.5 -183.5s-69.5 -98.833 -123.5 -131.5s-115.667 -49 -185 -49
c-68.667 0 -129.834 16.333 -183.501 49s-94.834 76.5 -123.501 131.5s-43 116.167 -43 183.5s14.333 128.666 43 183.999s69.834 99.166 123.501 131.499s114.834 48.5 183.501 48.5zM425 97.002c66.667 0 120.834 23.667 162.501 71s62.5 108 62.5 182
s-20.833 134.667 -62.5 182s-95.834 71 -162.501 71s-120.667 -23.667 -162 -71s-62 -108 -62 -182c0 -73.333 20.833 -133.833 62.5 -181.5s95.5 -71.5 161.5 -71.5z" />
    <glyph glyph-name="ocaron" unicode="&#x1d2;" horiz-adv-x="625" 
d="M255 564l-148 173h122l84 -108l83 108h122l-148 -173h-115zM313 514c50.667 0 95.667 -11.833 135 -35.5s69.333 -55.5 90 -95.5s31 -84.333 31 -133c0 -74.667 -23.667 -137.334 -71 -188.001s-109 -76 -185 -76s-137.833 25.333 -185.5 76s-71.5 113.334 -71.5 188.001
c0 75.333 23.833 138.333 71.5 189s109.5 75.667 185.5 75zM313 87c43.333 0 77.666 15 102.999 45s38 69.333 38 118s-12.667 88 -38 118s-59.666 45 -102.999 45c-44 0 -78.833 -15 -104.5 -45s-38.167 -69.333 -37.5 -118c0 -48.667 12.833 -88 38.5 -118
s60.167 -45 103.5 -45z" />
    <glyph glyph-name="Ucaron" unicode="&#x1d3;" horiz-adv-x="766" 
d="M325 764l-147 173h122l83 -108l84 108h122l-148 -173h-116zM678 700l0.000976562 -456c0 -74.667 -27.5 -136.334 -82.5 -185.001s-125.167 -73 -210.5 -73c-84.667 0 -154.667 24.333 -210 73s-83 110.334 -83 185.001v456h122v-456c0 -46 15.667 -82.833 47 -110.5
s72.666 -41.5 123.999 -41.5c52 0 93.5 13.833 124.5 41.5s46.5 64.5 46.5 110.5v456h122z" />
    <glyph glyph-name="ucaron" unicode="&#x1d4;" horiz-adv-x="587" 
d="M236 564l-148 173h122l84 -108l83 108h122l-147 -173h-116zM522 500l-0.00195312 -500.001h-112v61c-12.667 -12 -26.334 -22.833 -41.001 -32.5s-29.5 -17.5 -44.5 -23.5s-30 -10.667 -45 -14s-29.833 -5 -44.5 -5c-49.333 0 -90.166 15.833 -122.499 47.5
s-48.5 78.5 -48.5 140.5v326h113v-318c0 -31.333 7.33301 -55.166 22 -71.499s35.334 -24.5 62.001 -24.5c52.667 0 102.334 20 149.001 60v354h112z" />
    <glyph glyph-name="Udieresismacron" unicode="&#x1d5;" horiz-adv-x="766" 
d="M551 967h-335v95h335v-95zM275 904c17.333 0 32 -6.16699 44 -18.5s18 -27.166 18 -44.499s-6 -32 -18 -44s-26.667 -18 -44 -18s-32 6 -44 18s-18 26.667 -18 44s6 32.166 18 44.499s26.667 18.5 44 18.5zM491.5 904c17 0 31.667 -6.16699 44 -18.5
s18.5 -27.166 18.5 -44.499s-6.16699 -32 -18.5 -44s-27 -18 -44 -18s-31.667 6 -44 18s-18.5 26.667 -18.5 44s6.16699 32.166 18.5 44.499s27 18.5 44 18.5zM678 700l0.000976562 -456c0 -74.667 -27.5 -136.334 -82.5 -185.001s-125.167 -73 -210.5 -73
c-84.667 0 -154.667 24.333 -210 73s-83 110.334 -83 185.001v456h122v-456c0 -46 15.667 -82.833 47 -110.5s72.666 -41.5 123.999 -41.5c52 0 93.5 13.833 124.5 41.5s46.5 64.5 46.5 110.5v456h122z" />
    <glyph glyph-name="udieresismacron" unicode="&#x1d6;" horiz-adv-x="587" 
d="M461 757h-335v96h335v-96zM185.5 579c-17 0 -31.667 6 -44 18s-18.5 26.667 -18.5 44s6.16699 32.166 18.5 44.499s27 18.5 44 18.5s31.667 -6.16699 44 -18.5s18.5 -27.166 18.5 -44.499s-6.16699 -32 -18.5 -44s-27 -18 -44 -18zM402 704
c17.333 0 32 -6.16699 44 -18.5s18 -27.166 18 -44.499s-6 -32 -18 -44s-26.667 -18 -44 -18s-32 6 -44 18s-18 26.667 -18 44s6 32.166 18 44.499s26.667 18.5 44 18.5zM522 500l-0.00195312 -500.003h-112v61c-25.333 -24 -53.5 -42.5 -84.5 -55.5
s-61.167 -19.5 -90.5 -19.5c-24 0 -46 3.83301 -66 11.5s-38 18.834 -54 33.501s-28.5 34.334 -37.5 59.001s-13.5 52.667 -13.5 84v326h113v-318c0 -31.333 7.33301 -55.166 22 -71.499s35.334 -24.5 62.001 -24.5c52.667 0 102.334 20 149.001 60v354h112z" />
    <glyph glyph-name="Udieresisacute" unicode="&#x1d7;" horiz-adv-x="766" 
d="M436 944h-114l128 173h126zM275 904c17.333 0 32 -6.16602 44 -18.499s18 -27.166 18 -44.499s-6 -32 -18 -44s-26.667 -18 -44 -18c-11.333 0 -21.833 2.83301 -31.5 8.5s-17.167 13.167 -22.5 22.5s-8 19.666 -8 30.999c0 17.333 6 32.166 18 44.499
s26.667 18.5 44 18.5zM491.5 904.001c17 0 31.668 -6.16797 44.001 -18.501s18.5 -27.166 18.5 -44.499c0 -11.333 -2.83301 -21.666 -8.5 -30.999s-13.334 -16.833 -23.001 -22.5s-19.834 -8.5 -30.501 -8.5c-17.333 0 -32.166 6 -44.499 18s-18.5 26.667 -18.5 44
s6.16699 32.166 18.5 44.499s27 18.5 44 18.5zM678.001 700l0.000976562 -456c0 -74.667 -27.5 -136.334 -82.5 -185.001s-125.167 -73 -210.5 -73c-84.667 0 -154.667 24.333 -210 73s-83 110.334 -83 185.001v456h122v-456c0 -46 15.667 -82.833 47 -110.5
s72.666 -41.5 123.999 -41.5c52 0 93.5 13.833 124.5 41.5s46.5 64.5 46.5 110.5v456h122z" />
    <glyph glyph-name="udieresisacute" unicode="&#x1d8;" horiz-adv-x="587" 
d="M346 745h-114l128 173h126zM185.5 579c-17 0 -31.667 6 -44 18s-18.5 26.667 -18.5 44s6.16699 32.166 18.5 44.499s27 18.5 44 18.5s31.667 -6.16699 44 -18.5s18.5 -27.166 18.5 -44.499s-6.16699 -32 -18.5 -44s-27 -18 -44 -18zM340 641c0 17.333 6 32.166 18 44.499
s26.667 18.5 44 18.5s32 -6.16699 44 -18.5s18 -27.166 18 -44.499s-6 -32 -18 -44s-26.667 -18 -44 -18s-32 6 -44 18s-18 26.667 -18 44zM522 500l-0.00195312 -500.003h-112v61c-25.333 -24 -53.5 -42.5 -84.5 -55.5s-61.167 -19.5 -90.5 -19.5
c-24 0 -46 3.83301 -66 11.5s-38 18.834 -54 33.501s-28.5 34.334 -37.5 59.001s-13.5 52.667 -13.5 84v326h113v-318c0 -31.333 7.33301 -55.166 22 -71.499s35.334 -24.5 62.001 -24.5c52.667 0 102.334 20 149.001 60v354h112z" />
    <glyph glyph-name="Udieresiscaron" unicode="&#x1d9;" horiz-adv-x="766" 
d="M325 944l-147 172h122l83 -107l84 107h122l-148 -172h-116zM275 904c17.333 0 32 -6.16699 44 -18.5s18 -27.166 18 -44.499s-6 -32 -18 -44s-26.667 -18 -44 -18s-32 6 -44 18s-18 26.667 -18 44s6 32.166 18 44.499s26.667 18.5 44 18.5zM429 841
c0 17.333 6.16797 32.165 18.501 44.498s27 18.5 44 18.5s31.667 -6.16699 44 -18.5s18.5 -27.166 18.5 -44.499c0 -11.333 -2.83301 -21.666 -8.5 -30.999s-13.334 -16.833 -23.001 -22.5s-19.834 -8.5 -30.501 -8.5c-17.333 0 -32.166 6 -44.499 18s-18.5 26.667 -18.5 44
zM678.001 699.999l0.000976562 -456c0 -74.667 -27.5 -136.334 -82.5 -185.001s-125.167 -73 -210.5 -73c-84.667 0 -154.667 24.333 -210 73s-83 110.334 -83 185.001v456h122v-456c0 -46 15.667 -82.833 47 -110.5s72.666 -41.5 123.999 -41.5
c52 0 93.5 13.833 124.5 41.5s46.5 64.5 46.5 110.5v456h122z" />
    <glyph glyph-name="udieresiscaron" unicode="&#x1da;" horiz-adv-x="587" 
d="M236 745l-148 173h122l84 -108l83 108h122l-147 -173h-116zM185.5 704c17 0 31.667 -6.16699 44 -18.5s18.5 -27.166 18.5 -44.499s-6.16699 -32 -18.5 -44s-27 -18 -44 -18s-31.667 6 -44 18s-18.5 26.667 -18.5 44s6.16699 32.166 18.5 44.499s27 18.5 44 18.5z
M340 641c0 17.333 6 32.166 18 44.499s26.667 18.5 44 18.5s32 -6.16699 44 -18.5s18 -27.166 18 -44.499s-6 -32 -18 -44s-26.667 -18 -44 -18s-32 6 -44 18s-18 26.667 -18 44zM522 500l-0.00195312 -500.003h-112v61c-25.333 -24 -53.5 -42.5 -84.5 -55.5
s-61.167 -19.5 -90.5 -19.5c-24 0 -46 3.83301 -66 11.5s-38 18.834 -54 33.501s-28.333 34.334 -37 59.001s-13 52.667 -13 84v326h112v-318c0 -31.333 7.33301 -55.166 22 -71.499s35.334 -24.5 62.001 -24.5c52.667 0 102.334 20 149.001 60v354h112z" />
    <glyph glyph-name="Udieresisgrave" unicode="&#x1db;" horiz-adv-x="766" 
d="M439 944h-113l-140 173h125zM275 904c17.333 0 32 -6.16699 44 -18.5s18 -27.166 18 -44.499s-6 -32 -18 -44s-26.667 -18 -44 -18s-32 6 -44 18s-18 26.667 -18 44s6 32.166 18 44.499s26.667 18.5 44 18.5zM491.5 904c17 0 31.667 -6.16699 44 -18.5
s18.5 -27.166 18.5 -44.499s-6.16699 -32 -18.5 -44s-27 -18 -44 -18s-31.667 6 -44 18s-18.5 26.667 -18.5 44s6.16699 32.166 18.5 44.499s27 18.5 44 18.5zM678 700l0.000976562 -456c0 -74.667 -27.5 -136.334 -82.5 -185.001s-125.167 -73 -210.5 -73
c-84.667 0 -154.667 24.333 -210 73s-83 110.334 -83 185.001v456h122v-456c0 -46 15.667 -82.833 47 -110.5s72.666 -41.5 123.999 -41.5c52 0 93.5 13.833 124.5 41.5s46.5 64.5 46.5 110.5v456h122z" />
    <glyph glyph-name="udieresisgrave" unicode="&#x1dc;" horiz-adv-x="587" 
d="M236 745l-140 173h126l128 -173h-114zM185.5 704c17 0 31.667 -6.16699 44 -18.5s18.5 -27.166 18.5 -44.499s-6.16699 -32 -18.5 -44s-27 -18 -44 -18s-31.667 6 -44 18s-18.5 26.667 -18.5 44s6.16699 32.166 18.5 44.499s27 18.5 44 18.5zM402 579
c-17.333 0 -32 6 -44 18s-18 26.667 -18 44s6 32.166 18 44.499s26.667 18.5 44 18.5s32 -6.16699 44 -18.5s18 -27.166 18 -44.499s-6 -32 -18 -44s-26.667 -18 -44 -18zM522 500l-0.00195312 -500.003h-112v61c-25.333 -24 -53.5 -42.5 -84.5 -55.5
s-61.167 -19.5 -90.5 -19.5c-24 0 -46 3.83301 -66 11.5s-38 18.834 -54 33.501s-28.5 34.334 -37.5 59.001s-13.5 52.667 -13.5 84v326h113v-318c0 -31.333 7.33301 -55.166 22 -71.499s35.334 -24.5 62.001 -24.5c52.667 0 102.334 20 149.001 60v354h112z" />
    <glyph glyph-name="Scommaaccent" unicode="&#x218;" horiz-adv-x="639" 
d="M325 714c33.333 0 65.8301 -3.8291 97.4971 -11.4961s60.5 -18.167 86.5 -31.5s49 -29 69 -47l-66 -83c-52 42 -115 63 -189 63c-87.333 0 -131.666 -32.667 -132.999 -98c0 -16 3.83301 -28.833 11.5 -38.5s22.167 -18.834 43.5 -27.501s55 -19.334 101 -32.001
c3.33301 -0.666992 7.66602 -1.66699 12.999 -3c20 -6 35.5 -10.5 46.5 -13.5s26 -7.83301 45 -14.5s33.833 -13.167 44.5 -19.5s23 -14.833 37 -25.5s24.833 -21.834 32.5 -33.501s14.167 -25.834 19.5 -42.501s8.33301 -35 9 -55c0 -36 -8 -68.167 -24 -96.5
s-37.333 -50.833 -64 -67.5s-55.5 -29.334 -86.5 -38.001s-62.833 -13 -95.5 -13c-53.333 0 -105.666 10.833 -156.999 32.5s-91.333 50.5 -120 86.5l67 80c23.333 -28.667 54.666 -51 93.999 -67s78 -23.667 116 -23c42 -0.666992 76.333 8.33301 103 27
s40.334 43.667 41.001 75c0 12 -2.33301 22.5 -7 31.5s-9.83398 16.333 -15.501 22s-15.667 11.334 -30 17.001s-26.666 10.167 -36.999 13.5s-27.166 8 -50.499 14c-7.33301 2 -13 3.66699 -17 5c-46.667 12.667 -84.167 24.5 -112.5 35.5s-53.166 24.333 -74.499 40
s-36.5 33.667 -45.5 54s-13.5 44.833 -13.5 73.5c0 37.333 7.33301 70 22 98s34.5 50 59.5 66s52.5 27.833 82.5 35.5s62.333 11.5 97 11.5zM319.997 -55.9961c14.667 0.666992 27.333 -4.16699 38 -14.5s17.334 -24.166 20.001 -41.499
c4.66699 -27.333 -1.83301 -57.333 -19.5 -90s-40.5 -59.334 -68.5 -80.001l-38 25c28.667 26 47.667 56 57 90c-12.667 2.66699 -23.334 9 -32.001 19s-13 22 -13 36c0 16 5.5 29.5 16.5 40.5s24.167 16.167 39.5 15.5z" />
    <glyph glyph-name="scommaaccent" unicode="&#x219;" horiz-adv-x="493" 
d="M247 514c36.667 0 72.167 -5.33789 106.5 -16.0049s62.833 -27 85.5 -49l-47 -74c-15.333 15.333 -35.666 27.166 -60.999 35.499s-51.833 12.5 -79.5 12.5s-49.667 -4.83301 -66 -14.5s-24.833 -24.167 -25.5 -43.5c-0.666992 -14.667 5.83301 -26 19.5 -34
s41.834 -17.667 84.501 -29c2 0 4.66699 -0.666992 8 -2c14 -3.33301 24.667 -6 32 -8s17.666 -5.16699 30.999 -9.5s23.833 -8.33301 31.5 -12s16.834 -8.5 27.501 -14.5s19.167 -12.667 25.5 -20s12.666 -15.5 18.999 -24.5s10.833 -19.167 13.5 -30.5
s4 -23.666 4 -36.999c0 -27.333 -6.33301 -51.666 -19 -72.999s-29.834 -38 -51.501 -50s-44.667 -20.833 -69 -26.5s-49.833 -8.5 -76.5 -8.5c-41.333 0 -80.666 6.83301 -117.999 20.5s-66 33.167 -86 58.5l47 74c14.667 -20 36 -35.5 64 -46.5s57.667 -16.5 89 -16.5
c32 0 58 6 78 18s30 28 30 48c0.666992 7.33301 -0.666016 13.833 -3.99902 19.5s-7 10.334 -11 14.001s-10.833 7.33398 -20.5 11.001s-17.834 6.5 -24.501 8.5s-17.334 5 -32.001 9c-8 2 -14.333 3.66699 -19 5c-68 17.333 -115.667 36.333 -143 57s-41 51.667 -41 93
c0 27.333 5.5 51.333 16.5 72s26.167 36.834 45.5 48.501s40.333 20.334 63 26.001s47 8.5 73 8.5zM247 -56.0049c14.667 0.666992 27.3311 -4.16797 37.998 -14.501s17.334 -24.166 20.001 -41.499c4 -27.333 -2.66699 -57.333 -20 -90s-40.333 -59.334 -69 -80.001l-38 25
c29.333 26 48.333 56 57 90c-8 2 -15.5 5.33301 -22.5 10s-12.5 11 -16.5 19s-6 16.667 -6 26c0 10.667 2.5 20.334 7.5 29.001s11.833 15.5 20.5 20.5s18.334 7.16699 29.001 6.5z" />
    <glyph glyph-name="uni021A" unicode="&#x21a;" 
d="M587 700v-102h-218v-598h-123v598h-218v102h559zM312 -56c14.667 0.666992 27.333 -4.16699 38 -14.5s17.334 -24.166 20.001 -41.499c4.66699 -27.333 -1.83301 -57.333 -19.5 -90s-40.5 -59.334 -68.5 -80.001l-38 25c28.667 26 47.667 56 57 90
c-12.667 2.66699 -23.334 9 -32.001 19s-13 22 -13 36c0 16 5.5 29.5 16.5 40.5s24.167 16.167 39.5 15.5z" />
    <glyph glyph-name="uni021B" unicode="&#x21b;" horiz-adv-x="456" 
d="M280 -14c-44 0 -80.333 12.667 -109 38s-43 64 -43 116v271h-98v71l93 18h5v139h112v-139h142v-89h-142v-263c0 -44 23 -66 69 -66c21.333 0 45.333 4.66699 72 14l25 -76c-40 -22.667 -82 -34 -126 -34zM232 -56c14.667 0.666992 27.332 -4.16797 37.999 -14.501
s17.334 -24.166 20.001 -41.499c4 -27.333 -2.66699 -57.333 -20 -90s-40 -59.334 -68 -80.001l-39 25c29.333 26 48.333 56 57 90c-12.667 2.66699 -23.334 9 -32.001 19s-13 22 -13 36c0 10.667 2.5 20.334 7.5 29.001s11.833 15.5 20.5 20.5s18.334 7.16699 29.001 6.5z
" />
    <glyph glyph-name="circumflex" unicode="&#x2c6;" horiz-adv-x="487" 
d="M327 564l-84 108l-83 -108h-122l147 173h116l148 -173h-122z" />
    <glyph glyph-name="caron" unicode="&#x2c7;" horiz-adv-x="487" 
d="M449 737l-148 -173h-116l-147 173h122l83 -108l84 108h122z" />
    <glyph glyph-name="breve" unicode="&#x2d8;" horiz-adv-x="450" 
d="M319 733h93.999c0 -46.667 -17.333 -85.834 -52 -117.501s-80 -47.5 -136 -47.5c-55.333 0 -100.333 15.833 -135 47.5s-52 70.834 -52 117.501h94c0 -24 8.83301 -43.333 26.5 -58s39.834 -22 66.501 -22c27.333 0 49.833 7.33301 67.5 22s26.5 34 26.5 58z" />
    <glyph glyph-name="dotaccent" unicode="&#x2d9;" horiz-adv-x="193" 
d="M96 704c17.333 0 32.166 -6.16699 44.499 -18.5s18.5 -27.166 18.5 -44.499s-6.16699 -32 -18.5 -44s-27.166 -18 -44.499 -18s-32 6 -44 18s-18 26.667 -18 44s6 32.166 18 44.499s26.667 18.5 44 18.5z" />
    <glyph glyph-name="ring" unicode="&#x2da;" horiz-adv-x="348" 
d="M174 797c26 0 49.3311 -5.83594 69.998 -17.5029s36.334 -27.167 47.001 -46.5s16 -41 16 -65c0 -36 -12.333 -66.333 -37 -91s-56.667 -37 -96 -37c-19.333 0 -37.5 3.33301 -54.5 10s-31.167 15.834 -42.5 27.501s-20.166 25.334 -26.499 41.001s-9.5 32.167 -9.5 49.5
c0 36.667 12.333 67.334 37 92.001s56.667 37 96 37zM173.998 728.997c-16 0 -29.167 -5.5 -39.5 -16.5s-15.5 -25.667 -15.5 -44s5.16699 -33 15.5 -44s23.5 -16.5 39.5 -16.5s29.167 5.5 39.5 16.5s15.5 25.667 15.5 44s-5.16699 33 -15.5 44s-23.5 16.5 -39.5 16.5z" />
    <glyph glyph-name="ogonek" unicode="&#x2db;" horiz-adv-x="306" 
d="M136 6h71.001c-49.333 -32 -74 -65.333 -74 -100c0 -32.667 19.667 -49 59 -49c19.333 0 37 3.66699 53 11l23 -64c-28 -18.667 -62.667 -28 -104 -28c-34.667 0 -64.334 8.66699 -89.001 26s-37 41.333 -37 72c0 49.333 32.667 93.333 98 132z" />
    <glyph glyph-name="tilde" unicode="&#x2dc;" horiz-adv-x="475" 
d="M169 727c26.667 0 58.668 -14.3301 96.001 -42.9971c20.667 -15.333 36 -23 46 -23c18.667 0 41 20.333 67 61l60 -46c-13.333 -19.333 -23.166 -33.5 -29.499 -42.5s-15.166 -19.333 -26.499 -31s-23 -19.834 -35 -24.501s-25.333 -7.33398 -40 -8.00098
c-10 0 -19.5 1.16699 -28.5 3.5s-18 6 -27 11s-15.5 9 -19.5 12s-11 8.16699 -21 15.5c-20.667 15.333 -36.667 23 -48 23c-18 0 -40 -20.333 -66 -61l-59 47c9.33301 14.667 15.666 24.167 18.999 28.5s10.166 13 20.499 26s19.166 22.167 26.499 27.5s17 10.666 29 15.999
s24 8 36 8z" />
    <glyph glyph-name="hungarumlaut" unicode="&#x2dd;" horiz-adv-x="533" 
d="M148 564h-110l129 173h123zM354 564h-111l129 173h123z" />
    <glyph glyph-name="dotbelowcomb" unicode="&#x323;" horiz-adv-x="0" 
d="M96 -63c17.333 0 32.166 -6.16699 44.499 -18.5s18.5 -27 18.5 -44s-6.16699 -31.667 -18.5 -44s-27.166 -18.5 -44.499 -18.5s-32 6.16699 -44 18.5s-18 27 -18 44s6 31.667 18 44s26.667 18.5 44 18.5z" />
    <glyph glyph-name="uni0326" unicode="&#x326;" horiz-adv-x="0" 
d="M94 -56c15.333 0.666992 28.1689 -4.16699 38.502 -14.5s17.166 -24.166 20.499 -41.499c4 -27.333 -2.83301 -57.333 -20.5 -90s-40.5 -59.334 -68.5 -80.001l-38 25c29.333 26 48.333 56 57 90c-12.667 2.66699 -23.334 9 -32.001 19s-13 22 -13 36
c0 16 5.5 29.5 16.5 40.5s24.167 16.167 39.5 15.5z" />
    <glyph glyph-name="uni032D" unicode="&#x32d;" horiz-adv-x="0" 
d="M327 -226l-84 107l-83 -107h-122l147 172h116l148 -172h-122z" />
    <glyph glyph-name="uni0331" unicode="&#x331;" horiz-adv-x="0" 
d="M373 -173h-335v96h335v-96z" />
    <glyph glyph-name="Delta" unicode="&#x394;" horiz-adv-x="600" 
 />
    <glyph glyph-name="Omega" unicode="&#x3a9;" horiz-adv-x="600" 
 />
    <glyph glyph-name="mu" unicode="&#x3bc;" horiz-adv-x="600" 
 />
    <glyph glyph-name="pi" unicode="&#x3c0;" horiz-adv-x="600" 
 />
    <glyph glyph-name="Wgrave" unicode="&#x1e80;" horiz-adv-x="1029" 
d="M571 764h-114l-140 173h126zM820 0h-152l-154 551l-153 -551h-152l-181 700h131l131 -544l146 544h157l146 -544l131 544h131z" />
    <glyph glyph-name="wgrave" unicode="&#x1e81;" horiz-adv-x="836" 
d="M474 564h-113l-140 173h126zM647 0h-122l-107 370l-107 -370h-121l-172 500h119l115 -367l103 367h126l103 -367l115 367h120z" />
    <glyph glyph-name="Wacute" unicode="&#x1e82;" horiz-adv-x="1029" 
d="M567 764h-114l128 173h126zM820 0h-152l-154 551l-153 -551h-152l-181 700h131l131 -544l146 544h157l146 -544l131 544h131z" />
    <glyph glyph-name="wacute" unicode="&#x1e83;" horiz-adv-x="836" 
d="M471 564h-114l128 173h126zM647 0h-122l-107 370l-107 -370h-121l-172 500h119l115 -367l103 367h126l103 -367l115 367h120z" />
    <glyph glyph-name="Wdieresis" unicode="&#x1e84;" horiz-adv-x="1029" 
d="M406.5 904c17 0 31.667 -6.16699 44 -18.5s18.5 -27.166 18.5 -44.499s-6.16699 -32 -18.5 -44s-27 -18 -44 -18s-31.667 6 -44 18s-18.5 26.667 -18.5 44s6.16699 32.166 18.5 44.499s27 18.5 44 18.5zM623 904c17.333 0 32 -6.16797 44 -18.501s18 -27.166 18 -44.499
c0 -11.333 -2.66699 -21.666 -8 -30.999s-12.833 -16.833 -22.5 -22.5s-20.167 -8.5 -31.5 -8.5c-17.333 0 -32.166 6 -44.499 18s-18.5 26.667 -18.5 44s6.16699 32.166 18.5 44.499s27.166 18.5 44.499 18.5zM820 -0.000976562h-152l-154 551l-153 -551h-152l-181 700h131
l131 -544l146 544h157l146 -544l131 544h131z" />
    <glyph glyph-name="wdieresis" unicode="&#x1e85;" horiz-adv-x="836" 
d="M310 704c17.333 0 32.166 -6.16699 44.499 -18.5s18.5 -27.166 18.5 -44.499s-6.16699 -32 -18.5 -44s-27.166 -18 -44.499 -18s-32 6 -44 18s-18 26.667 -18 44s6 32.166 18 44.499s26.667 18.5 44 18.5zM526.5 704c17 0 31.667 -6.16699 44 -18.5
s18.5 -27.166 18.5 -44.499s-6.16699 -32 -18.5 -44s-27 -18 -44 -18s-31.667 6 -44 18s-18.5 26.667 -18.5 44s6.16699 32.166 18.5 44.499s27 18.5 44 18.5zM647 0h-122l-107 370l-107 -370h-121l-172 500h119l115 -367l103 367h126l103 -367l115 367h120z" />
    <glyph glyph-name="Adotbelow" unicode="&#x1ea0;" horiz-adv-x="738" 
d="M710 0h-131l-55 150h-311l-55 -150h-130l273 700h136zM250 251h238l-119 324zM369 -63c17.333 0 32 -6.16699 44 -18.5s18 -27 18 -44s-6 -31.667 -18 -44s-26.667 -18.5 -44 -18.5s-32.166 6.16699 -44.499 18.5s-18.5 27 -18.5 44s6.16699 31.667 18.5 44
s27.166 18.5 44.499 18.5z" />
    <glyph glyph-name="adotbelow" unicode="&#x1ea1;" 
d="M546 500l-0.00195312 -500.001h-113v58c-48.667 -48 -103.667 -72 -165 -72c-41.333 0 -78.666 11.833 -111.999 35.5s-59 55.5 -77 95.5s-27 84.333 -27 133c0 74.667 20.333 137.334 61 188.001s92.334 76 155.001 76c61.333 0 116.333 -24 165 -72v58h113z
M284.998 85.999c24 0 49.333 5.83301 76 17.5s50.667 28.5 72 50.5v192c-21.333 22 -45.333 38.833 -72 50.5s-52 17.5 -76 17.5c-36.667 0 -65.5 -14.833 -86.5 -44.5s-31.5 -69.5 -31.5 -119.5s10.5 -89.833 31.5 -119.5s49.833 -44.5 86.5 -44.5zM317.998 -63.001
c17.333 0 32.166 -6.16699 44.499 -18.5s18.5 -27 18.5 -44s-6.16699 -31.667 -18.5 -44s-27.166 -18.5 -44.499 -18.5s-32 6.16699 -44 18.5s-18 27 -18 44s6 31.667 18 44s26.667 18.5 44 18.5z" />
    <glyph glyph-name="Ahookabove" unicode="&#x1ea2;" horiz-adv-x="738" 
d="M403 995c38 0 68.1631 -7.66699 90.4961 -23s33.5 -42.333 33.5 -81c0 -27.333 -6.33301 -47.5 -19 -60.5s-36 -27.833 -70 -44.5c-11.333 -5.33301 -19.166 -9.83301 -23.499 -13.5s-6.83301 -8.83398 -7.5 -15.501h-83c0.666992 14.667 2.83398 27.5 6.50098 38.5
s9.33398 20.333 17.001 28s15.167 13.5 22.5 17.5s17 9 29 15c16.667 7.33301 27.834 13.833 33.501 19.5s8.5 11.834 8.5 18.501c-0.666992 15.333 -14.667 23 -42 23c-19.333 0 -42 -3.66699 -68 -11l-36 68c32 14 68 21 108 21zM709.996 0h-131l-55 150h-311l-55 -150
h-130l273 700h136zM249.996 251h238l-119 324z" />
    <glyph glyph-name="ahookabove" unicode="&#x1ea3;" 
d="M335 739c-19.333 0 -42.3379 -3.66797 -69.0049 -11.001l-35 67c32 14 68 21 108 21c38 0 68.167 -7.5 90.5 -22.5s33.5 -41.833 33.5 -80.5c0 -27.333 -6.33301 -47.5 -19 -60.5s-36 -27.833 -70 -44.5c-11.333 -5.33301 -19.166 -9.83301 -23.499 -13.5
s-6.83301 -9.16699 -7.5 -16.5h-83c0.666992 20 4.83398 36.667 12.501 50s15.834 23 24.501 29s21.334 12.667 38.001 20c16.667 8 27.834 14.833 33.501 20.5s8.16699 11.834 7.5 18.501c0 15.333 -13.667 23 -41 23zM545.995 499.999l-0.00195312 -500.001h-113v58
c-48.667 -48 -103.667 -72 -165 -72c-41.333 0 -78.666 11.833 -111.999 35.5s-59 55.5 -77 95.5s-27 84.333 -27 133c0 74.667 20.333 137.334 61 188.001s92.334 76 155.001 76c61.333 0 116.333 -24 165 -72v58h113zM284.993 85.998c24 0 49.333 5.83301 76 17.5
s50.667 28.5 72 50.5v192c-21.333 22 -45.333 38.833 -72 50.5s-52 17.5 -76 17.5c-36.667 0 -65.5 -14.833 -86.5 -44.5s-31.5 -69.5 -31.5 -119.5s10.5 -89.833 31.5 -119.5s49.833 -44.5 86.5 -44.5z" />
    <glyph glyph-name="Acircumflexacute" unicode="&#x1ea4;" horiz-adv-x="738" 
d="M673 825h-114l128 173h126zM285 764h-122l148 173h116l147 -173h-121l-84 108zM437 700l273 -700h-131l-55 150h-311l-55 -150h-130l273 700h136zM488 251l-119 324l-119 -324h238z" />
    <glyph glyph-name="acircumflexacute" unicode="&#x1ea5;" 
d="M762 798l-140 -173h-113l127 173h126zM235 564h-122l147 173h116l148 -173h-122l-84 108zM433 500l112.998 -0.000976562v-500h-113v58c-48.667 -48 -103.667 -72 -165 -72c-41.333 0 -78.666 11.833 -111.999 35.5s-59 55.5 -77 95.5s-27 84.333 -27 133
c0 74.667 20.333 137.334 61 188.001s92.334 76 155.001 76c61.333 0 116.333 -24 165 -72v58zM284.998 85.999c15.333 0 31.5 2.5 48.5 7.5s34.333 12.667 52 23s33.5 22.833 47.5 37.5v192c-21.333 22 -45.333 38.833 -72 50.5s-52 17.5 -76 17.5
c-36.667 0 -65.5 -14.833 -86.5 -44.5s-31.5 -69.5 -31.5 -119.5s10.5 -89.833 31.5 -119.5s49.833 -44.5 86.5 -44.5z" />
    <glyph glyph-name="Acircumflexgrave" unicode="&#x1ea6;" horiz-adv-x="738" 
d="M597 825l-140 173h126l128 -173h-114zM285 764h-122l148 173h116l147 -173h-121l-84 108zM437 700l273 -700h-131l-55 150h-311l-55 -150h-130l273 700h136zM488 251l-119 324l-119 -324h238z" />
    <glyph glyph-name="acircumflexgrave" unicode="&#x1ea7;" 
d="M661 625h-114l-140 173h126zM235 564h-122l147 173h116l148 -173h-122l-84 108zM433 500l112.998 -0.000976562v-500h-113v58c-48.667 -48 -103.667 -72 -165 -72c-41.333 0 -78.666 11.833 -111.999 35.5s-59 55.5 -77 95.5s-27 84.333 -27 133
c0 74.667 20.333 137.334 61 188.001s92.334 76 155.001 76c61.333 0 116.333 -24 165 -72v58zM284.998 85.999c24 0 49.333 5.83301 76 17.5s50.667 28.5 72 50.5v192c-21.333 22 -45.333 38.833 -72 50.5s-52 17.5 -76 17.5c-36.667 0 -65.5 -14.833 -86.5 -44.5
s-31.5 -69.5 -31.5 -119.5s10.5 -89.833 31.5 -119.5s49.833 -44.5 86.5 -44.5z" />
    <glyph glyph-name="Acircumflexhookabove" unicode="&#x1ea8;" horiz-adv-x="738" 
d="M648 1036c18 0 33.9951 -1.66797 47.9951 -5.00098s26.833 -8.66602 38.5 -15.999s20.834 -18 27.501 -32s10 -31 10 -51c0 -27.333 -6.33301 -47.5 -19 -60.5s-36 -27.5 -70 -43.5c-11.333 -5.33301 -19.166 -10 -23.499 -14s-6.83301 -9.33301 -7.5 -16h-83
c0.666992 19.333 4.83398 35.833 12.501 49.5s15.834 23.5 24.501 29.5s21.334 12.667 38.001 20c16.667 8 27.667 14.667 33 20s8 11.333 8 18c0 16 -13.667 23.667 -41 23c-19.333 0 -42.333 -3.66699 -69 -11l-35 68c32 14 68 21 108 21zM284.995 763.999h-122l148 173
h116l147 -173h-121l-84 108zM436.995 699.999l273 -700h-131l-55 150h-311l-55 -150h-130l273 700h136zM487.995 250.999l-119 324l-119 -324h238z" />
    <glyph glyph-name="acircumflexhookabove" unicode="&#x1ea9;" 
d="M597 836c18 0 34 -1.66797 48 -5.00098s27 -8.66602 39 -15.999s21.167 -18 27.5 -32s9.5 -31 9.5 -51c0 -27.333 -6.33301 -47.5 -19 -60.5s-36 -27.5 -70 -43.5c-10.667 -5.33301 -18.167 -10 -22.5 -14s-6.83301 -9.33301 -7.5 -16h-83
c0 19.333 3.83301 35.833 11.5 49.5s16 23.5 25 29.5s21.5 12.667 37.5 20c16.667 8 27.834 14.667 33.501 20s8.5 11.333 8.5 18c0 16 -14 23.667 -42 23c-18.667 0 -41.334 -3.66699 -68.001 -11l-36 68c32.667 14 68.667 21 108 21zM235 563.999h-122l147 173h116
l148 -173h-122l-84 108zM433 499.999l112.998 -0.000976562v-500h-113v58c-48.667 -48 -103.667 -72 -165 -72c-41.333 0 -78.666 11.833 -111.999 35.5s-59 55.5 -77 95.5s-27 84.333 -27 133c0 74.667 20.333 137.334 61 188.001s92.334 76 155.001 76
c61.333 0 116.333 -24 165 -72v58zM284.998 85.998c24 0 49.333 5.83301 76 17.5s50.667 28.5 72 50.5v192c-21.333 22 -45.333 38.833 -72 50.5s-52 17.5 -76 17.5c-36.667 0 -65.5 -14.833 -86.5 -44.5s-31.5 -69.5 -31.5 -119.5s10.5 -89.833 31.5 -119.5
s49.833 -44.5 86.5 -44.5z" />
    <glyph glyph-name="Acircumflextilde" unicode="&#x1eaa;" horiz-adv-x="738" 
d="M294 1020c-18 0 -39.9971 -20.3311 -65.9971 -60.998l-59 47c9.33301 14.667 15.666 24.167 18.999 28.5s10.166 13 20.499 26s19.166 22.167 26.499 27.5s17 10.666 29 15.999s24 8 36 8c26.667 0 58.667 -14 96 -42c20.667 -16 36 -24 46 -24c19.333 0 42 20.333 68 61
l59 -46c-12.667 -19.333 -22.334 -33.333 -29.001 -42s-15.667 -19 -27 -31s-23 -20.333 -35 -25s-25.333 -7.33398 -40 -8.00098c-12.667 0 -25.667 2.66699 -39 8s-23 10 -29 14s-15 10.667 -27 20c-21.333 15.333 -37.666 23 -48.999 23zM285.003 764.002h-122l148 173
h116l147 -173h-121l-84 108zM710.003 0.00195312h-131l-55 150h-311l-55 -150h-130l273 700h136zM488.003 251.002l-119 324l-119 -324h238z" />
    <glyph glyph-name="acircumflextilde" unicode="&#x1eab;" 
d="M244 820c-18 0 -40 -20.3311 -66 -60.998l-59 47c9.33301 14.667 15.5 24.167 18.5 28.5s9.66699 13 20 26s19.333 22.167 27 27.5s17.334 10.666 29.001 15.999s23.834 8 36.501 8c26 0 57.667 -14 95 -42c21.333 -16 37 -24 47 -24c18.667 0 41 20.333 67 61l59 -46
c-12.667 -19.333 -22.334 -33.333 -29.001 -42s-15.667 -19 -27 -31s-22.833 -20.333 -34.5 -25s-24.834 -7.33398 -39.501 -8.00098c-13.333 0 -26.5 2.66699 -39.5 8s-22.5 10 -28.5 14s-15.333 10.667 -28 20c-21.333 15.333 -37.333 23 -48 23zM235 564.002h-122
l147 173h116l148 -173h-122l-84 108zM546 500.002l-0.00195312 -500.001h-113v58c-48.667 -48 -103.667 -72 -165 -72c-41.333 0 -78.666 11.833 -111.999 35.5s-59 55.5 -77 95.5s-27 84.333 -27 133c0 74.667 20.333 137.334 61 188.001s92.334 76 155.001 76
c61.333 0 116.333 -24 165 -72v58h113zM284.998 86.001c24 0 49.333 5.83301 76 17.5s50.667 28.5 72 50.5v192c-14 14.667 -29.833 27.167 -47.5 37.5s-35 18 -52 23s-33.167 7.5 -48.5 7.5c-36.667 0 -65.5 -14.833 -86.5 -44.5s-31.5 -69.5 -31.5 -119.5
s10.5 -89.833 31.5 -119.5s49.833 -44.5 86.5 -44.5z" />
    <glyph glyph-name="Acircumflexdotbelow" unicode="&#x1eac;" horiz-adv-x="738" 
d="M285 764h-122l148 173h116l147 -173h-121l-84 108zM710 0h-131l-55 150h-311l-55 -150h-130l273 700h136zM488 251l-119 324l-119 -324h238zM369 -63c17.333 0 32 -6.16699 44 -18.5s18 -27 18 -44s-6 -31.667 -18 -44s-26.667 -18.5 -44 -18.5
s-32.166 6.16699 -44.499 18.5s-18.5 27 -18.5 44s6.16699 31.667 18.5 44s27.166 18.5 44.499 18.5z" />
    <glyph glyph-name="acircumflexdotbelow" unicode="&#x1ead;" 
d="M235 564h-122l147 173h116l148 -173h-122l-84 108zM546 500l-0.00195312 -500.001h-113v58c-48.667 -48 -103.667 -72 -165 -72c-41.333 0 -78.666 11.833 -111.999 35.5s-59 55.5 -77 95.5s-27 84.333 -27 133c0 74.667 20.333 137.334 61 188.001s92.334 76 155.001 76
c61.333 0 116.333 -24 165 -72v58h113zM284.998 85.999c15.333 0 31.5 2.49902 48.5 7.49902s34.333 12.667 52 23s33.5 22.833 47.5 37.5v192c-21.333 22 -45.333 38.833 -72 50.5s-52 17.5 -76 17.5c-18 0 -34.5 -3.83301 -49.5 -11.5s-27.5 -18.667 -37.5 -33
s-17.667 -31.666 -23 -51.999s-8 -42.833 -8 -67.5c0 -50 10.5 -89.833 31.5 -119.5s49.833 -44.5 86.5 -44.5zM317.998 -63.002c17.333 0 32.166 -6.16699 44.499 -18.5s18.5 -27 18.5 -44s-6.16699 -31.667 -18.5 -44s-27.166 -18.5 -44.499 -18.5s-32 6.16699 -44 18.5
s-18 27 -18 44s6 31.667 18 44s26.667 18.5 44 18.5z" />
    <glyph glyph-name="Abreveacute" unicode="&#x1eae;" horiz-adv-x="738" 
d="M421 938h-113l127 173h126zM462 933h94.001c0 -46.667 -17.333 -85.834 -52 -117.501s-79.667 -47.5 -135 -47.5s-100.5 15.833 -135.5 47.5s-52.5 70.834 -52.5 117.501h94c0 -24 8.83301 -43.333 26.5 -58s40.167 -22 67.5 -22s49.666 7.33301 66.999 22s26 34 26 58z
M710.001 0h-131l-55 150h-311l-55 -150h-130l273 700h136zM250.001 251h238l-119 324z" />
    <glyph glyph-name="abreveacute" unicode="&#x1eaf;" 
d="M371 738h-114l128 173h126zM318 568c-55.333 0 -100.334 15.834 -135.001 47.501s-52 70.834 -52 117.501h94c0 -24 8.83301 -43.333 26.5 -58s39.834 -22 66.501 -22c18 0 34 3.16699 48 9.5s25.167 15.666 33.5 27.999s12.5 26.5 12.5 42.5h94
c0 -46.667 -17.333 -85.834 -52 -117.501s-80 -47.5 -136 -47.5zM545.999 500.001l-0.00195312 -500.001h-113v58c-48.667 -48 -103.667 -72 -165 -72c-41.333 0 -78.666 11.833 -111.999 35.5s-59 55.5 -77 95.5s-27 84.333 -27 133c0 74.667 20.333 137.334 61 188.001
s92.334 76 155.001 76c61.333 0 116.333 -24 165 -72v58h113zM284.997 86c24 0 49.333 5.83301 76 17.5s50.667 28.5 72 50.5v192c-21.333 22 -45.333 38.833 -72 50.5s-52 17.5 -76 17.5c-36.667 0 -65.5 -14.833 -86.5 -44.5s-31.5 -69.5 -31.5 -119.5
s10.5 -89.833 31.5 -119.5s49.833 -44.5 86.5 -44.5z" />
    <glyph glyph-name="Abrevegrave" unicode="&#x1eb0;" horiz-adv-x="738" 
d="M425 938h-114l-140 173h126zM462 933h94.001c0 -46.667 -17.333 -85.834 -52 -117.501s-79.667 -47.5 -135 -47.5s-100.5 15.833 -135.5 47.5s-52.5 70.834 -52.5 117.501h94c0 -24 8.83301 -43.333 26.5 -58s40.167 -22 67.5 -22s49.666 7.33301 66.999 22s26 34 26 58z
M710.001 0h-131l-55 150h-311l-55 -150h-130l273 700h136zM250.001 251h238l-119 324z" />
    <glyph glyph-name="abrevegrave" unicode="&#x1eb1;" 
d="M261 738l-140 173h126l127 -173h-113zM131 733l93.999 0.000976562c0 -24 8.83301 -43.333 26.5 -58s39.834 -22 66.501 -22c18 0 34 3.16699 48 9.5s25.167 15.666 33.5 27.999s12.5 26.5 12.5 42.5h94c0 -46.667 -17.333 -85.834 -52 -117.501s-80 -47.5 -136 -47.5
c-55.333 0 -100.333 15.833 -135 47.5s-52 70.834 -52 117.501zM545.999 500.001l-0.00195312 -500.001h-113v58c-48.667 -48 -103.667 -72 -165 -72c-41.333 0 -78.666 11.833 -111.999 35.5s-59 55.5 -77 95.5s-27 84.333 -27 133c0 74.667 20.333 137.334 61 188.001
s92.334 76 155.001 76c61.333 0 116.333 -24 165 -72v58h113zM284.997 86c24 0 49.333 5.83301 76 17.5s50.667 28.5 72 50.5v192c-14 14.667 -29.833 27.167 -47.5 37.5s-35 18 -52 23s-33.167 7.5 -48.5 7.5c-36.667 0 -65.5 -14.833 -86.5 -44.5
s-31.5 -69.5 -31.5 -119.5s10.5 -89.833 31.5 -119.5s49.833 -44.5 86.5 -44.5z" />
    <glyph glyph-name="Abrevehookabove" unicode="&#x1eb2;" horiz-adv-x="738" 
d="M389 1153c38 0 68.167 -7.66602 90.5 -22.999s33.5 -42.333 33.5 -81c0 -14 -1.5 -26 -4.5 -36s-8.83301 -19 -17.5 -27s-17.5 -14.667 -26.5 -20s-22.5 -12.333 -40.5 -21c-5.33301 -2.66699 -9.5 -4.83398 -12.5 -6.50098s-6 -3.66699 -9 -6
s-5.16699 -4.83301 -6.5 -7.5s-2.33301 -6 -3 -10h-82c0 20 3.83301 36.667 11.5 50s16 23 25 29s21.5 12.667 37.5 20c16.667 8 27.834 14.667 33.501 20s8.5 11.333 8.5 18c0 16 -14 24 -42 24c-18.667 0 -41.334 -4 -68.001 -12l-36 68c32.667 14 68.667 21 108 21z
M462 933.001h94.001c0 -46.667 -17.333 -85.834 -52 -117.501s-79.667 -47.5 -135 -47.5s-100.5 15.833 -135.5 47.5s-52.5 70.834 -52.5 117.501h94c0 -24 8.83301 -43.333 26.5 -58s40.167 -22 67.5 -22s49.666 7.33301 66.999 22s26 34 26 58zM710.001 0.000976562h-131
l-55 150h-311l-55 -150h-130l273 700h136zM250.001 251.001h238l-119 324z" />
    <glyph glyph-name="abrevehookabove" unicode="&#x1eb3;" 
d="M335 876c-19.333 0 -42.3379 -4 -69.0049 -12l-35 68c32 14 68 21 108 21c38 0 68.167 -7.66699 90.5 -23s33.5 -42.333 33.5 -81c0 -26.667 -6.33301 -46.667 -19 -60s-36 -28 -70 -44c-11.333 -5.33301 -19.166 -10 -23.499 -14s-6.83301 -9.33301 -7.5 -16h-83
c0.666992 20 4.83398 36.667 12.501 50s15.834 23 24.501 29s21.334 12.667 38.001 20c16.667 8 27.834 14.667 33.501 20s8.16699 11.333 7.5 18c0 16 -13.667 24 -41 24zM317.995 568c-55.333 0 -100.334 15.834 -135.001 47.501s-52 70.834 -52 117.501h94
c0 -24 8.83301 -43.333 26.5 -58s39.834 -22 66.501 -22c18 0 34 3.16699 48 9.5s25.167 15.666 33.5 27.999s12.5 26.5 12.5 42.5h94c0 -46.667 -17.333 -85.834 -52 -117.501s-80 -47.5 -136 -47.5zM545.994 500.001l-0.00195312 -500.001h-113v58
c-48.667 -48 -103.667 -72 -165 -72c-41.333 0 -78.666 11.833 -111.999 35.5s-59 55.5 -77 95.5s-27 84.333 -27 133c0 74.667 20.333 137.334 61 188.001s92.334 76 155.001 76c61.333 0 116.333 -24 165 -72v58h113zM284.992 86c24 0 49.333 5.83301 76 17.5
s50.667 28.5 72 50.5v192c-21.333 22 -45.333 38.833 -72 50.5s-52 17.5 -76 17.5c-36.667 0 -65.5 -14.833 -86.5 -44.5s-31.5 -69.5 -31.5 -119.5s10.5 -89.833 31.5 -119.5s49.833 -44.5 86.5 -44.5z" />
    <glyph glyph-name="Abrevetilde" unicode="&#x1eb4;" horiz-adv-x="738" 
d="M300 1112c26.667 0 58.667 -14.002 96 -42.002c20.667 -16 36 -24 46 -24c19.333 0 42 20.667 68 62l59 -47c-12.667 -19.333 -22.334 -33.333 -29.001 -42s-15.667 -19 -27 -31s-23 -20.333 -35 -25s-25.333 -7.33398 -40 -8.00098c-12.667 0 -25.667 2.66699 -39 8
s-23 10 -29 14s-15 10.667 -27 20c-21.333 15.333 -37.666 23 -48.999 23c-18 0 -40 -20.333 -66 -61l-59 47c0.666992 1.33301 2 3.33301 4 6c7.33301 11.333 13.333 20.333 18 27s11.5 15.334 20.5 26.001s17.5 18.834 25.5 24.501s17.5 10.834 28.5 15.501s22.5 7 34.5 7
zM462 932.998h94.001c0 -46.667 -17.333 -85.834 -52 -117.501s-79.667 -47.5 -135 -47.5s-100.5 15.833 -135.5 47.5s-52.5 70.834 -52.5 117.501h94c0 -24 8.83301 -43.333 26.5 -58s40.167 -22 67.5 -22s49.666 7.33301 66.999 22s26 34 26 58zM710.001 -0.00195312h-131
l-55 150h-311l-55 -150h-130l273 700h136zM250.001 250.998h238l-119 324z" />
    <glyph glyph-name="abrevetilde" unicode="&#x1eb5;" 
d="M244 813c-18 0.666992 -39.998 -19.666 -65.998 -60.999l-59 47l3 6c10 14.667 18.167 26.167 24.5 34.5s15 18.5 26 30.5s23 20.833 36 26.5s26.833 8.5 41.5 8.5c26 0 57.667 -14 95 -42c21.333 -16 37 -23.667 47 -23c18.667 -0.666992 41 19.666 67 60.999l59 -47
c-12.667 -19.333 -22.334 -33.333 -29.001 -42s-15.667 -19 -27 -31s-22.833 -20.333 -34.5 -25s-24.834 -7 -39.501 -7c-13.333 0 -26.5 2.5 -39.5 7.5s-22.5 9.5 -28.5 13.5s-15.333 10.667 -28 20c-21.333 16 -37.333 23.667 -48 23zM318.002 653
c27.333 0 49.832 7.33301 67.499 22s26.5 34 26.5 58h94c0 -46.667 -17.333 -85.834 -52 -117.501s-80 -47.5 -136 -47.5c-27.333 0 -52.833 4.33301 -76.5 13s-43.5 20.334 -59.5 35.001s-28.5 32.167 -37.5 52.5s-13.5 41.833 -13.5 64.5h94
c0 -24 8.83301 -43.333 26.5 -58s39.834 -22 66.501 -22zM546.001 500l-0.00195312 -500.001h-113v58c-48.667 -48 -103.667 -72 -165 -72c-41.333 0 -78.666 11.833 -111.999 35.5s-59 55.5 -77 95.5s-27 84.333 -27 133c0 74.667 20.333 137.334 61 188.001
s92.334 76 155.001 76c61.333 0 116.333 -24 165 -72v58h113zM284.999 85.999c24 0 49.333 5.83301 76 17.5s50.667 28.5 72 50.5v192c-21.333 22 -45.333 38.833 -72 50.5s-52 17.5 -76 17.5c-36.667 0 -65.5 -14.833 -86.5 -44.5s-31.5 -69.5 -31.5 -119.5
s10.5 -89.833 31.5 -119.5s49.833 -44.5 86.5 -44.5z" />
    <glyph glyph-name="Abrevedotbelow" unicode="&#x1eb6;" horiz-adv-x="738" 
d="M462 933h94.001c0 -46.667 -17.333 -85.834 -52 -117.501s-79.667 -47.5 -135 -47.5s-100.5 15.833 -135.5 47.5s-52.5 70.834 -52.5 117.501h94c0 -24 8.83301 -43.333 26.5 -58s40.167 -22 67.5 -22s49.666 7.33301 66.999 22s26 34 26 58zM710.001 0h-131l-55 150
h-311l-55 -150h-130l273 700h136zM250.001 251h238l-119 324zM369.001 -63c17.333 0 32 -6.16699 44 -18.5s18 -27 18 -44s-6 -31.667 -18 -44s-26.667 -18.5 -44 -18.5s-32.166 6.16699 -44.499 18.5s-18.5 27 -18.5 44s6.16699 31.667 18.5 44s27.166 18.5 44.499 18.5z
" />
    <glyph glyph-name="abrevedotbelow" unicode="&#x1eb7;" 
d="M318 568c-55.333 0 -100.334 15.833 -135.001 47.5s-52 70.834 -52 117.501h94c0 -24 8.83301 -43.333 26.5 -58s39.834 -22 66.501 -22c27.333 0 49.833 7.33301 67.5 22s26.5 34 26.5 58h94c0 -46.667 -17.333 -85.834 -52 -117.501s-80 -47.5 -136 -47.5zM545.999 500
l-0.00195312 -500.001h-113v58c-48.667 -48 -103.667 -72 -165 -72c-41.333 0 -78.666 11.833 -111.999 35.5s-59 55.5 -77 95.5s-27 84.333 -27 133c0 74.667 20.333 137.334 61 188.001s92.334 76 155.001 76c61.333 0 116.333 -24 165 -72v58h113zM284.997 85.999
c24 0 49.333 5.83301 76 17.5s50.667 28.5 72 50.5v192c-21.333 22 -45.333 38.833 -72 50.5s-52 17.5 -76 17.5c-36.667 0 -65.5 -14.833 -86.5 -44.5s-31.5 -69.5 -31.5 -119.5s10.5 -89.833 31.5 -119.5s49.833 -44.5 86.5 -44.5zM317.997 -63.001
c17.333 0 32.166 -6.16699 44.499 -18.5s18.5 -27 18.5 -44s-6.16699 -31.667 -18.5 -44s-27.166 -18.5 -44.499 -18.5s-32 6.16699 -44 18.5s-18 27 -18 44s6 31.667 18 44s26.667 18.5 44 18.5z" />
    <glyph glyph-name="Edotbelow" unicode="&#x1eb8;" horiz-adv-x="628" 
d="M580 102v-102h-488v700h478v-102h-356v-181h317v-101h-317v-214h366zM336.5 -63c17 0 31.667 -6.16699 44 -18.5s18.5 -27 18.5 -44s-6.16699 -31.667 -18.5 -44s-27 -18.5 -44 -18.5s-31.667 6.16699 -44 18.5s-18.5 27 -18.5 44s6.16699 31.667 18.5 44
s27 18.5 44 18.5z" />
    <glyph glyph-name="edotbelow" unicode="&#x1eb9;" horiz-adv-x="586" 
d="M303 514c75.333 0 133.666 -24.833 174.999 -74.5s62 -114.5 62 -194.5c0 -7.33301 -0.333008 -15 -1 -23h-366c0 -2.66699 0.333008 -5.33398 1 -8.00098c6 -40 21.167 -71.667 45.5 -95s54.833 -35 91.5 -35c50 0 103 14.667 159 44l27 -74
c-59.333 -45.333 -123.666 -68 -192.999 -68c-73.333 0 -133 25.333 -179 76s-69 113.334 -69 188.001c0 75.333 22.833 138.333 68.5 189s105.167 75.667 178.5 75zM306 416c-34.667 0 -63.168 -10.332 -85.501 -30.999s-37.166 -48.334 -44.499 -83.001h250
c-11.333 76 -51.333 114 -120 114zM303.999 -62.999c17.333 0 32 -6.16699 44 -18.5s18 -27 18 -44s-6 -31.667 -18 -44s-26.667 -18.5 -44 -18.5s-32 6.16699 -44 18.5s-18 27 -18 44s6 31.667 18 44s26.667 18.5 44 18.5z" />
    <glyph glyph-name="Ehookabove" unicode="&#x1eba;" horiz-adv-x="628" 
d="M368 917c-19.333 0 -42.334 -3.66797 -69.001 -11.001l-36 68c32.667 14 69 21 109 21c18 0 33.833 -1.66699 47.5 -5s26.5 -8.66602 38.5 -15.999s21.167 -18 27.5 -32s9.5 -31 9.5 -51c0 -14.667 -1.5 -26.834 -4.5 -36.501s-8.83301 -18.667 -17.5 -27
s-17.5 -15.166 -26.5 -20.499s-22.167 -12.333 -39.5 -21c-11.333 -5.33301 -19.166 -9.83301 -23.499 -13.5s-6.83301 -8.83398 -7.5 -15.501h-83c0 19.333 3.83301 35.833 11.5 49.5s16 23.5 25 29.5s21.833 12.667 38.5 20c16 7.33301 26.833 13.833 32.5 19.5
s8.5 11.834 8.5 18.501c0 15.333 -13.667 23 -41 23zM579.999 101.999v-102h-488v700h478v-102h-356v-181h317v-101h-317v-214h366z" />
    <glyph glyph-name="ehookabove" unicode="&#x1ebb;" horiz-adv-x="586" 
d="M327 816c38 0 68.167 -7.50098 90.5 -22.501s33.5 -41.833 33.5 -80.5c0 -27.333 -6.33301 -47.5 -19 -60.5s-36 -27.833 -70 -44.5c-10.667 -5.33301 -18.167 -9.83301 -22.5 -13.5s-6.83301 -9.16699 -7.5 -16.5h-83c0 20 3.83301 36.667 11.5 50s16 23 25 29
s21.5 12.667 37.5 20c16.667 8 27.834 14.833 33.501 20.5s8.5 11.834 8.5 18.501c0 15.333 -14 23 -42 23c-18.667 0 -41.334 -3.66699 -68.001 -11l-36 67c32.667 14 68.667 21 108 21zM303 513.999c75.333 0 133.666 -24.833 174.999 -74.5s62 -114.5 62 -194.5
c0 -7.33301 -0.333008 -15 -1 -23h-366c0 -2.66699 0.333008 -5.33398 1 -8.00098c6 -40 21.167 -71.667 45.5 -95s54.833 -35 91.5 -35c50 0 103 14.667 159 44l27 -74c-59.333 -45.333 -123.666 -68 -192.999 -68c-73.333 0 -133 25.333 -179 76s-69 113.334 -69 188.001
c0 75.333 22.833 138.333 68.5 189s105.167 75.667 178.5 75zM306 415.999c-17.333 0 -33.334 -2.66699 -48.001 -8s-27.5 -13 -38.5 -23s-20.167 -22 -27.5 -36s-12.666 -29.667 -15.999 -47h250c-11.333 76 -51.333 114 -120 114z" />
    <glyph glyph-name="Etilde" unicode="&#x1ebc;" horiz-adv-x="628" 
d="M261 835c-17.333 0 -39.334 -20.3301 -66.001 -60.9971l-59 47c0.666992 1.33301 2 3.33301 4 6c10 14.667 18 26.167 24 34.5s14.667 18.333 26 30s23.5 20.5 36.5 26.5s26.5 9 40.5 9c26.667 0 58.667 -14.333 96 -43c20.667 -15.333 36.334 -23 47.001 -23
c18.667 0 41 20.333 67 61l59 -46c-12.667 -19.333 -22.334 -33.5 -29.001 -42.5s-15.667 -19.333 -27 -31s-23 -19.834 -35 -24.501s-25 -7.33398 -39 -8.00098c-13.333 0 -26.5 2.5 -39.5 7.5s-22.667 9.66699 -29 14s-15.5 11.166 -27.5 20.499
c-21.333 15.333 -37.666 23 -48.999 23zM579.999 102.003v-102h-488v700h478v-102h-356v-181h317v-101h-317v-214h366z" />
    <glyph glyph-name="etilde" unicode="&#x1ebd;" horiz-adv-x="586" 
d="M233 727c26.667 0 58.667 -14.3301 96 -42.9971c20.667 -15.333 36.334 -23 47.001 -23c18.667 0 41 20.333 67 61l59 -46c-12.667 -19.333 -22.334 -33.5 -29.001 -42.5s-15.667 -19.333 -27 -31s-23 -19.834 -35 -24.501s-25 -7.33398 -39 -8.00098
c-10 0 -19.5 1.16699 -28.5 3.5s-18.167 6 -27.5 11s-16 9 -20 12s-10.667 8.16699 -20 15.5c-21.333 15.333 -37.666 23 -48.999 23c-17.333 0 -39.333 -20.333 -66 -61l-59 47c10 14.667 16.5 24.167 19.5 28.5s9.66699 13 20 26s19.166 22.167 26.499 27.5
s17 10.666 29 15.999s24 8 36 8zM303 514.003c75.333 0 133.666 -24.833 174.999 -74.5s62 -114.5 62 -194.5c0 -7.33301 -0.333008 -15 -1 -23h-366c0 -2.66699 0.333008 -5.33398 1 -8.00098c6 -40 21.167 -71.667 45.5 -95s54.833 -35 91.5 -35c50 0 103 14.667 159 44
l27 -74c-59.333 -45.333 -123.666 -68 -192.999 -68c-73.333 0 -133 25.333 -179 76s-69 113.334 -69 188.001c0 75.333 22.833 138.333 68.5 189s105.167 75.667 178.5 75zM306 416.003c-34.667 0 -63.168 -10.332 -85.501 -30.999s-37.166 -48.334 -44.499 -83.001h250
c-11.333 76 -51.333 114 -120 114z" />
    <glyph glyph-name="Ecircumflexacute" unicode="&#x1ebe;" horiz-adv-x="628" 
d="M780 998l-140 -173h-114l128 173h126zM252 764h-121l147 173h116l147 -173h-121l-84 108zM214 102h366v-102h-488v700h478v-102h-356v-181h317v-101h-317v-214z" />
    <glyph glyph-name="ecircumflexacute" unicode="&#x1ebf;" horiz-adv-x="586" 
d="M746 798l-140 -173h-114l128 173h126zM218 564h-121l147 173h116l148 -173h-122l-84 108zM303 514c75.333 0 133.666 -24.833 174.999 -74.5s62 -114.5 62 -194.5c0 -7.33301 -0.333008 -15 -1 -23h-366c0 -2.66699 0.333008 -5.33398 1 -8.00098
c6 -40 21.167 -71.667 45.5 -95s54.833 -35 91.5 -35c50 0 103 14.667 159 44l27 -74c-59.333 -45.333 -123.666 -68 -192.999 -68c-73.333 0 -133 25.333 -179 76s-69 113.334 -69 188.001c0 75.333 22.833 138.333 68.5 189s105.167 75.667 178.5 75zM176 302h250
c-11.333 76 -51.333 114 -120 114c-14 0 -27 -1.66699 -39 -5s-23 -8.33301 -33 -15s-18.833 -14.667 -26.5 -24s-14.167 -20 -19.5 -32s-9.33301 -24.667 -12 -38z" />
    <glyph glyph-name="Ecircumflexgrave" unicode="&#x1ec0;" horiz-adv-x="628" 
d="M564 825l-139 173h125l128 -173h-114zM252 764h-121l147 173h116l147 -173h-121l-84 108zM214 102h366v-102h-488v700h478v-102h-356v-181h317v-101h-317v-214z" />
    <glyph glyph-name="ecircumflexgrave" unicode="&#x1ec1;" horiz-adv-x="586" 
d="M530 625l-139 173h125l128 -173h-114zM218 564h-121l147 173h116l148 -173h-122l-84 108zM303 514c75.333 0 133.666 -24.833 174.999 -74.5s62 -114.5 62 -194.5c0 -7.33301 -0.333008 -15 -1 -23h-366c0 -2.66699 0.333008 -5.33398 1 -8.00098
c6 -40 21.167 -71.667 45.5 -95s54.833 -35 91.5 -35c50 0 103 14.667 159 44l27 -74c-59.333 -45.333 -123.666 -68 -192.999 -68c-73.333 0 -133 25.333 -179 76s-69 113.334 -69 188.001c0 75.333 22.833 138.333 68.5 189s105.167 75.667 178.5 75zM176 302
l249.999 0.000976562c-11.333 76 -51.333 114 -120 114c-34.667 0 -63.167 -10.333 -85.5 -31s-37.166 -48.334 -44.499 -83.001z" />
    <glyph glyph-name="Ecircumflexhookabove" unicode="&#x1ec2;" horiz-adv-x="628" 
d="M615 1036c18 0 33.9971 -1.66895 47.9971 -5.00195s27 -8.66602 39 -15.999s21.167 -18 27.5 -32s9.5 -31 9.5 -51c0 -27.333 -6.33301 -47.5 -19 -60.5s-36 -27.5 -70 -43.5c-8 -4 -13.667 -7.16699 -17 -9.5s-6.33301 -5.16602 -9 -8.49902
s-4.33398 -7.33301 -5.00098 -12h-83c0.666992 19.333 4.83398 35.833 12.501 49.5s15.834 23.5 24.501 29.5s21.334 12.667 38.001 20c16.667 8 27.834 14.667 33.501 20s8.5 11.333 8.5 18c-0.666992 16 -14.667 23.667 -42 23c-19.333 0 -42 -3.66699 -68 -11l-36 68
c32 14 68 21 108 21zM251.997 763.998h-121l147 173h116l147 -173h-121l-84 108zM213.997 101.998h366v-102h-488v700h478v-102h-356v-181h317v-101h-317v-214z" />
    <glyph glyph-name="ecircumflexhookabove" unicode="&#x1ec3;" horiz-adv-x="586" 
d="M581 836c38 0 68.1621 -7.66699 90.4951 -23s33.5 -42.333 33.5 -81c0 -27.333 -6.33301 -47.5 -19 -60.5s-36 -27.5 -70 -43.5c-11.333 -5.33301 -19.166 -10 -23.499 -14s-6.83301 -9.33301 -7.5 -16h-83c0.666992 19.333 4.83398 35.833 12.501 49.5
s15.834 23.5 24.501 29.5s21.334 12.667 38.001 20c16.667 8 27.834 14.667 33.501 20s8.5 11.333 8.5 18c-0.666992 16 -14.667 23.667 -42 23c-19.333 0 -42 -3.66699 -68 -11l-36 68c32.667 14 68.667 21 108 21zM217.995 564h-121l147 173h116l148 -173h-122l-84 108z
M302.995 514c75.333 0 133.666 -24.832 174.999 -74.499s62 -114.5 62 -194.5c0 -7.33301 -0.333008 -15 -1 -23h-366c0 -2.66699 0.333008 -5.33398 1 -8.00098c4 -26.667 12 -49.667 24 -69s27.667 -34.333 47 -45s41.333 -16 66 -16c50 0 103 14.667 159 44l27 -74
c-59.333 -45.333 -123.666 -68 -192.999 -68c-48.667 0 -92.167 11.833 -130.5 35.5s-67.5 55.5 -87.5 95.5s-30 84.333 -30 133c0 75.333 22.833 138.333 68.5 189s105.167 75.667 178.5 75zM175.995 302.001l250.002 0.000976562c-11.333 76 -51.333 114 -120 114
c-34.667 0 -63.334 -10.333 -86.001 -31s-37.334 -48.334 -44.001 -83.001z" />
    <glyph glyph-name="Ecircumflextilde" unicode="&#x1ec4;" horiz-adv-x="628" 
d="M261 1020c-17.333 0 -39.333 -20.3311 -66 -60.998l-59 47c10 14.667 16.5 24.167 19.5 28.5s9.66699 13 20 26s19.166 22.167 26.499 27.5s17 10.666 29 15.999s24 8 36 8c26.667 0 58.667 -14 96 -42c20.667 -16 36.334 -24 47.001 -24c18.667 0 41 20.333 67 61
l59 -46c-12.667 -19.333 -22.334 -33.333 -29.001 -42s-15.667 -19 -27 -31s-23 -20.333 -35 -25s-25 -7.33398 -39 -8.00098c-13.333 0 -26.5 2.66699 -39.5 8s-22.667 10 -29 14s-15.5 10.667 -27.5 20c-21.333 15.333 -37.666 23 -48.999 23zM252 764.002h-121l147 173
h116l147 -173h-121l-84 108zM580 102.002v-102h-488v700h478v-102h-356v-181h317v-101h-317v-214h366z" />
    <glyph glyph-name="ecircumflextilde" unicode="&#x1ec5;" horiz-adv-x="586" 
d="M227 820c-17.333 0 -39.333 -20.3301 -66 -60.9971l-59 47c10 14.667 16.5 24.167 19.5 28.5s9.66699 13 20 26s19.166 22.167 26.499 27.5s17 10.666 29 15.999s24 8 36 8c26.667 0 58.667 -14 96 -42c20.667 -16 36.334 -24 47.001 -24c18.667 0 41 20.333 67 61
l59 -46c-12.667 -19.333 -22.334 -33.333 -29.001 -42s-15.667 -19 -27 -31s-23 -20.333 -35 -25s-25 -7.33398 -39 -8.00098c-10 0 -19.5 1.16699 -28.5 3.5s-18.167 6.16602 -27.5 11.499s-16 9.33301 -20 12s-10.667 7.66699 -20 15
c-21.333 15.333 -37.666 23 -48.999 23zM218 564.003h-121l147 173h116l148 -173h-122l-84 108zM303 514.003c75.333 0 133.666 -24.833 174.999 -74.5s62 -114.5 62 -194.5c0 -7.33301 -0.333008 -15 -1 -23h-366c0 -2.66699 0.333008 -5.33398 1 -8.00098
c6 -40 21.167 -71.667 45.5 -95s54.833 -35 91.5 -35c50 0 103 14.667 159 44l27 -74c-59.333 -45.333 -123.666 -68 -192.999 -68c-73.333 0 -133 25.333 -179 76s-69 113.334 -69 188.001c0 75.333 22.833 138.333 68.5 189s105.167 75.667 178.5 75zM176 302.003
l250.002 0.000976562c-11.333 76 -51.333 114 -120 114c-34.667 0 -63.334 -10.333 -86.001 -31s-37.334 -48.334 -44.001 -83.001z" />
    <glyph glyph-name="Ecircumflexdotbelow" unicode="&#x1ec6;" horiz-adv-x="628" 
d="M252 764h-121l147 173h116l147 -173h-121l-84 108zM580 102v-102h-488v700h478v-102h-356v-181h317v-101h-317v-214h366zM336.5 -63c17 0 31.667 -6.16699 44 -18.5s18.5 -27 18.5 -44s-6.16699 -31.667 -18.5 -44s-27 -18.5 -44 -18.5s-31.667 6.16699 -44 18.5
s-18.5 27 -18.5 44s6.16699 31.667 18.5 44s27 18.5 44 18.5z" />
    <glyph glyph-name="ecircumflexdotbelow" unicode="&#x1ec7;" horiz-adv-x="586" 
d="M218 564h-121l147 173h116l148 -173h-122l-84 108zM303 514c75.333 0 133.666 -24.833 174.999 -74.5s62 -114.5 62 -194.5c0 -7.33301 -0.333008 -15 -1 -23h-366c0 -2.66699 0.333008 -5.33398 1 -8.00098c6 -40 21.167 -71.667 45.5 -95s54.833 -35 91.5 -35
c50 0 103 14.667 159 44l27 -74c-59.333 -45.333 -123.666 -68 -192.999 -68c-73.333 0 -133 25.333 -179 76s-69 113.334 -69 188.001c0 75.333 22.833 138.333 68.5 189s105.167 75.667 178.5 75zM176 302l250.002 0.000976562c-11.333 76 -51.333 114 -120 114
c-34.667 0 -63.334 -10.333 -86.001 -31s-37.334 -48.334 -44.001 -83.001zM304.002 -62.999c17.333 0 32 -6.16699 44 -18.5s18 -27 18 -44s-6 -31.667 -18 -44s-26.667 -18.5 -44 -18.5s-32 6.16699 -44 18.5s-18 27 -18 44s6 31.667 18 44s26.667 18.5 44 18.5z" />
    <glyph glyph-name="Ihookabove" unicode="&#x1ec8;" horiz-adv-x="307" 
d="M190 995c14 0 26.8291 -0.999023 38.4961 -2.99902s23 -5.33301 34 -10s20.167 -10.834 27.5 -18.501s13.166 -17.667 17.499 -30s6.5 -26.5 6.5 -42.5c0 -27.333 -6.33301 -47.5 -19 -60.5s-36 -27.833 -70 -44.5c-11.333 -5.33301 -19.166 -9.83301 -23.499 -13.5
s-6.83301 -8.83398 -7.5 -15.501h-83c0.666992 19.333 4.83398 35.833 12.501 49.5s15.834 23.5 24.501 29.5s21.334 12.667 38.001 20s27.834 13.833 33.501 19.5s8.5 11.834 8.5 18.501c-0.666992 15.333 -14.667 23 -42 23c-19.333 0 -42 -3.66699 -68 -11l-36 68
c32 14 68 21 108 21zM213.996 0.000976562h-122v700h122v-700z" />
    <glyph glyph-name="ihookabove" unicode="&#x1ec9;" horiz-adv-x="255" 
d="M166 816c38 0 68.167 -7.50098 90.5 -22.501s33.5 -41.833 33.5 -80.5c0 -27.333 -6.33301 -47.5 -19 -60.5s-36 -27.833 -70 -44.5c-11.333 -5.33301 -19 -9.83301 -23 -13.5s-6.66699 -9.16699 -8 -16.5h-82c0 20 3.83301 36.667 11.5 50s16 23 25 29
s21.5 12.667 37.5 20c16.667 8 27.834 14.833 33.501 20.5s8.5 11.834 8.5 18.501c0 15.333 -14 23 -42 23c-18.667 0 -41.334 -3.66699 -68.001 -11l-36 67c32.667 14 68.667 21 108 21zM186 -0.000976562h-112v500h112v-500z" />
    <glyph glyph-name="Idotbelow" unicode="&#x1eca;" horiz-adv-x="307" 
d="M214 0h-122v700h122v-700zM153 -63c17.333 0 32.166 -6.16699 44.499 -18.5s18.5 -27 18.5 -44s-6.16699 -31.667 -18.5 -44s-27.166 -18.5 -44.499 -18.5s-32 6.16699 -44 18.5s-18 27 -18 44s6 31.667 18 44s26.667 18.5 44 18.5z" />
    <glyph glyph-name="idotbelow" unicode="&#x1ecb;" horiz-adv-x="255" 
d="M130 704c18.667 0 34.5 -6.33301 47.5 -19s19.5 -28.334 19.5 -47.001c0 -12 -3 -23 -9 -33s-14.167 -18 -24.5 -24s-21.5 -9 -33.5 -9s-23.167 3 -33.5 9s-18.5 14 -24.5 24s-9 21 -9 33c0 18.667 6.5 34.334 19.5 47.001s28.833 19 47.5 19zM186 0h-112v500h112v-500z
M130 -63c17.333 0 32 -6.16699 44 -18.5s18 -27 18 -44s-6 -31.667 -18 -44s-26.667 -18.5 -44 -18.5s-32 6.16699 -44 18.5s-18 27 -18 44s6 31.667 18 44s26.667 18.5 44 18.5z" />
    <glyph glyph-name="Odotbelow" unicode="&#x1ecc;" horiz-adv-x="851" 
d="M425 714c69.333 0 131 -16.3311 185 -48.998s95.167 -76.5 123.5 -131.5s42.5 -116.167 42.5 -183.5s-14.167 -128.5 -42.5 -183.5s-69.5 -98.833 -123.5 -131.5s-115.667 -49 -185 -49c-68.667 0 -129.834 16.333 -183.501 49s-95 76.5 -124 131.5
s-43.5 116.167 -43.5 183.5s14.5 128.666 43.5 183.999s70.333 99.166 124 131.499s114.834 48.5 183.501 48.5zM425 603.002c-66.667 0 -120.667 -23.667 -162 -71s-62 -108 -62 -182c0 -73.333 20.833 -133.833 62.5 -181.5s95.5 -71.5 161.5 -71.5
c66.667 0 120.834 23.667 162.501 71s62.5 108 62.5 182s-20.833 134.667 -62.5 182s-95.834 71 -162.501 71zM425 -62.998c17.333 0 32 -6.16699 44 -18.5s18 -27 18 -44s-6 -31.667 -18 -44s-26.667 -18.5 -44 -18.5s-32 6.16699 -44 18.5s-18 27 -18 44s6 31.667 18 44
s26.667 18.5 44 18.5z" />
    </font>
</defs>
</svg>
